<?xml version="1.0" encoding="UTF-8" standalone="no"?>
<!-- Created with Inkscape (http://www.inkscape.org/) -->

<svg
   width="699.99994"
   height="500"
   viewBox="0 0 699.99994 500"
   version="1.1"
   id="svg1"
   xml:space="preserve"
   xmlns="http://www.w3.org/2000/svg"
   xmlns:svg="http://www.w3.org/2000/svg"><defs
     id="defs1"><linearGradient
       id="swatch362"><stop
         style="stop-color:#a0892c;stop-opacity:1;"
         offset="0"
         id="stop362" /></linearGradient></defs><g
     id="layer6"
     style="display:inline"
     transform="translate(-20,-300)"><path
       id="path145"
       style="display:inline;stroke-width:0.409327"
       d="m 258.61086,300 c 0,0 -236.766143,35.13567 -238.599609,275 -1.69439,221.66944 188.535039,224.96994 197.736329,225 h 24.71679 319.34571 80.85156 c 0,0 77.53602,-8e-5 77.33789,-130.89844 -0.0732,-48.29895 -2.83763,-89.90506 -24.29492,-133.79101 -2.99043,-6.05463 -6.27538,-11.65749 -9.85742,-16.8086 -3.58201,-5.15118 -7.41343,-9.36502 -11.49024,-12.64257 -4.07684,-3.27759 -8.47575,-5.19392 -13.20117,-5.74805 -0.59068,-0.0693 -1.18296,-0.10625 -1.77734,-0.11133 -4.16074,-0.0356 -8.4151,1.50142 -12.75782,4.61133 -5.12014,3.34673 -9.31573,7.0714 -12.58789,11.17383 -3.27215,4.1024 -5.86309,8.36829 -7.77343,12.79492 -1.91035,4.42653 -3.21181,8.81525 -3.90235,13.16797 -0.69053,4.35266 -1.02856,8.64431 -1.01562,12.87304 -0.0644,9.60159 1.57625,19.56025 4.92382,29.87696 2.86997,7.58011 6.27745,13.86748 10.21876,18.86133 3.94131,4.99383 7.99823,9.61353 12.17187,13.86132 4.17364,4.24768 8.03531,8.61058 11.58398,13.08594 3.54867,4.47543 6.34971,10.17499 8.4043,17.09961 1.86172,12.97085 2.2097,24.56507 2.1582,38.54492 C 670.56635,749.99581 644.71047,750 644.71047,750 H 561.81008 242.46437 217.74758 c 0,0 -152.200246,-0.54271 -148.302736,-175 C 74.664732,341.35147 258.61086,300 258.61086,300 Z m 109.18164,50.00195 c -2.54068,0.0258 -5.1971,0.39883 -7.96875,1.1211 -3.69553,0.96301 -7.32219,2.89023 -10.88086,5.77929 -3.55866,2.88905 -6.84434,6.94601 -9.85547,12.17383 -3.01114,5.22781 -5.74721,11.83124 -8.21094,19.81055 -1.095,3.85206 -1.16517,7.77403 -0.20703,11.76367 0.95813,3.98966 2.39636,7.22093 4.3125,9.69727 2.19,2.75149 4.10565,4.81566 5.74805,6.1914 1.64247,1.37574 3.01054,2.61424 4.10547,3.71485 0.2738,0.27514 2.73891,1.37474 7.39258,3.30078 4.6536,1.92603 10.94818,1.92603 18.88671,0 4.6536,-1.37574 8.76166,-3.301 12.32032,-5.77735 3.55869,-2.47634 6.56953,-5.0903 9.0332,-7.84179 2.46373,-2.75148 4.3111,-5.22654 5.54297,-7.42774 1.2318,-2.20117 1.98408,-3.5786 2.25781,-4.1289 3.28487,-5.50298 4.85952,-10.59202 4.72266,-15.26953 -0.1368,-4.67755 -0.88913,-8.80396 -2.25781,-12.38086 -1.6425,-4.12724 -4.24414,-7.84274 -7.80274,-11.14454 -8.48609,-5.77811 -16.69819,-8.94188 -24.63672,-9.49218 -0.82124,-0.0688 -1.65505,-0.0984 -2.50195,-0.0898 z m 85,0 c -2.54069,0.0258 -5.1971,0.39883 -7.96875,1.1211 -3.69553,0.96301 -7.32219,2.89024 -10.88086,5.77929 -3.55867,2.88905 -6.84434,6.94601 -9.85547,12.17383 -3.01113,5.2278 -5.7472,11.83125 -8.21094,19.81055 -1.095,3.85206 -1.16323,7.77403 -0.20507,11.76367 0.9581,3.98965 2.39441,7.22093 4.31054,9.69727 2.19,2.75148 4.10565,4.81566 5.74805,6.1914 1.64247,1.37574 3.01249,2.61425 4.10742,3.71485 0.2738,0.27514 2.73696,1.37474 7.39063,3.30078 4.6536,1.92603 10.95013,1.92603 18.88867,0 4.6536,-1.37574 8.75969,-3.30101 12.31836,-5.77735 3.55868,-2.47634 6.56953,-5.09031 9.0332,-7.84179 2.46373,-2.75148 4.3111,-5.22655 5.54297,-7.42774 1.2318,-2.20117 1.98408,-3.5786 2.25781,-4.1289 3.28487,-5.50297 4.85952,-10.59203 4.72266,-15.26953 -0.1368,-4.67753 -0.88908,-8.80396 -2.25781,-12.38086 -1.6425,-4.12723 -4.24414,-7.84275 -7.80274,-11.14454 -8.48609,-5.7781 -16.69818,-8.94188 -24.63672,-9.49218 -0.82123,-0.0688 -1.65506,-0.0984 -2.50195,-0.0898 z" /></g></svg>
