<svg xmlns="http://www.w3.org/2000/svg" viewBox="0 0 154 1204">
  <path d="M66 180C62 180 56 180 52 182C44 185 38 193 34 205C31 213 30 223 30 231C30 236 30 241 31 246C33 260 39 275 48 291C56 306 60 349 60 421L60 428L60 456C60 462 59 467 59 469L59 475L59 479C59 481 58 485 58 491L58 519C58 523 57 528 57 532C57 599 69 635 88 644L93 644C107 644 117 638 121 626C123 621 124 617 124 611C124 602 121 590 116 578C108 559 102 515 102 444L102 414L102 398L102 386L102 372C102 366 103 358 103 348L103 307L103 286C103 244 102 218 97 207C92 195 85 187 77 183C73 181 70 180 66 180M70 719C67 719 63 719 61 720C56 722 53 723 53 723C52 724 51 726 49 727C47 728 46 731 44 734C42 736 41 740 40 744C39 748 39 751 40 755C42 763 45 770 48 775C51 780 55 784 58 787C61 790 65 792 69 793C73 794 76 794 79 794C87 793 96 791 104 785C107 782 110 778 112 774C113 771 114 766 114 761C114 756 113 751 110 746C110 745 109 744 108 742C107 740 103 738 101 735C99 732 95 728 92 726C89 724 85 721 80 720C76 719 73 719 70 719"/>
</svg>