<svg xmlns="http://www.w3.org/2000/svg" viewBox="0 0 339 1204">
  <path d="M127 180C125 180 122 180 119 181C116 182 113 183 109 185C105 187 102 189 99 193C93 199 91 204 90 209C89 214 89 217 89 218C90 219 90 221 90 223C90 225 91 228 93 231C94 234 96 237 98 239C100 241 103 243 107 244C109 245 111 247 112 248C113 249 115 251 116 253C117 255 118 257 118 259C118 261 119 263 119 265L119 270C119 271 118 273 118 275L118 276C116 295 110 311 101 324C92 337 82 348 71 357C58 368 45 377 30 384C42 382 54 380 65 375C76 370 86 366 96 360C106 354 114 348 121 343C128 338 133 334 136 331C142 325 148 316 153 307C158 298 163 288 166 275L167 273L170 255L170 253C171 248 171 244 171 240C171 227 168 214 163 202L163 201C160 195 156 190 150 186C144 182 139 181 132 180M264 180C262 180 260 180 257 181C254 182 251 183 247 185C243 187 239 189 236 193C230 199 227 204 227 209L227 218C227 221 228 225 231 231C233 234 235 237 236 239C237 241 240 243 244 244C246 245 248 247 250 248C251 249 253 251 254 253C255 255 257 257 257 259C257 261 256 263 256 265L256 270L256 275L256 276C255 285 252 293 249 301C246 309 242 316 238 323C234 330 229 336 224 342C219 348 214 353 209 357C197 368 182 377 167 384C179 382 191 380 202 375C213 370 223 366 233 360C243 354 251 348 258 343C265 338 270 334 273 331C279 325 285 316 290 307C295 298 300 288 304 275L304 273L307 255L309 253C310 244 309 235 308 227C307 219 304 210 300 202L300 201C297 195 294 190 288 186C282 182 276 181 269 180"/>
</svg>