<svg xmlns="http://www.w3.org/2000/svg" viewBox="0 0 589 1204">
  <path d="M279 282L275 282C271 283 266 285 263 287C260 289 256 292 252 297C250 299 249 303 248 306C247 309 246 313 246 316C246 319 246 323 247 326C248 329 249 333 251 335C253 338 254 340 255 342C256 344 257 347 258 349C259 351 259 353 259 356L259 365C259 369 258 374 256 382C254 390 251 399 247 410C244 419 241 430 237 441C205 441 171 442 135 442C111 442 92 443 78 444C64 445 54 448 49 450C39 455 33 462 31 469C31 471 30 472 30 475L30 484C30 487 31 489 32 492C33 495 34 497 35 499C37 503 40 507 43 509C46 511 51 514 57 516C60 517 63 517 66 517C69 517 73 516 76 515C79 514 82 513 85 511C88 509 90 507 92 504L98 498C100 496 101 494 103 493C105 492 107 490 109 489C111 488 114 487 117 486C121 485 127 484 135 483C143 482 153 482 165 482C177 482 189 481 204 481C210 481 216 480 223 480C222 484 220 488 219 492C213 509 208 525 202 542C181 542 158 543 135 543C111 543 92 544 78 545C64 546 54 549 49 551C39 556 33 563 31 570C31 572 30 573 30 576L30 584C30 587 31 590 32 593C33 596 34 598 35 600C37 604 40 608 43 610C46 612 51 614 57 616C60 617 63 618 66 618C69 618 73 617 76 616C79 615 82 614 85 612C88 610 90 608 92 605L98 599C100 597 101 595 103 594C105 593 107 591 109 590C111 589 114 588 117 587C121 586 127 585 135 584C143 583 153 582 165 582L188 582C187 584 187 585 186 587C175 618 163 650 152 681C139 717 133 743 133 762C133 776 137 786 144 791C148 792 152 793 156 793C166 793 174 789 180 781C187 773 189 762 189 749L189 740L189 733C189 714 197 678 215 625C220 611 225 596 230 581L251 581C266 581 280 580 295 580C294 582 293 585 292 587C281 618 269 651 258 682C245 718 239 745 239 764C239 778 243 787 250 792C254 793 258 794 262 794C272 794 280 790 286 782C293 774 296 763 296 750C296 747 295 744 295 741L295 734C295 715 303 679 321 626C326 611 332 596 337 580L352 580C381 580 410 579 439 579L452 579C518 579 554 569 559 549C558 533 550 523 537 519C533 518 528 517 523 517C514 517 505 519 495 524C480 532 440 537 378 539C369 539 359 540 350 540C352 534 355 527 357 521L372 479C394 479 416 478 439 478L452 478C518 478 554 468 559 448C558 432 550 422 537 418C533 417 528 416 523 416C514 416 505 419 495 424C480 432 444 436 386 438C391 425 396 411 401 397C409 375 414 356 418 342C422 328 423 319 423 313C421 302 417 294 411 289L405 286C403 285 401 285 398 284C395 283 392 282 389 282L381 282C377 283 372 285 369 287C366 289 363 293 359 298C357 300 355 303 354 306C353 309 352 313 352 316C352 319 352 323 353 326C354 329 355 333 357 335C359 338 360 340 361 342C362 344 363 347 364 349C365 351 365 353 365 356L365 365C365 369 364 374 362 382C360 390 357 400 353 411C350 420 348 429 344 439C323 440 302 441 279 441C284 427 289 411 294 396C302 374 308 356 312 342C316 328 316 319 316 313C314 302 311 294 305 289L299 286C297 285 294 285 291 284C288 283 286 282 283 282M330 479C328 483 328 488 326 493C320 509 315 525 309 541C295 541 281 542 267 542L243 542C245 535 248 527 251 520C256 507 260 494 265 480C287 480 308 479 330 479"/>
</svg>