<svg xmlns="http://www.w3.org/2000/svg" viewBox="0 0 356 1204">
  <path d="M196 180L189 180C176 185 168 202 163 231C149 232 134 235 120 240C117 241 112 243 108 245C104 247 99 249 94 252C89 255 84 258 79 262C74 266 71 270 67 274C62 280 57 288 54 296C51 304 48 314 47 323C46 332 45 341 46 350C47 359 49 366 52 373C57 384 67 395 79 405C91 415 129 439 129 439C135 443 147 450 160 457C160 485 161 512 161 540L161 552C161 622 156 664 148 679C145 684 143 690 141 695C123 688 104 675 93 660C89 654 88 646 88 638C88 631 89 624 90 618C90 601 83 581 66 574C59 570 50 572 43 576C37 579 34 582 32 587C31 590 30 593 30 596L30 607C30 630 38 651 49 670C66 701 96 724 130 735C130 737 129 740 129 742C129 751 130 759 133 767C137 780 145 789 154 792C162 795 169 795 177 791C185 787 193 777 198 765C200 760 202 753 203 741C256 732 303 690 318 638C321 628 324 618 325 607C326 602 326 595 326 592C326 578 321 561 313 542C305 527 294 512 283 500C272 488 260 476 247 466C234 456 220 446 207 437C206 436 205 436 204 435L204 385C205 348 206 319 208 296C208 290 209 286 210 281C217 284 223 288 229 293C236 299 242 307 246 314C247 319 249 323 249 326L249 334C249 336 248 339 248 341L248 349C249 354 251 360 253 365C255 370 259 375 263 380C266 383 269 385 273 386C277 387 283 386 290 384C293 383 296 382 298 379C300 376 301 373 302 369C303 365 304 363 304 359C304 355 304 352 303 348C302 344 301 338 300 333C299 328 298 323 296 318C289 301 278 286 266 273C254 260 239 249 223 242C222 242 221 241 220 241C223 232 225 222 225 214C225 208 225 203 223 198C219 186 210 180 196 180M159 274L159 293L159 309C159 342 160 375 160 408C150 402 140 396 132 391C122 385 111 377 104 371C99 366 95 361 93 355C91 349 89 342 89 336C89 330 91 324 93 319C95 314 96 309 99 305C102 301 106 297 110 294C114 291 118 288 122 286C126 284 130 282 135 280C143 277 151 275 159 274M204 484C205 485 206 485 207 486C220 495 233 504 244 514C254 523 262 533 268 544C275 555 280 568 283 582C284 587 284 593 284 598C284 610 282 623 279 631C268 662 237 690 205 699L205 684L205 665C204 611 204 559 204 513"/>
</svg>