<svg xmlns="http://www.w3.org/2000/svg" viewBox="0 0 584 1204">
  <path d="M515 180L511 180C506 181 500 183 492 188C488 190 484 192 481 196C478 200 476 204 473 209C470 214 468 218 466 223C464 228 463 232 463 237L463 249C463 252 462 256 461 259C460 262 459 267 458 270C457 273 454 277 452 282C449 287 444 293 436 302C428 311 419 323 407 335C395 347 383 361 368 376C353 391 338 408 321 426C317 431 313 435 309 439L298 450L264 486C239 511 215 536 191 561C167 586 143 610 119 635C60 695 30 739 30 766C30 770 31 774 32 777C41 787 49 792 59 792C65 792 70 790 76 787C84 782 92 776 98 768C104 760 109 750 114 738C124 714 161 668 223 601L259 562C271 549 285 535 298 521L332 486C353 464 374 442 396 419C418 396 441 371 466 346C514 296 541 264 548 248C552 237 554 228 554 220C554 216 554 213 553 210C552 208 550 205 548 202C546 199 544 197 542 194C540 191 537 189 534 187C531 185 528 183 526 182C522 180 519 180 515 180M161 180C148 180 134 182 121 187C103 193 88 203 75 215C62 227 52 241 44 257C36 273 31 289 30 307L30 317C30 332 33 346 38 361C43 374 49 386 58 397C67 408 76 418 88 426C100 434 112 440 126 445C139 449 153 451 166 451L168 451L166 451L170 451C174 451 178 452 182 451C191 450 201 448 211 445C229 439 244 429 257 417C270 405 281 391 289 375C297 359 301 343 302 325L302 316C302 301 300 286 295 271C289 253 279 237 267 224C255 211 241 201 225 193C209 185 193 181 175 180M163 223L172 223C184 224 196 227 207 232C218 237 227 245 235 254C243 263 250 273 254 285C258 296 260 307 260 318C260 334 256 346 254 353C250 363 244 372 238 379C232 386 225 392 217 395C212 396 207 397 204 397L196 397C194 397 191 396 189 396L182 396C177 397 171 398 165 400C159 402 154 406 149 410C146 413 144 416 143 420C142 424 143 429 145 437C146 440 147 443 150 445C152 447 154 448 157 449C156 449 155 448 154 448C149 447 146 445 141 443C133 440 125 436 116 431C107 426 99 418 91 409C87 404 83 399 80 395C77 391 74 386 72 381C70 376 67 370 65 364C63 358 61 350 59 341C57 335 56 329 56 323C56 317 58 312 59 306C62 294 66 283 74 273C82 263 91 254 102 246C113 238 124 232 136 228C145 225 154 223 163 223M413 522C400 522 386 524 373 529C355 535 340 545 327 557C314 569 303 583 295 599C287 615 283 631 282 649L282 658C282 673 284 688 289 703C294 716 300 729 309 740C318 751 328 760 340 768C352 776 364 783 378 788C391 792 404 794 417 794L420 794C419 794 418 793 417 793C419 793 420 794 422 794C426 794 429 794 433 793C442 792 453 790 463 787C481 781 496 771 509 759C522 747 532 734 540 718C548 702 553 685 554 667L554 659C554 644 551 628 546 613C540 595 531 580 519 567C507 554 493 544 477 536C461 528 444 523 426 522M415 565L424 565C436 566 447 570 458 575C469 580 479 587 487 596C495 605 502 616 506 628C510 639 512 649 512 660C512 676 507 690 505 696C501 706 496 714 490 721C484 728 476 734 468 737C463 738 459 740 456 740C453 740 450 739 448 739C446 739 443 738 441 738L434 738C429 738 423 740 417 742C411 744 406 748 401 752C398 755 396 758 395 762C394 766 394 771 396 779C397 782 399 785 402 787C404 789 407 791 410 792L392 786C384 783 376 779 367 773C358 767 350 760 342 751C338 746 335 741 332 737C329 733 326 728 324 723C322 718 319 712 317 706C315 700 313 692 311 683C309 677 308 672 308 666C308 660 308 655 310 649C313 637 319 626 326 616C333 606 342 597 353 589C364 581 375 574 387 570C396 567 406 565 415 565"/>
</svg>