<svg xmlns="http://www.w3.org/2000/svg" viewBox="0 0 597 1204">
  <path d="M287 180L279 180C259 180 240 184 220 191C197 200 177 211 161 227C145 243 131 261 122 281C113 301 108 323 107 346L107 354C107 374 111 394 118 414C121 422 124 430 129 438C133 445 138 453 144 462C150 471 157 480 164 489L156 489C147 489 137 490 129 492C121 494 114 497 107 500C100 503 94 507 88 511C82 515 77 520 73 524C62 534 53 545 46 558C39 574 34 589 32 603C30 614 30 623 30 632L30 638C31 650 32 661 35 671C42 689 52 706 66 721C72 728 78 734 86 741C94 748 103 755 114 761C125 767 137 773 150 778C163 783 178 787 194 790C211 793 227 794 244 794C267 794 289 792 312 787C351 779 388 763 423 739C433 732 443 724 453 714C473 732 487 746 493 755C505 774 517 786 532 791C536 792 539 792 542 792C552 792 561 787 567 776C567.25 774.69 567.38 773.33 567.38 771.92C567.38 750.83 539.31 719.31 484 679C494 665 504 651 512 635C520 619 527 604 532 587C537 570 541 553 543 536C544 526 545 517 545 507C545 500 545 492 544 485C539 504 532 522 524 542C517 559 507 577 496 597C485 617 470 637 453 656L366 593C337 572 307 550 278 528C277 527 277 527 276 527C275 527 275 526 274 525C283 524 292 524 301 523C310 522 318 521 325 520L341 515C343 514 344 515 345 514C367 505 386 493 402 477C418 461 430 443 439 423C448 403 453 382 454 359L454 353C454 333 450 312 443 292C435 270 422 250 406 234C390 218 372 204 352 195C332 186 310 181 287 180M271 221L286 221C306 223 323 228 339 236C355 244 369 254 381 267C393 280 402 295 408 310C413 323 415 335 415 347C415 353 414 360 413 366C409 385 402 401 392 416L391 419C385 430 379 439 371 446C363 453 355 459 347 464C339 469 331 472 323 474C315 476 309 477 304 478C297 479 287 480 274 482C261 484 245 486 227 487C211 472 199 459 190 447C181 435 175 425 170 416C165 406 161 397 159 389C155 376 153 362 153 348L153 342C154 326 157 310 162 295C167 280 176 267 186 255C196 243 209 235 224 229C240 224 256 221 271 221M178 524L185 524C187 524 189 525 192 525L202 525C218 536 232 545 244 554C256 563 267 570 277 577C287 584 296 592 304 598C312 604 321 610 329 616C337 622 345 629 354 636C363 643 373 651 384 659C391 664 398 669 404 674C410 679 417 683 422 688L410 697C406 700 403 703 399 706C369 727 337 740 303 747C284 751 264 753 245 753C230 753 216 752 201 750C167 745 140 733 118 716C96 699 80 676 70 647C69 640 69 633 69 627C69 612 71 598 75 586C78 578 82 571 87 564C92 557 98 550 106 544C114 538 124 534 136 530C148 526 162 524 178 524"/>
</svg>