<svg xmlns="http://www.w3.org/2000/svg" viewBox="0 0 200 1204">
  <path d="M126 180C124 180 122 180 119 181C116 182 112 183 109 185C106 187 102 189 99 193C96 196 93 199 92 202C91 205 91 207 90 210C89 213 89 216 89 218C90 220 90 221 90 223C90 225 91 228 93 231C95 234 96 237 98 239C100 241 103 243 107 244C109 246 110 247 112 248C114 250 115 251 116 253C117 255 118 256 118 258C119 262 119 267 118 270C118 272 117 273 117 275C115 294 110 309 101 323C92 337 81 348 71 357C59 367 45 376 30 384C42 382 54 380 65 375C76 370 86 366 96 360C106 354 114 348 121 343C128 338 133 334 136 331C142 325 147 317 152 307C157 297 162 287 166 275L166 274L170 255L170 254L170 241C170 227 168 214 163 202L163 201C160 195 156 190 150 186C144 182 138 181 131 180"/>
</svg>