<svg xmlns="http://www.w3.org/2000/svg" viewBox="0 0 319 1204">
  <path d="M247.70 375.07C241.25 375.34 234.67 376.14 227.96 377.48C212.38 380.44 194.92 386.07 175.59 394.39C151.42 407.01 129.12 422.98 108.71 442.31C99.31 451.16 91.39 460.42 84.94 470.09C78.50 479.75 72.86 489.68 68.02 499.88C63.19 510.08 58.96 520.68 55.33 531.69C51.71 542.69 48.01 554.10 44.25 565.91C36.20 593.02 31.56 620.33 30.35 647.84C30.12 653.22 30 658.59 30 663.94C30 685.94 32 707.69 36 729.17C40.96 755.88 48.62 781.85 58.96 807.08C69.30 832.31 81.99 856.33 97.03 879.15C108.85 897.40 120.86 912.63 133.08 924.84C145.30 937.06 158.87 946.92 173.78 954.44C188.68 961.95 205.53 967.32 224.33 970.54C241.69 973.51 261.67 975 284.29 975C286.17 975 288.08 974.99 290 974.97C272.27 969.87 256.70 964.64 243.27 959.27C229.84 953.90 218.02 948.26 207.82 942.36C197.61 936.45 188.68 930.28 181.03 923.84C173.37 917.39 166.46 910.48 160.28 903.10C154.10 895.72 148.39 887.74 143.16 879.15C137.92 870.56 132.48 861.16 126.84 850.96C118.78 836.47 111.53 821.77 105.09 806.88C98.64 791.98 93.07 776.48 88.37 760.37C83.67 744.27 79.77 727.29 76.69 709.44C73.60 691.59 71.38 672.33 70.04 651.67C71.38 617.85 76.35 589.33 84.94 566.11C93.54 542.89 104.28 523.63 117.17 508.33C120.93 503.50 125.43 498.94 130.67 494.65C135.91 490.35 140.81 486.46 145.37 482.97C150.75 478.94 156.25 475.19 161.89 471.70C168.60 469.01 174.92 467.74 180.82 467.87C186.73 468.01 192.71 468.47 198.75 469.28C204.79 470.08 211.11 470.56 217.69 470.69C224.27 470.82 231.45 469.68 239.24 467.27C249.44 463.78 258.17 458.95 265.43 452.77C271.60 447.41 277.04 440.36 281.74 431.64C285.10 425.40 286.78 418.11 286.78 409.76C286.78 406.42 286.51 402.91 285.97 399.23C284.90 392.78 282.55 387.75 278.92 384.13C275.29 380.50 270.80 378.02 265.43 376.68C260.05 375.34 254.14 374.80 247.70 375.07"/>
</svg>