<svg xmlns="http://www.w3.org/2000/svg" viewBox="0 0 320 1204">
  <path d="M30 375.03C47.72 380.13 63.29 385.36 76.71 390.73C90.13 396.10 101.94 401.67 112.14 407.44C122.34 413.21 131.27 419.32 138.92 425.76C146.57 432.20 153.48 439.18 159.65 446.70C165.83 454.21 171.60 462.26 176.96 470.85C182.33 479.44 187.84 488.84 193.47 499.04C201.53 513.53 208.78 528.23 215.22 543.13C221.66 558.02 227.23 573.52 231.93 589.63C236.63 605.73 240.52 622.78 243.60 640.76C246.69 658.74 248.91 677.93 250.25 698.33C248.91 731.89 243.94 760.34 235.35 783.69C226.76 807.04 216.02 826.37 203.14 841.67C199.11 846.50 194.48 851.13 189.25 855.56C184.01 859.99 179.11 863.94 174.55 867.43C169.18 871.46 163.81 875.08 158.44 878.30C151.73 880.99 145.42 882.26 139.52 882.13C133.61 881.99 127.57 881.53 121.40 880.72C115.23 879.92 108.85 879.44 102.27 879.31C95.70 879.18 88.52 880.32 80.73 882.73C70.53 886.49 61.81 891.46 54.56 897.63C51.34 900.31 48.32 903.33 45.50 906.69C42.68 910.04 40.27 913.94 38.25 918.37C36.24 922.79 34.83 927.69 34.03 933.06C33.22 938.43 33.36 944.33 34.43 950.78C35.24 957.22 37.52 962.25 41.27 965.87C45.03 969.50 49.60 971.98 54.96 973.32C60.33 974.66 66.24 975.20 72.68 974.93C79.12 974.67 85.70 973.86 92.41 972.52C107.98 969.56 125.43 963.93 144.75 955.61C156.83 949.43 168.38 942.32 179.38 934.27C190.39 926.21 200.99 917.36 211.19 907.70C220.58 898.84 228.57 889.58 235.15 879.91C241.73 870.25 247.36 860.32 252.06 850.12C256.76 839.92 260.98 829.32 264.74 818.31C268.50 807.31 272.26 795.90 276.02 784.09C284.07 756.98 288.63 729.67 289.71 702.16C289.90 697.16 290 692.17 290 687.19C290 664.80 288.02 642.68 284.07 620.83C279.24 594.12 271.59 568.09 261.12 542.72C250.65 517.36 238.04 493.40 223.27 470.85C211.46 452.87 199.45 437.70 187.23 425.36C175.02 413.01 161.40 403.08 146.37 395.56C131.33 388.05 114.42 382.68 95.63 379.46C78.29 376.49 58.32 375 35.71 375C33.83 375 31.92 375.01 30 375.03"/>
</svg>