<svg xmlns="http://www.w3.org/2000/svg" viewBox="0 0 291 1204">
  <path d="M95.25 180C93.25 180 91.25 180 89.25 181C87.25 182 86.25 184 85.25 186C84.25 186 84.25 187 83.25 190C82.25 193 83.25 195 84.25 198C85.25 201 86.25 202 87.25 203C88.25 204 88.25 204 89.25 204C90.25 204 90.25 205 91.25 205L94.25 205C97.25 205 98.25 204 100.25 202C100.25 202 101.25 201 102.25 201C103.25 201 103.25 202 104.25 202C105.25 203 106.25 203 107.25 204L109.25 205C116.25 210 122.25 218 127.25 226C132.25 234 135.25 243 138.25 251C141.25 261 143.25 270 145.25 281C145.25 281 143.25 279 141.25 278C138.25 276 136.25 274 132.25 272L120.25 266C116.25 264 111.25 263 108.25 262L96.25 259L84.25 259C77.25 258 70.25 258 65.25 258C60.25 258 55.25 259 51.25 260L44.25 263C42.25 265 40.25 266 38.25 268L32.25 274C29.25 278 29.25 282 32.25 286C32.25 287 33.25 288 35.25 290C37.25 292 39.25 293 42.25 294C44.25 294 46.25 294 48.25 293C49.25 293 49.25 293 50.25 292L52.25 290C53.25 289 52.25 289 53.25 288C54.25 287 55.25 286 55.25 285C55.25 284 55.25 282 54.25 281L54.25 280C54.25 279 55.25 279 56.25 278C57.25 277 56.25 277 57.25 277C58.25 277 58.25 276 59.25 276L60.25 275C68.25 271 77.25 269 87.25 269C97.25 269 105.25 270 114.25 272C124.25 274 135.25 278 145.25 282C145.25 282 143.25 282 140.25 283C137.25 284 134.25 287 130.25 289C126.25 291 123.25 293 119.25 296C115.25 299 111.25 301 109.25 304L101.25 313L101.25 314L94.25 323C86.25 334 81.25 344 79.25 352L78.25 359L78.25 360C78.25 363 78.25 365 79.25 368C80.25 371 80.25 374 81.25 376L81.25 377C82.25 379 84.25 380 86.25 381C88.25 382 90.25 383 92.25 383C93.25 383 95.25 383 97.25 382C99.25 381 102.25 379 104.25 377C105.25 376 105.25 375 105.25 374C105.25 373 106.25 373 106.25 372L106.25 369L106.25 367C106.25 366 105.25 366 104.25 365C103.25 363 102.25 362 99.25 361C98.25 361 98.25 360 98.25 360C97.25 359 97.25 359 97.25 358C96.25 356 96.25 355 96.25 354L96.25 352C97.25 343 100.25 334 105.25 326C110.25 318 116.25 310 122.25 303C129.25 295 136.25 289 145.25 282C145.25 282 144.25 284 144.25 287L144.25 298L144.25 312C144.25 317 145.25 321 146.25 324L151.25 336L155.25 347C161.25 360 168.25 370 174.25 375L178.25 379L179.25 379C182.25 381 184.25 381 187.25 382C190.25 383 192.25 383 194.25 384L195.25 384C197.25 384 199.25 384 201.25 383C203.25 382 205.25 380 206.25 378C207.25 377 207.25 376 208.25 374C209.25 372 208.25 369 207.25 366C206.25 363 205.25 362 204.25 361C203.25 360 203.25 360 202.25 360C201.25 360 201.25 359 200.25 359L197.25 359C194.25 359 192.25 359 190.25 361C190.25 362 190.25 362 189.25 362C188.25 362 188.25 362 187.25 361L185.25 361C184.25 361 184.25 360 183.25 360L182.25 359C175.25 354 169.25 347 164.25 338C159.25 329 156.25 321 153.25 313C150.25 303 147.25 293 145.25 282C145.25 283 147.25 283 149.25 285C152.25 287 154.25 289 158.25 291C162.25 293 167.25 296 171.25 298C175.25 300 180.25 301 183.25 302L194.25 305L207.25 306C212.25 307 217.25 307 221.25 307C229.25 307 235.25 306 240.25 304L246.25 301C249.25 299 251.25 299 253.25 297L259.25 291L259.25 290C262.25 286 262.25 282 259.25 278C259.25 277 258.25 276 256.25 274C254.25 272 252.25 271 249.25 270L246.25 270C245.25 270 244.25 271 243.25 271L241.25 272C240.25 273 240.25 274 239.25 274C238.25 274 239.25 275 238.25 276C237.25 277 236.25 278 236.25 279C236.25 280 236.25 282 237.25 283C237.25 284 236.25 284 236.25 284L236.25 285L235.25 286C234.25 287 234.25 287 233.25 287C232.25 287 233.25 288 232.25 288C231.25 288 230.25 289 230.25 289L230.25 290C222.25 294 213.25 295 203.25 295C193.25 295 185.25 293 176.25 291C166.25 289 155.25 286 145.25 282C146.25 282 148.25 281 150.25 280C153.25 279 156.25 277 160.25 275C164.25 273 168.25 271 172.25 268C176.25 265 180.25 263 182.25 260L189.25 250L190.25 250L197.25 241C205.25 229 209.25 220 211.25 212L211.25 211L213.25 205L213.25 204C213.25 201 213.25 199 212.25 196C211.25 193 211.25 191 210.25 189L210.25 187C209.25 185 207.25 184 205.25 183C203.25 182 201.25 181 199.25 181C198.25 181 196.25 181 194.25 182C192.25 183 189.25 185 187.25 187C185.25 189 185.25 190 185.25 192L185.25 195L185.25 197C185.25 198 186.25 198 187.25 199C188.25 201 189.25 202 192.25 203L193.25 204C194.25 205 194.25 206 194.25 207C195.25 209 194.25 209 194.25 210L194.25 212C193.25 221 190.25 230 185.25 238C180.25 246 174.25 254 168.25 260C161.25 267 154.25 275 145.25 282C145.25 282 146.25 280 146.25 277C147.25 274 147.25 270 147.25 266L147.25 252C147.25 247 145.25 243 144.25 240L140.25 228L136.25 217C133.25 211 129.25 205 126.25 200C123.25 195 120.25 192 117.25 189L112.25 185L111.25 185C109.25 183 107.25 183 104.25 182C101.25 181 99.25 181 96.25 180"/>
</svg>