<svg xmlns="http://www.w3.org/2000/svg" viewBox="0 0 367 1204">
  <path d="M172 487C170.10 486.90 168.28 486.85 166.54 486.85C150.86 486.85 141.50 490.90 137 499C135 502 134 505 134 509C134 515 136 523 142 531C150 542 154 567 155 612L113 612C95 612 81 612 70 613C59 614 52 616 48 619C44 622 41 626 38 629C35 632 33 637 32 641C31 645 30 648 30 652C30 656 30 661 31 666C33 675 38 681 46 685C51 687 56 689 60 690C64 691 69 690 74 688C78 686 83 685 88 682C93 679 98 675 103 670C109 665 119 662 134 660C139 659 144 658 155 658L155 710C155 728 155 742 156 753C157 764 159 771 162 775C165 779 169 783 172 786C175 789 180 791 184 792C188 793 191 794 195 794C199 794 204 794 209 793C218 791 224 785 228 777C230 772 232 768 233 764C234 760 233 755 231 750C229 746 227 741 224 736C221 731 218 726 213 721C208 715 205 705 203 690C202 684 201 676 201 658C219 658 236 659 254 660C257.23 660.13 260.36 660.19 263.39 660.19C283.83 660.19 299.81 657.35 312 653C326 648 334 640 337 629C337.10 627.10 337.15 625.28 337.15 623.54C337.15 607.86 333.10 598.50 325 594C322 592 319 591 315 591C309 591 301 593 293 599C281 607 254 612 202 612C202 598 202 584 203 570C203.13 566.77 203.19 563.64 203.19 560.61C203.19 540.17 200.35 524.19 196 512C191 498 183 490 172 487"/>
</svg>