<svg xmlns="http://www.w3.org/2000/svg" viewBox="0 0 391 1204">
  <path d="M337 587C330 587 323 590 314 596C300 605 268 610 207 610C146 610 129 609 120 609C101 609 85 610 73 611C61 612 53 614 49 617C45 621 41 624 38 628C35 632 33 636 32 641C30 645 30 649 30 653C30 657 30 663 31 668C34 678 39 685 48 689C53 692 57 693 62 694C67 695 72 694 77 692C82 690 87 688 92 685C97 682 104 678 109 673C115 668 126 664 142 661C150 660 160 659 189 659C218 659 244 661 271 662C274.43 662.13 277.75 662.19 280.95 662.19C303 662.19 319.91 659.24 333 654C348 648 357 639 361 628C361.08 626.22 361.13 624.51 361.13 622.87C361.13 605.02 356.24 594.58 348 590C345 588 341 587 337 587"/>
</svg>