<svg xmlns="http://www.w3.org/2000/svg" viewBox="0 0 161 1204">
  <path d="M70.75 692C66.75 692 62.75 692 59.75 693C55.75 694 52.75 696 49.75 698C48.75 699 45.75 701 43.75 703C41.75 705 39.75 708 36.75 711C33.75 715 31.75 719 30.75 724C29.75 729 29.75 735 30.75 740C33.75 751 37.75 760 41.75 767C45.75 774 49.75 779 54.75 783C59.75 787 64.75 790 69.75 791C74.75 792 79.75 793 84.75 793C95.75 792 106.75 788 118.75 780C123.75 776 126.75 771 128.75 765C130.75 760 131.75 754 131.75 748C131.75 742 129.75 735 124.75 727C124.75 726 123.75 725 121.75 722C119.75 719 117.75 716 114.75 712C111.75 708 107.75 704 102.75 701C97.75 698 91.75 696 85.75 694C80.75 693 74.75 692 70.75 692"/>
</svg>