<svg xmlns="http://www.w3.org/2000/svg" viewBox="0 0 326 1204">
  <path d="M261 180C256 180 252 180 248 182C244 184 240 189 235 194C233 197 231 200 229 204C227 208 227 212 226 216C225 220 225 225 225 229C225 233 226 238 227 241L230 250C231 253 231 256 231 259L231 268C231 271 231 275 230 279C229 284 226 291 223 300C220 309 215 321 209 334C203 347 197 362 190 378C183 394 175 411 167 430C150 467 133 505 116 542C99 579 82 615 65 652C41 703 30 741 30 765C30 775 32 784 36 789C42 793 49 794 54 794C61 794 68 791 74 784C84 773 90 756 91 734C92 712 107 666 138 596C154 558 173 517 193 472C213 427 235 378 259 326C271 300 280 279 286 262C292 244 296 232 296 224C296 211 294 202 289 195C288 193 286 192 284 190C282 188 280 186 277 185C274 184 272 182 269 181C266 180 263 180 261 180"/>
</svg>