<svg xmlns="http://www.w3.org/2000/svg" viewBox="0 0 573 1204">
  <path d="M284 180L271 180C262 181 254 182 246 183C237 185 228 188 219 190C206 195 193 200 181 206C169 212 157 219 145 228C134 236 125 244 117 253C109 262 101 271 95 281C89 291 83 300 78 311C73 322 67 333 62 344C50 370 41 397 36 425C32 448 30 471 30 494L30 508C31 536 35 564 42 591C49 618 58 644 70 669C82 692 95 712 112 728C129 744 146 755 165 765C184 775 203 782 223 786C243 790 261 793 279 794C278 794 278 793 277 793C284 794 292 794 301 793C310 792 319 791 327 790L354 784C380 775 405 762 428 745C439 737 448 730 456 721C464 712 471 703 477 693C483 683 490 673 495 662C500 651 506 640 511 629C523 603 532 576 537 548C541 525 543 503 543 480L543 465C542 437 538 410 531 383C524 356 515 330 503 305C491 282 478 262 461 246C444 230 426 218 407 208C388 198 370 191 350 187C330 183 312 181 294 180L295 180M316 186C332 191 348 199 363 207C378 215 392 225 406 237C420 249 432 263 443 278C454 293 462 310 469 329C475 345 480 360 485 376C490 392 493 408 496 425C499 442 501 459 501 478L501 485C501 502 499 520 497 539C491 573 482 601 470 623C458 645 444 663 429 677C424 681 419 685 413 689C407 693 401 696 396 699L378 708C371 710 365 710 359 709C353 708 347 707 341 705C335 703 329 702 322 701C315 700 307 700 299 701C288 703 279 707 271 712C267 714 263 717 260 720C257 723 254 727 251 731C248 735 247 740 245 745C243 750 243 756 243 763C243 769 244 774 247 778C250 782 253 785 257 787C241 782 226 775 210 767C194 759 181 749 167 737C153 725 141 711 130 696C119 681 111 664 104 645C98 629 93 613 88 597C83 581 80 566 77 549C74 532 72 515 72 496L72 489C72 472 73 454 75 435C81 401 91 372 103 350C115 328 129 310 144 296C149 292 154 288 160 284C166 280 171 278 176 275C182 272 189 269 195 266C202 264 208 264 214 265C220 266 226 267 232 269C238 271 244 272 251 273C258 274 266 273 274 272C285 270 294 266 302 261C309 256 315 250 321 242C327 234 330 223 330 210C330 204 329 199 326 195C323 191 320 188 316 186"/>
</svg>