<svg xmlns="http://www.w3.org/2000/svg" viewBox="0 0 357 1204">
  <path d="M214 180L209 180C206 180 204 180 200 181C196 182 193 184 189 186C185 188 181 190 178 194C175 197 173 200 172 203C171 206 170 209 169 211C168 214 168 217 168 219C169 220 170 222 170 224C170 226 171 229 172 232C173 235 176 238 179 241C182 244 186 245 190 246C191 246 191 247 192 248C194 250 195 253 195 257C195 259 196 261 196 263C196 265 195 268 195 269L195 274C193 287 189 301 183 314C177 327 170 340 162 352C154 364 146 376 136 387C126 398 116 408 106 418C83 441 58 462 30 482C30 483 32 481 37 480C42 479 47 477 54 474C61 471 69 468 77 464C85 460 93 456 102 451C111 446 118 441 126 436C134 431 140 425 145 420L172 394L173 392L197 363C200 359 203 355 205 352C207 349 211 346 213 342C215 366 215 396 215 434C215 511 214 588 213 665C213 671 212 677 212 683C212 692 213 699 213 706C214 718 215 728 217 736C207 734 197 733 189 733C184 733 179 733 175 734C164 736 155 742 151 752C149 759 148 766 148 771C148 778 150 784 154 788C160 794 168 793 179 787C184 784 193 783 206 783C219 783 234 785 252 789C266 792 279 794 289 794C293 794 296 793 299 793C311 791 319 785 324 775C326 768 327 761 327 756C327 749 325 744 322 740C316 734 307 734 296 740C291 743 281 745 268 744L265 738C264 736 263 732 262 728C259 718 257 702 256 678C255 654 254 624 254 588C254 562 253 534 253 505L253 460C253 414 254 363 255 309L255 293C255 272 254 255 253 242C253 232 252 221 249 211L249 209L248 208C247 207 247 206 247 205C247 204 247 203 246 202L246 201C245 198 242 196 240 193C237 189 234 185 230 183C226 181 221 181 216 180"/>
</svg>