<svg xmlns="http://www.w3.org/2000/svg" viewBox="0 0 417 1204">
  <path d="M194 180C174 180 157 183 140 190C123 197 108 207 95 219C82 231 72 246 65 262C58 278 54 296 54 314C59 297 67 281 79 268C84 262 90 256 97 251C104 246 112 241 121 237C130 233 141 229 153 226C165 223 179 222 194 222C207 222 219 224 231 229C243 234 253 241 262 249C271 257 277 267 282 278C287 289 290 301 290 314C290 325 286 338 279 353C272 368 263 385 252 403C241 421 229 439 215 459C201 479 186 498 171 518C156 538 141 557 126 576C111 595 98 613 86 630C74 647 63 663 54 677C45 691 40 702 37 712C32 727 30 740 30 750C30 767 35 776 36 778C40 784 45 788 50 790C55 792 60 793 64 793C66 793 71 794 80 794L112 794L155 794L203 794C220 794 236 793 252 793C268 793 283 792 297 792C311 792 322 791 332 790C342 789 349 789 353 788C360 787 366 785 371 782C376 779 378 776 381 772C384 768 386 765 387 761C388 757 388 754 387 751C386 747 384 744 382 739C380 734 377 729 373 725C369 721 365 717 360 714C355 711 349 708 343 707C331 705 322 703 314 704C306 705 300 706 295 709C290 712 285 715 281 720C277 725 274 730 270 736C266 742 260 748 252 751C244 754 234 757 223 759C212 761 202 761 190 761L181 761L155 761C144 761 135 760 126 759C117 758 110 758 106 758C96 758 89 756 86 752C83 748 81 742 82 734C83 726 86 717 90 707C94 697 98 687 104 675C107 669 112 661 119 650C126 639 134 626 144 612C154 598 165 584 177 568C189 552 200 536 212 520C240 483 270 444 304 401L313 386C320 376 325 364 329 352C333 340 335 327 335 314C335 296 331 278 324 262C317 246 307 231 294 219C281 207 266 197 249 190C232 183 213 180 194 180"/>
</svg>