<svg xmlns="http://www.w3.org/2000/svg" viewBox="0 0 357 1204">
  <path d="M171 180C163 180 154 180 144 182C134 184 124 187 114 190C104 193 94 198 85 204C76 210 67 217 60 226C53 235 47 244 43 256C39 268 37 282 37 297C39 285 46 274 56 265C60 261 65 257 72 253C79 249 87 246 96 243C105 240 117 237 129 235C141 233 155 232 171 232C190 232 207 237 220 244C233 251 244 261 252 272C260 283 267 295 270 309C273 320 274 331 274 341L274 348C274 364 271 379 266 392C261 405 255 416 247 426C239 436 229 444 219 450C209 456 198 460 188 461C185 460 182 459 179 459L170 459C164 457 160 455 157 453C154 451 150 449 145 448C138 446 132 445 124 446C116 447 109 448 102 451C100 453 97 455 95 456C93 457 91 459 90 461C89 463 88 466 87 469C86 472 85 475 85 480C85 485 86 489 88 492C90 495 94 498 97 501C100 504 105 506 109 508C113 510 117 511 122 512C133 515 145 516 159 516L172 516C176 516 180 515 184 514C197 517 209 522 220 529C231 536 240 544 248 554C256 564 262 575 267 587C272 599 274 612 274 626C274 643 271 659 266 671C261 683 254 693 246 701C238 709 228 716 218 721C208 726 198 729 187 732C176 735 166 736 156 737C146 738 137 738 130 739C124 739 119 737 115 736C111 735 108 734 105 733C102 732 100 730 98 729C96 728 93 726 90 725C83 723 76 722 68 723C60 724 53 726 46 729C44 731 42 732 40 734C38 736 36 737 35 739C34 741 33 744 32 747C31 750 30 753 30 758C30 763 31 767 33 770C35 773 38 776 41 779C44 782 49 783 53 785C57 787 62 789 67 790C78 793 90 794 104 794C119 794 135 793 152 790C169 787 186 784 202 778C218 772 234 766 249 757C264 748 278 737 289 725C300 713 309 698 316 682C323 666 326 647 327 626C327 597 320 570 307 546C294 522 275 502 253 487C275 472 294 452 307 428C326 393 327 361 327 346C327 327 323 307 316 288C309 268 298 250 284 234C270 218 254 205 235 195C216 185 194 180 171 180"/>
</svg>