<svg xmlns="http://www.w3.org/2000/svg" viewBox="0 0 498 1204">
  <path d="M282 180L273 180C270 180 268 180 266 181C264 182 261 185 258 189C255 193 253 198 251 204C249 210 248 216 249 224C250 232 254 239 260 247L262 251C252 269 240 288 226 308C212 328 197 349 181 370C165 391 149 412 133 432C117 452 103 472 90 490C77 508 65 525 55 540C45 555 39 568 36 578C31 593 30 605 30 615C30 632 35 641 36 643C40 649 45 652 50 654C55 656 60 657 64 658C66 658 70 659 77 659L103 659L139 659L182 659L230 659C247 659 263 658 279 658L279 665L279 676C279 745 288 785 306 794L311 794C325 794 333 788 337 775C338 770 340 765 340 759C340 749 338 738 333 726C328 714 324 691 322 658C336 658 350 657 362 657C374 657 385 656 395 656C405 656 413 656 420 655C427 654 431 654 434 653C441 652 447 650 452 647C457 644 460 641 463 637C466 633 467 630 468 626C469 622 469 619 468 616C467 613 466 609 464 604C462 599 458 594 454 590C450 586 446 582 441 579C436 576 431 573 425 572C413 570 404 570 396 570C388 570 382 571 377 574C372 577 367 580 363 585C359 590 354 595 351 601C349 605 345 608 340 611C335 614 329 615 321 617C321 612 320 608 320 603L320 588L320 488L320 460C320 414 320 364 321 309L321 293C321 273 321 256 320 243C319 226 317 214 314 208C309 195 303 187 296 183C294 182 293 182 290 181C287 180 285 180 282 180M273 306C274 315 275 326 276 336C277 346 278 357 279 368C280 379 281 390 281 401L281 434L281 529C281 560 280 592 279 624C262 626 245 626 226 626L213 626L174 626C157 626 143 625 130 624C117 623 109 623 105 623C96 623 89 621 86 617C83 613 81 607 82 599C83 591 86 583 90 573C94 563 99 552 104 540C107 534 111 526 118 515C125 504 133 493 143 479C153 465 163 451 175 435C187 419 198 404 210 389C222 374 233 358 244 344C255 330 264 317 273 306"/>
</svg>