<svg xmlns="http://www.w3.org/2000/svg" viewBox="0 0 381 1204">
  <path d="M86.39 180C78.39 180 68.39 182 60.39 186C52.39 190 45.39 196 39.39 204C37.39 210 36.39 215 37.39 219C38.39 223 40.39 226 43.39 228C46.39 230 49.39 232 53.39 234C57.39 236 61.39 239 64.39 242C67.39 245 70.39 250 72.39 256C74.39 262 74.39 269 73.39 278C72.39 291 71.39 303 68.39 316C65.39 329 61.39 343 57.39 357C53.39 371 50.39 386 45.39 401C40.39 416 35.39 433 31.39 450C29.39 458 29.39 465 32.39 469C35.39 473 37.39 476 41.39 478C46.39 480 52.39 482 58.39 482L170.39 482C185.39 482 201.39 484 216.39 489C231.39 494 245.39 502 258.39 513C271.39 524 281.39 537 289.39 554C297.39 571 302.39 590 302.39 613C302.39 637 297.39 657 287.39 674C277.39 691 265.39 704 249.39 714C233.39 724 214.39 732 193.39 736C172.39 740 151.39 743 128.39 743C122.39 743 117.39 742 114.39 741C111.39 740 107.39 739 105.39 738C103.39 737 100.39 735 98.39 734C96.39 733 94.39 732 91.39 731C85.39 729 78.39 729 71.39 729C64.39 729 57.39 731 51.39 734C49.39 736 47.39 737 45.39 738C43.39 739 42.39 742 41.39 744C40.39 746 38.39 747 37.39 750C36.39 753 36.39 757 36.39 761C36.39 765 36.39 769 38.39 772C40.39 775 43.39 778 46.39 780C49.39 782 53.39 784 57.39 786C61.39 788 66.39 789 70.39 790C80.39 792 90.39 794 103.39 794C139.39 794 173.39 790 203.39 782C233.39 774 258.39 762 280.39 747C302.39 732 319.39 712 331.39 690C343.39 668 350.39 642 351.39 613C351.39 584 345.39 558 334.39 536C323.39 514 310.39 495 293.39 480C276.39 465 257.39 453 235.39 445C213.39 437 191.39 433 170.39 433L138.39 433L125.39 433L114.39 433L104.39 433L99.39 433L92.39 433C90.39 433 87.39 431 85.39 430C83.39 429 82.39 427 81.39 424C80.39 421 81.39 417 82.39 412C83.39 407 87.39 398 91.39 386C95.39 374 100.39 362 104.39 348C108.39 334 113.39 320 116.39 306C118.39 297 118.39 288 118.39 281C118.39 277 119.39 274 118.39 270C117.39 264 116.39 259 117.39 256C118.39 253 121.39 251 124.39 251C127.39 251 132.39 251 138.39 252C144.39 253 152.39 254 161.39 255C167.39 256 173.39 255 181.39 255L193.39 255C205.39 255 220.39 253 236.39 250C249.39 258 261.39 264 273.39 268C278.39 270 284.39 270 289.39 271C294.39 272 299.39 272 304.39 271C309.39 270 314.39 269 319.39 266C324.39 263 328.39 260 331.39 255C339.39 244 341.39 234 339.39 227C337.39 220 332.39 214 325.39 211C318.39 208 309.39 206 298.39 206C287.39 206 277.39 207 267.39 209C259.39 211 249.39 213 235.39 215C221.39 217 208.39 218 194.39 218C180.39 218 166.39 216 154.39 214C142.39 212 134.39 207 129.39 201C124.39 194 118.39 189 110.39 185C102.39 181 94.39 180 86.39 180"/>
</svg>