<svg xmlns="http://www.w3.org/2000/svg" viewBox="0 0 423 1204">
  <path d="M332 180C326 180 321 180 316 181L306 182C295 183 284 185 275 187C266 189 256 192 245 196C219 205 193 218 170 234C147 250 126 269 108 290C90 311 76 336 63 362C50 388 41 415 36 445C33 461 32 478 31 496C30 506 30 517 30 529L30 548C31 567 32 587 36 608C39 626 44 644 50 662C56 680 62 695 69 709C75 721 83 733 91 743C99 753 109 763 120 770C131 777 143 783 157 787C171 791 186 794 203 794L212 794C235 794 257 791 277 786C297 781 315 774 330 763C345 752 358 739 369 723C380 707 387 688 391 666C392 656 393 646 393 636C393 617 391 599 386 583C379 558 366 536 347 517C330 505 311 496 289 490C280 487 270 485 258 483C246 481 233 481 220 481C207 481 192 482 177 484C162 486 146 490 129 495C131 495 134 494 139 494C144 494 151 494 159 495C167 496 177 496 190 498C203 500 217 503 235 507C258 512 277 520 292 529C307 538 319 548 327 561C335 574 339 588 341 604C342 610 342 617 342 623C342 634 341 644 339 656C337 669 334 681 329 692C324 703 317 712 308 720C299 728 286 734 271 739C256 744 236 746 212 747L203 747L198 747C183 747 170 744 158 737C145 730 134 719 124 705C114 691 105 673 98 653C91 633 85 610 80 584C77 568 75 553 75 537C75 532 74 527 74 522C74 512 74 502 75 494C76 479 78 465 80 452C86 414 99 380 119 350C139 320 162 295 191 274C196 270 203 265 211 260C219 255 228 250 236 245C244 240 253 236 261 233C269 230 275 228 280 227C283 227 287 227 292 229C297 231 303 233 309 236C315 239 321 241 327 244C333 247 339 248 345 249C351 250 357 250 363 248C369 246 374 243 379 237C387 227 390 219 390 212C390 199 380 192 377 190C370 185 360 182 349 181C343 180 338 180 332 180M129 495L127 495C126 495 126 496 125 496L126 495"/>
</svg>