<svg xmlns="http://www.w3.org/2000/svg" viewBox="0 0 416 1204">
  <path d="M350 180L349 180L348 180C342 179 337 179 333 181L327 184C326 185 324 187 322 188C320 189 319 191 317 194C315 197 313 200 312 204C311 208 311 212 312 216C312 217 313 218 312 219C311 221 309 224 306 226C302 228 299 230 296 231C294 232 293 233 291 233L290 232L290 233C277 238 263 240 249 241C243 241 237 242 231 242C223 242 214 242 206 241C191 240 176 236 162 233C148 230 134 226 121 222C90 212 60 199 30 183C30 184 31 186 34 189C37 192 42 196 48 201C54 206 60 211 68 217C76 223 83 228 91 233C99 238 107 244 115 248C123 252 131 255 138 257L174 269L175 269L212 276C234 280 253 283 270 284L283 284C295 284 304 283 314 281L315 281C314 287 312 294 309 304C306 314 302 325 297 338C292 351 286 364 279 380C272 396 264 412 256 430C239 468 223 505 206 542C189 579 172 615 155 652C131 703 119 741 119 765C119 775 122 784 126 789C132 793 139 794 144 794C151 794 158 790 164 784C174 772 180 756 181 734C182 712 197 666 228 596C261 521 301 431 349 326C373 274 386 241 386 224C386 211 384 202 379 195C378 193 376 191 374 189C372 187 370 186 367 185C364 184 361 182 358 181C355 180 352 180 350 180"/>
</svg>