<svg xmlns="http://www.w3.org/2000/svg" viewBox="0 0 400 1204">
  <path d="M204 180L199 180C185 180 171 182 157 186C136 192 116 201 100 214C84 227 71 243 61 261C51 279 45 298 42 319C41 326 41 332 41 339C41 353 43 368 47 382C52 400 59 416 69 430C79 444 91 456 105 466C106 467 107 468 109 469C110 470 112 470 114 471C116 472 119 473 121 474C104 483 88 495 75 509C62 523 52 539 44 556C36 573 32 592 30 612L30 625C30 640 32 656 36 671C41 688 47 703 57 718C67 733 79 745 92 756C105 767 120 777 136 783C152 789 169 793 187 793L183 791C187 792 190 793 194 793C199 794 204 794 209 794C220 793 233 791 246 788C269 782 289 771 306 757C323 743 337 727 348 708C359 689 366 668 369 646C370 639 370 632 370 625C370 610 367 593 363 578C357 555 347 535 332 517C317 499 300 485 281 475C296 466 309 455 320 442C331 429 341 414 347 398C353 382 357 366 358 348C358 344 359 342 359 338C359 324 357 309 353 295C347 274 337 255 324 239C311 223 296 210 278 200C260 190 241 184 220 181C215 180 209 180 204 180M203 230C207 230 209 231 213 231C227 233 241 237 253 244C265 251 276 260 285 271C294 282 300 294 304 309C307 320 309 331 309 342C309 345 308 348 308 351C307 365 304 377 299 388C294 399 288 409 280 417C272 425 263 431 253 434C247 435 242 436 238 436C234 436 229 437 226 436C223 435 220 435 217 434C214 433 211 432 208 432C201 431 193 432 185 433C177 434 170 437 162 441C158 440 154 441 151 440C148 439 144 438 142 437C139 436 136 435 134 434C128 431 121 427 115 423C109 419 103 414 97 408C91 402 86 395 82 387C78 379 75 371 73 361C72 356 71 350 71 345C71 337 72 328 75 320C79 307 87 294 96 283C105 272 116 262 129 253C142 244 155 238 170 234C180 231 190 230 200 230M203 508C207 508 210 508 214 509C229 511 244 516 257 523C270 530 280 540 290 552C300 564 307 578 311 593C314 605 316 616 316 627L316 638C315 653 311 665 306 677C301 689 294 700 285 709C276 718 267 724 257 727C251 728 245 729 241 729C237 729 234 729 231 728C228 727 225 727 223 726C221 725 217 725 214 725C207 725 199 726 192 729C185 732 178 735 172 740C170 742 169 745 168 747C167 749 165 752 164 754C163 756 163 759 163 762C163 765 163 768 164 773C165 778 167 781 170 784C172 786 175 788 178 789C169 786 161 783 153 779C144 774 134 769 124 763C114 757 107 750 102 742C97 736 94 729 90 722C86 715 82 708 79 701C76 694 73 686 71 677C69 668 67 659 65 648C64 642 63 637 63 631C63 622 64 613 67 604C72 590 79 577 89 565C99 553 110 542 124 533C138 524 153 518 168 513C178 510 190 508 200 508"/>
</svg>