<svg xmlns="http://www.w3.org/2000/svg" viewBox="0 0 424 1204">
  <path d="M211 180C188 180 167 182 147 187C127 192 108 200 93 211C78 222 65 235 54 251C43 267 36 286 32 308C31 318 30 328 30 338C30 357 32 374 37 390C44 415 57 437 76 456C93 467 112 477 134 483C143 486 154 488 165 490C176 492 190 493 203 493L205 493C218 493 232 492 246 490C261 488 277 484 294 479C292 480 289 480 284 480C279 480 273 480 265 479C257 478 246 477 233 475C220 473 206 471 188 467C165 462 146 454 131 445C116 436 104 425 96 412C88 399 84 385 82 369C81 363 81 357 81 351C81 340 82 329 84 317C86 304 89 293 94 282C99 271 106 262 115 254C124 246 137 240 152 235C167 230 187 227 211 226L220 226L225 226C240 226 253 229 265 236C278 243 289 255 299 269C309 283 318 301 325 321C332 341 338 364 343 390C346 406 349 422 349 437L349 452C349 462 349 471 348 479C347 494 345 508 343 521C337 559 325 594 305 624C285 654 261 679 232 700C227 704 220 709 212 714C204 719 195 724 187 729C179 734 171 738 163 741C155 744 148 746 143 747C140 747 136 747 131 745C126 743 121 741 115 738C109 735 102 733 96 730C90 727 84 725 78 724C72 723 66 724 60 726C54 728 50 731 45 737C37 747 33 755 33 762C33 775 43 782 46 784C53 789 63 792 74 793C79 794 84 794 89 794C95 794 101 794 107 793L117 792C128 791 139 789 148 787C157 785 168 782 179 778C205 769 230 756 253 740C276 724 297 705 315 684C333 663 348 638 361 612C374 586 382 559 387 529C390 513 392 496 393 478C394 468 394 457 394 445C394 439 393 432 393 426C392 407 391 387 387 366C384 348 379 330 373 312C367 294 361 278 354 264C348 252 341 240 333 230C325 220 315 211 304 203C293 195 280 190 266 186C252 182 237 180 220 180M294 479L296 479C297 479 297 478 298 478L297 479L296 479"/>
</svg>