<svg xmlns="http://www.w3.org/2000/svg" viewBox="0 0 161 1204">
  <path d="M74.75 500L70.75 500C66.75 500 62.75 500 59.75 501C55.75 502 53.75 504 50.75 506C48.75 507 45.75 509 43.75 511C41.75 513 38.75 516 36.75 519C33.75 523 31.75 528 30.75 533C29.75 538 29.75 543 30.75 549C33.75 560 37.75 569 41.75 576C45.75 583 50.75 588 55.75 592C60.75 596 64.75 599 69.75 600C74.75 601 78.75 601 83.75 601C94.75 600 105.75 596 117.75 588C122.75 584 126.75 580 128.75 574C130.75 569 131.75 563 131.75 557C131.75 551 129.75 544 125.75 536C124.75 535 123.75 533 121.75 530C119.75 527 117.75 524 114.75 520C111.75 516 107.75 514 102.75 510C97.75 506 91.75 503 85.75 501C81.75 500 78.75 500 74.75 500M74.75 693L70.75 693C66.75 693 62.75 694 59.75 695C55.75 696 53.75 697 50.75 699C48.75 701 45.75 702 43.75 704C41.75 706 38.75 708 36.75 712C33.75 716 31.75 720 30.75 725C29.75 730 29.75 736 30.75 742C33.75 753 37.75 761 41.75 768C45.75 775 50.75 780 55.75 784C60.75 788 64.75 791 69.75 792C74.75 793 78.75 794 83.75 794C94.75 793 105.75 789 117.75 781C122.75 776 126.75 772 128.75 766C130.75 761 131.75 755 131.75 749C131.75 743 129.75 736 125.75 728C124.75 727 123.75 726 121.75 723C119.75 720 117.75 717 114.75 713C111.75 709 107.75 706 102.75 702C97.75 698 91.75 696 85.75 694C81.75 693 78.75 693 74.75 693"/>
</svg>