<svg xmlns="http://www.w3.org/2000/svg" viewBox="0 0 265 1204">
  <path d="M154 523C142 531 135 547 135 562C135 585 153 602 159 607C167 613 178 618 188 616C209 612 230 594 235 573C237 564 230 555 225 547C216 535 204 523 190 519C185 518 180 517 175 517C167 517 160 519 154 523M176 703C171 703 150 706 135 722C129 728 126 736 124 744C122 755 126 769 128 773C130 776 137 788 151 791C152 791 153 793 154 794C155 795 155 796 156 798C157 800 157 802 157 805C158 811 158 816 157 820C157 822 156 826 156 828C155 840 152 852 148 863C144 874 139 885 133 895C127 905 119 914 112 923C105 932 98 940 90 947C72 964 52 979 30 992C31 993 37 992 48 989C59 986 71 981 86 974C101 967 116 959 131 950C142 943 181 919 206 878C216 862 224 845 226 836C232 813 235 801 235 785C235 769 233 753 227 738C223 728 216 718 207 712C198 706 187 704 176 703"/>
</svg>