<svg xmlns="http://www.w3.org/2000/svg" viewBox="0 0 668 1204">
  <path d="M638 180C621 188 601 196 579 205C557 214 534 222 509 232C484 242 459 252 432 263C405 274 379 286 352 299C329 310 306 322 283 336C260 350 237 363 215 376C193 389 171 400 151 411C131 422 112 431 95 436C87 433 80 432 74 432C68 432 64 433 59 435C49 439 42 447 37 456C32 465 30 475 30 487C30 499 32 509 37 518C42 527 49 535 59 539C64 541 68 542 74 542C80 542 87 541 95 538C112 543 131 551 151 562C171 573 193 585 215 598C237 611 260 624 283 638C306 652 329 664 352 675C379 688 405 700 432 711C459 722 484 732 509 742C534 752 557 760 579 769C601 778 621 786 638 794C567 737 495 683 422 631C349 579 272 531 193 488C272 444 349 395 422 343C495 291 567 237 638 180"/>
</svg>