<svg xmlns="http://www.w3.org/2000/svg" viewBox="0 0 583 1204">
  <path d="M502 384C495 384 488 385 480 387C464 389 447 394 429 404C421 409 404 414 379 416C358 418 332 418 300 418L278 418L248 418L234 418L228 418C227 418 226 417 223 417C220 417 215 416 209 416C203 416 193 415 179 415L169 415C132 415 103 418 82 423C45 432 40 446 40 454C40 470 47 480 60 485C67 488 75 489 84 488C93 487 103 484 114 480C124 475 142 471 166 469C190 467 223 465 262 465L294 465L313 465L325 465L341 465C348 465 357 466 368 466L413 466L436 466C455 466 472 466 485 465C503 464 516 462 523 459C536 452 545 445 550 437C552 433 553 429 553 424C553 419 552 415 550 410C547 400 538 393 524 389C517 386 509 384 502 384M481 486C477 486 473 486 469 487C461 489 453 491 445 494C437 497 428 501 420 506C402 515 351 520 268 520C254 520 244 519 238 519L224 519L218 519C217 519 216 518 213 518L199 518C193 518 183 517 169 517L147 517C116 517 91 519 72 524C49 530 35 538 30 550L30 557C30 573 37 582 50 586C57 589 66 590 75 589C84 588 94 585 104 581C115 576 132 573 156 571C180 569 213 567 252 567L284 567L302 567L315 567L331 567L357 567C368 567 383 568 403 568L426 568C445 568 462 567 475 566C493 565 505 562 512 559C519 556 525 554 529 550C533 546 537 541 540 537C544 529 544 522 540 512C539 507 535 502 531 499C527 496 521 492 514 490C507 487 500 486 492 486"/>
</svg>