<svg xmlns="http://www.w3.org/2000/svg" viewBox="0 0 668 1204">
  <path d="M30 180C66 209 101 236 137 263C173 290 209 317 246 343C283 369 320 394 358 418C396 442 435 466 475 488C396 531 319 579 246 631C173 683 101 737 30 794C47 786 67 778 89 769C111 760 134 752 159 742C184 732 209 722 236 711C263 700 289 688 316 675C339 664 362 652 385 638C408 624 431 611 453 598C475 585 497 573 517 562C537 551 555 543 572 538C580 541 587 542 593 542C599 542 604 541 609 539C619 535 625 527 630 518C635 509 638 499 638 487C638 475 635 465 630 456C625 447 619 439 609 435C604 433 599 432 593 432C587 432 580 433 572 436C555 431 537 422 517 411C497 400 475 389 453 376C431 363 408 350 385 336C362 322 339 310 316 299C289 286 263 274 236 263C209 252 184 242 159 232C134 222 111 214 89 205C67 196 47 188 30 180"/>
</svg>