<svg xmlns="http://www.w3.org/2000/svg" viewBox="0 0 395 1204">
  <path d="M196 180C189 180 183 179 177 180C165 181 152 184 140 189C128 194 115 201 102 210C89 219 76 231 62 246C52 260 45 274 39 287C37 293 35 298 33 304C31 310 30 315 30 320C30 325 30 330 31 334C32 338 35 342 39 345C42 348 45 350 48 351C51 352 53 353 55 353L61 353C63 353 66 353 69 352C83 346 92 337 98 325C99 322 100 318 101 313C102 308 102 302 103 296C104 290 104 284 106 278C108 272 110 267 114 262C121 254 130 248 138 243C146 238 154 235 163 233C172 231 180 230 189 229C198 228 207 228 216 228C232 230 247 233 259 238C271 243 281 249 290 258C299 267 305 278 310 292C315 306 316 322 316 342C316 353 313 363 308 374C303 385 296 395 287 403C278 411 267 419 254 424C241 429 227 432 213 432L115 432C109 432 103 433 99 435C95 437 92 440 89 444C86 448 87 455 89 463C92 475 94 484 96 492C98 500 101 506 103 512C105 518 106 523 108 528C110 533 111 537 112 542C113 547 114 552 115 558C116 564 116 571 117 579C118 588 118 595 117 601C116 607 113 612 111 615C109 618 107 620 104 622C101 624 99 627 97 629C95 631 93 634 93 638C93 642 94 647 96 653C102 661 109 668 117 675C125 682 133 686 140 688C147 690 154 689 160 684C166 679 170 670 172 656C173 652 173 648 172 643C171 638 168 633 166 628C164 623 162 617 160 611C158 605 156 599 155 593C152 578 149 565 147 555C145 545 144 537 143 530C142 523 141 517 141 513C141 509 140 505 140 501C139 490 139 482 140 477C141 472 143 470 148 470L180 470L206 470C227 470 247 467 266 461C285 455 302 445 317 434C332 423 343 410 352 394C361 378 365 361 365 342C364 295 351 257 327 231C303 205 266 188 216 180C209 179 203 180 196 180M151 719C148 719 145 719 143 720C138 722 135 723 135 723C134 724 133 726 131 727C129 728 127 730 125 733C123 735 122 739 121 743C120 747 120 751 121 755C123 763 126 770 129 775C132 780 135 784 139 787C143 790 146 792 150 793C154 794 158 794 161 794C169 793 177 790 186 784C190 781 192 777 194 773C195 769 196 766 196 761C196 756 194 751 191 745C191 744 190 743 189 741C188 739 185 737 183 734C181 731 178 728 174 726C170 724 167 721 162 720C158 719 154 719 151 719"/>
</svg>