<svg xmlns="http://www.w3.org/2000/svg" viewBox="0 0 656 1204">
  <path d="M318 180C305 180 293 182 280 184C255 188 229 196 206 207C183 218 162 232 141 249C120 266 102 286 86 309C69 333 56 358 47 385C38 412 33 439 31 466C30 474 30 483 30 491C30 510 32 528 35 547C40 574 48 600 59 625C69 648 82 669 98 689C114 709 132 727 153 743C177 761 201 772 228 780C259 790 292 794 325 794L335 794C429 792 520 771 520 771C520 771 475 772 436 772L404 772C374 771 344 770 314 765C288 761 262 754 238 744C218 735 199 722 181 709C162 695 144 680 130 661C112 637 106 627 87 581C81 567 77 552 74 535C72 520 71 505 71 490C71 470 73 451 77 431C84 397 98 365 119 335C140 305 165 280 194 262C223 244 254 232 286 226C300 224 314 223 328 223C347 223 366 225 385 229C418 236 448 251 477 273C506 295 530 321 547 351C564 381 576 413 582 447C583 457 584 466 584 476C584 478 585 480 585 482C585 534 574 567 530 601C523 606 513 608 504 608C501 608 499 607 496 607C496 600 495 593 495 586L495 560C495 539 497 498 497 498C497 498 497 474 500 467C503 460 507 455 513 452C524 445 529 438 531 430C533 422 534 415 534 406C534 401 533 397 531 393C529 389 528 386 525 383C522 380 518 378 515 376C512 374 509 373 506 373C496 371 486 371 475 373C465 375 457 380 450 386C446 390 443 399 442 412C435 402 427 392 418 384C403 370 385 360 365 353C348 347 332 344 315 344C312 344 307 345 304 345C284 346 265 351 247 360C229 369 214 381 200 396C186 411 176 429 169 449C163 465 161 481 161 498L161 508C162 528 168 547 176 565C184 583 196 598 211 612C226 626 244 637 264 644C276 648 287 650 297 651C301 652 306 651 310 651C314 651 318 650 322 649C326 648 329 646 332 644C335 642 337 639 338 635C341 627 341 620 340 616C339 612 337 608 333 604C328 600 321 596 315 593C309 590 303 589 297 588C294 588 290 589 288 589C286 589 284 590 281 590L271 590C267 590 263 589 257 587C248 583 240 578 233 570C226 562 220 552 216 541C211 526 209 512 209 502C209 490 212 477 216 464C221 450 228 438 237 428C246 418 254 408 266 402C278 396 294 391 308 390L320 390C331 390 344 392 354 395C368 400 381 406 393 415C405 424 413 436 421 447C426 454 436 487 436 487C441 509 440 515 442 529L441 560C441 560 440 580 437 586C434 592 430 596 425 599C419 602 416 607 413 610C410 613 408 616 407 620C406 624 404 628 404 632C404 636 403 641 403 645C403 654 407 662 413 668C419 674 425 677 431 678C436 679 441 679 446 679C451 679 457 679 462 678C466 677 470 676 474 674C498 671 521 665 542 653C568 638 589 616 604 590C613 575 619 559 622 542C625 525 626 507 626 489C626 472 625 455 622 440C617 414 610 388 600 364C590 340 576 316 560 295C544 274 524 255 502 238C480 221 456 209 431 199C406 189 381 183 356 181C347 180 337 180 328 180"/>
</svg>