<svg xmlns="http://www.w3.org/2000/svg" viewBox="0 0 637 1204">
  <path d="M317 180C309 180 303 181 296 183C289 185 285 188 282 192C277 197 270 209 262 227C254 245 244 267 234 293C224 319 213 348 201 380C189 412 178 445 166 478C162 490 157 501 153 512C115 505 77 495 40 482C36 480 34 480 32 480C30 480 29 480 29 482C29 488 42 503 49 505C79 521 111 533 143 542C139 554 135 565 131 577C120 610 109 639 100 666C96 676 92 683 88 689C84 695 80 700 76 703C72 706 67 709 63 711L51 717C47 719 43 723 40 726C37 729 34 734 32 741C30 749 29 756 29 762C29 770 31 777 34 782C39 790 47 794 60 794L67 794C75 793 82 791 88 788C94 785 99 780 104 776C109 772 113 767 116 762C119 757 122 751 124 746C126 741 130 734 133 725C136 716 140 706 144 694C148 682 152 670 157 657C162 644 166 631 171 618C178 598 185 576 193 554C226 561 259 565 292 569C330 573 370 577 410 577C423 577 436 576 449 575C454 590 459 604 464 618C468 631 472 644 477 657C482 670 487 682 491 694C495 706 499 716 502 725C505 734 508 741 510 746C512 751 516 757 519 762C522 767 526 772 531 776C536 780 541 785 547 788C553 791 560 793 568 794L575 794C588 794 597 790 602 782C605 777 606 770 606 763C606 757 605 749 603 741C601 734 598 729 595 726C592 723 588 719 584 717L572 711C568 709 563 706 559 703C555 700 551 695 547 689C543 683 539 676 535 666C526 639 515 610 504 577L501 568C515 565 529 562 542 557C564 546 589 530 593 502C594 499 594 497 594 494C594 472 575 453 555 453C553 453 551 454 549 454C522 465 522 506 494 517C491 518 487 517 484 518C479 505 475 492 470 478C458 445 446 412 434 380C422 348 411 319 401 293C391 267 381 245 373 227C365 209 359 197 354 192C351 188 346 185 339 183C332 181 325 180 317 180M317 293C324 296 331 299 337 302C343 305 349 309 353 314C358 319 363 327 367 336C371 345 375 355 379 367C383 379 387 392 391 405L403 444L430 519C431 521 431 523 432 525C400 528 367 529 334 529C290 529 247 527 204 521C204 520 205 520 205 519L232 444L244 405C248 392 252 379 256 367C260 355 264 345 268 336C272 327 277 319 282 314C286 309 292 305 298 302C304 299 310 296 317 293"/>
</svg>