<svg xmlns="http://www.w3.org/2000/svg" viewBox="0 0 416 1204">
  <path d="M193 180C144 180 115 194 86 221C53 251 38 295 35 344L35 610C35 712 103 752 118 762C133 772 148 780 165 786C181 791 197 794 214 794L217 794C215 794 212 793 210 792C213 793 216 793 219 793C224 793 228 793 233 792C244 791 257 789 270 785C292 777 312 766 328 751C344 736 357 718 366 699C375 680 381 658 383 636L383 625C383 607 380 589 374 571C366 549 355 530 340 513C330 502 318 491 306 483C310 480 314 477 318 473C334 458 347 441 356 422C365 403 370 381 372 359C372 355 373 352 373 348C373 330 369 312 363 294C355 272 344 253 329 236C314 219 297 206 278 197C259 188 238 182 216 180C208 179 200 180 193 180M205 233C208 233 210 234 212 234C227 235 242 238 255 245C268 252 280 261 290 272C300 283 308 296 313 311C318 325 320 339 320 353C320 372 316 386 313 395C309 407 302 417 294 426C286 435 277 442 267 446C261 448 256 449 252 449C248 449 245 450 242 449C239 448 236 448 233 447C230 446 228 447 224 447C217 448 210 449 203 452C199 453 196 456 193 458C181 459 171 462 159 466C148 470 137 475 121 485C109 493 105 496 101 500C92 508 83 518 76 528L76 514L76 468L76 456L76 447L76 386C76 334 81 298 124 263C156 239 187 233 205 233M192 512C193 513 195 514 196 514C200 515 204 516 209 516C214 516 218 516 223 515C228 515 233 514 239 513C248 515 256 518 264 522C277 529 290 537 300 548C310 559 318 573 323 588C328 602 330 615 330 629C330 648 326 663 323 672C319 684 312 695 304 704C296 713 287 719 277 723C271 725 266 726 262 726C258 726 255 727 252 726C249 725 246 725 243 724C240 723 238 724 234 724C227 725 220 727 213 730C206 733 200 736 194 741C190 745 187 749 186 754C185 759 185 766 188 775C189 779 192 782 195 785C197 787 200 789 203 790C196 788 190 787 183 784C173 780 163 774 152 767C141 760 130 751 120 740C115 734 111 729 107 723C103 717 100 711 97 705C94 699 92 692 90 684C88 676 85 667 82 656C80 648 79 642 79 634C79 627 79 620 81 613C85 599 91 586 100 573C109 560 121 549 134 539C147 529 161 521 176 516C178 515 179 515 181 515C184 514 188 513 191 512"/>
</svg>