<svg xmlns="http://www.w3.org/2000/svg" viewBox="0 0 624 1204">
  <path d="M373 180L355 180C335 180 317 181 297 185C270 190 243 198 218 210C193 222 169 236 148 254C127 272 108 292 91 315C74 338 60 363 50 391C40 418 34 445 32 472C31 481 31 491 31 500C31 518 32 534 35 551C40 577 48 602 59 626C70 650 84 671 101 691C118 711 138 728 160 743C182 758 206 770 233 779C260 788 287 793 315 794L329 794C351 794 373 792 395 787C421 782 448 774 471 761C518 734 559 701 595 657C595 657 512 715 465 733C430 746 393 754 355 755L349 755C315 755 281 749 248 738C213 727 183 709 158 686C133 663 112 636 98 606C84 576 76 544 74 509C74 505 73 500 73 496C73 465 79 436 91 405C104 370 123 339 147 313C171 287 199 266 231 251C247 243 262 237 277 234C292 231 306 228 320 228L331 228C341 228 351 229 360 230C372 231 383 233 393 235C400 236 407 238 413 241C419 244 426 246 431 248C437 251 443 255 449 258C455 263 459 267 462 273C465 279 467 285 469 291C471 297 474 303 477 309C480 315 485 321 491 327C499 334 509 339 518 343C522 345 525 346 530 347C535 348 540 348 545 348C550 348 555 347 560 345C565 343 571 340 576 336C581 332 584 327 586 322C588 317 588 312 587 306C586 300 583 295 579 289C575 283 571 277 567 272C557 259 543 247 526 233C503 217 478 204 450 195C424 186 398 181 373 180"/>
</svg>