<svg xmlns="http://www.w3.org/2000/svg" viewBox="0 0 623 1204">
  <path d="M259 180L251 180L249 180C224 181 199 186 173 195C145 204 119 217 96 233C79 247 65 259 55 272C51 277 47 283 43 289C39 295 37 300 36 306C35 312 34 317 36 322C38 327 41 332 46 336C51 340 57 343 62 345C67 347 73 348 78 348C83 348 87 348 92 347C97 346 101 345 105 343C114 339 123 334 131 327C137 321 142 315 145 309C148 303 151 297 153 291C155 285 158 279 161 273C164 267 168 263 174 258C180 255 186 251 192 248C197 246 203 244 209 241C214 239 219 237 224 236C222 252 220 271 220 293C220 298 221 304 221 309C222 386 222 463 223 540L223 553C223 623 218 665 210 680C201 696 196 711 193 726C192 732 192 738 192 744C180 741 168 737 157 733C110 715 28 657 28 657C64 701 104 734 151 761C167 770 184 776 202 781C206 786 210 790 215 792C223 795 232 795 240 791C241 791 240 790 241 790C258 793 276 794 293 794L308 794C336 793 362 788 389 779C416 770 441 758 463 743C485 728 505 711 522 691C539 671 553 650 564 626C575 602 582 577 587 551C590 534 592 518 592 500C592 491 592 481 591 472C589 445 582 418 572 391C562 363 548 338 531 315C514 292 495 272 474 254C453 236 429 222 404 210C379 198 353 190 326 185C306 181 287 180 267 180M286 228L302 228C316 228 330 231 345 234C360 237 376 243 392 251C424 266 452 287 476 313C500 339 519 370 532 405C544 436 549 465 549 496L549 509C547 544 538 576 524 606C510 636 490 663 465 686C440 709 409 727 374 738C341 749 307 755 273 755L268 755L263 755C266 741 267 717 267 684L267 665C266 610 266 559 266 513L266 468L266 385C267 349 268 320 270 297C272 274 276 258 280 248C283 241 285 234 286 228"/>
</svg>