<svg xmlns="http://www.w3.org/2000/svg" viewBox="0 0 605 1204">
  <path d="M119.39 180C117.39 180 115.39 180 113.39 181C90.39 184 75.39 205 63.39 223C56.39 233 50.39 257 50.39 257C35.39 314 40.39 378 38.39 438L38.39 474L38.39 535C38.39 600 41.39 731 41.39 731C41.39 731 36.39 740 34.39 745C32.39 751 31.39 756 32.39 762C33.39 768 35.39 774 39.39 779C43.39 784 49.39 788 55.39 790C64.39 793 73.39 794 82.39 794C94.39 794 105.39 793 117.39 793L119.39 793L166.39 793C192.39 793 218.39 793 244.39 792C260.39 791 275.39 791 291.39 791L353.39 791C410.39 791 466.39 789 517.39 772C541.39 761 569.39 743 573.39 715C574.39 712 574.39 710 574.39 707C574.39 685 554.39 665 532.39 665C530.39 665 527.39 666 525.39 666C496.39 678 496.39 719 466.39 730C364.39 745 346.39 745 285.39 746L274.39 746C204.39 746 82.39 736 82.39 736C82.39 736 84.39 652 84.39 610C84.39 570 85.39 520 85.39 485L85.39 466C115.39 463 145.39 462 175.39 462C228.39 462 281.39 466 334.39 474C361.39 484 362.39 522 389.39 533C391.39 533 393.39 534 395.39 534C415.39 534 434.39 515 434.39 495C434.39 493 434.39 490 433.39 487C429.39 461 403.39 446 381.39 436C340.39 422 295.39 417 250.39 417C210.39 417 170.39 421 132.39 425C116.39 427 101.39 428 85.39 430C86.39 382 91.39 335 98.39 288C108.39 262 131.39 241 157.39 238C201.39 233 247.39 230 293.39 230C351.39 230 409.39 234 466.39 242C496.39 253 496.39 295 525.39 307C527.39 307 530.39 308 532.39 308C554.39 308 574.39 288 574.39 266C574.39 263 574.39 260 573.39 257C569.39 229 541.39 212 517.39 201C466.39 184 410.39 182 353.39 182L291.39 182C275.39 182 260.39 182 244.39 181C218.39 180 181.39 180 154.39 180"/>
</svg>