<svg xmlns="http://www.w3.org/2000/svg" viewBox="0 0 596 1204">
  <path d="M112 180C110 180 107 180 105 181C82 184 69 205 56 223C49 233 43 257 43 257C33 296 29 338 29 380C29 399 30 419 31 438L33 471L36 498C36 502 37 505 37 509C46 599 62 690 103 772C105 780 120 794 126 794C128 794 128 793 128 791C128 789 128 785 126 781C97 691 81 597 78 503L77 466C107 463 137 462 167 462C220 462 274 466 327 474C354 484 355 523 382 534L388 534C408 534 426 515 426 495C426 492 427 491 426 488C422 462 396 446 374 436C333 422 288 418 243 418C203 418 163 421 125 425C109 427 94 429 78 431C79 383 83 335 90 288C100 262 124 241 150 238C195 233 240 230 286 230C344 230 402 235 459 243C489 254 489 295 518 307C520 307 523 308 525 308C547 308 567 288 567 266C567 263 567 260 566 257C562 228 534 212 510 201C458 184 403 182 346 182L284 182C268 182 252 182 236 181C210 180 174 180 147 180"/>
</svg>