<svg xmlns="http://www.w3.org/2000/svg" viewBox="0 0 676 1204">
  <path d="M373 180L356 180C336 180 317 181 297 185C270 190 244 199 217 211C190 223 167 236 146 252C125 268 106 288 89 310C72 332 59 356 50 381C41 406 34 431 32 456C31 465 31 474 31 483L31 491L31 500C31 518 32 534 35 551C40 577 48 602 59 626C70 650 84 671 101 691C118 711 138 728 160 743C182 758 206 770 233 779C260 788 287 793 315 794L330 794C352 794 374 792 396 787C422 782 449 774 472 761C494 749 515 734 536 717C557 700 573 684 592 659C611 634 625 610 634 585C640 564 644 546 645 530C646 523 645 516 645 509C645 502 643 497 641 492C639 487 636 482 632 479C628 476 623 474 616 474L605 474C598 472 585 470 569 469C555 468 538 467 480 467L417 467C405 467 395 468 385 468C301 468 273 466 251 464C227 462 209 459 199 454C188 450 177 447 168 446C159 445 151 446 144 449C131 454 124 464 124 480C124 498 150 507 166 511C184 515 208 517 260 517L313 517C348 516 374 516 395 516C429 516 448 517 464 518C489 520 506 524 514 529C527 536 539 541 551 544C551 546 552 549 552 551C553 558 553 564 555 570C557 576 558 583 559 589C560 595 559 601 557 608L548 626C545 631 542 636 538 642C534 648 530 653 525 658C518 665 510 673 501 681C492 689 481 697 470 704C459 711 446 718 432 724C418 730 402 734 385 737C370 739 356 741 341 741C321 741 302 738 282 734C248 727 216 713 186 692C156 671 131 647 113 618C95 589 83 557 77 525C75 511 74 498 74 484C74 450 90 407 91 405C104 370 123 339 147 313C170 288 198 268 228 254C258 240 278 235 305 231C316 229 328 229 339 229C346 229 353 229 360 230C377 231 394 235 410 240C424 244 443 255 449 258C455 263 459 267 462 273C465 279 468 285 470 291C472 297 475 303 478 309C481 315 486 321 492 327C500 334 509 339 518 343C522 345 526 346 531 347C536 348 540 348 545 348C550 348 556 347 561 345C566 343 572 340 577 336C582 332 585 327 587 322C589 317 588 312 587 306C586 300 584 295 580 289C576 283 572 277 568 272C558 259 544 247 527 233C504 217 478 204 450 195C424 186 398 181 373 180"/>
</svg>