<svg xmlns="http://www.w3.org/2000/svg" viewBox="0 0 615 1204">
  <path d="M134 180L128 180C108 189 97 226 97 293L97 309C98 349 99 389 99 429C79 424 59 418 39 412C35 410 33 410 31 410C29 410 28 411 28 412C28 417 41 431 48 433C65 441 82 449 99 455C99 483 100 512 100 540L100 553C100 623 95 665 87 680C78 696 73 711 70 726C69 731 68 737 68 742C68 751 69 759 72 767C76 780 83 789 92 792C100 795 108 795 116 791C124 787 131 778 136 766C141 755 144 727 144 684L144 665C143 610 142 559 142 513L142 469C189 482 239 488 287 493C325 497 365 501 404 501C410 501 417 500 423 500C423 513 424 527 424 540L424 553C424 623 419 665 411 680C402 696 396 711 393 726C392 731 392 737 392 742C392 751 393 759 396 767C400 780 407 789 416 792C424 795 432 795 440 791C448 787 455 778 460 766C465 755 468 727 468 684L468 665C467 610 466 559 466 513L466 497C489 494 512 489 534 482C556 472 581 457 585 431C586 428 586 426 586 424C586 404 567 385 547 385C545 385 543 386 541 386C514 397 514 435 487 445L466 448C466 426 467 405 467 385C468 349 469 320 471 297C473 274 476 258 480 248C485 236 488 225 488 215C488 209 487 203 485 198C481 186 472 180 457 180L452 180C432 189 421 226 421 293L421 309C422 357 423 404 423 452C392 455 360 456 329 456C266 456 203 451 142 439C142 420 143 402 143 385C144 349 145 320 147 297C149 274 152 258 156 248C161 236 164 225 164 215C164 209 164 203 162 198C158 186 148 180 134 180"/>
</svg>