<svg xmlns="http://www.w3.org/2000/svg" viewBox="0 0 237 1204">
  <path d="M179 180L169 180C159 180 147 182 133 185C115 189 100 191 87 191C74 191 65 189 60 186C49 180 40 180 34 186C30 190 29 195 29 202C29 207 30 214 32 221C36 231 44 237 55 239C59 240 65 241 70 241C78 241 87 240 97 238C95 246 95 255 94 267C94 273 93 279 93 286L93 306L93 309L93 414L93 487C93 504 94 540 94 589C94 612 93 638 93 665L93 683C93 692 94 699 94 706C95 718 95 728 97 736C87 734 78 733 70 733C65 733 59 733 55 734C44 736 36 742 32 752C30 759 29 766 29 771C29 778 30 784 34 788C40 794 49 793 60 787C65 784 74 783 87 783C100 783 115 785 133 789C147 792 159 794 169 794C173 794 176 793 179 793C191 791 199 785 204 775C206 768 207 761 207 756C207 749 205 744 202 740C196 734 187 734 176 740C171 743 161 745 148 744L145 738C144 736 143 732 142 728C139 718 137 702 136 678L136 663C136 644 137 622 137 596L137 590C137 559 136 523 136 487L136 411L136 383L136 365L136 331C136 322.33 135.56 314.56 135.56 307.07C135.56 303.33 135.67 299.67 136 296C137 272 139 255 142 245C143 241 144 238 145 236L148 230C161 229 171 230 176 233C187 239 196 239 202 233C205 229 207 224 207 217C207 212 206 205 204 198C199 188 191 182 179 180"/>
</svg>