<svg xmlns="http://www.w3.org/2000/svg" viewBox="0 0 337 1204">
  <path d="M278 180L272 180C269 181 266 183 264 185C261 187 259 190 256 194C254 198 251 200 247 202C243 204 227 204 227 204C227 204 201 205 188 205L172 205L155 205C152 205 150 204 148 204C135 204 126 206 123 210C119 215 116 220 115 226C114 229 114 233 114 236C114 239 113 242 114 245C115 248 117 253 121 257C125 261 129 263 135 263C138 263 140 262 143 262C146 262 149 262 151 261C153 260 155 259 157 257C159 255 162 252 164 249C166 246 169 244 172 242C175 240 188 239 188 239L228 239L244 239C242 254 241 272 241 293L241 309L244 540L244 572C244 622 243 638 241 676C240 689 240 702 234 714C229 723 221 729 213 735C204 741 192 746 182 749C174 751 166 752 158 752L148 752C137 750 127 747 119 742C111 737 103 730 97 722C91 714 86 706 83 697C82 691 81 686 81 683C81 680 82 677 82 674C82 671 83 668 83 666L83 658C83 652 81 646 79 639C77 632 74 626 70 621C67 617 63 615 60 614C57 613 50 614 43 616C40 617 38 619 36 622C34 625 32 628 31 632C30 636 30 640 30 645L30 657C31 668 33 679 36 691C42 711 50 728 62 743C74 758 87 770 102 779C117 788 133 793 150 794L159 794C173 794 188 791 202 785L220 776C224 784 229 790 236 792C244 795 253 795 261 791C269 787 276 778 281 766C286 755 288 727 288 684L288 665L288 655L288 654C288.29 651.07 288.41 648.06 288.41 644.98C288.41 637.56 287.71 629.78 287 622L287 513L287 468L287 385C288 349 289 320 291 297C293 274 296 258 300 248C305 236 308 225 308 215C308 209 308 203 306 198C306 196 305 195 304 193C303 191 301 189 299 187C297 185 295 183 293 182C292 181 290 181 289 181C286 180 282 180 278 180"/>
</svg>