<svg xmlns="http://www.w3.org/2000/svg" viewBox="0 0 521 1204">
  <path d="M66 180C49 180 38 188 33 204C31 210 30 217 30 224C30 237 33 253 39 270C45 285 48 312 51 354C51 358 52 367 52 379L52 420L52 435C45 439 39 447 35 456C31 465 30 475 30 487C30 499 31 509 35 518C39 527 45 535 52 539L52 581C52 598 51 612 51 624C51 634 50 643 50 652C50 661 50 670 51 678C54 745 65 784 86 794L94 794C111 794 122 786 127 770C129 763 130 756 130 748C130 735 127 720 121 704C115 688 111 660 108 619L108 595C108 583 107 570 107 554L107 552C112 555 117 558 122 562C137 573 153 585 170 598C187 611 204 624 222 638C240 652 258 664 275 675C295 688 316 700 336 711C356 722 375 732 394 742C413 752 430 760 447 769C464 778 479 786 492 794C438 737 383 683 328 631C273 579 214 531 154 488C214 444 273 395 328 343C383 291 438 237 492 180C479 188 464 196 447 205C430 214 413 222 394 232C375 242 356 252 336 263C316 274 295 286 275 299C258 310 240 322 222 336C204 350 187 363 170 376C153 389 137 400 122 411C117 414 113 418 108 421L108 393C108 376 109 361 109 349L109 321C109 312 109 303 108 295C105 228 93 190 73 180"/>
</svg>