<svg xmlns="http://www.w3.org/2000/svg" viewBox="0 0 507 1204">
  <path d="M66 180C56 180 49 181 42 185C33 190 29 198 29 211C29 218 30 226 34 235C38 244 44 253 53 263C56 266 59 274 62 286C65 298 67 314 69 333C71 352 73 372 74 395C75 418 75 443 75 469C75 489 75 510 74 531C73 552 72 572 71 593C70 614 68 633 66 653C64 673 62 692 59 709C58 713 57 717 54 720C51 723 47 727 44 731C41 735 37 738 34 742C31 746 30 751 30 757C30 766 35 775 46 785C52 791 59 794 67 794C72 794 77 794 83 792C89 790 95 787 101 785C107 783 113 780 120 778L141 772C146 771 152 770 163 769C174 768 187 768 201 768C215 768 230 767 247 767C264 767 280 766 297 766L347 766C363 766 378 765 392 765C406 765 417 764 427 763C437 762 444 761 448 760C457 757 464 753 469 746C474 739 476 732 476 724C476 716 474 708 468 701C462 694 453 690 442 688C438 687 434 686 431 686C428 686 425 685 422 685C414 685 407 686 402 688C397 690 393 693 390 697C387 701 386 704 385 708C384 712 383 716 383 719L383 722C371 721 355 721 335 721C322 721 310 722 295 722L250 722C235 722 220 723 205 723C190 723 176 724 163 725C150 726 139 726 128 726C117 726 109 727 103 727C105 725 107 721 108 717C109 713 110 709 110 704C113 656 115 614 117 576C119 538 120 504 120 474C120 438 119 407 117 381C115 355 114 333 112 316C110 299 106 285 104 275C102 268 101 260 100 255C99 248 102 238 102 229C102 221 102 214 101 206C99 196 94 189 87 185C80 181 73 180 66 180"/>
</svg>