<svg xmlns="http://www.w3.org/2000/svg" viewBox="0 0 757 1204">
  <path d="M637.39 180L628.39 180C620.39 181 613.39 183 607.39 186C601.39 189 596.39 193 591.39 197C586.39 201 581.39 207 578.39 212C575.39 217 572.39 222 570.39 227C568.39 232 565.39 240 562.39 249C559.39 258 555.39 268 551.39 280C547.39 292 542.39 304 537.39 317C532.39 330 528.39 343 524.39 356C513.39 387 502.39 420 490.39 455L463.39 529C459.39 542 455.39 556 451.39 569C447.39 582 443.39 594 439.39 606C435.39 618 430.39 629 426.39 638C422.39 647 417.39 654 412.39 660C408.39 665 403.39 668 397.39 671C391.39 674 384.39 677 377.39 680C370.39 677 364.39 674 358.39 671C352.39 668 346.39 665 342.39 660C337.39 654 332.39 647 328.39 638C324.39 629 319.39 618 315.39 606C311.39 594 307.39 582 303.39 569C299.39 556 296.39 542 292.39 529L264.39 455C252.39 420 241.39 387 230.39 356C225.39 343 221.39 330 216.39 317C211.39 304 207.39 292 203.39 280C199.39 268 195.39 258 192.39 249C189.39 240 186.39 232 184.39 227C182.39 222 179.39 217 176.39 212C173.39 207 169.39 201 164.39 197C159.39 193 154.39 189 148.39 186C142.39 183 135.39 181 127.39 180L117.39 180L106.39 180C92.39 186 82.39 202 75.39 230C70.39 253 66.39 283 66.39 320C66.39 328 67.39 337 67.39 346L67.39 382C67.39 390 68.39 396 68.39 399L68.39 406C68.39 407 69.39 409 69.39 412L69.39 429C69.39 437 70.39 448 70.39 465C70.39 565 64.39 625 53.39 646C48.39 656 43.39 667 39.39 677C35.39 687 33.39 696 31.39 706C29.39 715 28.39 725 29.39 734C30.39 743 32.39 752 35.39 760C38.39 768 40.39 775 44.39 780C48.39 785 54.39 789 60.39 791C71.39 795 82.39 795 91.39 790C96.39 787 101.39 783 105.39 778C109.39 773 114.39 765 117.39 757C121.39 749 124.39 735 126.39 713C127.39 697 127.39 677 127.39 654L127.39 627C127.39 603 126.39 585 126.39 572L126.39 540L126.39 521L126.39 506L126.39 484L126.39 446C126.39 399 127.39 360 130.39 331C132.39 307 136.39 289 140.39 276C143.39 279 146.39 282 148.39 285C152.39 291 155.39 298 159.39 308C168.39 335 179.39 365 190.39 397C201.39 429 213.39 463 225.39 496C237.39 529 249.39 562 261.39 594C273.39 626 284.39 655 294.39 681C304.39 707 314.39 729 322.39 747C330.39 765 336.39 776 341.39 781C344.39 785 349.39 789 356.39 791C363.39 793 370.39 795 377.39 794C385.39 795 392.39 793 399.39 791C406.39 789 410.39 785 413.39 781C418.39 776 425.39 765 433.39 747C441.39 729 451.39 707 461.39 681C471.39 655 482.39 626 494.39 594C506.39 562 518.39 529 530.39 496C542.39 463 553.39 429 564.39 397C575.39 365 586.39 335 595.39 308C598.39 298 603.39 291 607.39 285C609.39 282 612.39 279 614.39 276C618.39 289 621.39 307 623.39 331C626.39 360 628.39 399 628.39 446L628.39 484L628.39 506L628.39 521L628.39 540C628.39 548 627.39 559 627.39 572L627.39 627L627.39 654C627.39 677 627.39 697 628.39 713C630.39 735 633.39 749 637.39 757C640.39 765 645.39 773 649.39 778C653.39 783 658.39 787 663.39 790C672.39 795 683.39 795 694.39 791C700.39 789 705.39 785 709.39 780C713.39 775 716.39 768 719.39 760C722.39 752 724.39 743 725.39 734C726.39 725 725.39 715 723.39 706C721.39 696 719.39 687 715.39 677C711.39 667 706.39 656 701.39 646C690.39 625 684.39 565 684.39 465C684.39 448 685.39 437 685.39 429L685.39 412C685.39 409 686.39 407 686.39 406L686.39 399L686.39 382C686.39 374 687.39 363 687.39 346L687.39 320C687.39 283 684.39 253 679.39 230C672.39 202 662.39 186 648.39 180"/>
</svg>