<svg xmlns="http://www.w3.org/2000/svg" viewBox="0 0 441 1204">
  <path d="M381 180L375 180C355 189 344 226 344 293L344 309L347 540L347 553C347 605 345 642 340 663C338 659 336 656 334 652C314 615 294 579 275 542C256 505 237 467 217 430C207 411 198 394 190 378C182 362 175 347 168 334C161 321 156 309 152 300C148 291 145 284 144 279C143 275 143 271 143 268L143 259C143 256 143 253 144 250C145 247 147 245 148 241C149 238 150 233 150 229C150 225 150 220 149 216C148 212 147 208 145 204C143 200 141 197 138 194C133 189 127 184 123 182C119 180 114 180 109 180C107 180 104 179 102 180C98 179 93 180 88 180C68 189 58 226 58 293L58 309C59 386 59 463 60 540L60 553C60 623 56 665 48 680C39 696 33 711 30 726C29 731 29 737 29 742C29 751 30 759 33 767C37 780 43 789 52 792C60 795 69 795 77 791C85 787 92 778 97 766C102 755 104 727 104 684L104 665C103 610 103 559 103 513L103 468L103 385C103 359 105 336 106 317C108 320 108 323 110 326C138 378 164 427 187 472C210 517 231 558 250 596C285 666 303 712 304 734C306 756 313 773 324 784C331 791 340 795 349 794C354 794 359 794 364 791C365 790 366 790 367 789L367 788C373 783 380 776 384 766C389 755 391 727 391 684L391 665C390 610 390 559 390 513L390 468L390 385C391 349 392 320 394 297C396 274 400 258 404 248C409 236 412 225 412 215C412 209 411 203 409 198C405 186 395 180 381 180"/>
</svg>