<svg xmlns="http://www.w3.org/2000/svg" viewBox="0 0 365 1204">
  <path d="M94 180L88 180C68 189 58 226 58 293L58 309C59 386 59 463 60 540L60 553C60 623 56 665 48 680C39 696 33 711 30 726C29 731 29 737 29 742C29 751 30 759 33 767C37 780 43 789 52 792C60 795 69 795 77 791C85 787 92 778 97 766C102 755 104 727 104 684L104 665C103 610 103 559 103 513L103 468L103 385C104 349 105 320 107 297C109 274 113 258 117 248C118 247 118 245 118 244C125 240 134 237 140 235C153 231 167 228 181 228L184 228C199 228 212 231 225 237C238 243 249 250 258 260C267 270 274 281 279 294C284 306 287 319 287 333C287 356 281 371 279 375C274 387 269 398 261 407C253 416 245 423 235 428C225 433 216 436 206 437C200 437 196 436 192 435C188 434 185 432 183 431C181 430 178 428 176 427C174 426 171 425 168 424C162 423 156 422 149 422C142 422 135 424 129 426C124 428 121 431 118 435C115 439 114 444 114 453C114 457 114 461 116 464C118 467 121 470 124 472C127 474 130 476 134 478C138 480 143 481 147 482C157 485 168 486 180 487L183 487C203 487 222 483 240 476C259 468 275 457 289 443C303 429 315 413 323 395C334 370 336 347 336 333C336 313 332 294 325 276C317 257 307 240 293 226C279 212 263 201 244 193C225 185 205 180 184 180C163 180 142 183 124 191C123 192 122 192 120 193C115 184 106 180 94 180"/>
</svg>