<svg xmlns="http://www.w3.org/2000/svg" viewBox="0 0 776 1204">
  <path d="M306 180C294 181 281 182 268 185C243 190 220 199 197 210C174 221 153 234 134 250C115 266 100 284 87 302C71 325 58 349 49 375C40 401 34 427 32 454C31 464 31 473 31 483C31 500 32 517 35 534C39 560 47 586 57 610C67 634 81 657 97 678C113 699 133 719 155 736C177 752 200 766 225 775C250 784 275 791 300 793C309 794 319 794 328 794C344 794 360 793 376 790C401 786 426 778 449 767C472 756 495 742 515 725C519 721 524 718 528 714C535 720 540 725 543 728C552 737 572 753 572 753L573 754L609 780C613 782 618 784 624 786C630 788 637 789 644 790C651 791 659 791 667 792C675 793 682 794 690 794L708 794C720 794 734 794 747 793C727 787 707 780 687 771C670 763 631 742 631 742C612 728 593 715 576 699C570 693 564 688 558 681C562 676 566 670 570 664C586 640 599 616 608 589C617 562 623 535 625 508C626 500 626 491 626 483C626 464 624 446 621 427C616 400 608 375 597 350C587 327 574 305 558 285C542 265 524 248 503 232C479 214 454 200 429 191C408 185 390 182 374 181C367 180 361 181 354 181C347 181 341 182 336 184C331 186 326 190 323 194C320 198 318 203 318 210C318 217 318 223 320 228C322 233 323 238 326 242C329 246 332 250 335 253C338 256 341 259 345 261C353 266 363 270 373 273C381 275 388 275 395 274C402 273 409 272 415 270C421 268 427 268 433 267C439 266 446 266 453 268C459 271 464 274 470 277C475 280 481 283 487 287C493 291 497 295 502 300C509 307 518 315 526 324C534 333 542 344 549 355C556 366 563 379 569 393C575 407 578 423 581 440C583 455 585 469 585 484C585 504 583 523 579 543C572 577 557 609 536 639C535 641 534 642 533 644L532 644C528 636 525 627 522 618L521 616L515 598C515 593 516 591 517 589C518 587 519 586 521 585C525 583 529 580 532 576C535 572 536 568 537 564C538 560 539 558 539 555L539 548C539 545 539 541 538 538C537 533 535 530 532 527C529 524 526 522 523 520C520 518 516 517 513 516C510 515 506 513 502 512L494 510L488 510C486 510 483 511 479 512C472 514 464 518 459 524C454 530 450 537 448 545L448 546C447 553 445 561 445 569C445 581 447 594 451 607L452 609L460 630L461 632C466 642 473 652 481 663C484 667 490 675 498 684C487 694 475 704 462 712C433 730 402 742 370 747C356 749 342 751 328 751C309 751 291 748 272 744C239 737 208 723 179 701C150 679 126 653 109 623C92 593 80 561 75 527C73 513 72 498 72 484C72 464 74 444 78 424C85 390 99 357 120 327C130 313 141 301 152 289C163 277 175 266 187 257C199 248 211 239 224 232C237 225 248 218 260 212C287 199 315 189 343 181C335 180 328 180 320 180"/>
</svg>