<svg xmlns="http://www.w3.org/2000/svg" viewBox="0 0 417 1204">
  <path d="M201.44 180L195.44 180C175.44 180 156.44 184 137.44 191C133.44 192 129.44 194 124.44 196C119.44 198 113.44 202 107.44 205C101.44 208 95.44 213 89.44 217C83.44 221 78.44 226 74.44 231C68.44 239 63.44 248 59.44 258C55.44 268 53.44 279 51.44 290C50.44 297 49.44 304 49.44 311C49.44 315 50.44 319 50.44 323C51.44 334 53.44 342 57.44 350C63.44 364 73.44 377 88.44 389C103.44 401 149.44 430 149.44 430C157.44 435 174.44 444 192.44 454C210.44 464 226.44 475 242.44 486C258.44 497 273.44 509 287.44 521C299.44 532 308.44 542 316.44 555C324.44 569 330.44 583 333.44 601C334.44 607 335.44 614 335.44 620C335.44 635 332.44 650 328.44 660C313.44 701 272.44 737 229.44 744C223.44 745 218.44 745 212.44 745C173.44 745 129.44 725 106.44 694C101.44 687 99.44 678 99.44 669C99.44 661 100.44 652 102.44 644C102.44 623 93.44 599 72.44 591C64.44 587 54.44 589 46.44 593C39.44 597 35.44 601 32.44 607C30.44 610 30.44 614 30.44 618C29.44 622 30.44 627 30.44 631C31.44 658 40.44 684 53.44 707C84.44 760 145.44 794 206.44 794C212.44 794 217.44 794 223.44 793C293.44 787 356.44 736 376.44 669C380.44 657 382.44 643 383.44 630C384.44 623 384.44 617 384.44 613C384.44 596 380.44 576 370.44 553C360.44 535 348.44 518 334.44 503C320.44 488 306.44 475 290.44 462C274.44 449 258.44 438 242.44 427C226.44 416 209.44 406 194.44 397C179.44 388 166.44 380 153.44 372C140.44 364 129.44 356 120.44 348C113.44 342 109.44 336 106.44 329C103.44 322 102.44 314 102.44 306C102.44 298 103.44 292 105.44 285C107.44 278 111.44 272 114.44 268C117.44 263 121.44 260 126.44 256C131.44 252 135.44 249 140.44 246C145.44 243 150.44 241 156.44 239C170.44 233 185.44 230 199.44 230C213.44 230 226.44 233 238.44 237C250.44 241 260.44 246 269.44 254C278.44 262 285.44 270 290.44 279C292.44 285 292.44 290 292.44 294L292.44 304C292.44 307 292.44 309 291.44 312C290.44 315 290.44 317 291.44 321C292.44 327 294.44 334 297.44 341C300.44 348 304.44 353 309.44 359C313.44 363 318.44 365 322.44 366C326.44 367 333.44 366 342.44 364C346.44 363 349.44 360 351.44 357C353.44 354 356.44 350 357.44 346C358.44 342 359.44 338 359.44 333C359.44 328 359.44 323 358.44 319C357.44 314 355.44 308 354.44 302C353.44 296 351.44 290 349.44 284C341.44 263 329.44 244 314.44 229C299.44 214 281.44 202 262.44 194C243.44 186 223.44 181 201.44 180"/>
</svg>