<svg xmlns="http://www.w3.org/2000/svg" viewBox="0 0 621 1204">
  <path d="M552 180L547 180C520 191 519 230 492 240C439 248 387 251 333 251C234 251 134 238 39 207C35 205 33 204 31 204C29 204 28 206 28 207C28 213 41 226 48 228C123 266 207 280 290 289C303 290 317 291 330 292C326 308 324 330 324 356L324 369C325 436 327 503 327 571L327 583C327 644 323 681 316 694C308 708 302 721 300 734C299 739 299 744 299 748C299 756 301 764 303 771C307 782 312 789 320 792C327 795 334 795 341 791C348 787 354 780 359 769C363 759 365 736 365 698L365 681C365 633 364 589 364 548L364 509L364 436C364 404 366 379 368 359C370 339 372 325 376 316C379 309 381 302 382 296L408 296C453 296 499 292 540 278C562 268 587 252 591 226C592 223 592 221 592 218C592 198 573 180 553 180"/>
</svg>