<svg xmlns="http://www.w3.org/2000/svg" viewBox="0 0 420 1204">
  <path d="M59 180C45 180 35 186 31 198C29 203 29 209 29 215C29 225 32 236 37 248C41 258 44 274 46 297C48 320 49 349 50 385C50 411 51 439 51 468L51 513C51 540 50 569 50 599C46 602 42 606 42 609L40 620L40 630C40 646 43 663 49 678L49 684C49 727 52 755 57 766C62 778 69 787 77 791C85 795 93 795 101 792C110 789 117 780 121 767L121 765C148 781 179 791 211 791C217 791 222 791 228 790C258 787 286 776 310 759C321 751 331 743 340 733C349 723 356 712 361 700C368 683 370 665 370 645C370 644 369 580 369 513L369 468C369 439 370 411 370 385C371 349 371 320 373 297C375 274 379 258 383 248C388 236 391 225 391 215C391 209 390 203 388 198C384 186 375 180 361 180L355 180C335 189 324 226 324 293L324 309C325 386 325 463 326 540C326 564 328 588 328 612C328 623 328 632 327 643C326 664 317 684 304 700C286 721 259 738 233 742C228 743 222 743 217 743C179 743 136 724 114 694C109 687 107 678 107 669C107 661 109 652 111 645C111 630 105 613 94 602C93 587 93 571 93 553L93 540L96 309L96 293C96 226 85 189 65 180M39 622"/>
</svg>