<svg xmlns="http://www.w3.org/2000/svg" viewBox="0 0 520 1204">
  <path d="M64 180C62 180 59 180 56 181C53 182 51 184 48 185C45 186 43 188 41 190C39 192 37 193 36 195C31 202 29 211 29 224C29 234 36 254 39 262C45 279 54 300 66 326C90 378 112 427 132 472C152 517 171 558 187 596C213 655 227 696 232 721C227 739 224 754 224 765C224 775 227 784 231 789C242 795 252 795 260 791C268 795 277 795 288 789C292 784 295 775 295 765C295 754 292 739 287 721C292 696 307 655 333 596C349 558 367 517 387 472C407 427 430 378 454 326C466 300 475 279 481 262C487 244 491 232 491 224C491 211 489 202 484 195C483 193 481 192 479 190C477 188 475 186 472 185C469 184 466 182 463 181C460 180 457 180 455 180C450 180 447 180 443 182C439 184 435 189 430 194C428 197 426 200 424 204C422 208 421 212 420 216C419 220 419 225 419 229C419 233 421 238 422 241C423 245 423 247 424 250C425 253 426 256 426 259L426 268C426 271 425 275 424 279C423 284 421 291 418 300C415 309 410 321 404 334C398 347 392 362 385 378C378 394 369 411 361 430C344 467 328 505 311 542C294 579 277 615 260 652C243 615 226 579 209 542C192 505 175 467 158 430C150 411 142 394 135 378C128 362 121 347 115 334C109 321 105 309 102 300C99 291 96 284 95 279C94 275 94 271 94 268L94 259C94 256 94 253 95 250C96 247 97 245 98 241C99 238 100 233 100 229C100 225 100 220 99 216C98 212 98 208 96 204C94 200 92 197 90 194C85 189 81 184 77 182C73 180 69 180 64 180"/>
</svg>