<svg xmlns="http://www.w3.org/2000/svg" viewBox="0 0 723 1204">
  <path d="M64 180C62 180 59 180 56 181C53 182 51 184 48 185C45 186 43 188 41 190C39 192 37 193 36 195C31 202 29 211 29 224C29 234 36 254 39 262C45 279 54 300 66 326C90 378 112 427 132 472C152 517 171 558 187 596C213 655 227 696 232 721C227 739 224 754 224 765C224 775 227 784 231 789C242 795 252 795 260 791C268 795 277 795 288 789C292 784 295 775 295 765C295 754 292 739 287 721C292 696 307 655 333 596C342 575 351 553 361 530C371 553 381 575 390 596C416 655 431 696 436 721C431 739 428 754 428 765C428 775 430 784 434 789C445 795 455 795 463 791C471 795 481 795 492 789C496 784 498 775 498 765C498 754 495 739 490 721C495 696 510 655 536 596C552 558 571 517 591 472C611 427 633 378 657 326C669 300 678 279 684 262C690 244 694 232 694 224C694 211 692 202 687 195C686 193 684 192 682 190C680 188 678 186 675 185C672 184 669 182 666 181C663 180 661 180 659 180C654 180 650 180 646 182C642 184 638 189 633 194C631 197 629 200 627 204C625 208 625 212 624 216C623 220 623 225 623 229C623 233 624 238 625 241L628 250C629 253 629 256 629 259L629 268C629 271 629 275 628 279C627 284 624 291 621 300C618 309 613 321 607 334C601 347 595 362 588 378C581 394 573 411 565 430C548 467 531 505 514 542C497 579 480 615 463 652C446 615 429 579 412 542C403 521 393 501 384 480C385 477 386 475 387 472C407 427 430 378 454 326C466 300 475 279 481 262C487 244 491 232 491 224C491 211 489 202 484 195C483 193 481 192 479 190C477 188 475 186 472 185C469 184 466 182 463 181C460 180 457 180 455 180C450 180 447 180 443 182C439 184 435 189 430 194C428 197 426 200 424 204C422 208 421 212 420 216C419 220 419 225 419 229C419 233 421 238 422 241L424 250C425 253 426 256 426 259L426 268C426 271 425 275 424 279C423 284 421 291 418 300C415 309 410 321 404 334C398 347 392 362 385 378C378 394 369 411 361 430C353 411 345 394 338 378C331 362 325 347 319 334C313 321 308 309 305 300C302 291 300 284 299 279C298 275 297 271 297 268L297 259C297 256 298 253 299 250C300 247 300 245 301 241C302 238 303 233 303 229C303 225 304 220 303 216C302 212 301 208 299 204C297 200 295 197 293 194C288 189 284 184 280 182C276 180 272 180 267 180C265 180 263 180 260 181C257 182 254 184 251 185C248 186 246 188 244 190C242 192 240 193 239 195C234 202 232 211 232 224C232 234 239 254 242 262C248 279 257 300 269 326C293 378 315 427 335 472C336 475 338 477 339 480C330 501 320 521 311 542C294 579 277 615 260 652C243 615 226 579 209 542C192 505 175 467 158 430C150 411 142 394 135 378C128 362 121 347 115 334C109 321 105 309 102 300C99 291 96 284 95 279C94 275 94 271 94 268L94 259C94 256 94 253 95 250C96 247 97 245 98 241C99 238 100 233 100 229C100 225 100 220 99 216C98 212 98 208 96 204C94 200 92 197 90 194C85 189 81 184 77 182C73 180 69 180 64 180"/>
</svg>