<svg xmlns="http://www.w3.org/2000/svg" viewBox="0 0 327 1204">
  <path d="M65 180C63 180 60 180 57 181C54 182 52 184 49 185C46 186 44 188 42 190C40 192 38 193 37 195C32 202 30 211 30 224C30 234 37 254 40 262C46 279 55 300 67 326C91 378 113 427 133 472C135 477 138 483 140 488L116 542C99 579 82 615 65 652C41 703 30 741 30 765C30 775 32 784 36 789C43 793 49 794 55 794C62 794 68 791 74 784C84 773 90 756 91 734C92 712 107 666 138 596C146 578 154 559 163 539C172 559 180 578 188 596C219 666 234 712 235 734C236 756 242 773 252 784C258 791 265 794 272 794C277 794 283 793 289 789C293 784 296 775 296 765C296 741 285 703 261 652C244 615 227 579 210 542C202 524 193 506 185 488C187 483 191 477 193 472C213 427 235 378 259 326C271 300 280 279 286 262C292 244 296 232 296 224C296 211 294 202 289 195C288 193 286 192 284 190C282 188 280 186 277 185C274 184 272 182 269 181C266 180 263 180 261 180C256 180 252 180 248 182C244 184 240 189 235 194C233 197 231 200 229 204C227 208 227 212 226 216C225 220 225 225 225 229C225 233 226 238 227 241C228 245 229 247 230 250C231 253 231 256 231 259L231 268C231 271 231 275 230 279C229 284 226 291 223 300C220 309 215 321 209 334C203 347 197 362 190 378C183 394 175 411 167 430C166 433 164 436 163 439C162 436 160 433 159 430C151 411 143 394 136 378C129 362 122 347 116 334C110 321 106 309 103 300C100 291 97 284 96 279C95 275 95 271 95 268L95 259C95 256 95 253 96 250L99 241C100 238 101 233 101 229C101 225 101 220 100 216C99 212 99 208 97 204C95 200 93 197 91 194C86 189 82 184 78 182C74 180 70 180 65 180"/>
</svg>