<svg xmlns="http://www.w3.org/2000/svg" viewBox="0 0 437 1204">
  <path d="M28 180C46 210 63 237 78 263C85 274 90 285 97 296C104 307 110 317 116 327C122 337 127 346 131 354C135 362 139 368 141 372C146 381 153 391 159 402C165 413 171 424 177 434C184 445 191 456 198 468L205 484L205 490L205 494C205 496 204 497 203 498C199 501 197 506 195 510C193 514 193 518 193 522C193 526 193 529 194 531C195 533 195 536 196 537C197 540 198 542 200 544L200 545C196 557 193 568 189 580C185 592 182 603 178 613C174 623 171 632 167 640C163 648 158 655 154 660C151 664 147 667 142 669C137 671 132 674 127 676C122 678 117 681 112 684C107 687 102 689 97 693C92 697 88 702 85 708C82 714 79 721 78 730C77 735 77 740 77 745C77 751 78 757 79 762C81 770 85 777 90 782C95 787 101 790 107 792C113 794 120 794 126 794C132 794 138 792 143 790C148 788 153 784 155 781C159 776 164 767 171 753C178 739 185 722 194 701C203 680 211 658 221 632C231 606 241 579 251 551L255 550C257 549 260 547 263 545C270 540 275 534 279 527C283 520 284 512 284 505L284 503C284 501 282 498 281 494C280 490 278 487 276 483C287 452 298 421 308 391C318 361 328 334 337 308C340 298 344 291 348 285C352 279 357 274 361 271C365 268 369 265 373 263C377 261 382 259 386 257C390 255 393 251 396 248C399 245 402 240 404 233C406 225 408 217 408 211C408 204 406 197 403 192C398 184 389 180 376 180L370 180C362 181 355 183 349 186C343 189 337 193 332 197C327 201 323 207 320 212C317 217 314 223 312 228C310 233 308 241 304 250C300 259 296 269 292 281C288 293 283 306 278 319C273 332 270 346 265 359C260 372 256 385 252 397C248 409 244 419 241 428C239 424 235 419 230 413C225 407 220 400 214 392C208 384 202 376 196 367C190 358 183 349 177 341C173 336 167 329 161 322C155 315 148 307 140 298C132 289 125 281 116 272C107 263 98 254 90 245C70 224 50 203 28 180"/>
</svg>