<svg xmlns="http://www.w3.org/2000/svg" viewBox="0 0 573 1204">
  <path d="M493 180C479 180 464 183 448 189C432 195 402 200 359 203C347 204 331 204 311 204L301 204C277 204 246 203 208 202L178 202C168 202 159 202 151 203C81 206 40 218 30 239L30 247C30 265 38 276 55 282C62 284 69 285 77 285C91 285 107 282 124 275C132 272 143 269 158 267C173 265 191 263 213 262C225 261 240 261 260 261L270 261C294 261 326 262 364 263L393 263L410 263L410 270L410 281L410 289C410 292 408 295 407 298C406 301 405 305 403 309C401 313 397 319 391 327C385 335 378 345 369 356C360 367 350 380 339 394C328 408 316 422 303 438C277 470 251 502 225 533L147 626C115 665 94 696 86 719C55 725 37 735 30 748L30 756C30 774 38 785 55 791C62 793 69 794 77 794C91 794 107 791 124 784C132 781 143 778 158 776C173 774 191 772 213 771C225 770 240 770 260 770L270 770C294 770 326 771 364 772L393 772C403 772 412 772 421 771C491 768 531 755 541 734C541 731 542 729 542 727C542 709 533 698 516 692C509 690 502 689 494 689C480 689 465 692 448 699C432 705 402 709 359 712C347 713 331 713 311 713L301 713C277 713 246 712 208 711L178 711C168 711 159 711 151 712C157 691 184 650 232 591C258 558 286 523 317 485C348 447 382 406 419 362C438 340 452 321 462 306C472 291 479 282 481 275C483 268 484 261 484 255C516 249 535 239 541 225C541 222 542 220 542 218C542 200 533 189 516 183C509 181 501 180 493 180"/>
</svg>