<svg xmlns="http://www.w3.org/2000/svg" viewBox="0 0 240 1204">
  <path d="M54 180C49 180 45 181 41 185C34 191 30 197 30 203C30 207 32 211 33 215C34 219 36 222 38 227C40 232 42 237 44 243C46 249 48 255 49 262C50 270 51 278 52 290C53 302 54 314 55 328C56 342 56 357 57 372C58 387 59 402 59 416L59 456C59 469 60 479 60 488L60 511C60 521 59 533 59 546L59 585C59 598 58 611 58 623C58 635 57 646 57 655C57 664 56 670 56 674C55 680 55 687 54 694C53 701 52 707 51 713C50 719 49 725 48 729C47 733 46 736 45 737C40 743 35 749 33 755C31 761 30 765 30 770C30 778 32 784 38 787C40 788 42 789 45 790C48 791 51 791 54 791C59 791 62 790 67 787C72 784 75 780 76 774L81 774C82 774 86 774 92 773C98 772 105 772 112 771C119 770 125 770 132 769C139 768 144 768 147 768L147 769C147 772 148 776 149 781C150 786 153 789 158 792C160 793 164 794 168 794C172 794 177 793 181 792C185 791 190 790 194 788C198 786 201 783 204 780C207 777 208 773 209 769L209 767C209 766 210 766 210 765C210 759 207 753 203 750C199 747 193 745 188 744C182 743 176 741 170 741L152 741L142 741C136 741 129 742 121 742C113 742 104 743 96 743C88 743 81 744 75 744C76 742 76 736 77 727C78 718 79 706 80 692C81 678 82 663 83 645C84 627 84 609 85 591C86 573 87 554 87 536C87 518 88 501 88 485L88 459C88 448 87 437 87 424L87 383C87 369 86 354 86 340C86 326 85 312 84 299C83 286 83 274 82 264L82 256C82 252 80 247 80 242C80 237 80 234 79 230C78 226 78 224 77 223C83 223 90 224 98 224C106 224 113 225 120 225C127 225 133 226 139 226L150 226L150 228C150 230 150 233 151 235C152 237 153 240 155 242C157 244 159 247 162 248C165 249 169 250 174 250C176 250 178 249 180 249C182 249 185 249 188 248C195 247 200 244 204 240C208 236 210 230 210 225C210 220 208 215 205 211C202 207 197 203 192 201C189 200 183 200 175 199C167 198 157 199 147 198C137 197 128 197 119 196C110 195 105 195 102 194C93 192 84 189 76 185C68 181 61 180 54 180"/>
</svg>