<svg xmlns="http://www.w3.org/2000/svg" viewBox="0 0 326 1204">
  <path d="M65 180C63 180 60 180 57 181C54 182 52 184 49 185C46 186 44 188 42 190C40 192 38 193 37 195C32 202 30 211 30 224C30 234 37 254 40 262C46 279 55 300 67 326C91 378 113 427 133 472C153 517 172 558 188 596C219 666 234 712 235 734C236 756 242 773 252 784C258 791 265 794 272 794C277 794 283 793 289 789C293 784 296 775 296 765C296 741 285 703 261 652C244 615 227 579 210 542C193 505 176 467 159 430C151 411 143 394 136 378C129 362 122 347 116 334C110 321 106 309 103 300C100 291 97 284 96 279C95 275 95 271 95 268L95 259C95 256 95 253 96 250C97 247 98 245 99 241C100 238 101 233 101 229C101 225 101 220 100 216C99 212 99 208 97 204C95 200 93 197 91 194C86 189 82 184 78 182C74 180 70 180 65 180"/>
</svg>