<svg xmlns="http://www.w3.org/2000/svg" viewBox="0 0 239 1204">
  <path d="M184 180C177 180 171 181 163 185C155 189 147 192 138 194C136 195 132 196 127 196C122 196 117 197 111 197C105 197 99 198 92 198C85 198 79 199 73 199C67 199 62 200 57 200C52 200 50 200 48 201C42 203 37 207 34 211C31 215 30 220 30 225C30 230 31 236 35 240C39 244 45 247 52 248C54 249 56 249 58 249C60 249 63 250 65 250C70 250 74 249 77 248C80 247 82 244 84 242C86 240 87 237 88 235C89 233 89 230 89 228L89 226L100 226C106 226 112 225 119 225C126 225 133 224 141 224C149 224 155 223 161 223C160 224 161 226 160 230C159 234 158 237 158 242C158 247 157 252 157 256L157 264C156 274 156 286 155 299C154 312 153 326 153 340C153 354 152 369 152 383L152 424C152 437 151 448 151 459L151 485C151 500 152 517 152 535C152 553 152 573 153 591L156 645C157 663 158 678 159 692C160 706 161 718 162 727C163 736 163 742 164 744C158 744 151 743 143 743C135 743 126 742 118 742C110 742 103 741 97 741L87 741L69 741C63 741 56 743 51 744C45 745 40 747 36 750C32 753 30 759 30 765L30 769C31 773 32 777 35 780C38 783 42 786 46 788C50 790 54 791 58 792C62 793 67 794 71 794C75 794 79 793 81 792C86 789 89 786 90 781C91 776 92 772 92 769L92 768C95 768 100 768 107 769C114 770 120 770 127 771C134 772 141 772 147 773C153 774 157 774 158 774L163 774C164 780 167 784 172 787C177 790 180 791 185 791C188 791 191 791 194 790C197 789 199 788 201 787C207 784 209 778 209 770C209 765 207 761 205 755C203 749 199 743 194 737C193 736 192 733 191 729C190 725 189 719 188 713C187 707 186 701 185 694C184 687 184 680 183 674C182 670 182 664 182 655C182 646 181 635 181 623C181 611 180 598 180 585L180 546C180 533 179 522 179 512L179 488L179 456C179 443 180 430 180 416C180 402 181 387 182 372C183 357 183 342 184 328C185 314 185 302 186 290C187 278 189 270 190 262C191 255 193 249 195 243C197 237 199 232 201 227C203 222 205 219 206 215C207 211 209 207 209 203C209 197 205 191 198 185C194 181 190 180 185 180"/>
</svg>