<svg xmlns="http://www.w3.org/2000/svg" viewBox="0 0 265 1204">
  <path d="M129 180C127 180 124 180 122 181C120 182 118 183 116 185C113 188 109 192 107 196C105 200 104 205 106 212C107 216 107 220 105 224C103 228 94 238 94 238C94 238 77 256 69 264L59 274C55 278 51 281 47 285C35 296 30 304 30 310C30 316 32 320 35 325C37 328 39 330 41 332L47 338C50 340 54 341 59 341C64 341 68 340 72 336C74 334 76 332 77 330C78 328 80 326 81 324C82 322 83 320 83 317C83 314 83 312 82 308C81 305 81 301 82 298C83 295 91 286 91 286L116 260L132 244L148 260L173 286C173 286 181 295 182 298C183 301 184 305 183 308C182 312 182 314 182 317C182 320 183 322 184 324C185 326 187 328 188 330C189 332 190 334 192 336C196 340 201 341 206 341C211 341 214 340 217 338C219 336 222 334 224 332C226 330 228 328 230 325C233 320 235 316 235 310C235 304 229 296 217 285L206 274C202 270 199 268 195 264C187 256 171 238 171 238C171 238 161 228 159 224C157 220 157 216 158 212C160 205 159 200 157 196C155 192 151 188 148 185C146 183 144 182 142 181C140 180 137 180 135 180L132 180"/>
</svg>