<svg xmlns="http://www.w3.org/2000/svg" viewBox="0 0 572 1204">
  <path d="M492 743C485 743 477 743 469 745C453 747 436 753 418 763C410 768 393 772 368 774C347 776 321 777 289 777L268 777L253 777C225 777 197 775 169 774L159 774C122 774 93 776 72 781C36 790 30 804 30 812C30 828 37 838 50 843C57 846 65 847 74 846C83 845 93 842 104 838C114 833 132 830 156 828C180 826 212 824 251 824C264 824 277 823 290 823C312 823 335 824 357 824L403 824L425 824C444 824 461 824 474 823C492 822 505 820 512 817C525 810 534 804 539 796C541 792 542 787 542 782C542 777 541 773 539 768C536 758 527 751 513 747C506 744 499 743 492 743"/>
</svg>