<svg xmlns="http://www.w3.org/2000/svg" viewBox="0 0 200 1204">
  <path d="M62 180C57 180 53 181 49 184C47 185 46 186 44 188C42 190 40 191 39 193C37 195 37 199 37 203C37 207 38 210 41 213L45 217C46 218 48 219 50 220C52 221 54 222 56 222C58 222 60 222 63 221C66 220 68 221 71 222C74 223 81 228 81 228L102 249L121 268C130 277 136 282 140 282C144 282 148 281 152 278C156 275 160 272 163 268C164 267 164 266 165 264C166 262 165 261 165 259C165 257 165 255 164 253C163 251 163 250 161 248C158 245 155 243 152 241C149 239 145 239 139 240C136 241 133 241 130 240C127 239 119 230 119 230C119 230 105 218 98 211C95 208 93 205 90 202L81 193C72 184 66 180 62 180"/>
</svg>