<svg xmlns="http://www.w3.org/2000/svg" viewBox="0 0 421 1204">
  <path d="M173 487C161 487 150 490 139 493C81 510 36 565 31 626C30 631 30 636 30 641C30 694 60 746 106 773C127 785 150 794 174 794C177 794 179 793 182 793C182 793 189 793 192 792C195 791 197 789 199 787C204 782 208 773 208 765C208 762 207 760 206 757C199 739 177 731 159 731C152 732 146 733 139 733C131 733 122 732 116 727C89 707 72 670 72 636C72 631 72 626 73 621C78 586 108 552 141 539C154 534 168 531 183 531L184 531C209 531 235 538 255 551C275 563 290 585 299 607C299 628 297 668 297 668C297 668 297 692 294 699C291 706 287 711 281 714C270 721 265 728 263 735C261 742 260 749 260 756C260 761 261 767 263 772C264 776 265 779 269 783C272 786 276 788 279 790C282 792 285 793 288 793C298 795 308 794 319 792C329 790 337 786 344 780C350 774 353 761 353 738L353 729C353 707 352 669 352 669L353 606C353 606 354 586 357 580C360 574 364 570 369 567C375 564 378 560 381 557C384 554 386 550 387 546C388 542 390 538 390 534L390 521C390 512 387 505 381 499C375 493 369 489 363 488C358 487 353 487 348 487C343 487 337 488 332 489C323 491 314 494 307 501C302 506 299 517 298 534C282 518 262 506 244 498C220 487 197 487 173 487"/>
</svg>