<svg xmlns="http://www.w3.org/2000/svg" viewBox="0 0 412 1204">
  <path d="M95 180L88 180C68 189 58 226 58 293L58 309C59 386 59 463 60 540L60 553C60 623 56 665 48 680C39 696 33 711 30 726C29 731 29 737 29 742C29 751 30 759 33 767C37 780 43 789 52 792C60 795 69 795 77 791C85 787 92 778 97 766C100 760 102 750 103 735C120 757 143 777 169 787C185 793 202 796 219 796C232 796 246 794 257 792C283 787 301 774 321 761C331 754 339 745 346 736C367 709 378 675 378 641C378 615 371 588 358 565C332 517 278 487 224 487L212 487C190 489 169 495 150 506C146 509 139 511 135 515C131 518 129 520 128 528L128 534C128 543 131 554 139 558C145 562 153 564 160 564C172 564 183 559 192 553C202 542 215 531 229 531L230 531C268 532 309 559 326 593C332 606 335 622 335 637C335 659 329 681 318 699C297 731 255 753 217 755L212 755C181 755 149 739 128 717C118 706 110 693 104 679L104 665C104 632 103 600 103 570L103 538L103 513L103 468L103 385C104 349 105 320 107 297C109 274 113 258 117 248C122 236 125 225 125 215C125 209 124 203 122 198C118 186 109 180 95 180"/>
</svg>