<svg xmlns="http://www.w3.org/2000/svg" viewBox="0 0 347 1204">
  <path d="M175 487C146 489 117 498 94 515C54 543 30 591 30 640C30 651 31 662 34 673C37 684 39 697 45 707C57 727 69 746 90 762C111 778 141 792 170 794L180 794C207 794 237 788 261 774C269 769 283 759 292 750C308 733 316 714 316 714C316 714 297 729 276 742C262 750 248 758 236 760C223 763 210 764 196 764C170 764 144 759 123 745C94 725 73 688 71 653C71 651 70 648 70 646C70 612 85 574 111 554C130 539 157 531 183 531C197 531 211 534 223 539C236 545 244 560 248 574C256 588 271 601 288 601L293 601C302 601 309 596 313 588C316 583 317 577 316 572C316 569 313 563 313 563C302 539 280 520 257 507C234 494 209 487 183 487"/>
</svg>