<svg xmlns="http://www.w3.org/2000/svg" viewBox="0 0 390 1204">
  <path d="M331 180L325 180C305 189 294 226 294 293L294 309C295 385 297 538 297 538L297 556L297 562C297 626 292 666 284 680C276 695 270 709 267 723C261 727 256 730 249 733C236 739 222 743 207 745C201 746 195 746 189 746C180 746 172 745 163 743C149 740 136 736 125 728C114 720 103 710 96 699C89 688 84 675 81 662C80 655 78 648 78 641C78 634 79 628 80 621C83 607 88 593 95 582C102 571 110 561 119 554C128 547 138 541 148 538C158 535 169 534 178 535C184 536 188 537 191 539C194 541 197 542 199 544C201 546 203 547 205 549C207 551 210 553 213 554C218 556 224 558 231 559C238 560 244 559 251 558C256 557 261 554 264 551C267 548 270 542 272 534C273 530 272 526 271 523C270 520 269 518 267 516C266 514 264 513 262 511C260 509 258 507 256 506L244 500C235 496 224 492 212 489C202 487 192 487 182 487C171 487 161 488 151 490C131 494 113 502 97 513C81 524 66 538 55 555C44 572 37 590 33 611C31 621 30 631 30 641C30 651 31 662 33 672C37 692 45 711 56 727C67 743 81 757 98 768C115 779 133 787 154 791C164 793 173 794 183 794C194 794 204 793 215 791C235 787 253 778 269 767C273 780 280 789 289 792C297 795 305 795 313 791C321 787 328 778 333 766C338 755 341 727 341 684L341 665C340 610 339 559 339 513L339 468C339 439 340 411 340 385C341 349 342 320 344 297C346 274 349 258 353 248C358 236 361 225 361 215C361 209 360 203 358 198C354 186 345 180 331 180"/>
</svg>