<svg xmlns="http://www.w3.org/2000/svg" viewBox="0 0 363 1204">
  <path d="M187 487L171 487C157 488 143 491 129 496C73 517 32 574 30 634L30 639C30 649 31 659 33 668C39 691 45 712 61 733C77 754 103 776 131 785C147 791 166 794 185 794C198 794 211 792 223 789C232 787 248 781 259 774C279 761 292 746 292 746C292 746 270 756 246 763C232 767 219 770 207 770L203 770C165 767 123 754 98 725C80 704 69 674 69 645C69 638 70 630 71 623C78 588 102 552 135 538C148 533 164 530 179 530C204 530 230 537 248 552C265 566 278 586 278 606C278 610 277 614 276 618C275 621 271 622 268 623C264 625 249 625 249 625C249 625 223 626 210 626L194 626L177 626L169 626C156 626 148 627 145 631C141 636 137 641 136 647C135 650 135 654 135 657C135 660 135 663 136 666C137 669 139 674 143 678C147 682 151 684 157 684C160 684 162 683 165 683C168 683 170 683 172 682C174 681 177 680 179 678C181 676 184 673 186 670C188 667 191 665 194 663C197 661 210 660 210 660L250 660L287 660C298 660 306 660 312 658C315 657 317 656 319 654C321 652 323 650 324 648L327 639C328 633 329 626 329 620C329 613 329 606 328 599C324 573 307 549 289 530C262 503 225 488 187 487"/>
</svg>