<svg xmlns="http://www.w3.org/2000/svg" viewBox="0 0 336 1204">
  <path d="M195 180C187 180 179 180 171 182C155 186 139 192 126 202L124 204C124 202 123 200 122 198C118 186 109 180 94 180L88 180C68 189 58 226 58 293L58 309C59 386 59 463 60 540L60 553C60 623 56 665 48 680C39 696 33 711 30 726C29 731 29 737 29 742C29 751 30 759 33 767C37 780 43 789 52 792C60 795 69 795 77 791C85 787 92 778 97 766C102 755 104 727 104 684L104 665C103 610 103 559 103 513L120 513L136 513C149 513 175 514 175 514C175 514 191 514 195 516C199 518 202 520 204 524C208 531 213 535 218 536C223 537 228 537 233 537C236 537 239 537 241 536C243 535 245 533 247 531C249 529 251 527 252 525C253 523 254 522 254 520C255 514 254 507 253 500C252 494 250 489 246 485C242 481 233 479 219 479L213 479L176 479L136 479C136 479 123 478 120 476C117 474 114 472 112 469C110 466 107 463 105 461L103 459L103 385C104 349 105 320 107 297C109 276 112 260 116 250L117 249C128 239 139 232 151 227C163 222 173 219 183 218C194 217 205 218 214 221C223 224 231 229 238 235C245 241 251 248 255 256C259 264 263 272 264 281L264 294C264 297 263 300 262 302C261 304 261 307 260 309C259 311 258 313 258 316C257 322 258 328 259 334C260 340 261 346 264 352C266 356 269 358 272 360C275 362 280 362 287 361C290 360 293 359 295 357C297 355 299 351 301 348C303 345 303 341 304 337C305 333 306 329 306 325C307 315 307 305 306 294C304 275 298 257 290 242C282 227 272 214 260 204C248 194 234 187 219 183C211 181 203 180 195 180"/>
</svg>