<svg xmlns="http://www.w3.org/2000/svg" viewBox="0 0 370 1204">
  <path d="M172 486C120 490 71 522 47 569C42 579 36 591 34 602C33 605 34 609 33 612C31 622 30 632 30 643C30 650 31 658 32 666C32 668 32 670 33 672L33 673C34 675 34 678 35 680C39 697 46 712 55 726C60 734 67 742 74 749C77 752 80 754 83 757C103 774 127 786 154 791L155 792L156 792C159 793 164 793 169 793C174 793 178 794 183 794C200 794 217 791 232 784C232 784 238 781 240 779C244 775 248 771 249 765C251 757 248 748 242 742C234 733 223 730 211 730C204 730 196 731 190 733C180 739 168 746 157 746C154 746 152 746 149 745C113 734 81 698 73 661C72 655 71 648 71 642C71 612 85 580 105 559C108 556 110 553 113 551C132 536 156 527 179 527L183 527C221 528 261 553 278 587C280 591 281 596 281 601C281 611 278 621 274 630C273 633 274 636 274 640C274 650 276 662 282 670L282 739C282 763 284 787 284 811C284 822 284 832 283 843C282 864 276 886 266 905C260 916 250 927 239 934C222 945 203 952 183 956C175 958 166 959 158 959C150 959 141 958 133 956C118 952 105 945 92 936C79 927 66 917 56 905C45 892 30 861 30 861C30 861 35 896 42 912C50 930 62 945 77 958C93 971 112 981 132 986C143 989 154 991 165 991C171 991 178 990 184 989C198 987 212 984 225 979C239 974 254 968 266 959C277 951 287 943 296 933C305 923 312 912 317 900C324 883 326 865 326 845C326 844 325 780 325 713L325 687L325 676C326 675 327 673 328 672C330 669 332 663 332 663C334 654 335 645 335 636C335 619 331 601 325 585C305 531 253 490 195 486C188 485 179 485 172 486"/>
</svg>