<svg xmlns="http://www.w3.org/2000/svg" viewBox="0 0 338 1204">
  <path d="M95 180L88 180C68 189 58 226 58 293L58 309C59 386 59 463 60 540L60 595C60 641 60 671 53 683C44 699 33 711 30 726C29 731 29 737 29 742C29 751 30 759 33 767C37 780 43 789 52 792C60 795 69 795 77 791C85 787 92 778 97 766C102 755 104 727 104 684L104 665C104 631 103 599 103 568C112 557 122 549 132 543C143 536 153 531 162 528C173 525 183 525 193 526C203 527 211 530 219 535C227 540 234 546 240 553C246 560 249 568 252 576C256 587 259 596 260 611L260 624C260 650 257 677 253 684C244 700 231 711 228 726C227 731 227 737 227 742C227 751 228 759 231 767C235 780 241 789 250 792C258 795 267 795 275 791C283 787 290 778 295 766C300 755 302 727 302 684L302 660L302 637C302 627 302 617 301 607C300 598 299 592 296 582C290 564 283 548 272 534C261 520 249 509 235 501C221 493 207 488 191 487L183 487C170 487 157 490 144 495C128 501 114 510 103 522L103 513L103 468L103 385C104 349 105 320 107 297C109 274 113 258 117 248C122 236 125 225 125 215C125 209 124 203 122 198C118 186 109 180 95 180"/>
</svg>