<svg xmlns="http://www.w3.org/2000/svg" viewBox="0 0 152 1204">
  <path d="M67.25 348C60.25 348 53.25 351 48.25 355C38.25 363 32.25 374 30.25 386C29.25 393 31.25 402 35.25 408C39.25 414 44.25 419 51.25 421C57.25 423 64.25 422 70.25 421C74.25 420 79.25 417 83.25 415C86.25 413 89.25 410 92.25 407C95.25 404 98.25 400 100.25 396C103.25 387 106.25 376 102.25 368C96.25 356 83.25 350 70.25 348M92.25 487C84.25 487 74.25 491 69.25 497C57.25 512 55.25 531 55.25 552C55.25 562 56.25 573 56.25 583C56.25 604 53.25 636 53.25 642C52.25 657 52.25 674 49.25 689C46.25 707 36.25 724 33.25 743C32.25 751 30.25 760 32.25 768C34.25 777 36.25 787 43.25 792C50.25 796 60.25 795 67.25 791C76.25 786 83.25 776 87.25 766C93.25 750 95.25 733 95.25 715C95.25 701 94.25 688 94.25 675L94.25 667L94.25 645C94.25 632 93.25 619 93.25 606L93.25 594C93.25 590.33 93.14 586.56 93.14 582.78C93.14 575.22 93.59 567.67 96.25 561C99.25 552 107.25 547 112.25 539C117.25 532 121.25 522 121.25 513C121.25 510 120.25 507 119.25 504C116.25 495 105.25 488 95.25 487"/>
</svg>