<svg xmlns="http://www.w3.org/2000/svg" viewBox="0 0 341 1204">
  <path d="M263 348C260 348 259 348 256 349C252 350 249 352 245 355C241 358 238 362 235 367C232 372 229 378 227 386C226 390 225 394 226 398C227 402 229 406 231 408C233 411 234 413 236 414C238 415 240 417 241 418C241 418 243 419 248 421C253 423 259 423 267 421C272 420 275 417 279 415C283 413 286 410 288 407C290 404 293 402 294 400C295 398 296 397 296 396C299 391 301 386 301 381C301 376 299 372 298 368C296 364 295 360 291 357C283 351 274 349 266 348M274 487C244 487 249 520 244 571C242 594 240 608 239 626C238 642 238 673 238 673C238 673 240 740 240 777C240 819 239 864 238 881C237 894 237 907 231 919C226 928 218 935 210 940C201 946 189 951 179 954C171 956 163 957 155 957L145 957C134 955 125 952 117 947C109 942 101 935 95 927C89 919 84 911 81 902C80 896 79 891 79 888L79 879C79 876 80 874 80 872C80 870 81 866 81 863C81 857 79 850 77 844C75 838 72 832 68 827C65 823 60 821 57 820C54 819 48 819 41 821C38 822 36 824 34 827C32 830 30 833 29 837C28 841 28 845 28 850L28 863C29 874 31 885 34 896C40 916 49 933 60 948C71 963 85 975 100 984C115 993 131 997 148 998C151 998 153 999 156 999C170 999 185 996 199 990L217 981C221 989 226 995 233 997C241 1000 249 999 257 995C265 991 272 983 277 971C283 958 282 882 283 837C284.16 818.45 284.96 687.51 285 686C285 670 285 656 286 640C287 621 286 600 290 581C292 573 292 563 296 555C300 546 310 531 310 516C310 511 309 507 307 502C301 492 287 487 274 487"/>
</svg>