<svg xmlns="http://www.w3.org/2000/svg" viewBox="0 0 335 1204">
  <path d="M95 180L88 180C68 189 58 226 58 293L58 309C59 386 59 463 60 540L60 553L60 583L60 584L60 586C59 636 55 668 48 680C39 696 33 711 30 726C29 731 29 737 29 742C29 751 30 759 33 767C37 780 43 789 52 792C60 795 69 795 77 791C85 787 92 778 97 766C102 755 104 727 104 684L104 665L104 624C107 623 110 621 113 620C121 616 128 608 137 608C160 610 187 631 206 650C221 665 243 691 249 711C251 717 252 724 251 730C251 733 251 735 248 737C240 741 236 748 235 752C234 755 233 760 233 764C233 774 237 784 253 789C260 792 266 793 272 793C280 793 287 790 294 783C298 779 301 773 303 767L303 766C304 762 304 758 304 754C304 703 260 650 251 640C224 609 206 597 163 578C163 578 213 548 235 529C244 521 251 511 258 502C263 496 267 489 271 482C276 473 282 452 282 452C283 447 285 440 285 432C285 426 284 419 283 413C281 407 278 401 274 397C270 393 265 390 259 388C256 387 255 386 253 386L248 386L242 388L233 391C230 392 228 393 226 394C224 395 221 397 219 399C217 401 216 404 215 408C214 410 214 413 214 415L214 420C214 422 214 424 215 427C216 430 217 433 219 436C221 439 225 441 228 443L231 446C231.31 447.13 231.45 448.41 231.45 449.79C231.45 461.92 220.79 482.51 219 487C200 523 130 551 128 552C120 550 111 550 103 550L103 513L103 468L103 385C104 349 105 320 107 297C109 274 113 258 117 248C122 236 125 225 125 215C125 209 124 203 122 198C118 186 109 180 95 180"/>
</svg>