<svg xmlns="http://www.w3.org/2000/svg" viewBox="0 0 541 1204">
  <path d="M92 448C83 448 75 456 70 464C64 473 64 486 63 496C62 518 61 528 61 535C61 536 62 579 62 595C62 641 61 671 54 683C45 699 34 711 31 726C30 731 30 737 30 742C30 751 31 759 34 767C38 780 44 789 53 792C61 795 70 795 78 791C86 787 93 778 98 766C103 755 105 727 105 684L105 665C105 631 104 599 104 568C113 557 123 549 133 543C144 536 154 531 163 528C174 525 184 525 194 526C204 527 212 530 220 535C228 540 235 546 241 553C247 560 250 568 253 576C257 587 260 596 261 611L261 624C261 650 258 677 254 684C245 700 232 711 229 726C228 731 228 737 228 742C228 751 229 759 232 767C236 780 242 789 251 792C259 795 268 795 276 791C284 787 291 778 296 766C301 755 303 727 303 684L303 660L303 637C303 627 303 617 302 607C301 598 300 592 297 582L295 576C295 576 314 555 333 543C344 536 354 531 363 528C374 525 384 525 394 526C404 527 413 530 421 535C429 540 435 546 441 553C447 560 451 568 454 576C458 587 460 596 461 611C461 615 462 619 462 624C462 650 458 677 454 684C445 700 432 711 429 726C428 731 428 737 428 742C428 751 429 759 432 767C436 780 443 789 452 792C460 795 468 795 476 791C484 787 491 778 496 766C501 755 504 727 504 684L504 660L504 637C504 627 503 617 502 607C501 598 500 592 497 582C491 564 484 548 473 534C462 520 450 509 436 501C422 493 408 488 392 487L380 487C368 487 357 490 345 495C321 508 300 525 279 542C277 539 275 537 273 534C262 520 250 509 236 501C222 493 208 488 192 487L184 487C171 487 158 490 145 495C129 501 115 510 104 522C105 515 107 509 109 505C114 493 117 485 117 478C117 474 117 470 115 465C111 456 101 448 92 448"/>
</svg>