<svg xmlns="http://www.w3.org/2000/svg" viewBox="0 0 340 1204">
  <path d="M92 448C83 448 75 456 70 464C64 473 64 486 63 496C62 518 61 528 61 535C61 536 62 579 62 595C62 641 61 671 54 683C45 699 34 711 31 726C30 731 30 737 30 742C30 751 31 759 34 767C38 780 44 789 53 792C61 795 70 795 78 791C86 787 93 778 98 766C103 755 105 727 105 684L105 665C105 631 104 599 104 568C113 557 123 549 133 543C144 536 154 531 163 528C174 525 184 525 194 526C204 527 212 530 220 535C228 540 235 546 241 553C247 560 250 568 253 576C257 587 260 596 261 611L261 624C261 650 258 677 254 684C245 700 232 711 229 726C228 731 228 737 228 742C228 751 229 759 232 767C236 780 242 789 251 792C259 795 268 795 276 791C284 787 291 778 296 766C301 755 303 727 303 684L303 660L303 637C303 627 303 617 302 607C301 598 300 592 297 582C291 564 284 548 273 534C262 520 250 509 236 501C222 493 208 488 192 487L184 487C171 487 158 490 145 495C129 501 115 510 104 522C105 515 107 509 109 505C114 493 117 485 117 478C117 474 117 470 115 465C111 456 101 448 92 448"/>
</svg>