<svg xmlns="http://www.w3.org/2000/svg" viewBox="0 0 372 1204">
  <path d="M179 487C164 487 150 490 135 495C115 502 97 512 82 526C67 540 55 555 46 573C37 591 32 610 31 630L31 641C31 658 33 674 39 691C46 711 57 728 71 743C85 758 100 770 118 778C136 786 155 792 175 794L186 794C202 794 219 792 235 786C250 781 263 773 276 763C289 753 300 741 309 728C318 715 326 700 331 685C336 670 338 654 338 638C338 640 336 642 336 644C337 641 337 639 337 636C337 632 338 627 337 623C336 613 333 602 329 590C322 570 312 552 298 537C284 522 269 510 251 502C233 494 215 488 195 487M191 535C204 535 216 538 227 542C238 546 248 552 256 559C264 566 269 574 273 583C275 589 276 593 276 597L276 606C276 609 275 612 275 614C275 616 274 620 274 623C275 629 276 635 279 641C282 647 286 653 290 658C294 662 298 665 302 666C306 667 313 667 321 664C325 663 328 661 330 658C332 656 333 654 334 651C332 657 331 663 329 669C326 678 320 687 314 697C308 707 299 717 289 726C284 731 278 735 273 738C268 741 263 743 257 746C251 749 245 752 238 754C231 756 223 758 213 761C206 763 199 764 192 764C186 764 180 763 174 761C161 758 148 752 137 744C126 736 115 725 106 713C97 701 90 689 85 675C81 663 80 652 80 640L80 633C81 619 84 607 90 595C96 583 104 572 114 563C124 554 136 547 150 542C163 538 176 535 188 535"/>
</svg>