<svg xmlns="http://www.w3.org/2000/svg" viewBox="0 0 369 1204">
  <path d="M184 487C166 487 148 489 131 495C111 502 92 512 78 527C66 540 60 556 55 573C49 594 48 616 48 638C48 670 59 728 59 774L59 794C58 828 55 871 47 885C38 901 32 916 29 931C28 936 28 941 28 946C28 955 29 964 32 972C36 985 42 994 51 997C59 1000 68 999 76 995C84 991 91 983 96 971C101 960 103 932 103 889L103 870C103 849 102 818 102 794L102 758C102 721 92 676 92 636C92 594 103 558 147 541C159 537 169 536 181 536L188 536C202 537 215 540 227 546C239 552 250 560 259 570C268 580 275 592 280 606C284 619 287 632 287 644C287 661 283 675 280 683C276 694 270 704 263 712C256 720 248 726 239 730C233 732 229 732 225 732L215 732C212 732 210 731 208 731C206 731 202 730 199 730C193 731 186 732 180 735C174 738 168 742 163 746C159 750 157 754 156 758C155 762 155 769 158 777C159 781 161 784 164 786C167 788 170 790 174 791C178 792 182 793 186 793C190 793 195 794 199 793C209 792 220 790 232 786C252 779 270 768 285 754C300 740 312 725 320 707C328 689 334 671 335 651L335 640C335 623 332 607 326 591C319 571 309 553 295 538C281 523 267 511 249 502C231 493 205 487 184 487"/>
</svg>