<svg xmlns="http://www.w3.org/2000/svg" viewBox="0 0 352 1204">
  <path d="M181 487C160 487 134 493 116 502C98 511 83 523 69 538C55 553 45 571 38 591C32 607 30 623 30 640L30 651C31 671 37 689 45 707C53 725 65 740 80 754C95 768 113 779 133 786C145 790 156 792 166 793C170 794 175 793 179 793C183 793 187 792 191 791C195 790 198 788 201 786C204 784 206 781 207 777C210 769 210 762 209 758C208 754 205 750 201 746C196 742 190 738 184 735C178 732 172 731 166 730C163 730 159 731 157 731C155 731 152 732 149 732L140 732C136 732 132 732 126 730C117 726 109 720 102 712C95 704 89 694 85 683C80 668 78 653 78 644C78 632 81 619 85 606C90 592 96 580 105 570C114 560 125 552 137 546C149 540 162 537 176 536L183 536C195 536 206 537 218 541C262 558 272 594 272 636C272 676 262 721 262 758L261 794C261 794 257 871 249 885C240 901 235 916 232 931C231 936 230 941 230 946C230 955 232 964 235 972C239 985 245 994 254 997C262 1000 271 999 279 995C287 991 293 983 298 971C303 960 306 932 306 889L306 870C306 849 305 794 305 794L305 782C305 704 317 683 317 638C317 616 315 594 309 573C304 556 296 540 284 527C270 512 254 502 234 495C217 489 199 487 181 487"/>
</svg>