<svg xmlns="http://www.w3.org/2000/svg" viewBox="0 0 316 1204">
  <path d="M92 448C83 448 75 456 70 464C64 473 64 486 63 496C62 518 61 528 61 535C61 536 62 579 62 595C62 641 61 671 54 683C45 699 34 711 31 726C30 731 30 737 30 742C30 751 31 759 34 767C38 780 44 789 53 792C61 795 70 795 78 791C86 787 93 778 98 766C103 755 105 727 105 684L105 665C105 631 104 599 104 568C113 557 123 549 133 543C144 536 154 531 163 528C172 526 180 525 188 525C202 529 211 543 225 547C231 549 237 549 243 549C249 549 255 548 261 546C269 543 278 537 282 529C285 522 286 514 283 507C279 500 271 495 263 492C256 489 248 489 241 488C234 487 226 487 219 487C210 487 201 486 192 487C176 488 161 489 145 495C129 501 115 510 104 522C105 515 107 509 109 505C114 493 117 485 117 478C117 474 117 470 115 465C111 456 101 448 92 448"/>
</svg>