<svg xmlns="http://www.w3.org/2000/svg" viewBox="0 0 310 1204">
  <path d="M135 487C120 488 105 490 91 494C54 506 34 539 34 562C34 593 54 622 79 640C121 667 177 661 218 692C228 699 238 709 238 722C238 724 237 725 237 727C232 745 213 751 197 755C190 756 183 757 176 757C155 757 133 750 117 736C105 726 104 709 94 698C86 688 72 680 59 680C54 680 49 681 44 684C36 688 33 697 33 705C33 711 35 718 38 723C57 757 92 781 130 790C142 793 154 794 166 794C195 794 224 786 249 771C266 759 276 739 276 718C276 712 276 706 274 700C265 667 232 648 201 640C169 630 136 629 106 614C89 604 71 586 71 565C71 538 109 524 114 522C121 520 128 519 135 519C155 519 175 526 191 538C204 549 204 568 214 581C222 592 236 601 250 601C255 601 261 600 266 597C274 593 277 584 277 576C277 570 275 563 272 558C253 524 217 500 179 491C167 488 154 487 142 487"/>
</svg>