<svg xmlns="http://www.w3.org/2000/svg" viewBox="0 0 278 1204">
  <path d="M137.38 468C122.38 468 109.38 482 102.38 495C98.38 504 96.38 516 96.38 528C96.38 546 99.38 563 99.38 570L99.38 571L99.38 598L99.38 605L99.38 617C90.38 617 81.38 616 72.38 616C67.38 616 62.38 617 58.38 617C54.38 617 45.38 620 41.38 622C31.38 628 26.38 640 30.38 649C34.38 656 46.38 658 54.38 656C61.38 654 66.38 649 73.38 647C76.38 646 83.38 646 83.38 646L99.38 646C99.38 646 99.38 665 101.38 681C104.38 709 109.38 734 125.38 756C140.38 776 165.38 794 191.38 794C196.38 794 201.38 793 206.38 792C228.38 784 239.38 760 243.38 739C244.38 733 252.38 709 244.38 725C233.38 743 218.38 761 196.38 765L192.38 765C172.38 765 159.38 752 149.38 737C139.38 722 135.38 705 135.38 686L135.38 681C135.38 669 136.38 658 136.38 647C152.38 647 169.38 650 185.38 650C191.38 650 197.38 650 203.38 649C205.38 649 208.38 648 210.38 647C212.38 646 213.38 644 215.38 643C223.38 636 227.38 626 222.38 616C218.38 607 210.38 603 202.38 603C199.38 603 197.38 603 194.38 604C185.38 605 182.38 614 175.38 617C172.38 618 169.38 619 166.38 619L139.38 619L139.38 606C139.38 602 139.38 591 141.38 576C144.38 547 150.38 558 163.38 545C172.38 538 175.38 526 175.38 515C175.38 507 174.38 500 171.38 494C166.38 481 151.38 468 137.38 468"/>
</svg>