<svg xmlns="http://www.w3.org/2000/svg" viewBox="0 0 339 1204">
  <path d="M74 487C70 487 66 488 62 490C54 494 47 503 42 515C37 526 35 554 35 597L35 620L35 644C35 654 35 664 36 674C37 683 38 689 41 699C47 717 55 733 66 747C77 761 88 772 102 780C116 788 130 793 146 794L154 794C167 794 181 791 194 786C210 780 223 771 234 759C233 766 231 772 229 776C224 788 221 796 221 803C221 807 222 810 224 815C228 824 237 833 246 833C255 833 263 825 268 817C274 808 274 795 275 785C276 763 277 753 277 746L277 685C277 639 277 610 284 598C293 582 304 570 307 555C308 550 308 544 308 539C308 530 307 521 304 513C300 500 294 492 285 489C277 486 268 486 260 490C252 494 245 503 240 515C235 526 233 554 233 597L233 616C233 650 234 681 234 712C225 723 215 732 205 738C194 745 184 749 175 752C164 755 154 756 144 755C134 754 126 751 118 746C110 741 104 735 98 728C92 721 88 713 85 705C81 694 78 685 77 670L77 656C77 630 80 604 84 597C93 581 106 570 109 555C110 550 110 544 110 539C110 530 109 521 106 513C102 500 96 492 87 489C83 487 78 487 74 487"/>
</svg>