<svg xmlns="http://www.w3.org/2000/svg" viewBox="0 0 398 1204">
  <path d="M53 487L50 487C46 487 43 488 40 490C32 495 31 507 31 516C31 527 38 538 43 546C57 569 62 576 67 583C112 646 141 686 143 704C145 722 143 738 149 752C156 766 164 776 175 784C183 791 192 794 199 794C206 794 215 791 223 784C234 776 242 766 249 752C255 738 253 722 255 704C257 686 286 646 331 583C336 576 341 569 355 546C360 538 367 527 367 516C367 507 366 495 358 490C350 485 338 486 330 491C319 498 316 507 312 527C311 532 306 544 306 544L279 581C279 581 243 633 223 660C214 673 206 685 199 695C192 685 184 673 175 660C155 633 119 581 119 581L92 544C92 544 87 532 86 527C82 507 79 498 68 491C64 488 59 487 53 487"/>
</svg>