<svg xmlns="http://www.w3.org/2000/svg" viewBox="0 0 559 1204">
  <path d="M53 487L50 487C46 487 43 488 40 490C32 495 31 507 31 516C31 527 38 538 43 546C57 569 62 576 67 583C112 646 141 686 143 704C145 722 143 738 149 752C156 766 164 776 175 784C183 791 192 794 199 794C206 794 215 791 223 784C234 776 242 766 249 752C255 738 253 722 255 704C256 694 264 679 279 657C294 679 302 694 303 704C305 722 303 738 309 752C316 766 325 776 336 784C344 791 352 794 359 794C366 794 375 791 383 784C394 776 402 766 409 752C415 738 414 722 416 704C418 686 446 646 491 583C496 576 501 569 515 546C520 538 528 527 528 516C528 507 526 495 518 490C510 485 498 486 490 491C479 498 476 507 472 527C471 532 466 544 466 544L440 581C440 581 404 633 384 660C375 673 366 685 359 695C352 685 344 673 335 660C327 649 316 632 306 618C314 607 322 596 331 583C336 576 341 569 355 546C360 538 367 527 367 516C367 507 366 495 358 490C350 485 338 486 330 491C319 498 316 507 312 527C311 532 306 544 306 544L279 581L253 544C253 544 248 532 247 527C243 507 240 498 229 491C224 488 217 487 211 487C207 487 203 488 200 490C192 495 191 507 191 516C191 527 199 538 204 546C218 569 223 576 228 583C237 596 245 607 253 618C243 632 231 649 223 660C214 673 206 685 199 695C192 685 184 673 175 660C155 633 119 581 119 581L92 544C92 544 87 532 86 527C82 507 79 498 68 491C64 488 59 487 53 487"/>
</svg>