<svg xmlns="http://www.w3.org/2000/svg" viewBox="0 0 265 1204">
  <path d="M55 487L52 487C48 487 45 488 42 490C34 495 33 507 33 516C33 527 40 538 45 546C59 569 64 576 69 583C82 602 95 618 105 633C98 643 91 652 86 660C54 704 37 732 34 746C33 751 33 757 33 761C33 768 34 773 37 778C41 786 47 791 56 793C58 794 60 794 62 794C69 794 78 790 86 784C97 776 105 766 112 752C118 738 116 722 118 704C119 697 124 686 132 673C140 686 144 697 145 704C147 722 145 738 151 752C158 766 166 776 177 784C185 790 194 794 201 794C203 794 205 794 207 793C216 791 222 786 226 778C229 773 230 768 230 761C230 757 230 751 229 746C226 732 209 704 177 660C172 652 165 643 158 633C168 618 181 602 194 583C199 576 204 569 218 546C223 538 230 527 230 516C230 507 229 495 221 490C213 485 201 486 193 491C182 498 178 507 174 527C173 532 169 544 169 544L142 581L132 596C126 587 121 581 121 581L94 544C94 544 90 532 89 527C85 507 81 498 70 491C66 488 61 487 55 487"/>
</svg>