<svg xmlns="http://www.w3.org/2000/svg" viewBox="0 0 339 1204">
  <path d="M73 487C69 487 65 488 61 490C53 494 46 503 41 515C36 526 34 554 34 597L34 621L34 644C34 654 34 664 35 674C36 683 37 689 40 699C46 717 54 734 65 748C76 762 87 772 101 780C115 788 130 793 146 794L153 794C166 794 180 791 193 786C209 780 241 753 241 753L241 782L241 797C241 818 240 839 237 860C234 877 232 896 223 910C209 932 189 954 164 960C161 961 158 961 155 961C136 961 113 950 102 943C74 925 59 896 50 872C44 855 40 834 40 810C36 826 35 843 35 858L35 870C36 889 40 906 47 922C54 938 63 951 74 963C85 975 98 985 114 991C127 996 141 999 154 999C157 999 158 998 161 998C177 997 192 993 206 985C220 977 231 966 242 952C253 938 261 922 267 904C270 893 271 883 272 873C275 844 274 814 275 785C275 771 276 751 276 742L276 686C276 640 277 610 284 598C293 582 303 570 306 555C307 550 308 544 308 539C308 530 306 521 303 513C299 500 293 492 284 489C276 486 267 486 259 490C251 494 244 503 239 515C234 526 232 554 232 597L232 616C232 650 233 682 233 713C224 724 215 733 205 739C194 746 183 750 174 753C163 756 153 756 143 755C133 754 125 751 117 746C109 741 103 735 97 728C91 721 87 713 84 705C80 694 77 685 76 670L76 657C76 631 79 604 83 597C92 581 105 570 108 555C109 550 110 544 110 539C110 530 108 521 105 513C101 500 95 492 86 489C82 487 77 487 73 487"/>
</svg>