<svg xmlns="http://www.w3.org/2000/svg" viewBox="0 0 413 1204">
  <path d="M78.97 487C72.97 487 68.97 488 65.97 489C52.97 492 42.97 498 37.97 505C32.97 512 31.97 520 33.97 529C35.97 538 42.97 546 54.97 552C65.97 558 78.97 560 92.97 560L95.97 560C110.97 559 124.97 551 141.97 544C145.97 542 159.97 542 167.97 542L174.97 542L221.97 547C221.97 547 254.97 552 277.97 555C275.97 558 273.97 560 273.97 560L235.97 586L220.97 597L183.97 622C183.97 622 164.97 636 156.97 641C118.97 667 83.97 702 68.97 720C67.97 720 66.97 721 65.97 721C52.97 724 42.97 730 37.97 737C32.97 744 31.97 752 33.97 761C35.97 770 42.97 778 54.97 784C65.97 790 78.97 793 92.97 793L95.97 793C110.97 792 124.97 783 141.97 776C145.97 774 159.97 774 167.97 774L174.97 774L221.97 780C221.97 780 260.97 786 283.97 789C291.97 790 299.97 791 326.97 793C330.97 793 335.97 794 340.97 794C347.97 794 353.97 794 359.97 791C367.97 787 377.97 780 378.97 771C379.97 762 372.97 751 364.97 746C358.97 743 353.97 741 347.97 741C341.97 741 334.97 743 324.97 746C319.97 747 306.97 749 306.97 749L261.97 742L242.97 739L197.97 733C197.97 733 174.97 729 165.97 728C155.97 726 146.97 725 137.97 724C149.97 713 162.97 701 171.97 693C207.97 662 245.97 632 284.97 605C291.97 600 297.97 596 318.97 579C324.97 575 332.97 569 337.97 562C345.97 562 352.97 561 359.97 558C367.97 554 377.97 547 378.97 538C379.97 529 372.97 519 364.97 514C358.97 511 353.97 509 347.97 509C341.97 509 334.97 511 324.97 514C319.97 515 306.97 516 306.97 516L261.97 510L242.97 507L197.97 500C197.97 500 174.97 496 165.97 495C128.97 489 101.97 487 83.97 487"/>
</svg>