<svg xmlns="http://www.w3.org/2000/svg" viewBox="0 0 234 1204">
  <path d="M119.16 180C99.16 180 82.16 199 76.16 223C74.16 231 73.16 243 72.16 258C71.16 279 71.16 279 71.16 286L71.16 301C72.16 362 71.16 383 73.16 424C73.16 430 74.16 436 74.16 442C74.16 451 73.16 458 65.16 464C59.16 469 49.16 460 42.16 462C38.16 463 34.16 467 32.16 471C29.16 476 30.16 482 30.16 487C30.16 493 30.16 499 33.16 504C35.16 507 37.16 510 40.16 511C48.16 514 59.16 505 65.16 510C73.16 516 74.16 523 74.16 532C74.16 538 73.16 544 73.16 550C71.16 591 72.16 612 71.16 673L71.16 688C71.16 695 71.16 694 72.16 715C73.16 730 74.16 742 76.16 750C82.16 774 99.16 794 119.16 794C151.16 794 204.16 743 204.16 743C204.16 743 175.16 761 158.16 764C153.16 765 148.16 765 143.16 765C136.16 765 129.16 764 123.16 760C114.16 754 109.16 744 108.16 734C108.16 728 107.16 723 107.16 717C106.16 702 106.16 691 106.16 681C106.16 651 109.16 635 110.16 590L110.16 563C110.16 559 111.16 552 111.16 544C111.16 528 109.16 508 98.16 496L89.16 487L98.16 478C109.16 466 111.16 445 111.16 429C111.16 421 110.16 415 110.16 411L110.16 383C109.16 338 106.16 323 106.16 293C106.16 283 106.16 272 107.16 257C107.16 251 108.16 246 108.16 240C109.16 230 114.16 220 123.16 214C129.16 210 136.16 209 143.16 209C148.16 209 153.16 209 158.16 210C175.16 213 204.16 231 204.16 231C204.16 231 151.16 180 119.16 180"/>
</svg>