<svg xmlns="http://www.w3.org/2000/svg" viewBox="0 0 162 1204">
  <path d="M100 180L93 180C71 189 60 226 60 293C60 298 61 304 61 309C62 353 62 397 62 442C62 456 63 471 63 486L63 746C63 746 62 840 50 886C46 901 34 914 31 930C30 935 30 941 30 947C30 956 31 964 34 972C38 982 45 992 55 996C63 999 74 1000 81 995C97 985 101 965 104 947C110 908 111 869 111 829C111 803 110 775 110 746L110 487C110 472 109 456 109 441L109 406L109 385C110 349 111 320 113 297C115 274 119 258 124 248C130 236 132 225 132 215C132 209 131 203 129 198C124 186 115 180 100 180"/>
</svg>