<svg xmlns="http://www.w3.org/2000/svg" viewBox="0 0 234 1204">
  <path d="M115 180C83 180 30 231 30 231C30 231 59 213 76 210C81 209 86 209 91 209C98 209 105 210 111 214C120 220 125 230 126 240C126 246 127 251 127 257C128 272 128 283 128 293C128 323 125 338 124 383L124 411C124 415 123 421 123 429C123 445 125 466 136 478C139 481 144 487 144 487C144 487 139 493 136 496C125 508 123 528 123 544C123 552 124 559 124 563L124 590C125 635 128 651 128 681C128 691 128 702 127 717C127 723 126 728 126 734C125 744 120 754 111 760C105 764 98 765 91 765C86 765 81 765 76 764C59 761 30 743 30 743C30 743 83 794 115 794C135 794 151 774 157 750C159 742 160 730 161 715C162 694 163 695 163 688L163 673C162 612 163 591 161 550C161 544 160 538 160 532C160 523 161 516 169 510C175 505 186 514 194 511C197 510 199 507 201 504C204 499 204 493 204 487C204 482 204 476 201 471C199 467 196 463 192 462C185 460 175 469 169 464C161 458 160 451 160 442C160 436 161 430 161 424C163 383 162 362 163 301L163 286C163 279 162 279 161 258C160 243 159 231 157 223C151 199 135 180 115 180"/>
</svg>