<svg xmlns="http://www.w3.org/2000/svg" viewBox="0 0 429 1204">
  <path d="M133 425C125 425 116 427 108 430C78 440 49 464 34 500C31 506 30 512 30 519C30 528 33 536 39 541C43 544 47 545 51 545C62 545 73 537 80 526C88 514 89 498 98 487C111 472 129 464 146 464C152 464 157 466 162 467C175 471 195 496 195 496L224 524C244 540 267 548 291 548L295 548C303 548 312 547 320 544C350 534 379 510 394 474C397 468 399 462 399 455C399 446 396 438 390 433C386 430 381 429 377 429C366 429 356 437 349 448C341 460 339 476 330 487C317 502 300 509 283 509C277 509 271 508 266 507C253 503 233 478 233 478L204 450C184 434 161 425 137 425"/>
</svg>