<svg xmlns="http://www.w3.org/2000/svg" viewBox="0 0 153 1204">
  <path d="M65 999C69 999 73 997 77 995C85 991 92 983 97 971C101.35 959.68 104.19 933.19 104.19 891.54C104.19 885.36 104.13 878.85 104 872C104 854 103 840 103 830L103 806C103 800 102 795 102 792L102 781L102 764C102 757 103 748 103 735C103 665 107 619 116 600C121.07 587.34 123.73 576.68 123.73 567.26C123.73 561.80 122.83 556.77 121 552C116.63 539.75 108.42 533.63 94.38 533.63C92.38 533.63 90.25 533.75 88 534C67.95 542.59 57.93 581.25 57.93 649.98C57.93 653.25 57.95 656.59 58 660C58 672 59 681 59 687L59 700L59 704C59 705 60 707 60 709L60 722L60 750C60 826 57 871 48 887C39 903 33 918 31 932C30.33 936.67 30 941.33 30 945.96C30 955.22 31.33 964.33 34 973C38 986 44 994 53 997C57 999 61 999 65 999M69 459C72 459 76 459 80 458C85 457 89 454 93 452C97 450 100 447 102 444C104 441 106 439 107 437C108 435 109 434 109 433C112 428 114 422 114 417C114 412 113 409 112 405C110 401 108 397 104 394C95 388 87 385 79 384C76 384 73 385 69 386C65 387 62 388 58 391C54 394 51 398 48 403C45 408 42 415 40 423C39 427 39 431 40 435C41 439 42 443 44 445C46 448 48 450 50 451C52 452 53 454 54 455C54 455 56 456 61 458C63 459 66 459 69 459"/>
</svg>