<svg xmlns="http://www.w3.org/2000/svg" viewBox="0 0 345 1204">
  <path d="M190.86 180L183.86 180C163.69 189.17 153.61 226.06 153.61 290.69C153.61 296.56 153.69 302.67 153.86 309L153.86 336C131.86 340 111.86 348 93.86 361C53.98 389.48 30 437.84 30 486.66C30 497.83 31.25 509.02 33.86 520C36.86 531 38.86 543 44.86 553C56.86 573 68.86 592 89.86 608C106.86 621 128.86 633 152.86 638C150.86 659 147.86 673 143.86 680C134.86 696 128.86 711 125.86 726C125.19 731 124.86 735.78 124.86 740.41C124.86 749.67 126.19 758.33 128.86 767C132.86 780 139.86 789 148.86 792C156.86 795 164.86 795 172.86 791C180.86 787 187.86 778 192.86 766C197.89 755.11 200.11 730.18 200.11 690.05C200.11 682.27 200.02 673.93 199.86 665L199.86 639C220.86 637 242.86 630 260.86 620C268.86 615 282.86 605 291.86 596C307.86 579 315.86 560 315.86 560C315.86 560 296.86 575 275.86 588C261.86 596 247.86 604 235.86 606C223.02 608.43 209.33 609.90 195.59 609.90C169.76 609.90 143.75 604.71 122.86 591C93.86 571 71.86 534 69.86 499C69.74 496.87 69.68 494.72 69.68 492.55C69.68 458.21 84.52 420.70 110.86 400C130.11 385.24 156.35 377.07 181.94 377.07C196.23 377.07 210.32 379.62 222.86 385C235.86 391 242.86 406 246.86 420C255.08 433.69 270.79 447.39 287.92 447.39C289.56 447.39 291.20 447.26 292.86 447C301.86 447 308.86 442 312.86 434C315.86 429 315.86 423 314.86 418C314.86 415 312.86 409 312.86 409C301.86 385 279.86 366 256.86 353C239.86 343 220.86 336 200.86 334C201.86 320 201.86 308 202.86 297C204.86 274 208.86 258 212.86 248C217.93 235.97 220.59 224.74 220.59 214.56C220.59 208.67 219.69 203.13 217.86 198C213.86 186 204.86 180 190.86 180"/>
</svg>