<svg xmlns="http://www.w3.org/2000/svg" viewBox="0 0 529 1204">
  <path d="M309 180C288 181 266 185 246 195C226 205 209 218 194 234C179 250 168 268 161 288C154 305 151 323 151 342L151 349C152 370 158 391 169 411C174 420 179 429 183 438C187 447 190 456 193 465L148 459C133 457 118 456 103 454C87 452 75 451 64 451C44 451 32 454 30 461C30 470 35 477 44 481C52 484 62 484 73 481C78 480 87 480 100 480C113 480 130 482 152 484C167 486 182 487 199 489C202 505 205 519 206 534L206 554C206 562 207 569 206 576C205 589 203 602 201 614C199 626 195 636 192 646C185 670 177 689 165 709C186 697 202 682 215 662C221 653 226 643 231 632C236 621 239 609 241 595C242 586 243 576 243 566L243 548C242 531 238 513 232 493C245 495 260 495 274 497C288 499 303 501 318 503C340 506 356 507 366 507C371 507 375 507 377 506C384 504 388 501 390 497C391 495 390 492 390 488C390 484 389 482 388 479C387 476 385 474 383 472C381 470 377 469 373 468C369 466 365 465 360 466C355 467 351 469 348 471C345 473 343 475 341 476C339 477 336 478 331 479L326 479C320 479 311 478 299 477C269 474 228 470 225 469C223 462 222 464 220 457C211 433 204 413 200 394C197 378 196 363 196 350L196 344C197 330 198 317 202 306C206 295 211 287 216 279C236 252 276 233 310 230L320 230C330 230 340 231 349 233C361 236 371 241 381 248C391 255 398 263 403 272C405 278 406 282 407 286C408 290 408 293 408 296C408 299 407 301 407 304C407 307 407 310 408 313C409 319 412 326 415 332C418 338 423 345 429 350C433 353 438 355 442 356C452 356 464 354 470 345C472 342 474 337 475 333C476 329 476 325 476 320C476 315 475 310 474 306C472 296 467 285 462 273C452 253 440 235 424 221C408 207 390 196 370 189C352 183 334 180 315 180M134 709C125 710 115 711 104 714C93 717 83 723 74 732C86 727 100 724 117 724C131 724 149 726 171 731C191 735 260 765 364 789C379 792 393 794 405 794C417 794 426 793 434 790C439 789 445 788 451 786C457 784 463 783 468 781L480 775C484 773 488 769 491 766C494 763 496 760 498 756C500 752 500 749 499 745C497 736 494 729 491 726C488 723 483 721 478 719C471 717 464 717 457 718C450 719 443 721 437 723C434 724 431 725 429 727C427 729 425 730 423 732C421 734 417 735 414 737C411 739 406 740 400 742C394 744 385 745 373 745L359 745C351 745 341 744 329 743C317 742 304 740 288 737C272 734 253 731 233 727C201 722 170 708 138 708C137 708 135 709 134 709"/>
</svg>