<svg xmlns="http://www.w3.org/2000/svg" viewBox="0 0 444 1204">
  <path d="M389.31 333C382.31 333 375.31 335 368.31 339C359.31 344 353.31 356 350.31 366C348.31 372 347.31 378 347.31 385C347.31 388 347.31 390 346.31 393C342.31 408 334.31 418 317.31 438C309.31 432 299.31 426 290.31 422C272.31 413 253.31 408 232.31 406L216.31 406C200.31 406 185.31 410 170.31 415C154.31 421 140.31 428 127.31 438C123.31 434 119.31 430 116.31 426C106.31 415 97.31 400 96.31 385C96.31 370 93.31 357 83.31 346C80.10 342.15 71.14 333.37 59.84 333.37C53.52 333.37 46.48 336.11 39.31 344C34.68 349.29 30.05 354.15 30.05 364.35C30.05 369.57 31.26 376.20 34.31 385C39.31 397 59.31 421 94.31 459L99.31 464C91.31 474 85.31 484 80.31 495C71.31 513 66.31 533 64.31 554C63.96 557.66 63.80 561.29 63.80 564.90C63.80 582 67.53 598.66 73.31 616C78.31 631 86.31 645 96.31 658C98.31 661 101.31 664 104.31 667L95.31 676C51.55 721.51 30 754.77 30 775.10C30 778 30.44 780.63 31.31 783C37.50 790.43 44.08 794.03 51.04 794.03C55.32 794.03 59.74 792.67 64.31 790C70.31 787 74.31 782 79.31 776C84.31 770 88.31 762 92.31 753C97.31 741 111.31 721 134.31 693C147.31 702 160.31 709 175.31 714C191.31 719 207.31 721 215.31 721L226.31 721C231.31 721 236.31 722 240.31 721C251.31 720 262.31 717 274.31 713C287.31 708 300.31 702 311.31 694C333.31 721 347.31 741 352.31 753C356.31 762 359.31 770 364.31 776C369.31 782 374.31 787 380.31 790C384.88 792.67 389.16 794.03 393.26 794.03C399.93 794.03 406.12 790.43 412.31 783C413.18 780.63 413.62 778 413.62 775.10C413.62 754.77 392.07 721.51 348.31 676C345.31 673 344.31 671 341.31 668C350.31 657 358.31 646 364.31 633C373.31 615 378.31 595 379.31 574C379.47 570.68 379.55 567.38 379.55 564.09C379.55 546.64 377.20 529.68 371.31 512C365.31 494 355.31 478 344.31 464C346.31 462 348.31 461 350.31 459C385.31 421 404.31 397 409.31 385C411.96 378.63 414.33 369.17 414.33 360.20C414.33 352.26 412.48 344.70 407.31 340C402.31 336 396.31 333 389.31 333M218.31 456L229.31 456C291.74 460.88 330.38 514.29 330.38 566.10C330.38 567.40 330.36 568.70 330.31 570C330.31 584 327.31 596 323.31 607C319.31 617 314.31 626 308.31 634L305.31 637C305.31 638 291.31 653 278.31 656C272.10 657.55 267.32 658.07 263.31 658.07C255.17 658.07 250.20 655.93 242.94 655.93C237.66 655.93 231.15 657.06 221.31 661C203.78 668.17 195.77 676.61 195.77 691.38C195.77 695.15 196.29 699.33 197.31 704C198.31 708 200.31 711 203.31 713C205.31 715 208.31 717 211.31 718C210.31 718 209.31 717 208.31 717C203.31 716 197.31 714 192.31 712C162.31 701 148.31 691 134.31 672C111.68 640.60 102.33 609.83 102.33 581.82C102.33 510.80 162.38 457.43 218.31 456"/>
</svg>