<svg xmlns="http://www.w3.org/2000/svg" viewBox="0 0 474 1204">
  <path d="M99 180C88 180 79 188 72 203C69 210 67 217 67 224C67 231 67 238 68 244C69 250 72 255 75 261C78 267 82 271 85 276C88 280 93 286 99 294C105 302 113 311 121 321C129 331 138 340 147 351C156 362 166 372 175 383C184 394 193 403 201 413L201 414C165 414 131 413 116 413C98 413 83 413 72 414C61 415 53 417 49 420C45 423 41 427 38 431C35 435 33 438 32 442C30 446 30 450 30 454C30 458 30 463 31 468C33 478 39 484 47 488C52 490 57 491 61 492C65 493 70 492 75 490C80 488 85 487 90 484C95 481 100 477 105 472C111 467 122 464 137 462C149.25 460.37 166.16 458.73 186.11 458.73C190.59 458.73 195.23 458.82 200 459L225 459L225 515C182 515 134 514 116 514C98 514 83 514 72 515C61 516 53 518 49 521C45 524 41 527 38 531C35 535 33 539 32 543C30 547 30 551 30 555C30 559 30 564 31 569C33 579 39 584 47 588C52 590 57 592 61 593C65 594 70 593 75 591C80 589 85 588 90 585C95 582 100 578 105 573C111 568 122 565 137 563C149.25 561.37 166.16 559.73 186.11 559.73C190.59 559.73 195.23 559.82 200 560L226 560L226 569C227 601 227 630 227 657C227 667 227 676 225 683C223 690 221 695 218 700C215 705 211 709 208 712C205 715 202 718 199 722C196 726 194 730 192 734C190 738 190 744 190 751C191 769 196 782 205 789C209.50 792.50 214.50 794.25 220.25 794.25C226 794.25 232.50 792.50 240 789C247 786 253 781 258 776C263 771 266 766 269 760C272 754 275 748 276 742C277 736 278 730 278 724C278 719 279 711 279 701L279 667C279 654 278 640 278 626L278 584C278 576 277 569 277 561C302 561 328 562 353 563C357.22 563.16 361.28 563.25 365.18 563.25C385.33 563.25 401.27 561.03 413 556C427 550 435 543 438 532C438.12 529.69 438.18 527.49 438.18 525.39C438.18 510.19 434.91 500.39 427 496C424 494 420 492 416 492C409 492 401 495 393 501C380 510 350 514 302 515L276 515L276 460C301 460 327 461 353 462C357.22 462.16 361.28 462.25 365.18 462.25C385.33 462.25 401.27 460.03 413 455C427 449 435 442 438 431C438.12 428.69 438.18 426.49 438.18 424.39C438.18 409.19 434.91 399.39 427 395C424 393 420 392 416 392C409 392 401 394 393 400C380 409 350 414 302 415L294 415C302 401 309 387 315 377C330 349 344 324 357 300C362 291 367 284 372 279C377 274 382 271 387 268C392 265 396 263 401 262C406 261 410 260 414 258C418 256 422 254 426 251C430 248 434 244 437 238C442.02 227.96 444.29 218.70 444.29 210.73C444.29 206 443.49 201.72 442 198C438 188 429 181 412 180C404 179 397 180 390 182C383 184 377 188 372 191C367 194 361 198 357 203C353 208 350 212 347 217C344 222 340 228 335 237C330 246 324 255 318 266C312 277 305 289 298 301C291 313 284 326 277 338C270 350 264 362 258 373C255 378 251 384 248 390C240 381 233 372 224 361C203 337 184 315 166 295C159 287 155 279 152 273C149 267 147 261 146 256C145 251 146 246 146 241L146 227C146 223 145 217 144 213C143 209 140 204 135 199C122 186 110 180 99 180"/>
</svg>