<svg xmlns="http://www.w3.org/2000/svg" viewBox="0 0 162 1204">
  <path d="M69 180C67 179.90 65.09 179.85 63.27 179.85C46.86 179.85 37.50 183.90 33 192C31 195 30 199 30 203C30 210 32 217 38 225C47 238 52 268 53 316L53 343C53 363 52 364 52 391C52 427 51 462 51 476C51 494 52 510 53 521C54 532 56 539 59 543C62 547 65 551 69 554C73 557 77 559 81 560C85 562 89 563 93 563C97 563 102 562 107 561C117 559 123 553 127 545C130 540 131 535 132 531C133 527 132 522 130 517C128 512 126 507 123 502C120 497 117 492 112 487C107 481 104 470 101 455C98.75 443.75 97.63 428.56 97.63 410.70C97.63 404.75 97.75 398.50 98 392C98 389 99 350 99 342C99 317 100 291 101 265C102 239 100 220 94 206C88 192 80 183 69 180M69 616C67 615.90 65.09 615.85 63.27 615.85C46.86 615.85 37.50 619.90 33 628C31 631 30 635 30 639C30 646 32 653 38 661C47 674 52 705 53 753L53 779C53 799 52 800 52 827C52 863 51 898 51 912C51 930 52 946 53 957C54 968 56 976 59 980C62 984 65 987 69 990C73 993 77 995 81 996C85 998 89 999 93 999C97 999 102 999 107 998C117 996 123 990 127 982C130 977 131 971 132 967C133 963 132 958 130 953C128 948 126 943 123 938C120 933 117 928 112 923C107 917 104 906 101 891C98.75 879.75 97.63 865.13 97.63 847.55C97.63 841.69 97.75 835.50 98 829C98 826 99 786 99 778C99 753 100 728 101 702C101.16 697.78 101.25 693.72 101.25 689.82C101.25 669.67 99.03 653.73 94 642C88 628 80 619 69 616"/>
</svg>