<svg xmlns="http://www.w3.org/2000/svg" viewBox="0 0 401 1204">
  <path d="M193 180C190.41 179.88 187.83 179.81 185.25 179.81C166.84 179.81 148.54 182.98 131 190C127 191 123 194 118 196C113 198 107 201 101 204C95 207 90 212 84 216C78 220 73 225 69 230C63 238 59 246 55 256C51 266 49 276 47 287C45.83 293.44 45.34 299.89 45.34 306.13C45.34 310.54 45.59 314.86 46 319C47 329 49 338 52 346C58 359 68 371 83 383C98 395 115 406 134 418C131 419 126 420 118 422C110 424 101 427 91 432C81 437 72 443 62 451C52 459 45 469 39 481C33 493 30 508 30 525C30 542 34 561 44 584C54 602 65 618 79 633C93 648 107 661 122 673C137 685 152 697 168 707C184 717 199 727 214 736C229 745 242 753 255 761C268 769 279 776 287 783C294 789 298 795 301 802C304 809 304 817 304 824C304 831 303 838 301 845C299 852 296 857 293 861C290 865 286 869 281 873C276 877 272 880 268 882C263 885 257 888 251 890C237 896 224 898 210 898C196 898 184 896 172 892C160 888 151 882 142 875C133 868 126 859 122 850C120 844 119 840 119 836L119 827C119 824 121 821 121 819C121 817 121 813 120 810C119 804 118 798 115 791C112 784 108 779 103 773C99 769 95 767 91 766C87 765 80 765 71 768C67 769 64 772 62 775C60 778 57 782 56 786C55 790 55 794 55 799C55 804 55 808 56 812C57 822 60 833 64 846C72 866 83 884 98 899C113 914 129 926 148 934C167 942 187 947 208 948C210.12 948.10 212.24 948.15 214.36 948.15C233.23 948.15 252.02 944.19 270 937C273 936 278 933 283 931C288 929 294 926 300 923C306 920 311 916 317 912C323 908 328 903 332 898C338 890 342 881 346 871C350 861 353 851 354 840C354.71 832.22 355.41 824.44 355.41 817.02C355.41 813.94 355.29 810.93 355 808C354 798 352 789 349 781C343 768 333 756 318 744C303 732 286 721 267 709C270 708 275 707 283 705C291 703 300 700 310 695C320 690 329 684 339 676C349 668 357 658 363 646C369 634 371 619 371 602C371 585 367 566 357 543C347 525 335 509 322 494C309 479 294 466 279 454C264 442 249 430 233 420C217 410 202 400 187 391C172 382 158 374 146 366C134 358 123 351 114 344C107 338 103 332 100 325C97 318 97 310 97 303C97 296 98 289 100 282C102 275 105 270 108 266C111 262 115 258 120 254C125 250 129 248 133 245C138 242 144 239 150 237C164 231 177 229 191 229C205 229 217 231 229 235C241 239 250 245 259 252C268 259 275 268 279 277C281 283 282 287 282 291L282 300C282 303 282 306 281 308C280 310 280 314 281 317C282 323 283 329 286 336C289 343 293 348 298 354C302 358 307 360 311 361C315 362 322 361 330 359C334 358 337 356 339 353C341 350 344 345 345 341C346 337 347 333 347 329C347 325 347 320 346 316C345 311 343 305 342 299C341 293 339 287 337 281C329 261 318 243 303 228C288 213 272 201 253 193C234 185 214 181 193 180M135 418C151 427 167 437 184 447C201 457 217 467 233 478C249 489 263 499 276 511C289 523 300 536 308 550C319 569 325 587 328 602C329.65 610.26 330.39 617.91 330.39 625.12C330.39 631.01 329.90 636.61 329 642C327 654 322 663 316 671C310 679 304 687 297 692C290 697 284 701 278 704C272 707 269 708 267 709C251 700 234 690 217 680C200 670 184 661 168 650C152 639 138 628 125 616C112 604 101 591 93 577C82 558 76 541 73 526C71.35 517.74 70.61 510.09 70.61 502.88C70.61 496.99 71.10 491.39 72 486C74 474 79 464 85 456C91 448 97 441 104 436C111 431 117 427 123 424"/>
</svg>