<svg xmlns="http://www.w3.org/2000/svg" viewBox="0 0 294 1204">
  <path d="M70.75 180C66.75 180 62.75 180 59.75 181C55.75 182 52.75 184 49.75 186C48.75 188 45.75 189 43.75 191C41.75 193 39.75 196 36.75 199C33.75 203 31.75 208 30.75 213C29.75 218 29.75 224 30.75 229C33.75 240 37.75 249 41.75 256C45.75 263 50.75 268 55.75 272C60.75 276 64.75 279 69.75 280C74.75 281 79.75 282 84.75 282C95.75 281 106.75 277 118.75 269C123.75 264 126.75 260 128.75 254C130.75 249 131.75 243 131.75 237C131.75 231 129.75 224 124.75 216C124.75 215 123.75 213 121.75 210C119.75 207 117.75 204 114.75 200C111.75 196 107.75 192 102.75 189C97.75 186 91.75 184 85.75 182C80.75 180 74.75 180 70.75 180M203.75 180C199.75 180 195.75 180 192.75 181C188.75 182 185.75 184 182.75 186C181.75 188 179.75 189 177.75 191L169.75 199C166.75 203 164.75 208 163.75 213C162.75 218 162.75 224 163.75 229C166.75 240 170.75 249 174.75 256C178.75 263 183.75 268 188.75 272C193.75 276 197.75 279 202.75 280C207.75 281 212.75 282 217.75 282C228.75 281 239.75 277 251.75 269C256.75 264 259.75 260 261.75 254C263.75 249 264.75 243 264.75 237C264.75 231 263.75 224 258.75 216C258.75 215 257.75 213 255.75 210C253.75 207 250.75 204 247.75 200C244.75 196 240.75 192 235.75 189C230.75 186 224.75 184 218.75 182C213.75 180 207.75 180 203.75 180"/>
</svg>