<svg xmlns="http://www.w3.org/2000/svg" viewBox="0 0 654 1204">
  <path d="M305 180C293 181 280 182 267 185C242 190 219 199 196 210C173 221 152 234 133 250C114 266 99 284 86 302C70 325 57 349 48 375C39 401 33 427 31 454C30.33 463 30 472 30 480.96C30 498.89 31.33 516.67 34 534C38 560 45 586 55 610C65 634 80 657 96 678C112 699 132 719 154 736C176 752 199 766 224 775C249 784 274 791 299 793C307.33 793.67 315.78 794 324.26 794C341.22 794 358.33 792.67 375 790C400 786 425 778 448 767C471 756 494 742 514 725C534 708 553 687 569 664C585 640 598 616 607 589C616 562 622 535 624 508C624.63 499.45 624.97 490.90 624.97 482.35C624.97 463.90 623.42 445.45 620 427C615 400 607 375 596 350C586 327 573 305 557 285C541 265 523 248 502 232C478 214 453 200 428 191C407 185 389 182 373 181C366 180 360 181 353 181C346 181 340 182 335 184C330 186 325 190 322 194C319 198 317 203 317 210C317 217 317 223 319 228C321 233 322 238 325 242C328 246 331 250 334 253C337 256 340 259 344 261C352 266 362 270 372 273C380 275 387 275 394 274C401 273 408 272 414 270C420 268 426 268 432 267C438 266 445 266 452 268C458 271 463 274 469 277C474 280 480 283 486 287C492 291 496 295 501 300C508 307 517 315 525 324C533 333 541 344 548 355C555 366 562 379 568 393C574 407 577 423 580 440C582.29 455.57 583.53 471.36 583.53 487.16C583.53 505.85 581.79 524.57 578 543C571 577 556 609 535 639C514 669 490 694 461 712C432 730 401 742 369 747C355.67 749.08 342.16 750.13 328.55 750.13C309.50 750.13 290.25 748.08 271 744C238 737 207 723 178 701C149 679 125 653 108 623C91 593 79 561 74 527C71.92 512.83 70.88 498.49 70.88 484.12C70.88 464.01 72.92 443.83 77 424C84 390 98 357 119 327C129 313 140 301 151 289C162 277 174 266 186 257C198 248 210 239 223 232C236 225 247 218 259 212C286 199 314 189 342 181C333.51 180.29 324.53 179.59 315.75 179.59C312.12 179.59 308.51 179.71 305 180M329 333C300 335 271 344 248 361C208.12 389.48 184.14 437.84 184.14 486.66C184.14 497.83 185.39 509.02 188 520C191 531 194 543 200 553C212 573 223 592 244 608C265 624 296 638 325 640C328.24 640.22 331.55 640.33 334.90 640.33C361.52 640.33 391.02 633.32 415 620C423 615 437 605 446 596C462 579 470 560 470 560C470 560 452 575 431 588C417 596 403 604 391 606C378.16 608.43 364.35 609.90 350.46 609.90C324.33 609.90 297.89 604.71 277 591C248 571 227 534 225 499C224.87 496.74 224.81 494.46 224.81 492.17C224.81 457.93 238.76 420.62 265 400C284.25 385.24 310.49 377.07 336.08 377.07C350.37 377.07 364.46 379.62 377 385C390 391 398 406 402 420C410.22 433.69 425.10 447.39 442.08 447.39C443.70 447.39 445.34 447.26 447 447C456 447 464 442 468 434C471 429 471 423 470 418C470 415 467 409 467 409C456 385 435 366 412 353C389.55 340.43 363.88 332.70 337.88 332.70C334.92 332.70 331.96 332.80 329 333"/>
</svg>