<svg xmlns="http://www.w3.org/2000/svg" viewBox="0 0 300 1204">
  <path d="M126.51 180C118.51 180 110.51 182 102.51 184C63.51 196 34.51 232 30.51 272C30.17 275.31 30 278.62 30 281.93C30 317.64 49.39 352.70 80.51 371C93.55 378.83 109.62 384.39 125.43 384.39C127.80 384.39 130.16 384.26 132.51 384C132.51 384 136.51 384 138.51 383C140.51 382 142.51 380 143.51 379C147.51 374 150.51 366 147.51 360C142.51 348 128.51 342 116.51 342C107.51 344 95.51 346 87.51 340C70.09 326.94 58.74 301.74 58.74 278.94C58.74 275.56 58.99 272.23 59.51 269C63.51 246 82.51 223 104.51 214C113.51 210 123.51 209 133.51 209C150.51 209 166.51 215 180.51 223C193.51 231 204.51 245 210.51 260C210.51 274 208.51 300 208.51 300C208.51 300 208.51 317 206.51 321C204.51 325 202.51 329 198.51 331C191.51 336 186.51 340 185.51 345C184.51 349 183.51 354 183.51 359C183.51 363 184.51 367 185.51 370C186.51 373 188.51 374 190.51 377C192.51 379 194.51 380 196.51 381C198.51 382 200.51 384 202.51 384C209.51 385 215.51 384 222.51 383C229.51 382 234.51 379 239.51 375C243.67 371.67 245.76 363.47 245.76 349.84C245.76 347.11 245.67 344.17 245.51 341L245.51 301L245.51 259C245.51 259 246.51 246 248.51 242C250.51 238 253.51 235 256.51 233C260.51 231 262.51 228 264.51 226C266.51 224 267.51 222 268.51 219C269.51 216 270.51 214 270.51 211L270.51 203C270.51 197 268.51 191 264.51 187C260.51 183 256.51 181 252.51 180C249.51 179 245.51 180 242.51 180C239.51 180 235.51 180 231.51 181C225.51 182 220.51 184 215.51 189C211.51 192 209.51 200 209.51 211C198.51 201 185.51 192 173.51 187C157.51 180 142.51 180 126.51 180"/>
</svg>