<svg xmlns="http://www.w3.org/2000/svg" viewBox="0 0 680 1204">
  <path d="M453.39 384C441.39 389 429.39 395 414.39 401C399.39 407 384.39 413 368.39 419C352.39 425 334.39 433 317.39 440C300.39 447 282.39 455 264.39 463C249.39 470 233.39 479 218.39 488C203.39 497 188.39 506 173.39 514C158.39 522 144.39 530 131.39 537C118.39 544 105.39 550 94.39 554C85.39 551 75.39 550 67.39 552C59.39 554 52.39 558 46.39 564C40.39 570 35.39 576 32.39 584C29.39 592 29.39 599 31.39 606C33.39 613 37.39 618 44.39 623C51.39 628 60.39 629 74.39 629C81.39 628 88.39 627 94.39 625C105.39 629 118.39 634 131.39 641C144.39 648 158.39 655 173.39 664C188.39 673 203.39 681 218.39 690C233.39 699 249.39 708 264.39 715C282.39 724 300.39 732 317.39 739C334.39 746 352.39 754 368.39 760C384.39 766 399.39 771 414.39 777C429.39 783 441.39 789 453.39 794C405.39 756 357.39 719 308.39 685C259.39 651 208.39 619 154.39 589C208.39 559 259.39 527 308.39 493C357.39 459 405.39 422 453.39 384M650.39 384C638.39 389 626.39 395 611.39 401C596.39 407 581.39 413 565.39 419C549.39 425 531.39 433 514.39 440C497.39 447 479.39 455 461.39 463C446.39 470 430.39 479 415.39 488C400.39 497 385.39 506 370.39 514C355.39 522 341.39 530 328.39 537C315.39 544 302.39 550 291.39 554C282.39 551 272.39 550 264.39 552C256.39 554 249.39 558 243.39 564C237.39 570 232.39 576 229.39 584C226.39 592 226.39 599 228.39 606C230.39 613 234.39 618 241.39 623C248.39 628 257.39 629 271.39 629C278.39 628 285.39 627 291.39 625C302.39 629 315.39 634 328.39 641C341.39 648 355.39 655 370.39 664C385.39 673 400.39 681 415.39 690C430.39 699 446.39 708 461.39 715C479.39 724 497.39 732 514.39 739C531.39 746 549.39 754 565.39 760C581.39 766 596.39 771 611.39 777C626.39 783 638.39 789 650.39 794C602.39 756 554.39 719 505.39 685C456.39 651 405.39 619 351.39 589C405.39 559 456.39 527 505.39 493C554.39 459 602.39 422 650.39 384"/>
</svg>