<svg xmlns="http://www.w3.org/2000/svg" viewBox="0 0 403 1204">
  <path d="M312.34 436L290.34 436L239.34 436L113.34 436C108.04 435.85 103.32 435.77 99.04 435.77C75.08 435.77 65.31 438.36 48.34 446C42.34 449 34.34 455 32.34 461C28.34 471 29.34 484 36.34 492C40.34 496 44.34 500 50.34 502C59.34 506 71.34 506 81.34 506C99.34 506 116.34 491 132.34 489C161.04 485.49 183.57 484.03 203.14 484.03C216.97 484.03 229.33 484.76 241.34 486C250.34 487 259.34 488 271.34 489C282.34 490 288.34 500 297.34 503C296.78 508.33 296.45 513.83 296.45 519.32C296.45 533.40 298.59 547.49 304.34 559C316.34 583 371.34 610 371.34 610C371.34 610 346.34 566 344.34 542C343.34 529 347.34 517 351.34 506C352.34 504 353.34 503 354.34 501C359.34 499 364.34 496 367.34 492C373.34 483 375.34 471 371.34 461C369.34 455 361.34 449 355.34 446C340.34 439 331.34 437 312.34 436"/>
</svg>