<svg xmlns="http://www.w3.org/2000/svg" viewBox="0 0 377 1204">
  <path d="M324 436C317 436 310 438 302 444C289 453 258 458 200 458C142 458 125 457 116 457C98 457 83 458 72 459C61 460 53 462 49 465C45 468 41 471 38 475C35 479 33 483 32 487C30 491 30 495 30 499C30 503 30 508 31 513C33 523 39 529 47 533C52 536 57 537 61 538C65 539 71 538 76 536C81 534 85 532 90 529C95 526 101 523 106 518C112 513 123 510 138 507C146 506 154 505 182 505C210 505 236 506 262 507C266.22 507.16 270.25 507.25 274.11 507.25C294.03 507.25 309.27 505.03 321 500C335 494 344 486 347 475C348 455 344 444 335 439C332 437 328 436 324 436"/>
</svg>