<svg xmlns="http://www.w3.org/2000/svg" viewBox="0 0 654 1204">
  <path d="M305 180C293 181 280 182 267 185C242 190 219 199 196 210C173 221 152 234 133 250C114 266 99 284 86 302C70 325 57 349 48 375C39 401 33 427 31 454C30.33 463 30 472 30 480.96C30 498.89 31.33 516.67 34 534C38 560 45 586 55 610C65 634 80 657 96 678C112 699 132 719 154 736C176 752 199 766 224 775C249 784 274 791 299 793C307.33 793.67 315.78 794 324.26 794C341.22 794 358.33 792.67 375 790C400 786 425 778 448 767C471 756 494 742 514 725C534 708 553 687 569 664C585 640 598 616 607 589C616 562 622 535 624 508C624.63 499.45 624.97 490.90 624.97 482.35C624.97 463.90 623.42 445.45 620 427C615 400 607 375 596 350C586 327 573 305 557 285C541 265 523 248 502 232C478 214 453 200 428 191C407 185 389 182 373 181C366 180 360 181 353 181C346 181 340 182 335 184C330 186 325 190 322 194C319 198 317 203 317 210C317 217 317 223 319 228C321 233 322 238 325 242C328 246 331 250 334 253C337 256 340 259 344 261C352 266 362 270 372 273C380 275 387 275 394 274C401 273 408 272 414 270C420 268 426 268 432 267C438 266 445 266 452 268C458 271 463 274 469 277C474 280 480 283 486 287C492 291 496 295 501 300C508 307 517 315 525 324C533 333 541 344 548 355C555 366 562 379 568 393C574 407 577 423 580 440C582.29 455.57 583.53 471.36 583.53 487.16C583.53 505.85 581.79 524.57 578 543C571 577 556 609 535 639C514 669 490 694 461 712C432 730 401 742 369 747C355.67 749.08 342.16 750.13 328.55 750.13C309.50 750.13 290.25 748.08 271 744C238 737 207 723 178 701C149 679 125 653 108 623C91 593 79 561 74 527C71.92 512.83 70.88 498.49 70.88 484.12C70.88 464.01 72.92 443.83 77 424C84 390 98 357 119 327C129 313 140 301 151 289C162 277 174 266 186 257C198 248 210 239 223 232C236 225 247 218 259 212C286 199 314 189 342 181C333.51 180.29 324.53 179.59 315.75 179.59C312.12 179.59 308.51 179.71 305 180M259 302C258 302 257 303 256 303C243.93 308.57 237.89 330.53 237.89 370.46C237.89 373.54 237.93 376.71 238 380C239 426 239 473 239 519C239 566 237 594 232 603C227 613 223 621 221 630C220 639 220 647 223 655C225 663 230 668 235 670C240 672 244 671 249 669C254 666 258 661 261 654C264 646 266 627 266 594C266 561 265 531 265 503L265 426C265 404 266 387 267 373C268 359 270 349 273 343C273 342 274 342 274 341C278 339 283 336 287 335C296 332 304 332 313 332C322 332 330 334 338 337C346 340 352 345 358 351C364 357 368 363 371 371C374 379 375 387 375 396C375 405 374 413 371 420C368 427 364 434 359 439C354 444 350 449 344 452C341 454 337 454 334 455C333 454 331 453 330 452C320.56 445.70 309.25 438.17 297.56 438.17C294.39 438.17 291.20 438.72 288 440C280 442 277 447 274 452C272 456 271 463 271 467C271 469 272 471 273 473C274 475 275 477 277 478C279 479 282 481 284 482C286 483 288 483 291 484C297 486 303 487 311 487C315 487 319 486 323 486C324 486 324 488 325 488C337 504 352 517 364 533C375 549 385 566 394 583C409 611 434 671 434 671C434 671 421 605 410 574C404 556 394 540 385 524C376 508 366 491 354 477C362 473 370 468 377 461C385 453 392 443 397 432C402 421 404 409 404 396C404 383 403 371 398 360C393 349 387 338 379 330C371 322 361 315 350 310C339 305 327 302 314 302C301 302 289 304 278 309C277 309 276 311 275 311C272 306 266 302 259 302"/>
</svg>