<svg xmlns="http://www.w3.org/2000/svg" viewBox="0 0 476 1204">
  <path d="M422 180C415 180 408 182 400 188C387 197 356 202 307 203C291 203 151 202 118 201C99 201 83 202 72 203C61 204 53 206 49 209C45 212 41 215 38 219C35 223 34 227 33 231C31 235 30 239 30 243C30 247 30 252 31 257C33 267 39 273 47 277C52 280 57 281 62 282C67 283 71 282 76 280C81 278 86 276 91 273C96 270 102 267 107 262C113 257 123 254 139 251C151 248.75 166.38 247.63 184.28 247.63C190.25 247.63 196.50 247.75 203 248C206 248 273 249 281 249C307 249 333 250 359 251C363.22 251.16 367.28 251.25 371.18 251.25C391.33 251.25 407.27 249.03 419 244C433 238 443 230 446 219C447 199 443 188 434 183C431 181 426 180 422 180"/>
</svg>