<svg xmlns="http://www.w3.org/2000/svg" viewBox="0 0 162 1204">
  <path d="M79 180C74 180 70 180 65 182C58 184 52 188 47 193C42 198 38 202 35 208C32 214 30 220 30 227C30 234 31 241 33 248C35 255 38 260 43 265C48 270 53 274 59 277C65 280 71 281 78 282C85 283 91 281 98 279C103 277 108 275 112 272C116 269 120 264 123 260C126 256 128 251 130 246C132 241 132 235 132 230L132 232L132 229L132 225C132 222 130 218 129 214C127 207 124 201 119 196C114 191 109 188 103 185C97 182 91 180 84 180M83 196C87 196 91 197 95 198C99 199 102 202 105 204C108 206 110 209 111 212C112 214 112 215 112 216L112 219C112 220 111 221 111 222L111 225C111 227 112 229 113 231L116 237C117 238 119 239 120 239C121 239 124 240 127 239C128 239 129 238 130 237C131 236 131 235 131 234C130 236 130 238 129 240C128 243 126 247 124 250C122 253 119 256 116 259C114 261 113 262 111 263L105 266L99 269C97 270 94 270 91 271C87 272 82 272 78 271C74 270 69 268 65 265C61 262 58 259 55 255C52 251 50 247 48 242C46 237 46 233 46 228C46 223 48 220 50 216C52 212 55 208 58 205C61 202 65 200 70 198C75 196 79 196 83 196"/>
</svg>