<svg xmlns="http://www.w3.org/2000/svg" viewBox="0 0 469 1204">
  <path d="M222 282C220.48 281.92 219 281.87 217.56 281.87C202.02 281.87 191.58 286.76 187 295C185.21 298.21 184.32 301.56 184.32 305.12C184.32 311.53 187.21 318.64 193 327C202 341 206 372 206 419C207 432 208 446 208 460C180 460 149 459 116 458C98 458 83 459 72 460C61 461 53 463 49 466C45 469 41 472 38 476C35 480 33 484 32 488C30 492 30 496 30 500C30 504 30 508 31 513C33 523 39 529 47 533C52 535 57 537 61 538C65 539 71 538 76 536C81 534 85 532 90 529C95 526 100 523 105 518C111 513 122 509 137 507C149.25 505.37 166.16 503.73 186.11 503.73C190.59 503.73 195.23 503.82 200 504C203 504 205 505 208 505C208 536 207 570 206 607C205.73 611.82 205.61 616.50 205.61 620.98C205.61 633.22 206.54 643.95 208 652C210 663 211 670 214 674C217 678 220 682 223 685C226 688 231 690 235 691C242 693 250 694 260 692C269 690 276 685 281 676C283 671 284 666 284 662C284 658 285 653 283 648C282 643 280 638 277 633C274 628 270 622 265 617C256 606 252 574 252 522L252 505C260 505 269 506 277 506C302 506 328 507 354 508C358.22 508.16 362.25 508.25 366.11 508.25C386.03 508.25 401.27 506.03 413 501C427 495 436 487 439 476C439.10 474.10 439.15 472.27 439.15 470.51C439.15 454.67 435.10 444.50 427 440C423.81 437.87 420.37 436.88 416.68 436.88C409.96 436.88 402.39 440.19 394 446C381 455 351 459 303 460L252 460C252 455 253 450 253 445C254 419 254 394 255 368C257 317 245 289 222 282M416 693C409 693 402 696 394 702C381 711 351 715 303 716C287 716 149 715 116 714C98 714 83 715 72 716C61 717 53 719 49 722C45 725 41 728 38 732C35 736 33 740 32 744C30 748 30 752 30 756C30 760 30 764 31 769C33 779 39 785 47 789C52 791 57 793 61 794C65 795 71 794 76 792C81 790 85 788 90 785C95 782 100 779 105 774C111 769 122 765 137 763C147.98 761.54 162.71 760.61 180.02 760.61C186.35 760.61 193.03 760.73 200 761C203 761 269 762 277 762C302 762 328 763 354 764C358.22 764.16 362.25 764.25 366.11 764.25C386.03 764.25 401.27 762.03 413 757C427 751 436 743 439 732C439.10 730.10 439.15 728.27 439.15 726.51C439.15 710.67 435.10 700.50 427 696C424 694 420 693 416 693"/>
</svg>