<svg xmlns="http://www.w3.org/2000/svg" viewBox="0 0 183 1204">
  <path d="M86 180C79 180 74 181 68 183C62 185 56 189 52 193C48 197 45 202 42 207C39 212 38 218 38 224C40 218 43 213 47 209L53 203C55 201 58 200 61 199C64 198 68 196 72 195C76 194 81 194 86 194C91 194 95 194 99 196C103 198 107 200 110 203C113 206 115 208 117 212C119 216 119 220 119 224C119 228 118 232 116 237C114 242 110 248 106 254C102 260 98 266 93 273C88 280 83 285 78 292C73 299 68 306 63 312C58 318 53 324 49 330C45 336 41 340 38 345C35 350 33 354 32 357C30 363 30 368 30 371C30 374 31 377 32 379C33 381 35 382 37 383C39 384 40 384 42 384L47 384L58 384L73 384L89 384L106 384L122 384C127 384 131 383 134 383C137 383 140 382 141 382C143 382 145 381 147 380C149 379 150 378 151 377C152 376 152 374 152 373C152 372 153 371 153 370C153 369 152 368 151 366C150 364 149 362 148 361C147 360 145 359 143 358C141 357 140 356 138 356C134 355 131 355 128 355C125 355 123 355 121 356C119 357 117 358 116 360C115 362 113 363 112 365C111 367 109 369 106 370C103 371 100 372 96 373C92 374 89 373 85 373L73 373L63 373C60 373 58 372 56 372C53 372 50 371 49 370C48 369 48 367 48 364C48 361 49 358 50 355C51 352 53 349 55 345C56 343 58 340 60 336C62 332 66 329 69 324C72 319 76 314 80 309C84 304 89 298 93 293C102 281 112 267 124 253L127 248C129 245 132 241 133 237C134 233 135 228 135 224C135 218 134 212 131 207C128 202 125 197 121 193C117 189 111 185 105 183C99 181 93 180 86 180"/>
</svg>