<svg xmlns="http://www.w3.org/2000/svg" viewBox="0 0 162 1204">
  <path d="M79 180C76 180 72 180 69 181C66 182 62 182 59 183C56 184 52 186 49 188C46 190 43 192 40 195C37 198 35 201 34 205C33 209 32 214 32 219C33 215 35 211 39 208C40 207 43 205 45 204C47 203 50 202 53 201C56 200 60 199 64 198C68 197 73 197 79 197C85 197 90 199 95 201C100 203 104 206 107 210C110 214 112 218 113 223C114 228 114 232 114 236C114 241 113 246 111 250C109 254 108 259 105 262C102 265 99 268 95 270C91 272 88 273 84 273L81 273L78 273C76 272 75 272 74 271C73 270 72 269 70 269C68 268 65 268 62 268C59 268 57 269 55 270C54 271 53 272 52 272C51 272 52 272 51 273C50 274 50 275 50 276C50 277 49 278 49 280C49 282 49 283 50 284L53 287C54 288 55 288 57 289C59 290 60 290 62 290C66 291 69 292 74 292L79 292C80 292 82 291 83 291C87 292 91 294 95 296C99 298 102 301 105 304C108 307 110 311 112 315C114 319 114 323 114 328C114 334 113 339 111 343C109 347 108 351 105 354C102 357 99 358 95 360C91 362 88 363 84 364C80 365 76 365 73 365C70 365 67 366 65 366C63 366 60 365 59 365C58 365 57 364 56 364C55 364 54 363 53 363C52 363 52 362 51 362C49 361 46 361 43 361C40 361 38 362 36 363C35 364 34 363 33 364C32 365 33 365 32 366C31 367 30 368 30 369L30 372C30 374 30 375 31 376L34 379C35 380 36 381 38 382C40 383 41 383 43 383C47 384 50 384 55 384C60 384 66 384 72 383C78 382 83 381 89 379C95 377 100 375 105 372C110 369 115 365 119 361C123 357 126 352 128 347C130 342 132 335 132 328C132 318 130 310 125 302C120 294 115 287 107 282C115 277 120 270 125 262C130 254 132 246 132 236C132 229 132 223 129 216C126 209 123 203 118 198C113 193 108 188 101 185C94 182 87 180 79 180"/>
</svg>