<svg xmlns="http://www.w3.org/2000/svg" viewBox="0 0 188 1204">
  <path d="M133 180C129 180 123 184 114 193L105 202C102 205 100 208 97 211C90 218 76 230 76 230C76 230 68 239 65 240C62 241 59 241 56 240C50 239 46 239 43 241C40 243 37 245 34 248C32 250 32 251 31 253C30 255 30 257 30 259C30 261 30 262 31 264C32 266 32 267 33 268C36 272 39 275 43 278C47 281 51 282 55 282C59 282 65 277 74 268C81 261 94 249 94 249L114 228C114 228 121 223 124 222C127 221 129 220 132 221C135 222 138 222 140 222C142 222 143 221 145 220C147 219 149 218 150 217L154 213C157 210 158 207 158 203C158 199 158 195 156 193C155 191 153 190 151 188C149 186 148 185 146 184C142 181 138 180 133 180"/>
</svg>