<svg xmlns="http://www.w3.org/2000/svg" viewBox="0 0 456 1204">
  <path d="M66 333C49 333 38 341 33 357C31 363 30 371 30 378C30 391 33 406 39 423C45 438 48 466 51 508C51 512 52 520 52 532L52 574C52 582 53 590 53 599C53 608 52 617 52 626L52 681L52 734C52 751 51 766 51 778L51 806C51 815 50 824 51 832C54 899 66 937 87 947C90 947 92 948 94 948C111 948 122 939 127 923C129 916 130 910 130 902C130 889 127 874 121 858C115 842 111 814 108 773L108 749C108 737 107 723 107 707L107 682L107 655C107 636 108 618 108 599L108 546C108 529 109 515 109 503L109 475C109 466 109 457 108 449C105 382 94 344 74 334C71 334 68 333 66 333M362 338C345 338 334 346 329 362C327 369 326 375 326 383C326 396 329 411 335 427C341 443 345 471 348 512C349 523 349 538 349 557L349 567C349 590 348 620 347 656L347 684C347 693 347 702 348 710C351 777 363 815 383 825C386 825 388 826 390 826C407 826 419 818 424 802C426 796 426 788 426 781C426 768 423 752 417 736C414 728 412 718 410 704C408 690 406 672 405 651C404 640 404 625 404 606L404 597C404 574 404 544 405 508C405 498 406 488 406 479C406 470 406 461 405 453C402 386 390 347 370 338M113 609C109 625 108 641 108 656L108 668C109 687 113 704 120 720C127 736 136 750 147 762C158 774 171 783 187 789C200 794 214 798 227 798C230 798 231 797 234 797C250 796 265 791 279 783C293 775 304 765 315 751C326 737 334 721 340 703C343 692 344 682 345 672L345 660C345 656 345 653 344 649C343 645 342 642 340 639C338 636 336 635 333 634C326 632 321 631 318 632C315 633 312 636 309 639C305 644 302 649 300 655C298 661 296 666 296 672C296 675 297 678 297 680C297 682 298 684 298 687L298 696C298 699 297 703 296 708C293 716 289 725 283 732C277 739 271 744 263 749C255 754 247 758 237 759C227 760 217 759 206 756C197 753 186 749 175 742C164 735 155 726 146 714C137 702 129 688 123 671C117 654 113 633 113 609"/>
</svg>