<svg xmlns="http://www.w3.org/2000/svg" viewBox="0 0 300 1204">
  <path d="M245 180C239 180 234 182 230 187C214 182 197 180 180 180C159 180 140 185 121 193C102 201 86 212 72 226C58 240 49 257 41 276C33 295 30 315 30 336C30 357 34 377 42 395C50 413 62 429 76 443C90 457 106 468 125 476C144 484 163 487 184 487C194 487 203 486 211 484L211 540C211.10 547.80 211.15 555.28 211.15 562.44C211.15 626.90 207.10 665.60 199 680C190 696 184 711 181 726C180.33 731 180 735.78 180 740.41C180 749.67 181.33 758.33 184 767C188 780 195 789 204 792C212 795 220 795 228 791C236 787 243 778 248 766C253.03 755.11 255.25 730.18 255.25 690.05C255.25 682.27 255.16 673.93 255 665C254 610 254 559 254 513C254 467 254 424 255 385C255 375 255 265 261 243C264 233 270 229 270 213C270 207 270 180 245 180"/>
</svg>