<svg xmlns="http://www.w3.org/2000/svg" viewBox="0 0 161 1204">
  <path d="M70.75 436C66.75 436 62.75 436 59.75 437C55.75 438 52.75 440 49.75 442C48.75 444 45.75 445 43.75 447C41.75 449 39.75 452 36.75 455C33.75 459 31.75 464 30.75 469C29.75 474 29.75 480 30.75 485C33.75 496 37.75 505 41.75 512C45.75 519 49.75 524 54.75 528C59.75 532 64.75 535 69.75 536C74.75 537 79.75 538 84.75 538C95.75 537 106.75 533 118.75 525C123.75 520 126.75 516 128.75 510C130.75 505 131.75 499 131.75 493C131.75 487 129.75 480 124.75 472C124.75 471 123.75 469 121.75 466C119.75 463 117.75 460 114.75 456C111.75 452 107.75 448 102.75 445C97.75 442 91.75 440 85.75 438C80.75 436 74.75 436 70.75 436"/>
</svg>