<svg xmlns="http://www.w3.org/2000/svg" viewBox="0 0 155 1204">
  <path d="M58 782C50 782 40 786 38 794C37 800 36 807 34 813L31 825C30 828 29 832 32 837C35 841 40 845 47 845L73 845C79 845 93 849 93 866C93 875 89 882 76 885C72 886 69 886 65 886C62 886 61 885 58 884C55 883 52 883 49 883C38 884 33 890 32 895C31 899 31 908 38 913C39 914 41 915 43 916C47.96 917.77 53.68 918.41 59.27 918.41C69.42 918.41 79.13 916.29 83 915C91 913 99 909 105 905C111 901 116 896 120 889C124 882 125.75 873.75 125.75 865.63C125.75 857.50 124 849.50 121 843C118 837 113 832 108 827C103 823 98 819 92 817C86 815 79 813 73 813L65 813C66 811 66 809 67 807C68 803 70 798 71 794C72 791 70 782 58 782"/>
</svg>