<svg xmlns="http://www.w3.org/2000/svg" viewBox="0 0 162 1204">
  <path d="M93 180L92 180L88 180C87 180 86 181 85 182C84 183 82 183 81 184C80 185 79 186 79 187C79 188 78 189 78 190L78 193L78 195C78 196 79 196 79 197C79 198 80 199 81 200C82 201 84 202 85 202L86 203C87 204 87 204 87 205L87 208L87 209L87 211C86 215 85 220 83 224C81 228 78 233 75 237L66 249C63 253 59 256 56 259C48 267 40 273 30 280L32 280C34 280 36 279 38 278C40 277 43 275 46 274C49 273 52 272 55 270C58 268 60 267 63 265C66 263 68 262 70 260L79 251L79 250L87 241C88 240 89 238 90 237L93 234C94 242 94 251 94 264C94 290 93 315 93 341L93 355C93 359 93 362 94 365C88 364 84 363 80 364C76 365 74 367 72 370C70 376 71 380 73 382C75 384 77 384 81 382C83 381 87 381 91 381C95 381 100 382 106 383C113 385 119 385 123 384C127 383 129 381 131 378C133 372 132 368 130 366C128 364 126 364 122 366C120 367 117 368 112 368C112 367 111 367 111 366C111 365 110 363 110 362C109 359 108 354 108 346C108 338 107 328 107 316L107 273L107 223L107 200C107 197 106 193 105 190L105 189L105 188L104 187C104 186 103 185 102 184L99 181C98 180 96 180 94 180"/>
</svg>