<svg xmlns="http://www.w3.org/2000/svg" viewBox="0 0 229 1204">
  <path d="M113 180L109 180C106 180 104 181 101 181C98 182 95 182 92 183C88 185 83 186 79 188C75 190 72 193 68 196C64 199 61 201 58 204C55 207 53 210 51 213C49 216 48 220 46 224C44 228 42 230 40 234C36 243 34 253 32 262C30 271 30 280 30 289C30 298 32 308 34 317C36 326 39 335 43 343C47 351 52 357 57 362C62 367 68 372 74 375C80 378 87 381 93 382C99 383 106 384 112 384L111 384L119 384C122 384 124 383 127 383C130 382 133 382 136 381C145 378 153 374 161 368C165 365 167 363 170 360C173 357 175 354 177 351C179 348 181 344 183 340L188 330C192 321 195 311 197 302C199 293 199 284 199 275C199 266 197 256 195 247C193 238 189 229 185 221C181 213 177 207 172 202C167 197 160 192 154 189C148 186 141 183 135 182C129 181 123 180 117 180M124 182C129 184 134 186 139 189C144 192 150 195 154 199C158 203 162 207 166 212C170 217 172 223 174 229C176 234 178 240 180 245C182 250 182 255 183 261C184 267 185 273 185 279C185 285 185 292 184 299C182 310 179 320 175 327C171 334 166 340 161 345C159 346 158 349 156 350L150 353L144 356C142 357 140 356 138 356C136 356 134 356 132 355C130 354 128 353 126 353L118 353C114 354 112 355 109 357L106 360L103 363C102 364 101 366 101 368C101 370 100 372 100 374C100 376 100 378 101 379C102 380 104 381 105 382C100 380 94 378 89 375C84 372 79 369 75 365C71 361 67 357 63 352C59 347 56 341 54 335C52 330 51 324 49 319C47 314 46 309 45 303C44 297 44 291 44 285C44 279 44 272 45 265C47 254 50 244 54 237C58 230 62 224 67 219C69 218 70 215 72 214L78 211L84 208C86 207 88 208 90 208C92 208 94 208 96 209C98 210 101 211 103 211L110 211C114 210 116 209 119 207C121 205 124 204 126 201C128 198 129 194 129 190C129 188 128 186 127 185"/>
</svg>