<svg xmlns="http://www.w3.org/2000/svg" viewBox="0 0 680 1204">
  <path d="M30 384C78 422 126 459 175 493C224 527 274 559 328 589C274 619 224 651 175 685C126 719 78 756 30 794C42 789 54 783 69 777C84 771 99 766 115 760C131 754 148 746 165 739C182 732 201 724 219 715C234 708 250 699 265 690C280 681 295 673 310 664C325 655 339 648 352 641C365 634 377 629 388 625C394 627 401 628 408 629C422 629 432 628 439 623C446 618 450 613 452 606C454 599 453 592 450 584C447 576 443 570 437 564C431 558 423 554 415 552C407 550 397 551 388 554C377 550 365 544 352 537C339 530 325 522 310 514C295 506 280 497 265 488C250 479 234 470 219 463C201 455 182 447 165 440C148 433 131 425 115 419C99 413 84 407 69 401C54 395 42 389 30 384M227 384C275 422 323 459 372 493C421 527 471 559 525 589C471 619 421 651 372 685C323 719 275 756 227 794C239 789 251 783 266 777C281 771 296 766 312 760C328 754 345 746 362 739C379 732 397 724 415 715C430 708 446 699 461 690C476 681 492 673 507 664C522 655 536 648 549 641C562 634 574 629 585 625C591 627 598 628 605 629C619 629 629 628 636 623C643 618 647 613 649 606C651 599 650 592 647 584C644 576 640 570 634 564C628 558 620 554 612 552C604 550 594 551 585 554C574 550 561 544 548 537C535 530 522 522 507 514C492 506 476 497 461 488C446 479 430 470 415 463C397 455 379 447 362 440C345 433 328 425 312 419C296 413 281 407 266 401C251 395 239 389 227 384"/>
</svg>