<svg xmlns="http://www.w3.org/2000/svg" viewBox="0 0 486 1204">
  <path d="M93.50 282L92.50 282C91.50 282 89.50 283 88.50 283C87.50 283 85.50 283 84.50 284L81.50 287C80.50 288 79.50 289 79.50 290C79.50 291 78.50 291 78.50 292C78.50 293 77.50 294 77.50 295C77.50 295 78.50 296 78.50 297C78.50 298 79.50 299 79.50 300C79.50 301 80.50 301 81.50 302C82.50 303 84.50 304 85.50 304L86.50 305C87.50 306 87.50 307 87.50 308L87.50 310L87.50 312C87.50 313 86.50 312 86.50 313C85.50 317 84.50 323 82.50 327C80.50 331 78.50 336 75.50 340C72.50 344 69.50 347 66.50 351C63.50 355 59.50 359 56.50 362C48.50 370 40.50 376 30.50 383C30.50 383 30.50 382 32.50 382C34.50 382 36.50 381 38.50 380C40.50 379 43.50 378 46.50 377C49.50 376 52.50 374 55.50 372C58.50 370 60.50 369 63.50 367C66.50 365 68.50 364 70.50 362L79.50 353L87.50 343L90.50 340C91.50 339 92.50 337 93.50 336C94.50 344 94.50 354 94.50 367C94.50 393 93.50 418 93.50 444L93.50 458C93.50 462 93.50 464 94.50 467C88.50 466 84.50 466 80.50 467C76.50 468 74.50 470 72.50 473C70.50 479 70.50 483 72.50 485C74.50 487 77.50 487 81.50 485C83.50 484 87.50 483 91.50 483C95.50 483 100.50 484 106.50 485C113.50 487 118.50 488 122.50 487C126.50 486 129.50 484 131.50 481C133.50 475 132.50 471 130.50 469C128.50 467 125.50 467 121.50 469C119.50 470 117.50 470 112.50 470C112.50 469 111.50 469 111.50 468C111.50 467 110.50 466 110.50 465C109.50 462 108.50 456 108.50 448C108.50 440 107.50 430 107.50 418L107.50 376L107.50 325L107.50 303C107.50 300 106.50 295 105.50 292L105.50 291L104.50 290L104.50 289C104.50 288 103.50 287 102.50 286L99.50 283C98.50 282 96.50 282 94.50 282M424.50 282L421.50 282C417.50 283 412.50 285 406.50 289C403.50 291 400.50 293 397.50 296C394.50 299 392.50 302 390.50 306C388.50 310 386.50 314 385.50 318C384.50 322 383.50 326 383.50 330C383.50 334 382.50 337 382.50 340C382.50 343 382.50 346 381.50 349C380.50 352 379.50 354 378.50 357C377.50 360 375.50 363 373.50 367C371.50 371 366.50 377 360.50 385C354.50 393 346.50 402 337.50 412C328.50 422 317.50 434 305.50 447C293.50 460 280.50 473 266.50 488C263.50 492 260.50 496 257.50 499L248.50 508L220.50 538C200.50 559 180.50 581 161.50 601C142.50 621 122.50 642 102.50 663C54.39 713.74 30 749.93 30 772.26C30 775.46 30.50 778.37 31.50 781C38.67 789.47 46.26 794.12 54.27 794.12C58.56 794.12 62.97 792.79 67.50 790C74.50 786 80.50 781 85.50 774C90.50 767 95.50 758 99.50 748C107.50 728 136.50 691 187.50 635C197.50 624 206.50 613 216.50 602C226.50 591 237.50 580 248.50 568L275.50 538C292.50 520 310.50 501 328.50 482C346.50 463 365.50 442 385.50 421C424.50 379 446.50 353 451.50 340C454.92 330.43 456.47 322.27 456.47 315.50C456.47 312.37 456.14 309.53 455.50 307C454.50 305 454.50 303 452.50 301C450.50 299 448.50 296 446.50 294L440.50 288C438.50 286 436.50 285 434.50 284C431.50 283 427.50 282 424.50 282M391.50 589L388.50 589C387.50 589 387.50 590 386.50 590C385.50 590 384.50 591 383.50 592C382.50 593 381.50 595 380.50 597C379.50 599 380.50 601 380.50 604C380.50 607 381.50 609 383.50 612L384.50 613C380.50 619 376.50 625 371.50 632C366.50 639 362.50 646 356.50 653C350.50 660 345.50 666 339.50 673C333.50 680 329.50 687 324.50 693C319.50 699 315.50 704 312.50 709C309.50 714 306.50 719 305.50 722C303.50 728 303.50 733 303.50 736C303.50 739 304.50 742 305.50 744C306.50 746 308.50 746 310.50 747C312.50 748 313.50 749 315.50 749L319.50 749L328.50 749L341.50 749L356.50 749L373.50 749L390.50 749L390.50 751C390.50 776 393.50 791 400.50 794C406.50 795 408.50 793 410.50 788C411.50 783 412.50 777 409.50 771C407.50 767 406.50 760 405.50 749C410.50 749 415.50 748 419.50 748L431.50 748L439.50 748C441.50 748 443.50 747 444.50 747C447.50 747 449.50 746 451.50 745C453.50 744 453.50 743 454.50 742C455.50 741 456.50 739 456.50 738L456.50 735C456.50 734 456.50 733 455.50 731C454.50 729 452.50 727 451.50 726C450.50 725 449.50 723 447.50 722C445.50 721 443.50 720 441.50 720C437.50 719 434.50 719 431.50 719C428.50 719 426.50 720 424.50 721C422.50 722 420.50 722 419.50 724C418.50 726 416.50 728 415.50 730C414.50 731 413.50 732 411.50 733C409.50 734 408.50 734 405.50 735L405.50 730L405.50 725C405.50 712 404.50 698 404.50 683C404.50 668 405.50 650 405.50 632C405.50 623 404.50 616 404.50 610C404.50 604 403.50 601 402.50 599C400.50 595 399.50 591 396.50 590L394.50 590C393.50 590 392.50 589 391.50 589M388.50 631C388.50 634 389.50 638 389.50 641C389.50 644 390.50 648 390.50 652C390.50 656 391.50 659 391.50 663L391.50 674L391.50 706C391.50 716 390.50 726 390.50 737C384.50 738 378.50 738 372.50 738L353.50 738C347.50 738 342.50 737 338.50 737L329.50 737C326.50 737 323.50 736 322.50 735C321.50 734 321.50 732 321.50 729C321.50 726 323.50 723 324.50 720C325.50 717 327.50 713 329.50 709C330.50 707 332.50 705 334.50 701C336.50 697 340.50 694 343.50 689C346.50 684 350.50 679 354.50 674L366.50 659L378.50 644C382.50 639 385.50 635 388.50 631"/>
</svg>