<svg xmlns="http://www.w3.org/2000/svg" viewBox="0 0 486 1204">
  <path d="M93.50 282L92.50 282C91.50 282 89.50 283 88.50 283C87.50 283 85.50 283 84.50 284L81.50 287C80.50 288 79.50 289 79.50 290C79.50 291 78.50 291 78.50 292C78.50 293 77.50 294 77.50 295C77.50 295 78.50 296 78.50 297C78.50 298 79.50 299 79.50 300C79.50 301 80.50 301 81.50 302C82.50 303 84.50 304 85.50 304L86.50 305C87.50 306 87.50 307 87.50 308L87.50 310L87.50 312C87.50 313 86.50 312 86.50 313C85.50 317 84.50 323 82.50 327C80.50 331 78.50 336 75.50 340C72.50 344 69.50 347 66.50 351C63.50 355 59.50 359 56.50 362C48.50 370 40.50 376 30.50 383C30.50 383 30.50 382 32.50 382C34.50 382 36.50 381 38.50 380C40.50 379 43.50 378 46.50 377C49.50 376 52.50 374 55.50 372C58.50 370 60.50 369 63.50 367C66.50 365 68.50 364 70.50 362L79.50 353L87.50 343L90.50 340C91.50 339 92.50 337 93.50 336C94.50 344 94.50 354 94.50 367C94.50 393 93.50 418 93.50 444L93.50 458C93.50 462 93.50 464 94.50 467C88.50 466 84.50 466 80.50 467C76.50 468 74.50 470 72.50 473C70.50 479 70.50 483 72.50 485C74.50 487 77.50 487 81.50 485C83.50 484 87.50 483 91.50 483C95.50 483 100.50 484 106.50 485C113.50 487 118.50 488 122.50 487C126.50 486 129.50 484 131.50 481C133.50 475 132.50 471 130.50 469C128.50 467 125.50 467 121.50 469C119.50 470 117.50 470 112.50 470C112.50 469 111.50 469 111.50 468C111.50 467 110.50 466 110.50 465C109.50 462 108.50 456 108.50 448C108.50 440 107.50 430 107.50 418L107.50 376L107.50 325L107.50 303C107.50 300 106.50 295 105.50 292L105.50 291L104.50 290L104.50 289C104.50 288 103.50 287 102.50 286L99.50 283C98.50 282 96.50 282 94.50 282M424.50 282L421.50 282C417.50 283 412.50 285 406.50 289C403.50 291 400.50 293 397.50 296C394.50 299 392.50 302 390.50 306C388.50 310 386.50 314 385.50 318C384.50 322 383.50 326 383.50 330C383.50 334 382.50 337 382.50 340C382.50 343 382.50 346 381.50 349C380.50 352 379.50 354 378.50 357C377.50 360 375.50 363 373.50 367C371.50 371 366.50 377 360.50 385C354.50 393 346.50 402 337.50 412C328.50 422 317.50 434 305.50 447C293.50 460 280.50 473 266.50 488C263.50 492 260.50 496 257.50 499L248.50 508L220.50 538C200.50 559 180.50 581 161.50 601C142.50 621 122.50 642 102.50 663C54.39 713.74 30 749.93 30 772.26C30 775.46 30.50 778.37 31.50 781C38.67 789.47 46.26 794.12 54.27 794.12C58.56 794.12 62.97 792.79 67.50 790C74.50 786 80.50 781 85.50 774C90.50 767 95.50 758 99.50 748C107.50 728 136.50 691 187.50 635C197.50 624 206.50 613 216.50 602C226.50 591 237.50 580 248.50 568L275.50 538C292.50 520 310.50 501 328.50 482C346.50 463 365.50 442 385.50 421C424.50 379 446.50 353 451.50 340C454.92 330.43 456.47 322.27 456.47 315.50C456.47 312.37 456.14 309.53 455.50 307C454.50 305 454.50 303 452.50 301C450.50 299 448.50 296 446.50 294L440.50 288C438.50 286 436.50 285 434.50 284C431.50 283 427.50 282 424.50 282M390.50 589C383.50 589 377.50 591 371.50 593C365.50 595 360.50 598 356.50 602C352.50 606 349.50 612 346.50 617C343.50 622 342.50 628 342.50 634C344.50 628 346.50 623 350.50 619L356.50 613C358.50 611 362.50 609 365.50 608C368.50 607 372.50 606 376.50 605C380.50 604 385.50 603 390.50 603C395.50 603 399.50 604 403.50 606C407.50 608 410.50 609 413.50 612C416.50 615 418.50 618 420.50 622C422.50 626 423.50 630 423.50 634C423.50 638 421.50 642 419.50 647C417.50 652 414.50 658 410.50 664C406.50 670 402.50 675 397.50 682C392.50 689 387.50 695 382.50 702C377.50 709 372.50 715 367.50 721C362.50 727 357.50 733 353.50 739C349.50 745 345.50 750 342.50 755C339.50 760 337.50 764 336.50 767C334.50 773 333.50 778 333.50 781C333.50 784 335.50 787 336.50 789C337.50 791 338.50 792 340.50 793C342.50 794 343.50 794 345.50 794L351.50 794L362.50 794L376.50 794L393.50 794L410.50 794C416.50 794 420.50 793 425.50 793L437.50 793C440.50 793 444.50 792 445.50 792C447.50 792 449.50 791 451.50 790C453.50 789 453.50 788 454.50 787C455.50 786 456.50 784 456.50 783L456.50 780C456.50 779 456.50 778 455.50 776C454.50 774 452.50 772 451.50 771C450.50 770 449.50 768 447.50 767C445.50 766 443.50 765 441.50 765C437.50 764 434.50 764 431.50 764C428.50 764 427.50 765 425.50 766C423.50 767 421.50 767 420.50 769C419.50 771 417.50 773 416.50 775C415.50 777 413.50 779 410.50 780C407.50 781 404.50 781 400.50 782C396.50 783 392.50 783 388.50 783L377.50 783C373.50 783 369.50 782 366.50 782L359.50 782C356.50 782 354.50 781 353.50 780C352.50 779 352.50 777 352.50 774C352.50 771 353.50 768 354.50 765C355.50 762 357.50 758 359.50 754C360.50 752 362.50 750 364.50 746C366.50 742 370.50 738 373.50 733C376.50 728 380.50 724 384.50 719C388.50 714 392.50 708 396.50 703C405.50 691 416.50 677 428.50 663L431.50 658C433.50 655 435.50 651 436.50 647C437.50 643 438.50 638 438.50 634C438.50 628 437.50 622 434.50 617C431.50 612 428.50 606 424.50 602C420.50 598 415.50 595 409.50 593C403.50 591 397.50 589 390.50 589"/>
</svg>