<svg xmlns="http://www.w3.org/2000/svg" viewBox="0 0 486 1204">
  <path d="M79.50 282C76.50 282 72.50 282 69.50 283C66.50 284 62.50 284 59.50 285C56.50 286 52.50 288 49.50 290C46.50 292 43.50 294 40.50 297C37.50 300 35.50 303 34.50 307C33.50 311 32.50 316 32.50 321C33.50 317 35.50 313 39.50 310C40.50 309 42.50 307 44.50 306C46.50 305 50.50 304 53.50 303C56.50 302 60.50 302 64.50 301C68.50 300 73.50 300 79.50 300C85.50 300 90.50 301 95.50 303C100.50 305 103.50 309 106.50 313C109.50 317 111.50 320 112.50 325C113.50 330 114.50 334 114.50 338C114.50 343 113.50 349 111.50 353C109.50 357 107.50 361 104.50 364C101.50 367 99.50 370 95.50 372C91.50 374 88.50 376 84.50 376C83.50 376 82.50 375 81.50 375L78.50 375C76.50 374 75.50 374 74.50 373C73.50 372 71.50 371 69.50 371C67.50 370 65.50 371 62.50 371C59.50 371 56.50 371 54.50 372C53.50 373 53.50 374 52.50 374C51.50 374 52.50 375 51.50 376C50.50 377 49.50 377 49.50 378L49.50 382C49.50 384 49.50 385 50.50 386L53.50 389C54.50 390 55.50 390 57.50 391C59.50 392 60.50 393 62.50 393C66.50 394 69.50 394 74.50 394L79.50 394L83.50 394C87.50 395 91.50 396 95.50 398C99.50 400 102.50 404 105.50 407C108.50 410 110.50 414 112.50 418C114.50 422 114.50 426 114.50 431C114.50 437 113.50 442 111.50 446C109.50 450 107.50 453 104.50 456C101.50 459 99.50 460 95.50 462C91.50 464 88.50 465 84.50 466C80.50 467 76.50 468 73.50 468L64.50 468L59.50 468C58.50 468 57.50 466 56.50 466C55.50 466 54.50 465 53.50 465C52.50 465 51.50 464 50.50 464C48.50 463 46.50 463 43.50 463C40.50 463 37.50 464 35.50 465L33.50 467C32.50 468 33.50 468 32.50 469C31.50 470 30.50 470 30.50 471L30.50 475C30.50 477 30.50 478 31.50 479L34.50 482C35.50 483 36.50 483 38.50 484C40.50 485 40.50 485 42.50 485C46.50 486 50.50 487 55.50 487C60.50 487 66.50 487 72.50 486C78.50 485 83.50 483 89.50 481C95.50 479 100.50 477 105.50 474C110.50 471 115.50 468 119.50 464C123.50 460 126.50 454 128.50 449C130.50 444 132.50 438 132.50 431C132.50 421 130.50 412 125.50 404C120.50 396 115.50 390 107.50 385C115.50 380 120.50 373 125.50 365C130.50 357 132.50 348 132.50 338C132.50 331 131.50 325 128.50 318C125.50 311 122.50 305 117.50 300C112.50 295 107.50 290 100.50 287C93.50 284 87.50 282 79.50 282M424.50 282L421.50 282C417.50 283 412.50 285 406.50 289C403.50 291 400.50 293 397.50 296C394.50 299 392.50 302 390.50 306C388.50 310 386.50 314 385.50 318C384.50 322 383.50 326 383.50 330C383.50 334 382.50 337 382.50 340C382.50 343 382.50 346 381.50 349C380.50 352 379.50 354 378.50 357C377.50 360 375.50 363 373.50 367C371.50 371 366.50 377 360.50 385C354.50 393 346.50 402 337.50 412C328.50 422 317.50 434 305.50 447C293.50 460 281.50 473 267.50 488C264.50 492 260.50 496 257.50 499L248.50 508L220.50 538C200.50 559 180.50 581 161.50 601C142.50 621 122.50 642 102.50 663C54.39 713.74 30 749.93 30 772.26C30 775.46 30.50 778.37 31.50 781C38.67 789.47 46.26 794.12 54.27 794.12C58.56 794.12 62.97 792.79 67.50 790C74.50 786 80.50 781 85.50 774C90.50 767 95.50 758 99.50 748C107.50 728 136.50 691 187.50 635C197.50 624 206.50 613 216.50 602C226.50 591 237.50 580 248.50 568L275.50 538C292.50 520 310.50 501 328.50 482C346.50 463 365.50 442 385.50 421C424.50 379 446.50 353 451.50 340C454.92 330.43 456.47 322.27 456.47 315.50C456.47 312.37 456.14 309.53 455.50 307C454.50 305 454.50 303 452.50 301C450.50 299 449.50 296 447.50 294C445.50 292 442.50 290 440.50 288C438.50 286 436.50 285 434.50 284C431.50 283 427.50 282 424.50 282M391.50 589L388.50 589C387.50 589 387.50 590 386.50 590C385.50 590 384.50 591 383.50 592C382.50 593 381.50 595 380.50 597C379.50 599 380.50 601 380.50 604C380.50 607 382.50 609 384.50 612L384.50 613C380.50 619 376.50 625 371.50 632C366.50 639 362.50 646 356.50 653C350.50 660 345.50 666 339.50 673C333.50 680 329.50 687 324.50 693C319.50 699 315.50 704 312.50 709C309.50 714 306.50 719 305.50 722C303.50 728 303.50 733 303.50 736C303.50 739 304.50 742 305.50 744C306.50 746 308.50 746 310.50 747C312.50 748 313.50 749 315.50 749L319.50 749L328.50 749L341.50 749L356.50 749L373.50 749L390.50 749L390.50 751C390.50 776 393.50 791 400.50 794C406.50 795 408.50 793 410.50 788C411.50 783 412.50 777 409.50 771C407.50 767 406.50 760 405.50 749C410.50 749 415.50 748 419.50 748L431.50 748L439.50 748C441.50 748 443.50 747 444.50 747C447.50 747 449.50 746 451.50 745C453.50 744 453.50 743 454.50 742C455.50 741 456.50 739 456.50 738L456.50 735C456.50 734 456.50 733 455.50 731C454.50 729 452.50 727 451.50 726C450.50 725 449.50 723 447.50 722C445.50 721 443.50 720 441.50 720C437.50 719 434.50 719 431.50 719C428.50 719 426.50 720 424.50 721C422.50 722 420.50 722 419.50 724C418.50 726 416.50 728 415.50 730C414.50 731 413.50 732 411.50 733C409.50 734 408.50 734 405.50 735L405.50 730L405.50 725C405.50 712 404.50 698 404.50 683C404.50 668 405.50 650 405.50 632C405.50 623 404.50 616 404.50 610C404.50 604 403.50 601 402.50 599C400.50 595 399.50 591 396.50 590L394.50 590C393.50 590 392.50 589 391.50 589M388.50 631C388.50 634 389.50 638 389.50 641C389.50 644 390.50 648 390.50 652C390.50 656 391.50 659 391.50 663L391.50 674L391.50 706C391.50 716 390.50 726 390.50 737C384.50 738 378.50 738 372.50 738L353.50 738C347.50 738 342.50 737 338.50 737L329.50 737C326.50 737 323.50 736 322.50 735C321.50 734 321.50 732 321.50 729C321.50 726 323.50 723 324.50 720C325.50 717 327.50 713 329.50 709C330.50 707 332.50 705 334.50 701C336.50 697 340.50 694 343.50 689C346.50 684 350.50 679 354.50 674L366.50 659L378.50 644C382.50 639 385.50 635 388.50 631"/>
</svg>