<svg xmlns="http://www.w3.org/2000/svg" viewBox="0 0 395 1204">
  <path d="M237 384L234 384C226 385 218 388 209 394C205 397 204 401 202 405C201 409 199 413 199 418C199 423 201 427 204 433C204 434 205 435 206 437C207 439 210 441 212 444C214 447 217 450 221 452C225 454 229 457 234 458C238 459 241 460 244 460C247 460 250 459 252 458C257 456 260 455 260 455C261 454 262 452 264 451C266 450 268 448 270 445C272 443 273 439 274 435C275 431 275 428 274 424C272 416 269 409 266 404C263 399 260 394 256 391C252 388 249 387 245 386C242 385 240 384 237 384M250 489C245 489 239 491 235 494C229 499 225 508 223 522C222 526 223 531 224 536C225 541 227 546 229 551C231 556 233 562 235 568C237 574 240 580 241 586C244 601 246 613 248 623C250 633 251 641 252 648C253 655 255 661 255 665C255 669 256 674 256 678C257 689 256 696 255 701C254 706 252 708 247 708L215 708L190 708C169 708 148 712 129 718C110 724 93 733 78 744C63 755 52 769 43 785C34 801 30 818 30 837C31 884 44 921 68 947C92 973 129 990 179 998C186 999 192 999 199 999C206 999 212 999 218 998C230 997 243 994 255 989C267 984 280 977 293 968C306 959 319 947 333 932C343 918 350 904 356 891C358 885 360 880 362 874C364 868 365 863 365 858C365 853 365 848 364 844C363 840 360 837 356 834C353 831 351 829 348 828C345 827 342 825 340 825L334 825C332 825 330 826 327 827C313 833 303 842 297 854C296 857 295 861 294 866C293 871 293 876 292 882C291 888 291 894 289 900C287 906 285 912 281 917C274 925 265 930 257 935C249 940 241 943 232 945C223 947 215 948 206 949C197 950 188 950 179 950C163 948 149 946 137 941C125 936 114 929 105 920C96 911 91 901 86 887C81 873 79 857 79 837C79 826 82 815 87 804C92 793 100 783 109 775C118 767 128 760 141 755C154 750 168 747 182 747L280 747C286 747 292 746 296 744C300 742 303 738 306 734C309 730 309 724 307 716C304 704 301 694 299 686C297 678 295 672 293 666C291 660 289 655 287 650C285 645 284 641 283 636C282 631 281 626 280 620C279 614 279 608 278 600C277 591 278 583 279 577C280 571 282 567 284 564C286 561 289 558 292 556C295 554 297 551 299 549C301 547 302 545 302 541C302 537 301 532 299 526C293 518 286 510 278 503C270 496 263 492 256 490C254 490 252 489 250 489"/>
</svg>