<svg xmlns="http://www.w3.org/2000/svg" viewBox="0 0 638 1204">
  <path d="M316.67 26C311.67 26 306.67 27 301.67 29C294.67 31 288.67 34 283.67 39C278.67 44 274.67 49 271.67 55C268.67 61 266.67 67 266.67 74C266.67 81 267.67 87 269.67 94C271.67 101 275.67 107 280.67 112C285.67 117 289.67 120 295.67 123C301.67 126 307.67 127 314.67 128C321.67 129 327.67 128 334.67 126C339.67 124 344.67 121 348.67 118C352.67 115 356.67 110 359.67 106C362.67 102 364.67 97 366.67 92C368.67 87 369.67 81 369.67 76C369.67 77 368.67 77 368.67 78L368.67 76L368.67 71C368.67 68 367.67 64 366.67 60C364.67 53 360.67 48 355.67 43C350.67 38 346.67 34 340.67 31C334.67 28 328.67 26 321.67 26M320.67 42C324.67 42 328.67 43 332.67 44C336.67 45 338.67 48 341.67 50C344.67 52 346.67 55 347.67 58C348.67 60 348.67 62 348.67 63L348.67 66L348.67 68C348.67 69 347.67 70 347.67 71C347.67 73 348.67 75 349.67 77C350.67 79 352.67 81 353.67 83C354.67 84 356.67 86 357.67 86C358.67 86 360.67 86 363.67 85C364.67 85 365.67 84 366.67 83C367.67 82 367.67 82 367.67 81C366.67 83 366.67 85 365.67 87C364.67 90 363.67 93 361.67 96C359.67 99 355.67 103 352.67 106C350.67 108 349.67 109 347.67 110C345.67 111 344.67 112 342.67 113C340.67 114 337.67 114 335.67 115C333.67 116 330.67 116 327.67 117C323.67 118 318.67 118 314.67 117C310.67 116 306.67 115 302.67 112C298.67 109 294.67 106 291.67 102C288.67 98 286.67 94 284.67 89C282.67 84 283.67 80 283.67 75C283.67 70 284.67 66 286.67 62C288.67 58 291.67 54 294.67 51C297.67 48 301.67 46 306.67 44C311.67 42 316.67 42 320.67 42M317.67 180C309.67 180 303.67 181 296.67 183C289.67 185 285.67 188 282.67 192C277.67 197 270.67 209 262.67 227C254.67 245 244.67 267 234.67 293C224.67 319 213.67 348 201.67 380C189.67 412 177.67 445 165.67 478C161.67 490 157.67 501 153.67 512C115.67 505 77.67 495 40.67 482C14.67 471 38.67 501 49.67 505C79.67 521 111.67 533 143.67 542C139.67 554 135.67 565 131.67 577C120.67 610 109.67 639 100.67 666C96.67 676 92.67 683 88.67 689C84.67 695 80.67 700 76.67 703C72.67 706 67.67 709 63.67 711L51.67 717C47.67 719 43.67 723 40.67 726C37.67 729 34.67 734 32.67 741C30.28 749.59 29.04 757.04 29.04 763.57C29.04 770.72 30.53 776.77 33.67 782C38.67 790.33 47.84 794.50 60.01 794.50C62.45 794.50 65 794.33 67.67 794C75.67 793 82.67 791 88.67 788C94.67 785 99.67 780 104.67 776C109.67 772 113.67 767 116.67 762C119.67 757 122.67 751 124.67 746C126.67 741 129.67 734 132.67 725C135.67 716 140.67 706 144.67 694C148.67 682 152.67 670 157.67 657C162.67 644 166.67 631 171.67 618C178.67 598 185.67 576 193.67 554C226.67 561 258.67 565 291.67 569C328.43 573.32 366.75 576.61 405.12 576.61C419.99 576.61 434.87 576.12 449.67 575C454.67 590 459.67 604 464.67 618C468.67 631 472.67 644 477.67 657C482.67 670 487.67 682 491.67 694C495.67 706 499.67 716 502.67 725C505.67 734 508.67 741 510.67 746C512.67 751 516.67 757 519.67 762C522.67 767 526.67 772 531.67 776C536.67 780 541.67 785 547.67 788C553.67 791 560.67 793 568.67 794C571.34 794.33 573.89 794.50 576.33 794.50C588.50 794.50 597.67 790.33 602.67 782C605.81 776.77 607.30 770.72 607.30 763.57C607.30 757.04 606.06 749.59 603.67 741C601.67 734 598.67 729 595.67 726C592.67 723 588.67 719 584.67 717L572.67 711C568.67 709 563.67 706 559.67 703C555.67 700 551.67 695 547.67 689C543.67 683 539.67 676 535.67 666C526.67 639 515.67 610 504.67 577L501.67 568C515.67 565 529.67 562 542.67 557C564.67 546 589.67 530 593.67 502C594.28 499.25 594.57 496.50 594.57 493.80C594.57 472.25 576.13 453.38 555.96 453.38C553.87 453.38 551.77 453.58 549.67 454C522.67 465 522.67 506 494.67 517C491.67 518 487.67 517 484.67 518C479.67 505 475.67 492 470.67 478C458.67 445 446.67 412 434.67 380C422.67 348 411.67 319 401.67 293C391.67 267 381.67 245 373.67 227C365.67 209 359.67 197 354.67 192C351.67 188 346.67 185 339.67 183C332.67 181 325.67 180 317.67 180M317.67 293C324.67 296 331.67 299 337.67 302C343.67 305 348.67 309 352.67 314C357.67 319 362.67 327 366.67 336C370.67 345 375.67 355 379.67 367C383.67 379 387.67 392 391.67 405L403.67 444L430.67 519C431.67 521 431.67 523 432.67 525C400.28 527.98 367.71 529.51 335.19 529.51C291.41 529.51 247.71 526.74 204.67 521C204.67 520 205.67 520 205.67 519L232.67 444L244.67 405C248.67 392 252.67 379 256.67 367C260.67 355 264.67 345 268.67 336C272.67 327 277.67 319 282.67 314C286.67 309 292.67 305 298.67 302C304.67 299 310.67 296 317.67 293"/>
</svg>