<svg xmlns="http://www.w3.org/2000/svg" viewBox="0 0 1022 1204">
  <path d="M501.93 180L498.93 180C493.93 181 486.93 183 479.93 188C475.93 190 472.93 192 469.93 196C466.93 200 462.93 204 460.93 209C458.93 214 456.93 218 454.93 223C452.93 228 451.93 232 451.93 237L451.93 249C451.93 252 450.93 256 449.93 259C448.93 262 447.93 267 446.93 270C445.93 273 442.93 277 440.93 282C437.93 287 431.93 294 424.93 303C417.93 312 407.93 322 396.93 335C385.93 348 372.93 362 358.93 377C344.93 392 328.93 409 312.93 427C308.93 432 305.93 436 301.93 440C297.93 444 293.93 447 289.93 451L270.93 472C247.93 467 226.93 460 204.93 453C178.93 442 201.93 471 212.93 474C225.93 480 239.93 487 252.93 492C229.93 516 207.93 539 185.93 562C162.93 587 139.93 612 115.93 637C58.42 697.13 29 740.54 29 767.92C29 771.96 29.64 775.66 30.93 779C39.13 789.09 47.72 794.01 56.97 794.01C62.38 794.01 68.02 792.32 73.93 789C81.93 784 88.93 778 94.93 770C100.93 762 105.93 751 110.93 739C120.93 715 155.93 670 216.93 603C228.93 590 240.93 576 252.93 563C264.93 550 276.93 536 289.93 522L303.93 508C352.93 522 403.93 530 454.93 535C454.93 600 457.93 731 457.93 731C457.93 731 452.93 740 450.93 745C448.93 751 447.93 756 448.93 762C449.93 768 451.93 774 455.93 779C459.93 784 465.93 788 471.93 790C481.26 793.27 491.25 794.14 501.38 794.14C512.96 794.14 524.73 793 535.93 793C553.32 793.41 570.55 793.66 587.75 793.66C612.06 793.66 636.32 793.17 660.93 792C677.74 791.26 694.75 791.07 711.85 791.07C730.56 791.07 749.38 791.30 768.16 791.30C825.16 791.30 881.80 789.17 933.93 772C957.93 761 985.93 743 989.93 715C990.50 712.42 990.77 709.84 990.77 707.29C990.77 685.31 970.55 665.40 948.51 665.40C946.33 665.40 944.13 665.59 941.93 666C912.93 678 912.93 719 882.93 730C780.93 745 761.93 745 700.93 746C697.97 746.04 694.89 746.06 691.70 746.06C621.53 746.06 498.93 736 498.93 736C498.93 736 499.93 652 499.93 610C499.93 597 500.93 571 501.93 539C525.71 540.75 549.98 542.01 574.19 542.01C619.19 542.01 663.96 537.66 704.93 524C726.93 514 751.93 498 755.93 472C756.54 469.45 756.83 466.89 756.83 464.35C756.83 444.12 738.40 425.38 718.23 425.38C716.14 425.38 714.04 425.58 711.93 426C684.93 437 684.93 476 657.93 486C606.93 493 554.93 498 502.93 498C505.93 416 510.93 317 514.93 288C524.93 262 547.93 241 573.93 238C619.74 232.56 666.59 229.79 713.62 229.79C770.27 229.79 827.20 233.80 882.93 242C912.93 253 912.93 295 941.93 307C944.06 307.39 946.19 307.58 948.31 307.58C970.43 307.58 990.77 286.92 990.77 264.73C990.77 262.16 990.50 259.58 989.93 257C985.93 229 957.93 212 933.93 201C881.80 183.83 825.16 181.70 768.16 181.70C749.38 181.70 730.56 181.93 711.85 181.93C694.75 181.93 677.74 181.74 660.93 181C636.32 179.83 602.80 179.34 576.23 179.34C557.45 179.34 542.14 179.59 535.93 180C533.93 180 530.93 180 528.93 181C524.93 182 521.93 182 517.93 184C516.93 183 514.93 183 513.93 182C509.93 180 505.93 180 501.93 180M455.93 346C454.93 377 455.93 408 454.93 438C454.59 444.67 454.48 451.22 454.48 457.74C454.48 470.78 454.93 483.67 454.93 497C411.93 495 368.93 490 326.93 483C345.93 462 365.93 442 385.93 420C407.93 397 430.93 372 454.93 347"/>
</svg>