<svg xmlns="http://www.w3.org/2000/svg" viewBox="0 0 624 1204">
  <path d="M373.25 180C367.63 179.78 362.01 179.65 356.38 179.65C336.96 179.65 317.41 181.12 297.25 185C270.25 190 243.25 198 218.25 210C193.25 222 169.25 236 148.25 254C127.25 272 108.25 292 91.25 315C74.25 338 60.25 363 50.25 391C40.25 418 34.25 445 32.25 472C31.47 482.46 31 492.77 31 502.99C31 519.15 32.19 535.07 35.25 551C40.25 577 48.25 602 59.25 626C70.25 650 84.25 671 101.25 691C118.25 711 138.25 728 160.25 743C182.25 758 206.25 770 233.25 779C247.25 784 261.25 787 275.25 789C274.25 790 273.25 792 273.25 794C272.25 800 271.25 807 269.25 813L266.25 825C265.25 828 264.25 832 267.25 837C270.25 841 275.25 845 282.25 845L308.25 845C314.25 845 329.25 849 329.25 866C329.25 875 324.25 882 311.25 885C307.25 886 304.25 886 300.25 886C297.25 886 296.25 885 293.25 884C290.25 883 287.25 883 284.25 883C273.25 884 268.25 890 267.25 895C266.25 899 266.25 908 273.25 913C274.25 914 276.25 915 278.25 916C283.21 917.77 288.93 918.41 294.52 918.41C304.67 918.41 314.38 916.29 318.25 915C326.25 913 334.25 909 340.25 905C346.25 901 351.25 896 355.25 889C359.25 882 361 873.75 361 865.63C361 857.50 359.25 849.50 356.25 843C353.25 837 349.25 832 344.25 827C339.25 823 333.25 819 327.25 817C321.25 815 314.25 813 308.25 813L300.25 813L303.25 807C304.25 803 305.25 798 306.25 794L306.25 793C309.25 793 312.25 794 315.25 794C319.63 794.16 324.01 794.25 328.39 794.25C350.99 794.25 373.47 792.03 395.25 787C421.25 782 448.25 774 471.25 761C518.25 734 559.25 701 595.25 657C595.25 657 512.25 715 465.25 733C430.25 746 393.25 754 355.25 755C352.67 755.07 350.08 755.11 347.50 755.11C314.08 755.11 280.74 749.14 248.25 738C213.25 727 183.25 709 158.25 686C133.25 663 112.25 636 98.25 606C84.25 576 76.25 544 74.25 509C74 504.59 73.87 500.20 73.87 495.81C73.87 465.42 79.89 435.59 91.25 405C104.25 370 123.25 339 147.25 313C171.25 287 199.25 266 231.25 251C247.25 243 262.25 237 277.25 234C292.25 231 306.25 228 320.25 228C334.25 228 348.25 229 360.25 230C372.25 231 383.25 233 393.25 235C400.25 236 407.25 238 413.25 241C419.25 244 426.25 246 431.25 248C437.25 251 443.25 255 449.25 258C455.25 263 459.25 267 462.25 273C465.25 279 467.25 285 469.25 291C471.25 297 474.25 303 477.25 309C480.25 315 485.25 321 491.25 327C499.25 334 509.25 339 518.25 343C522.25 345 525.25 346 530.25 347C535.25 348 540.25 348 545.25 348C550.25 348 555.25 347 560.25 345C565.25 343 571.25 340 576.25 336C581.25 332 584.25 327 586.25 322C588.25 317 588.25 312 587.25 306C586.25 300 583.25 295 579.25 289C575.25 283 571.25 277 567.25 272C557.25 259 543.25 247 526.25 233C503.25 217 478.25 204 450.25 195C424.25 186 398.25 181 373.25 180"/>
</svg>