<svg xmlns="http://www.w3.org/2000/svg" viewBox="0 0 605 1204">
  <path d="M300.39 0C298.39 0 295.39 1 293.39 2C291.39 3 289.39 4 287.39 6C284.39 9 280.39 13 278.39 17C276.39 21 275.39 26 277.39 33C278.39 37 278.39 41 276.39 45C274.39 49 265.39 59 265.39 59C265.39 59 248.39 77 240.39 85C236.39 89 233.39 91 229.39 95L218.39 106C206.39 117 201.39 124 201.39 130C201.39 136 203.39 141 206.39 146C208.39 149 209.39 151 211.39 153C213.39 155 216.39 157 218.39 159C221.39 161 225.39 162 230.39 162C235.39 162 239.39 160 243.39 156C245.39 154 247.39 153 248.39 151L251.39 145C252.39 143 253.39 141 253.39 138C253.39 135 253.39 133 252.39 129C251.39 126 252.39 122 253.39 119C254.39 116 262.39 106 262.39 106L287.39 81L303.39 65L319.39 81L344.39 106C344.39 106 352.39 116 353.39 119C354.39 122 355.39 126 354.39 129C353.39 133 353.39 135 353.39 138C353.39 141 354.39 143 355.39 145L358.39 151C359.39 153 361.39 154 363.39 156C367.39 160 371.39 162 376.39 162C381.39 162 385.39 161 388.39 159C390.39 157 393.39 155 395.39 153C397.39 151 398.39 149 400.39 146C403.39 141 405.39 136 405.39 130C405.39 124 400.39 117 388.39 106L377.39 95C373.39 91 370.39 89 366.39 85C358.39 77 341.39 59 341.39 59C341.39 59 332.39 49 330.39 45C328.39 41 328.39 37 329.39 33C331.39 26 330.39 21 328.39 17C326.39 13 322.39 9 319.39 6C317.39 4 315.39 3 313.39 2C311.39 1 308.39 0 306.39 0C305.39 0 304.39 1 303.39 1C302.39 1 301.39 0 300.39 0M119.39 180C117.39 180 115.39 180 113.39 181C90.39 184 75.39 205 63.39 223C56.39 233 50.39 257 50.39 257C35.39 314 40.39 378 38.39 438C38.06 448.67 37.95 459.44 37.95 470.26C37.95 491.89 38.39 513.67 38.39 535C38.39 600 41.39 731 41.39 731C41.39 731 36.39 740 34.39 745C32.39 751 31.39 756 32.39 762C33.39 768 35.39 774 39.39 779C43.39 784 49.39 788 55.39 790C64.73 793.27 74.71 794.14 84.84 794.14C96.42 794.14 108.19 793 119.39 793C136.79 793.41 154.01 793.66 171.21 793.66C195.53 793.66 219.79 793.17 244.39 792C261.20 791.26 278.21 791.07 295.32 791.07C314.02 791.07 332.84 791.30 351.62 791.30C408.62 791.30 465.26 789.17 517.39 772C541.39 761 569.39 743 573.39 715C573.96 712.42 574.24 709.84 574.24 707.29C574.24 685.31 554.01 665.40 531.97 665.40C529.79 665.40 527.59 665.59 525.39 666C496.39 678 496.39 719 466.39 730C364.39 745 346.39 745 285.39 746C282.44 746.04 279.35 746.06 276.16 746.06C205.91 746.06 82.39 736 82.39 736C82.39 736 84.39 652 84.39 610C84.39 571.60 85.67 524.24 85.67 489.42C85.67 480.72 85.59 472.80 85.39 466C114.97 463.51 144.67 462.28 174.37 462.28C228 462.28 281.61 466.28 334.39 474C361.39 484 362.39 522 389.39 533C391.50 533.42 393.61 533.62 395.70 533.62C415.86 533.62 434.29 514.88 434.29 494.65C434.29 492.11 434 489.55 433.39 487C429.39 461 403.39 446 381.39 436C340.03 422.21 295.29 417.71 250.32 417.71C210.47 417.71 170.44 421.24 132.39 425C116.39 427 101.39 428 85.39 430C86.39 382 91.39 335 98.39 288C108.39 262 131.39 241 157.39 238C203.21 232.56 250.05 229.79 297.09 229.79C353.74 229.79 410.66 233.80 466.39 242C496.39 253 496.39 295 525.39 307C527.52 307.39 529.66 307.58 531.77 307.58C553.89 307.58 574.24 286.92 574.24 264.73C574.24 262.16 573.96 259.58 573.39 257C569.39 229 541.39 212 517.39 201C465.26 183.83 408.62 181.70 351.62 181.70C332.84 181.70 314.02 181.93 295.32 181.93C278.21 181.93 261.20 181.74 244.39 181C219.79 179.83 186.26 179.34 159.70 179.34C140.91 179.34 125.61 179.59 119.39 180"/>
</svg>