<svg xmlns="http://www.w3.org/2000/svg" viewBox="0 0 605 1204">
  <path d="M227.39 26C223.39 26 218.39 27 215.39 28C211.39 29 209.39 30 206.39 32C205.39 34 202.39 35 200.39 37L192.39 45C189.39 49 187.39 54 186.39 59C185.39 64 185.39 70 186.39 75C189.39 86 193.39 95 197.39 102C201.39 109 206.39 115 211.39 119C216.39 123 221.39 126 226.39 127C231.39 128 235.39 128 240.39 128C251.39 127 262.39 124 274.39 116C279.39 111 282.39 106 284.39 100C286.39 95 288.39 89 288.39 83C288.39 77 286.39 70 281.39 62C281.39 61 280.39 59 278.39 56C276.39 53 273.39 50 270.39 46C267.39 42 263.39 39 258.39 36C253.39 33 247.39 30 241.39 28C236.39 26 231.39 26 227.39 26M360.39 26C356.39 26 352.39 27 349.39 28C345.39 29 342.39 30 339.39 32C338.39 34 335.39 35 333.39 37L325.39 45C322.39 49 320.39 54 319.39 59C318.39 64 318.39 70 319.39 75C322.39 86 327.39 95 331.39 102C335.39 109 339.39 115 344.39 119C349.39 123 354.39 126 359.39 127C364.39 128 368.39 128 373.39 128C384.39 127 395.39 124 407.39 116C412.39 111 416.39 106 418.39 100C420.39 95 421.39 89 421.39 83C421.39 77 419.39 70 414.39 62C414.39 61 413.39 59 411.39 56C409.39 53 406.39 50 403.39 46C400.39 42 396.39 39 391.39 36C386.39 33 380.39 30 374.39 28C369.39 26 364.39 26 360.39 26M119.39 180C117.39 180 115.39 180 113.39 181C90.39 184 75.39 205 63.39 223C56.39 233 50.39 257 50.39 257C35.39 314 40.39 378 38.39 438C38.06 448.67 37.95 459.44 37.95 470.26C37.95 491.89 38.39 513.67 38.39 535C38.39 600 41.39 731 41.39 731C41.39 731 36.39 740 34.39 745C32.39 751 31.39 756 32.39 762C33.39 768 35.39 774 39.39 779C43.39 784 49.39 788 55.39 790C64.73 793.27 74.71 794.14 84.84 794.14C96.42 794.14 108.19 793 119.39 793C136.79 793.41 154.01 793.66 171.21 793.66C195.53 793.66 219.79 793.17 244.39 792C261.20 791.26 278.21 791.07 295.32 791.07C314.02 791.07 332.84 791.30 351.62 791.30C408.62 791.30 465.26 789.17 517.39 772C541.39 761 569.39 743 573.39 715C573.96 712.42 574.24 709.84 574.24 707.29C574.24 685.31 554.01 665.40 531.97 665.40C529.79 665.40 527.59 665.59 525.39 666C496.39 678 496.39 719 466.39 730C364.39 745 346.39 745 285.39 746C282.44 746.04 279.35 746.06 276.16 746.06C205.91 746.06 82.39 736 82.39 736C82.39 736 84.39 652 84.39 610C84.39 571.60 85.67 524.24 85.67 489.42C85.67 480.72 85.59 472.80 85.39 466C114.97 463.51 144.67 462.28 174.37 462.28C228 462.28 281.61 466.28 334.39 474C361.39 484 362.39 522 389.39 533C391.50 533.42 393.61 533.62 395.70 533.62C415.86 533.62 434.29 514.88 434.29 494.65C434.29 492.11 434 489.55 433.39 487C429.39 461 403.39 446 381.39 436C340.03 422.21 295.29 417.71 250.32 417.71C210.47 417.71 170.44 421.24 132.39 425C116.39 427 101.39 428 85.39 430C86.39 382 91.39 335 98.39 288C108.39 262 131.39 241 157.39 238C203.21 232.56 250.05 229.79 297.09 229.79C353.74 229.79 410.66 233.80 466.39 242C496.39 253 496.39 295 525.39 307C527.52 307.39 529.66 307.58 531.77 307.58C553.89 307.58 574.24 286.92 574.24 264.73C574.24 262.16 573.96 259.58 573.39 257C569.39 229 541.39 212 517.39 201C465.26 183.83 408.62 181.70 351.62 181.70C332.84 181.70 314.02 181.93 295.32 181.93C278.21 181.93 261.20 181.74 244.39 181C219.79 179.83 186.26 179.34 159.70 179.34C140.91 179.34 125.61 179.59 119.39 180"/>
</svg>