<svg xmlns="http://www.w3.org/2000/svg" viewBox="0 0 237 1204">
  <path d="M79.20 0C74.20 0 70.20 1 66.20 4C64.20 5 63.20 7 61.20 9C59.20 11 57.20 12 56.20 14C54.20 16 54.20 19 54.20 23C54.20 27 55.20 31 58.20 34L62.20 38C63.20 39 65.20 40 67.20 41C69.20 42 70.20 42 72.20 42C74.20 42 77.20 43 80.20 42C83.20 41 85.20 41 88.20 42C91.20 43 98.20 49 98.20 49L118.20 69L138.20 89C147.20 98 153.20 103 157.20 103C161.20 103 165.20 102 169.20 99C173.20 96 177.20 93 180.20 89C181.20 88 180.20 87 181.20 85C182.20 83 182.20 82 182.20 80C182.20 78 182.20 76 181.20 74C180.20 72 180.20 71 178.20 69C175.20 66 172.20 64 169.20 62C166.20 60 162.20 60 156.20 61C153.20 62 150.20 61 147.20 60C144.20 59 136.20 51 136.20 51C136.20 51 122.20 39 115.20 32C112.20 29 110.20 26 107.20 23L98.20 14C89.20 5 83.20 0 79.20 0M169.20 180C159.20 180 147.20 181 133.20 185C115.20 189 100.20 191 87.20 191C74.20 191 65.20 189 60.20 186C49.20 180 40.20 180 34.20 186C30.79 189.41 29 194.75 29 201.84C29 207.24 30.04 213.65 32.20 221C36.20 231 44.20 237 55.20 239C60.70 240 66.95 240.75 73.95 240.75C80.95 240.75 88.70 240 97.20 238C95.20 246 94.20 255 93.20 267C92.87 271 92.76 275.44 92.76 280.11C92.76 289.44 93.20 299.67 93.20 309C93.20 348.33 92.76 387.67 92.76 427.30C92.76 447.11 92.87 467 93.20 487C93.20 503.67 94.09 539 94.09 586.19C94.09 609.78 93.87 636.33 93.20 665C92.70 673 92.45 680.25 92.45 687C92.45 693.75 92.70 700 93.20 706C94.20 718 95.20 728 97.20 736C87.24 733.66 78.31 732.69 70.42 732.69C64.83 732.69 59.76 733.17 55.20 734C44.20 736 36.20 742 32.20 752C30.04 759.35 29 765.95 29 771.56C29 778.93 30.79 784.59 34.20 788C40.20 794 49.20 793 60.20 787C65.20 784 74.20 783 87.20 783C100.20 783 115.20 785 133.20 789C146.19 792.42 157.30 793.97 166.87 793.97C171.30 793.97 175.40 793.63 179.20 793C191.20 791 199.20 785 204.20 775C206 767.36 206.99 760.73 206.99 755.20C206.99 748.42 205.50 743.30 202.20 740C196.20 734 187.20 734 176.20 740C171.20 743 161.20 745 148.20 744L145.20 738C144.20 736 143.20 732 142.20 728C139.20 718 137.20 702 136.20 678C136 673.20 135.92 668.24 135.92 663.09C135.92 642.48 137.20 618.80 137.20 590C137.20 559 136.20 523 136.20 487L136.20 383C136.20 359 135.76 339 135.76 321.22C135.76 312.33 135.87 304 136.20 296C137.20 272 139.20 255 142.20 245C143.20 241 144.20 238 145.20 236L148.20 230C161.20 229 171.20 230 176.20 233C187.20 239 196.20 239 202.20 233C205.50 229.70 206.99 224.58 206.99 217.80C206.99 212.27 206 205.64 204.20 198C199.20 188 191.20 182 179.20 180"/>
</svg>