<svg xmlns="http://www.w3.org/2000/svg" viewBox="0 0 261 1204">
  <path d="M127 0C125 0 122 1 120 2C118 3 116 4 114 6C111 9 107 13 105 17C103 21 102 26 104 33C105 37 105 41 103 45C101 49 92 59 92 59C92 59 75 77 67 85C63 89 60 91 56 95L45 106C33 117 28 124 28 130C28 136 30 141 33 146C35 149 36 151 38 153C40 155 43 157 45 159C48 161 52 162 57 162C62 162 66 160 70 156C72 154 74 153 75 151L78 145C79 143 80 141 80 138C80 135 81 133 80 129C79 126 79 122 80 119C81 116 89 106 89 106L114 81L130 65L146 81L171 106C171 106 179 116 180 119C181 122 182 126 181 129C180 133 180 135 180 138C180 141 181 143 182 145L185 151C186 153 188 154 190 156C194 160 198 162 203 162C208 162 212 161 215 159C217 157 220 155 222 153C224 151 225 149 227 146C230 141 232 136 232 130C232 124 227 117 215 106L204 95C200 91 197 89 193 85C185 77 169 59 169 59C169 59 159 49 157 45C155 41 155 37 156 33C158 26 157 21 155 17C153 13 149 9 146 6C144 4 142 3 140 2C138 1 135 0 133 0C132 0 131 1 130 1C129 1 128 0 127 0M182 180C172 180 159 181 145 185C127 189 112 191 99 191C86 191 77 189 72 186C61 180 52 180 46 186C42.59 189.41 40.80 194.75 40.80 201.84C40.80 207.24 41.84 213.65 44 221C48 231 56 237 67 239C72.50 240 78.75 240.75 85.75 240.75C92.75 240.75 100.50 240 109 238C107 246 107 255 106 267C105 279 105 295 105 309C105 348.33 104.56 387.67 104.56 427.30C104.56 447.11 104.67 467 105 487C105 503.67 105.89 539 105.89 586.19C105.89 609.78 105.67 636.33 105 665C104.71 669.69 104.59 674.12 104.59 678.34C104.59 688.53 105.29 697.51 106 706C107 718 107 728 109 736C99.04 733.66 90.11 732.69 82.21 732.69C76.63 732.69 71.56 733.17 67 734C56 736 48 742 44 752C41.84 759.35 40.80 765.95 40.80 771.56C40.80 778.93 42.59 784.59 46 788C52 794 61 793 72 787C77 784 86 783 99 783C112 783 127 785 145 789C157.98 792.42 169.10 793.97 178.67 793.97C183.10 793.97 187.20 793.63 191 793C203 791 211 785 216 775C217.80 767.36 218.79 760.73 218.79 755.20C218.79 748.42 217.30 743.30 214 740C208 734 199 734 188 740C183 743 173 745 160 744C159 742 159 740 158 738C157 736 155 732 154 728C151 718 149 702 148 678C147.80 673.20 147.72 668.24 147.72 663.09C147.72 642.48 149 618.80 149 590C149 559 148 523 148 487L148 383C148 359 147.56 339 147.56 321.22C147.56 312.33 147.67 304 148 296C149 272 151 255 154 245C155 241 157 238 158 236C159 234 159 232 160 230C173 229 183 230 188 233C199 239 208 239 214 233C217.30 229.70 218.79 224.58 218.79 217.80C218.79 212.27 217.80 205.64 216 198C211 188 203 182 191 180"/>
</svg>