<svg xmlns="http://www.w3.org/2000/svg" viewBox="0 0 292 1204">
  <path d="M69.41 26C65.41 26 61.41 27 58.41 28C54.41 29 51.41 30 48.41 32C47.41 34 44.41 35 42.41 37L34.41 45C31.41 49 30.41 54 29.41 59C28.41 64 27.41 70 28.41 75C31.41 86 36.41 95 40.41 102C44.41 109 48.41 115 53.41 119C58.41 123 63.41 126 68.41 127C73.41 128 78.41 128 83.41 128C94.41 127 104.41 124 116.41 116C121.41 111 125.41 106 127.41 100C129.41 95 130.41 89 130.41 83C130.41 77 128.41 70 123.41 62C123.41 61 122.41 59 120.41 56C118.41 53 116.41 50 113.41 46C110.41 42 105.41 39 100.41 36C95.41 33 90.41 30 84.41 28C79.41 26 73.41 26 69.41 26M202.41 26C198.41 26 194.41 27 191.41 28C187.41 29 184.41 30 181.41 32C180.41 34 177.41 35 175.41 37L167.41 45C164.41 49 163.41 54 162.41 59C161.41 64 161.41 70 162.41 75C165.41 86 169.41 95 173.41 102C177.41 109 181.41 115 186.41 119C191.41 123 196.41 126 201.41 127C206.41 128 211.41 128 216.41 128C227.41 127 238.41 124 250.41 116C255.41 111 258.41 106 260.41 100C262.41 95 263.41 89 263.41 83C263.41 77 261.41 70 256.41 62C256.41 61 255.41 59 253.41 56C251.41 53 249.41 50 246.41 46C243.41 42 239.41 39 234.41 36C229.41 33 223.41 30 217.41 28C212.41 26 206.41 26 202.41 26M197.41 180C187.41 180 174.41 181 160.41 185C142.41 189 127.41 191 114.41 191C101.41 191 92.41 189 87.41 186C76.41 180 68.41 180 62.41 186C58.75 189.66 56.58 195.56 56.58 203.46C56.58 208.51 57.47 214.38 59.41 221C63.41 231 71.41 237 82.41 239C87.91 240 94.41 240.75 101.66 240.75C108.91 240.75 116.91 240 125.41 238C123.41 246 122.41 255 121.41 267C121.08 271 120.97 275.44 120.97 280.11C120.97 289.44 121.41 299.67 121.41 309C121.41 348.33 120.97 387.67 120.97 427.30C120.97 447.11 121.08 467 121.41 487C121.41 503.67 122.30 539 122.30 586.19C122.30 609.78 122.08 636.33 121.41 665C120.91 673 120.66 680.25 120.66 687C120.66 693.75 120.91 700 121.41 706C122.41 718 123.41 728 125.41 736C115.46 733.66 106.18 732.69 98 732.69C92.21 732.69 86.97 733.17 82.41 734C71.41 736 63.41 742 59.41 752C57.47 758.63 56.58 764.64 56.58 769.87C56.58 778.07 58.75 784.34 62.41 788C68.41 794 76.41 793 87.41 787C92.41 784 101.41 783 114.41 783C127.41 783 142.41 785 160.41 789C173.40 792.42 184.98 793.97 194.84 793.97C199.41 793.97 203.61 793.63 207.41 793C219.41 791 227.41 785 232.41 775C234.21 767.36 235.20 760.73 235.20 755.20C235.20 748.42 233.72 743.30 230.41 740C224.41 734 215.41 734 204.41 740C199.41 743 189.41 745 176.41 744L173.41 738C172.41 736 171.41 732 170.41 728C167.41 718 165.41 702 164.41 678C164.21 673.20 164.13 668.24 164.13 663.09C164.13 642.48 165.41 618.80 165.41 590C165.41 559 163.41 523 163.41 487L163.41 383C163.41 347 163.41 320 164.41 296C165.41 272 167.41 255 170.41 245C171.41 241 172.41 238 173.41 236L176.41 230C189.41 229 199.41 230 204.41 233C215.41 239 224.41 239 230.41 233C233.72 229.70 235.20 224.58 235.20 217.80C235.20 212.27 234.21 205.64 232.41 198C227.41 188 219.41 182 207.41 180"/>
</svg>