<svg xmlns="http://www.w3.org/2000/svg" viewBox="0 0 625 1204">
  <path d="M262 180L253 180L252 180C227 181 201 186 175 195C147 204 121 217 98 233C81 247 67 259 57 272C53 277 49 283 45 289C41 295 39 300 38 306C37 312 36 317 38 322C40 327 43 332 48 336C53 340 59 343 64 345C69 347 75 348 80 348C85 348 89 348 94 347C99 346 103 345 107 343C116 339 125 334 133 327C139 321 144 315 147 309C150 303 153 297 155 291C157 285 160 279 163 273C166 267 170 263 176 258C182 255 188 251 194 248C199 246 206 244 212 241C217 239 221 237 226 236C223.75 250.25 222.63 267.88 222.63 288.03C222.63 294.75 222.75 301.75 223 309C224 358 224 408 224 458L200 458C142 458 125 457 116 457C98 457 83 458 72 459C61 460 53 462 49 465C45 468 41 471 38 475C35 479 33 483 32 487C30 491 30 495 30 499C30 503 30 508 31 513C33 523 39 529 47 533C52 536 57 537 61 538C65 539 71 538 76 536C81 534 85 532 90 529C95 526 100 523 105 518C111 513 122 510 137 507C145 506 154 505 182 505C197 505 211 506 225 506L225 540C225.08 546.59 225.13 552.96 225.13 559.09C225.13 625.56 220.24 665.35 212 680C203 696 198 711 195 726C194 732 194 738 194 744C182 741 171 737 160 733C113 715 30 657 30 657C66 701 106 734 153 761C169 770 186 776 204 781C208 786 212 790 217 792C225 795 234 795 242 791C243 791 242 790 243 790C259.81 793.06 277.20 794.36 294.28 794.36C299.56 794.36 304.81 794.24 310 794C338 793 364 788 391 779C418 770 443 758 465 743C487 728 507 711 524 691C541 671 555 650 566 626C577 602 584 577 589 551C592.42 533.23 593.97 515.46 593.97 497.38C593.97 489 593.63 480.55 593 472C591 445 584 418 574 391C564 363 550 338 533 315C516 292 497 272 476 254C455 236 431 222 406 210C381 198 355 190 328 185L273.32 179.75C269.55 179.75 265.77 179.83 262 180M288 228L304 228C318 228 332 231 347 234C362 237 378 243 394 251C426 266 454 287 478 313C502 339 521 370 534 405C545.36 435.59 551.38 465.42 551.38 495.81C551.38 500.20 551.25 504.59 551 509C549 544 541 576 527 606C513 636 492 663 467 686C442 709 411 727 376 738C343.51 749.14 311.03 755.11 277.74 755.11C275.16 755.11 272.58 755.07 270 755L265 755C267.47 741.01 269.26 718.22 269.26 686.63C269.26 679.83 269.18 672.62 269 665C268 610 268 559 268 513L268 507C291 507 308 505 321 500C335 494 344 486 347 475C347.10 473 347.15 471.09 347.15 469.27C347.15 452.86 343.10 443.50 335 439C332 437 328 436 324 436C317 436 310 438 302 444C295 448 285 452 268 454L268 385C269 349 270 320 272 297C274 274 278 258 282 248C285 241 287 234 288 228"/>
</svg>