<svg xmlns="http://www.w3.org/2000/svg" viewBox="0 0 440 1204">
  <path d="M188 47L177 47L178 48L176 48C162 52 148 62 141 77C139 81 138 86 138 90C138 95 141 101 146 104C152 108 159 107 164 105C169 103 173 100 176 96C179 92 179 89 180 87C181 85 182 84 182 84L182 83C186 79 192 78 197 79L198 80L201 83C203 85 205 86 205 86L205 87L218 97C228 104 240 108 252 108C256 108 260 107 264 106C278 102 292 92 299 77C301 73 302 68 302 64C302 59 299 54 294 51C288 47 281 47 276 49C271 51 268 54 265 58C262 62 261 65 260 67L258 71C254 75 248 76 243 75L242 74C241 73 240 73 239 72L235 68L223 57L222 57C212 50 200 47 188 47M381 180L375 180C354.70 189.23 343.77 226.54 343.77 291.95C343.77 297.44 343.85 303.12 344 309L347 540C347 599 345 640 340 663C338 659 336 656 334 652C314 615 294 579 275 542C256 505 237 467 217 430C207 411 198 394 190 378C182 362 175 347 168 334C161 321 156 309 152 300C148 291 145 284 144 279C143 275 142 271 142 268L142 259C142 256 143 253 144 250C145 247 147 245 148 241C149 238 150 233 150 229C150 225 150 220 149 216C148 212 147 208 145 204C143 200 141 197 138 194C133 189 127 184 123 182C119 180 114 180 109 180C107 180 104 179 102 180C98 179 93 180 88 180C67.83 189.17 57.75 226.06 57.75 290.69C57.75 296.56 57.83 302.67 58 309C59 386 59 463 60 540C60.10 547.80 60.15 555.28 60.15 562.44C60.15 626.90 56.10 665.60 48 680C39 696 33 711 30 726C29.33 731 29 735.78 29 740.41C29 749.67 30.33 758.33 33 767C37 780 43 789 52 792C60 795 69 795 77 791C85 787 92 778 97 766C102.03 755.11 104.25 730.18 104.25 690.05C104.25 682.27 104.16 673.92 104 665C103 610 103 559 103 513C103 482.33 102.56 453 102.56 425.30C102.56 411.44 102.67 398 103 385C103 359 105 336 106 317C108 320 108 323 110 326C138 378 164 427 187 472C210 517 231 558 250 596C285 666 303 712 304 734C306 756 313 773 324 784C331 791 340 795 349 794C354 794 359 794 364 791C365 790 366 790 367 789L367 788C373 783 380 776 384 766C389.03 755.11 391.25 730.18 391.25 690.05C391.25 682.27 391.16 673.92 391 665C390 610 390 559 390 513C390 482.33 389.56 453 389.56 425.30C389.56 411.44 389.67 398 390 385C391 349 392 320 394 297C396 274 399 258 403 248C408.33 235.33 411.44 223.56 411.44 212.96C411.44 207.67 410.67 202.67 409 198C405 186 395 180 381 180"/>
</svg>