<svg xmlns="http://www.w3.org/2000/svg" viewBox="0 0 657 1204">
  <path d="M359 0C355 0 348 5 339 14C336 17 334 20 331 23L322 32C315 39 302 51 302 51C302 51 293 59 290 60C287 61 284 62 281 61C275 60 271 60 268 62C265 64 263 66 260 69C258 71 257 72 256 74C255 76 255 78 255 80C255 82 255 83 256 85C257 87 257 88 258 89C261 93 264 96 268 99C272 102 276 103 280 103C284 103 291 98 300 89C307 82 319 69 319 69L340 49C340 49 346 43 349 42C352 41 355 41 358 42C361 43 363 42 365 42C367 42 368 42 370 41C372 40 374 39 375 38L379 34C382 31 384 27 384 23C384 19 383 16 381 14C380 12 379 11 377 9C375 7 373 5 371 4C367 1 364 0 359 0M306 180C294 181 281 182 268 185C243 190 220 199 197 210C174 221 153 234 134 250C115 266 100 284 87 302C71 325 58 349 49 375C40 401 34 427 32 454C31.33 463 31 472 31 480.96C31 498.89 32.33 516.67 35 534C39 560 47 586 57 610C67 634 81 657 97 678C113 699 133 719 155 736C177 752 200 766 225 775C250 784 275 791 300 793C308.33 793.67 316.78 794 325.26 794C342.22 794 359.33 792.67 376 790C401 786 426 778 449 767C472 756 495 742 515 725C535 708 554 687 570 664C586 640 599 616 608 589C617 562 623 535 625 508C625.63 499.45 625.97 490.90 625.97 482.35C625.97 463.90 624.42 445.45 621 427C616 400 608 375 597 350C587 327 574 305 558 285C542 265 524 248 503 232C479 214 454 200 429 191C408 185 390 182 374 181C367 180 361 181 354 181C347 181 341 182 336 184C331 186 326 190 323 194C320 198 318 203 318 210C318 217 318 223 320 228C322 233 323 238 326 242C329 246 332 250 335 253C338 256 341 259 345 261C353 266 363 270 373 273C381 275 388 275 395 274C402 273 409 272 415 270C421 268 427 268 433 267C439 266 446 266 453 268C459 271 464 274 470 277C475 280 481 283 487 287C493 291 497 295 502 300C509 307 518 315 526 324C534 333 542 344 549 355C556 366 563 379 569 393C575 407 578 423 581 440C583.29 455.57 584.53 471.36 584.53 487.16C584.53 505.85 582.79 524.57 579 543C572 577 557 609 536 639C515 669 491 694 462 712C433 730 402 742 370 747C356.67 749.08 343.16 750.13 329.55 750.13C310.50 750.13 291.25 748.08 272 744C239 737 208 723 179 701C150 679 126 653 109 623C92 593 80 561 75 527C72.92 512.83 71.88 498.49 71.88 484.12C71.88 464.01 73.92 443.83 78 424C85 390 99 357 120 327C130 313 141 301 152 289C163 277 175 266 187 257C199 248 211 239 224 232C237 225 248 218 260 212C287 199 315 189 343 181C334.51 180.29 325.53 179.59 316.75 179.59C313.12 179.59 309.51 179.71 306 180"/>
</svg>