<svg xmlns="http://www.w3.org/2000/svg" viewBox="0 0 656 1204">
  <path d="M324 0C322 0 319 1 317 2C315 3 313 4 311 6C308 9 304 13 302 17C300 21 299 26 301 33C302 37 302 41 300 45C298 49 289 59 289 59C289 59 272 77 264 85L254 95C250 99 246 102 242 106C230 117 225 124 225 130C225 136 227 141 230 146C232 149 234 151 236 153L242 159C245 161 249 162 254 162C259 162 263 160 267 156C269 154 271 153 272 151C273 149 275 147 276 145C277 143 278 141 278 138C278 135 278 133 277 129C276 126 277 122 278 119C279 116 286 106 286 106L311 81L327 65L343 81L368 106C368 106 376 116 377 119C378 122 379 126 378 129C377 133 377 135 377 138C377 141 378 143 379 145C380 147 382 149 383 151C384 153 386 154 388 156C392 160 396 162 401 162C406 162 409 161 412 159C414 157 417 155 419 153C421 151 423 149 425 146C428 141 430 136 430 130C430 124 424 117 412 106L401 95C397 91 394 89 390 85C382 77 366 59 366 59C366 59 356 49 354 45C352 41 352 37 353 33C355 26 354 21 352 17C350 13 347 9 344 6C342 4 339 3 337 2C335 1 332 0 330 0C329 0 328 1 327 1C326 1 325 0 324 0M305 180C293 181 280 182 267 185C242 190 219 199 196 210C173 221 152 234 133 250C114 266 99 284 86 302C70 325 57 349 48 375C39 401 33 427 31 454C30.33 463 30 472 30 480.96C30 498.89 31.33 516.67 34 534C38 560 46 586 56 610C66 634 80 657 96 678C112 699 132 719 154 736C176 752 199 766 224 775C249 784 274 791 299 793C307.33 793.67 315.78 794 324.26 794C341.22 794 358.33 792.67 375 790C400 786 425 778 448 767C471 756 494 742 514 725C534 708 553 687 569 664C585 640 598 616 607 589C616 562 622 535 624 508C624.63 499.45 624.97 490.90 624.97 482.35C624.97 463.90 623.42 445.45 620 427C615 400 607 375 596 350C586 327 573 305 557 285C541 265 523 248 502 232C478 214 453 200 428 191C407 185 389 182 373 181C366 180 360 181 353 181C346 181 340 182 335 184C330 186 325 190 322 194C319 198 317 203 317 210C317 217 317 223 319 228C321 233 322 238 325 242C328 246 331 250 334 253C337 256 340 259 344 261C352 266 362 270 372 273C380 275 387 275 394 274C401 273 408 272 414 270C420 268 426 268 432 267C438 266 445 266 452 268C458 271 463 274 469 277C474 280 480 283 486 287C492 291 496 295 501 300C508 307 517 315 525 324C533 333 541 344 548 355C555 366 562 379 568 393C574 407 577 423 580 440C582.29 455.57 583.53 471.36 583.53 487.16C583.53 505.85 581.79 524.57 578 543C571 577 556 609 535 639C514 669 490 694 461 712C432 730 401 742 369 747C355.67 749.08 342.16 750.13 328.55 750.13C309.50 750.13 290.25 748.08 271 744C238 737 207 723 178 701C149 679 125 653 108 623C91 593 79 561 74 527C71.92 512.83 70.88 498.49 70.88 484.12C70.88 464.01 72.92 443.83 77 424C84 390 98 357 119 327C129 313 140 301 151 289C162 277 174 266 186 257C198 248 210 239 223 232C236 225 247 218 259 212C286 199 314 189 342 181C333.51 180.29 324.53 179.59 315.75 179.59C312.12 179.59 308.51 179.71 305 180"/>
</svg>