<svg xmlns="http://www.w3.org/2000/svg" viewBox="0 0 657 1204">
  <path d="M252 26C248 26 244 27 241 28C237 29 234 30 231 32C230 34 227 35 225 37L217 45C214 49 212 54 211 59C210 64 210 70 211 75C214 86 219 95 223 102C227 109 231 115 236 119C241 123 246 126 251 127C256 128 260 128 265 128C276 127 287 124 299 116C304 111 308 106 310 100C312 95 313 89 313 83C313 77 311 70 306 62C306 61 305 59 303 56C301 53 299 50 296 46C293 42 288 39 283 36C278 33 273 30 267 28C262 26 256 26 252 26M385 26C381 26 377 27 374 28C370 29 367 30 364 32C363 34 360 35 358 37L350 45C347 49 346 54 345 59C344 64 343 70 344 75C347 86 352 95 356 102C360 109 364 115 369 119C374 123 379 126 384 127C389 128 394 128 399 128C410 127 420 124 432 116C437 111 441 106 443 100C445 95 446 89 446 83C446 77 444 70 439 62C439 61 438 59 436 56C434 53 432 50 429 46C426 42 421 39 416 36C411 33 406 30 400 28C395 26 389 26 385 26M306 180C294 181 281 182 268 185C243 190 220 199 197 210C174 221 153 234 134 250C115 266 100 284 87 302C71 325 58 349 49 375C40 401 34 427 32 454C31.33 463 31 472 31 480.96C31 498.89 32.33 516.67 35 534C39 560 47 586 57 610C67 634 81 657 97 678C113 699 133 719 155 736C177 752 200 766 225 775C250 784 275 791 300 793C308.33 793.67 316.78 794 325.26 794C342.22 794 359.33 792.67 376 790C401 786 426 778 449 767C472 756 495 742 515 725C535 708 554 687 570 664C586 640 599 616 608 589C617 562 623 535 625 508C625.63 499.45 625.97 490.90 625.97 482.35C625.97 463.90 624.42 445.45 621 427C616 400 608 375 597 350C587 327 574 305 558 285C542 265 524 248 503 232C479 214 454 200 429 191C408 185 390 182 374 181C367 180 361 181 354 181C347 181 341 182 336 184C331 186 326 190 323 194C320 198 318 203 318 210C318 217 318 223 320 228C322 233 323 238 326 242C329 246 332 250 335 253C338 256 341 259 345 261C353 266 363 270 373 273C381 275 388 275 395 274C402 273 409 272 415 270C421 268 427 268 433 267C439 266 446 266 453 268C459 271 464 274 470 277C475 280 481 283 487 287C493 291 497 295 502 300C509 307 518 315 526 324C534 333 542 344 549 355C556 366 563 379 569 393C575 407 578 423 581 440C583.29 455.57 584.53 471.36 584.53 487.16C584.53 505.85 582.79 524.57 579 543C572 577 557 609 536 639C515 669 491 694 462 712C433 730 402 742 370 747C356.67 749.08 343.16 750.13 329.55 750.13C310.50 750.13 291.25 748.08 272 744C239 737 208 723 179 701C150 679 126 653 109 623C92 593 80 561 75 527C72.92 512.83 71.88 498.49 71.88 484.12C71.88 464.01 73.92 443.83 78 424C85 390 99 357 120 327C130 313 141 301 152 289C163 277 175 266 187 257C199 248 211 239 224 232C237 225 248 218 260 212C287 199 315 189 343 181C334.51 180.29 325.53 179.59 316.75 179.59C313.12 179.59 309.51 179.71 306 180"/>
</svg>