<svg xmlns="http://www.w3.org/2000/svg" viewBox="0 0 321 1204">
  <path d="M55.16 487C53.16 487 50.16 487 48.16 488C46.16 489 45.16 490 43.16 491C41.16 492 40.16 494 39.16 495C38.16 496 36.16 498 35.16 500C34.16 502 34.16 503 33.16 505C31.16 511 32.16 519 35.16 527C37.16 532 42.16 538 48.16 546C54.16 554 63.16 564 74.16 576C86.16 588 97.16 600 107.16 611C117.16 622 127.16 633 137.16 643C127.16 653 118.16 663 109.16 673C98.16 685 86.16 697 75.16 709C59.16 726 47.16 741 40.16 753C33.16 765 30.16 775 33.16 784L34.16 785C38.16 789 41.16 793 46.16 794C51.16 795 56.16 794 61.16 791C65.16 788 70.16 784 73.16 780C76.16 776 79.16 770 81.16 764C85.16 754 102.16 732 131.16 700C137.16 694 142.16 687 148.16 681C152.16 677 156.16 672 160.16 668C164.16 672 167.16 677 171.16 681C177.16 687 183.16 694 189.16 700C218.16 732 235.16 754 239.16 764C241.16 770 244.16 776 247.16 780C250.16 784 255.16 788 259.16 791C264.16 794 268.16 795 273.16 794C278.16 793 282.16 789 286.16 785L286.16 784L287.16 784C287.85 781.94 288.17 779.82 288.17 777.64C288.17 770.31 284.55 762.25 279.16 753C272.16 741 261.16 726 245.16 709C234.16 697 222.16 685 211.16 673C202.16 663 192.16 653 182.16 643C192.16 633 202.16 622 212.16 611C222.16 600 233.16 588 245.16 576C256.16 564 265.16 554 272.16 546C278.16 538 283.16 532 285.16 527C288.16 519 289.16 511 287.16 505C286.16 503 285.16 502 284.16 500C283.16 498 282.16 496 281.16 495C280.16 494 279.16 492 277.16 491C275.16 490 274.16 489 272.16 488C270.16 487 266.16 487 264.16 487L262.16 487C258.16 487 255.16 489 251.16 491C249.16 492 247.16 495 245.16 497C243.16 499 241.16 500 240.16 503C239.16 505 238.16 508 237.16 511C236.16 514 235.16 516 235.16 519L235.16 525L235.16 529C235.16 530 234.16 533 233.16 534C232.16 535 232.16 537 231.16 539C230.16 541 227.16 544 224.16 548C220.16 552 215.16 558 210.16 564C205.16 570 199.16 577 192.16 584C185.16 591 178.16 599 170.16 608L164.16 614C162.16 616 162.16 617 160.16 619L155.16 614C153.16 612 152.16 610 150.16 608C142.16 599 135.16 591 128.16 584C121.16 577 114.16 570 109.16 564C104.16 558 100.16 552 96.16 548C93.16 544 90.16 541 89.16 539C88.16 537 88.16 535 87.16 534C86.16 533 85.16 530 85.16 529C85.16 528 84.16 526 84.16 525L84.16 519C84.16 516 84.16 514 83.16 511C82.16 508 80.16 505 79.16 503C78.16 500 77.16 499 75.16 497C73.16 495 70.16 492 68.16 491C64.16 489 62.16 487 58.16 487"/>
</svg>