<svg xmlns="http://www.w3.org/2000/svg" viewBox="0 0 756 1204">
  <path d="M685.51 180C679.51 180 671.51 181 662.51 185C657.51 187 653.51 190 649.51 193C645.51 196 640.51 200 636.51 205C632.51 210 629.51 215 626.51 220C623.51 225 621.51 231 620.51 236C619.51 241 618.51 245 617.51 249C616.51 253 615.51 257 613.51 261C611.51 265 609.51 268 607.51 272C606.51 274 604.51 277 602.51 280C587.51 263 570.51 246 551.51 232C527.51 214 503.51 200 478.51 191C457.51 185 438.51 182 422.51 181C415.51 180 409.51 181 402.51 181C395.51 181 390.51 182 385.51 184C380.51 186 375.51 190 372.51 194C369.51 198 366.51 203 366.51 210C366.51 217 366.51 223 368.51 228C370.51 233 371.51 238 374.51 242C377.51 246 380.51 250 383.51 253C386.51 256 390.51 259 394.51 261C402.51 266 412.51 270 422.51 273C430.51 275 437.51 275 444.51 274C451.51 273 457.51 272 463.51 270C469.51 268 475.51 268 481.51 267C487.51 266 494.51 266 501.51 268L519.51 277C524.51 280 529.51 283 535.51 287C541.51 291 546.51 295 551.51 300C556.51 304 560.51 310 565.51 315C557.51 322 548.51 329 538.51 337C523.51 349 504.51 362 485.51 377C466.51 392 444.51 408 422.51 425L407.51 437C402.51 441 397.51 444 392.51 448L347.51 482C314.51 506 282.51 531 250.51 554C219.51 577 189.51 600 158.51 623C141.51 593 129.51 561 124.51 527C122.42 512.83 121.38 498.49 121.38 484.12C121.38 464.01 123.42 443.83 127.51 424C134.51 390 147.51 357 168.51 327C178.51 313 189.51 301 200.51 289C211.51 277 223.51 266 235.51 257C247.51 248 260.51 239 273.51 232C286.51 225 297.51 218 309.51 212C336.51 199 364.51 189 392.51 181C384.02 180.29 374.54 179.59 365.46 179.59C361.71 179.59 358.02 179.71 354.51 180C342.51 181 330.51 182 317.51 185C292.51 190 268.51 199 245.51 210C222.51 221 202.51 234 183.51 250C164.51 266 148.51 284 135.51 302C119.51 325 107.51 349 98.51 375C89.51 401 82.51 427 80.51 454C79.84 463 79.51 472 79.51 480.96C79.51 498.89 80.84 516.67 83.51 534C87.51 560 95.51 586 105.51 610C111.51 623 117.51 636 124.51 648C60.17 699.28 28 738.40 28 765.33C28 767.29 28.17 769.18 28.51 771C37.34 786.46 48.34 793.79 61.51 793.79C66.23 793.79 71.23 792.85 76.51 791C86.51 787 95.51 781 104.51 773C113.51 765 121.51 755 129.51 742C135.51 732 148.51 718 165.51 701C177.51 713 189.51 725 203.51 736C225.51 752 249.51 766 274.51 775C299.51 784 324.51 791 349.51 793C357.84 793.67 366.28 794 374.77 794C391.73 794 408.84 792.67 425.51 790C450.51 786 475.51 778 498.51 767C521.51 756 544.51 742 564.51 725C584.51 708 602.51 687 618.51 664C634.51 640 648.51 616 657.51 589C666.51 562 671.51 535 673.51 508C674.14 499.45 674.47 490.90 674.47 482.35C674.47 463.90 672.92 445.45 669.51 427C664.51 400 657.51 375 646.51 350C644.51 345 641.51 339 638.51 334C679.51 301 704.51 279 712.51 266C721.67 249.51 726.63 235.54 726.63 224.85C726.63 223.87 726.59 222.92 726.51 222C726.51 219 724.51 216 722.51 212C720.51 208 719.51 205 717.51 202C715.51 199 712.51 195 709.51 192L702.51 185C698.51 182 693.51 181 689.51 180M602.51 362C608.51 372 612.51 382 617.51 393C623.51 407 627.51 423 630.51 440C632.59 454.17 633.63 468.51 633.63 482.88C633.63 502.99 631.59 523.17 627.51 543C620.51 577 606.51 609 585.51 639C564.51 669 539.51 694 510.51 712C481.51 730 450.51 742 418.51 747C405.17 749.08 391.67 750.13 378.06 750.13C359.01 750.13 339.76 748.08 320.51 744C287.51 737 256.51 723 227.51 701C216.51 692 206.51 683 196.51 673C218.51 654 245.51 632 277.51 607C293.51 595 310.51 582 326.51 569C342.51 556 360.51 543 378.51 530L422.51 496C450.51 475 479.51 453 508.51 431C537.51 409 568.51 386 601.51 362"/>
</svg>