<svg xmlns="http://www.w3.org/2000/svg" viewBox="0 0 420 1204">
  <path d="M171.44 0C166.44 0 162.44 1 158.44 4C156.44 5 155.44 7 153.44 9C151.44 11 149.44 12 148.44 14C146.44 16 146.44 19 146.44 23C146.44 27 147.44 31 150.44 34L154.44 38C155.44 39 157.44 40 159.44 41C161.44 42 162.44 42 164.44 42C166.44 42 169.44 43 172.44 42C175.44 41 177.44 41 180.44 42C183.44 43 190.44 49 190.44 49L210.44 69L230.44 89C239.44 98 245.44 103 249.44 103C253.44 103 257.44 102 261.44 99C265.44 96 268.44 93 271.44 89C272.44 88 272.44 87 273.44 85C274.44 83 274.44 82 274.44 80C274.44 78 274.44 76 273.44 74C272.44 72 272.44 71 270.44 69C267.44 66 264.44 64 261.44 62C258.44 60 254.44 60 248.44 61C245.44 62 242.44 61 239.44 60C236.44 59 228.44 51 228.44 51C228.44 51 214.44 39 207.44 32C204.44 29 202.44 26 199.44 23L190.44 14C181.44 5 175.44 0 171.44 0M59.44 180C45.44 180 35.44 186 31.44 198C29.78 202.67 29 207.67 29 212.96C29 223.56 32.11 235.33 37.44 248C41.44 258 44.44 274 46.44 297C48.44 320 49.44 349 50.44 385C51.44 424 51.44 467 51.44 513C51.44 540 50.44 569 50.44 599C46.44 602 42.44 606 42.44 609L40.44 620C40.10 623.49 39.93 626.94 39.93 630.37C39.93 646.62 43.66 662.31 49.44 678C49.44 725 52.44 754 57.44 766C62.44 778 69.44 787 77.44 791C85.44 795 93.44 795 101.44 792C110.44 789 117.44 780 121.44 767L121.44 765C148.75 781.21 180.42 790.87 212.12 790.87C217.57 790.87 223.02 790.59 228.44 790C258.44 787 286.44 776 310.44 759C321.44 751 331.44 743 340.44 733C349.44 723 356.44 712 361.44 700C368.44 682 370.44 663 370.44 643C370.44 597 369.44 553 369.44 513C369.44 467 369.44 424 370.44 385C371.44 349 371.44 320 373.44 297C375.44 274 379.44 258 383.44 248C388.51 235.97 391.17 224.74 391.17 214.56C391.17 208.67 390.28 203.13 388.44 198C384.44 186 375.44 180 361.44 180L354.44 180C334.28 189.17 324.19 226.06 324.19 290.69C324.19 296.56 324.28 302.67 324.44 309C325.44 386 325.44 463 326.44 540C326.44 566.25 328.13 591.94 328.13 617.48C328.13 626 327.94 634.50 327.44 643C326.44 664 317.44 684 304.44 700C286.44 721 259.44 738 233.44 742C228.46 742.71 223.34 743.06 218.14 743.06C179.49 743.06 136.48 723.97 114.44 694C109.08 687.02 107.17 678.03 107.17 668.72C107.17 660.69 108.59 652.41 110.44 645C110.44 630 105.44 613 94.44 602C93.44 584 93.44 564 93.44 540L96.44 309C96.60 303.12 96.68 297.44 96.68 291.95C96.68 226.54 85.74 189.23 65.44 180M39.44 622"/>
</svg>