<svg xmlns="http://www.w3.org/2000/svg" viewBox="0 0 420 1204">
  <path d="M207.44 0C205.44 0 202.44 1 200.44 2C198.44 3 196.44 4 194.44 6C191.44 9 187.44 13 185.44 17C183.44 21 182.44 26 184.44 33C185.44 37 185.44 41 183.44 45C181.44 49 171.44 59 171.44 59C171.44 59 155.44 77 147.44 85C143.44 89 140.44 91 136.44 95L125.44 106C113.44 117 107.44 124 107.44 130C107.44 136 109.44 141 112.44 146C114.44 149 116.44 151 118.44 153C120.44 155 123.44 157 125.44 159C128.44 161 131.44 162 136.44 162C141.44 162 146.44 160 150.44 156C152.44 154 153.44 153 154.44 151C155.44 149 157.44 147 158.44 145C159.44 143 160.44 141 160.44 138C160.44 135 160.44 133 159.44 129C158.44 126 159.44 122 160.44 119C161.44 116 169.44 106 169.44 106L194.44 81L210.44 65L226.44 81L251.44 106C251.44 106 259.44 116 260.44 119C261.44 122 261.44 126 260.44 129C259.44 133 259.44 135 259.44 138C259.44 141 260.44 143 261.44 145C262.44 147 264.44 149 265.44 151C266.44 153 268.44 154 270.44 156C274.44 160 278.44 162 283.44 162C288.44 162 292.44 161 295.44 159C297.44 157 300.44 155 302.44 153C304.44 151 305.44 149 307.44 146C310.44 141 312.44 136 312.44 130C312.44 124 307.44 117 295.44 106L284.44 95C280.44 91 277.44 89 273.44 85C265.44 77 248.44 59 248.44 59C248.44 59 239.44 49 237.44 45C235.44 41 235.44 37 236.44 33C238.44 26 237.44 21 235.44 17C233.44 13 229.44 9 226.44 6C224.44 4 222.44 3 220.44 2C218.44 1 215.44 0 213.44 0C212.44 0 211.44 1 210.44 1C209.44 1 208.44 0 207.44 0M59.44 180C45.44 180 35.44 186 31.44 198C29.78 202.67 29 207.67 29 212.96C29 223.56 32.11 235.33 37.44 248C41.44 258 44.44 274 46.44 297C48.44 320 49.44 349 50.44 385C51.44 424 51.44 467 51.44 513C51.44 540 50.44 569 50.44 599C46.44 602 42.44 606 42.44 609L40.44 620C40.10 623.49 39.93 626.94 39.93 630.37C39.93 646.62 43.66 662.31 49.44 678C49.44 725 52.44 754 57.44 766C62.44 778 69.44 787 77.44 791C85.44 795 93.44 795 101.44 792C110.44 789 117.44 780 121.44 767L121.44 765C148.75 781.21 180.42 790.87 212.12 790.87C217.57 790.87 223.02 790.59 228.44 790C258.44 787 286.44 776 310.44 759C321.44 751 331.44 743 340.44 733C349.44 723 356.44 712 361.44 700C368.44 682 370.44 663 370.44 643C370.44 597 369.44 553 369.44 513C369.44 467 369.44 424 370.44 385C371.44 349 371.44 320 373.44 297C375.44 274 379.44 258 383.44 248C388.51 235.97 391.17 224.74 391.17 214.56C391.17 208.67 390.28 203.13 388.44 198C384.44 186 375.44 180 361.44 180L354.44 180C334.28 189.17 324.19 226.06 324.19 290.69C324.19 296.56 324.28 302.67 324.44 309C325.44 386 325.44 463 326.44 540C326.44 566.25 328.13 591.94 328.13 617.48C328.13 626 327.94 634.50 327.44 643C326.44 664 317.44 684 304.44 700C286.44 721 259.44 738 233.44 742C228.46 742.71 223.34 743.06 218.14 743.06C179.49 743.06 136.48 723.97 114.44 694C109.08 687.02 107.17 678.03 107.17 668.72C107.17 660.69 108.59 652.41 110.44 645C110.44 630 105.44 613 94.44 602C93.44 584 93.44 564 93.44 540L96.44 309C96.60 303.12 96.68 297.44 96.68 291.95C96.68 226.54 85.74 189.23 65.44 180M39.44 622"/>
</svg>