<svg xmlns="http://www.w3.org/2000/svg" viewBox="0 0 420 1204">
  <path d="M134.44 26C130.44 26 125.44 27 122.44 28C118.44 29 116.44 30 113.44 32C112.44 34 109.44 35 107.44 37C105.44 39 102.44 42 99.44 45C96.44 49 94.44 54 93.44 59C92.44 64 92.44 70 93.44 75C96.44 86 100.44 95 104.44 102C108.44 109 113.44 115 118.44 119C123.44 123 127.44 126 132.44 127C137.44 128 142.44 128 147.44 128C158.44 127 169.44 124 181.44 116C186.44 111 189.44 106 191.44 100C193.44 95 194.44 89 194.44 83C194.44 77 193.44 70 188.44 62C188.44 61 187.44 59 185.44 56C183.44 53 180.44 50 177.44 46C174.44 42 170.44 39 165.44 36C160.44 33 154.44 30 148.44 28C143.44 26 138.44 26 134.44 26M267.44 26C263.44 26 258.44 27 255.44 28C251.44 29 249.44 30 246.44 32C245.44 34 242.44 35 240.44 37L232.44 45C229.44 49 227.44 54 226.44 59C225.44 64 225.44 70 226.44 75C229.44 86 233.44 95 237.44 102C241.44 109 246.44 115 251.44 119C256.44 123 261.44 126 266.44 127C271.44 128 275.44 128 280.44 128C291.44 127 302.44 124 314.44 116C319.44 111 322.44 106 324.44 100C326.44 95 328.44 89 328.44 83C328.44 77 326.44 70 321.44 62C321.44 61 320.44 59 318.44 56C316.44 53 313.44 50 310.44 46C307.44 42 303.44 39 298.44 36C293.44 33 287.44 30 281.44 28C276.44 26 271.44 26 267.44 26M59.44 180C45.44 180 35.44 186 31.44 198C29.78 202.67 29 207.67 29 212.96C29 223.56 32.11 235.33 37.44 248C41.44 258 44.44 274 46.44 297C48.44 320 49.44 349 50.44 385C51.44 424 51.44 467 51.44 513C51.44 540 50.44 569 50.44 599C46.44 602 42.44 606 42.44 609L40.44 620C40.10 623.49 39.93 626.94 39.93 630.37C39.93 646.62 43.66 662.31 49.44 678C49.44 725 52.44 754 57.44 766C62.44 778 69.44 787 77.44 791C85.44 795 93.44 795 101.44 792C110.44 789 117.44 780 121.44 767L121.44 765C148.75 781.21 180.42 790.87 212.12 790.87C217.57 790.87 223.02 790.59 228.44 790C258.44 787 286.44 776 310.44 759C321.44 751 331.44 743 340.44 733C349.44 723 356.44 712 361.44 700C368.44 682 370.44 663 370.44 643C370.44 597 369.44 553 369.44 513C369.44 467 369.44 424 370.44 385C371.44 349 371.44 320 373.44 297C375.44 274 379.44 258 383.44 248C388.51 235.97 391.17 224.74 391.17 214.56C391.17 208.67 390.28 203.13 388.44 198C384.44 186 375.44 180 361.44 180L354.44 180C334.28 189.17 324.19 226.06 324.19 290.69C324.19 296.56 324.28 302.67 324.44 309C325.44 386 325.44 463 326.44 540C326.44 566.25 328.13 591.94 328.13 617.48C328.13 626 327.94 634.50 327.44 643C326.44 664 317.44 684 304.44 700C286.44 721 259.44 738 233.44 742C228.46 742.71 223.34 743.06 218.14 743.06C179.49 743.06 136.48 723.97 114.44 694C109.08 687.02 107.17 678.03 107.17 668.72C107.17 660.69 108.59 652.41 110.44 645C110.44 630 105.44 613 94.44 602C93.44 584 93.44 564 93.44 540L96.44 309C96.60 303.12 96.68 297.44 96.68 291.95C96.68 226.54 85.74 189.23 65.44 180M39.44 622"/>
</svg>