<svg xmlns="http://www.w3.org/2000/svg" viewBox="0 0 435 1204">
  <path d="M257 26C253 26 246 31 237 40C234 43 232 46 229 49C226 52 223 54 220 57L200 77C200 77 192 85 189 86C186 87 182 88 179 87C173 86 169 86 166 88C163 90 161 92 158 95C156 97 155 98 154 100C153 102 153 103 153 105C153 107 153 108 154 110C155 112 155 113 156 114C159 118 162 121 166 124C170 127 174 128 178 128C182 128 189 124 198 115C205 108 217 95 217 95L238 75C238 75 244 69 247 68C250 67 253 66 256 67C259 68 261 68 263 68C265 68 267 67 269 66C271 65 272 64 273 63C274 62 277 61 278 60C281 57 282 53 282 49C282 45 281 42 279 40C278 38 277 37 275 35C273 33 271 31 269 30C265 27 262 26 257 26M61 180C50 180 41 188 34 203C31 210 29 217 29 224C29 231 29 238 30 244C31 250 34 255 37 261C40 267 44 271 47 276C50 280 55 286 61 294C67 302 75 311 83 321C91 331 100 340 109 351C118 362 128 372 137 383C144 391 165 421 172 443C187.50 490.89 188.60 525.39 188.60 578.29C188.60 587.13 188.57 596.49 188.57 606.50C188.57 621.65 188.64 638.31 189 657C189 667 189 676 187 683C185 690 183 695 180 700C177 705 173 709 170 712C167 715 164 718 161 722C158 726 156 730 154 734C152 738 152 744 152 751C153 769 158 782 167 789C171.50 792.50 176.50 794.25 182.25 794.25C188 794.25 194.50 792.50 202 789C209 786 215 781 220 776C225 771 228 766 231 760C234 754 237 748 238 742C239 736 240 730 240 724C240 719 241 711 241 701L241 667C241 654 240 640 240 626C239.50 588.50 237.50 557.25 237.50 527.88C237.50 498.50 239.50 471 247 441C253 418 271 387 277 377C292 349 306 324 319 300C324 291 329 284 334 279C339 274 344 271 349 268C354 265 358 263 363 262C368 261 372 260 376 258C380 256 384 254 388 251C392 248 396 244 399 238C404.02 227.96 406.29 218.70 406.29 210.73C406.29 206 405.49 201.72 404 198C400 188 391 181 374 180C366 179 359 180 352 182C345 184 339 188 334 191C329 194 323 198 319 203C315 208 312 212 309 217C306 222 302 228 297 237C292 246 286 255 280 266C274 277 267 289 260 301C253 313 246 326 239 338C232 350 226 362 220 373C217 378 213 384 210 390C202 381 195 372 186 361C165 337 146 315 128 295C121 287 117 279 114 273C111 267 109 261 108 256C107 251 108 246 108 241L108 227C108 222 107 217 106 213C105 209 102 204 97 199C84 186 72 180 61 180"/>
</svg>