<svg xmlns="http://www.w3.org/2000/svg" viewBox="0 0 367 1204">
  <path d="M87 182C62.87 194.07 56.56 220.25 56.56 276.56C56.56 285.58 56.72 295.37 57 306C58 383 59 460 60 538C60.08 544.59 60.13 550.96 60.13 557.11C60.13 623.72 55.24 664.35 47 679C38 695 33 710 30 725C29.33 730 29 734.89 29 739.67C29 749.22 30.33 758.33 33 767C37 780 43 789 52 792C60 795 68 795 76 791C84 787 91 778 96 766C101.24 754.65 104.19 727.30 104.19 683.94C104.19 677.63 104.13 670.99 104 664C104 635 103 606 103 579C114 588 135 605 157 609C172.38 612.08 186.79 613.52 200.22 613.52C289.51 613.52 335.71 549.61 335.71 475.07C335.71 458.71 333.49 441.83 329 425C304 351 237 321 188 321C170 321 152 323 135 329C124 333 114 338 104 344C105 325 106 308 107 294C109 271 112 255 116 245C121.07 232.97 123.73 221.74 123.73 211.56C123.73 205.67 122.83 200.13 121 195C118 186 106.56 179.81 96.39 179.81C93 179.81 89.75 180.50 87 182M290 481C289 533 253 573 196 576C193.84 576.12 191.73 576.18 189.65 576.18C140.59 576.18 112.55 543.27 102 526L102 430C104 422 107 414 112 407C122 394 135 381 151 376C160.47 373.03 171.29 371.44 182.62 371.44C231.59 371.44 290.03 401.20 290.03 477.84C290.03 478.88 290.02 479.94 290 481"/>
</svg>