<svg xmlns="http://www.w3.org/2000/svg" viewBox="0 0 446 1204">
  <path d="M94 180L88 180C67.83 189.17 57.75 226.06 57.75 290.69C57.75 296.56 57.83 302.67 58 309C59 386 59 463 60 540C60.08 546.59 60.13 552.96 60.13 559.09C60.13 625.56 55.24 665.35 47 680C38 696 33 711 30 726C29.33 731 29 735.78 29 740.41C29 749.67 30.33 758.33 33 767C37 780 43 789 52 792C60 795 69 795 77 791C85 787 92 778 97 766C102.03 755.11 104.25 730.18 104.25 690.05C104.25 682.27 104.16 673.92 104 665C103 610 103 559 103 513C103 482.33 102.56 453 102.56 425.30C102.56 411.44 102.67 398 103 385C104 349 105 320 107 297C109 274 113 258 117 248C118 247 118 245 118 244C125 240 134 237 140 235C154 231 168 228 183 228C198 228 211 231 224 237C237 243 248 250 257 260C266 270 274 281 279 294C284 307 286 320 286 335C286 350 284 363 279 375C264 413 233 423 233 462C233 475 238 486 246 497C269 528 309 539 332 561C342 571 350 582 355 594C360 606 363 619 364 633C364.13 634.81 364.19 636.60 364.19 638.38C364.19 650.38 361.35 661.81 357 674C352 688 345 701 336 711C327 721 318 729 308 735C298 741 287 744 276 746C265 748 255 747 246 744C241 742 237 739 234 737C231 735 229 733 227 731C225 729 223 727 222 725C220 723 218 721 215 719C210 716 205 713 198 711C191 709 185 708 178 708C173 708 169 710 165 712C161 714 157 720 154 728C153 732 152 735 153 739C154 743 155 746 157 749C159 752 162 756 165 759C168 762 171 764 175 766C184 772 193 777 205 782L257.61 792.19C260.08 792.19 262.54 792.12 265 792C285 791 305 787 323 779C341 771 356 759 370 745C384 731 395 712 402 692C409.19 674.02 413.15 656.04 413.15 638.06C413.15 636.04 413.10 634.02 413 632C412 612 408 592 400 574C380 528 342 508 311 495C296.54 489.21 281.55 477.15 281.55 461.84C281.55 455.98 283.74 449.64 289 443C303 428 312 417 322 395C330 377 335 357 335 336C335 315 332 295 324 276C316 257 306 240 292 226C278 212 263 201 244 193C225 185 205 180 184 180C163 180 143 183 124 191C123 192 122 192 120 193C115 184 106 180 94 180"/>
</svg>