<svg xmlns="http://www.w3.org/2000/svg" viewBox="0 0 422 1204">
  <path d="M171.74 333C166.74 333 162.74 334 158.74 337C156.74 338 155.74 340 153.74 342C151.74 344 149.74 345 148.74 347C146.74 349 146.74 352 146.74 356C146.74 360 147.74 364 150.74 367L154.74 371C155.74 372 157.74 373 159.74 374C161.74 375 163.74 375 165.74 375C167.74 375 169.74 375 172.74 374C175.74 373 177.74 374 180.74 375C183.74 376 190.74 382 190.74 382L210.74 402L230.74 422C239.74 431 245.74 436 249.74 436C253.74 436 257.74 434 261.74 431C265.74 428 269.74 426 272.74 422C273.74 421 273.74 420 274.74 418C275.74 416 274.74 414 274.74 412C274.74 410 274.74 409 273.74 407C272.74 405 272.74 404 270.74 402C267.74 399 264.74 397 261.74 395C258.74 393 254.74 393 248.74 394C245.74 395 242.74 394 239.74 393C236.74 392 228.74 384 228.74 384C228.74 384 214.74 372 207.74 365C204.74 362 202.74 359 199.74 356L190.74 347C181.74 338 175.74 333 171.74 333M173.74 487C161.74 487 149.74 490 138.74 493C80.74 510 35.74 565 30.74 626C30.24 630.79 30 635.60 30 640.40C30 693.71 59.95 746.40 106.74 773C127.58 784.78 150.89 793.28 175.18 793.28C177.69 793.28 180.21 793.19 182.74 793C182.74 793 189.74 793 192.74 792C195.74 791 197.74 789 199.74 787C205.74 780 211.74 767 206.74 757C199.74 739 177.74 731 159.74 731C153.34 732.37 146.32 733.53 139.44 733.53C131.25 733.53 123.26 731.89 116.74 727C89.73 706.96 72.59 670.23 72.59 635.97C72.59 630.91 72.97 625.89 73.74 621C78.74 586 108.74 552 141.74 539C154.74 534 169.74 531 184.74 531C209.74 531 235.74 538 255.74 551C275.74 563 290.74 585 299.74 607C299.74 628 297.74 668 297.74 668C297.74 668 297.74 692 294.74 699C291.74 706 287.74 711 281.74 714C270.74 721 265.74 728 263.74 735C261.74 742 260.74 749 260.74 756C260.74 761 261.74 767 263.74 772C264.74 776 265.74 779 269.74 783C272.74 786 276.74 788 279.74 790C282.74 792 285.74 793 288.74 793C298.74 795 307.74 794 318.74 792C328.74 790 337.74 786 344.74 780C350.63 774.95 352.98 762.11 352.98 741.47C352.98 737.59 352.90 733.43 352.74 729L352.74 669L352.74 606C352.74 606 354.74 586 357.74 580C360.74 574 364.74 570 369.74 567C375.74 564 378.74 560 381.74 557C384.74 554 386.74 550 387.74 546C388.74 542 390.74 538 390.74 534L390.74 521C390.74 512 387.74 505 381.74 499C375.74 493 369.74 489 363.74 488C358.74 487 353.74 487 348.74 487C343.74 487 337.74 488 332.74 489C323.74 491 314.74 494 307.74 501C302.74 506 299.74 517 298.74 534C282.74 518 262.74 506 244.74 498C220.74 487 197.74 487 173.74 487"/>
</svg>