<svg xmlns="http://www.w3.org/2000/svg" viewBox="0 0 422 1204">
  <path d="M208.74 323C206.74 323 204.74 323 202.74 324C200.74 325 199.74 326 198.74 327C195.74 330 193.74 333 191.74 336C189.74 339 189.74 343 190.74 348C191.74 351 190.74 354 189.74 357C188.74 360 181.74 367 181.74 367C181.74 367 168.74 381 162.74 387L154.74 395C151.74 398 148.74 400 145.74 403C136.74 411 132.74 418 132.74 422C132.74 426 134.74 431 136.74 434C137.74 436 138.74 437 140.74 439C142.74 441 143.74 443 145.74 444C147.74 445 150.74 446 154.74 446C158.74 446 161.74 445 164.74 442L168.74 438C169.74 437 170.74 435 171.74 433C172.74 431 172.74 430 172.74 428C172.74 426 173.74 424 172.74 421C171.74 418 171.74 416 172.74 413C173.74 410 179.74 404 179.74 404L198.74 384L210.74 372L222.74 384L241.74 404C241.74 404 247.74 410 248.74 413C249.74 416 250.74 418 249.74 421C248.74 424 248.74 426 248.74 428C248.74 430 248.74 431 249.74 433C250.74 435 251.74 437 252.74 438L256.74 442C259.74 445 262.74 446 266.74 446C270.74 446 273.74 445 275.74 444C277.74 443 278.74 441 280.74 439C282.74 437 283.74 436 284.74 434C286.74 431 288.74 426 288.74 422C288.74 418 284.74 411 275.74 403C272.74 400 269.74 398 266.74 395L258.74 387C252.74 381 239.74 367 239.74 367C239.74 367 232.74 360 231.74 357C230.74 354 229.74 351 230.74 348C231.74 343 231.74 339 229.74 336C227.74 333 225.74 330 222.74 327C221.74 326 220.74 325 218.74 324C216.74 323 214.74 323 212.74 323L210.74 323M173.74 487C161.74 487 149.74 490 138.74 493C80.74 510 35.74 565 30.74 626C30.24 630.79 30 635.60 30 640.40C30 693.71 59.95 746.40 106.74 773C127.58 784.78 150.89 793.28 175.18 793.28C177.69 793.28 180.21 793.19 182.74 793C182.74 793 189.74 793 192.74 792C195.74 791 197.74 789 199.74 787C205.74 780 211.74 767 206.74 757C199.74 739 177.74 731 159.74 731C153.34 732.37 146.32 733.53 139.44 733.53C131.25 733.53 123.26 731.89 116.74 727C89.73 706.96 72.59 670.23 72.59 635.97C72.59 630.91 72.97 625.89 73.74 621C78.74 586 108.74 552 141.74 539C154.74 534 169.74 531 184.74 531C209.74 531 235.74 538 255.74 551C275.74 563 290.74 585 299.74 607C299.74 628 297.74 668 297.74 668C297.74 668 297.74 692 294.74 699C291.74 706 287.74 711 281.74 714C270.74 721 265.74 728 263.74 735C261.74 742 260.74 749 260.74 756C260.74 761 261.74 767 263.74 772C264.74 776 265.74 779 269.74 783C272.74 786 276.74 788 279.74 790C282.74 792 285.74 793 288.74 793C298.74 795 307.74 794 318.74 792C328.74 790 337.74 786 344.74 780C350.63 774.95 352.98 762.11 352.98 741.47C352.98 737.59 352.90 733.43 352.74 729L352.74 669L352.74 606C352.74 606 354.74 586 357.74 580C360.74 574 364.74 570 369.74 567C375.74 564 378.74 560 381.74 557C384.74 554 386.74 550 387.74 546C388.74 542 390.74 538 390.74 534L390.74 521C390.74 512 387.74 505 381.74 499C375.74 493 369.74 489 363.74 488C358.74 487 353.74 487 348.74 487C343.74 487 337.74 488 332.74 489C323.74 491 314.74 494 307.74 501C302.74 506 299.74 517 298.74 534C282.74 518 262.74 506 244.74 498C220.74 487 197.74 487 173.74 487"/>
</svg>