<svg xmlns="http://www.w3.org/2000/svg" viewBox="0 0 422 1204">
  <path d="M134.74 333C130.74 333 126.74 334 123.74 335C119.74 336 116.74 337 113.74 339C112.74 341 109.74 342 107.74 344C105.74 346 102.74 350 99.74 353C96.74 357 94.74 361 93.74 366C92.74 371 92.74 377 93.74 382C96.74 393 100.74 402 104.74 409C108.74 416 113.74 422 118.74 426C123.74 430 128.74 433 133.74 434C138.74 435 142.74 436 147.74 436C158.74 435 169.74 431 181.74 423C186.74 418 189.74 414 191.74 408C193.74 403 195.74 397 195.74 391C195.74 385 193.74 377 188.74 369C188.74 368 187.74 367 185.74 364C183.74 361 180.74 357 177.74 353C174.74 349 170.74 346 165.74 343C160.74 340 154.74 337 148.74 335C143.74 333 138.74 333 134.74 333M267.74 333C263.74 333 259.74 334 256.74 335C252.74 336 249.74 337 246.74 339C245.74 341 242.74 342 240.74 344C238.74 346 235.74 350 232.74 353C229.74 357 227.74 361 226.74 366C225.74 371 225.74 377 226.74 382C229.74 393 234.74 402 238.74 409C242.74 416 246.74 422 251.74 426C256.74 430 261.74 433 266.74 434C271.74 435 275.74 436 280.74 436C291.74 435 302.74 431 314.74 423C319.74 418 323.74 414 325.74 408C327.74 403 328.74 397 328.74 391C328.74 385 326.74 377 321.74 369C321.74 368 320.74 367 318.74 364C316.74 361 313.74 357 310.74 353C307.74 349 303.74 346 298.74 343C293.74 340 287.74 337 281.74 335C276.74 333 271.74 333 267.74 333M173.74 487C161.74 487 149.74 490 138.74 493C80.74 510 35.74 565 30.74 626C30.24 630.79 30 635.60 30 640.40C30 693.71 59.95 746.40 106.74 773C127.58 784.78 150.89 793.28 175.18 793.28C177.69 793.28 180.21 793.19 182.74 793C182.74 793 189.74 793 192.74 792C195.74 791 197.74 789 199.74 787C205.74 780 211.74 767 206.74 757C199.74 739 177.74 731 159.74 731C153.34 732.37 146.32 733.53 139.44 733.53C131.25 733.53 123.26 731.89 116.74 727C89.73 706.96 72.59 670.23 72.59 635.97C72.59 630.91 72.97 625.89 73.74 621C78.74 586 108.74 552 141.74 539C154.74 534 169.74 531 184.74 531C209.74 531 235.74 538 255.74 551C275.74 563 290.74 585 299.74 607C299.74 628 297.74 668 297.74 668C297.74 668 297.74 692 294.74 699C291.74 706 287.74 711 281.74 714C270.74 721 265.74 728 263.74 735C261.74 742 260.74 749 260.74 756C260.74 761 261.74 767 263.74 772C264.74 776 265.74 779 269.74 783C272.74 786 276.74 788 279.74 790C282.74 792 285.74 793 288.74 793C298.74 795 307.74 794 318.74 792C328.74 790 337.74 786 344.74 780C350.63 774.95 352.98 762.11 352.98 741.47C352.98 737.59 352.90 733.43 352.74 729L352.74 669L352.74 606C352.74 606 354.74 586 357.74 580C360.74 574 364.74 570 369.74 567C375.74 564 378.74 560 381.74 557C384.74 554 386.74 550 387.74 546C388.74 542 390.74 538 390.74 534L390.74 521C390.74 512 387.74 505 381.74 499C375.74 493 369.74 489 363.74 488C358.74 487 353.74 487 348.74 487C343.74 487 337.74 488 332.74 489C323.74 491 314.74 494 307.74 501C302.74 506 299.74 517 298.74 534C282.74 518 262.74 506 244.74 498C220.74 487 197.74 487 173.74 487"/>
</svg>