<svg xmlns="http://www.w3.org/2000/svg" viewBox="0 0 422 1204">
  <path d="M208.74 333C203.74 333 199.74 334 194.74 336C187.74 338 181.74 341 176.74 346C171.74 351 167.74 356 164.74 362C161.74 368 159.74 374 159.74 381C159.74 388 160.74 394 162.74 401C164.74 408 167.74 414 172.74 419C177.74 424 182.74 427 188.74 430C194.74 433 200.74 434 207.74 435C214.74 436 220.74 435 227.74 433C232.74 431 237.74 428 241.74 425C245.74 422 249.74 418 252.74 414C255.74 410 257.74 404 259.74 399C261.74 394 261.74 389 261.74 384L261.74 386L261.74 383L261.74 379C261.74 376 259.74 371 258.74 367C256.74 360 253.74 355 248.74 350C243.74 345 238.74 341 232.74 338C226.74 335 220.74 333 213.74 333M212.74 349C216.74 349 220.74 350 224.74 351C228.74 352 231.74 355 234.74 357C237.74 359 239.74 362 240.74 365C241.74 367 241.74 369 241.74 370L241.74 373C241.74 374 240.74 375 240.74 376L240.74 378C240.74 380 241.74 383 242.74 385C243.74 387 244.74 388 245.74 390C246.74 391 248.74 393 249.74 393C250.74 393 252.74 393 255.74 392C256.74 392 257.74 391 258.74 390C259.74 389 260.74 389 260.74 388C259.74 390 259.74 392 258.74 394C257.74 397 255.74 400 253.74 403C251.74 406 248.74 410 245.74 413C243.74 415 242.74 416 240.74 417L234.74 420C232.74 421 230.74 421 228.74 422C226.74 423 223.74 423 220.74 424C216.74 425 210.74 426 206.74 425C202.74 424 198.74 422 194.74 419C190.74 416 187.74 413 184.74 409C181.74 405 179.74 401 177.74 396C175.74 391 175.74 387 175.74 382C175.74 377 177.74 373 179.74 369C181.74 365 184.74 361 187.74 358C190.74 355 194.74 353 199.74 351C204.74 349 208.74 349 212.74 349M173.74 487C161.74 487 149.74 490 138.74 493C80.74 510 35.74 565 30.74 626C30.24 630.79 30 635.60 30 640.40C30 693.71 59.95 746.40 106.74 773C127.58 784.78 150.89 793.28 175.18 793.28C177.69 793.28 180.21 793.19 182.74 793C182.74 793 189.74 793 192.74 792C195.74 791 197.74 789 199.74 787C205.74 780 211.74 767 206.74 757C199.74 739 177.74 731 159.74 731C153.34 732.37 146.32 733.53 139.44 733.53C131.25 733.53 123.26 731.89 116.74 727C89.73 706.96 72.59 670.23 72.59 635.97C72.59 630.91 72.97 625.89 73.74 621C78.74 586 108.74 552 141.74 539C154.74 534 169.74 531 184.74 531C209.74 531 235.74 538 255.74 551C275.74 563 290.74 585 299.74 607C299.74 628 297.74 668 297.74 668C297.74 668 297.74 692 294.74 699C291.74 706 287.74 711 281.74 714C270.74 721 265.74 728 263.74 735C261.74 742 260.74 749 260.74 756C260.74 761 261.74 767 263.74 772C264.74 776 265.74 779 269.74 783C272.74 786 276.74 788 279.74 790C282.74 792 285.74 793 288.74 793C298.74 795 307.74 794 318.74 792C328.74 790 337.74 786 344.74 780C350.63 774.95 352.98 762.11 352.98 741.47C352.98 737.59 352.90 733.43 352.74 729L352.74 669L352.74 606C352.74 606 354.74 586 357.74 580C360.74 574 364.74 570 369.74 567C375.74 564 378.74 560 381.74 557C384.74 554 386.74 550 387.74 546C388.74 542 390.74 538 390.74 534L390.74 521C390.74 512 387.74 505 381.74 499C375.74 493 369.74 489 363.74 488C358.74 487 353.74 487 348.74 487C343.74 487 337.74 488 332.74 489C323.74 491 314.74 494 307.74 501C302.74 506 299.74 517 298.74 534C282.74 518 262.74 506 244.74 498C220.74 487 197.74 487 173.74 487"/>
</svg>