<svg xmlns="http://www.w3.org/2000/svg" viewBox="0 0 649 1204">
  <path d="M173.74 487C161.74 487 150.74 490 139.74 493C81.74 510 35.74 565 30.74 626C30.24 630.79 30 635.60 30 640.40C30 693.71 59.95 746.40 106.74 773C127.58 784.78 150.89 793.28 175.18 793.28C177.69 793.28 180.21 793.19 182.74 793C182.74 793 189.74 793 192.74 792C195.74 791 197.74 789 199.74 787C205.74 780 211.74 767 206.74 757C199.74 739 177.74 731 159.74 731C153.34 732.37 146.32 733.53 139.44 733.53C131.25 733.53 123.26 731.89 116.74 727C89.73 706.96 72.59 670.23 72.59 635.97C72.59 630.91 72.97 625.89 73.74 621C78.74 586 108.74 552 141.74 539C154.74 534 169.74 531 184.74 531C209.74 531 235.74 538 255.74 551C275.74 563 290.74 585 299.74 607C299.74 628 297.74 668 297.74 668C297.74 668 297.74 692 294.74 699C291.74 706 287.74 711 281.74 714C270.74 721 265.74 728 263.74 735C261.74 742 260.74 749 260.74 756C260.74 761 261.74 767 263.74 772C264.74 776 265.74 779 269.74 783C272.74 786 276.74 788 279.74 790C282.74 792 285.74 793 288.74 793C298.74 795 308.74 794 319.74 792C329.74 790 337.74 786 344.74 780C350.74 775 353.74 761 353.74 741C369.74 759 391.74 777 415.74 785C432.54 790.40 451.86 793.64 471.11 793.64C483.94 793.64 496.74 792.20 508.74 789C517.74 787 533.74 781 544.74 774C564.74 761 576.74 746 576.74 746C576.74 746 555.74 756 531.74 763C518.68 767.35 504.10 770.19 492.62 770.19C490.92 770.19 489.29 770.13 487.74 770C449.74 767 407.74 754 382.74 725C374.74 716 367.74 704 362.74 692C367.74 687 373.74 682 378.74 680C416.01 661.76 492.29 659.87 522.26 659.87C530.07 659.87 534.74 660 534.74 660L572.74 660C583.74 660 591.74 660 597.74 658C600.74 657 602.74 656 604.74 654C606.74 652 607.74 650 608.74 648C609.74 645 611.74 642 612.74 639C613.74 633 614.74 626 614.74 620C614.74 613 613.74 606 612.74 599C608.74 573 592.74 549 574.74 530C547.74 503 510.74 488 472.74 487L456.74 487C442.74 488 428.74 491 414.74 496C405.74 499 396.74 504 388.74 509C386.74 505 384.74 502 381.74 499C375.74 493 369.74 489 363.74 488C358.74 487 353.74 487 348.74 487C343.74 487 337.74 488 332.74 489C323.74 491 314.74 494 307.74 501C302.74 506 299.74 517 298.74 534C282.74 518 262.74 506 244.74 498C220.74 487 197.74 487 173.74 487M463.74 530C488.74 530 514.74 537 532.74 552C549.64 564.88 563.30 582.29 563.30 598.50C563.30 602.43 562.50 606.29 560.74 610C556.74 619 542.74 617 533.74 617C533.74 617 514.49 615.49 488.46 615.49C450.86 615.49 399.10 618.64 370.74 634C364.74 637 359.74 643 353.74 649C353.74 640 353.74 631 355.74 623C362.74 588 387.74 552 420.74 538C433.74 533 448.74 530 463.74 530"/>
</svg>