<svg xmlns="http://www.w3.org/2000/svg" viewBox="0 0 347 1204">
  <path d="M174.86 487C145.86 489 116.86 498 93.86 515C53.98 543.48 30 591.18 30 639.75C30 650.86 31.25 662.02 33.86 673C36.86 684 38.86 697 44.86 707C56.86 727 68.86 746 89.86 762C109.86 776 136.86 790 163.86 793L163.86 794C162.86 800 161.86 807 159.86 813L156.86 825C155.86 828 154.86 832 157.86 837C160.86 841 165.86 845 172.86 845L198.86 845C204.86 845 218.86 849 218.86 866C218.86 875 214.86 882 201.86 885C197.86 886 194.86 886 190.86 886C187.86 886 186.86 885 183.86 884C180.86 883 177.86 883 174.86 883C163.86 884 158.86 890 157.86 895C156.86 899 156.86 908 163.86 913C164.86 914 166.86 915 168.86 916C173.83 917.77 179.54 918.41 185.13 918.41C195.29 918.41 204.99 916.29 208.86 915C216.86 913 224.86 909 230.86 905C236.86 901 241.86 896 245.86 889C249.86 882 251.61 873.75 251.61 865.63C251.61 857.50 249.86 849.50 246.86 843C243.86 837 238.86 832 233.86 827C228.86 823 223.86 819 217.86 817C211.86 815 204.86 813 198.86 813L190.86 813C191.86 811 191.86 809 192.86 807C193.86 803 195.86 798 196.86 794C218.86 792 241.86 785 260.86 774C268.86 769 282.86 759 291.86 750C307.86 733 315.86 714 315.86 714C315.86 714 296.86 729 275.86 742C261.86 750 247.86 758 235.86 760C223.02 762.43 209.33 763.90 195.59 763.90C169.76 763.90 143.75 758.71 122.86 745C93.86 725 71.86 688 69.86 653C69.74 650.87 69.68 648.72 69.68 646.55C69.68 612.21 84.52 574.70 110.86 554C130.11 539.24 156.35 531.07 181.94 531.07C196.23 531.07 210.32 533.62 222.86 539C235.86 545 242.86 560 246.86 574C255.08 587.69 270.79 601.39 287.92 601.39C289.56 601.39 291.21 601.26 292.86 601C301.86 601 308.86 596 312.86 588C315.86 583 315.86 577 314.86 572C314.86 569 312.86 563 312.86 563C301.86 539 279.86 520 256.86 507C234.41 494.43 209.55 486.70 183.71 486.70C180.77 486.70 177.82 486.80 174.86 487"/>
</svg>