<svg xmlns="http://www.w3.org/2000/svg" viewBox="0 0 422 1204">
  <path d="M249.74 333C245.74 333 239.74 338 230.74 347L221.74 356C218.74 359 216.74 362 213.74 365C206.74 372 192.74 384 192.74 384C192.74 384 184.74 392 181.74 393C178.74 394 175.74 395 172.74 394C166.74 393 162.74 393 159.74 395C156.74 397 153.74 399 150.74 402C148.74 404 148.74 405 147.74 407C146.74 409 146.74 410 146.74 412C146.74 414 146.74 416 147.74 418C148.74 420 147.74 421 148.74 422C151.74 426 155.74 428 159.74 431C163.74 434 167.74 436 171.74 436C175.74 436 181.74 431 190.74 422L210.74 402L230.74 382C230.74 382 237.74 376 240.74 375C243.74 374 245.74 373 248.74 374C251.74 375 253.74 375 255.74 375C257.74 375 259.74 375 261.74 374C263.74 373 265.74 372 266.74 371L270.74 367C273.74 364 274.74 360 274.74 356C274.74 352 274.74 349 272.74 347C271.74 345 269.74 344 267.74 342C265.74 340 264.74 338 262.74 337C258.74 334 254.74 333 249.74 333M173.74 487C161.74 487 149.74 490 138.74 493C80.74 510 35.74 565 30.74 626C30.24 630.79 30 635.60 30 640.40C30 693.71 59.95 746.40 106.74 773C127.58 784.78 150.89 793.28 175.18 793.28C177.69 793.28 180.21 793.19 182.74 793C182.74 793 189.74 793 192.74 792C195.74 791 197.74 789 199.74 787C205.74 780 211.74 767 206.74 757C199.74 739 177.74 731 159.74 731C153.34 732.37 146.32 733.53 139.44 733.53C131.25 733.53 123.26 731.89 116.74 727C89.73 706.96 72.59 670.23 72.59 635.97C72.59 630.91 72.97 625.89 73.74 621C78.74 586 108.74 552 141.74 539C154.74 534 169.74 531 184.74 531C209.74 531 235.74 538 255.74 551C275.74 563 290.74 585 299.74 607C299.74 628 297.74 668 297.74 668C297.74 668 297.74 692 294.74 699C291.74 706 287.74 711 281.74 714C270.74 721 265.74 728 263.74 735C261.74 742 260.74 749 260.74 756C260.74 761 261.74 767 263.74 772C264.74 776 265.74 779 269.74 783C272.74 786 276.74 788 279.74 790C282.74 792 285.74 793 288.74 793C298.74 795 307.74 794 318.74 792C328.74 790 337.74 786 344.74 780C350.63 774.95 352.98 762.11 352.98 741.47C352.98 737.59 352.90 733.43 352.74 729L352.74 669L352.74 606C352.74 606 354.74 586 357.74 580C360.74 574 364.74 570 369.74 567C375.74 564 378.74 560 381.74 557C384.74 554 386.74 550 387.74 546C388.74 542 390.74 538 390.74 534L390.74 521C390.74 512 387.74 505 381.74 499C375.74 493 369.74 489 363.74 488C358.74 487 353.74 487 348.74 487C343.74 487 337.74 488 332.74 489C323.74 491 314.74 494 307.74 501C302.74 506 299.74 517 298.74 534C282.74 518 262.74 506 244.74 498C220.74 487 197.74 487 173.74 487"/>
</svg>