<svg xmlns="http://www.w3.org/2000/svg" viewBox="0 0 362 1204">
  <path d="M177 323C175 323 174 323 172 324C170 325 168 326 167 327C164 330 162 333 160 336C158 339 158 343 159 348C160 351 160 354 159 357C158 360 150 367 150 367C150 367 138 381 132 387C129 390 126 392 123 395L115 403C106 411 101 418 101 422C101 426 103 431 105 434C106 436 108 437 110 439C112 441 113 443 115 444C117 445 119 446 123 446C127 446 131 445 134 442C135 441 136 439 137 438C138 437 139 435 140 433C141 431 142 430 142 428C142 426 142 424 141 421C140 418 140 416 141 413C142 410 148 404 148 404L167 384L179 372L191 384L211 404C211 404 216 410 217 413C218 416 219 418 218 421C217 424 217 426 217 428C217 430 218 431 219 433C220 435 221 437 222 438C223 439 224 441 225 442C228 445 231 446 235 446C239 446 242 445 244 444C246 443 247 441 249 439C251 437 253 436 254 434C256 431 257 426 257 422C257 418 253 411 244 403L236 395C233 392 230 390 227 387C221 381 209 367 209 367C209 367 201 360 200 357C199 354 198 351 199 348C200 343 200 339 198 336C196 333 195 330 192 327C191 326 189 325 187 324C185 323 184 323 182 323L179 323M187 487L171 487C157 488 143 491 129 496C73 517 32 574 30 634C30 646 30 657 33 668C39 691 45 712 61 733C77 754 103 776 131 785C147.80 790.40 166.76 793.64 185.72 793.64C198.36 793.64 211 792.20 223 789C232 787 248 781 259 774C279 761 292 746 292 746C292 746 270 756 246 763C232.94 767.35 219.12 770.19 207.84 770.19C206.17 770.19 204.55 770.13 203 770C165 767 123 754 98 725C79.63 703.43 68.91 673.57 68.91 644.59C68.91 637.29 69.59 630.04 71 623C78 588 102 552 135 538C148.25 532.32 163.51 529.51 178.93 529.51C204.23 529.51 229.98 537.09 248 552C265.28 565.17 277.82 585.78 277.82 605.49C277.82 609.73 277.24 613.93 276 618C275 621 271 622 268 623C264 625 249 625 249 625C249 625 223 626 210 626L194 626L177 626C173.18 625.78 169.61 625.65 166.33 625.65C155.01 625.65 147.10 627.12 144 631C140 636 137 641 136 647C135 650 135 654 135 657C135 660 135 663 136 666C137 669 139 674 143 678C147 682 151 684 157 684C160 684 162 683 165 683C168 683 170 683 172 682C174 681 177 680 179 678C181 676 184 673 186 670C188 667 191 665 194 663C197 661 210 660 210 660L249 660L287 660C298 660 306 660 312 658C315 657 317 656 319 654C321 652 323 650 324 648L327 639C328 633 329 626 329 620C329 613 329 606 328 599C324 573 307 549 289 530C262 503 225 488 187 487"/>
</svg>