<svg xmlns="http://www.w3.org/2000/svg" viewBox="0 0 362 1204">
  <path d="M103 333C99 333 95 334 92 335C88 336 85 337 82 339C81 341 78 342 76 344C74 346 71 350 68 353C65 357 64 361 63 366C62 371 61 377 62 382C65 393 70 402 74 409C78 416 82 422 87 426C92 430 97 433 102 434C107 435 112 436 117 436C128 435 138 431 150 423C155 418 159 414 161 408C163 403 164 397 164 391C164 385 162 377 157 369C157 368 156 367 154 364C152 361 150 357 147 353C144 349 139 346 134 343C129 340 124 337 118 335C113 333 107 333 103 333M236 333C232 333 228 334 225 335C221 336 218 337 215 339C214 341 211 342 209 344C207 346 204 350 201 353C198 357 197 361 196 366C195 371 195 377 196 382C199 393 203 402 207 409C211 416 215 422 220 426C225 430 230 433 235 434C240 435 245 436 250 436C261 435 272 431 284 423C289 418 292 414 294 408C296 403 297 397 297 391C297 385 295 377 290 369C290 368 289 367 287 364C285 361 283 357 280 353C277 349 273 346 268 343C263 340 257 337 251 335C246 333 240 333 236 333M187 487L171 487C157 488 143 491 129 496C73 517 32 574 30 634C30 646 30 657 33 668C39 691 45 712 61 733C77 754 103 776 131 785C147.80 790.40 166.76 793.64 185.72 793.64C198.36 793.64 211 792.20 223 789C232 787 248 781 259 774C279 761 292 746 292 746C292 746 270 756 246 763C232.94 767.35 219.12 770.19 207.84 770.19C206.17 770.19 204.55 770.13 203 770C165 767 123 754 98 725C79.63 703.43 68.91 673.57 68.91 644.59C68.91 637.29 69.59 630.04 71 623C78 588 102 552 135 538C148.25 532.32 163.51 529.51 178.93 529.51C204.23 529.51 229.98 537.09 248 552C265.28 565.17 277.82 585.78 277.82 605.49C277.82 609.73 277.24 613.93 276 618C275 621 271 622 268 623C264 625 249 625 249 625C249 625 223 626 210 626L194 626L177 626C173.18 625.78 169.61 625.65 166.33 625.65C155.01 625.65 147.10 627.12 144 631C140 636 137 641 136 647C135 650 135 654 135 657C135 660 135 663 136 666C137 669 139 674 143 678C147 682 151 684 157 684C160 684 162 683 165 683C168 683 170 683 172 682C174 681 177 680 179 678C181 676 184 673 186 670C188 667 191 665 194 663C197 661 210 660 210 660L249 660L287 660C298 660 306 660 312 658C315 657 317 656 319 654C321 652 323 650 324 648L327 639C328 633 329 626 329 620C329 613 329 606 328 599C324 573 307 549 289 530C262 503 225 488 187 487"/>
</svg>