<svg xmlns="http://www.w3.org/2000/svg" viewBox="0 0 185 1204">
  <path d="M53 333C48 333 44 334 40 337C38 338 37 340 35 342C33 344 31 345 30 347C28 349 28 352 28 356C28 360 29 364 32 367L36 371C37 372 39 373 41 374C43 375 44 375 46 375C48 375 51 375 54 374C57 373 59 374 62 375C65 376 72 382 72 382L92 402L112 422C121 431 127 436 131 436C135 436 139 434 143 431C147 428 150 426 153 422C154 421 154 420 155 418C156 416 156 414 156 412C156 410 156 409 155 407C154 405 154 404 152 402C149 399 146 397 143 395C140 393 136 393 130 394C127 395 124 394 121 393C118 392 110 384 110 384C110 384 96 372 89 365C86 362 84 359 81 356L72 347C63 338 57 333 53 333M108 487C100 487 90 491 85 497C72.55 512.07 70.41 532.72 70.41 553.60C70.41 564.60 71 575.66 71 586C71 605 70 623 69 642C68 657 68 674 65 689C62 707 52 724 49 743C48 751 46 760 48 768C50 777 52 787 59 792C66 796 76 795 83 791C92 786 99 776 103 766C109.29 749.75 110.63 732.41 110.63 714.83C110.63 701.69 109.88 688.41 109.88 675.36C109.88 672.56 109.92 669.77 110 667C110 660 109 652 109 645C109 633.67 108.56 622.33 108.56 611C108.56 605.33 108.67 599.67 109 594C109 590.33 108.89 586.56 108.89 582.78C108.89 575.22 109.33 567.67 112 561C115 552 123 547 128 539C133.09 531.73 136.59 522.35 136.59 513.55C136.59 510.24 136.09 507.01 135 504C132 495 121 488 111 487"/>
</svg>