<svg xmlns="http://www.w3.org/2000/svg" viewBox="0 0 185 1204">
  <path d="M131.44 333C127.44 333 121.44 338 112.44 347L103.44 356C100.44 359 98.44 362 95.44 365C88.44 372 74.44 384 74.44 384C74.44 384 66.44 392 63.44 393C60.44 394 57.44 395 54.44 394C48.44 393 44.44 393 41.44 395C38.44 397 35.44 399 32.44 402C30.44 404 30.44 405 29.44 407C28.44 409 28.44 410 28.44 412C28.44 414 27.44 416 28.44 418C29.44 420 29.44 421 30.44 422C33.44 426 36.44 428 40.44 431C44.44 434 49.44 436 53.44 436C57.44 436 63.44 431 72.44 422C79.44 415 91.44 402 91.44 402L112.44 382C112.44 382 119.44 376 122.44 375C125.44 374 127.44 373 130.44 374C133.44 375 135.44 375 137.44 375C139.44 375 141.44 375 143.44 374C145.44 373 147.44 372 148.44 371L152.44 367C155.44 364 156.44 360 156.44 356C156.44 352 156.44 349 154.44 347C153.44 345 151.44 344 149.44 342C147.44 340 145.44 338 143.44 337C139.44 334 136.44 333 131.44 333M108.44 487C100.44 487 90.44 491 85.44 497C73 512.07 70.85 532.72 70.85 553.60C70.85 564.60 71.44 575.66 71.44 586C71.44 605 70.44 623 69.44 642C68.44 657 68.44 674 65.44 689C62.44 707 52.44 724 49.44 743C48.44 751 46.44 760 48.44 768C50.44 777 52.44 787 59.44 792C66.44 796 76.44 795 83.44 791C92.44 786 99.44 776 103.44 766C109.73 749.75 111.08 732.41 111.08 714.83C111.08 701.69 110.33 688.41 110.33 675.36C110.33 672.56 110.36 669.77 110.44 667C110.44 660 109.44 652 109.44 645C109.44 633.67 109 622.33 109 611C109 605.33 109.11 599.67 109.44 594C109.44 590.33 109.33 586.56 109.33 582.78C109.33 575.22 109.78 567.67 112.44 561C115.44 552 123.44 547 128.44 539C133.53 531.73 137.03 522.35 137.03 513.55C137.03 510.24 136.54 507.01 135.44 504C132.44 495 121.44 488 111.44 487"/>
</svg>