<svg xmlns="http://www.w3.org/2000/svg" viewBox="0 0 213 1204">
  <path d="M103 323C101 323 100 323 98 324C96 325 94 326 93 327C90 330 89 333 87 336C85 339 85 343 86 348C87 351 86 354 85 357C84 360 76 367 76 367C76 367 64 381 58 387C55 390 52 392 49 395L41 403C32 411 28 418 28 422C28 426 29 431 31 434C32 436 34 437 36 439C38 441 39 443 41 444C43 445 46 446 50 446C54 446 57 445 60 442C61 441 62 439 63 438C64 437 65 435 66 433C67 431 68 430 68 428C68 426 68 424 67 421C66 418 67 416 68 413C69 410 74 404 74 404L94 384L106 372L118 384L137 404C137 404 143 410 144 413C145 416 145 418 144 421C143 424 143 426 143 428C143 430 144 431 145 433C146 435 147 437 148 438L152 442C155 445 158 446 162 446C166 446 168 445 170 444C172 443 174 441 176 439C178 437 179 436 180 434C182 431 184 426 184 422C184 418 179 411 170 403L162 395L154 387C148 381 135 367 135 367C135 367 127 360 126 357C125 354 125 351 126 348C127 343 127 339 125 336C123 333 121 330 118 327C117 326 115 325 113 324C111 323 110 323 108 323L106 323M122 487C114 487 104 491 99 497C86.55 512.07 84.41 532.72 84.41 553.60C84.41 564.60 85 575.66 85 586C85 605 84 623 83 642C82 657 82 674 79 689C76 707 66 724 63 743C62 751 60 760 62 768C64 777 65 787 72 792C79 796 90 795 97 791C106 786 113 776 117 766C123.29 749.75 124.63 732.41 124.63 714.83C124.63 701.69 123.88 688.41 123.88 675.36C123.88 672.56 123.92 669.77 124 667C124 660 123 652 123 645C123 633.67 122.56 622.33 122.56 611C122.56 605.33 122.67 599.67 123 594C123 590.33 122.89 586.56 122.89 582.78C122.89 575.22 123.33 567.67 126 561C129 552 136 547 141 539C146.28 531.46 150.42 521.64 150.42 512.55C150.42 509.59 149.98 506.70 149 504C146 495 135 488 125 487"/>
</svg>