<svg xmlns="http://www.w3.org/2000/svg" viewBox="0 0 292 1204">
  <path d="M69.41 333C65.41 333 61.41 334 58.41 335C54.41 336 51.41 337 48.41 339C47.41 341 44.41 342 42.41 344C40.41 346 37.41 350 34.41 353C31.41 357 30.41 361 29.41 366C28.41 371 27.41 377 28.41 382C31.41 393 36.41 402 40.41 409C44.41 416 48.41 422 53.41 426C58.41 430 63.41 433 68.41 434C73.41 435 78.41 436 83.41 436C94.41 435 104.41 431 116.41 423C121.41 418 125.41 414 127.41 408C129.41 403 130.41 397 130.41 391C130.41 385 128.41 377 123.41 369C123.41 368 122.41 367 120.41 364C118.41 361 116.41 357 113.41 353C110.41 349 105.41 346 100.41 343C95.41 340 90.41 337 84.41 335C79.41 333 73.41 333 69.41 333M202.41 333C198.41 333 194.41 334 191.41 335C187.41 336 184.41 337 181.41 339C180.41 341 177.41 342 175.41 344C173.41 346 170.41 350 167.41 353C164.41 357 163.41 361 162.41 366C161.41 371 161.41 377 162.41 382C165.41 393 169.41 402 173.41 409C177.41 416 181.41 422 186.41 426C191.41 430 196.41 433 201.41 434C206.41 435 211.41 436 216.41 436C227.41 435 238.41 431 250.41 423C255.41 418 258.41 414 260.41 408C262.41 403 263.41 397 263.41 391C263.41 385 261.41 377 256.41 369C256.41 368 255.41 367 253.41 364C251.41 361 249.41 357 246.41 353C243.41 349 239.41 346 234.41 343C229.41 340 223.41 337 217.41 335C212.41 333 206.41 333 202.41 333M161.41 487C153.41 487 144.41 491 139.41 497C126.97 512.07 124.82 532.72 124.82 553.60C124.82 564.60 125.41 575.66 125.41 586C125.41 605 124.41 623 123.41 642C122.41 657 122.41 674 119.41 689C116.41 707 106.41 724 103.41 743C102.41 751 99.41 760 101.41 768C103.41 777 105.41 787 112.41 792C119.41 796 130.41 795 137.41 791C146.41 786 152.41 776 156.41 766C162.70 749.75 164.05 732.41 164.05 714.83C164.05 701.69 163.30 688.41 163.30 675.36C163.30 672.56 163.33 669.77 163.41 667L163.41 645C163.41 631.40 162.13 617.80 162.13 604.20C162.13 600.80 162.21 597.40 162.41 594C162.41 583 162.41 571 166.41 561C169.41 552 176.41 547 181.41 539C186.69 531.46 190.84 521.64 190.84 512.55C190.84 509.59 190.40 506.70 189.41 504C186.41 495 175.41 488 165.41 487"/>
</svg>