<svg xmlns="http://www.w3.org/2000/svg" viewBox="0 0 427 1204">
  <path d="M91.04 180C85.04 180 80.04 180 74.04 181C63.04 182 53.04 185 46.04 190C39.04 195 34.04 201 33.04 209C32.04 217 36.04 226 45.04 237C50.04 243 54.04 246 60.04 248C66.04 250 72.04 250 78.04 249C84.04 248 90.04 247 96.04 244C102.04 241 109.04 239 115.04 236C121.04 233 126.04 231 131.04 229C136.04 227 140.04 227 143.04 227C148.04 228 155.04 230 163.04 233C171.04 236 179.04 240 187.04 245C195.04 250 204.04 255 212.04 260C214.04 261 215.04 262 216.04 263C189.04 274 179.04 279 173.04 281C156.04 288 142.04 294 132.04 299C122.04 304 117.04 309 114.04 313C111.04 318 109.04 323 108.04 327C107.04 331 106.04 336 107.04 340C107.04 344 108.04 348 109.04 352C110.04 356 112.04 361 115.04 365C121.04 373 129.04 377 138.04 377C143.04 377 149.04 377 153.04 376C157.04 375 162.04 373 166.04 369C170.04 366 172.04 362 176.04 357C180.04 352 183.04 348 186.04 341C190.04 334 199.04 326 212.04 318C219.04 314 226.04 310 252.04 300C254.04 299 258.04 298 260.04 297C277.04 313 291.04 330 304.04 350C324.04 380 337.04 414 343.04 452C345.04 465 347.04 479 348.04 494C348.37 498.33 348.48 502.78 348.48 507.37C348.48 516.56 348.04 526.33 348.04 537C348.04 553 346.04 568 343.04 584C338.04 610 332.04 633 325.04 653C318.04 673 309.04 691 299.04 705C289.04 719 278.04 730 265.04 737C253.37 743.29 240.08 747.15 225.18 747.15C223.49 747.15 221.77 747.10 220.04 747L211.04 747C187.04 746 167.04 744 152.04 739C137.04 734 124.04 728 115.04 720C106.04 712 99.04 703 94.04 692C89.04 681 86.04 669 84.04 656C82.10 643.73 81 632.30 81 621.42C81 615.46 81.33 609.67 82.04 604C84.04 588 88.04 574 96.04 561C104.04 548 116.04 538 131.04 529C146.04 520 165.04 512 188.04 507C206.04 503 220.04 500 233.04 498C246.04 496 256.04 496 264.04 495C272.04 494 279.04 494 284.04 494C289.04 494 292.04 495 294.04 495C277.04 490 261.04 486 246.04 484C231.04 482 216.04 481 203.04 481C190.04 481 178.04 481 166.04 483C154.04 485 143.04 487 134.04 490C112.04 496 93.04 505 76.04 517C57.04 536 44.04 558 37.04 583C32.44 599.42 30 617.14 30 635.86C30 645.65 30.67 655.71 32.04 666C36.04 688 43.04 707 54.04 723C65.04 739 78.04 752 93.04 763C108.04 774 126.04 781 146.04 786C166.04 791 188.04 794 211.04 794L220.04 794C237.04 794 252.04 791 266.04 787C280.04 783 292.04 777 303.04 770C314.04 763 325.04 753 333.04 743C341.04 733 348.04 721 354.04 709C361.04 695 367.04 680 373.04 662C379.04 644 384.04 626 387.04 608C391.04 587 392.04 567 393.04 548C393.33 542.43 393.45 536.96 393.45 531.61C393.45 518.71 392.75 506.61 392.04 496C391.04 478 390.04 461 387.04 445C382.04 415 374.04 388 361.04 362C348.04 336 333.04 311 315.04 290C312.04 286 308.04 283 305.04 279C312.04 276 319.04 274 326.04 271C350.04 262 368.04 253 379.04 242C388.96 232.08 393.19 222.16 393.19 212.24C393.19 211.16 393.14 210.08 393.04 209C386.04 190 378.04 181 368.04 180C364.04 179 361.04 179 357.04 181C351.04 184 345.04 189 340.04 198C332.04 210 309.04 224 265.04 243L253.04 234C230.04 218 204.04 205 178.04 196C167.04 192 157.04 189 148.04 187C139.04 185 128.04 183 117.04 182L107.04 181C102.04 180 97.04 180 91.04 180M294.04 495L297.04 495L298.04 496C297.04 496 297.04 495 296.04 495"/>
</svg>