<svg xmlns="http://www.w3.org/2000/svg" viewBox="0 0 340 1204">
  <path d="M134 354L124 354L125 355C124 355 123 356 122 356C108 360 94 370 87 385C85 389 85 393 85 397C85 402 87 408 92 411C98 415 105 415 110 413C115 411 119 407 122 403C125 399 126 396 127 394C128 392 128 391 128 391C132 387 138 385 143 386L144 387C145 388 147 389 148 390C150 392 151 394 151 394L152 394L164 404L164 405C174 412 187 415 199 415C203 415 207 414 211 413C225 409 239 399 246 384C248 380 248 376 248 372C248 367 246 361 241 358C235 354 228 354 223 356C218 358 214 361 211 365C208 369 207 373 206 375C205 377 205 378 205 378L204 378C200 382 195 383 190 382L189 382C188 381 186 380 185 379C183 377 182 375 182 375L181 375L169 364C159 357 146 354 134 354M92 448C83 448 75 456 70 464C64 473 64 486 63 496C61 523 61 532 61 540C61.32 564.67 61.63 586.43 61.63 605.17C61.63 645.69 60.15 672.06 54 683C45 699 34 711 31 726C30.33 731 30 735.78 30 740.41C30 749.67 31.33 758.33 34 767C38 780 44 789 53 792C61 795 70 795 78 791C86 787 93 778 98 766C103.03 755.11 105.25 730.18 105.25 690.05C105.25 682.27 105.16 673.92 105 665C105 631 104 599 104 568C113 557 123 549 133 543C144 536 154 531 163 528C174 525 184 525 194 526C204 527 212 530 220 535C228 540 234 546 240 553C246 560 250 568 253 576C257 587 260 596 261 611C261.36 616.23 261.53 621.68 261.53 627.15C261.53 652.06 258.10 677.44 254 684C245 700 232 711 229 726C228.33 731 228 735.78 228 740.41C228 749.67 229.33 758.33 232 767C236 780 242 789 251 792C259 795 268 795 276 791C284 787 291 778 296 766C301.03 755.11 303.25 730.18 303.25 690.05C303.25 682.27 303.16 673.92 303 665C303 656 303.25 646.25 303.25 636.38C303.25 626.50 303 616.50 302 607C301 598 300 592 297 582C291 564 283 548 272 534C261 520 250 509 236 501C222 493 208 488 192 487C189.97 486.87 187.95 486.81 185.95 486.81C172.17 486.81 158.97 489.76 145 495C129 501 115 510 104 522C105 515 107 509 109 505C114.33 492.33 117.44 484.11 117.44 476.48C117.44 472.67 116.67 469 115 465C111 456 101 448 92 448"/>
</svg>