<svg xmlns="http://www.w3.org/2000/svg" viewBox="0 0 370 1204">
  <path d="M223.24 333C219.24 333 212.24 338 203.24 347L194.24 356C191.24 359 189.24 362 186.24 365C179.24 372 165.24 384 165.24 384C165.24 384 157.24 392 154.24 393C151.24 394 148.24 395 145.24 394C139.24 393 135.24 393 132.24 395C129.24 397 127.24 399 124.24 402C122.24 404 121.24 405 120.24 407C119.24 409 119.24 410 119.24 412C119.24 414 119.24 416 120.24 418C121.24 420 121.24 421 122.24 422C125.24 426 128.24 428 132.24 431C136.24 434 140.24 436 144.24 436C148.24 436 155.24 431 164.24 422C171.24 415 183.24 402 183.24 402L203.24 382C203.24 382 210.24 376 213.24 375C216.24 374 218.24 373 221.24 374C224.24 375 227.24 375 229.24 375C231.24 375 232.24 375 234.24 374C236.24 373 238.24 372 239.24 371L243.24 367C246.24 364 248.24 360 248.24 356C248.24 352 247.24 349 245.24 347C244.24 345 243.24 344 241.24 342C239.24 340 237.24 338 235.24 337C231.24 334 228.24 333 223.24 333M178.24 487C163.24 487 149.24 490 134.24 495C114.24 502 96.24 512 81.24 526C66.24 540 54.24 555 45.24 573C36.24 591 31.24 610 30.24 630C30.08 633.17 30 636.36 30 639.57C30 656.62 32.35 674.17 38.24 691C45.24 711 56.24 728 70.24 743C84.24 758 99.24 770 117.24 778C135.24 786 153.24 792 173.24 794C177.33 794.41 181.45 794.61 185.60 794.61C201.77 794.61 218.33 791.57 234.24 786C249.24 781 262.24 773 275.24 763C288.24 753 299.24 741 308.24 728C317.24 715 325.24 700 330.24 685C335.24 670 337.24 654 337.24 638C337.24 640 335.24 642 335.24 644C336.24 641 336.24 639 336.24 636C336.24 632 336.24 627 335.24 623C334.24 613 332.24 602 328.24 590C321.24 570 311.24 552 297.24 537C283.24 522 268.24 510 250.24 502C232.24 494 213.24 488 193.24 487M190.24 535C203.24 535 215.24 538 226.24 542C237.24 546 247.24 552 255.24 559C263.24 566 268.24 574 272.24 583C274.24 589 275.24 593 275.24 597L275.24 606C275.24 609 274.24 612 274.24 614C274.24 616 273.24 620 273.24 623C274.24 629 275.24 635 278.24 641C281.24 647 285.24 653 289.24 658C293.24 662 297.24 665 301.24 666C305.24 667 311.24 667 319.24 664C323.24 663 327.24 661 329.24 658C331.24 656 332.24 654 333.24 651L327.24 669C324.24 678 319.24 687 313.24 697C307.24 707 298.24 717 288.24 726C283.24 731 277.24 735 272.24 738C267.24 741 262.24 743 256.24 746C250.24 749 244.24 752 237.24 754C230.24 756 222.24 758 212.24 761L194.11 763.64C187.16 763.64 180.20 762.61 173.24 761C160.24 758 147.24 752 136.24 744C125.24 736 114.24 725 105.24 713C96.24 701 89.24 689 84.24 675C80.37 664.15 78.89 653.29 78.89 642.44C78.89 639.29 79.02 636.15 79.24 633C80.24 619 83.24 607 89.24 595C95.24 583 103.24 572 113.24 563C123.24 554 135.24 547 149.24 542C163.24 537 177.24 535 190.24 535"/>
</svg>