<svg xmlns="http://www.w3.org/2000/svg" viewBox="0 0 370 1204">
  <path d="M181.24 323C179.24 323 178.24 323 176.24 324C174.24 325 172.24 326 171.24 327C168.24 330 166.24 333 164.24 336C162.24 339 162.24 343 163.24 348C164.24 351 164.24 354 163.24 357C162.24 360 154.24 367 154.24 367C154.24 367 141.24 381 135.24 387L127.24 395C124.24 398 121.24 400 118.24 403C109.24 411 105.24 418 105.24 422C105.24 426 107.24 431 109.24 434C110.24 436 111.24 437 113.24 439C115.24 441 116.24 443 118.24 444C120.24 445 123.24 446 127.24 446C131.24 446 134.24 445 137.24 442L141.24 438C142.24 437 143.24 435 144.24 433C145.24 431 145.24 430 145.24 428C145.24 426 146.24 424 145.24 421C144.24 418 144.24 416 145.24 413C146.24 410 152.24 404 152.24 404L171.24 384L183.24 372L195.24 384L215.24 404C215.24 404 220.24 410 221.24 413C222.24 416 223.24 418 222.24 421C221.24 424 221.24 426 221.24 428C221.24 430 222.24 431 223.24 433C224.24 435 224.24 437 225.24 438L229.24 442C232.24 445 235.24 446 239.24 446C243.24 446 246.24 445 248.24 444C250.24 443 251.24 441 253.24 439C255.24 437 256.24 436 257.24 434C259.24 431 261.24 426 261.24 422C261.24 418 257.24 411 248.24 403C245.24 400 242.24 398 239.24 395L231.24 387C225.24 381 213.24 367 213.24 367C213.24 367 205.24 360 204.24 357C203.24 354 202.24 351 203.24 348C204.24 343 204.24 339 202.24 336C200.24 333 199.24 330 196.24 327C195.24 326 193.24 325 191.24 324C189.24 323 188.24 323 186.24 323L183.24 323M178.24 487C163.24 487 149.24 490 134.24 495C114.24 502 96.24 512 81.24 526C66.24 540 54.24 555 45.24 573C36.24 591 31.24 610 30.24 630C30.08 633.17 30 636.36 30 639.57C30 656.62 32.35 674.17 38.24 691C45.24 711 56.24 728 70.24 743C84.24 758 99.24 770 117.24 778C135.24 786 153.24 792 173.24 794C177.33 794.41 181.45 794.61 185.60 794.61C201.77 794.61 218.33 791.57 234.24 786C249.24 781 262.24 773 275.24 763C288.24 753 299.24 741 308.24 728C317.24 715 325.24 700 330.24 685C335.24 670 337.24 654 337.24 638C337.24 640 335.24 642 335.24 644C336.24 641 336.24 639 336.24 636C336.24 632 336.24 627 335.24 623C334.24 613 332.24 602 328.24 590C321.24 570 311.24 552 297.24 537C283.24 522 268.24 510 250.24 502C232.24 494 213.24 488 193.24 487M190.24 535C203.24 535 215.24 538 226.24 542C237.24 546 247.24 552 255.24 559C263.24 566 268.24 574 272.24 583C274.24 589 275.24 593 275.24 597L275.24 606C275.24 609 274.24 612 274.24 614C274.24 616 273.24 620 273.24 623C274.24 629 275.24 635 278.24 641C281.24 647 285.24 653 289.24 658C293.24 662 297.24 665 301.24 666C305.24 667 311.24 667 319.24 664C323.24 663 327.24 661 329.24 658C331.24 656 332.24 654 333.24 651L327.24 669C324.24 678 319.24 687 313.24 697C307.24 707 298.24 717 288.24 726C283.24 731 277.24 735 272.24 738C267.24 741 262.24 743 256.24 746C250.24 749 244.24 752 237.24 754C230.24 756 222.24 758 212.24 761L194.11 763.64C187.16 763.64 180.20 762.61 173.24 761C160.24 758 147.24 752 136.24 744C125.24 736 114.24 725 105.24 713C96.24 701 89.24 689 84.24 675C80.37 664.15 78.89 653.29 78.89 642.44C78.89 639.29 79.02 636.15 79.24 633C80.24 619 83.24 607 89.24 595C95.24 583 103.24 572 113.24 563C123.24 554 135.24 547 149.24 542C163.24 537 177.24 535 190.24 535"/>
</svg>