<svg xmlns="http://www.w3.org/2000/svg" viewBox="0 0 370 1204">
  <path d="M107.24 333C103.24 333 99.24 334 96.24 335C92.24 336 89.24 337 86.24 339C85.24 341 82.24 342 80.24 344C78.24 346 75.24 350 72.24 353C69.24 357 67.24 361 66.24 366C65.24 371 65.24 377 66.24 382C69.24 393 74.24 402 78.24 409C82.24 416 86.24 422 91.24 426C96.24 430 101.24 433 106.24 434C111.24 435 115.24 436 120.24 436C131.24 435 142.24 431 154.24 423C159.24 418 163.24 414 165.24 408C167.24 403 168.24 397 168.24 391C168.24 385 166.24 377 161.24 369C161.24 368 160.24 367 158.24 364C156.24 361 154.24 357 151.24 353C148.24 349 143.24 346 138.24 343C133.24 340 128.24 337 122.24 335C117.24 333 111.24 333 107.24 333M240.24 333C236.24 333 232.24 334 229.24 335C225.24 336 222.24 337 219.24 339C218.24 341 215.24 342 213.24 344C211.24 346 208.24 350 205.24 353C202.24 357 201.24 361 200.24 366C199.24 371 198.24 377 199.24 382C202.24 393 207.24 402 211.24 409C215.24 416 219.24 422 224.24 426C229.24 430 234.24 433 239.24 434C244.24 435 249.24 436 254.24 436C265.24 435 275.24 431 287.24 423C292.24 418 296.24 414 298.24 408C300.24 403 301.24 397 301.24 391C301.24 385 299.24 377 294.24 369C294.24 368 293.24 367 291.24 364C289.24 361 287.24 357 284.24 353C281.24 349 276.24 346 271.24 343C266.24 340 261.24 337 255.24 335C250.24 333 244.24 333 240.24 333M178.24 487C163.24 487 149.24 490 134.24 495C114.24 502 96.24 512 81.24 526C66.24 540 54.24 555 45.24 573C36.24 591 31.24 610 30.24 630C30.08 633.17 30 636.36 30 639.57C30 656.62 32.35 674.17 38.24 691C45.24 711 56.24 728 70.24 743C84.24 758 99.24 770 117.24 778C135.24 786 153.24 792 173.24 794C177.33 794.41 181.45 794.61 185.60 794.61C201.77 794.61 218.33 791.57 234.24 786C249.24 781 262.24 773 275.24 763C288.24 753 299.24 741 308.24 728C317.24 715 325.24 700 330.24 685C335.24 670 337.24 654 337.24 638C337.24 640 335.24 642 335.24 644C336.24 641 336.24 639 336.24 636C336.24 632 336.24 627 335.24 623C334.24 613 332.24 602 328.24 590C321.24 570 311.24 552 297.24 537C283.24 522 268.24 510 250.24 502C232.24 494 213.24 488 193.24 487M190.24 535C203.24 535 215.24 538 226.24 542C237.24 546 247.24 552 255.24 559C263.24 566 268.24 574 272.24 583C274.24 589 275.24 593 275.24 597L275.24 606C275.24 609 274.24 612 274.24 614C274.24 616 273.24 620 273.24 623C274.24 629 275.24 635 278.24 641C281.24 647 285.24 653 289.24 658C293.24 662 297.24 665 301.24 666C305.24 667 311.24 667 319.24 664C323.24 663 327.24 661 329.24 658C331.24 656 332.24 654 333.24 651L327.24 669C324.24 678 319.24 687 313.24 697C307.24 707 298.24 717 288.24 726C283.24 731 277.24 735 272.24 738C267.24 741 262.24 743 256.24 746C250.24 749 244.24 752 237.24 754C230.24 756 222.24 758 212.24 761L194.11 763.64C187.16 763.64 180.20 762.61 173.24 761C160.24 758 147.24 752 136.24 744C125.24 736 114.24 725 105.24 713C96.24 701 89.24 689 84.24 675C80.37 664.15 78.89 653.29 78.89 642.44C78.89 639.29 79.02 636.15 79.24 633C80.24 619 83.24 607 89.24 595C95.24 583 103.24 572 113.24 563C123.24 554 135.24 547 149.24 542C163.24 537 177.24 535 190.24 535"/>
</svg>