<svg xmlns="http://www.w3.org/2000/svg" viewBox="0 0 390 1204">
  <path d="M188 487L184 487C179 487 176 488 173 489C169 490 166 491 163 493C161 494 158 496 156 498C154 500 152 504 149 507C146 511 143 515 142 521C141 527 141 532 142 538C145 549 150 559 154 566C158 573 163 579 168 583C173 587 178 590 183 591C188 592 193 593 198 593C209 592 221 587 233 579C238 574 241 570 244 564C246 559 248 554 248 547C248 540 246 533 241 525C240 524 239 522 237 519C235 516 233 512 230 508C227 504 222 501 217 497C212 493 207 491 200 489C196 488 192 487 188 487M336 587C329 587 322 590 313 596C299 605 267 610 206 610C145 610 128 609 119 609C100 609 84 610 72 611C60 612 53 614 49 617C45 621 40 624 37 628C34 632 32 636 31 641C29 645 29 649 29 653C29 657 29 663 30 668C33 678 38 685 47 689C52 692 56 693 61 694C66 695 72 694 77 692C82 690 87 688 92 685C97 682 103 678 108 673C114 668 125 664 141 661C149 660 159 659 188 659C217 659 244 661 271 662C274.43 662.13 277.75 662.19 280.95 662.19C303 662.19 319.91 659.24 333 654C348 648 356 639 360 628C360.08 626.22 360.13 624.51 360.13 622.87C360.13 605.02 355.24 594.58 347 590C344 588 340 587 336 587M188 688L184 688C179 688 176 689 173 690C169 691 166 692 163 694C161 696 158 698 156 700C154 702 152 704 149 708C146 712 143 716 142 722C141 728 141 733 142 739C145 750 150 760 154 767C158 774 163 780 168 784C173 788 178 791 183 792C188 793 193 794 198 794C209 793 221 789 233 781C238 776 241 771 244 765C246 760 248 754 248 747C248 740 246 733 241 725C240 724 239 723 237 720C235 717 233 714 230 710C227 706 222 702 217 698C212 694 207 692 200 690C196 689 192 688 188 688"/>
</svg>