<svg xmlns="http://www.w3.org/2000/svg" viewBox="0 0 399 1204">
  <path d="M343.12 436L341.12 436C338.12 436 334.12 438 329.12 441C327.12 442 324.12 445 322.12 447C320.12 449 318.12 452 316.12 455C314.12 458 313.12 461 312.12 464C311.12 467 310.12 471 310.12 474L310.12 482C310.12 484 310.12 487 309.12 489C308.12 491 307.12 494 306.12 496C305.12 498 304.12 501 302.12 504C300.12 507 297.12 512 292.12 518C284.12 512 274.12 507 265.12 502C247.12 494 228.12 488 208.12 487L193.12 487C178.12 487 164.12 490 149.12 495C129.12 502 111.12 512 96.12 526C81.12 540 69.12 555 60.12 573C51.12 591 46.12 610 45.12 630C44.96 633.17 44.88 636.36 44.88 639.57C44.88 656.62 47.23 674.17 53.12 691C60.12 711 71.12 727 84.12 742C46.48 781.39 28 810.05 28 827.99C28 830.54 28.38 832.88 29.12 835C38.12 846 48.12 848 58.12 842C63.12 839 68.12 835 72.12 829C76.12 823 80.12 817 83.12 809C87.12 800 96.12 786 111.12 767C117.12 771 125.12 775 132.12 778C150.12 786 168.12 792 188.12 794C192.21 794.41 196.33 794.61 200.48 794.61C216.66 794.61 233.21 791.57 249.12 786C264.12 781 277.12 773 290.12 763C303.12 753 314.12 741 323.12 728C332.12 715 340.12 700 345.12 685C350.12 670 352.12 654 352.12 638C352.12 640 350.12 642 350.12 644C351.12 641 351.12 639 351.12 636C351.12 632 351.12 627 350.12 623C349.12 613 347.12 602 343.12 590C337.12 572 329.12 556 317.12 542C345.12 512 361.12 492 365.12 482C369.12 471 370.12 462 368.12 456C367.12 454 366.12 453 365.12 451C364.12 449 363.12 447 361.12 445C359.12 443 358.12 441 356.12 440C354.12 439 353.12 438 351.12 437C349.12 436 345.12 436 343.12 436M205.12 535C218.12 535 230.12 538 241.12 542C249.12 545 256.12 548 262.12 552C258.12 557 253.12 562 248.12 567C238.12 577 228.12 588 217.12 600C215.12 603 213.12 606 210.12 609C207.12 612 204.12 614 202.12 617L180.12 640C164.12 657 149.12 675 133.12 691L116.12 708C109.12 698 103.12 687 99.12 675C95.25 664.15 93.77 653.29 93.77 642.44C93.77 639.29 93.90 636.15 94.12 633C95.12 619 98.12 607 104.12 595C110.12 583 118.12 572 128.12 563C138.12 554 150.12 547 164.12 542C178.12 537 192.12 535 205.12 535M284.12 576C285.12 578 286.12 581 287.12 583C289.12 589 290.12 593 290.12 597L290.12 606C290.12 609 289.12 612 289.12 614C289.12 616 288.12 620 288.12 623C289.12 629 290.12 635 293.12 641C296.12 647 300.12 653 304.12 658C308.12 662 312.12 665 316.12 666C320.12 667 326.12 667 334.12 664C338.12 663 342.12 661 344.12 658C346.12 656 347.12 654 348.12 651L342.12 669C339.12 678 334.12 687 328.12 697C322.12 707 313.12 717 303.12 726C298.12 731 292.12 735 287.12 738C282.12 741 277.12 743 271.12 746C265.12 749 259.12 752 252.12 754C245.12 756 237.12 758 227.12 761L209 763.64C202.04 763.64 195.08 762.61 188.12 761C175.12 758 162.12 752 151.12 744C147.12 741 143.12 738 139.12 734C144.12 729 148.12 724 153.12 718L177.12 691C185.12 682 193.12 673 202.12 664L224.12 640C238.12 625 252.12 611 266.12 596C272.12 590 278.12 583 284.12 576"/>
</svg>