<svg xmlns="http://www.w3.org/2000/svg" viewBox="0 0 338 1204">
  <path d="M131.25 333C126.25 333 123.25 334 119.25 337C117.25 338 115.25 340 113.25 342C111.25 344 110.25 345 109.25 347C107.25 349 106.25 352 106.25 356C106.25 360 108.25 364 111.25 367L115.25 371C116.25 372 118.25 373 120.25 374C122.25 375 123.25 375 125.25 375C127.25 375 130.25 375 133.25 374C136.25 373 138.25 374 141.25 375C144.25 376 150.25 382 150.25 382L171.25 402C171.25 402 183.25 415 190.25 422C199.25 431 206.25 436 210.25 436C214.25 436 218.25 434 222.25 431C226.25 428 229.25 426 232.25 422C233.25 421 233.25 420 234.25 418C235.25 416 235.25 414 235.25 412C235.25 410 235.25 409 234.25 407C233.25 405 232.25 404 230.25 402C227.25 399 225.25 397 222.25 395C219.25 393 215.25 393 209.25 394C206.25 395 203.25 394 200.25 393C197.25 392 188.25 384 188.25 384C188.25 384 175.25 372 168.25 365C165.25 362 163.25 359 160.25 356L151.25 347C142.25 338 135.25 333 131.25 333M73.25 487C69.25 487 65.25 488 61.25 490C53.25 494 46.25 503 41.25 515C36.22 525.89 34 550.82 34 590.95C34 598.73 34.09 607.08 34.25 616C34.25 625 34 634.75 34 644.63C34 654.50 34.25 664.50 35.25 674C36.25 683 37.25 689 40.25 699C46.25 717 54.25 733 65.25 747C76.25 761 87.25 772 101.25 780C115.25 788 129.25 793 145.25 794L151.35 794.19C165.31 794.19 179.28 791.24 193.25 786C209.25 780 222.25 771 233.25 759C232.25 766 230.25 772 228.25 776C223.18 788.03 220.52 795.65 220.52 802.67C220.52 806.74 221.42 810.60 223.25 815C227.25 824 236.25 833 245.25 833C254.25 833 262.25 825 267.25 817C273.25 808 273.25 795 274.25 785C276.25 758 276.25 749 276.25 741C275.93 716.33 275.62 694.57 275.62 675.83C275.62 635.31 277.10 608.94 283.25 598C292.25 582 303.25 570 306.25 555C306.92 550 307.25 545.11 307.25 540.33C307.25 530.78 305.92 521.67 303.25 513C299.25 500 293.25 492 284.25 489C276.25 486 267.25 486 259.25 490C251.25 494 244.25 503 239.25 515C234.22 525.89 232 550.82 232 590.95C232 598.73 232.09 607.08 232.25 616C232.25 650 233.25 681 233.25 712C224.25 723 214.25 732 204.25 738C193.25 745 183.25 749 174.25 752C163.25 755 153.25 756 143.25 755C133.25 754 125.25 751 117.25 746C109.25 741 103.25 735 97.25 728C91.25 721 87.25 713 84.25 705C80.25 694 77.25 685 76.25 670C75.89 664.77 75.72 659.32 75.72 653.85C75.72 628.94 79.15 603.56 83.25 597C92.25 581 105.25 570 108.25 555C108.92 550 109.25 545.11 109.25 540.33C109.25 530.78 107.92 521.67 105.25 513C101.25 500 95.25 492 86.25 489C82.25 487 77.25 487 73.25 487"/>
</svg>