<svg xmlns="http://www.w3.org/2000/svg" viewBox="0 0 338 1204">
  <path d="M168.25 323C166.25 323 165.25 323 163.25 324C161.25 325 159.25 326 158.25 327C155.25 330 154.25 333 152.25 336C150.25 339 150.25 343 151.25 348C152.25 351 151.25 354 150.25 357C149.25 360 141.25 367 141.25 367C141.25 367 129.25 381 123.25 387C120.25 390 117.25 392 114.25 395L106.25 403C97.25 411 93.25 418 93.25 422C93.25 426 94.25 431 96.25 434C97.25 436 99.25 437 101.25 439C103.25 441 104.25 443 106.25 444C108.25 445 111.25 446 115.25 446C119.25 446 122.25 445 125.25 442C126.25 441 127.25 439 128.25 438C129.25 437 130.25 435 131.25 433C132.25 431 133.25 430 133.25 428C133.25 426 133.25 424 132.25 421C131.25 418 132.25 416 133.25 413C134.25 410 139.25 404 139.25 404L159.25 384L171.25 372L183.25 384L202.25 404C202.25 404 207.25 410 208.25 413C209.25 416 210.25 418 209.25 421C208.25 424 208.25 426 208.25 428C208.25 430 209.25 431 210.25 433C211.25 435 212.25 437 213.25 438C214.25 439 215.25 441 216.25 442C219.25 445 223.25 446 227.25 446C231.25 446 233.25 445 235.25 444C237.25 443 238.25 441 240.25 439C242.25 437 244.25 436 245.25 434C247.25 431 249.25 426 249.25 422C249.25 418 244.25 411 235.25 403L227.25 395C224.25 392 221.25 390 218.25 387C212.25 381 200.25 367 200.25 367C200.25 367 192.25 360 191.25 357C190.25 354 190.25 351 191.25 348C192.25 343 192.25 339 190.25 336C188.25 333 186.25 330 183.25 327C182.25 326 180.25 325 178.25 324C176.25 323 175.25 323 173.25 323L171.25 323M73.25 487C69.25 487 65.25 488 61.25 490C53.25 494 46.25 503 41.25 515C36.22 525.89 34 550.82 34 590.95C34 598.73 34.09 607.08 34.25 616C34.25 625 34 634.75 34 644.63C34 654.50 34.25 664.50 35.25 674C36.25 683 37.25 689 40.25 699C46.25 717 54.25 733 65.25 747C76.25 761 87.25 772 101.25 780C115.25 788 129.25 793 145.25 794L151.35 794.19C165.31 794.19 179.28 791.24 193.25 786C209.25 780 222.25 771 233.25 759C232.25 766 230.25 772 228.25 776C223.18 788.03 220.52 795.65 220.52 802.67C220.52 806.74 221.42 810.60 223.25 815C227.25 824 236.25 833 245.25 833C254.25 833 262.25 825 267.25 817C273.25 808 273.25 795 274.25 785C276.25 758 276.25 749 276.25 741C275.93 716.33 275.62 694.57 275.62 675.83C275.62 635.31 277.10 608.94 283.25 598C292.25 582 303.25 570 306.25 555C306.92 550 307.25 545.11 307.25 540.33C307.25 530.78 305.92 521.67 303.25 513C299.25 500 293.25 492 284.25 489C276.25 486 267.25 486 259.25 490C251.25 494 244.25 503 239.25 515C234.22 525.89 232 550.82 232 590.95C232 598.73 232.09 607.08 232.25 616C232.25 650 233.25 681 233.25 712C224.25 723 214.25 732 204.25 738C193.25 745 183.25 749 174.25 752C163.25 755 153.25 756 143.25 755C133.25 754 125.25 751 117.25 746C109.25 741 103.25 735 97.25 728C91.25 721 87.25 713 84.25 705C80.25 694 77.25 685 76.25 670C75.89 664.77 75.72 659.32 75.72 653.85C75.72 628.94 79.15 603.56 83.25 597C92.25 581 105.25 570 108.25 555C108.92 550 109.25 545.11 109.25 540.33C109.25 530.78 107.92 521.67 105.25 513C101.25 500 95.25 492 86.25 489C82.25 487 77.25 487 73.25 487"/>
</svg>