<svg xmlns="http://www.w3.org/2000/svg" viewBox="0 0 338 1204">
  <path d="M94.25 333C90.25 333 86.25 334 83.25 335C79.25 336 76.25 337 73.25 339C72.25 341 69.25 342 67.25 344C65.25 346 62.25 350 59.25 353C56.25 357 55.25 361 54.25 366C53.25 371 53.25 377 54.25 382C57.25 393 61.25 402 65.25 409C69.25 416 73.25 422 78.25 426C83.25 430 88.25 433 93.25 434C98.25 435 103.25 436 108.25 436C119.25 435 130.25 431 142.25 423C147.25 418 150.25 414 152.25 408C154.25 403 155.25 397 155.25 391C155.25 385 153.25 377 148.25 369C148.25 368 147.25 367 145.25 364C143.25 361 141.25 357 138.25 353C135.25 349 131.25 346 126.25 343C121.25 340 115.25 337 109.25 335C104.25 333 98.25 333 94.25 333M227.25 333C223.25 333 219.25 334 216.25 335C212.25 336 209.25 337 206.25 339C205.25 341 202.25 342 200.25 344C198.25 346 196.25 350 193.25 353C190.25 357 188.25 361 187.25 366C186.25 371 186.25 377 187.25 382C190.25 393 194.25 402 198.25 409C202.25 416 207.25 422 212.25 426C217.25 430 221.25 433 226.25 434C231.25 435 236.25 436 241.25 436C252.25 435 263.25 431 275.25 423C280.25 418 283.25 414 285.25 408C287.25 403 288.25 397 288.25 391C288.25 385 286.25 377 281.25 369C281.25 368 280.25 367 278.25 364C276.25 361 274.25 357 271.25 353C268.25 349 264.25 346 259.25 343C254.25 340 248.25 337 242.25 335C237.25 333 231.25 333 227.25 333M73.25 487C69.25 487 65.25 488 61.25 490C53.25 494 46.25 503 41.25 515C36.22 525.89 34 550.82 34 590.95C34 598.73 34.09 607.08 34.25 616C34.25 625 34 634.75 34 644.63C34 654.50 34.25 664.50 35.25 674C36.25 683 37.25 689 40.25 699C46.25 717 54.25 733 65.25 747C76.25 761 87.25 772 101.25 780C115.25 788 129.25 793 145.25 794L151.35 794.19C165.31 794.19 179.28 791.24 193.25 786C209.25 780 222.25 771 233.25 759C232.25 766 230.25 772 228.25 776C223.18 788.03 220.52 795.65 220.52 802.67C220.52 806.74 221.42 810.60 223.25 815C227.25 824 236.25 833 245.25 833C254.25 833 262.25 825 267.25 817C273.25 808 273.25 795 274.25 785C276.25 758 276.25 749 276.25 741C275.93 716.33 275.62 694.57 275.62 675.83C275.62 635.31 277.10 608.94 283.25 598C292.25 582 303.25 570 306.25 555C306.92 550 307.25 545.11 307.25 540.33C307.25 530.78 305.92 521.67 303.25 513C299.25 500 293.25 492 284.25 489C276.25 486 267.25 486 259.25 490C251.25 494 244.25 503 239.25 515C234.22 525.89 232 550.82 232 590.95C232 598.73 232.09 607.08 232.25 616C232.25 650 233.25 681 233.25 712C224.25 723 214.25 732 204.25 738C193.25 745 183.25 749 174.25 752C163.25 755 153.25 756 143.25 755C133.25 754 125.25 751 117.25 746C109.25 741 103.25 735 97.25 728C91.25 721 87.25 713 84.25 705C80.25 694 77.25 685 76.25 670C75.89 664.77 75.72 659.32 75.72 653.85C75.72 628.94 79.15 603.56 83.25 597C92.25 581 105.25 570 108.25 555C108.92 550 109.25 545.11 109.25 540.33C109.25 530.78 107.92 521.67 105.25 513C101.25 500 95.25 492 86.25 489C82.25 487 77.25 487 73.25 487"/>
</svg>