<svg xmlns="http://www.w3.org/2000/svg" viewBox="0 0 338 1204">
  <path d="M210.25 333C206.25 333 199.25 338 190.25 347C187.25 350 185.25 353 182.25 356C179.25 359 177.25 362 174.25 365C167.25 372 153.25 384 153.25 384C153.25 384 145.25 392 142.25 393C139.25 394 136.25 395 133.25 394C127.25 393 123.25 393 120.25 395C117.25 397 114.25 399 111.25 402C109.25 404 109.25 405 108.25 407C107.25 409 107.25 410 107.25 412C107.25 414 106.25 416 107.25 418C108.25 420 108.25 421 109.25 422C112.25 426 115.25 428 119.25 431C123.25 434 127.25 436 131.25 436C135.25 436 142.25 431 151.25 422C158.25 415 170.25 402 170.25 402L191.25 382C191.25 382 198.25 376 201.25 375C204.25 374 206.25 373 209.25 374C212.25 375 214.25 375 216.25 375C218.25 375 220.25 375 222.25 374C224.25 373 225.25 372 226.25 371C227.25 370 230.25 368 231.25 367C234.25 364 235.25 360 235.25 356C235.25 352 235.25 349 233.25 347C232.25 345 230.25 344 228.25 342C226.25 340 224.25 338 222.25 337C218.25 334 215.25 333 210.25 333M73.25 487C69.25 487 65.25 488 61.25 490C53.25 494 46.25 503 41.25 515C36.22 525.89 34 550.82 34 590.95C34 598.73 34.09 607.08 34.25 616C34.25 625 34 634.75 34 644.63C34 654.50 34.25 664.50 35.25 674C36.25 683 37.25 689 40.25 699C46.25 717 54.25 734 65.25 748C76.25 762 87.25 772 101.25 780C115.25 788 130.25 793 146.25 794C148.28 794.13 150.30 794.19 152.30 794.19C166.08 794.19 179.28 791.24 193.25 786C209.25 780 241.25 753 241.25 753C240.25 789 242.25 825 237.25 860C234.25 877 232.25 896 223.25 910C209.25 932 189.25 954 164.25 960C161.19 960.73 157.99 961.05 154.71 961.05C135.42 961.05 113.36 949.84 102.25 943C74.25 925 59.25 896 50.25 872C44.25 855 40.25 834 40.25 810C36.37 826.28 34.90 841.96 34.90 857.04C34.90 861.41 35.03 865.73 35.25 870C36.25 889 40.25 906 47.25 922C54.25 938 63.25 951 74.25 963C85.25 975 98.25 985 114.25 991C127.65 996.03 140.36 998.25 153.53 998.25C156.08 998.25 158.65 998.16 161.25 998C177.25 997 192.25 993 206.25 985C220.25 977 231.25 966 242.25 952C253.25 938 261.25 922 267.25 904C270.25 893 271.25 883 272.25 873C275.25 844 274.25 814 275.25 785C275.25 771 276.25 749 276.25 741C276 721.50 275.81 703.81 275.81 688C275.81 640.56 277.50 610 284.25 598C293.25 582 303.25 570 306.25 555C306.92 550 307.25 545.11 307.25 540.33C307.25 530.78 305.92 521.67 303.25 513C299.25 500 293.25 492 284.25 489C276.25 486 267.25 486 259.25 490C251.25 494 244.25 503 239.25 515C234.22 525.89 232 550.82 232 590.95C232 598.73 232.09 607.08 232.25 616C232.25 650 233.25 682 233.25 713C224.25 724 215.25 733 205.25 739C194.25 746 183.25 750 174.25 753C163.25 756 153.25 756 143.25 755C133.25 754 125.25 751 117.25 746C109.25 741 103.25 735 97.25 728C91.25 721 87.25 713 84.25 705C80.25 694 77.25 685 76.25 670C75.89 664.77 75.72 659.32 75.72 653.85C75.72 628.94 79.15 603.56 83.25 597C92.25 581 105.25 570 108.25 555C108.92 550 109.25 545.11 109.25 540.33C109.25 530.78 107.92 521.67 105.25 513C101.25 500 95.25 492 86.25 489C82.25 487 77.25 487 73.25 487"/>
</svg>