<svg xmlns="http://www.w3.org/2000/svg" viewBox="0 0 411 1204">
  <path d="M70 179C56 179 46 186 42 198C40.17 203.13 39.27 208.67 39.27 214.56C39.27 224.74 41.93 235.97 47 248C51 258 55 273 57 296C59 317 60 344 61 381C61.20 392.20 61.28 403.16 61.28 413.95C61.28 457.12 60 497.60 60 540C60 570 60 595 59 616C45 617 36 621 32 628C30 631 29 635 29 639C29 646 31 653 37 661C44 672 51 675 53 709C53 716 52 745 52 753L52 779C52 799 51 800 51 827C51 863 50 898 50 912C50 930 51 946 52 957C53 968 55 976 58 980C61 984 64 987 68 990C72 993 76 995 80 996C84 998 88 999 92 999C96 999 101 999 106 998C116 996 122 990 126 982C129 977 130 971 131 967C132 963 131 958 129 953C127 948 125 943 122 938C119 933 116 928 111 923C106 917 103 906 100 891C97.75 879.75 96.63 865.13 96.63 847.55C96.63 841.69 96.75 835.50 97 829C97 826 98 786 98 778C98 763 99 750 99 735L101 737C104 741 106 744 109 747C125 765 147 779 169 787C184.81 793.21 202.53 795.60 219.64 795.60C232.84 795.60 245.68 794.18 257 792C283 787 301 774 321 761C331 754 339 745 346 736C367.24 709.18 377.85 675.48 377.85 641.72C377.85 615.07 371.24 588.38 358 565C331.92 517.50 278.09 486.49 223.97 486.49C219.98 486.49 215.99 486.66 212 487C190 489 169 495 150 506C146 509 139 511 135 515C131 518 129 520 128 528C126 537 129 553 139 558C145.05 562.16 151.96 563.89 159.03 563.89C170.64 563.89 182.67 559.22 192 553C202 542 216 531 230 531C268 532 309 559 326 593C332.33 605.66 335.22 620.20 335.22 635.01C335.22 657.63 328.48 680.87 317 699C296 731 255 753 217 755C215.28 755.11 213.56 755.16 211.83 755.16C181.28 755.16 148.82 738.77 128 717C118 706 110 693 104 679L104 665C104 632 103 600 103 570L103 538L103 513C103 482.33 102.56 453 102.56 424.11C102.56 409.67 102.67 395.33 103 381C104 355 106 330 106 308C106.17 301.67 106.25 295.57 106.25 289.71C106.25 225.22 96.17 189.17 76 180C74 180 72 179 70 179"/>
</svg>