<svg xmlns="http://www.w3.org/2000/svg" viewBox="0 0 338 1204">
  <path d="M94.25 333C90.25 333 86.25 334 83.25 335C79.25 336 76.25 337 73.25 339C72.25 341 70.25 342 68.25 344C66.25 346 63.25 350 60.25 353C57.25 357 55.25 361 54.25 366C53.25 371 53.25 377 54.25 382C57.25 393 61.25 402 65.25 409C69.25 416 74.25 422 79.25 426C84.25 430 88.25 433 93.25 434C98.25 435 103.25 436 108.25 436C119.25 435 130.25 431 142.25 423C147.25 418 150.25 414 152.25 408C154.25 403 155.25 397 155.25 391C155.25 385 153.25 377 148.25 369C148.25 368 147.25 367 145.25 364C143.25 361 141.25 357 138.25 353C135.25 349 131.25 346 126.25 343C121.25 340 115.25 337 109.25 335C104.25 333 98.25 333 94.25 333M228.25 333C224.25 333 219.25 334 216.25 335C212.25 336 210.25 337 207.25 339C206.25 341 203.25 342 201.25 344C199.25 346 196.25 350 193.25 353C190.25 357 188.25 361 187.25 366C186.25 371 186.25 377 187.25 382C190.25 393 194.25 402 198.25 409C202.25 416 207.25 422 212.25 426C217.25 430 221.25 433 226.25 434C231.25 435 236.25 436 241.25 436C252.25 435 263.25 431 275.25 423C280.25 418 283.25 414 285.25 408C287.25 403 288.25 397 288.25 391C288.25 385 287.25 377 282.25 369C282.25 368 281.25 367 279.25 364C277.25 361 274.25 357 271.25 353C268.25 349 264.25 346 259.25 343C254.25 340 248.25 337 242.25 335C237.25 333 232.25 333 228.25 333M73.25 487C69.25 487 65.25 488 61.25 490C53.25 494 46.25 503 41.25 515C36.22 525.89 34 550.82 34 590.95C34 598.73 34.09 607.08 34.25 616C34.25 625 34 634.75 34 644.63C34 654.50 34.25 664.50 35.25 674C36.25 683 37.25 689 40.25 699C46.25 717 54.25 734 65.25 748C76.25 762 87.25 772 101.25 780C115.25 788 130.25 793 146.25 794C148.28 794.13 150.30 794.19 152.30 794.19C166.08 794.19 179.28 791.24 193.25 786C209.25 780 241.25 753 241.25 753C240.25 789 242.25 825 237.25 860C234.25 877 232.25 896 223.25 910C209.25 932 189.25 954 164.25 960C161.19 960.73 157.99 961.05 154.71 961.05C135.42 961.05 113.36 949.84 102.25 943C74.25 925 59.25 896 50.25 872C44.25 855 40.25 834 40.25 810C36.37 826.28 34.90 841.96 34.90 857.04C34.90 861.41 35.03 865.73 35.25 870C36.25 889 40.25 906 47.25 922C54.25 938 63.25 951 74.25 963C85.25 975 98.25 985 114.25 991C127.65 996.03 140.36 998.25 153.53 998.25C156.08 998.25 158.65 998.16 161.25 998C177.25 997 192.25 993 206.25 985C220.25 977 231.25 966 242.25 952C253.25 938 261.25 922 267.25 904C270.25 893 271.25 883 272.25 873C275.25 844 274.25 814 275.25 785C275.25 771 276.25 749 276.25 741C276 721.50 275.81 703.81 275.81 688C275.81 640.56 277.50 610 284.25 598C293.25 582 303.25 570 306.25 555C306.92 550 307.25 545.11 307.25 540.33C307.25 530.78 305.92 521.67 303.25 513C299.25 500 293.25 492 284.25 489C276.25 486 267.25 486 259.25 490C251.25 494 244.25 503 239.25 515C234.22 525.89 232 550.82 232 590.95C232 598.73 232.09 607.08 232.25 616C232.25 650 233.25 682 233.25 713C224.25 724 215.25 733 205.25 739C194.25 746 183.25 750 174.25 753C163.25 756 153.25 756 143.25 755C133.25 754 125.25 751 117.25 746C109.25 741 103.25 735 97.25 728C91.25 721 87.25 713 84.25 705C80.25 694 77.25 685 76.25 670C75.89 664.77 75.72 659.32 75.72 653.85C75.72 628.94 79.15 603.56 83.25 597C92.25 581 105.25 570 108.25 555C108.92 550 109.25 545.11 109.25 540.33C109.25 530.78 107.92 521.67 105.25 513C101.25 500 95.25 492 86.25 489C82.25 487 77.25 487 73.25 487"/>
</svg>