<svg xmlns="http://www.w3.org/2000/svg" viewBox="0 0 0 1204">
  <path d="M156 180C150 180 143 184 141 190C140 201 154 207 153 218C138 267 115 314 82 354L63 354C23 354 20 337 20 335C20 337 21 374 63 374L82 374L106 374L192 374C193 379 197 384 205 384C212 384 217 379 220 374C223 368 225 361 225 354C225 347 225 342 224 335C214 288 170 286 164 286C155 286 148 287 141 290C156 265 170 237 173 208C173 199 172 187 164 182C162 180 159 180 156 180M164 304C188 304 204 324 206 335C208 341 208 347 202 354L98 354C118 331 132 308 164 304"/>
</svg>