<svg xmlns="http://www.w3.org/2000/svg" viewBox="0 0 261 1204">
  <path d="M132 788C144 779 152 761 151 746C150 730 140 714 127 704C119 698 108 692 98 694C77 698 56 717 51 738C49 747 56 756 61 764C70 776 82 788 96 792C108 795 122 795 132 788M110 608C114 608 135 605 151 588C157 582 160 575 162 567C164 556 160 542 158 538C156 535 149 523 135 520C134 520 133 518 132 517C131 516 131 515 130 513C129 511 129 509 129 506C128 500 128 494 129 490C129 488 130 485 130 483C131 471 134 459 138 448C142 437 147 426 153 416C159 406 167 397 174 388C181 379 188 371 196 364C214 347 234 332 256 319C255 318 249 319 238 322C227 325 215 330 200 337C185 344 170 352 155 361C144 368 105 392 80 433C70 449 62 466 60 475C56 490 51 506 51 522C51 539 52 557 59 573C63 583 70 592 79 598C88 604 99 607 110 608"/>
</svg>