<svg xmlns="http://www.w3.org/2000/svg" viewBox="0 0 409 1204">
  <path d="M190 180C183 180 177 179 170 180C120 188 83 205 59 231C35 257 22 295 21 342C21 361 25 378 34 394C43 410 54 423 69 434C84 445 100 455 119 461C138 467 159 470 180 470L206 470L238 470C243 470 245 472 246 477C247 482 247 490 246 501C246 505 245 509 245 513C245 517 244 523 243 530C242 537 241 545 239 555C237 565 234 578 231 593C230 599 228 605 226 611C224 617 222 623 220 628C218 633 215 638 214 643C213 648 213 652 214 656C216 670 220 679 226 684C232 689 239 690 246 688C253 686 261 682 269 675C277 668 283 661 289 653C291 647 293 642 293 638C293 634 291 631 289 629C287 627 285 624 282 622C279 620 277 618 275 615C273 612 270 607 269 601C268 595 268 588 269 579C270 571 270 564 271 558C272 552 273 547 274 542C275 537 276 533 278 528C280 523 281 518 283 512C285 506 288 500 290 492C292 484 294 475 297 463C299 455 300 448 297 444C294 440 291 437 287 435C283 433 277 432 271 432L172 432C158 432 145 429 132 424C119 419 108 411 99 403C90 395 83 385 78 374C73 363 69 353 69 342C69 322 71 306 76 292C81 278 87 267 96 258C105 249 115 243 127 238C139 233 154 230 170 228C179 228 188 228 197 229C206 230 214 231 223 233C232 235 240 238 248 243C256 248 265 254 272 262C276 267 278 272 280 278C282 284 282 290 283 296C284 302 284 308 285 313C286 318 287 322 288 325C294 337 303 346 317 352C320 353 323 353 325 353L331 353C333 353 335 352 338 351C341 350 344 348 347 345C351 342 354 338 355 334C356 330 356 325 356 320C356 315 355 310 353 304C351 298 349 293 347 287C341 274 334 260 324 246C310 231 297 219 284 210C271 201 258 194 246 189C234 184 221 181 209 180C203 179 197 180 190 180M235 719C232 719 228 719 224 720C219 721 216 724 212 726C208 728 205 731 203 734C201 737 198 739 197 741C196 743 195 744 195 745C192 751 190 756 190 761C190 766 191 769 192 773C194 777 196 781 200 784C209 790 217 793 225 794C228 794 232 794 236 793C240 792 243 790 247 787C251 784 254 780 257 775C260 770 263 763 265 755C266 751 266 747 265 743C264 739 263 735 261 733C259 730 257 728 255 727C253 726 251 724 250 723C250 723 248 722 243 720C241 719 238 719 235 719"/>
</svg>