<svg xmlns="http://www.w3.org/2000/svg" viewBox="0 0 266 1204">
  <path d="M196 52C187 52 177 59 169 60C156 62 149 63 138 63L114 63L87 63C69 62 63 63 53 68C50 70 46 73 45 76C43 81 43 87 46 92C48 94 50 96 53 97C54 98 55 99 55 100C57 106 58 112 58 119C57 132 45 154 45 154C45 154 73 140 79 127C83 119 84 108 83 98C88 96 91 92 97 91C103 90 108 89 113 89C118 89 133 88 139 88L179 88C197 89 203 88 213 83C216 81 220 78 221 75C223 70 224 63 220 59C218 57 215 55 212 54C207 52 201 52 196 52M147 180C132 180 123 186 118 198C113 212 115 229 124 248C129 258 132 274 134 297C136 320 137 349 138 385C139 424 138 467 138 513C138 559 138 610 137 665C136 720 139 753 145 766C150 778 157 787 166 791C174 795 183 795 192 792C202 789 209 780 213 767C218 754 219 741 216 726C213 711 208 696 198 680C188 664 183 618 184 540L187 309C189 233 177 190 154 180"/>
</svg>