<svg xmlns="http://www.w3.org/2000/svg" viewBox="0 0 196 1204">
  <path d="M99 0C97 0 94 1 92 1C90 1 87 2 85 3C80 5 74 7 68 10C58 15 50 22 44 30C38 38 33 46 31 55C30 59 30 63 30 67C30 82 37 94 50 102C56 106 63 109 71 110C69 111 68 111 66 112C59 115 51 117 49 118C42 120 37 122 33 124C29 126 27 130 24 133L21 139C20 141 20 144 22 147C25 151 30 152 35 153C40 154 45 154 49 154C60 153 70 149 78 140L84 137C86 136 88 134 88 134L119 123C119 123 137 116 148 112C155 110 161 107 165 105C169 103 172 100 173 97C176 89 172 81 165 77C158 73 148 72 142 75C136 78 134 81 130 84C121 85 109 85 98 85C87 85 77 83 71 80L71 79L70 79C63 76 61 72 61 67C61 62 64 56 67 50C69 46 73 43 76 41C78 40 81 38 82 38C84 38 85 37 86 37L90 37C92 37 93 37 95 36C98 35 102 34 105 32C108 30 112 27 114 24C116 22 117 19 117 16C117 12 115 9 112 6C110 4 108 3 106 2C104 1 101 0 99 0M94 180C79 180 69 186 64 198C62 203 61 209 61 215C61 225 64 236 70 248C75 258 78 274 80 297C82 320 83 349 84 385C84 411 85 439 85 468L85 513C85 559 84 610 83 665L83 684C83 727 86 755 91 766C96 778 104 787 113 791C121 795 130 795 139 792C149 789 155 780 159 767C162 759 164 751 164 742C164 737 163 731 162 726C159 711 154 696 144 680C135 665 130 623 130 553L130 540L133 309L133 293C133 226 122 189 100 180"/>
</svg>