<svg xmlns="http://www.w3.org/2000/svg" viewBox="0 0 262 1204">
  <path d="M140 487L133 487C131 487 128 488 126 489C121 491 115 493 109 496C99 501 91 508 85 516C79 524 74 533 72 542C71 546 71 549 71 553C71 568 78 580 91 588C97 592 104 595 112 596C110 597 109 598 107 599C100 602 92 604 90 605C83 607 78 609 74 611C70 613 68 616 65 619L62 625C61 627 61 630 63 633C66 637 71 639 76 640C81 641 86 640 90 640C101 639 111 636 119 627C119 627 123 624 125 623L129 621L160 609C160 609 178 602 189 598C196 596 201 593 205 591C209 589 213 586 214 583C217 575 213 567 206 563C199 559 189 558 183 561C177 564 175 568 171 571C162 572 150 572 139 572C128 572 118 569 112 566L111 566C104 563 102 559 102 554C102 549 105 542 108 536C110 532 114 529 117 527C119 526 122 525 123 525C125 525 126 524 127 524L131 524C133 524 134 524 136 523C139 522 143 520 146 518C149 516 153 514 155 511C157 509 158 506 158 503C158 499 156 496 153 493C151 491 149 489 147 488C145 487 142 487 140 487M158 640C136 640 116 649 105 659C85 676 79 698 79 718C79 731 81 744 87 755C93 765 102 774 112 780C121 786 132 790 143 792C152 794 170 794 170 794L187 794C186 803 182 831 176 849C169 871 161 891 148 913C135 935 116 957 91 980C74 992 57 1004 41 1013C25 1022 10 1031-6 1038C-22 1045-38 1050-54 1055C-70 1060-86 1064-103 1067C-115 1069-126 1072-136 1073C-146 1074-156 1075-166 1075C-176 1075-186 1074-196 1072C-206 1070-217 1068-228 1064C-239 1060-251 1054-264 1047C-277 1040-291 1031-307 1020C-291 1040-276 1056-261 1069C-246 1082-231 1091-215 1098C-199 1105-182 1110-164 1111C-158 1112-151 1111-144 1111C-132 1111-119 1111-105 1109C-78 1106-51 1099-24 1091C3 1083 28 1072 52 1058C76 1044 99 1028 120 1009C141 990 159 968 175 944C182 933 188 923 194 913C200 903 206 892 211 882C216 872 220 861 223 849C226 837 229 824 231 812C233 797 236 782 236 767C236 767 235 763 235 759L235 749C235 726 235 701 223 682C210 661 186 640 158 640M155 702L157 702C174 702 186 720 188 734C188 737 190 740 190 743L173 743L168 743C161 743 147 742 141 737C137 733 135 728 135 723C135 713 143 703 155 702"/>
</svg>