<svg xmlns="http://www.w3.org/2000/svg" viewBox="0 0 727 1204">
  <path d="M638 625C629 625 621 627 613 628C567 636 525 674 513 719C511 726 510 731 510 737C510 786 577 793 615 793L616 793C638 793 648 803 651 836C651 840 652 843 652 847C652 949 518 1063 357 1063L353 1063C195 1061 39 956 39 774C39 761 39 747 41 733C27 767 20 800 20 831C20 990 189 1107 353 1111L362 1111C543 1111 701 973 701 836C701 824 699 812 694 798C682 765 664 745 615 743C584 742 570 728 570 715C570 702 584 689 608 689C614 689 621 690 628 692C640 695 638 699 659 708C662 709 664 710 667 710C683 710 701 694 701 672C701 668 700 665 699 661C690 632 666 625 642 625M314 640C312 640 309 641 307 641C305 641 302 642 300 643C295 645 289 647 283 650C273 655 265 662 259 670C253 678 248 686 246 695C245 699 245 703 245 707C245 722 252 734 265 742C271 746 278 749 286 750C284 751 283 751 281 752C274 755 266 757 264 758C257 760 252 762 248 764C244 766 242 770 239 773L236 779C235 781 235 784 237 787C240 791 245 792 250 793C255 794 260 794 264 794C275 793 285 789 293 780L299 777C301 776 303 774 303 774L334 763C334 763 352 756 363 752C370 750 376 747 380 745C384 743 387 740 388 737C391 729 387 721 380 717C373 713 363 712 357 715C351 718 349 721 345 724C336 725 324 725 313 725C302 725 292 723 286 720L286 719C279 716 276 712 276 707C276 702 279 696 282 690C284 686 288 683 291 681C293 680 296 678 297 678C299 678 300 677 301 677L305 677C307 677 308 677 310 676L311 676C314 675 317 674 320 672C323 670 327 667 329 664C331 662 332 659 332 656C332 652 330 649 327 646C325 644 323 643 321 642C319 641 316 640 314 640"/>
</svg>