<svg xmlns="http://www.w3.org/2000/svg" viewBox="0 0 302 1204">
  <path d="M60 487C57 487 55 487 52 488C48 489 44 491 40 494C36 497 33 501 30 506C27 511 24 519 21 527C20 531 20 535 21 539C22 543 24 546 26 549C28 552 30 554 32 555C34 556 35 558 36 559C36 559 39 560 44 562C49 564 55 564 63 562C68 561 72 559 76 556C80 553 83 551 86 548C89 545 91 543 92 541C93 539 94 537 94 536C97 530 99 526 99 521C99 516 97 512 96 508C94 504 92 500 88 497C79 491 71 488 63 487M149 487C146 487 143 487 140 488C136 489 133 491 129 494C125 497 122 501 119 506C116 511 113 519 110 527C109 531 109 535 110 539C111 543 113 546 115 549C117 552 119 554 121 555C123 556 124 558 125 559C125 559 128 560 133 562C138 564 144 564 152 562C157 561 161 559 165 556C169 553 172 551 175 548C178 545 179 543 180 541C181 539 183 537 183 536C186 530 188 526 188 521C188 516 186 512 185 508C183 504 181 500 177 497C168 491 159 488 151 487M237 487C218 487 209 496 206 505C204 510 203 516 203 522C203 532 206 543 212 555C217 565 220 588 222 604C224 620 225 653 225 653C202 635 183 623 158 623C150 623 141 624 131 627C93 640 80 673 80 704C80 723 86 741 94 752C114 779 144 792 174 794L178 794C204 794 233 780 249 765C266 750 276 727 276 691L276 616L276 601C276 551 270 487 237 487M171 663C192 664 209 680 226 691C226 693 227 697 227 699C227 710 224 721 217 731C208 744 191 751 175 751C159 751 143 744 134 730C129 722 127 714 127 705C127 701 128 696 129 692C134 676 147 663 168 663"/>
</svg>