<svg xmlns="http://www.w3.org/2000/svg" viewBox="0 0 398 1204">
  <path d="M95 662C88 666 82 674 81 683C80 690 84 698 88 704C91 709 94 715 100 717C108 720 118 718 126 714C135 709 142 700 145 691C145 691 170 676 184 675L190 675C213 675 231 686 257 692C225 692 185 710 161 721C78 753 24 811 20 906C23 1068 149 1101 278 1101C331 1101 385 1096 430 1091C304 1074 75 1088 70 906C70 821 112 792 176 755C217 731 278 719 316 712L317 712C323 712 335 719 346 719C353 719 358 716 362 708C364 704 364 701 364 698C364 690 359 684 353 680C348 676 342 676 335 674C320 669 300 670 278 664C241 648 207 640 177 640C148 640 121 648 95 662"/>
</svg>