<svg xmlns="http://www.w3.org/2000/svg" viewBox="0 0 203 1204">
  <path d="M105 640C100 640 96 642 91 645C85 648 81 652 77 656C73 660 70 665 68 669C66 673 65 679 64 683C63 687 63 692 63 696C63 706 64 716 68 726C71 734 76 740 80 745C84 750 88 755 93 759C98 763 102 768 106 773C110 778 114 783 116 790C117 796 118 803 118 810L118 829C118 836 117 843 116 849C112 869 105 891 92 913C79 935 60 958 35 981C18 993 2 1004-14 1013C-30 1022-46 1031-62 1038C-78 1045-94 1050-110 1055C-126 1060-142 1064-159 1067C-171 1069-182 1072-192 1073C-202 1074-212 1075-222 1075C-232 1075-242 1075-252 1073C-262 1071-273 1068-284 1064C-295 1060-307 1054-320 1047C-333 1040-348 1032-364 1021C-348 1041-332 1056-317 1069C-302 1082-287 1091-271 1098C-255 1105-239 1110-221 1111C-215 1112-208 1112-201 1112C-189 1112-175 1111-161 1109C-134 1106-107 1099-80 1091C-53 1083-27 1072-3 1058C21 1044 43 1028 64 1009C85 990 103 968 119 944C126 933 133 923 139 913C145 903 150 892 155 882C160 872 165 861 168 849C171 837 173 825 174 812L174 791C174 784 173 777 173 770C172 756 170 742 167 728C161 707 154 690 146 676C143 670 139 664 135 659C131 654 127 649 122 646C117 643 112 642 107 641C106 641 106 640 105 640"/>
</svg>