<svg xmlns="http://www.w3.org/2000/svg" viewBox="0 0 229 1204">
  <path d="M116 487C113 487 111 487 108 488C104 489 101 491 97 494C93 497 90 501 87 506C84 511 81 518 79 526C78 530 78 533 79 537C80 541 81 545 83 547C85 550 87 552 89 553C91 554 92 556 93 557C93 557 96 558 101 560C106 562 112 562 120 560C125 559 128 556 132 554C136 552 139 550 141 547C143 544 146 541 147 539C148 537 149 536 149 535C152 530 154 525 154 520C154 515 152 511 151 507C149 503 148 499 144 496C135 490 127 488 119 487M117 640C112 640 107 642 102 645C96 648 92 652 88 656C84 660 81 665 79 669C77 673 76 679 75 683C74 687 74 692 74 696C74 706 75 716 79 726C82 734 87 740 91 745C95 750 100 755 105 759C110 763 114 768 118 773C122 778 125 783 127 790C128 796 129 803 129 810L129 829C129 836 129 843 128 849C124 869 116 891 103 913C90 935 71 958 46 981C29 993 13 1004-3 1013C-19 1022-35 1031-51 1038C-67 1045-82 1050-98 1055C-114 1060-130 1064-147 1067C-159 1069-170 1072-180 1073C-190 1074-201 1075-211 1075C-221 1075-231 1075-241 1073C-251 1071-262 1068-273 1064C-284 1060-296 1054-309 1047C-322 1040-336 1032-352 1021C-336 1041-321 1056-306 1069C-291 1082-276 1091-260 1098C-244 1105-227 1110-209 1111C-203 1112-196 1112-189 1112C-177 1112-164 1111-150 1109C-123 1106-96 1099-69 1091C-42 1083-16 1072 8 1058C32 1044 54 1028 75 1009C96 990 115 968 131 944C138 933 144 923 150 913C156 903 162 892 167 882C172 872 176 861 179 849C182 837 184 825 185 812L185 791L185 770C184 756 182 742 179 728C173 707 166 690 158 676C155 670 150 664 146 659C142 654 138 649 133 646C128 643 124 642 119 641C118 641 118 640 117 640"/>
</svg>