<svg xmlns="http://www.w3.org/2000/svg" viewBox="0 0 960 1204">
  <path d="M877 640C854 640 842 658 842 674C842 681 844 687 848 692C862 710 863 709 870 719C874 724 876 729 876 733C876 746 860 756 849 758L846 758C816 758 807 692 777 692C756 692 769 756 736 758L735 758C702 758 697 692 674 692C655 692 648 707 648 725C648 750 658 781 663 794C665 802 667 812 667 821C667 836 664 848 664 849C660 869 653 890 640 912C627 934 608 957 583 980C566 992 549 1004 533 1013C517 1022 501 1030 485 1037C477 1040 418 1063 359 1063L355 1063C293 1062 232 1037 224 1032C208 1023 192 1013 178 1003C164 993 151 982 139 971C127 960 116 947 105 934C97 925 89 917 83 909C77 901 71 893 66 884C61 875 57 866 53 856C49 846 47 836 45 824C43 812 41 799 41 784L41 772C41 760 42 748 43 734C34 758 27 779 24 798C22 810 20 823 20 834C20 840 21 847 22 853C24 870 28 887 36 903C44 919 54 935 67 953C84 975 102 996 123 1015C144 1034 166 1050 190 1064C214 1078 239 1089 266 1098C289 1105 322 1111 348 1111L355 1111L356 1111C449 1111 537 1062 544 1058C568 1044 591 1028 612 1009C633 990 651 968 667 944C709 878 712 868 713 794L713 786C713 786 713 794 748 794C777 794 788 767 788 767C788 767 807 794 848 794C890 794 931 766 931 714C931 672 901 640 877 640"/>
</svg>