<svg xmlns="http://www.w3.org/2000/svg" viewBox="0 0 968 1204">
  <path d="M786 487C783 487 781 487 778 488C774 489 771 491 767 494C763 497 760 501 757 506C754 511 751 519 748 527C747 531 747 535 748 539C749 543 751 546 753 549C755 552 757 554 759 555C761 556 762 558 763 559C763 559 765 560 770 562C775 564 782 564 790 562C795 561 798 559 802 556C806 553 808 551 811 548C814 545 816 543 817 541C818 539 819 537 819 536C822 530 824 526 824 521C824 516 823 512 822 508C820 504 818 500 814 497C805 491 797 488 789 487M735 564C732 564 730 564 727 565C723 566 720 568 716 571C712 574 709 578 706 583C703 588 700 595 697 603C696 607 696 611 697 615C698 619 699 622 701 625C703 628 705 631 707 632C709 633 711 635 712 636C712 636 714 637 719 639C724 641 730 641 738 639C743 638 747 636 751 633C755 630 757 628 760 625C763 622 765 619 766 617C767 615 768 614 768 613C771 607 773 603 773 598C773 593 772 589 771 585C769 581 767 576 763 573C754 567 746 565 738 564M822 564C819 564 817 564 814 565C810 566 807 568 803 571C799 574 796 578 793 583C790 588 787 595 784 603C783 607 783 611 784 615C785 619 786 622 788 625C790 628 792 631 794 632C796 633 798 635 799 636C799 636 801 637 806 639C811 641 817 641 825 639C830 638 834 636 838 633C842 630 844 628 847 625C850 622 852 619 853 617C854 615 855 614 855 613C858 607 860 603 860 598C860 593 859 589 858 585C856 581 854 576 850 573C841 567 833 565 825 564M877 640C854 640 842 658 842 674C842 681 844 687 848 692C862 710 863 709 870 719C874 724 876 729 876 733C876 746 860 756 849 758L846 758C816 758 807 692 777 692C756 692 769 756 736 758L735 758C702 758 697 692 674 692C655 692 648 707 648 725C648 750 658 781 663 794C665 802 667 812 667 821C667 836 664 848 664 849C660 869 653 890 640 912C627 934 608 957 583 980C566 992 549 1004 533 1013C517 1022 501 1030 485 1037C477 1040 418 1063 359 1063L355 1063C293 1062 232 1037 224 1032C208 1023 192 1013 178 1003C164 993 151 982 139 971C127 960 116 947 105 934C97 925 89 917 83 909C77 901 71 893 66 884C61 875 57 866 53 856C49 846 47 836 45 824C43 812 41 799 41 784L41 772C41 760 42 748 43 734C34 758 27 779 24 798C22 810 20 823 20 834C20 840 21 847 22 853C24 870 28 887 36 903C44 919 54 935 67 953C84 975 102 996 123 1015C144 1034 166 1050 190 1064C214 1078 239 1089 266 1098C289 1105 322 1111 348 1111L355 1111L356 1111C449 1111 537 1062 544 1058C568 1044 591 1028 612 1009C633 990 651 968 667 944C709 878 712 868 713 794L713 786C713 786 714 794 748 794C777 794 788 767 788 767C788 767 807 794 848 794C890 794 931 766 931 714C931 672 901 640 877 640"/>
</svg>