<svg xmlns="http://www.w3.org/2000/svg" viewBox="0 0 604 1204">
  <path d="M401 289C393 283 385 282 379 282C362 282 345 293 341 310L341 312C341 340 374 355 372 384C333 514 270 638 184 743L133 743C28 743 20 698 20 692C20 696 23 794 133 794L184 794L247 794L475 794C477 808 489 822 509 822C526 822 542 808 550 794C559 779 564 761 564 743L564 741C564 724 562 708 560 691C534 567 417 562 400 562C377 562 356 567 339 574C378 507 417 434 426 358L426 356C426 332 423 303 401 289M500 410C497 410 495 410 492 411C488 412 485 414 481 417C477 420 474 425 471 430C468 435 466 442 463 450C462 454 461 458 462 462C463 466 465 469 467 472C469 475 471 477 473 478C475 479 476 481 477 482C477 482 479 483 484 485C489 487 496 487 504 485C509 484 512 482 516 479C520 476 523 474 526 471C529 468 530 466 531 464C532 462 534 461 534 460C537 454 538 449 538 444C538 439 537 435 536 431C534 427 532 423 528 420C519 414 511 411 503 410M400 611L401 611C465 611 505 663 511 691C513 699 515 706 515 713C515 722 512 732 503 743C438 743 414 742 402 742C379 742 403 743 236 743L226 743C278 682 316 622 400 611"/>
</svg>