<svg xmlns="http://www.w3.org/2000/svg" viewBox="0 0 589 1204">
  <path d="M478 333C475 333 473 333 470 334C466 335 462 337 458 340C454 343 451 348 448 353C445 358 443 365 440 373C439 377 439 381 440 385C441 389 442 392 444 395C446 398 448 400 450 401C452 402 453 404 454 405C454 405 457 407 462 409C467 411 473 411 481 409C486 408 490 406 494 403C498 400 500 398 503 395C506 392 507 389 508 387C509 385 511 384 511 383C514 377 516 372 516 367C516 362 514 358 513 354C511 350 509 346 505 343C496 337 488 334 480 333M487 487C465 487 445 496 434 506C414 523 408 545 408 565C408 599 422 615 441 627C460 640 500 640 514 640L519 640C519 640 520 645 520 652C520 679 497 743 279 743C91 743 45 699 45 655C45 611 90 568 86 568C70 568 20 620 20 676C20 734 76 794 280 794C545 794 563 693 563 641C563 552 544 487 487 487M516 603L504 603C479 603 461 600 455 581C454 577 453 573 453 569C453 550 471 541 482 541L486 541C508 546 513 566 516 603"/>
</svg>