<svg xmlns="http://www.w3.org/2000/svg" viewBox="0 0 329 1204">
  <path d="M199 625C170 625 150 645 128 660C103 677 80 673 60 719C53 736 49 752 49 769C49 778 50 787 52 796C63 851 80 912 80 972C80 990 78 1008 74 1025C63 1076 57 1095-14 1158C-27 1169-33 1177-33 1181C-33 1183-31 1183-29 1183C-24 1183-16 1180-5 1173C57 1140 101 1100 120 1041C128 1016 131 989 131 963C131 898 112 834 102 786C100 778 99 769 99 760C99 756 99 752 100 748C102 742 104 731 111 731C117 731 117 742 119 747C132 781 161 805 199 805C249 805 290 764 290 715C290 666 249 625 199 625M202 672C224 672 242 693 242 715C242 737 221 761 199 761C177 761 155 738 155 716C155 694 180 672 202 672"/>
</svg>