<svg xmlns="http://www.w3.org/2000/svg" viewBox="0 0 272 1204">
  <path d="M95 659C73 678 70 701 70 718C70 731 72 744 78 755C84 765 93 774 103 780C112 786 123 790 134 792C143 794 161 794 161 794L178 794C177 803 173 831 167 849C160 871 152 891 139 913C126 935 107 957 82 980C65 992 48 1004 32 1013C16 1022 0 1031-16 1038C-32 1045-47 1050-63 1055C-79 1060-95 1064-112 1067C-124 1069-135 1072-145 1073C-155 1074-165 1075-175 1075C-185 1075-195 1074-205 1072C-215 1070-226 1068-237 1064C-248 1060-260 1054-273 1047C-286 1040-300 1031-316 1020C-300 1040-285 1056-270 1069C-255 1082-240 1091-224 1098C-208 1105-192 1110-174 1111C-168 1112-161 1111-154 1111C-142 1111-128 1111-114 1109C-87 1106-60 1099-33 1091C-6 1083 19 1072 43 1058C67 1044 90 1028 111 1009C132 990 150 968 166 944C173 933 179 923 185 913C191 903 197 892 202 882C207 872 211 861 214 849C217 837 220 824 222 812C224 797 226 782 226 767L226 759L226 749C226 726 225 701 213 682C200 661 177 640 149 640C127 640 106 649 95 659M179 734C179 737 180 740 180 743L164 743L159 743C152 743 138 742 132 737C128 733 126 728 126 723C126 713 134 703 146 702L147 702C164 702 177 720 179 734"/>
</svg>