<svg xmlns="http://www.w3.org/2000/svg" viewBox="0 0 739 1204">
  <path d="M615 743C584 742 570 728 570 715C570 702 584 689 608 689C614 689 621 690 628 692C640 695 638 699 659 708C662 709 664 710 667 710C683 710 701 694 701 672C701 668 700 665 699 661C690 632 666 625 642 625L638 625C629 625 621 627 613 628C567 636 525 674 513 719C511 726 510 731 510 737C510 786 577 793 615 793L616 793C638 793 648 803 651 836C651 840 652 843 652 847C652 949 518 1063 357 1063L353 1063C195 1061 39 956 39 774C39 761 39 747 41 733C27 767 20 800 20 831C20 990 189 1107 353 1111L362 1111C543 1111 701 973 701 836C701 824 699 812 694 798C682 765 664 745 615 743"/>
</svg>