<svg xmlns="http://www.w3.org/2000/svg" viewBox="0 0 731 1204">
  <path d="M638 625C629 625 621 627 613 628C567 636 525 674 513 719C511 726 510 731 510 737C510 786 577 793 615 793L616 793C638 793 648 803 651 836C651 840 652 843 652 847C652 949 518 1063 357 1063L353 1063C195 1061 39 956 39 774C39 761 39 747 41 733C27 767 20 800 20 831C20 990 189 1107 353 1111L362 1111C543 1111 701 973 701 836C701 824 699 812 694 798C682 765 664 745 615 743C584 742 570 728 570 715C570 702 584 689 608 689C614 689 621 690 628 692C640 695 638 699 659 708C662 709 664 710 667 710C683 710 701 694 701 672C701 668 700 665 699 661C690 632 666 625 642 625M310 1111C307 1111 305 1112 302 1113C298 1114 295 1116 291 1119C287 1122 284 1126 281 1131C278 1136 275 1143 272 1151C271 1155 271 1159 272 1163C273 1167 274 1170 276 1173C278 1176 280 1179 282 1180C284 1181 286 1182 287 1183C287 1183 289 1185 294 1187C299 1189 305 1189 313 1187C318 1186 322 1184 326 1181C330 1178 332 1176 335 1173C338 1170 340 1167 341 1165C342 1163 343 1162 343 1161C346 1155 348 1150 348 1145C348 1140 347 1137 346 1133C344 1129 342 1124 338 1121C329 1115 321 1113 313 1112C312 1112 311 1111 310 1111M387 1111C384 1111 382 1112 379 1113C375 1114 372 1116 368 1119C364 1122 360 1126 357 1131C354 1136 352 1143 349 1151C348 1155 348 1159 349 1163C350 1167 351 1170 353 1173C355 1176 357 1179 359 1180C361 1181 362 1182 363 1183C363 1183 366 1185 371 1187C376 1189 382 1189 390 1187C395 1186 399 1184 403 1181C407 1178 409 1176 412 1173C415 1170 417 1167 418 1165C419 1163 420 1162 420 1161C423 1155 425 1150 425 1145C425 1140 424 1137 423 1133C421 1129 419 1124 415 1121C406 1115 397 1113 389 1112C388 1112 388 1111 387 1111"/>
</svg>