<svg xmlns="http://www.w3.org/2000/svg" viewBox="0 0 0 1204">
  <path d="M82 231L80 231C79 231 78 231 77 232L74 235C73 237 72 239 72 240C72 241 73 244 74 245C75 247 77 248 79 249L85 252L88 252L91 252L94 252C95 252 97 253 99 254C102 256 104 258 106 261C108 264 109 267 110 271C110 273 111 278 111 281C111 286 109 292 108 295C106 299 104 303 101 307C98 310 95 314 92 316C91 316 91 315 90 315C88 314 87 313 85 311C82 308 78 305 76 302C74 299 72 296 71 293C70 290 69 286 68 283C68 288 68 293 70 298C72 303 75 308 78 312C80 315 82 318 85 320C82 321 80 322 77 322C70 323 62 321 55 320C53 320 50 319 48 318C46 317 45 316 43 315C41 314 39 313 37 311C34 308 31 305 29 302C27 299 25 296 24 293C23 290 21 286 20 283C20 288 21 293 23 298C25 303 28 308 31 312C34 316 38 320 42 323C46 326 51 328 56 330C63 332 70 334 77 333C84 332 91 331 97 328C99 329 102 329 104 330C111 332 118 334 125 333C132 332 138 331 144 328C150 325 156 322 161 317C166 312 169 306 171 300C173 294 174 287 174 281C174 276 173 271 172 266C170 260 167 254 163 249C159 244 153 239 147 236C143 234 139 233 136 232C135 232 133 231 132 231L130 231L128 231C127 231 125 231 124 232L121 235C120 237 119 239 119 240C119 241 120 244 121 245C122 247 125 248 127 249L133 252L136 252L138 252L141 252C142 252 144 253 146 254C149 256 151 258 153 261C155 264 156 267 157 271C157 273 158 278 158 281C158 286 156 292 155 295C153 299 151 303 148 307C145 311 142 315 138 317C134 319 129 321 124 322C119 323 113 322 108 321C110 320 111 319 113 317C118 312 122 306 124 300C126 294 127 287 127 281C127 276 126 271 125 266C123 260 120 254 116 249C112 244 106 239 100 236C96 234 92 233 89 232C88 232 85 231 84 231"/>
</svg>