<svg xmlns="http://www.w3.org/2000/svg" viewBox="0 0 0 1204">
  <path d="M80 231L78 231C77 231 75 231 74 232C73 233 73 234 72 235C71 237 70 239 70 240C70 241 71 244 72 245C73 247 75 248 77 249L83 252L86 252L88 252L91 252C92 252 94 253 96 254C99 256 101 258 103 261C105 264 106 267 107 271L107 281C107 286 106 292 105 295C103 299 101 303 98 307C95 311 92 315 88 317C84 319 80 321 75 322C68 323 61 321 54 320C52 320 49 319 47 318C45 317 44 316 42 315C40 314 39 313 37 311C34 308 31 305 29 302C27 299 25 296 24 293C23 290 21 286 20 283C20 288 21 293 23 298C25 303 27 308 30 312C33 316 37 320 41 323C45 326 50 328 55 330C62 332 68 334 75 333C82 332 88 331 94 328C100 325 105 322 110 317C115 312 118 306 120 300C122 294 123 287 123 281C123 276 122 271 121 266C119 260 116 254 112 249C108 244 103 239 97 236C93 234 89 233 86 232C85 232 83 231 82 231"/>
</svg>