<svg xmlns="http://www.w3.org/2000/svg" viewBox="0 0 0 1204">
  <path d="M33 231C32 231 30 231 29 232C26 233 25 236 23 240C21 244 21 256 21 274C21 280 20 287 21 293C21 296 22 299 23 302C25 308 27 313 30 318C33 323 38 325 42 328C46 331 52 333 57 333L60 333C64 333 68 333 72 331C80 327 86 321 93 315C94 316 94 317 95 318C98 323 103 325 107 328C111 331 117 333 122 333C127 333 132 333 137 331C141 329 144 327 147 325C150 323 153 321 156 317C158 315 159 313 160 310C161 307 162 303 162 299C163 290 163 278 164 272C166 264 173 262 174 254C175 249 174 244 173 240C172 236 169 233 166 232C163 231 161 231 158 232C155 233 154 236 152 240C150 244 150 256 150 274L150 297C150 300 150 303 149 306C147 310 146 312 141 315C138 317 134 318 131 319C127 320 124 320 121 320C118 320 115 319 112 317C109 315 108 313 106 311C104 309 103 306 102 303C101 299 99 297 99 292C98 282 100 270 101 267C104 262 109 259 110 254C111 249 110 244 109 240C108 236 105 233 102 232C99 231 97 231 94 232C91 233 90 236 88 240C86 244 85 256 85 274C85 280 85 287 86 293C86 296 87 299 88 302L88 303C88 303 82 311 76 315C73 317 69 318 66 319C62 320 59 320 56 320C53 320 50 319 47 317C44 315 43 313 41 311C39 309 38 306 37 303C36 299 34 297 34 292C33 282 36 270 37 267C40 262 44 259 45 254C46 249 45 244 44 240C43 236 40 233 37 232C36 231 34 231 33 231"/>
</svg>