<svg xmlns="http://www.w3.org/2000/svg" viewBox="0 0 0 1204">
  <path d="M70 231C65 231 60 232 55 234C48 236 43 239 38 244C33 249 29 254 26 260C23 266 21 272 21 279C21 286 21 292 23 299C25 306 29 311 34 316C39 321 43 325 49 328C55 331 61 332 68 333C75 334 82 332 89 330C94 328 98 326 102 323C106 320 110 315 113 311C116 307 118 302 120 297C122 292 123 286 123 281C123 282 122 282 122 283C122 282 123 282 123 281C123 280 122 277 122 276C122 273 121 269 120 265C118 258 115 253 110 248C105 243 100 239 94 236C88 233 82 231 75 231M74 247C78 247 82 248 86 249C90 250 92 253 95 255C98 257 100 260 101 263C102 265 102 267 102 268L102 271L102 273L102 276C102 278 102 280 103 282C104 284 106 286 107 288C108 289 110 291 111 291C112 291 114 291 117 290C118 290 119 289 120 288C121 287 122 286 122 285C121 287 121 289 120 291C119 294 117 298 115 301C113 304 110 307 107 310C105 312 103 313 101 314C99 315 98 316 96 317L90 320C88 321 84 321 81 322C77 323 72 323 68 322C64 321 60 319 56 316C52 313 49 310 46 306C43 302 41 298 39 293C37 288 37 285 37 280C37 275 38 271 40 267C42 263 45 259 48 256C51 253 55 251 60 249C65 247 70 247 74 247"/>
</svg>