<svg xmlns="http://www.w3.org/2000/svg" viewBox="0 0 0 1204">
  <path d="M173 231C164 231 154 239 146 240C133 242 126 242 115 242L91 242L64 242C46 241 40 243 30 248C27 250 23 252 22 255C20 260 20 266 23 271C25 273 27 275 30 276C31 277 32 278 32 279C34 285 35 291 35 298C34 311 22 333 22 333C22 333 50 320 56 307C60 299 61 287 60 277C65 275 68 271 74 270C80 269 85 268 90 268C95 268 110 267 116 267C116 267 142 268 156 268C174 269 180 267 190 262C193 260 197 258 198 255C200 250 201 242 197 238C195 236 192 234 189 233C184 231 178 231 173 231"/>
</svg>