<svg xmlns="http://www.w3.org/2000/svg" viewBox="0 0 0 1204">
  <path d="M99 231L92 231C90 231 87 232 85 233C80 235 74 237 68 240C58 245 50 252 44 260C38 268 33 277 31 286C26 306 34 322 50 332C56 336 63 339 71 340C69 341 68 342 66 343C59 346 51 348 49 349C42 351 37 353 33 355C29 357 27 360 24 363L21 369C20 371 20 374 22 377C25 381 30 383 35 384C40 385 45 384 49 384C60 383 70 380 78 371C78 371 82 368 84 367L88 365L119 353C119 353 137 346 148 342C155 340 161 337 165 335C169 333 172 330 173 327C176 319 172 311 165 307C158 303 148 302 142 305C136 308 134 312 130 315C121 316 109 316 98 316C87 316 77 313 71 310L70 310C63 307 61 303 61 298C61 293 64 286 67 280C69 276 73 273 76 271C78 270 81 269 82 269C84 269 85 268 86 268L90 268C92 268 93 268 95 267C98 266 102 264 105 262C108 260 112 258 114 255C116 253 117 250 117 247C117 243 115 240 112 237C110 235 108 233 106 232C104 231 101 231 99 231"/>
</svg>