<svg xmlns="http://www.w3.org/2000/svg" viewBox="0 0 0 1204">
  <path d="M99 814L99 815L92 815C90 815 87 816 85 817C80 819 74 821 68 824C58 829 50 836 44 844C38 852 33 860 31 869C26 889 34 906 50 916C56 920 63 923 71 924C69 925 68 925 66 926C59 929 51 931 49 932C42 934 37 937 33 939C29 941 27 944 24 947L21 953C20 955 20 958 22 961C25 965 30 966 35 967C40 968 45 968 49 968C60 967 70 963 78 954L84 951L88 949L119 937C119 937 137 930 148 926C155 924 161 921 165 919C169 917 172 914 173 911C176 903 172 895 165 891C158 887 148 886 142 889C136 892 134 895 130 898C121 899 109 899 98 899C87 899 77 897 71 894L70 893C63 890 61 886 61 881C61 876 64 870 67 864C69 860 73 857 76 855C78 854 81 852 82 852C84 852 85 851 86 851L90 851C92 851 93 851 95 850C98 849 102 848 105 846C108 844 112 841 114 838C116 836 117 833 117 830C117 826 115 823 112 820C110 818 108 817 106 816C104 815 101 814 99 814"/>
</svg>