<svg xmlns="http://www.w3.org/2000/svg" viewBox="0 0 565 1204">
  <path d="M274 180L262 180C253 181 244 182 236 183C227 185 219 188 210 190C197 195 184 200 172 206C160 212 148 219 136 228C125 236 116 244 108 253C100 262 92 271 86 281C80 291 74 300 69 311C64 322 58 333 53 344C41 370 32 397 27 425C23 448 20 471 20 494C20 499 21 503 21 508C22 536 26 564 33 591C40 618 49 644 61 669C73 692 86 712 103 728C120 744 137 755 156 765C175 775 194 782 214 786C234 790 252 793 270 794C269 794 269 793 268 793C275 794 283 794 292 793C301 792 310 791 318 790C327 788 335 786 344 784C370 775 396 762 419 745C430 737 439 730 447 721C455 712 462 703 468 693C474 683 481 673 486 662C491 651 497 640 502 629C514 603 523 576 528 548C532 525 534 503 534 480L534 465C533 437 529 410 522 383C515 356 506 330 494 305C482 282 468 262 451 246C434 230 417 218 398 208C379 198 360 191 340 187C320 183 303 181 285 180L286 180M307 186C323 191 338 199 353 207C368 215 383 225 397 237C411 249 423 263 434 278C445 293 453 310 460 329C466 345 471 360 476 376C481 392 484 408 487 425C490 442 492 459 492 478L492 485C492 502 490 520 488 539C482 573 473 601 461 623C449 645 435 663 420 677C415 681 410 685 404 689C398 693 392 696 387 699L369 708C362 710 355 710 349 709C343 708 338 707 332 705C326 703 319 702 312 701C305 700 298 700 290 701C279 703 269 707 261 712C257 714 254 717 251 720C248 723 245 727 242 731C239 735 238 740 236 745C234 750 233 756 233 763C233 769 234 774 237 778C240 782 244 785 248 787C232 782 217 775 201 767C185 759 171 749 157 737C143 725 132 711 121 696C110 681 102 664 95 645C89 629 83 613 78 597C73 581 70 566 67 549C64 532 63 515 63 496L63 489C63 472 64 454 66 435C72 401 82 372 94 350C106 328 120 310 135 296C140 292 144 288 150 284C156 280 162 278 167 275L185 266C192 264 199 264 205 265C211 266 217 267 223 269C229 271 235 272 242 273C249 274 256 273 264 272C275 270 285 266 293 261C300 256 306 250 312 242C318 234 321 223 321 210C321 204 320 199 317 195C314 191 311 188 307 186"/>
</svg>