<svg xmlns="http://www.w3.org/2000/svg" viewBox="0 0 348 1204">
  <path d="M205 180L200 180C197 180 195 180 191 181C187 182 184 184 180 186C176 188 172 190 169 194C166 197 163 200 162 203C161 206 161 209 160 211C159 214 159 217 159 219C160 220 160 222 160 224C160 226 162 229 163 232C164 235 167 238 170 241C173 244 176 245 180 246C181 246 182 247 183 248C185 250 186 253 186 257L186 263L186 269C186 271 185 272 185 274C183 287 180 301 174 314C168 327 161 340 153 352C145 364 136 376 126 387C116 398 107 408 97 418C74 441 48 462 20 482C20 483 23 481 28 480C33 479 38 477 45 474C52 471 60 468 68 464C76 460 84 456 93 451C102 446 109 441 117 436C125 431 131 425 136 420L163 394L164 392L188 363C191 359 194 355 196 352C198 349 201 346 203 342C205 366 206 396 206 434C206 511 204 588 203 665L203 683C203 692 204 699 204 706C205 718 206 728 208 736C198 734 188 733 180 733C175 733 169 733 165 734C154 736 146 742 142 752C140 759 139 766 139 771C139 778 141 784 145 788C151 794 159 793 170 787C175 784 184 783 197 783C210 783 225 785 243 789C257 792 269 794 279 794C283 794 287 793 290 793C302 791 310 785 315 775C317 768 318 761 318 756C318 749 316 744 313 740C307 734 298 734 287 740C282 743 272 745 259 744L256 738C255 736 254 732 253 728C250 718 248 702 247 678C246 654 245 624 245 588C245 562 244 534 244 505L244 460C244 414 245 363 246 309L246 293C246 272 245 255 244 242C244 232 243 221 240 211L239 209L239 208C238 207 238 206 238 205C238 204 238 203 237 202L236 201C235 198 233 196 231 193C228 189 225 185 221 183C217 181 212 181 207 180"/>
</svg>