<svg xmlns="http://www.w3.org/2000/svg" viewBox="0 0 403 1204">
  <path d="M185 180C165 180 147 183 130 190C113 197 99 207 86 219C73 231 63 246 56 262C49 278 45 296 45 314C50 297 57 281 69 268C74 262 80 256 87 251C94 246 103 241 112 237C121 233 132 229 144 226C156 223 170 222 185 222C198 222 210 224 222 229C234 234 243 241 252 249C261 257 268 267 273 278C278 289 281 301 281 314C281 325 277 338 270 353C263 368 254 385 243 403C232 421 219 439 205 459C191 479 177 498 162 518C147 538 132 557 117 576C102 595 88 613 76 630C64 647 54 663 45 677C36 691 30 702 27 712C22 727 20 740 20 750C20 767 26 776 27 778C31 784 35 788 40 790C45 792 51 793 55 793C57 793 62 794 71 794L103 794L145 794L194 794C211 794 227 793 243 793C259 793 274 792 288 792C302 792 313 791 323 790C333 789 340 789 344 788C351 787 356 785 361 782C366 779 369 776 372 772C375 768 376 765 377 761C378 757 379 754 378 751C377 747 375 744 373 739C371 734 368 729 364 725C360 721 355 717 350 714C345 711 340 708 334 707C322 705 313 703 305 704C297 705 291 706 286 709C281 712 276 715 272 720C268 725 265 730 261 736C257 742 251 748 243 751C235 754 225 757 214 759C203 761 192 761 180 761L171 761L146 761C135 761 125 760 116 759C107 758 100 758 96 758C86 758 80 756 77 752C74 748 72 742 73 734C74 726 76 717 80 707C84 697 89 687 95 675C98 669 103 661 110 650C117 639 125 626 135 612C145 598 156 584 168 568C180 552 191 536 203 520C231 483 261 444 295 401L303 386C310 376 316 364 320 352C324 340 325 327 325 314C325 296 321 278 314 262C307 246 297 231 284 219C271 207 256 197 239 190C222 183 204 180 185 180"/>
</svg>