<svg xmlns="http://www.w3.org/2000/svg" viewBox="0 0 356 1204">
  <path d="M162 180C154 180 145 180 135 182C125 184 115 187 105 190C95 193 85 198 76 204C67 210 58 217 51 226C44 235 38 244 34 256C30 268 27 282 27 297C29 285 37 274 47 265C51 261 56 257 63 253C70 249 78 246 87 243C96 240 107 237 119 235C131 233 146 232 162 232C181 232 197 237 210 244C223 251 235 261 243 272C251 283 258 295 261 309C264 320 265 331 265 341L265 348C265 364 262 379 257 392C252 405 245 416 237 426C229 436 220 444 210 450C200 456 188 460 178 461C175 460 173 459 170 459L161 459C155 457 151 455 148 453C145 451 141 449 136 448C129 446 122 445 114 446C106 447 99 448 92 451C90 453 88 455 86 456C84 457 82 459 81 461C80 463 79 466 78 469C77 472 76 475 76 480C76 485 77 489 79 492C81 495 84 498 87 501C90 504 95 506 99 508C103 510 108 511 113 512C124 515 136 516 150 516L162 516C166 516 171 515 175 514C188 517 200 522 211 529C222 536 231 544 239 554C247 564 253 575 258 587C263 599 265 612 265 626C265 643 262 659 257 671C252 683 245 693 237 701C229 709 219 716 209 721C199 726 188 729 177 732C166 735 156 736 146 737C136 738 128 738 121 739C115 739 110 737 106 736C102 735 99 734 96 733C93 732 91 730 89 729C87 728 84 726 81 725C74 723 67 722 59 723C51 724 44 726 37 729C35 731 33 732 31 734C29 736 27 737 26 739C25 741 23 744 22 747C21 750 20 753 20 758C20 763 22 767 24 770C26 773 29 776 32 779C35 782 40 783 44 785C48 787 53 789 58 790C69 793 80 794 94 794C109 794 126 793 143 790C160 787 177 784 193 778C209 772 225 766 240 757C255 748 268 737 279 725C290 713 299 698 306 682C313 666 317 647 318 626C318 597 311 570 298 546C285 522 266 502 244 487C266 472 285 452 298 428C317 393 318 361 318 346C318 327 314 307 307 288C300 268 289 250 275 234C261 218 245 205 226 195C207 185 185 180 162 180"/>
</svg>