<svg xmlns="http://www.w3.org/2000/svg" viewBox="0 0 487 1204">
  <path d="M272 180L264 180C261 180 259 180 257 181C255 182 252 185 249 189C246 193 243 198 241 204C239 210 239 216 240 224C241 232 245 239 251 247L253 251C243 269 230 288 216 308C202 328 187 349 171 370C155 391 140 412 124 432C108 452 93 472 80 490C67 508 56 525 46 540C36 555 30 568 27 578C22 593 20 605 20 615C20 632 26 641 27 643C31 649 36 652 41 654C46 656 51 657 55 658C57 658 61 659 68 659L93 659L129 659L173 659L221 659C238 659 254 658 270 658L270 665L270 676C270 745 279 785 297 794L302 794C316 794 324 788 328 775C329 770 330 765 330 759C330 749 328 738 323 726C318 714 315 691 313 658C327 658 340 657 352 657C364 657 376 656 386 656C396 656 404 656 411 655C418 654 422 654 425 653C432 652 438 650 443 647C448 644 450 641 453 637C456 633 457 630 458 626C459 622 460 619 459 616C458 613 456 609 454 604C452 599 449 594 445 590C441 586 437 582 432 579C427 576 422 573 416 572C404 570 395 570 387 570C379 570 372 571 367 574C362 577 357 580 353 585C349 590 345 595 342 601C340 605 336 608 331 611C326 614 320 615 312 617C312 612 311 608 311 603L311 588L311 488L311 460C311 414 311 364 312 309L312 293C312 273 312 256 311 243C310 226 308 214 305 208C300 195 294 187 287 183C285 182 284 182 281 181C278 180 275 180 272 180M264 306C265 315 266 326 267 336C268 346 269 357 270 368C271 379 271 390 271 401C271 412 272 424 272 434C272 466 271 498 271 529C271 560 271 592 270 624C253 626 236 626 217 626L203 626L165 626C148 626 134 625 121 624C108 623 100 623 96 623C87 623 80 621 77 617C74 613 72 607 73 599C74 591 76 583 80 573C84 563 90 552 95 540C98 534 102 526 109 515C116 504 124 493 134 479C144 465 154 451 166 435C178 419 189 404 201 389C213 374 223 358 234 344C245 330 255 317 264 306"/>
</svg>