<svg xmlns="http://www.w3.org/2000/svg" viewBox="0 0 368 1204">
  <path d="M76 180C68 180 59 182 51 186C43 190 36 196 30 204C28 210 27 215 28 219C29 223 31 226 34 228C37 230 40 232 44 234C48 236 52 239 55 242C58 245 61 250 63 256C65 262 65 269 64 278C63 291 61 303 58 316C55 329 52 343 48 357C44 371 40 386 35 401C30 416 26 433 22 450C20 458 20 465 23 469C26 473 28 476 32 478C37 480 43 482 49 482L161 482C176 482 191 484 206 489C221 494 236 502 249 513C262 524 272 537 280 554C288 571 292 590 292 613C292 637 288 657 278 674C268 691 255 704 239 714C223 724 205 732 184 736C163 740 142 743 119 743C113 743 108 742 105 741C102 740 98 739 96 738C94 737 91 735 89 734C87 733 85 732 82 731C76 729 69 729 62 729C55 729 48 731 42 734C40 736 38 737 36 738C34 739 32 742 31 744C30 746 29 747 28 750C27 753 26 757 26 761C26 765 27 769 29 772C31 775 34 778 37 780C40 782 44 784 48 786C52 788 56 789 60 790C70 792 81 794 94 794C130 794 164 790 194 782C224 774 249 762 271 747C293 732 310 712 322 690C334 668 340 642 341 613C341 584 336 558 325 536C314 514 300 495 283 480C266 465 247 453 225 445C203 437 182 433 161 433L129 433L116 433L104 433L95 433L89 433L83 433C81 433 78 431 76 430C74 429 73 427 72 424C71 421 72 417 73 412C74 407 78 398 82 386C86 374 91 362 95 348C99 334 103 320 106 306C108 297 109 288 109 281C109 277 109 274 108 270C107 264 107 259 108 256C109 253 112 251 115 251C118 251 123 251 129 252C135 253 143 254 152 255C158 256 164 255 172 255L184 255C196 255 211 253 227 250C240 258 252 264 264 268C269 270 275 270 280 271C285 272 290 272 295 271C300 270 304 269 309 266C314 263 318 260 321 255C329 244 332 234 330 227C328 220 323 214 316 211C309 208 300 206 289 206C278 206 268 207 258 209C250 211 240 213 226 215C212 217 198 218 184 218C170 218 157 216 145 214C133 212 125 207 120 201C115 194 109 189 101 185C93 181 84 180 76 180"/>
</svg>