<svg xmlns="http://www.w3.org/2000/svg" viewBox="0 0 411 1204">
  <path d="M323 180C317 180 312 180 307 181L297 182C286 183 275 185 266 187C257 189 246 192 235 196C209 205 184 218 161 234C138 250 117 269 99 290C81 311 66 336 53 362C40 388 32 415 27 445C24 461 23 478 22 496C21 506 20 517 20 529C20 535 21 542 21 548C22 567 23 587 27 608C30 626 35 644 41 662C47 680 53 695 60 709C66 721 73 733 81 743C89 753 99 763 110 770C121 777 134 783 148 787C162 791 177 794 194 794L203 794C226 794 247 791 267 786C287 781 306 774 321 763C336 752 349 739 360 723C371 707 378 688 382 666C383 656 384 646 384 636C384 617 382 599 377 583C370 558 357 536 338 517C321 505 302 496 280 490C271 487 260 485 248 483C236 481 224 481 211 481C198 481 183 482 168 484C153 486 137 490 120 495C122 495 125 494 130 494C135 494 141 494 149 495C157 496 168 496 181 498C194 500 208 503 226 507C249 512 268 520 283 529C298 538 309 548 317 561C325 574 330 588 332 604C333 610 333 617 333 623C333 634 332 644 330 656C328 669 324 681 319 692C314 703 307 712 298 720C289 728 277 734 262 739C247 744 227 746 203 747L194 747L189 747C174 747 161 744 149 737C136 730 125 719 115 705C105 691 96 673 89 653C82 633 76 610 71 584C68 568 65 553 65 537L65 522C65 512 65 502 66 494C67 479 69 465 71 452C77 414 89 380 109 350C129 320 153 295 182 274C187 270 194 265 202 260C210 255 219 250 227 245C235 240 243 236 251 233C259 230 266 228 271 227C274 227 278 227 283 229C288 231 293 233 299 236C305 239 311 241 317 244C323 247 330 248 336 249C342 250 348 250 354 248C360 246 364 243 369 237C377 227 381 219 381 212C381 199 371 192 368 190C361 185 351 182 340 181C334 180 329 180 323 180M120 495L118 495C117 495 117 496 116 496L117 495"/>
</svg>