<svg xmlns="http://www.w3.org/2000/svg" viewBox="0 0 407 1204">
  <path d="M341 180L340 180L338 180C332 179 327 179 323 181L317 184C316 185 315 187 313 188C311 189 310 191 308 194C306 197 304 200 303 204C302 208 302 212 303 216C303 217 303 218 302 219C301 221 299 224 296 226C292 228 289 230 286 231C284 232 283 233 281 233L281 232L281 233C268 238 254 240 240 241C234 241 228 242 222 242C214 242 205 242 197 241C182 240 167 236 153 233C139 230 125 226 112 222C81 212 51 199 21 183C21 184 22 186 25 189C28 192 32 196 38 201C44 206 50 211 58 217C66 223 74 228 82 233C90 238 98 244 106 248C114 252 122 255 129 257L165 269L166 269L203 276C225 280 244 283 261 284L274 284C286 284 295 283 305 281L306 281C305 287 303 294 300 304C297 314 293 325 288 338C283 351 277 364 270 380C263 396 255 412 247 430C230 468 214 505 197 542C180 579 163 615 146 652C122 703 110 741 110 765C110 775 113 784 117 789C123 793 130 794 135 794C142 794 148 790 154 784C164 772 170 756 171 734C172 712 188 666 219 596C252 521 292 431 340 326C364 274 377 241 377 224C377 211 375 202 370 195C369 193 367 191 365 189C363 187 360 186 357 185C354 184 352 182 349 181C346 180 343 180 341 180"/>
</svg>