<svg xmlns="http://www.w3.org/2000/svg" viewBox="0 0 389 1204">
  <path d="M195 180L190 180C176 180 161 182 147 186C126 192 107 201 91 214C75 227 62 243 52 261C42 279 36 298 33 319C32 326 32 332 32 339C32 353 34 368 38 382C43 400 50 416 60 430C70 444 82 456 96 466C97 467 98 468 100 469C101 470 103 470 105 471C107 472 110 473 112 474C95 483 79 495 66 509C53 523 43 539 35 556C27 573 23 592 21 612C21 616 20 621 20 625C20 640 23 656 27 671C32 688 38 703 48 718C58 733 69 745 82 756C95 767 110 777 126 783C142 789 160 793 178 793C176 792 175 792 173 791C177 792 181 793 185 793C190 794 195 794 200 794C211 793 224 791 237 788C260 782 280 771 297 757C314 743 328 727 339 708C350 689 356 668 359 646C360 639 361 632 361 625C361 610 358 593 354 578C348 555 338 535 323 517C308 499 291 485 272 475C287 466 300 455 311 442C322 429 332 414 338 398C344 382 348 366 349 348C349 344 350 342 350 338C350 324 348 309 344 295C338 274 328 255 315 239C302 223 286 210 268 200C250 190 231 184 210 181C205 180 200 180 195 180M193 230C197 230 200 231 204 231C218 233 232 237 244 244C256 251 266 260 275 271C284 282 291 294 295 309C298 320 300 331 300 342C300 345 299 348 299 351C298 365 295 377 290 388C285 399 278 409 270 417C262 425 254 431 244 434C238 435 232 436 228 436C224 436 220 437 217 436C214 435 211 435 208 434C205 433 201 432 198 432C191 431 184 432 176 433C168 434 161 437 153 441C149 440 145 441 142 440C139 439 135 438 133 437C130 436 127 435 125 434C119 431 112 427 106 423C100 419 94 414 88 408C82 402 77 395 73 387C69 379 66 371 64 361C63 356 62 350 62 345C62 337 63 328 66 320C70 307 78 294 87 283C96 272 107 262 120 253C133 244 146 238 161 234C171 231 180 230 190 230M193 508C197 508 201 508 205 509C220 511 234 516 247 523C260 530 271 540 281 552C291 564 298 578 302 593C305 605 307 616 307 627L307 638C306 653 302 665 297 677C292 689 285 700 276 709C267 718 257 724 247 727C241 728 236 729 232 729C228 729 224 729 221 728C218 727 215 727 213 726C211 725 208 725 205 725C198 725 190 726 183 729C176 732 169 735 163 740C161 742 159 745 158 747C157 749 156 752 155 754C154 756 154 759 154 762C154 765 154 768 155 773C156 778 158 781 161 784C163 786 166 788 169 789C160 786 152 783 144 779C135 774 125 769 115 763C105 757 98 750 93 742C88 736 84 729 80 722C76 715 73 708 70 701C67 694 64 686 62 677C60 668 57 659 55 648C54 642 54 637 54 631C54 622 55 613 58 604C63 590 70 577 80 565C90 553 101 542 115 533C129 524 144 518 159 513C169 510 180 508 190 508"/>
</svg>