<svg xmlns="http://www.w3.org/2000/svg" viewBox="0 0 411 1204">
  <path d="M202 180C179 180 157 182 137 187C117 192 99 200 84 211C69 222 56 235 45 251C34 267 26 286 22 308C21 318 20 328 20 338C20 357 22 374 27 390C34 415 47 437 66 456C83 467 103 477 125 483C134 486 145 488 156 490C167 492 181 493 194 493L196 493C209 493 223 492 237 490C252 488 268 484 285 479C283 480 280 480 275 480C270 480 264 480 256 479C248 478 237 477 224 475C211 473 197 471 179 467C156 462 137 454 122 445C107 436 95 425 87 412C79 399 75 385 73 369C72 363 72 357 72 351C72 340 72 329 74 317C76 304 80 293 85 282C90 271 97 262 106 254C115 246 128 240 143 235C158 230 178 227 202 226L211 226L216 226C231 226 244 229 256 236C269 243 280 255 290 269C300 283 308 301 315 321C322 341 329 364 334 390C337 406 339 422 339 437C339 442 340 447 340 452C340 462 340 471 339 479C338 494 336 508 334 521C328 559 315 594 295 624C275 654 252 679 223 700C218 704 211 709 203 714C195 719 186 724 178 729C170 734 161 738 153 741C145 744 139 746 134 747C131 747 126 747 121 745C116 743 111 741 105 738C99 735 93 733 87 730C81 727 74 725 68 724C62 723 57 724 51 726C45 728 40 731 35 737C27 747 23 755 23 762C23 775 34 782 37 784C44 789 54 792 65 793C70 794 75 794 80 794C86 794 92 794 98 793L108 792C119 791 130 789 139 787C148 785 158 782 169 778C195 769 221 756 244 740C267 724 288 705 306 684C324 663 339 638 352 612C365 586 373 559 378 529C381 513 382 496 383 478C384 468 384 457 384 445L384 426C383 407 382 387 378 366C375 348 370 330 364 312C358 294 352 278 345 264C339 252 332 240 324 230C316 220 305 211 294 203C283 195 271 190 257 186C243 182 228 180 211 180M285 479L287 479C288 479 288 478 289 478L288 479L287 479"/>
</svg>