<svg xmlns="http://www.w3.org/2000/svg" viewBox="0 0 567 1204">
  <path d="M505 180L502 180C497 181 491 183 483 188C479 190 475 192 472 196C469 200 466 204 463 209C460 214 459 218 457 223C455 228 454 232 454 237L454 249C454 252 453 256 452 259C451 262 449 267 448 270C447 273 445 277 443 282C440 287 435 293 427 302C419 311 410 323 398 335C386 347 374 361 359 376C344 391 328 408 311 426C307 431 304 435 300 439L289 450L255 486C230 511 206 536 182 561C158 586 134 610 110 635C51 695 20 739 20 766C20 770 21 774 22 777C31 787 39 792 49 792C55 792 61 790 67 787C75 782 82 776 88 768C94 760 100 750 105 738C115 714 151 668 213 601C225 588 238 575 250 562C262 549 276 535 289 521L322 486C343 464 365 442 387 419C409 396 432 371 457 346C505 296 532 264 539 248C543 237 545 228 545 220C545 216 544 213 543 210C542 208 541 205 539 202C537 199 535 197 533 194C531 191 528 189 525 187C522 185 519 183 517 182C513 180 509 180 505 180M152 180C139 180 125 182 112 187C94 193 79 203 66 215C53 227 42 241 34 257C26 273 22 289 21 307L21 317C21 332 23 346 28 361C33 374 40 386 49 397C58 408 67 418 79 426C91 434 103 440 117 445C130 449 143 451 156 451L159 451L157 451L161 451C165 451 168 452 172 451C181 450 192 448 202 445C220 439 235 429 248 417C261 405 271 391 279 375C287 359 292 343 293 325L293 316C293 301 290 286 285 271C279 253 270 237 258 224C246 211 232 201 216 193C200 185 184 181 166 180M154 223L163 223C175 224 186 227 197 232C208 237 218 245 226 254C234 263 241 273 245 285C249 296 251 307 251 318C251 334 246 346 244 353C240 363 235 372 229 379C223 386 215 392 207 395C202 396 198 397 195 397L187 397C185 397 182 396 180 396L173 396C168 397 162 398 156 400C150 402 145 406 140 410C137 413 135 416 134 420C133 424 133 429 135 437C136 440 138 443 141 445C143 447 145 448 148 449C147 449 146 448 145 448C140 447 136 445 131 443C123 440 115 436 106 431C97 426 89 418 81 409C77 404 74 399 71 395C68 391 65 386 63 381C61 376 58 370 56 364C54 358 52 350 50 341C48 335 47 329 47 323C47 317 48 312 49 306C52 294 57 283 65 273C73 263 81 254 92 246C103 238 115 232 127 228C136 225 145 223 154 223M404 522C391 522 377 524 364 529C346 535 330 545 317 557C304 569 294 583 286 599C278 615 274 631 273 649C273 652 272 655 272 658C272 673 275 688 280 703C285 716 291 729 300 740C309 751 319 760 331 768C343 776 355 783 369 788C382 792 395 794 408 794L410 794C409 794 408 793 407 793C409 793 411 794 413 794C417 794 420 794 424 793C433 792 443 790 453 787C471 781 487 771 500 759C513 747 523 734 531 718C539 702 543 685 544 667C544 664 545 662 545 659C545 644 542 628 537 613C531 595 521 580 509 567C497 554 484 544 468 536C452 528 435 523 417 522M405 565L415 565C427 566 438 570 449 575C460 580 469 587 477 596C485 605 492 616 496 628C500 639 502 649 502 660C502 676 498 690 496 696C492 706 487 714 481 721C475 728 467 734 459 737C454 738 450 740 447 740C444 740 440 739 438 739C436 739 434 738 432 738L424 738C419 738 414 740 408 742C402 744 397 748 392 752C389 755 387 758 386 762C385 766 385 771 387 779C388 782 389 785 392 787C394 789 398 791 401 792L383 786C375 783 367 779 358 773C349 767 341 760 333 751C329 746 326 741 323 737C320 733 316 728 314 723C312 718 310 712 308 706C306 700 303 692 301 683C299 677 299 672 299 666C299 660 299 655 301 649C304 637 310 626 317 616C324 606 333 597 344 589C355 581 366 574 378 570C387 567 396 565 405 565"/>
</svg>