<svg xmlns="http://www.w3.org/2000/svg" viewBox="0 0 180 1204">
  <path d="M100 692L93 692C89 692 86 693 81 694C76 695 71 697 66 700C61 703 56 706 52 711C48 715 45 719 43 723C41 727 40 730 39 733C38 737 39 741 39 744C40 746 40 748 41 751C42 754 42 757 44 761C46 765 50 770 54 773C58 776 63 779 68 780C69 780 70 781 71 783C73 786 74 789 75 794C76 800 76 805 75 809L74 816L74 817C73 829 70 841 66 852C62 863 56 874 50 884C44 894 38 903 30 912C22 921 15 929 7 936C-11 953-31 968-53 981C-52 982-46 982-35 978C-24 974-12 969 3 962C18 955 32 948 48 939C64 930 77 920 87 910C101 897 113 883 123 867C133 851 140 834 145 818L145 816L151 792L151 789C152 783 152 778 152 773C152 767 151 760 150 754C149 743 146 733 141 723L141 721C137 713 131 706 124 701C117 696 109 693 100 692"/>
</svg>