<svg xmlns="http://www.w3.org/2000/svg" viewBox="0 0 307 1204">
  <path d="M104 180C92 180 86 198 96 204C104 208 112 196 119 206C135 218 142 238 148 256C150 263 154 277 152 280C138 270 124 262 107 260C95 259 83 258 71 258C60 259 50 262 43 271C33 279 41 295 53 294C66 295 59 278 68 276C75 271 84 269 93 269C113 269 134 274 153 282C140 288 127 294 117 304C113 308 110 312 107 316C97 329 89 344 86 360C86 370 90 384 102 383C111 383 118 371 112 364C102 361 104 348 107 340C114 320 129 303 144 289C148 285 155 277 152 288C152 302 151 317 157 330C164 348 172 367 187 379C195 382 206 389 213 380C222 371 212 353 200 360C194 365 186 356 181 352C168 336 161 316 156 296C155 291 150 277 158 286C171 295 185 302 201 305C213 306 226 307 238 306C250 304 264 299 269 287C272 276 255 265 247 274C244 280 246 288 237 290C217 299 194 294 174 289C169 287 155 283 155 281C168 275 181 269 191 259C194 256 196 251 199 249C209 236 217 223 220 207C221 199 220 189 214 184C205 176 189 187 194 198C199 202 205 207 202 214C200 234 185 250 172 264C167 269 157 280 154 280C157 264 156 247 150 232C144 216 137 201 125 189C119 183 112 181 104 180"/>
</svg>