<svg xmlns="http://www.w3.org/2000/svg" viewBox="0 0 768 1204">
  <path d="M265 282C265 282 22 318 20 564C18 791 214 794 223 794L248 794L575 794L658 794C658 794 737 794 737 660C737 611 734 568 712 523C709 517 706 511 702 506C698 501 695 496 691 493C687 490 682 488 677 487L675 487C671 487 666 489 662 492C657 495 652 499 649 503C646 507 643 511 641 516C639 521 638 526 637 530C636 534 636 539 636 543C636 553 638 562 641 573C644 581 648 588 652 593C656 598 660 603 664 607C668 611 672 615 676 620C680 625 683 631 685 638C687 651 687 663 687 677C687 743 660 743 660 743L575 743L248 743L223 743C223 743 67 743 71 564C76 325 265 282 265 282"/>
</svg>