<svg xmlns="http://www.w3.org/2000/svg" viewBox="0 0 225 1204">
  <path d="M133 26C115 26 102 32 92 39C82 46 77 55 74 61C71 68 67 80 65 88C50 88 40 91 33 98C26 106 23 124 29 134C31 138 39 144 39 144C39 144 35 137 35 133C34 126 40 119 47 116C54 113 64 113 74 113L160 113C162 118 167 123 175 123C185 123 192 116 196 106C200 96 201 84 198 72C193 48 178 36 164 31C150 26 136 26 133 26M133 50C145 50 154 53 161 58C168 63 172 69 173 73C174 76 174 79 174 81C174 83 173 85 171 88L82 88C85 81 88 75 91 70C100 56 118 50 133 50M171 89L170 90M119 180C104 180 95 186 90 198C85 212 87 229 96 248C101 258 104 274 106 297C108 320 109 349 110 385C111 424 110 467 110 513C110 559 110 610 109 665C108 720 111 753 117 766C122 778 129 787 138 791C146 795 155 795 164 792C174 789 181 780 185 767C190 754 191 741 188 726C185 711 179 696 169 680C159 664 155 618 156 540L159 309C161 233 149 190 126 180"/>
</svg>