<svg xmlns="http://www.w3.org/2000/svg" viewBox="0 0 768 1204">
  <path d="M448 180C442 180 435 184 433 190C432 201 446 207 445 218C430 267 407 314 374 354L355 354C315 354 312 337 312 335C312 337 313 374 355 374L374 374L398 374L484 374C485 379 489 384 497 384C504 384 509 379 512 374C515 368 517 361 517 354C517 347 517 342 516 335C506 288 462 286 456 286C447 286 440 287 433 290C448 265 462 237 465 208C465 199 464 187 456 182C454 180 451 180 448 180M270 282C270 282 28 318 26 564C24 791 219 794 228 794L253 794L580 794L663 794C663 794 742 794 742 660C742 611 740 568 718 523C715 517 711 511 707 506C703 501 700 496 696 493C692 490 687 488 682 487L680 487C676 487 671 489 667 492C662 495 657 499 654 503C651 507 648 511 646 516C644 521 643 526 642 530C641 534 641 539 641 543C641 553 643 562 646 573C649 581 653 588 657 593C661 598 665 603 669 607C673 611 677 615 681 620C685 625 688 631 690 638C692 651 692 663 692 677C692 743 665 743 665 743L580 743L253 743L228 743C228 743 72 743 76 564C81 325 270 282 270 282M456 304C480 304 495 324 497 335C499 341 500 347 494 354L390 354C410 331 424 308 456 304"/>
</svg>