<svg xmlns="http://www.w3.org/2000/svg" viewBox="0 0 768 1204">
  <path d="M270 282C270 282 28 318 26 564C24 791 219 794 228 794L253 794L580 794L663 794C663 794 742 794 742 660C742 611 740 568 718 523C715 517 711 511 707 506C703 501 700 496 696 493C692 490 687 488 682 487L680 487C676 487 671 489 667 492C662 495 657 499 654 503C651 507 648 511 646 516C644 521 643 526 642 530C641 534 641 539 641 543C641 553 643 562 646 573C649 581 653 588 657 593C661 598 665 603 669 607C673 611 677 615 681 620C685 625 688 631 690 638C692 651 692 663 692 677C692 743 665 743 665 743L580 743L253 743L228 743C228 743 72 743 76 564C81 325 270 282 270 282M389 845C386 845 382 846 378 847C373 848 369 850 365 853C361 856 359 858 356 861C353 864 351 866 350 868C349 870 348 871 348 872C345 878 343 883 343 888C343 893 344 897 345 901C347 905 349 909 353 912C362 918 371 921 379 922L381 922C384 922 386 922 389 921C393 920 396 918 400 915C404 912 408 907 411 902C414 897 416 890 419 882C420 878 420 874 419 870C418 866 417 863 415 860C413 857 411 855 409 854C407 853 406 851 405 850C405 850 402 849 397 847C395 846 392 845 389 845M476 845C473 845 469 846 465 847C460 848 456 850 452 853C448 856 446 858 443 861C440 864 438 866 437 868C436 870 435 871 435 872C432 878 430 883 430 888C430 893 431 897 432 901C434 905 436 909 440 912C449 918 458 921 466 922L468 922C471 922 473 922 476 921C480 920 483 918 487 915C491 912 495 907 498 902C501 897 503 890 506 882C507 878 507 874 506 870C505 866 504 863 502 860C500 857 498 855 496 854C494 853 493 851 492 850C492 850 489 849 484 847C482 846 479 845 476 845M425 922C422 922 418 922 414 923C409 924 405 926 401 929C397 932 395 934 392 937C389 940 387 943 386 945C385 947 384 948 384 949C381 955 379 960 379 965C379 970 380 974 381 978C383 982 385 986 389 989C398 995 406 998 414 999L417 999C420 999 422 999 425 998C429 997 432 995 436 992C440 989 443 984 446 979C449 974 452 967 455 959C456 955 456 951 455 947C454 943 453 940 451 937C449 934 447 932 445 931C443 930 441 928 440 927C440 927 438 925 433 923C431 922 428 922 425 922"/>
</svg>