<svg xmlns="http://www.w3.org/2000/svg" viewBox="0 0 460 1204">
  <path d="M185 640C155 640 127 647 100 662C93 666 87 674 86 683C85 690 89 698 93 704C96 709 100 715 106 717C114 720 123 718 131 714C140 709 147 700 150 691C150 691 175 676 189 675C214 673 234 685 262 692C230 692 190 710 166 721C83 753 30 811 26 906C30 1135 279 1107 435 1091C309 1074 81 1088 76 906C76 821 118 792 182 755C223 731 283 719 321 712C329 710 357 730 367 708C373 694 366 686 358 680C353 676 347 676 340 674C325 669 305 670 283 664C247 649 215 640 185 640M204 794C201 794 197 794 193 795C188 796 185 798 181 801C177 804 175 806 172 809C169 812 167 815 166 817C165 819 164 820 164 821C161 827 159 832 159 837C159 842 160 846 161 850C163 854 165 858 169 861C178 867 186 870 194 871L197 871C200 871 202 871 205 870C209 869 212 867 216 864C220 861 223 856 226 851C229 846 232 839 235 831C236 827 236 823 235 819C234 815 232 812 230 809C228 806 227 804 225 803C223 802 221 800 220 799C220 799 218 797 213 795C211 794 207 794 204 794M291 794C288 794 284 794 280 795C275 796 272 798 268 801C264 804 262 806 259 809C256 812 254 815 253 817C252 819 251 820 251 821C248 827 246 832 246 837C246 842 247 846 248 850C250 854 252 858 256 861C265 867 273 870 281 871L284 871C287 871 289 871 292 870C296 869 299 867 303 864C307 861 310 856 313 851C316 846 319 839 322 831C323 827 323 823 322 819C321 815 319 812 317 809C315 806 314 804 312 803C310 802 308 800 307 799C307 799 305 797 300 795C298 794 294 794 291 794M240 871C237 871 233 871 229 872C224 873 221 875 217 878C213 881 210 883 207 886C204 889 203 892 202 894C201 896 199 897 199 898C196 904 195 909 195 914C195 919 196 922 197 926C199 930 201 935 205 938C214 944 222 947 230 948L233 948C236 948 238 947 241 946C245 945 248 944 252 941C256 938 259 933 262 928C265 923 267 916 270 908C271 904 272 900 271 896C270 892 268 889 266 886C264 883 262 880 260 879C258 878 257 877 256 876C256 876 254 874 249 872C247 871 243 871 240 871"/>
</svg>