<svg xmlns="http://www.w3.org/2000/svg" viewBox="0 0 358 1204">
  <path d="M191 282C185 282 179 287 177 293C176 304 189 310 188 321C173 370 151 417 118 457L98 457C58 457 56 440 56 438C56 440 56 476 98 476L118 476L141 476L227 476C228 481 232 487 240 487C247 487 252 481 255 476C258 470 261 464 261 457C261 450 260 444 259 437C249 390 205 388 199 388C190 388 183 390 176 393C191 368 206 340 209 311C209 302 207 290 199 285C197 283 194 282 191 282M199 407C223 407 239 426 241 437C243 443 244 450 238 457L133 457C153 434 167 411 199 407M129 564C121 564 113 565 107 570C95 579 84 591 83 609C81 624 93 635 103 643C124 658 145 672 166 687C185 702 223 731 223 731C223 731 185 736 134 756C62 784 25 850 25 850C25 850 103 808 146 799C186 790 210 789 237 789C245 789 257 789 260 796C267 811 290 815 306 811C324 804 331 791 333 777C335 761 327 740 316 731C314 729 313 727 311 726C286 706 258 689 232 670C217 659 188 636 188 636C188 636 168 625 170 611C172 595 161 582 150 572C144 567 137 564 129 564"/>
</svg>