<svg xmlns="http://www.w3.org/2000/svg" viewBox="0 0 331 1204">
  <path d="M178 384C172 384 165 389 163 395C162 406 176 412 175 423C160 472 137 519 104 559L85 559C45 559 42 542 42 540C42 542 43 579 85 579L104 579L128 579L214 579C215 584 219 589 227 589C234 589 239 584 242 579C245 573 247 566 247 559C247 552 247 547 246 540C236 493 192 491 186 491C177 491 170 492 163 495C178 470 192 442 195 413C195 404 194 392 186 387C184 385 181 384 178 384M186 509C210 509 226 529 228 540C230 546 230 552 224 559L120 559C140 536 154 513 186 509M225 640C220 640 215 642 210 645C204 648 200 652 196 656C192 660 189 665 187 669C185 673 184 679 183 683C182 687 182 692 182 696C182 706 183 716 187 726C190 734 195 740 199 745C203 750 208 755 213 759C218 763 222 768 226 773C230 778 233 783 235 790C236 796 237 803 237 810L237 829C237 836 237 843 236 849C232 869 224 891 211 913C198 935 179 958 154 981C137 993 121 1004 105 1013C89 1022 73 1031 57 1038C41 1045 25 1050 9 1055C-7 1060-22 1064-39 1067C-51 1069-62 1072-72 1073C-82 1074-93 1075-103 1075C-113 1075-123 1075-133 1073C-143 1071-154 1068-165 1064C-176 1060-188 1054-201 1047C-214 1040-228 1032-244 1021C-228 1041-213 1056-198 1069C-183 1082-168 1091-152 1098C-136 1105-119 1110-101 1111C-83 1112-64 1112-42 1109C-15 1106 12 1099 39 1091C66 1083 92 1072 116 1058C140 1044 162 1028 183 1009C204 990 223 968 239 944C246 933 252 923 258 913C264 903 270 892 275 882C280 872 284 861 287 849C290 837 292 825 293 812C294 798 294 784 293 770C292 756 290 742 287 728C281 707 273 690 265 676C262 670 258 664 254 659C250 654 246 649 241 646C236 643 232 642 227 641C226 641 226 640 225 640"/>
</svg>