<svg xmlns="http://www.w3.org/2000/svg" viewBox="0 0 325 1204">
  <path d="M157 436C154 436 152 436 149 437C145 438 142 440 138 443C134 446 131 450 128 455C125 460 122 467 119 475C118 479 118 483 119 487C120 491 121 494 123 497C125 500 127 503 129 504C131 505 132 507 133 508C133 508 136 509 141 511C146 513 152 513 160 511C165 510 169 508 173 505C177 502 179 500 182 497C185 494 187 491 188 489C189 487 190 486 190 485C193 479 195 475 195 470C195 465 194 461 193 457C191 453 189 448 185 445C176 439 167 437 159 436M106 512C103 512 101 513 98 514C94 515 90 516 86 519C82 522 79 527 76 532C73 537 71 544 68 552C67 556 67 560 68 564C69 568 70 571 72 574C74 577 76 580 78 581C80 582 81 583 82 584C82 584 85 586 90 588C95 590 101 590 109 588C114 587 118 585 122 582C126 579 128 577 131 574C134 571 136 568 137 566C138 564 139 563 139 562C142 556 144 551 144 546C144 541 142 538 141 534C139 530 138 525 134 522C125 516 116 513 108 512M193 512C190 512 188 513 185 514C181 515 177 516 173 519C169 522 166 527 163 532C160 537 158 544 155 552C154 556 154 560 155 564C156 568 157 571 159 574C161 577 163 580 165 581C167 582 168 583 169 584C169 584 172 586 177 588C182 590 188 590 196 588C201 587 205 585 209 582C213 579 215 577 218 574C221 571 223 568 224 566C225 564 226 563 226 562C229 556 231 551 231 546C231 541 230 538 229 534C227 530 225 525 221 522C212 516 203 513 195 512M218 640C213 640 209 642 204 645C198 648 194 652 190 656C186 660 183 665 181 669C179 673 178 679 177 683C176 687 176 692 176 696C176 706 177 716 181 726C184 734 189 740 193 745C197 750 201 755 206 759C211 763 215 768 219 773C223 778 227 783 229 790C230 796 231 803 231 810L231 829C231 836 231 843 230 849C226 869 218 891 205 913C192 935 173 958 148 981C131 993 115 1004 99 1013C83 1022 67 1031 51 1038C35 1045 19 1050 3 1055C-13 1060-29 1064-46 1067C-58 1069-69 1072-79 1073C-89 1074-99 1075-109 1075C-119 1075-129 1075-139 1073C-149 1071-160 1068-171 1064C-182 1060-194 1054-207 1047C-220 1040-234 1032-250 1021C-234 1041-219 1056-204 1069C-189 1082-174 1091-158 1098C-142 1105-125 1110-107 1111C-89 1112-70 1112-48 1109C-21 1106 6 1099 33 1091C60 1083 86 1072 110 1058C134 1044 156 1028 177 1009C198 990 216 968 232 944C239 933 246 923 252 913C258 903 263 892 268 882C273 872 278 861 281 849C284 837 286 825 287 812C288 798 288 784 287 770C286 756 284 742 281 728C275 707 267 690 259 676C256 670 252 664 248 659C244 654 240 649 235 646C230 643 225 642 220 641C219 641 219 640 218 640"/>
</svg>