<svg xmlns="http://www.w3.org/2000/svg" viewBox="0 0 614 1204">
  <path d="M443 256C440 256 438 257 435 258C431 259 428 260 424 263C420 266 417 271 414 276C411 281 408 288 405 296C404 300 404 304 405 308C406 312 408 315 410 318C412 321 413 324 415 325C417 326 419 327 420 328C420 328 422 330 427 332C432 334 439 334 447 332C452 331 455 329 459 326C463 323 465 321 468 318C471 315 473 312 474 310C475 308 476 307 476 306C479 300 481 295 481 290C481 285 480 282 479 278C477 274 475 269 471 266C462 260 454 257 446 256M392 333C389 333 387 333 384 334C380 335 377 337 373 340C369 343 366 348 363 353C360 358 357 365 354 373C353 377 353 381 354 385C355 389 356 392 358 395C360 398 362 400 364 401C366 402 367 404 368 405C368 405 371 407 376 409C381 411 387 411 395 409C400 408 404 406 408 403C412 400 414 398 417 395C420 392 422 389 423 387C424 385 425 384 425 383C428 377 430 372 430 367C430 362 429 358 428 354C426 350 424 346 420 343C411 337 403 334 395 333M479 333C476 333 474 333 471 334C467 335 464 337 460 340C456 343 453 348 450 353C447 358 444 365 441 373C440 377 440 381 441 385C442 389 443 392 445 395C447 398 449 400 451 401C453 402 455 404 456 405C456 405 458 407 463 409C468 411 474 411 482 409C487 408 491 406 495 403C499 400 501 398 504 395C507 392 509 389 510 387C511 385 512 384 512 383C515 377 517 372 517 367C517 362 516 358 515 354C513 350 511 346 507 343C498 337 490 334 482 333M502 487C480 487 460 496 449 506C429 523 423 544 423 564C423 598 438 615 457 627C481 642 534 640 534 640C534 640 572 743 295 743C-80 743 110 567 102 568C64 571-100 794 295 794C561 794 579 691 579 640C579 551 559 487 502 487M499 541L501 541C523 546 528 566 531 603C500 604 477 602 470 581C461 553 486 540 499 541"/>
</svg>