<svg xmlns="http://www.w3.org/2000/svg" viewBox="0 0 768 1204">
  <path d="M679 692C646 692 632 727 645 743C659 761 660 763 667 773C671 779 674 784 676 790C678 796 678 803 678 810C678 816 679 822 679 829C679 836 678 843 677 849C673 869 666 890 653 912C640 934 621 957 596 980C579 992 562 1004 546 1013C530 1022 514 1030 498 1037C490 1040 428 1064 368 1063C306 1062 244 1037 236 1032C220 1023 205 1013 191 1003C177 993 164 982 152 971C140 960 128 947 117 934C109 925 102 917 96 909C90 901 84 893 79 884C74 875 70 866 66 856C62 846 60 836 58 824C56 812 54 799 54 784C54 769 54 753 55 734C46 758 40 779 37 798C34 817 32 836 34 853C36 870 41 887 49 903C57 919 67 935 80 953C97 975 115 996 136 1015C157 1034 179 1050 203 1064C227 1078 252 1089 279 1098C304 1106 341 1112 368 1111C461 1111 550 1062 557 1058C581 1044 604 1028 625 1009C646 990 664 968 680 944C687 933 693 923 699 913C705 903 711 892 716 882C721 872 725 861 728 849C731 837 733 825 734 812C734 806 735 800 735 794C735 794 735 776 734 767L731 743C725 706 700 692 679 692"/>
</svg>