<svg xmlns="http://www.w3.org/2000/svg" viewBox="0 0 404 1204">
  <path d="M165 487C145 487 123 492 106 509C85 530 92 576 122 574C151 572 148 559 153 545C158 533 178 521 193 524C232 533 278 568 296 602C316 639 325 710 306 738C287 766 249 798 187 784C169 780 160 767 153 763C155 762 160 757 162 756C181 743 209 723 210 694C211 673 200 656 187 643C174 630 158 620 137 621C116 622 100 634 88 648C76 662 68 677 68 697C68 712 72 726 78 739C67 741 53 743 40 743C19 744-7 743-7 743L-7 794C-7 794 18 795 41 794C63 793 90 791 112 784C130 800 150 813 173 819C232 834 303 813 338 761C374 707 358 636 331 587C304 537 253 503 200 491C189 489 177 487 165 487M139 673C153 672 159 697 141 714C137 717 128 722 123 725C118 716 118 706 119 697C120 691 122 687 127 681C131 676 135 673 139 673"/>
</svg>