<svg xmlns="http://www.w3.org/2000/svg" viewBox="0 0 358 1204">
  <path d="M261 487C246 487 236 493 231 505C226 519 228 536 237 555C242 565 245 588 247 604C249 620 250 653 250 653C220 629 195 615 156 627C95 648 98 722 119 752C139 779 169 792 199 794C226 796 257 780 274 765C291 750 301 727 301 691L301 616C302 565 298 486 261 487M136 487L128 487C126 487 123 488 121 489C116 491 110 493 104 496C94 501 86 508 80 516C74 524 70 533 68 542C63 562 71 578 87 588C93 592 100 595 108 596L102 599C95 602 87 604 85 605C78 607 74 609 70 611C66 613 64 616 61 619C60 621 58 623 57 625C56 627 57 630 59 633C62 637 66 639 71 640C76 641 82 640 86 640C97 639 106 636 114 627C114 627 118 624 120 623C122 622 125 621 125 621L155 609C155 609 173 602 184 598C191 596 197 593 201 591C205 589 208 586 209 583C212 575 208 567 201 563C194 559 185 558 179 561C173 564 170 568 166 571C157 572 146 572 135 572C124 572 113 569 107 566C100 563 98 559 98 554C98 549 100 542 103 536C105 532 109 529 112 527C114 526 117 525 118 525C120 525 121 524 122 524L126 524C128 524 130 524 132 523C135 522 139 520 142 518C145 516 148 514 150 511C152 509 153 506 153 503C153 499 152 496 149 493C147 491 145 489 143 488C141 487 138 487 136 487M192 663L196 663C217 664 234 680 251 691C252 705 251 719 242 731C223 757 178 758 159 730C151 719 150 705 154 692C159 676 171 663 192 663"/>
</svg>