<svg xmlns="http://www.w3.org/2000/svg" viewBox="0 0 358 1204">
  <path d="M91 487C88 487 85 487 82 488C78 489 75 491 71 494C67 497 64 501 61 506C58 511 55 519 52 527C51 531 51 535 52 539C53 543 54 546 56 549C58 552 60 554 62 555C64 556 66 558 67 559C67 559 69 560 74 562C79 564 86 564 94 562C99 561 103 559 107 556C111 553 113 551 116 548C119 545 121 543 122 541C123 539 125 537 125 536C128 530 130 526 130 521C130 516 128 512 127 508C125 504 123 500 119 497C110 491 101 488 93 487M180 487C177 487 174 487 171 488C167 489 164 491 160 494C156 497 153 501 150 506C147 511 144 519 141 527C140 531 140 535 141 539C142 543 143 546 145 549C147 552 149 554 151 555C153 556 155 558 156 559C156 559 158 560 163 562C168 564 175 564 183 562C188 561 192 559 196 556C200 553 202 551 205 548C208 545 210 543 211 541C212 539 213 537 213 536C216 530 218 526 218 521C218 516 217 512 216 508C214 504 212 500 208 497C199 491 190 488 182 487M267 487C252 487 242 493 237 505C232 519 234 536 243 555C248 565 251 588 253 604C255 620 255 653 255 653C225 629 201 615 162 627C101 648 103 722 124 752C144 779 175 792 205 794C232 796 263 780 280 765C297 750 306 727 306 691C306 665 307 641 307 616C308 565 304 486 267 487M198 663L202 663C223 664 240 680 257 691C258 705 257 719 248 731C229 757 184 758 165 730C157 719 155 705 159 692C164 676 177 663 198 663"/>
</svg>