<svg xmlns="http://www.w3.org/2000/svg" viewBox="0 0 366 1204">
  <path d="M320.10 572.82C305.43 572.75 295.71 586.04 281.67 588.34C241.24 597.79 199.30 594.90 158.12 595.24C122.06 595.68 85.64 592.30 49.89 598.34C37.81 600.77 28.20 611 23.54 622.03C17.45 637.69 18.32 659.24 33.23 669.69C44.05 676.89 58.29 679.88 70.31 673.71C82.90 669.77 91.92 659.94 102.62 653C132.91 639.80 166.80 644.14 198.89 643.91C232.61 643.57 266.62 649.18 300.11 643.42C317.70 640.23 337.63 631.83 343.43 613.34C343.96 599.52 343.38 581.01 328.62 574.63C325.96 573.42 323.03 572.81 320.10 572.82"/>
</svg>