<svg xmlns="http://www.w3.org/2000/svg" viewBox="0 0 556 1204">
  <path d="M470.90 725.09C442.88 724.72 415.98 734.90 391.60 747.91C352.59 759.01 311.40 757.27 271.23 758.11C228.95 759.24 186.77 756.05 144.53 755.13C108.30 756.10 70.06 755.52 36.61 771.39C18.67 777.98 15.07 800.88 26.74 814.71C44.17 832.81 71.93 826 92.65 818.18C125.66 805.94 161.68 806.87 196.36 804.73C271.86 801.31 347.38 805.34 422.91 804.58C446.25 803.35 470.75 804.61 492.90 796.30C510.32 788.49 527.04 769.99 517.53 749.94C510.89 731.61 487.97 726.88 470.90 725.09"/>
</svg>