<svg xmlns="http://www.w3.org/2000/svg" viewBox="0 0 544 1204">
  <path d="M470.90 575.09C442.88 574.72 415.98 584.90 391.60 597.91C352.59 609.01 311.40 607.27 271.23 608.11C228.95 609.24 186.77 606.05 144.53 605.13C108.30 606.10 70.06 605.52 36.61 621.39C18.67 627.98 15.07 650.88 26.74 664.71C44.17 682.81 71.93 676 92.65 668.18C125.66 655.94 161.68 656.87 196.36 654.73C271.86 651.31 347.38 655.34 422.91 654.58C446.25 653.35 470.75 654.61 492.90 646.30C510.32 638.49 527.04 619.99 517.53 599.94C510.89 581.61 487.97 576.88 470.90 575.09"/>
</svg>