<svg xmlns="http://www.w3.org/2000/svg" viewBox="0 0 664 1204">
  <path d="M586.75 575.09C557.77 574.47 530.46 586.02 505.08 598.72C452.93 611.40 398.61 607.14 345.39 608.11C282.08 607.86 218.73 609.28 155.51 605.19C115.61 605.73 73.49 604.32 36.46 621.39C14.89 629.06 14.87 660.88 34.34 670.93C62.52 686.08 91.32 664.67 119.39 660.87C197.32 650.71 276.19 654.30 354.59 653.21C430.33 651.93 506.23 658.01 581.86 652.23C603.66 651.42 630.75 640.21 635.51 616.79C640.40 589.68 611.35 576.29 586.75 575.09"/>
</svg>