<svg xmlns="http://www.w3.org/2000/svg" viewBox="0 0 156 1204">
  <path d="M156.13 175.15C128.80 178.98 103.80 192.01 80.58 206.31C66.55 215.60 51.94 225.36 43.38 240.33C35.06 253.64 28.14 268.16 24.26 283.35C22.28 293.21 19.67 303 20.04 313.16C19.74 328.19 22.35 343.72 28.85 357.20C36.09 368.32 49.44 375.65 62.78 375C76.52 374.64 88.45 365.49 95.61 354.28C99.69 347 100.38 338.54 97.62 330.70C95.02 323.21 90.83 314.23 82.23 312.50C73.34 307.88 68.40 298.09 70.45 288.22C72.69 272 75.49 255.42 84.01 241.13C98.28 217.32 118.41 197.09 142.44 183.13C146.18 180.46 155.63 176.30 156.13 175.15"/>
</svg>