<svg xmlns="http://www.w3.org/2000/svg" viewBox="0 0 154 1204">
  <path d="M93.35 175C79.61 175.36 67.68 184.51 60.52 195.72C56.43 203 55.75 211.46 58.51 219.30C61.11 226.79 65.29 235.77 73.90 237.50C82.79 242.12 87.73 251.91 85.68 261.78C83.44 278 80.64 294.58 72.12 308.88C57.85 332.68 37.71 352.91 13.69 366.87C9.94 369.54 0.50 373.70 0 374.85C27.33 371.02 52.33 357.99 75.55 343.69C89.58 334.40 104.19 324.64 112.75 309.67C121.06 296.36 127.99 281.84 131.87 266.65C133.84 256.79 136.46 247.01 136.09 236.84C136.39 221.81 133.78 206.28 127.28 192.80C120.04 181.68 106.69 174.35 93.35 175"/>
</svg>