<svg xmlns="http://www.w3.org/2000/svg" viewBox="0 0 157 1204">
  <path d="M62.78 847.22C76.52 846.86 88.45 837.71 95.61 826.50C99.69 819.23 100.38 810.76 97.62 802.92C95.02 795.43 90.83 786.46 82.23 784.72C73.34 780.10 68.40 770.31 70.45 760.45C72.69 744.23 75.49 727.64 84.01 713.35C98.28 689.54 118.42 669.31 142.44 655.35C146.18 652.68 155.63 648.53 156.13 647.37C128.80 651.21 103.80 664.23 80.58 678.53C66.55 687.82 51.94 697.58 43.38 712.55C35.06 725.86 28.14 740.38 24.26 755.57C22.28 765.44 19.67 775.22 20.04 785.38C19.74 800.42 22.35 815.94 28.85 829.42C36.09 840.54 49.44 847.87 62.78 847.22"/>
</svg>