<svg xmlns="http://www.w3.org/2000/svg" viewBox="0 0 246 1204">
  <path d="M148.86 375C162.96 374.59 175.32 365.05 182.19 353.24C188.03 342.83 185.07 330.10 178.89 320.60C173.64 311.53 159.63 311.21 157.03 299.71C154.93 288.82 158.50 277.90 160.08 267.17C165.70 241.28 183.24 220 202.07 202.23C214.56 191.43 228.54 182.39 243.30 175C212.11 179.33 183.71 194.83 157.91 212.17C146.33 220.14 135.36 229.39 128.47 241.88C118.52 258.06 110.99 275.83 108.02 294.62C104.03 314.25 106.06 335.19 113.21 353.84C119.38 366.92 134.37 375.67 148.86 375M62.86 375C76.96 374.59 89.32 365.05 96.19 353.24C102.03 342.83 99.07 330.10 92.89 320.60C87.64 311.53 73.63 311.21 71.03 299.71C68.93 288.82 72.50 277.90 74.08 267.17C79.70 241.28 97.24 220 116.07 202.23C128.56 191.43 142.54 182.39 157.30 175C126.11 179.33 97.71 194.83 71.91 212.17C60.33 220.14 49.36 229.39 42.47 241.88C32.52 258.06 24.99 275.83 22.02 294.62C18.03 314.25 20.06 335.19 27.21 353.84C33.38 366.92 48.37 375.67 62.86 375"/>
</svg>