<svg xmlns="http://www.w3.org/2000/svg" viewBox="0 0 237 1204">
  <path d="M92.45 175C78.34 175.41 65.98 184.95 59.11 196.76C53.27 207.17 56.23 219.90 62.41 229.40C67.66 238.47 81.67 238.79 84.27 250.29C86.37 261.18 82.80 272.10 81.23 282.83C75.60 308.72 58.06 330 39.23 347.77C26.74 358.57 12.76 367.61-2 375C29.19 370.67 57.59 355.17 83.39 337.83C94.97 329.86 105.94 320.61 112.83 308.12C122.78 291.94 130.31 274.17 133.28 255.38C137.27 235.75 135.24 214.81 128.09 196.16C121.92 183.08 106.93 174.33 92.45 175M178.45 175C164.34 175.41 151.98 184.95 145.11 196.76C139.27 207.17 142.23 219.90 148.41 229.40C153.66 238.47 167.67 238.79 170.27 250.29C172.37 261.18 168.80 272.10 167.23 282.83C161.60 308.72 144.06 330 125.23 347.77C112.74 358.57 98.76 367.61 84 375C115.19 370.67 143.59 355.17 169.39 337.83C180.97 329.86 191.94 320.61 198.83 308.12C208.78 291.94 216.31 274.17 219.28 255.38C223.27 235.75 221.24 214.81 214.09 196.16C207.92 183.08 192.93 174.33 178.45 175"/>
</svg>