<svg xmlns="http://www.w3.org/2000/svg" viewBox="0 0 253 1204">
  <path d="M148.86 847.22C162.96 846.81 175.32 837.28 182.19 825.46C188.03 815.06 185.07 802.32 178.89 792.82C173.64 783.76 159.63 783.43 157.03 771.93C154.93 761.04 158.50 750.12 160.08 739.39C165.70 713.50 183.24 692.22 202.07 674.46C214.56 663.65 228.54 654.61 243.30 647.22C212.11 651.55 183.71 667.05 157.91 684.39C146.33 692.36 135.36 701.62 128.47 714.10C118.52 730.28 110.99 748.05 108.02 766.84C104.03 786.48 106.06 807.41 113.21 826.06C119.38 839.15 134.37 847.90 148.86 847.22M62.86 847.22C76.96 846.81 89.32 837.28 96.19 825.46C102.03 815.06 99.07 802.32 92.89 792.82C87.64 783.76 73.63 783.43 71.03 771.93C68.93 761.04 72.50 750.12 74.08 739.39C79.70 713.50 97.24 692.22 116.07 674.46C128.56 663.65 142.54 654.61 157.30 647.22C126.11 651.55 97.71 667.05 71.91 684.39C60.33 692.36 49.36 701.62 42.47 714.10C32.52 730.28 24.99 748.05 22.02 766.84C18.03 786.48 20.06 807.41 27.21 826.06C33.38 839.15 48.37 847.90 62.86 847.22"/>
</svg>