<svg xmlns="http://www.w3.org/2000/svg" viewBox="0 0 572 1204">
  <path d="M457.15 674C431.01 671.67 405.44 700.49 415.56 725.94C422.28 748.72 439.27 775.14 466.32 773.18C487.77 771.89 511.05 757.74 512.98 734.54C514.72 713.14 498.88 694.49 482.70 682.45C475.19 677.30 466.27 674.24 457.15 674M83.90 675C57.81 673.25 32.04 701.11 42.31 726.83C49.03 749.61 66.01 776.04 93.06 774.07C114.80 772.90 137.82 758.23 139.72 734.92C141.72 712.76 124.50 694.09 107.62 682.14C100.51 677.74 92.30 675.05 83.90 675M271.36 675C245.27 673.25 219.51 701.11 229.77 726.83C236.49 749.61 253.48 776.04 280.53 774.07C302.26 772.90 325.28 758.23 327.19 734.92C329.18 712.76 311.96 694.09 295.08 682.14C287.97 677.74 279.76 675.05 271.36 675"/>
</svg>