<svg xmlns="http://www.w3.org/2000/svg" viewBox="0 0 862 1204">
  <path d="M493.52 175C448.58 178.84 444.25 228.67 437.76 262.99C416.67 303.49 379.72 332.99 350.21 367.23C261 462.73 168.88 555.49 78.60 649.98C54.17 680.36 20.34 711.89 20.40 753.58C41.68 796.66 92.09 756.90 100.85 724.25C128.90 667.97 175.83 624.02 217.13 577.45C307.48 479.07 403 385.54 493.07 286.94C513.71 263.16 543.73 229.96 526.50 196.83C518.55 186.30 507.70 175.11 493.52 175M148.42 175.13C74.87 175.65 12.86 246.23 20.67 319.18C24.95 386.29 88.36 441.67 154.87 440.46C185.74 442.40 233.39 423.62 255.65 392.77C307.41 334.09 290.22 232.74 221.99 194.41C199.99 181.10 174.09 174.49 148.42 175.13M150.07 217.04C208.04 213.59 256.06 273.62 242.77 329.49C238.39 374.60 195.92 393.58 156.50 388.50C126.40 389.54 127 433.74 141.52 437.12C92.42 425.33 56.45 381.87 48.47 332.88C33.90 274.27 95.90 220.41 150.07 217.04M394.21 509.27C318.25 509.74 254.59 585.17 267.11 660.18C274.81 724.53 336.38 776.07 400.66 774.98C426.78 776.11 480.20 758.93 501.44 727.21C553.30 668.54 535.86 567.27 467.77 528.82C445.83 515.34 419.93 508.58 394.21 509.27M688.23 509.27C612.28 509.74 548.62 585.17 561.14 660.18C568.84 724.53 630.41 776.07 694.69 774.98C720.81 776.11 774.23 758.93 795.47 727.21C847.33 668.54 829.89 567.27 761.80 528.82C739.86 515.34 713.96 508.58 688.23 509.27M395.86 551.56C452.21 548.31 500.05 604.91 489.24 659.92C486.22 702.42 446.88 730.61 406.40 721.58C380.17 722.32 362.19 761.71 391.15 772.71C340.53 761.65 302.35 717.48 294.26 667C280.25 608.74 341.79 554.78 395.86 551.56M689.89 551.56C746.24 548.31 794.08 604.91 783.27 659.92C780.25 702.42 740.91 730.61 700.43 721.58C674.20 722.32 656.22 761.71 685.18 772.71C634.56 761.65 596.38 717.48 588.29 667C574.28 608.74 635.82 554.78 689.89 551.56"/>
</svg>