<svg xmlns="http://www.w3.org/2000/svg" viewBox="0 0 260 1204">
  <path d="M128 180L124 180C121 180 118 181 115 181C112 182 109 182 106 183C102 185 97 186 93 188C89 190 85 193 81 196C77 199 75 201 72 204C69 207 66 210 64 213C62 216 60 220 58 224L53 234C49 243 46 253 44 262C42 271 42 280 42 289C42 298 44 308 46 317C48 326 52 335 56 343C60 351 64 357 70 362C76 367 82 372 88 375C94 378 101 381 108 382C115 383 121 384 127 384L126 384L134 384C137 384 140 383 143 383C146 382 149 382 152 381C161 378 169 374 177 368C181 365 183 363 186 360C189 357 192 354 194 351C196 348 198 344 200 340L205 330C209 321 212 311 214 302C216 293 216 284 216 275C216 266 214 256 212 247C210 238 206 229 202 221C198 213 194 207 188 202C182 197 176 192 170 189C164 186 157 183 150 182C143 181 138 180 132 180M139 182C144 184 150 186 155 189C160 192 165 195 170 199C175 203 178 207 182 212C186 217 189 223 191 229C193 234 194 240 196 245C198 250 199 255 200 261C201 267 202 273 202 279C202 285 202 292 201 299C199 310 195 320 191 327C187 334 182 340 177 345C175 346 174 349 172 350L166 353L160 356C158 357 156 356 154 356C152 356 149 356 147 355C145 354 143 353 141 353L133 353C129 354 127 355 124 357C123 358 121 359 120 360L117 363C116 364 116 366 115 368C114 370 114 372 114 374C114 376 115 378 116 379L119 382C114 380 108 378 103 375C98 372 93 369 88 365C83 361 80 357 76 352C72 347 69 341 67 335C65 330 64 324 62 319C60 314 59 309 58 303C57 297 56 291 56 285C56 279 56 272 57 265C59 254 63 244 67 237C71 230 76 224 81 219C83 218 84 215 86 214L92 211L98 208C100 207 102 208 104 208C106 208 109 208 111 209C113 210 115 211 117 211L125 211C129 210 131 209 134 207C136 205 139 204 141 201C143 198 144 194 144 190C144 188 144 186 143 185C142 184 140 183 139 182"/>
</svg>