<svg xmlns="http://www.w3.org/2000/svg" viewBox="0 0 141 1204">
  <path d="M66 180C62 180 58 181 55 183C50 187 46 191 45 197C44 200 46 204 48 207C50 210 53 212 57 213C60 214 65 214 68 213C70 213 73 212 75 211C77 210 79 208 80 207C82 205 83 204 84 202C86 198 88 193 86 189C83 184 74 181 67 180M80 243C75 243 70 245 67 248C56 259 60 275 60 289C60 298 59 306 58 315C57 322 58 329 56 336C54 344 49 352 47 361C46 365 45 368 46 372C47 376 48 381 52 383C56 385 62 385 66 383C71 381 75 376 77 372C84 358 80 341 81 326L81 316L81 293C81 288 80 283 82 278C84 274 88 271 91 267C95 262 97 256 95 251C93 247 87 244 82 243"/>
</svg>