<svg xmlns="http://www.w3.org/2000/svg" viewBox="0 0 233 1204">
  <path d="M128 180L125 180L123 180C122 180 121 182 120 183C119 184 118 186 117 188C116 190 117 191 117 194C117 197 119 199 121 202L121 203C117 209 114 216 109 223C104 230 99 236 93 243C87 250 82 257 76 264C70 271 66 277 61 283C56 289 52 295 49 300C46 305 43 309 42 312C40 318 40 323 40 326C40 329 41 332 42 334C43 336 45 337 47 338C49 339 50 339 52 339L56 339L65 339L78 339L93 339L110 339L127 339L127 341C127 366 130 381 137 384C143 385 146 383 148 378C149 373 149 368 146 362C144 358 143 350 142 339L156 339C160 339 165 338 168 338L177 338C179 338 181 337 182 337C185 337 186 336 188 335C190 334 191 333 192 332C193 331 193 329 193 328L193 325C193 324 193 323 192 321C191 319 190 318 189 317C188 316 186 314 184 313C182 312 180 311 178 311C174 310 171 310 168 310C165 310 163 310 161 311C159 312 157 313 156 315C155 317 154 318 153 320C152 321 151 322 149 323C147 324 145 325 142 326L142 321L142 316L142 273L142 223L142 201C142 195 141 191 140 189C138 185 136 182 133 181C132 181 132 180 131 180M125 222C125 225 126 229 126 232C126 235 127 238 127 242C127 246 128 250 128 254L128 264L128 296C128 306 127 317 127 328C121 329 115 328 109 328L90 328L75 328C71 328 68 327 66 327C63 327 61 326 60 325C59 324 58 322 58 319C58 316 60 314 61 311C62 308 64 304 66 300C67 298 69 296 71 292C73 288 77 284 80 279C83 274 87 270 91 265C95 260 99 254 103 249L115 234C119 229 122 226 125 222"/>
</svg>