<svg xmlns="http://www.w3.org/2000/svg" viewBox="0 0 185 1204">
  <path d="M59 180C56 180 54 181 51 182C48 183 46 185 44 188C43 190 43 192 43 193C43 194 44 195 45 196C46 197 47 197 48 198C49 199 51 200 52 201C53 202 53 203 54 205C55 207 55 209 55 212C55 216 54 221 53 225C52 229 51 234 50 239C49 244 47 248 46 253C45 258 42 264 41 270C40 273 41 275 42 276L45 279C46 280 48 280 50 280L86 280C91 280 95 281 100 283C105 285 110 287 114 291C118 295 121 298 124 304C127 310 128 316 128 324C128 332 126 338 123 344C120 350 116 355 111 358C106 361 100 364 93 365C86 366 79 367 72 367L68 367C67 367 66 366 65 366C64 366 64 364 63 364C62 364 62 363 61 363C59 362 56 363 54 363C52 363 50 363 48 364C47 365 47 366 46 366C45 366 44 367 44 368C44 369 43 369 43 370L43 373C43 374 43 376 44 377C45 378 45 379 46 380C47 381 49 381 50 382C51 383 53 383 54 383C57 384 60 384 64 384C76 384 86 383 96 380C106 377 114 374 121 369C128 364 133 357 137 350C141 343 143 334 143 324C143 314 141 305 138 298C135 291 130 285 125 280C120 275 113 271 106 268C99 265 93 264 86 264L75 264L71 264L68 264L65 264L63 264L61 264C60 264 60 263 59 263C58 263 57 262 57 261C57 260 58 259 58 257C58 255 60 252 61 248C62 244 64 241 65 236C66 231 67 227 68 222C69 217 70 213 69 210L69 205C69 204 70 203 71 203C72 203 74 204 76 204C78 204 80 205 83 205L93 205C97 205 102 204 107 203C111 206 115 208 119 209C121 210 122 210 124 210L129 210C131 210 132 209 133 208C134 207 136 207 137 205C139 201 141 197 140 195C139 193 137 191 135 190C133 189 130 188 127 188C124 188 120 189 117 190C115 191 111 190 107 191C103 192 98 192 93 192C88 192 85 192 81 191C77 190 74 189 73 187C71 185 69 182 67 181C65 180 62 180 59 180"/>
</svg>