<svg xmlns="http://www.w3.org/2000/svg" viewBox="0 0 207 1204">
  <path d="M145 180L140 180L136 180C132 180 129 181 126 182C123 183 120 184 116 185C107 188 99 193 91 198C83 203 76 210 70 217C64 224 58 231 54 240C50 249 47 258 45 268C44 273 43 279 43 285L43 302C43 308 44 315 45 322C46 328 48 334 50 340C52 346 54 351 56 356C58 360 61 365 64 368C67 371 69 374 73 376C77 378 81 381 86 382C91 383 96 384 102 384L105 384C113 384 119 384 126 382C133 380 139 378 144 374C149 370 154 366 158 361C162 356 164 349 165 342C166 332 166 322 164 314C162 306 156 298 150 292C144 288 138 285 131 283C128 282 124 282 120 281C116 280 112 280 107 280C102 280 98 280 93 281C88 282 82 283 76 285C77 285 78 284 80 284C82 284 84 285 87 285C90 285 93 285 97 286C101 287 106 288 112 289C120 291 127 293 132 296C137 299 140 303 143 307C146 311 147 316 148 321C149 326 149 332 148 338C147 342 146 346 144 350C142 354 140 357 137 360C134 363 129 364 124 366C119 368 113 369 105 369L102 369C96 369 90 368 86 366C82 364 78 360 75 355C72 350 68 344 66 337C64 330 62 323 60 314C59 309 58 304 58 299L58 285C58 280 59 275 60 271C62 258 66 247 73 237C80 227 88 218 98 211C100 210 101 209 104 207C107 205 110 204 113 202C116 200 118 198 121 197C124 196 126 195 128 195C129 195 130 195 132 196C134 197 135 197 137 198L143 201C145 202 148 203 150 203C152 203 154 203 156 202C158 201 159 201 161 199C164 195 165 192 165 189C165 186 162 185 160 183C158 181 155 180 151 180M76 285"/>
</svg>