<svg xmlns="http://www.w3.org/2000/svg" viewBox="0 0 193 1204">
  <path d="M143 180L142 180C140 180 138 179 137 180C136 181 135 181 135 181C135 181 135 182 134 182C133 182 133 183 132 184C131 185 130 187 130 188L130 192L130 193C130 194 129 194 128 195C127 196 126 197 125 197L123 197C119 199 114 200 109 200L95 200C90 200 86 199 81 198C76 197 71 195 67 194C57 191 47 186 37 181C37 181 37 182 38 183C39 184 41 185 43 187C45 189 47 190 49 192C51 194 54 195 57 197C60 199 62 201 65 202C68 203 71 205 73 206L85 209L97 212C104 213 110 214 116 214C122 214 127 214 131 213C131 215 130 218 129 221C128 224 127 228 125 232C123 236 121 242 119 247C117 252 115 257 112 263C106 276 101 288 95 300C89 312 84 325 78 337C67 361 64 377 69 383C74 386 78 385 81 381C84 377 87 371 87 364C87 357 92 341 102 318C113 293 126 264 142 229C150 211 155 200 155 195C155 190 154 187 152 185C152 184 152 184 151 183C150 182 149 181 148 181C147 181 146 180 145 180"/>
</svg>