<svg xmlns="http://www.w3.org/2000/svg" viewBox="0 0 197 1204">
  <path d="M100 180C95 180 89 181 84 182C77 184 70 187 65 191C60 195 55 201 52 207C49 213 47 219 46 226C45 233 46 240 48 247C50 253 52 258 55 263C58 268 62 272 67 275C67 275 67 276 68 276C68 276 69 277 70 277C71 277 71 278 72 278C66 281 61 284 57 289C53 294 50 299 47 305C44 311 43 317 42 324C41 331 42 336 44 343C46 349 48 354 51 359C54 364 58 368 62 372C66 376 72 379 77 381C82 383 88 384 94 384C93 384 94 383 93 383C94 383 95 384 96 384L101 384C105 384 110 383 114 382C121 380 127 377 133 372C139 367 143 362 147 356C151 350 153 342 154 335C155 328 154 321 152 313C150 305 147 298 142 292C137 286 131 281 125 278C130 275 134 271 138 267C142 263 145 258 147 253C149 248 151 242 151 236C151 230 151 224 149 218C147 211 143 204 139 199C135 194 130 189 124 186C118 183 112 181 105 180M99 196C100 196 102 197 103 197C108 198 112 199 116 201C120 203 123 206 126 210C129 214 132 218 133 223C134 228 134 232 134 237C134 242 133 245 131 249C129 253 128 256 125 259C122 262 119 264 116 265L111 265L107 265C106 265 105 264 104 264L101 264L93 264C90 264 89 266 86 267C85 267 83 266 82 266L79 266C78 266 78 265 77 265C75 264 72 262 70 261C68 260 66 258 64 256C62 254 60 252 59 249L56 240C55 235 56 230 57 226C58 222 61 218 64 214C67 210 71 207 75 204C79 201 83 199 88 198C92 197 95 196 99 196M99 289L103 289C108 290 113 292 117 294C121 296 125 300 128 304C131 308 134 312 135 317C136 322 137 327 137 332C137 337 135 342 133 346C131 350 129 353 126 356C123 359 120 361 117 362C115 362 113 363 112 363C111 363 110 362 109 362L106 362C105 362 104 361 103 361C101 361 98 362 96 363C94 364 91 364 89 366C88 367 88 368 88 369C88 370 86 370 86 371L86 374L86 377C86 379 88 380 89 381C90 382 90 383 91 383C88 382 86 381 83 380C80 378 76 376 73 374C70 372 68 370 66 367C64 365 63 362 62 360C61 358 59 355 58 353C57 351 57 348 56 345C55 342 55 340 54 336C53 331 52 326 54 321C56 316 59 312 62 308C65 304 68 300 73 297C78 294 83 293 88 291C92 290 95 289 99 289"/>
</svg>