<svg xmlns="http://www.w3.org/2000/svg" viewBox="0 0 207 1204">
  <path d="M102 180C94 180 87 180 80 182C73 184 67 186 62 190C57 194 53 198 49 203C45 208 43 215 42 222C41 232 41 242 43 250C45 258 50 266 56 272C62 276 68 279 76 281C79 282 83 282 87 283C91 284 94 284 99 284C104 284 109 284 114 283C119 282 124 281 130 279C129 279 129 280 127 280C125 280 123 279 120 279C117 279 114 279 110 278C106 277 100 276 94 275C86 273 80 271 75 268C70 265 66 261 63 257C60 253 60 248 59 243C58 238 58 231 59 225C60 221 61 218 63 214C65 210 67 207 70 204C73 201 77 200 82 198C87 196 94 195 102 195L105 195C111 195 116 197 120 199C124 201 129 204 132 209C135 214 139 220 141 227C143 234 145 241 147 250C148 255 149 261 149 266C149 271 148 276 148 280C148 285 148 290 147 294C145 307 141 318 134 328C127 338 119 346 109 353C107 354 106 356 103 358C100 360 97 361 94 363C91 365 89 366 86 367C83 368 81 369 79 369C78 369 77 369 75 368C73 367 72 367 70 366C68 365 65 364 63 363C61 362 59 361 57 361C55 361 53 361 51 362C49 363 48 363 46 365C43 369 42 372 42 375C42 378 44 379 46 381C48 383 52 384 56 384C60 384 63 385 67 384L71 384C75 384 78 383 81 382C84 381 87 380 91 379C100 376 108 371 116 366C124 361 131 355 137 348C143 341 149 333 153 324C157 315 160 306 162 296C163 291 163 285 163 279C163 274 164 268 164 262C164 256 163 249 162 242C161 236 159 230 157 224C155 218 153 213 151 208C149 204 146 199 143 196C140 193 137 191 133 188C129 185 126 183 121 182C116 181 111 180 105 180M130 279L131 279L132 279"/>
</svg>