<svg xmlns="http://www.w3.org/2000/svg" viewBox="0 0 285 1204">
  <path d="M136 180C127 180 121 181 119 186C117 190 118 196 122 202C126 209 128 224 128 248C128 254 129 261 129 268C115 268 99 267 83 267C74 267 67 267 61 268C55 269 52 270 50 271C48 273 45 274 44 276C43 278 41 280 41 282C40 284 40 286 40 288C40 290 41 293 41 295C42 300 45 303 49 305C51 306 54 307 56 307C58 307 60 307 63 306C65 305 67 304 70 303C73 302 75 299 78 297C81 295 86 293 94 292C102 291 112 290 125 290L129 290L129 291C129 306 128 323 128 341C128 350 128 358 129 364C130 370 131 373 132 375C133 377 135 378 137 380C139 382 140 383 142 383C146 384 150 385 155 384C160 383 164 380 166 376C167 374 167 371 167 369C167 367 167 365 166 362C166 360 165 357 163 354C161 351 159 350 157 347C153 341 151 325 151 299L151 291L163 291C176 291 189 291 202 292C215 292 225 292 232 289C239 286 243 281 245 276C245 266 243 260 239 258C235 255 229 256 222 261C215 265 200 268 176 268L151 268L151 261C151 248 152 235 152 222C153 197 148 183 136 180"/>
</svg>