<svg xmlns="http://www.w3.org/2000/svg" viewBox="0 0 291 1204">
  <path d="M236 256C233 256 229 258 225 261C218 265 203 268 179 268C171 268 102 267 86 267C77 267 70 267 64 268C58 269 55 270 53 271C51 273 48 274 47 276C46 278 44 280 44 282C43 284 43 286 43 288C43 290 44 292 44 295C45 300 48 303 52 305C54 306 57 307 59 307C61 307 63 308 66 307C68 306 70 304 73 303C76 302 78 300 81 297C84 295 89 293 97 292C105 291 192 291 205 292C218 292 228 292 235 289C242 286 246 281 248 276C248 266 246 260 242 258C240 257 238 256 236 256"/>
</svg>