<svg xmlns="http://www.w3.org/2000/svg" viewBox="0 0 291 1204">
  <path d="M236 231C233 231 229 232 225 235C218 239 203 242 179 242L86 242C77 242 70 241 64 242C58 243 55 244 53 245C51 247 48 249 47 251C46 253 44 255 44 257C43 259 43 261 43 263C43 265 44 266 44 269C45 274 48 278 52 280C54 281 57 282 59 282C61 282 63 282 66 281C68 280 70 279 73 278C76 277 78 275 81 272C84 270 89 267 97 266C105 265 192 266 205 267C218 267 228 266 235 263C242 260 246 256 248 251C248 241 246 234 242 232C240 231 238 231 236 231M236 282C233 282 229 283 225 286C218 290 203 294 179 294C171 294 102 293 86 293C77 293 70 293 64 294C58 295 55 295 53 296C51 298 48 300 47 302C46 304 44 306 44 308C43 310 43 312 43 314C43 316 44 318 44 321C45 326 48 329 52 331C54 332 57 333 59 333C61 333 63 333 66 332C68 331 70 330 73 329C76 328 78 326 81 323C84 321 89 319 97 318C105 317 192 317 205 318C218 318 228 317 235 314C242 311 246 307 248 302C248 292 246 286 242 284C240 283 238 282 236 282"/>
</svg>