<svg xmlns="http://www.w3.org/2000/svg" viewBox="0 0 167 1204">
  <path d="M115 180L108 180C103 181 97 183 91 186C83 190 75 196 68 203C65 206 62 209 60 212C58 215 57 219 55 222C53 225 51 229 50 233L47 245C44 254 42 264 42 273C42 282 42 291 44 300C46 309 49 318 52 327C55 336 59 344 64 352C68 358 72 363 76 367C80 371 85 374 90 377C95 380 101 382 107 383C113 384 121 384 129 384C123 382 117 381 113 379C109 377 105 375 102 373L93 367C90 365 88 363 86 360C84 357 82 355 80 352C78 349 76 345 74 342C71 337 69 332 67 327C65 322 64 316 62 311C60 306 59 300 58 294C57 288 55 281 55 274C55 262 57 253 60 245C63 237 67 230 71 225C72 223 74 221 76 220C78 219 79 217 81 216C83 215 84 214 86 213C88 212 90 211 92 211C94 211 96 212 98 212L105 212C107 212 109 212 112 211C115 210 119 208 121 206C123 204 124 202 126 199C128 196 129 192 128 188C128 186 126 184 125 183C124 182 123 180 121 180"/>
</svg>