<svg xmlns="http://www.w3.org/2000/svg" viewBox="0 0 167 1204">
  <path d="M37 180C43 182 48 183 52 185C56 187 61 189 64 191L73 197C76 199 78 201 80 204C82 207 84 209 86 212C88 215 90 219 92 222C95 227 97 232 99 237C101 242 102 248 104 253C106 258 107 264 108 270C109 276 111 283 111 290C111 301 109 311 106 319C103 327 99 334 95 339C94 341 92 342 90 344C88 346 87 347 85 348C83 349 82 350 80 351C78 352 76 353 74 353C72 353 69 352 67 352L61 352C59 352 57 352 54 353C51 354 47 356 45 358L42 361C41 362 41 363 40 365C39 367 38 368 38 370L38 376C38 378 40 380 41 381C42 382 43 384 45 384L51 384L58 384C63 383 69 381 75 378C79 376 83 373 87 370C91 367 95 364 98 361C101 358 104 355 106 352C108 349 109 345 111 342C113 339 114 335 115 331C116 327 118 323 119 319C122 310 124 300 124 291C124 282 124 273 122 264C120 255 118 246 114 237C110 228 107 220 102 212C98 206 94 201 90 197C86 193 81 190 76 187C71 184 65 182 59 181C53 180 45 180 37 180"/>
</svg>