<svg xmlns="http://www.w3.org/2000/svg" viewBox="0 0 243 1204">
  <path d="M80 180C75 180 71 185 68 189C65 194 64 202 64 208C63 224 63 229 63 234C63 280 63 309 58 318C53 327 48 335 46 344C45 353 45 361 47 369C49 377 53 381 58 383C63 385 68 384 72 382C77 379 80 375 83 368C86 360 87 340 87 308L87 251C92 245 97 240 103 236C109 232 115 229 120 227C126 225 132 225 137 226C142 227 148 228 152 231C156 234 160 238 163 242C166 246 169 250 171 255C173 262 175 267 175 276C176 293 174 314 171 319C166 328 159 335 157 344C156 353 157 361 159 369C161 377 165 381 170 383C175 385 179 384 183 382C188 379 191 375 194 368C197 360 199 340 199 308C199 297 199 285 198 274C197 269 197 265 195 259C192 248 187 238 181 230C175 222 169 216 161 211C153 206 145 204 136 203C127 202 119 203 110 207C101 211 93 216 87 223C88 219 89 216 90 213C95 202 96 197 93 190C91 185 85 180 80 180"/>
</svg>