<svg xmlns="http://www.w3.org/2000/svg" viewBox="0 0 254 1204">
  <path d="M126 692L122 692C119 692 116 693 113 693C110 694 107 694 104 695C100 697 95 698 91 700C87 702 83 705 79 708C75 711 73 713 70 716C67 719 64 722 62 725C60 728 58 732 56 736L51 746C47 755 44 765 42 774C40 783 40 792 40 801C40 810 42 820 44 829C46 838 50 847 54 855C58 863 62 869 68 874C74 879 80 884 86 887C92 890 99 893 106 894C113 895 118 896 124 896L132 896C135 896 138 895 141 895C144 894 147 894 150 893C159 890 167 886 175 880C179 877 181 875 184 872C187 869 190 866 192 863C194 860 196 856 198 852L203 842C207 833 210 823 212 814C214 805 214 796 214 787C214 778 212 768 210 759C208 750 204 741 200 733C196 725 192 719 186 714C180 709 174 704 168 701C162 698 155 695 148 694C141 693 135 692 129 692L130 692M137 694C142 696 148 698 153 701C158 704 163 707 168 711C173 715 176 719 180 724C184 729 187 735 189 741C191 746 192 752 194 757C196 762 197 767 198 773C199 779 200 785 200 791C200 797 200 804 199 811C197 822 193 832 189 839C185 846 180 852 175 857C173 858 172 861 170 862L164 865L158 868C156 869 154 868 152 868C150 868 147 868 145 867C143 866 141 865 139 865L131 865C127 866 125 867 122 869C121 870 119 871 118 872L115 875C114 876 114 878 113 880C112 882 112 884 112 886C112 888 112 890 113 891C114 892 116 893 117 894C112 892 106 890 101 887C96 884 91 881 86 877C81 873 78 869 74 864C70 859 67 853 65 847C63 842 62 836 60 831C58 826 57 821 56 815C55 809 54 803 54 797C54 791 54 784 55 777C57 766 61 756 65 749C69 742 74 736 79 731C81 730 82 727 84 726L90 723L96 720C98 719 100 720 102 720C104 720 107 720 109 721C111 722 113 723 115 723L123 723C127 722 129 721 132 719C134 717 137 716 139 713C141 710 142 706 142 702C142 700 141 698 140 697"/>
</svg>