<svg xmlns="http://www.w3.org/2000/svg" viewBox="0 0 174 1204">
  <path d="M98 692L97 692L93 692C92 692 91 693 90 694C89 695 87 695 86 696C85 697 84 698 84 699C84 700 83 701 83 702L83 705L83 707C83 708 84 708 84 709C84 710 85 711 86 712C87 713 89 714 90 714L91 715C92 716 92 716 92 717L92 720L92 721L92 723C91 727 90 732 88 736C86 740 83 745 80 749L71 761C68 765 64 768 61 771C53 779 45 785 35 792L37 792C39 792 41 791 43 790C45 789 48 787 51 786C54 785 57 784 60 782C63 780 65 779 68 777C71 775 73 774 75 772L84 763L84 762L92 753C93 752 94 750 95 749L98 746C99 754 99 763 99 776C99 802 98 827 98 853L98 867C98 871 98 874 99 877C93 876 89 875 85 876C81 877 79 879 77 882C75 888 76 892 78 894C80 896 82 896 86 894C88 893 92 893 96 893C100 893 106 894 112 895C119 897 124 897 128 896C132 895 134 893 136 890C138 884 138 880 136 878C134 876 131 876 127 878C125 879 122 880 117 880C117 879 116 879 116 878C116 877 115 875 115 874C114 871 113 866 113 858C113 850 112 840 112 828L112 785L112 735L112 712C112 709 111 705 110 702L110 701L110 700L109 699C109 698 108 697 107 696L104 693C103 692 101 692 99 692"/>
</svg>