<svg xmlns="http://www.w3.org/2000/svg" viewBox="0 0 197 1204">
  <path d="M93 692C86 692 81 693 75 695C69 697 63 701 59 705C55 709 52 714 49 719C46 724 45 730 45 736C47 730 50 725 54 721L60 715C62 713 65 712 68 711C71 710 75 708 79 707C83 706 88 706 93 706C98 706 102 706 106 708C110 710 114 712 117 715C120 718 122 720 124 724C126 728 126 732 126 736C126 740 125 744 123 749C121 754 117 760 113 766C109 772 105 778 100 785C95 792 90 797 85 804C80 811 75 818 70 824C65 830 60 836 56 842C52 848 48 852 45 857C42 862 40 866 39 869C37 875 37 880 37 883C37 886 38 889 39 891C40 893 42 894 44 895C46 896 47 896 49 896L54 896L65 896L80 896L96 896L113 896L129 896C134 896 138 895 141 895C144 895 147 894 148 894C150 894 152 893 154 892C156 891 157 890 158 889C159 888 159 886 159 885C159 884 160 883 160 882C160 881 159 880 158 878C157 876 156 875 155 874C154 873 152 871 150 870C148 869 147 868 145 868C141 867 138 867 135 867C132 867 130 867 128 868C126 869 124 870 123 872C122 874 120 875 119 877C118 879 116 881 113 882C110 883 107 884 103 885C99 886 96 885 92 885L80 885L70 885C67 885 65 884 63 884C60 884 57 883 56 882C55 881 55 879 55 876C55 873 56 870 57 867C58 864 60 861 62 857C63 855 65 852 67 848C69 844 73 841 76 836C79 831 83 826 87 821C91 816 96 810 100 805C109 793 119 779 131 765L134 760C136 757 139 753 140 749C141 745 142 740 142 736C142 730 141 724 138 719C135 714 132 709 128 705C124 701 118 697 112 695C106 693 100 692 93 692"/>
</svg>