<svg xmlns="http://www.w3.org/2000/svg" viewBox="0 0 180 1204">
  <path d="M86 692C83 692 79 692 76 693C73 694 69 694 66 695C63 696 59 698 56 700C53 702 50 704 47 707C44 710 42 713 41 717C40 721 39 726 39 731C40 727 42 723 46 720C47 719 50 717 52 716C54 715 57 714 60 713C63 712 67 711 71 710C75 709 80 709 86 709C92 709 97 711 102 713C107 715 111 718 114 722C117 726 119 730 120 735C121 740 121 744 121 748C121 753 120 758 118 762C116 766 115 771 112 774C109 777 106 780 102 782C98 784 95 785 91 785L88 785L85 785C83 784 82 784 81 783C80 782 79 781 77 781C75 780 72 780 69 780C66 780 64 781 62 782C61 783 60 784 59 784C58 784 59 784 58 785C57 786 57 787 57 788C57 789 56 790 56 792C56 794 56 795 57 796L60 799C61 800 62 800 64 801C66 802 67 802 69 802C73 803 76 804 81 804L86 804C87 804 89 803 90 803C94 804 98 806 102 808C106 810 109 813 112 816C115 819 117 823 119 827C121 831 121 835 121 840C121 846 120 851 118 855C116 859 115 863 112 866C109 869 106 870 102 872C98 874 95 875 91 876C87 877 83 877 80 877C77 877 74 878 72 878C70 878 67 877 66 877C65 877 64 876 63 876C62 876 61 875 60 875C59 875 59 874 58 874C56 873 53 873 50 873C47 873 45 874 43 875C42 876 41 875 40 876C39 877 40 877 39 878C38 879 37 880 37 881L37 884C37 886 37 887 38 888L41 891C42 892 43 893 45 894C47 895 48 895 50 895C54 896 57 896 62 896C67 896 73 896 79 895C85 894 90 893 96 891C102 889 107 887 112 884C117 881 122 877 126 873C130 869 133 864 135 859C137 854 139 847 139 840C139 830 137 822 132 814C127 806 122 799 114 794C122 789 127 782 132 774C137 766 139 758 139 748C139 741 139 735 136 728C133 721 130 715 125 710C120 705 115 700 108 697C101 694 94 692 86 692"/>
</svg>