<svg xmlns="http://www.w3.org/2000/svg" viewBox="0 0 229 1204">
  <path d="M126 692L123 692L121 692C120 692 119 694 118 695C117 696 116 698 115 700C114 702 115 703 115 706C115 709 117 711 119 714L119 715C115 721 111 728 106 735C101 742 97 748 91 755C85 762 80 769 74 776C68 783 64 789 59 795C54 801 50 807 47 812C44 817 41 821 40 824C38 830 38 835 38 838C38 841 39 844 40 846C41 848 43 849 45 850C47 851 48 851 50 851L54 851L63 851L76 851L91 851L108 851L125 851L125 853C125 878 128 893 135 896C141 897 144 895 146 890C147 885 147 880 144 874C142 870 141 862 140 851L154 851C158 851 163 850 166 850L174 850C176 850 179 849 180 849C183 849 184 848 186 847C188 846 188 845 189 844C190 843 191 841 191 840L191 837C191 836 191 835 190 833C189 831 188 830 187 829C186 828 184 826 182 825C180 824 178 823 176 823C172 822 169 822 166 822C163 822 161 822 159 823C157 824 155 825 154 827C153 829 152 830 151 832C150 833 149 834 147 835C145 836 143 837 140 838L140 833L140 828C140 815 139 800 139 785C139 770 140 753 140 735L140 713C140 707 139 703 138 701C136 697 134 694 131 693C130 693 130 692 129 692M123 734C123 737 124 741 124 744C124 747 125 750 125 754C125 758 126 762 126 766L126 776L126 808C126 818 125 829 125 840C119 841 113 840 107 840L88 840L73 840C69 840 66 839 64 839C61 839 59 838 58 837C57 836 56 834 56 831C56 828 58 826 59 823C60 820 62 816 64 812C65 810 67 808 69 804C71 800 75 796 78 791C81 786 85 782 89 777C93 772 97 766 101 761L113 746C117 741 120 738 123 734"/>
</svg>