<svg xmlns="http://www.w3.org/2000/svg" viewBox="0 0 182 1204">
  <path d="M58 692C55 692 53 693 50 694C47 695 45 697 43 700C42 702 42 704 42 705C42 706 43 707 44 708C45 709 46 709 47 710C48 711 50 712 51 713C52 714 52 715 53 717C54 719 54 721 54 724C54 728 53 733 52 737C51 741 50 746 49 751C48 756 46 760 45 765C44 770 41 776 40 782C39 785 40 787 41 788L44 791C45 792 47 792 49 792L85 792C90 792 94 793 99 795C104 797 109 799 113 803C117 807 120 810 123 816C126 822 127 828 127 836C127 844 125 850 122 856C119 862 115 867 110 870C105 873 99 876 92 877C85 878 78 879 71 879L67 879C66 879 65 878 64 878C63 878 63 876 62 876C61 876 60 875 59 875C57 874 55 875 53 875C51 875 49 875 47 876C46 877 46 878 45 878C44 878 43 879 43 880C43 881 42 881 42 882L42 885C42 886 42 888 43 889C44 890 44 891 45 892C46 893 48 893 49 894C50 895 52 895 53 895C56 896 59 896 63 896C75 896 85 895 95 892C105 889 113 886 120 881C127 876 132 869 136 862C140 855 142 846 142 836C142 826 140 817 137 810C134 803 129 797 124 792C119 787 112 783 105 780C98 777 92 776 85 776L74 776L70 776L67 776L64 776L62 776L60 776C59 776 59 775 58 775C57 775 56 774 56 773C56 772 57 771 57 769C57 767 59 764 60 760C61 756 63 753 64 748C65 743 66 739 67 734C68 729 69 725 68 722L68 717C68 716 69 715 70 715C71 715 72 716 74 716C76 716 79 717 82 717L92 717C96 717 101 716 106 715C110 718 114 720 118 721C120 722 121 722 123 722L128 722C130 722 131 721 132 720C133 719 135 719 136 717C138 713 140 709 139 707C138 705 136 703 134 702C132 701 129 700 126 700C123 700 119 701 116 702C114 703 110 702 106 703C102 704 97 704 92 704C87 704 84 704 80 703C76 702 73 701 72 699C70 697 68 694 66 693C64 692 61 692 58 692"/>
</svg>