<svg xmlns="http://www.w3.org/2000/svg" viewBox="0 0 203 1204">
  <path d="M143 692L138 692L134 692C130 692 127 693 124 694C121 695 118 696 114 697C105 700 96 705 88 710C80 715 74 722 68 729C62 736 56 743 52 752C48 761 45 770 43 780C42 785 41 791 41 797L41 814C41 820 42 827 43 834C44 840 46 846 48 852C50 858 52 863 54 868C56 872 58 877 61 880C64 883 67 886 71 888C75 890 79 893 84 894C89 895 94 896 100 896L103 896C111 896 117 896 124 894C131 892 137 890 142 886C147 882 152 878 156 873C160 868 162 861 163 854C164 844 163 834 161 826C159 818 154 810 148 804C142 800 136 797 129 795C126 794 122 794 118 793C114 792 110 792 105 792C100 792 96 792 91 793C86 794 80 795 74 797C75 797 76 796 78 796C80 796 82 797 85 797C88 797 91 797 95 798C99 799 104 800 110 801C118 803 125 805 130 808C135 811 138 815 141 819C144 823 145 828 146 833C147 838 147 844 146 850C145 854 144 858 142 862C140 866 138 869 135 872C132 875 127 876 122 878C117 880 111 881 103 881L100 881C94 881 88 880 84 878C80 876 76 872 73 867C70 862 66 856 64 849C62 842 60 835 58 826C57 821 56 816 56 811L56 797C56 792 57 787 58 783C60 770 64 759 71 749C78 739 86 730 96 723C98 722 99 721 102 719C105 717 108 716 111 714C114 712 116 710 119 709C122 708 124 707 126 707C127 707 128 707 130 708C132 709 133 709 135 710L141 713C143 714 146 715 148 715C150 715 152 715 154 714C156 713 157 713 159 711C162 707 163 704 163 701C163 698 160 697 158 695C156 693 153 692 149 692M74 797"/>
</svg>