<svg xmlns="http://www.w3.org/2000/svg" viewBox="0 0 188 1204">
  <path d="M140 692L139 692C137 692 135 691 134 692C133 693 132 693 132 693C132 693 132 694 131 694C130 694 130 695 129 696C128 697 127 699 127 700L127 704L127 705C127 706 126 706 125 707C124 708 123 709 122 709L120 709C116 711 111 712 106 712L92 712C87 712 83 711 78 710C73 709 68 707 64 706C54 703 44 698 34 693C34 693 34 694 35 695C36 696 38 697 40 699C42 701 44 702 46 704C48 706 51 707 54 709C57 711 59 713 62 714C65 715 68 717 70 718L82 721L94 724C101 725 107 726 113 726C119 726 124 726 128 725C128 727 127 730 126 733C125 736 124 740 122 744C120 748 118 754 116 759C114 764 112 769 109 775C103 788 98 800 92 812C86 824 81 837 75 849C64 873 61 889 66 895C71 898 75 897 78 893C81 889 84 883 84 876C84 869 89 853 99 830C110 805 123 776 139 741C147 723 152 712 152 707C152 702 151 699 149 697C149 696 149 696 148 695C147 694 146 693 145 693C144 693 143 692 142 692"/>
</svg>