<svg xmlns="http://www.w3.org/2000/svg" viewBox="0 0 192 1204">
  <path d="M98 692C93 692 87 693 82 694C75 696 68 699 63 703C58 707 53 713 50 719C47 725 45 731 44 738C43 745 44 752 46 759C48 765 50 770 53 775C56 780 60 784 65 787C65 787 65 788 66 788C66 788 67 789 68 789C69 789 69 790 70 790C64 793 59 796 55 801C51 806 48 811 45 817C42 823 41 829 40 836C39 843 40 848 42 855C44 861 46 866 49 871C52 876 56 880 60 884C64 888 70 891 75 893C80 895 86 896 92 896C91 896 92 895 91 895C92 895 93 896 94 896L99 896C103 896 108 895 112 894C119 892 125 889 131 884C137 879 141 874 145 868C149 862 151 854 152 847C153 840 152 833 150 825C148 817 145 810 140 804C135 798 129 793 123 790C128 787 132 783 136 779C140 775 143 770 145 765C147 760 149 754 149 748C149 742 149 736 147 730C145 723 141 716 137 711C133 706 128 701 122 698C116 695 110 693 103 692M97 708C98 708 100 709 101 709C106 710 110 711 114 713C118 715 121 718 124 722C127 726 130 730 131 735C132 740 132 744 132 749C132 754 131 757 129 761C127 765 126 768 123 771C120 774 117 776 114 777L109 777L105 777C104 777 103 776 102 776L99 776L91 776C88 776 87 778 84 779C83 779 81 778 80 778L77 778C76 778 76 777 75 777C73 776 70 774 68 773C66 772 64 770 62 768C60 766 58 764 57 761L54 752C53 747 54 742 55 738C56 734 59 730 62 726C65 722 69 719 73 716C77 713 81 711 86 710C90 709 93 708 97 708M97 801C98 801 100 802 101 802C106 803 111 804 115 806C119 808 123 812 126 816C129 820 132 824 133 829C134 834 135 839 135 844C135 849 133 854 131 858C129 862 127 865 124 868C121 871 118 873 115 874C113 874 111 875 110 875C109 875 107 874 106 874L104 874C103 874 102 873 101 873C99 873 96 874 94 875C92 876 89 876 87 878C86 879 86 880 86 881C86 882 84 882 84 883L84 886L84 889C84 891 86 892 87 893C88 894 88 895 89 895C86 894 84 893 81 892C78 890 74 888 71 886C68 884 66 882 64 879C62 877 61 874 60 872C59 870 57 867 56 865C55 863 55 860 54 857C53 854 52 852 51 848C50 843 50 838 52 833C54 828 56 824 59 820C62 816 66 812 71 809C76 806 81 805 86 803C90 802 93 801 97 801"/>
</svg>