<svg xmlns="http://www.w3.org/2000/svg" viewBox="0 0 202 1204">
  <path d="M100 692C92 692 85 692 78 694C71 696 65 698 60 702C55 706 51 710 47 715C43 720 41 727 40 734C39 744 39 754 41 762C43 770 48 778 54 784C60 788 66 791 74 793C77 794 81 794 85 795C89 796 92 796 97 796C102 796 107 796 112 795C117 794 122 793 128 791C127 791 127 792 125 792C123 792 121 791 118 791C115 791 112 791 108 790C104 789 98 788 92 787C84 785 78 783 73 780C68 777 64 773 61 769C58 765 58 760 57 755C56 750 56 743 57 737C58 733 59 730 61 726C63 722 65 719 68 716C71 713 75 712 80 710C85 708 92 707 100 707L103 707C109 707 114 709 118 711C122 713 127 716 130 721C133 726 137 732 139 739C141 746 143 753 145 762C146 767 147 773 147 778C147 783 146 788 146 792C146 797 146 802 145 806C143 819 139 830 132 840C125 850 117 858 107 865C105 866 103 868 100 870C97 872 95 873 92 875C89 877 87 878 84 879C81 880 79 881 77 881C76 881 75 881 73 880C71 879 70 879 68 878C66 877 63 876 61 875C59 874 57 873 55 873C53 873 51 873 49 874C47 875 46 875 44 877C41 881 40 884 40 887C40 890 42 891 44 893C46 895 50 896 54 896C58 896 61 897 65 896L68 896C72 896 76 895 79 894C82 893 85 892 89 891C98 888 106 883 114 878C122 873 129 867 135 860C141 853 147 845 151 836C155 827 158 818 160 808C161 803 161 797 161 791C161 786 162 780 162 774C162 768 161 761 160 754C159 748 157 742 155 736C153 730 150 725 148 720C146 716 144 711 141 708C138 705 135 703 131 700C127 697 124 695 119 694C114 693 109 692 103 692M128 791L129 791L130 791"/>
</svg>