<svg xmlns="http://www.w3.org/2000/svg" viewBox="0 0 281 1204">
  <path d="M134 692C125 692 119 693 117 698C115 702 116 708 120 714C124 721 126 736 126 760C126 766 127 773 127 780C113 780 97 779 81 779C72 779 65 779 59 780C53 781 49 782 47 783C45 785 43 786 42 788C41 790 39 792 39 794C38 796 38 798 38 800L38 807C39 812 43 815 47 817C49 818 52 819 54 819C56 819 58 819 61 818C63 817 65 816 68 815C71 814 73 811 76 809C79 807 84 805 92 804C100 803 110 802 123 802L127 802L127 803C127 818 126 835 126 853C126 862 126 870 127 876C128 882 129 885 130 887C131 889 133 890 135 892C137 894 138 895 140 895C144 896 148 897 153 896C158 895 161 892 163 888C164 886 165 883 165 881C165 879 165 877 164 874C164 872 163 869 161 866C159 863 157 862 155 859C151 853 149 837 149 811L149 803L161 803C174 803 187 803 200 804C213 804 223 804 230 801C237 798 241 793 243 788C243 778 241 772 237 770C233 767 227 768 220 773C213 777 198 780 174 780L149 780L149 773C149 760 150 747 150 734C151 709 146 695 134 692"/>
</svg>