<svg xmlns="http://www.w3.org/2000/svg" viewBox="0 0 287 1204">
  <path d="M234 769C231 769 227 770 223 773C216 777 201 780 177 780C169 780 100 779 84 779C75 779 68 779 62 780C56 781 53 782 51 783C49 785 46 786 45 788C44 790 42 792 42 794C41 796 41 798 41 800C41 802 42 805 42 807C43 812 46 815 50 817C52 818 55 819 57 819C59 819 61 819 64 818C66 817 68 816 71 815C74 814 76 811 79 809C82 807 87 805 95 804C103 803 190 803 203 804C216 804 226 804 233 801C240 798 244 793 246 788C246 778 244 772 240 770C238 769 236 769 234 769"/>
</svg>