<svg xmlns="http://www.w3.org/2000/svg" viewBox="0 0 288 1204">
  <path d="M235 743C232 743 228 744 224 747C217 751 202 754 178 754L85 754C76 754 69 753 63 754C57 755 54 756 52 757C50 759 47 761 46 763C45 765 43 767 43 769C42 771 42 773 42 775C42 777 43 778 43 781C44 786 47 790 51 792C53 793 56 794 58 794C60 794 62 794 65 793C67 792 69 791 72 790C75 789 77 787 80 784C83 782 88 779 96 778C104 777 191 778 204 779C217 779 227 778 234 775C241 772 245 768 247 763C247 753 245 746 241 744C239 743 237 743 235 743M235 794C232 794 228 795 224 798C217 802 202 806 178 806C170 806 101 805 85 805C76 805 69 805 63 806C57 807 54 807 52 808C50 810 47 812 46 814C45 816 43 818 43 820C42 822 42 824 42 826C42 828 43 830 43 833C44 838 47 841 51 843C53 844 56 845 58 845C60 845 62 845 65 844C67 843 69 842 72 841C75 840 77 838 80 835C83 833 88 831 96 830C104 829 191 829 204 830C217 830 227 829 234 826C241 823 245 819 247 814C247 804 245 798 241 796C239 795 237 794 235 794"/>
</svg>