<svg xmlns="http://www.w3.org/2000/svg" viewBox="0 0 163 1204">
  <path d="M113 692L106 692C101 693 95 695 89 698C81 702 73 708 66 715C63 718 60 721 58 724C56 727 55 731 53 734C51 737 49 741 48 745L45 757C42 766 40 776 40 785C40 794 40 803 42 812C44 821 47 830 50 839C53 848 57 856 62 864C66 870 70 875 74 879C78 883 83 886 88 889C93 892 99 894 105 895C111 896 119 896 127 896C121 894 115 893 111 891C107 889 102 887 99 885L90 879C87 877 86 875 84 872C82 869 80 867 78 864C76 861 74 857 72 854C69 849 67 844 65 839C63 834 61 828 59 823C57 818 57 812 56 806C55 800 53 793 53 786C53 774 55 765 58 757C61 749 65 742 69 737C70 735 72 733 74 732C76 731 77 729 79 728C81 727 82 726 84 725C86 724 88 723 90 723C92 723 94 724 96 724L103 724C105 724 107 724 110 723C113 722 117 720 119 718C121 716 122 714 124 711C126 708 127 704 126 700C126 698 124 696 123 695C122 694 121 692 119 692"/>
</svg>