<svg xmlns="http://www.w3.org/2000/svg" viewBox="0 0 163 1204">
  <path d="M36 692C42 694 47 695 51 697C55 699 60 701 63 703L72 709C75 711 77 713 79 716C81 719 83 721 85 724C87 727 89 731 91 734C94 739 96 744 98 749C100 754 101 760 103 765C105 770 106 776 107 782C108 788 110 795 110 802C110 813 108 823 105 831C102 839 98 846 94 851C93 853 91 854 89 856C87 858 86 859 84 860C82 861 81 862 79 863C77 864 75 865 73 865C71 865 68 864 66 864L60 864C58 864 56 864 53 865C50 866 46 868 44 870L41 873C40 874 40 875 39 877C38 879 37 880 37 882L37 888C37 890 39 892 40 893C41 894 42 896 44 896L50 896L57 896C62 895 68 893 74 890C78 888 82 885 86 882C90 879 93 876 96 873C99 870 103 867 105 864C107 861 108 857 110 854C112 851 113 847 114 843C115 839 117 835 118 831C121 822 123 812 123 803C123 794 123 785 121 776C119 767 117 758 113 749C109 740 106 732 101 724C97 718 92 713 88 709C84 705 80 702 75 699C70 696 64 694 58 693C52 692 44 692 36 692"/>
</svg>