<svg xmlns="http://www.w3.org/2000/svg" viewBox="0 0 307 1204">
  <path d="M133 692C125 692 117 694 109 696C70 708 41 744 37 784C33 823 53 863 87 883C102 892 121 898 139 896C139 896 143 896 145 895C147 894 149 892 150 891C154 886 157 878 154 872C149 860 135 854 123 854C114 856 103 858 95 852C75 837 62 806 66 781C70 758 89 735 111 726C120 722 130 721 140 721C157 721 173 727 187 735C200 743 211 757 217 772C217 786 215 812 215 812C215 812 215 829 213 833C211 837 209 841 205 843C198 848 193 852 192 857C191 861 191 866 191 871C191 875 191 879 192 882C193 885 195 886 197 889C199 891 201 892 203 893C205 894 207 896 209 896C216 897 223 896 230 895C237 894 241 891 246 887C251 883 253 872 252 853L252 813L252 771C252 771 253 758 255 754C257 750 260 747 263 745C267 743 269 740 271 738C273 736 274 734 275 731C276 728 277 726 277 723C277 720 278 718 278 715C278 709 275 703 271 699C267 695 263 693 259 692C256 691 252 692 249 692C246 692 243 692 239 693C233 694 227 696 222 701C218 704 216 712 216 723C205 713 192 704 180 699C164 692 149 692 133 692"/>
</svg>