<svg xmlns="http://www.w3.org/2000/svg" viewBox="0 0 274 1204">
  <path d="M145 692L134 692C124 693 114 695 105 698C66 712 38 749 37 789C37 797 37 805 39 813C43 828 47 842 58 856C69 870 87 885 106 891C125 897 149 898 169 893C175 891 187 888 194 883C207 875 216 864 216 864C216 864 201 870 185 875C175 878 163 881 155 880C129 878 100 870 83 851C67 833 60 806 65 783C70 760 87 735 109 726C133 716 166 719 186 735C200 746 209 764 205 779C204 781 202 782 200 783C197 784 187 784 187 784C187 784 169 785 160 785C156 785 153 784 149 784L137 784C125 783 118 785 115 788C112 791 111 794 110 798C110 800 109 803 109 805C109 807 110 809 110 811C110 813 111 816 114 819C117 822 120 823 124 823L129 823C131 823 132 823 134 822C136 821 138 820 139 819C140 818 142 816 143 814C144 812 147 810 149 809C151 808 160 807 160 807L187 807L213 807C221 807 226 807 230 806C232 805 234 804 235 803C236 802 237 801 238 799C239 797 240 795 240 793C241 789 242 784 242 780C242 775 242 770 241 766C238 748 227 733 214 721C196 703 171 693 145 692"/>
</svg>