<svg xmlns="http://www.w3.org/2000/svg" viewBox="0 0 277 1204">
  <path d="M136 692C126 692 116 694 106 697C93 702 81 709 71 718C61 727 53 737 47 749C41 761 38 773 37 787C36 801 38 815 43 828C48 841 54 853 63 863C72 873 83 880 95 886C107 892 120 895 133 896C146 897 160 896 173 891C183 887 192 883 200 876C208 869 216 861 222 852C228 843 234 834 237 824C240 814 242 803 242 792C242 793 240 795 240 796C240 794 241 793 241 791L241 782C240 775 239 768 236 760C231 747 224 735 215 725C206 715 196 708 184 702C172 696 159 693 146 692M144 724C153 724 161 725 168 728C175 731 182 735 187 740C192 745 196 750 199 756C200 760 201 763 201 765C201 767 200 769 200 771C200 773 199 774 199 776L199 782C199 786 201 791 203 795C205 799 207 803 210 806C213 809 215 810 218 811C221 812 225 812 230 810C233 809 234 808 236 806C237 805 238 803 239 801C238 805 237 809 235 813C233 819 230 825 226 832C222 839 216 845 209 851C205 854 202 857 199 859C196 861 192 863 188 865C184 867 180 868 175 869C170 870 164 872 158 874C149 877 141 876 132 874C123 872 116 868 108 863C100 858 93 851 87 843C81 835 76 826 73 817C70 808 69 798 70 789C71 780 72 771 76 763C80 755 86 748 93 742C100 736 108 731 117 728C126 725 135 724 144 724"/>
</svg>