<svg xmlns="http://www.w3.org/2000/svg" viewBox="0 0 196 1204">
  <path d="M49 692L48 692C46 692 43 693 41 694C36 697 35 705 35 711C35 718 40 726 43 731C52 746 55 751 58 755C67 768 75 779 82 789C78 795 72 802 69 807C48 836 38 856 36 865C34 874 34 881 37 886C40 891 44 895 50 896C56 898 62 896 69 890C76 885 82 877 86 868C90 859 89 848 90 836C90 831 94 825 99 816C104 825 107 831 107 836C108 848 108 859 112 868C116 877 121 885 128 890C135 896 142 898 148 896C154 895 157 891 160 886C163 881 164 874 162 865C160 856 149 836 128 807C125 802 120 795 116 789C123 779 130 768 139 755C142 751 146 746 155 731C158 726 163 718 163 711C163 705 162 697 157 694C152 691 144 692 139 695C132 700 130 704 127 718L123 730L106 755C106 755 103 759 99 765C95 759 92 755 92 755L75 730L71 718C68 704 66 700 59 695C56 693 53 692 49 692"/>
</svg>