<svg xmlns="http://www.w3.org/2000/svg" viewBox="0 0 276 1204">
  <path d="M140 692C129 691 118 692 108 695C102 697 91 700 84 705C71 713 61 724 61 724C61 724 76 718 92 713C102 710 114 707 122 708C148 710 177 718 194 737C210 755 218 782 213 805C208 828 190 853 168 862C144 872 112 869 92 853C78 842 68 824 72 809C73 807 75 806 77 805C80 804 91 804 91 804C91 804 108 803 117 803C121 803 124 804 128 804L140 804C152 805 159 803 162 800C165 797 167 794 168 790L168 783L168 777C168 775 166 772 163 769C160 766 158 765 154 765L148 765C146 765 145 765 143 766C141 767 139 768 138 769C137 770 135 772 134 774C133 776 130 778 128 779C126 780 117 781 117 781L90 781L65 781C57 781 51 781 47 782C45 783 43 784 42 785C41 786 40 787 39 789C38 791 37 793 37 795C36 799 36 804 36 808C36 813 36 818 37 822C40 840 50 855 63 867C81 885 107 895 133 896L144 896C154 895 164 893 173 890C212 876 240 839 241 799C241 791 241 783 239 775C235 760 230 746 219 732C208 718 191 703 172 697C162 694 151 693 140 692"/>
</svg>