<svg xmlns="http://www.w3.org/2000/svg" viewBox="0 0 257 1204">
  <path d="M78 487L74 487C59 493 52 522 53 573C54 624 55 675 55 727C55 779 56 811 50 822C44 833 37 841 35 851C33 861 34 870 37 879C40 888 44 893 50 895C56 897 61 897 66 894C71 891 77 886 80 878C84 869 86 846 85 810C85 788 84 766 84 746C90 739 96 733 103 729C110 725 118 721 124 719C131 717 137 717 144 718C151 719 157 721 162 724C167 727 172 731 176 736C180 741 182 745 184 751C187 758 189 764 190 774C191 794 188 818 185 823C179 834 170 841 168 851C166 861 167 870 170 879C173 888 177 893 183 895C189 897 195 897 200 894C205 891 210 886 213 878C217 869 219 846 218 810C218 798 218 785 217 772C216 766 216 762 214 755C210 743 204 732 197 723C190 714 182 706 173 701C164 696 154 693 143 692C132 691 122 693 111 697C100 701 92 707 84 715L84 709L84 624C84 600 86 580 87 565C88 550 90 539 93 532C99 519 100 508 97 499C94 491 87 487 78 487"/>
</svg>