<svg xmlns="http://www.w3.org/2000/svg" viewBox="0 0 251 1204">
  <path d="M79 487L75 487C60 493 53 522 54 573C55 624 56 675 56 727L56 756L56 757L56 758C55 792 52 812 47 820C41 831 38 841 36 851C34 861 35 870 38 879C41 888 45 893 51 895C57 897 62 897 67 894C72 891 77 886 80 878C84 869 86 846 85 810L85 783C87 783 89 781 91 780C96 777 101 773 107 773C122 774 140 788 153 800C163 810 178 828 182 841C183 845 185 850 184 854C184 856 183 857 181 858C176 861 174 866 173 869C171 876 170 888 185 893C195 897 204 898 212 889C215 886 217 883 218 879L219 878C225 841 190 801 183 794C165 773 154 766 125 753C125 753 159 732 173 719C179 714 183 708 188 702C191 698 195 693 197 688C200 682 205 669 205 669C207 663 207 653 205 643L205 642C204 638 202 635 199 632C196 629 193 626 189 625C187 624 186 624 185 624L181 625L177 626C175 627 174 627 172 628C170 629 169 629 167 630C165 631 163 632 162 633C161 634 160 637 159 639L159 644L159 647C159 648 159 650 160 652C160 654 161 656 162 658C163 660 166 661 168 662L170 664C172 671 164 689 162 692C149 716 102 735 101 735C95 734 90 734 85 734C85 726 84 717 84 709C84 678 85 650 85 624C85 600 86 580 87 565C88 550 91 539 94 532C100 519 100 508 97 499C94 491 88 487 79 487"/>
</svg>