<svg xmlns="http://www.w3.org/2000/svg" viewBox="0 0 390 1204">
  <path d="M76 666C70 666 65 671 62 676C58 682 57 692 57 698C56 716 56 722 56 727C56 779 57 811 51 822C45 833 38 841 36 851C34 861 35 870 38 879C41 888 45 893 51 895C57 897 62 897 67 894C72 891 77 886 80 878C84 869 86 846 85 810L85 746C91 739 96 733 103 729C110 725 118 721 124 719C131 717 137 716 144 717C151 718 157 721 162 724C167 727 171 730 175 735C179 740 182 745 184 751C187 758 188 764 189 774C190 794 187 818 184 823C178 834 170 841 168 851C166 861 167 870 170 879C173 888 177 893 183 895C189 897 194 897 199 894C204 891 209 886 212 878C216 869 218 846 217 810C217 798 217 785 216 772C215 766 215 762 213 755C212 753 212 751 212 751C212 751 224 737 237 729C244 725 251 721 257 719C264 717 271 716 278 717C285 718 291 721 296 724C301 727 305 730 309 735C313 740 316 745 318 751C321 758 322 764 323 774C324 794 321 818 318 823C312 834 304 841 302 851C300 861 300 870 303 879C306 888 310 893 316 895C322 897 328 897 333 894C338 891 343 886 346 878C350 869 352 846 351 810C351 798 351 785 350 772C349 766 349 762 347 755C343 743 338 732 331 723C324 714 315 706 306 701C297 696 288 693 277 692C274 692 272 691 269 691C261 691 253 694 245 697C229 705 215 717 201 728C200 726 198 725 197 723C190 714 181 706 172 701C163 696 154 693 143 692C132 691 121 693 111 697C101 701 92 707 84 715C85 710 87 706 88 703C94 690 94 685 91 677C89 671 82 666 76 666"/>
</svg>