<svg xmlns="http://www.w3.org/2000/svg" viewBox="0 0 256 1204">
  <path d="M76 666C70 666 65 671 62 676C58 682 57 692 57 698C56 716 56 722 56 727C56 779 57 811 51 822C45 833 38 841 36 851C34 861 35 870 38 879C41 888 45 893 51 895C57 897 62 897 67 894C72 891 77 886 80 878C84 869 86 846 85 810L85 746C91 739 96 733 103 729C110 725 118 721 124 719C131 717 137 716 144 717C151 718 157 721 162 724C167 727 171 730 175 735C179 740 182 745 184 751C187 758 188 764 189 774C190 794 187 818 184 823C178 834 170 841 168 851C166 861 167 870 170 879C173 888 177 893 183 895C189 897 194 897 199 894C204 891 209 886 212 878C216 869 218 846 217 810C217 798 217 785 216 772C215 766 215 762 213 755C209 743 204 732 197 723C190 714 181 706 172 701C163 696 154 693 143 692C132 691 121 693 111 697C101 701 92 707 84 715C85 710 87 706 88 703C94 690 94 685 91 677C89 671 82 666 76 666"/>
</svg>