<svg xmlns="http://www.w3.org/2000/svg" viewBox="0 0 272 1204">
  <path d="M135 692C123 692 111 693 100 697C87 702 74 708 65 718C57 727 52 739 49 750C45 764 44 779 44 793C44 815 53 855 52 887L52 898C51 921 48 949 43 958C37 969 34 979 32 989C30 999 31 1008 34 1017C37 1026 41 1031 47 1033C53 1035 58 1036 63 1033C68 1030 73 1024 76 1016C80 1007 82 985 81 948L81 898L81 874C81 823 54 750 111 728C120 725 129 723 138 724C147 725 156 727 164 731C172 735 180 741 186 748C192 755 197 763 200 772C203 781 204 790 204 799C204 808 203 816 200 823C197 830 193 837 188 842C183 847 178 851 172 854C168 855 165 856 163 856L157 856C155 856 153 855 151 855L146 855C142 855 137 856 133 858C129 860 125 862 122 865C119 868 118 870 117 873C116 876 116 881 118 886C119 889 120 890 122 892C124 894 126 895 129 896C132 897 134 897 137 897L145 897C152 896 160 895 168 892C181 887 193 880 203 871C213 862 220 851 226 839C232 827 235 814 236 801C237 788 236 774 231 761C226 748 219 736 210 726C201 716 191 708 179 702C167 696 149 692 135 692"/>
</svg>