<svg xmlns="http://www.w3.org/2000/svg" viewBox="0 0 241 1204">
  <path d="M107 692C97 692 87 693 77 696C57 702 41 720 38 741C37 764 51 784 69 797C98 816 136 812 164 833C172 838 180 847 178 857C175 869 161 873 150 876C131 880 110 876 95 863C87 856 86 845 79 837C71 827 56 821 44 828C35 833 36 847 41 855C54 878 78 895 104 901C132 908 162 902 186 887C201 876 209 857 203 839C197 817 174 803 153 797C131 790 107 790 87 779C74 771 61 758 63 742C66 728 81 720 93 716C111 711 131 716 146 727C155 735 155 747 162 756C170 767 185 774 198 767C207 762 206 749 201 741C188 717 163 700 137 694C127 692 117 692 107 692"/>
</svg>