<svg xmlns="http://www.w3.org/2000/svg" viewBox="0 0 234 1204">
  <path d="M117 640C105 640 94 652 89 662C80 680 87 714 87 722L87 749L87 758C77 758 65 756 55 757C51 757 44 760 41 762C33 767 30 776 33 783C36 789 45 791 51 789C56 788 62 782 67 781C70 780 75 781 75 781L87 781C87 781 88 795 89 808C91 830 95 850 107 867C121 886 147 902 171 895C188 889 197 870 200 853C201 848 207 830 201 843C193 857 180 870 163 874C146 876 135 865 126 852C117 839 115 824 115 808C115 799 116 790 116 781C133 781 151 786 168 783C170 783 172 782 174 781C176 780 177 779 178 778C184 772 187 765 183 757C178 747 171 746 162 748C155 749 152 756 146 758C144 759 142 759 139 759L118 759L118 750C118 747 119 737 120 725C122 702 127 711 137 701C149 691 148 674 143 661C139 651 128 640 117 640"/>
</svg>