<svg xmlns="http://www.w3.org/2000/svg" viewBox="0 0 700 1204">
  <path d="M434.24 175.50C297.49 166.62 162.37 237.54 115.44 386.68C111.16 400.29 104.76 427.76 104.76 427.76C104.76 427.76 90.24 431.52 77.23 429.23C48.22 424.13-1.53 455.26 30.13 487.75C49.46 509.24 99.79 483.54 99.79 483.54C99.79 483.54 100.15 498.24 100.48 505.58C100.81 512.82 101.78 527.28 101.78 527.28C101.78 527.28 87.47 531.51 79.71 529.97C51.65 531.87 1.79 550.17 26.74 585.76C52.33 610.35 85.63 590.62 114.02 584.64C150.38 694.77 261.97 771.16 377.24 774.65C446 777.41 516.93 759.41 571.44 716.19C601.05 694.66 627.67 669.11 650.84 640.79C590.05 682.68 526.23 726.98 450.55 734.37C284.27 753.97 187.45 654.71 156.90 576.73C184.52 570.94 383.10 579.88 471.55 572.70C496.53 571.75 529.47 549.04 517.53 520.98C502.32 491.97 462.29 493.28 434.88 501.06C407.79 509.05 383.64 525.68 354.49 526.07C284.88 531.84 214.92 528.74 145.22 526.19C144.88 520.60 143.12 511.10 142.84 503.51C142.54 495.38 143.58 479.12 143.58 479.12C182.56 473 308.47 482.55 467.17 472.17C492.23 471.56 526.22 452.93 519.01 423.60C507.65 392.71 466.94 391.79 439.92 398.64C411.74 404.91 387.85 423.74 358.24 424.49C288.72 430.87 218.75 429.76 149.11 427.16C174.79 317.04 277.21 221.65 392.85 222.55C434.24 223.17 478.15 229.86 512.11 255.03C531.72 277.37 532.68 313.84 562.34 327.93C586.48 345.87 628.84 343.87 642.58 314.23C647.64 282.82 618.26 259.36 598.57 239.25C553.75 200.12 493 179.88 434.24 175.50"/>
</svg>