<svg xmlns="http://www.w3.org/2000/svg" viewBox="0 0 490 1204">
  <path d="M407.34 175.01C407.02 175 406.69 175 406.36 175.02C385.79 174.63 382.06 198.57 376.13 213.47C366.80 240.80 356.91 267.96 347.78 295.34C342.33 310.28 339.38 338.59 318.75 336.47C300.74 328.58 300.68 304.97 294.20 288.89C281.63 255.45 271.17 221.22 258.04 188.02C249.59 167.02 219.95 173.98 222.62 197.01C218.44 233.54 224.81 270.42 220.79 307.03C221.54 326.30 203.92 342.32 210.01 361.91C213.82 384.99 242.37 372.26 239.78 353.41C242.79 307.78 237.37 261.79 242.83 216.26C245.09 194.80 254.02 224.03 256.63 232.42C272.21 276.46 286.77 320.99 305.88 363.66C314.44 385.92 341.69 371.74 343.17 352.56C362.66 306.09 377.71 257.87 395.42 210.77C402.61 201.58 401.28 227.25 402.62 234.10C404.91 273.84 401.45 313.71 403.95 353.41C401.36 372.26 429.91 384.99 433.72 361.91C439.81 342.32 422.19 326.30 422.94 307.03C418.92 270.42 425.29 233.54 421.11 197.01C419.51 189.34 417.28 175.37 407.34 175.01M188.79 175.01C177.26 181.67 173.01 199.84 155.72 196.31C110.24 201.25 63.54 197.57 20 183.12C21.03 194.21 43.23 197.31 53.77 201.69C74.29 207.47 95.55 209.87 116.71 211.74C113.11 237.69 116.19 264.05 115.60 290.18C114.88 309.87 118.71 331.20 108.95 349.20C96.66 365.44 122.45 387.77 127.15 363.15C129.66 330.51 126.95 297.67 127.89 264.96C128.37 247.47 127.33 229.36 133.83 212.80C154.60 212.75 178.06 213.61 195.48 200.49C205.94 193.05 202.83 174.98 188.79 175.01"/>
</svg>