<svg xmlns="http://www.w3.org/2000/svg" viewBox="0 0 790 1204">
  <path d="M378.72 175.19C334.40 176.87 290.85 190.04 254.76 214.68C134.72 293.23 119.36 472.12 160.38 585.21C177.79 635.77 205.50 682.86 241.76 722.34C209.32 720.36 170.10 738.59 143.65 713.29C111.69 692.39 62.63 679.81 29.85 703.29C-0.76 737.42 46.53 777.64 82.26 773.38C151.70 772.85 221.19 773.29 290.66 773.15C342.75 758.80 281.85 714.67 264.76 694.62C206.77 613.78 172.19 512.63 182.18 412.83C191.83 334.56 249.76 264.83 326.52 243.56C414.47 216.47 521.94 250.67 566.57 333.60C615.42 419.33 595.64 524.34 559.28 610.72C539.37 653.80 515.75 698 477.52 727.30C448.59 748.46 469.72 783.57 502.25 773.09C573.02 772.28 644.03 775.12 714.65 771.51C752.86 767.02 776.34 700.41 727.11 694.79C690.13 686.31 648.08 695.45 621.04 722.79C595.02 729.57 562.01 725.90 538.98 719.67C557.46 692.16 580.46 666.81 594.06 635.68C642.05 542.28 650.67 428.66 611.07 330.78C577.42 223.34 476.21 171.48 378.72 175.19"/>
</svg>