<svg xmlns="http://www.w3.org/2000/svg" viewBox="0 0 528 1204">
  <path d="M462.51 175C435.14 176.35 421.52 210.98 429.42 234.52C442.14 266.60 423.03 298.89 411.44 328.17C364.23 437.17 313.51 544.62 264.65 652.87C240.64 595.18 213.13 536.42 190.13 489.24C175.13 458.47 142.71 458.09 127.81 457.74C105.07 458.84 83.79 448.50 61.45 447.70C58.26 447.58 55.04 447.66 51.80 448C28.18 445.83 6.19 479.65 30.78 493.69C59.53 508.29 93.18 505.84 124.51 505.42C133.92 504.73 149.09 504.44 154.25 513.30C171.48 542.90 188.25 582.15 205.44 621.83C217.03 651.11 236.14 683.40 223.42 715.48C215.52 739.02 229.14 773.65 256.51 775C256.67 774.99 256.83 774.98 256.99 774.97C269.69 775.58 284.49 766.91 288.01 753.55C299.41 730.09 294.78 702.78 304.85 678.79C330.10 604.07 364.89 533.06 396.13 460.76C426.26 391.01 461.31 323.36 488.59 252.41C496.44 232.03 503.41 205.81 488.21 187.17C481.19 180.75 472.18 175.52 462.51 175"/>
</svg>