<svg xmlns="http://www.w3.org/2000/svg" viewBox="0 0 552 1204">
  <path d="M170.04 475C105.95 476.86 47.59 522.73 28.19 582.63C8.66 638.38 25.32 702.88 64.71 746.17C92.97 771.27 134.46 778.76 171.23 772.95C210.42 765.99 231.67 728.97 251.72 698.94C258.49 688.34 266.37 670.47 273.13 691.35C291.15 717.79 308.36 748.79 339.95 761.24C354.17 781.40 383.24 774.98 403.56 769.53C480.47 750.52 531.98 667.57 517.59 591.12C510.43 557.13 495.93 522.38 469.27 498.80C438 476.56 395.47 469.33 358.38 479.63C317.70 493.95 300.04 536.49 276.16 568.43C269.67 578.62 263.61 590.47 257.70 573.43C240.74 548.98 226.54 521.76 203.29 502.38C203.33 483.84 187.16 474.88 170.04 475M395.46 526.05C420.47 525.45 443.44 540.60 454.19 562.70C480.47 606.47 474.59 670.12 431.84 701.84C412.30 719.31 385.55 702.24 364.11 714.05C338.18 707.61 326.45 681.01 312.55 661.04C305.76 647.40 287.81 633.66 303.72 619.99C321.89 591.83 336.77 560.87 360.80 536.97C370.37 529.09 383.21 525.98 395.46 526.05M137.16 539.29C158.91 538.68 180.41 540.37 191.07 562.90C207.21 584.87 220.50 608.70 234.90 631.79C216.43 659.99 201.92 691.85 176.54 714.82C147.31 733.96 102.96 721.96 87.59 690.64C59.01 646.72 63.99 580.72 107.88 548.14C116.01 541.30 126.78 539.38 137.16 539.29"/>
</svg>