<svg xmlns="http://www.w3.org/2000/svg" viewBox="0 0 358 1204">
  <path d="M108.33 525.07C71.91 526.41 43.50 546.52 34.86 558.76C23.73 574.53 10.68 603.07 29.56 616.42C45.18 626.90 71.60 624.41 83.68 606.01C89.87 598.73 91.38 588.91 96.28 580.96C104.21 572.75 119.14 568.53 128.92 575.52C148.58 593.01 166.80 612.71 191.99 622.13C226.19 635.49 266.82 628.77 295.14 605.54C308.52 595.20 322.49 582.68 326.45 566.47C328.77 556.98 326.48 544.35 320.74 537.72C304.70 521.30 276.22 525.63 261.96 542.26C253.13 550.58 250.37 562.65 244.81 572.88C220.03 595.62 205.58 570.61 187.40 556.07C175.70 545.18 162.35 535.92 146.99 530.97C133.50 526.26 120.47 524.62 108.33 525.07M108.33 617.07C71.91 618.41 43.50 638.52 34.86 650.76C23.73 666.53 10.68 695.07 29.56 708.42C45.18 718.90 71.60 716.41 83.68 698.01C89.87 690.73 91.38 680.91 96.28 672.96C104.21 664.75 119.14 660.53 128.92 667.52C148.58 685.01 166.80 704.71 191.99 714.13C226.19 727.49 266.82 720.77 295.14 697.54C308.52 687.20 322.49 674.68 326.45 658.47C328.77 648.98 326.48 636.35 320.74 629.72C304.70 613.30 276.22 617.63 261.96 634.26C253.13 642.58 250.37 654.65 244.81 664.88C220.03 687.62 205.58 662.61 187.40 648.07C175.70 637.18 162.35 627.92 146.99 622.97C133.50 618.26 120.47 616.62 108.33 617.07"/>
</svg>