<svg xmlns="http://www.w3.org/2000/svg" viewBox="0 0 384 1204">
  <path d="M239.87 315C212.39 316.35 198.70 351.14 206.64 374.78C207.28 406.05 201.42 438.68 191.88 471.49C180.81 471.42 169.75 471.28 158.74 471.37C122.52 471.81 85.93 468.41 50.02 474.47C37.89 476.92 28.24 487.19 23.56 498.27C17.44 514 18.31 535.65 33.29 546.14C44.16 553.37 58.46 556.38 70.54 550.18C83.18 546.23 92.24 536.35 102.99 529.38C125.88 519.41 150.81 519.40 175.48 519.92C169.83 534.76 163.71 549.53 157.39 564.12C121.61 564.46 85.48 561.22 50.02 567.21C37.89 569.65 28.24 579.93 23.56 591C17.44 606.73 18.31 628.38 33.29 638.87C44.16 646.10 58.46 649.11 70.54 642.91C83.18 638.96 92.24 629.08 102.99 622.11C113.32 617.61 124.08 615.14 135.03 613.83C126.92 631.48 118.97 648.65 111.71 665.11C100.55 694.54 86.68 725.46 90.59 757.60C95.39 785.64 134.87 776.50 140.94 753.46C152.39 729.90 147.73 702.47 157.86 678.37C165.87 654.65 173.46 632.99 180.78 612.76C187.12 612.90 193.44 613.03 199.69 612.98C233.56 612.64 267.72 618.27 301.37 612.49C319.04 609.29 339.06 600.85 344.88 582.28C345.41 568.40 344.83 549.81 330 543.40C327.33 542.18 324.39 541.57 321.45 541.58C306.71 541.50 296.95 554.86 282.85 557.17C255.28 563.61 227.01 564.34 198.76 564.25C204.50 549.16 210.11 534.69 215.70 520.47C244.30 521.40 273.02 524.63 301.37 519.75C319.04 516.55 339.06 508.12 344.88 489.55C345.41 475.67 344.83 457.07 330 450.67C327.33 449.45 324.39 448.84 321.45 448.85C306.71 448.77 296.95 462.13 282.85 464.44C267.21 468.09 251.35 469.91 235.40 470.78C245.30 445.92 255.38 420.56 266.08 392.75C273.96 372.28 280.96 345.94 265.69 327.22C258.64 320.78 249.59 315.52 239.87 315"/>
</svg>