<svg xmlns="http://www.w3.org/2000/svg" viewBox="0 0 514 1204">
  <path d="M483.39 275C470.07 281.18 455.06 287.50 438.35 293.96C421.64 300.41 403.91 307.26 385.17 314.52C366.42 321.78 346.92 329.51 326.68 337.71C306.44 345.91 286.13 354.99 265.75 364.94C248.37 373.54 230.77 382.95 212.97 393.17C195.18 403.38 177.86 413.33 161.01 423.01C144.17 432.69 128 441.63 112.51 449.83C97.03 458.03 82.90 464.15 70.13 468.18C58.99 464.42 49.68 464.21 42.21 467.57C34.74 470.93 29.17 476.11 25.50 483.10C21.83 490.09 20 497.96 20 506.69C20 515.43 21.83 523.30 25.50 530.29C29.17 537.28 34.74 542.45 42.21 545.81C49.68 549.17 58.99 548.97 70.13 545.21C82.90 549.24 97.03 555.36 112.51 563.56C128 571.76 144.17 580.70 161.01 590.38C177.86 600.06 195.18 610.07 212.97 620.42C230.77 630.77 248.37 640.12 265.75 648.45C286.13 658.40 306.44 667.47 326.68 675.67C346.92 683.87 366.42 691.60 385.17 698.86C403.91 706.12 421.64 712.98 438.35 719.43C455.06 725.88 470.07 732.20 483.39 738.39C429.05 695.37 374.16 654.30 318.73 615.18C263.31 576.06 205.30 540.10 144.71 507.30C205.30 473.96 263.31 437.66 318.73 398.41C374.16 359.15 429.05 318.02 483.39 275M87.73 725.22C82.42 725.01 77.14 724.97 71.89 725.23C64.90 725.59 57.98 726.48 51.16 728.21C42.14 730.51 31.44 734.94 26.67 741.59C21.89 748.25 19.68 755.53 20.04 763.46C20.39 771.38 22.78 779.15 27.20 786.77C31.62 794.39 37.18 800.33 43.89 804.60C50.60 808.87 58.05 810.61 66.22 809.81C74.39 809.02 81.51 798.94 90.11 795.38C104.69 789.34 118.54 784.61 136.11 784.04C200.88 784.14 255.99 778.49 315.90 775.11C367.51 772.20 394.96 769.91 434.78 763.86C452.52 761.16 468.72 759.19 483.39 757.95C414.55 747.51 346.54 735.89 278.43 732.54C207.58 729.06 183.20 729.01 135.56 728.28C119.74 728.04 103.64 725.85 87.73 725.22"/>
</svg>