<svg xmlns="http://www.w3.org/2000/svg" viewBox="0 0 544 1204">
  <path d="M20 275C74.34 318.02 129.22 359.15 184.65 398.41C240.08 437.66 298.09 473.96 358.67 507.30C298.09 540.10 240.08 576.06 184.65 615.18C129.22 654.30 74.34 695.37 20 738.39C33.31 732.20 48.33 725.88 65.04 719.43C81.75 712.98 99.47 706.12 118.22 698.86C136.97 691.60 156.46 683.87 176.70 675.67C196.95 667.47 217.25 658.40 237.63 648.45C255.02 640.12 272.61 630.77 290.41 620.42C308.21 610.07 325.53 600.06 342.37 590.38C359.22 580.70 375.38 571.76 390.87 563.56C406.36 555.36 420.49 549.24 433.26 545.21C444.40 548.97 453.70 549.17 461.17 545.81C468.65 542.45 474.22 537.28 477.88 530.29C481.55 523.30 483.39 515.43 483.39 506.69C483.39 497.96 481.55 490.09 477.88 483.10C474.22 476.11 468.65 470.93 461.17 467.57C453.70 464.21 444.40 464.42 433.26 468.18C420.49 464.15 406.36 458.03 390.87 449.83C375.38 441.63 359.22 432.69 342.37 423.01C325.53 413.33 308.21 403.38 290.41 393.17C272.61 382.95 255.02 373.54 237.63 364.94C217.25 354.99 196.95 345.91 176.70 337.71C156.46 329.51 136.97 321.78 118.22 314.52C99.47 307.26 81.75 300.41 65.04 293.96C48.33 287.50 33.31 281.18 20 275M415.66 725.22C399.75 725.85 383.64 728.04 367.82 728.28C320.18 729.01 295.81 729.06 224.96 732.54C156.85 735.89 88.83 747.51 20 757.95C34.66 759.19 50.87 761.16 68.61 763.86C108.43 769.91 135.87 772.20 187.49 775.11C247.40 778.49 302.51 784.14 367.28 784.04C384.84 784.61 398.69 789.34 413.28 795.38C421.88 798.94 428.99 809.02 437.17 809.81C445.34 810.61 452.78 808.87 459.49 804.60C466.21 800.33 471.77 794.39 476.19 786.77C480.61 779.15 482.99 771.38 483.35 763.46C483.71 755.53 481.50 748.25 476.72 741.59C471.94 734.94 461.25 730.51 452.22 728.21C445.41 726.48 438.48 725.59 431.49 725.23C426.25 724.97 420.96 725.01 415.66 725.22"/>
</svg>