<svg xmlns="http://www.w3.org/2000/svg" viewBox="0 0 358 1204">
  <path d="M169 487C154 487 139 490 124 495C104 502 86 513 71 527C56 541 44 556 36 574C28 592 23 611 21 631C21 635 20 638 20 642C20 658 23 675 29 691C34 706 42 719 52 732C62 745 73 756 86 765C99 774 114 782 129 787C144 792 159 794 174 794L176 794C174 794 172 792 170 792C173 793 175 793 178 793C182 793 187 794 191 793C201 792 213 790 225 786C245 779 262 768 277 754C292 740 304 725 312 707C320 689 326 671 327 651C327 648 328 643 328 640C328 623 325 607 319 591C312 571 302 553 288 538C274 523 259 511 241 502C223 493 204 488 184 487M171 536L181 536C195 537 208 540 220 546C232 552 243 560 252 570C261 580 268 592 273 606C277 619 280 632 280 644C280 661 276 675 273 683C269 694 263 704 256 712C249 720 240 726 231 730C225 732 222 732 218 732L208 732C205 732 203 731 201 731C199 731 195 730 192 730C186 731 179 732 173 735C167 738 161 742 156 746C152 750 150 754 149 758C148 762 147 769 150 777C151 781 154 784 157 786C159 788 161 789 164 790C158 788 152 787 146 785C137 782 127 776 117 770C107 764 98 755 89 745C84 740 80 735 77 730C74 725 71 719 68 713C65 707 63 701 61 694C59 687 57 679 54 669C52 662 51 655 51 648C51 642 51 636 53 630C56 617 63 604 71 593C79 582 89 571 101 562C113 553 126 546 140 541C150 537 161 536 171 536"/>
</svg>