<svg xmlns="http://www.w3.org/2000/svg" viewBox="0 0 675 1204">
  <path d="M326 180L316 180C307 180 297 180 288 181C263 183 239 190 214 199C189 208 166 221 144 238C122 255 102 274 86 295C70 316 56 340 46 364C36 388 28 414 24 440C21 457 20 473 20 490C20 500 21 509 22 519C24 546 30 572 39 598C48 624 60 648 76 671C89 690 104 707 123 723C142 739 162 753 185 764C208 775 231 783 256 788C273 792 290 794 307 794C315 794 322 794 330 793C302 786 275 775 248 762C236 756 225 749 213 742C201 735 188 726 176 717C164 708 152 697 140 685C128 673 118 661 109 647C88 617 74 584 67 550C64 534 62 518 61 502C62 502 62 503 63 503C77 509 92 515 107 520C122 525 137 530 152 533C167 536 180 539 190 541C219 546 248 549 277 553L328 558L360 558C421 558 469 552 505 539L541 524C551 519 561 513 570 507L567 534C564 551 560 566 554 580C548 594 542 607 535 619C528 631 520 641 512 650C504 659 496 667 489 674C484 678 479 682 473 686C467 690 462 693 457 696C451 699 445 703 439 706C432 708 426 708 420 707C414 706 408 706 402 704C396 702 390 701 383 700C376 699 369 699 361 701C351 703 341 708 333 713C329 715 325 718 322 721C319 724 316 728 314 732C312 736 310 741 308 746C306 751 306 757 306 764C306 771 308 776 311 780C314 784 318 787 323 789C328 791 334 792 341 793C348 794 354 794 361 793C377 792 396 788 416 782C429 777 442 772 454 765C466 758 477 751 489 742C510 726 529 708 544 688C559 668 572 647 582 624C593 599 601 574 606 547C609 528 611 509 611 490L611 474C614 471 616 468 619 465C630 451 635 438 635 426C635 420 634 415 631 409L620 395C610 388 601 384 593 383C584 357 572 332 556 309C540 286 521 265 501 248C481 231 459 217 436 206C413 195 389 188 364 184C351 182 339 180 326 180M308 223L316 223C330 223 343 224 357 226C389 232 420 244 449 262C478 280 502 304 523 334C539 357 550 382 558 407C554 415 553 423 553 433C553 451 542 469 520 486L485 502C461 515 425 521 375 521C352 521 325 520 296 517L273 516C258 514 244 512 229 510C217 508 203 507 189 505C175 503 162 501 152 500C145 499 137 498 129 497C121 496 112 495 102 493C92 491 82 490 70 488C67 488 64 487 61 487C61 474 63 460 65 447C70 413 81 381 98 351C115 321 139 295 168 273C197 251 227 236 260 229C276 225 292 223 308 223"/>
</svg>