<svg xmlns="http://www.w3.org/2000/svg" viewBox="0 0 675 1204">
  <path d="M308 180C289 181 270 183 251 187C213 196 177 213 144 238C122 255 102 274 86 295C70 316 56 340 46 364C36 388 28 414 24 440C21 457 20 474 20 491C20 501 21 509 22 519C24 546 30 572 39 598C48 624 60 648 76 671C89 690 104 707 123 723C142 739 162 753 185 764C208 775 231 783 256 788C273 792 290 794 307 794C315 794 322 794 330 793C302 786 275 775 248 762C236 756 224 749 212 742C200 735 188 726 176 717C164 708 152 697 140 685C128 673 118 661 109 647C94 625 83 601 75 577C67 553 63 527 62 502C73 508 85 513 98 517C111 521 123 526 136 529C149 532 161 535 172 537C183 539 192 541 199 542C204 543 206 543 210 544C220 546 241 548 241 548C242 571 244 592 247 611C250 630 255 646 260 661L274 698C284 716 295 732 307 748C306 752 306 758 306 764C306 771 308 778 312 782C316 786 322 789 328 791C334 793 341 794 349 794C357 794 365 793 373 792C377 792 380 791 384 790C389 789 393 788 397 787C401 786 404 786 407 785L416 782C429 777 442 772 454 765C466 758 477 751 489 742C510 726 529 708 544 688C559 668 572 647 582 624C593 600 601 576 606 551C610 531 611 511 611 491L611 473L619 465C630 451 635 438 635 426C635 420 634 415 631 409C631 409 625 399 620 395C612 389 602 384 593 383C584 357 572 333 556 309C532 274 503 246 470 225C437 204 401 191 364 184C348 181 332 180 316 180M311 223C319 223 326 222 334 223C342 224 349 225 357 226C389 232 420 244 449 262C478 280 502 304 523 334C539 357 550 382 558 408C554 416 553 424 553 433C552 451 541 469 520 486L485 502C461 515 424 521 374 521C351 521 325 520 296 517L278 516C278 496 279 475 281 451L283 427C285 412 287 398 289 383C291 371 292 357 294 343C296 329 298 317 299 306C300 295 301 282 303 269C305 256 308 241 311 223M292 224C287 235 283 247 279 260C275 273 272 284 269 296C266 308 263 319 261 329C259 339 257 348 256 355C255 362 246 432 246 432L241 483L241 498L241 511C234 510 228 510 220 509L196 506C188 505 181 504 173 503C165 502 158 501 152 500C140 499 127 497 113 495C99 493 82 490 62 487C62 480 63 474 63 467C63 460 64 453 65 447C70 413 81 381 98 351C115 321 139 295 168 273C187 259 207 247 228 239C249 231 270 226 292 224M570 507C569 512 569 516 569 520C569 524 568 529 567 534C564 551 560 566 554 580C548 594 542 608 535 619C528 630 520 641 512 650C504 659 496 667 489 674C484 678 479 682 473 686C467 690 462 693 457 696C451 699 445 703 439 706C432 708 426 708 420 707C414 706 408 706 402 704C396 702 390 701 383 700C376 699 368 700 360 701C356 702 349 704 347 705C335 700 324 690 313 676C313 676 298 653 294 640C284 612 280 592 278 553L328 558L363 558C387 558 410 557 430 555C459 552 484 546 505 539L541 524C546 521 551 519 556 516C561 513 565 510 570 507"/>
</svg>