<svg xmlns="http://www.w3.org/2000/svg" viewBox="0 0 700 1204">
  <path d="M140 180L137 180C129 181 121 182 115 186C109 190 104 194 101 199C98 204 97 208 99 211C103 219 107 225 111 228C115 231 118 234 122 235L134 238C138 239 143 241 149 243C155 245 161 249 168 255C175 261 184 270 194 281C196 283 200 289 208 299C216 309 225 322 237 337C249 352 262 369 277 389C291 407 305 426 320 446C317 450 313 455 310 459C287 488 263 517 241 544C219 571 197 597 177 621C157 645 137 665 121 681C113 689 106 695 98 698C90 701 83 703 75 705C67 707 60 711 53 714C46 717 39 723 33 731C25 743 20 755 20 764C20 766 21 768 21 770C23 781 33 788 49 792C57 794 64 794 71 793C78 792 84 791 90 788C96 785 101 782 106 778C111 774 115 770 119 766C121 763 126 757 133 749C140 741 148 731 158 719C168 707 178 692 191 676C204 660 218 644 232 626C246 608 261 589 276 570C291 551 307 531 322 511L346 481C356 494 366 506 376 519C394 542 411 565 428 587C445 609 461 631 476 651C491 671 506 689 518 705C530 721 541 734 549 745C557 756 562 763 565 766C569 770 573 774 578 778C583 782 588 785 594 788C600 791 606 792 613 793C620 794 627 794 635 792C651 788 661 781 663 770C663 768 664 766 664 764C664 755 659 743 651 731C645 723 638 717 631 714C624 711 618 707 610 705C602 703 594 701 586 698C578 695 571 689 563 681C547 665 528 645 508 621C488 597 466 571 444 544C422 517 401 488 378 459C376 456 373 453 371 450C412 398 457 341 505 281C515 268 523 258 531 252C539 246 545 241 551 239C557 237 562 235 566 235C570 235 574 234 578 233C582 232 585 231 588 228C591 225 595 219 599 211C601 208 600 204 597 199C594 194 589 190 583 186C577 182 569 181 561 180C553 179 545 181 537 186C536 187 532 187 527 188C522 189 515 189 505 189L463 189C443 189 423 190 401 190L337 190C316 190 296 191 277 191C258 191 240 190 224 190C208 190 195 190 184 189C173 188 166 188 162 187L161 186C154 182 147 180 140 180M206 235C217 236 228 236 240 237C250 238 261 238 274 238C287 238 300 239 313 239C319 239 325 238 333 238L359 238C368 238 377 237 387 237L416 237C438 236 461 236 485 235L489 235C475 252 457 272 438 296C419 320 399 347 377 374C366 388 355 401 344 415C333 401 322 388 312 374C291 346 271 320 253 296C235 272 219 252 206 235"/>
</svg>