<svg xmlns="http://www.w3.org/2000/svg" viewBox="0 0 700 1204">
  <path d="M66 180C61 180 55 180 49 181C33 185 23 192 21 203C21 205 20 208 20 210C20 219 25 230 33 242C39 250 46 257 53 260C60 263 67 266 75 268C83 270 90 273 98 276C106 279 113 284 121 292C137 308 156 329 176 353C196 377 218 402 240 429C262 456 284 486 307 515C309 518 312 521 314 524C273 576 228 633 180 693C170 706 161 716 153 722C145 728 139 733 133 735C127 737 122 739 118 739C114 739 111 739 107 740C103 741 99 743 96 746C93 749 89 754 85 762C83 765 84 770 87 775C90 780 95 783 101 787C107 791 115 793 123 794C131 795 139 792 147 787C148 787 152 787 157 786C162 785 169 785 179 785L221 785C241 785 261 784 283 784C305 784 326 783 347 783L388 783L407 783L460 783C476 783 489 784 500 785C511 786 518 786 522 787L523 787C531 792 539 795 547 794C555 793 563 791 569 787C575 783 580 780 583 775C586 770 587 765 585 762C581 754 578 748 574 745C570 742 567 739 563 738C559 737 554 736 550 735C546 734 541 733 535 731C529 729 523 724 516 718C509 712 501 705 491 693C489 691 484 684 476 674C468 664 459 652 447 637C435 622 422 604 407 584C393 566 379 547 364 527C367 523 371 519 374 515C397 486 421 456 443 429C465 402 486 377 507 353C528 329 547 308 563 292C571 284 578 279 586 276C594 273 602 270 610 268C618 266 624 263 631 260C638 257 645 250 651 242C659 230 664 219 664 210C664 208 663 205 663 203C661 192 651 185 635 181C627 179 620 179 613 180C606 181 600 183 594 186C588 189 583 192 578 196C573 200 569 204 565 208C563 211 559 216 552 224C545 232 537 243 527 255C517 267 506 281 493 297C480 313 467 330 453 348C439 366 423 385 408 404C393 423 377 442 362 462C354 472 346 483 338 493L308 454C290 431 274 408 257 386C240 364 223 343 208 323C193 303 179 285 167 269C155 253 144 240 136 229C128 218 122 211 119 208C115 204 111 200 106 196C101 192 96 189 90 186C84 183 78 181 71 180M340 558C351 572 362 586 372 600C393 628 413 653 431 677C449 701 465 721 479 738C468 737 457 738 445 737C435 736 423 736 410 736C397 736 384 735 371 735L351 735C343 735 334 736 325 736L297 736C287 736 277 737 268 737C246 738 223 737 199 738L196 738C210 721 227 701 246 677C265 653 285 627 307 600"/>
</svg>