<svg xmlns="http://www.w3.org/2000/svg" viewBox="0 0 567 1204">
  <path d="M62 180L59 180C51 181 44 182 38 186C32 190 27 194 24 199C21 204 19 208 21 211C25 219 29 225 33 228C37 231 40 234 44 235L56 238C60 239 65 241 71 243C77 245 84 249 91 255C98 261 106 270 116 281L248 488L116 693C106 706 97 716 89 722C81 728 75 733 69 735C63 737 58 739 54 739C50 739 47 739 43 740C39 741 35 743 32 746C29 749 25 754 21 762C19 765 21 770 24 775C27 780 32 783 38 787C44 791 51 793 59 794C67 795 76 792 84 787C85 787 88 787 93 786C98 785 105 785 115 785L157 785C177 785 198 784 220 784C242 784 263 783 284 783L324 783L344 783L396 783C412 783 425 784 436 785C447 786 454 786 458 787L459 787C467 792 475 795 483 794C491 793 499 791 505 787C511 783 516 780 519 775C522 770 523 765 521 762C517 754 514 748 510 745C506 742 503 739 499 738L487 735C483 734 478 733 472 731C466 729 459 724 452 718C445 712 437 705 427 693L294 488L427 281C437 268 446 258 454 252C462 246 467 240 473 238C479 236 484 235 488 235C492 235 496 234 500 233C504 232 507 231 510 228C513 225 517 219 521 211C523 208 522 204 519 199C516 194 511 190 505 186C499 182 491 181 483 180C475 179 467 181 459 186C458 187 455 187 450 188C445 189 438 189 428 189L385 189C365 189 344 190 323 190L259 190C238 190 218 191 199 191C180 191 162 190 146 190C130 190 118 190 107 189C96 188 89 188 85 187L84 186C77 182 69 180 62 180M128 235C139 236 150 236 162 237C172 238 183 238 196 238L235 238L256 238L281 238C290 238 300 237 310 237L338 237C360 236 383 236 407 235L410 235L272 452M272 519L415 738C404 737 393 738 381 737C371 736 360 736 347 736C334 736 321 735 308 735L287 735C279 735 270 736 261 736L232 736C222 736 213 737 203 737C180 738 156 737 132 738"/>
</svg>