<svg xmlns="http://www.w3.org/2000/svg" viewBox="0 0 368 1204">
  <path d="M50 180C47 180 44 180 42 181C37 183 35 184 35 184L31 188L25 194C23 197 22 200 21 204C20 208 20 212 21 216C23 224 26 230 29 235C32 240 36 245 39 248C42 251 45 252 49 253C53 254 56 254 59 254C67 253 75 251 84 245C87 242 89 238 91 234C92 230 93 226 93 221C93 216 92 211 89 206C89 205 88 204 87 202C86 200 83 198 81 195C79 192 76 189 73 187C70 185 66 182 61 181C57 180 53 180 50 180M284 180C281 180 278 180 276 181C271 183 269 184 269 184L265 188C263 190 262 192 260 194C258 197 256 200 255 204C254 208 254 212 255 216C257 224 260 230 263 235C266 240 270 245 273 248C276 251 279 252 283 253C287 254 291 254 294 254C302 253 309 251 318 245C321 242 323 238 325 234C326 230 328 226 328 221C328 216 326 211 323 206C323 205 322 204 321 202C320 200 317 198 315 195C313 192 310 189 307 187C304 185 300 182 295 181C291 180 287 180 284 180M177 180C173 180 168 180 164 182C156 185 150 193 146 206C143 214 142 221 142 230C142 235 142 241 143 246C145 260 151 275 160 291C168 306 172 347 172 415L172 428C172 447 171 467 171 487L171 548C171 569 170 589 170 609C170 629 169 649 169 668L169 681C169 747 179 785 198 794L204 794C218 794 227 788 231 776C233 771 233 766 233 760C233 750 231 739 226 727C225 724 223 716 222 704C221 692 220 678 219 661C218 644 217 624 216 604C215 584 215 563 214 543C213 523 213 505 213 487L213 443C213 430 212 421 212 414L212 397L212 385C212 382 213 377 213 371L213 347C213 337 214 324 214 306L214 286C214 244 212 218 207 207C202 195 195 187 188 183C184 181 181 180 177 180"/>
</svg>