<svg xmlns="http://www.w3.org/2000/svg" viewBox="0 0 634 1204">
  <path d="M309 180C301 180 295 181 288 183C281 185 276 188 273 192C268 197 262 209 254 227C246 245 236 267 226 293C216 319 205 348 193 380C181 412 169 445 157 478C145 511 133 544 122 577C111 610 100 639 91 666C87 676 84 683 80 689C76 695 71 700 67 703C63 706 59 709 55 711C51 713 46 715 42 717C38 719 35 723 32 726C29 729 26 734 24 741C22 749 20 756 20 762C20 770 22 777 25 782C30 790 39 794 52 794L59 794C67 793 74 791 80 788C86 785 91 780 96 776C101 772 105 767 108 762C111 757 114 751 116 746C118 741 121 734 124 725C127 716 132 706 136 694C140 682 144 670 149 657C154 644 157 631 162 618C173 587 185 554 197 519L224 444C228 431 231 418 235 405C239 392 243 379 247 367C251 355 256 345 260 336C264 327 269 319 274 314C278 309 284 305 290 302C296 299 302 296 309 293C316 296 323 299 329 302C335 305 340 309 344 314C349 319 354 327 358 336C362 345 367 355 371 367C375 379 379 392 383 405L395 444L422 519C434 554 445 587 456 618C460 631 464 644 469 657C474 670 479 682 483 694C487 706 491 716 494 725C497 734 500 741 502 746C504 751 507 757 510 762C513 767 518 772 523 776C528 780 533 785 539 788C545 791 552 793 560 794L567 794C580 794 588 790 593 782C596 777 598 770 598 763C598 757 597 749 595 741C593 734 590 729 587 726C584 723 580 719 576 717L564 711C560 709 555 706 551 703C547 700 542 695 538 689C534 683 531 676 527 666C518 639 507 610 496 577C485 544 473 511 461 478C449 445 438 412 426 380C414 348 403 319 393 293C383 267 373 245 365 227C357 209 351 197 346 192C343 188 338 185 331 183C324 181 317 180 309 180"/>
</svg>