<svg xmlns="http://www.w3.org/2000/svg" viewBox="0 0 636 1204">
  <path d="M53 180C40 180 30 184 25 192C22 197 20 203 20 211C20 217 22 225 24 233C26 240 29 245 32 248C35 251 38 254 42 256C46 258 50 261 54 263C58 265 63 268 67 271C71 274 76 279 80 285C84 291 87 298 91 308C100 335 111 365 122 397C133 429 145 463 157 496C169 529 181 562 193 594C205 626 216 655 226 681C236 707 246 729 254 747C262 765 268 776 273 781C276 785 281 789 288 791C295 793 302 795 309 794C317 795 324 793 331 791C338 789 342 785 345 781C350 776 357 765 365 747C373 729 383 707 393 681C403 655 414 626 426 594C438 562 450 529 462 496C474 463 485 429 496 397C507 365 518 335 527 308C530 298 534 291 538 285C542 279 547 274 551 271C555 268 560 265 564 263C568 261 572 258 576 256C580 254 584 251 587 248C590 245 593 240 595 233C597 225 598 217 598 211C598 203 596 197 593 192C588 184 580 180 567 180L560 180C552 181 545 183 539 186C533 189 528 193 523 197C518 201 513 207 510 212C507 217 504 222 502 227C500 232 497 240 494 249C491 258 487 268 483 280C479 292 474 304 469 317C464 330 460 343 456 356C445 387 434 420 422 455L395 529C391 542 387 556 383 569C379 582 375 594 371 606C367 618 362 629 358 638C354 647 349 654 344 660C340 665 335 668 329 671C323 674 316 677 309 680C302 677 296 674 290 671C284 668 278 665 274 660C269 654 264 647 260 638C256 629 251 618 247 606C243 594 239 582 235 569C231 556 228 542 224 529L196 455C184 420 173 387 162 356C157 343 153 330 148 317C143 304 139 292 135 280C131 268 127 258 124 249C121 240 118 232 116 227C114 222 111 217 108 212C105 207 101 201 96 197C91 193 86 189 80 186C74 183 67 181 59 180"/>
</svg>