<svg xmlns="http://www.w3.org/2000/svg" viewBox="0 0 614 1204">
  <path d="M60 180C55 180 49 181 44 184C39 187 35 192 32 197C29 202 26 210 24 217C22 224 20 232 20 240C20 246 22 252 24 257C26 262 28 267 31 271C34 275 36 280 39 284C42 288 45 292 46 297C47 299 46 306 47 317C48 328 49 343 49 360C49 377 50 397 50 418L50 484L50 517L50 549C50 571 49 590 49 608C49 626 49 641 48 653C47 665 47 673 46 677C44 684 42 690 39 694L30 706C27 710 25 714 23 718C21 722 20 726 20 733C20 741 22 750 24 757C26 764 29 771 32 776C35 781 39 786 44 789C49 792 55 794 60 794L72 794L514 794L526 794C530 794 536 792 545 791C551 789 557 787 561 784C565 781 569 777 571 773C573 769 575 765 576 760C577 755 577 750 576 745C575 739 573 733 569 728C565 723 561 719 555 715C549 711 542 707 534 705C526 703 518 702 509 702C500 702 493 703 487 706C481 709 476 711 471 715C466 719 461 723 457 728C453 733 447 736 442 740C439 742 432 744 421 745C410 746 396 747 380 748C364 749 345 749 325 749L285 749L265 749C245 749 225 749 205 748C185 747 167 747 152 746C137 745 125 744 115 743C105 742 100 741 99 740C98 739 98 735 98 728C98 721 97 712 97 701L97 664L97 623C98 591 98 555 99 514C135 513 168 511 197 510L234 510L246 510L267 510C277 510 286 510 293 511C300 512 305 513 307 514C311 516 315 519 319 522C323 525 327 529 332 532C337 535 342 538 347 540C352 542 359 544 366 544C374 544 382 543 389 541C396 539 404 536 409 532C414 528 418 525 421 520C424 515 426 510 426 505C426 490 421 478 411 471C406 469 400 466 394 464C388 462 380 461 373 460C371 460 366 459 357 459C348 459 338 460 325 460L281 460C265 460 248 461 232 461C216 461 200 462 184 462L162 462L142 462C130 462 120 461 112 461C104 461 100 461 99 460C98 459 99 456 98 449C97 442 97 434 96 423C95 412 95 400 95 387C95 374 94 360 94 346L94 326L94 306C94 293 95 280 95 270C95 260 96 251 97 244C98 237 98 235 99 234C100 233 106 233 116 232C126 231 138 231 154 230C170 229 187 229 207 228C227 227 246 226 267 226L328 226C348 226 366 226 382 227C398 228 411 228 422 229C433 230 439 232 441 234C445 238 449 242 453 247C457 252 462 257 467 261C472 265 478 269 485 272C492 275 500 277 509 277C518 277 527 275 535 273C543 271 550 268 556 264C562 260 567 255 571 250C575 245 576 239 576 233C576 224 574 217 570 210C566 203 558 196 548 189C541 186 535 184 530 182C525 180 519 180 514 180L72 180"/>
</svg>