<svg xmlns="http://www.w3.org/2000/svg" viewBox="0 0 626 1204">
  <path d="M83 180C78 180 72 180 67 182C62 184 57 186 50 189C40 196 31 203 27 210C23 217 21 224 21 233C21 239 22 245 26 250C30 255 35 260 41 264C47 268 54 271 62 273C70 275 80 277 89 277C98 277 105 275 112 272C119 269 125 265 130 261C135 257 140 252 144 247C148 242 152 238 156 234C158 232 164 230 175 229C186 228 199 228 215 227C231 226 249 226 269 226L330 226C351 226 370 227 390 228C410 229 427 229 443 230C459 231 471 231 481 232C491 233 497 233 498 234C499 235 499 237 500 244C501 251 502 260 502 270C502 280 503 293 503 306L503 326L503 346C503 360 502 374 502 387C502 400 502 412 501 423C500 434 500 442 499 449C498 456 499 459 498 460C497 461 493 461 485 461C477 461 467 462 455 462L435 462L413 462C397 462 381 461 365 461C349 461 332 460 316 460L273 460C260 460 249 459 240 459C231 459 226 460 224 460C217 461 210 462 203 464C196 466 191 469 187 471C177 478 171 490 171 505C171 510 173 515 176 520C179 525 184 528 189 532C194 536 201 539 208 541C215 543 224 544 232 544C239 544 246 542 251 540C256 538 261 535 265 532C269 529 274 525 278 522C282 519 286 516 290 514C292 513 297 512 304 511C311 510 320 510 330 510L351 510L363 510L400 510C429 511 462 513 498 514C499 555 499 591 500 623L500 664L500 701C500 712 499 721 499 728C499 735 499 739 498 740C497 741 491 742 482 743C473 744 460 745 445 746C430 747 413 747 393 748C373 749 353 749 332 749L312 749L272 749C252 749 233 749 217 748C201 747 187 746 176 745C165 744 158 742 155 740C150 736 144 733 140 728C136 723 131 719 126 715C121 711 116 709 110 706C104 703 98 702 89 702C70 702 54 705 42 714C30 723 23 733 21 745C20 750 20 755 21 760C22 765 24 769 26 773C28 777 32 781 36 784C40 787 46 789 52 791C61 792 67 794 71 794L83 794L525 794L538 794C543 794 548 792 553 789C558 786 563 781 566 776C569 771 572 764 574 757C576 750 577 741 577 733C577 726 576 722 574 718C572 714 570 710 567 706C564 702 562 698 559 694C556 690 554 684 552 677C551 673 551 665 550 653C549 641 548 626 548 608C548 590 547 571 547 549L547 517L547 484C547 462 548 439 548 418C548 397 549 377 549 360C549 343 549 328 550 317C551 306 551 299 552 297C553 292 555 288 558 284C561 280 563 275 566 271C569 267 572 262 574 257C576 252 577 246 577 240C577 232 576 224 574 217C572 210 569 202 566 197C563 192 558 187 553 184C548 181 543 180 538 180L525 180"/>
</svg>