<svg xmlns="http://www.w3.org/2000/svg" viewBox="0 0 456 1204">
  <path d="M214 180C200 180 187 183 173 188C155 194 139 203 125 216C111 229 101 243 93 259C85 275 80 292 79 310L79 319C79 334 82 350 87 365C92 378 99 392 108 403C117 414 127 424 139 432C151 440 164 447 178 452C191 456 204 458 218 458L221 458L217 458L223 458C227 458 231 459 235 458C244 457 254 455 265 451C283 445 298 436 312 423C326 410 336 396 344 380C352 364 357 347 358 328L358 319C358 304 355 288 350 273C344 255 335 240 322 226C309 212 295 202 279 194C263 186 246 181 228 180M215 224L225 224C238 225 249 228 260 233C271 238 280 247 289 256C298 265 305 276 309 288C313 299 315 311 315 322C315 339 311 351 308 358C304 368 300 377 293 384C286 391 278 397 270 401C265 402 261 403 258 403L249 403C247 403 244 401 242 401L235 401C229 402 224 403 218 405C212 407 207 412 202 416C199 419 196 422 195 426C194 430 195 435 197 443C198 447 199 450 202 452C205 454 208 455 211 456C205 454 198 452 192 450C184 447 176 443 167 437C158 431 149 424 141 415C137 410 133 406 130 401C127 396 124 391 122 386C120 381 117 374 115 368C113 362 111 354 109 345C107 339 106 333 106 327C106 321 107 316 109 310C112 298 117 286 125 276C133 266 141 256 152 248C163 240 176 233 188 229C197 226 206 224 215 224M385 403C378 403 374 405 369 408C360 414 355 423 354 434C354 436 353 439 350 443C347 447 343 450 337 454L316 463C308 467 297 470 283 472C271 474 256 475 239 475C237 475 234 474 232 474L219 474L205 474L191 474C170 473 151 471 132 470C124 469 116 469 108 468C100 467 92 467 84 466C76 465 68 464 62 464C56 464 50 464 46 463L20 460L42 475C49 480 58 485 69 488C80 491 90 494 101 496C112 498 122 499 131 500C140 501 147 503 151 503L192 505L223 507C246 507 267 505 285 503C303 501 319 497 332 493L354 485C374 476 390 465 404 453C413 445 417 437 417 428C417 425 417 422 415 419C412 414 408 410 403 407C398 404 392 403 385 403M214 515C200 515 187 518 173 523C155 529 139 538 125 551C111 564 101 578 93 594C85 610 80 627 79 646L79 655C79 670 82 686 87 701C92 714 99 727 108 738C117 749 127 760 139 768C151 776 164 782 178 787C191 791 204 794 218 794L221 794C220 794 218 793 217 793C219 793 221 794 223 794C227 794 231 794 235 793C244 792 254 790 265 787C283 781 298 771 312 759C326 747 336 732 344 716C352 700 357 683 358 664L358 655C358 640 355 624 350 609C344 591 335 575 322 561C309 547 295 537 279 529C263 521 246 516 228 515M215 559C218 559 222 560 225 560C238 561 249 564 260 569C271 574 280 582 289 591C298 600 305 611 309 623C313 634 315 646 315 657C315 674 311 686 308 693C304 703 300 712 293 720C286 728 278 733 270 736C265 737 261 738 258 738L249 738C247 738 244 737 242 737L235 737C229 737 224 739 218 741C212 743 207 747 202 751C199 755 196 758 195 762C194 766 195 771 197 779C198 783 199 785 202 787C205 789 207 791 207 791C207 791 198 789 192 786C184 783 176 779 167 773C158 767 149 759 141 750C137 745 133 741 130 736C127 731 124 726 122 721C120 716 117 709 115 703C113 697 111 690 109 681C107 675 106 668 106 662C106 656 107 651 109 645C112 633 117 621 125 611C133 601 141 592 152 584C163 576 176 569 188 565C197 562 206 559 215 559"/>
</svg>