<svg xmlns="http://www.w3.org/2000/svg" viewBox="0 0 813 1204">
  <path d="M209 180L184 182L117 182C112 182 108 183 103 184C98 185 92 187 87 191C82 195 78 198 75 201C72 204 69 206 67 209C65 212 64 216 63 219C62 222 62 227 62 231C62 235 62 239 64 243C66 247 69 251 73 254C77 257 81 260 87 262C93 264 100 265 108 265C117 265 125 262 133 256C141 250 148 243 156 235C157 234 158 234 159 233C160 232 161 232 163 231C165 230 167 230 170 230C173 230 178 229 184 229L204 229C220 230 234 231 244 232C254 233 261 233 262 234C263 235 263 237 264 244C265 251 266 260 266 270L266 306C266 313 267 319 267 326C267 333 266 339 266 346L266 387C266 400 265 412 265 423C265 434 264 442 263 449C262 456 263 459 262 460L262 466C258 464 255 462 252 460C249 458 247 457 245 456C243 455 241 453 239 452C241 456 243 458 245 462C247 465 249 469 252 473C255 477 258 482 262 486L262 514C263 515 262 518 263 525C264 532 265 540 265 551C265 562 266 574 266 587L266 627C266 634 267 641 267 648C267 655 266 661 266 668L266 703C266 714 265 722 264 729C263 736 263 739 262 740C261 741 254 741 244 742C234 743 220 744 204 745L184 747C178 747 173 746 170 746C167 746 165 745 163 744C161 743 160 743 159 742C158 741 157 741 156 740C148 733 138 726 125 720C112 714 97 711 81 711C73 711 64 711 57 712C50 713 43 714 38 716C33 718 28 722 25 726C22 730 20 734 20 740C20 749 22 757 26 764C30 771 36 778 46 785C52 788 57 790 62 792C67 794 71 794 76 794L184 794L209 794L286 794L298 794C303 794 307 792 311 789C315 786 320 781 323 776C326 771 328 764 330 757C332 750 333 741 333 733C333 726 332 721 330 716C328 711 325 706 323 702C321 698 319 694 316 690C313 686 311 682 310 677C309 675 309 670 309 660C309 650 307 638 307 623L307 574C307 555 306 536 306 516L331 526L332 526L372 538C396 545 418 549 436 552C447 554 457 555 467 555C473 555 479 555 484 554L485 554L487 554C487 570 486 585 486 599L486 636C486 647 485 657 485 664C485 671 484 675 484 677C483 682 480 686 478 690C476 694 474 698 471 702C468 706 466 711 464 716C462 721 461 726 461 733C461 741 462 750 464 757C466 764 468 771 471 776C474 781 478 786 482 789C486 792 491 794 496 794L507 794L584 794L610 794L718 794C723 794 727 794 732 792C737 790 742 788 748 785C758 778 764 771 768 764C772 757 773 749 773 740C773 734 772 730 769 726C766 722 761 718 756 716C751 714 743 713 736 712C729 711 721 711 713 711C697 711 681 714 668 720C655 726 645 733 638 740C637 741 636 741 635 742C634 743 633 743 631 744C629 745 627 746 624 746C621 746 616 747 610 747L590 745C574 744 559 743 549 742C539 741 533 741 532 740C531 739 530 735 529 728C528 721 528 711 528 700C528 689 527 676 527 662L527 618C527 603 528 589 528 576C528 563 528 551 529 541L544 532C549 529 553 525 557 521L558 520C563 515 566 509 568 501C570 493 570 486 568 479C567 477 565 474 564 471L561 466L554 460C548 455 543 451 538 448C537 447 535 446 534 446C533 446 531 446 530 445C529 437 528 425 528 412C528 399 527 385 527 369L527 322L527 279C527 266 528 255 529 247C530 239 531 235 532 234C533 233 539 233 549 232C559 231 574 230 590 229L610 229C616 229 621 230 624 230C627 230 629 230 631 231C633 232 634 232 635 233C636 234 637 234 638 235C645 243 652 250 660 256C668 262 676 265 685 265C693 265 700 264 706 262C712 260 717 257 721 254C725 251 727 247 729 243C731 239 732 235 732 231C732 227 732 222 731 219C730 216 728 212 726 209C724 206 722 204 719 201C716 198 712 195 707 191C702 187 696 185 691 184C686 183 682 182 677 182L610 182L584 180L507 180L496 180C491 180 486 181 482 184C478 187 474 192 471 197C468 202 466 210 464 217C462 224 461 232 461 240C461 246 462 252 464 257C466 262 468 267 471 271C474 275 476 280 478 284C480 288 483 292 484 297C485 299 485 304 485 314C485 324 486 336 486 351C486 366 487 382 487 401L487 460L487 488C486 489 484 491 481 493L464 498L463 498L462 498C447 502 433 504 419 505L407 505C397 505 388 505 378 504C365 502 352 499 340 496C328 493 316 490 306 486L306 460C306 440 307 420 307 401L307 351C307 336 309 324 309 314C309 304 309 299 310 297C311 292 313 288 316 284C319 280 321 275 323 271C325 267 328 262 330 257C332 252 333 246 333 240C333 232 332 224 330 217C328 210 326 202 323 197C320 192 315 187 311 184C307 181 303 180 298 180L286 180"/>
</svg>