<svg xmlns="http://www.w3.org/2000/svg" viewBox="0 0 550 1204">
  <path d="M77 180C71 180 65 180 59 181C47 184 36 192 27 205C23 215 21 222 21 228C21 234 21 240 23 245C25 250 28 254 32 258C36 262 40 267 44 273C48 279 52 284 56 292C60 300 63 310 65 322C67 337 69 356 71 377C73 398 75 421 77 445C79 469 81 493 83 518C85 543 86 566 87 587C88 608 89 627 90 643C91 659 91 670 91 677C91 687 89 698 87 709C85 720 82 731 80 741C78 751 78 759 78 768C78 777 81 784 87 790C88 791 89 791 90 792C92 793 94 793 98 793C114 793 127 791 137 788C147 785 154 781 160 776C166 771 170 767 173 761C176 755 178 751 181 746C183 742 187 735 192 727C197 719 203 710 209 700C215 690 221 679 228 668L249 634C265 608 282 580 300 550C321 594 341 634 359 669C367 684 375 699 383 713C391 727 399 740 406 752C413 764 421 774 427 781C433 788 439 792 443 793C451 795 458 795 466 793C474 791 481 788 487 784C493 780 497 774 501 767C505 760 506 751 506 742C506 731 504 722 500 715C496 708 490 703 483 699C476 695 468 692 460 691C452 690 444 690 436 691C430 690 424 685 417 677C410 669 403 659 397 647C391 635 384 623 378 609C372 595 368 583 363 571C358 559 355 549 352 541C349 533 348 530 348 529C345 522 343 517 342 511C341 505 341 501 341 496C341 491 342 487 343 483C344 479 344 476 345 473C347 470 350 464 356 455C362 446 369 435 376 423C383 411 391 399 399 385C407 371 416 358 424 346C432 334 439 323 445 314C451 305 456 299 459 295C466 292 472 290 480 289C488 288 495 286 502 284C509 282 514 278 518 274C522 270 525 265 525 257C525 249 523 243 518 239C513 235 508 232 502 230C495 228 487 228 479 228C418 232 363 235 315 236C294 237 274 237 254 237C234 237 216 236 200 235C184 234 171 232 161 230C151 228 145 225 144 221C142 214 136 206 127 199C118 192 107 185 95 182C89 180 83 180 77 180M115 281C152 285 189 288 225 289C240 290 256 290 273 290L293 290L322 290C338 290 355 288 371 287C387 286 401 284 414 281C409 285 402 294 392 307C382 320 369 337 355 358C341 379 325 404 308 431C291 458 272 487 253 519C234 551 214 584 194 619C174 654 152 690 132 726C133 710 135 692 135 671L135 649C135 634 134 619 134 603C133 579 133 555 132 530C131 505 129 480 128 456C125 400 120 342 115 281"/>
</svg>