<svg xmlns="http://www.w3.org/2000/svg" viewBox="0 0 420 1204">
  <path d="M96 180L91 180C84 180 77 181 72 182C67 183 62 185 59 187L55 190C53 192 49 195 45 198C41 201 36 206 32 212C27 218 24 226 22 235C20 244 20 252 22 261C27 279 34 294 41 306C48 318 55 327 63 334C71 341 80 345 88 347C96 349 104 351 112 350C130 349 149 341 169 328C177 320 183 312 187 303C192 291 193 279 193 274C193 264 189 253 182 240C181 239 179 235 176 230C173 225 169 220 163 214C157 208 151 202 143 196C135 190 126 186 115 183C108 181 102 180 96 180M288 402C281 402 274 402 269 404C264 406 259 407 256 409L252 411C250 413 246 417 242 420C238 423 233 428 229 434C224 440 221 448 219 457C217 466 217 475 219 484C224 502 231 516 238 528C245 540 253 549 261 556C269 563 277 567 285 569C293 571 301 573 309 572C327 571 346 563 366 550C374 542 380 534 384 525C389 514 390 501 390 496C390 485 385 474 378 462C377 461 376 457 373 452C370 447 367 442 361 436C355 430 348 424 340 418C332 412 323 408 312 405C303 403 295 402 288 402M96 624L91 624C84 624 77 624 72 626C67 628 62 629 59 631L55 634C53 636 49 639 45 642C41 645 36 650 32 656C27 662 24 670 22 679C20 688 20 697 22 706C27 724 34 739 41 751C48 763 55 771 63 778C71 785 80 789 88 791C96 793 104 795 112 794C130 793 149 785 169 772C177 764 183 756 187 747C192 735 193 723 193 718C193 708 189 696 182 684C181 683 179 679 176 674C173 669 169 664 163 658C157 652 151 646 143 640C135 634 126 630 115 627C108 625 102 624 96 624"/>
</svg>