<svg xmlns="http://www.w3.org/2000/svg" viewBox="0 0 559 1204">
  <path d="M455 180C451 180 446 180 442 181C438 182 433 186 427 193C421 200 413 209 406 221C399 233 391 245 383 260L359 305C341 340 321 380 300 424C282 394 265 365 249 339L228 306C221 295 215 284 209 274C203 264 197 255 192 247C187 239 183 233 181 228C178 223 176 218 173 213C170 208 166 202 160 197C154 192 147 189 137 186C127 183 114 181 98 181C95 181 92 181 90 182L87 184C81 190 78 196 78 205C78 214 78 223 80 233C82 243 85 254 87 265C89 276 91 286 91 296C91 303 91 315 90 331C89 347 88 365 87 386C86 407 85 430 83 455C81 480 79 504 77 528C75 552 73 576 71 597C69 618 67 636 65 651C63 663 60 673 56 681C52 689 48 696 44 701C40 706 36 711 32 715C28 719 25 724 23 729C21 734 21 739 21 745C21 751 23 759 27 769C33 778 39 784 47 788C55 792 63 794 71 794C79 794 87 793 95 791C103 789 111 786 118 782C125 778 130 773 135 768C140 763 143 758 144 753C145 749 151 745 161 743C171 741 184 739 200 738C216 737 234 736 254 736L266 736C282 736 299 737 315 737C363 738 418 740 479 745C487 745 495 745 502 743C508 741 513 739 518 735C523 731 525 725 525 717C525 709 522 703 518 699C514 695 509 692 502 690C495 688 488 685 480 684C472 683 466 681 459 679C456 676 451 669 445 660C439 651 432 639 424 627C416 615 407 603 399 589C391 575 383 562 376 550C369 538 361 528 356 519C351 510 347 503 345 500C344 497 344 495 343 491C342 487 341 483 341 478C341 473 341 469 342 463C343 457 345 452 348 445C348 445 348 442 350 437C352 432 354 426 357 419C360 412 362 403 366 394C370 385 374 375 378 365C382 355 387 345 392 335C397 325 402 318 407 310C412 302 416 296 421 291C426 286 431 284 436 283C444 284 452 283 460 282C468 281 476 279 483 275C490 271 496 265 500 258C504 251 506 243 506 232C506 223 505 214 501 207C497 200 493 194 487 190C481 186 474 183 466 181C462 180 459 180 455 180M132 248C152 284 174 320 194 355C214 390 234 423 253 455C272 487 291 516 308 543C325 570 341 594 355 615C369 636 382 653 392 666C402 679 409 688 414 692C401 690 387 687 371 686C355 685 338 685 322 684C311 684 300 683 289 683L273 683C256 683 240 683 225 684C189 685 152 688 115 692C120 631 125 573 128 517C129 493 131 469 132 444C133 419 133 395 134 371C134 355 135 340 135 325L135 303C135 282 133 264 132 248"/>
</svg>