<svg xmlns="http://www.w3.org/2000/svg" viewBox="0 0 665 1204">
  <path d="M333 180L322 180C312 180 303 180 293 181C267 183 241 189 215 198C189 207 165 219 142 235C124 248 107 263 91 282C75 301 62 322 51 345C40 368 31 391 26 416C22 433 20 450 20 467C20 475 21 482 22 490C29 462 40 435 53 408C58 396 65 384 72 372C79 360 88 347 97 335C106 323 116 311 128 300C140 289 153 278 167 268C189 253 212 242 236 234C260 226 285 222 310 221C305 232 299 244 295 257C291 270 287 282 284 295C281 308 277 320 275 331C273 342 271 351 270 358C269 365 268 370 268 372L268 373C268 373 268 371 269 368L260 436L255 487L255 519C255 579 261 628 273 664L288 701C293 711 299 720 305 729C300 729 296 729 292 728C288 727 283 727 279 726C262 723 247 720 233 714C219 708 206 701 195 694C184 687 173 679 164 671C155 663 147 655 140 648C136 643 131 638 127 632C123 626 120 621 117 616L108 598C106 591 106 585 107 579C108 573 108 567 110 561C112 555 113 548 114 542C115 536 115 528 113 520C111 510 106 500 101 492C99 488 96 485 93 482C90 479 86 475 82 473C78 471 73 469 68 467C63 465 57 465 50 465C43 465 38 467 34 470C30 473 27 478 25 483C23 488 22 494 21 501C20 508 20 514 21 521C22 537 26 556 32 576C37 589 42 601 49 613C56 625 63 636 72 648C88 669 105 688 125 703C145 718 166 732 189 742C212 752 237 760 262 765C282 769 302 770 322 770L339 770L343 774L347 778C361 789 374 794 386 794C392 794 397 792 403 790L416 779C423 770 427 762 428 753C441 748 454 742 466 736C478 730 490 723 502 715C525 699 545 681 562 661C579 641 593 618 604 595C615 572 622 548 626 523C629 507 630 491 630 475C630 466 630 457 629 448C627 423 620 398 611 373C602 348 588 325 572 303C556 281 536 261 515 245C494 229 471 215 447 205C423 195 398 188 372 184C359 182 346 180 333 180M326 221C333 221 338 222 345 222C352 222 359 223 365 224C399 229 430 241 460 258C490 275 517 298 538 327C559 356 573 386 581 419C585 438 588 456 588 475C588 489 586 502 584 516C579 548 567 579 549 608C531 637 507 661 477 682C465 690 453 697 441 703C429 709 417 713 404 717C397 714 389 713 379 712C361 712 344 701 327 679L310 644C297 620 291 583 291 532C291 509 292 483 295 455L297 432C299 417 300 403 302 388C304 376 306 362 308 348C310 334 311 322 312 311C313 299 316 287 318 273C320 259 323 241 326 221"/>
</svg>