<svg xmlns="http://www.w3.org/2000/svg" viewBox="0 0 696 1204">
  <path d="M345 180L334 180C324 180 314 180 304 181C277 183 250 190 223 199C196 208 171 221 147 237C128 250 110 266 94 286C78 306 63 327 52 351C41 375 32 399 26 425C22 443 20 461 20 479C20 487 21 494 22 502C30 473 40 445 54 417C60 405 66 393 74 380C82 367 91 354 101 341C111 328 121 316 133 304C145 292 159 282 173 272C204 251 238 236 273 229C293 225 314 222 334 222C349 222 364 224 379 226C407 231 435 239 461 252C487 265 510 281 531 302C519 306 506 312 493 318C480 324 469 330 457 337C445 344 434 351 424 357C414 363 406 369 400 373C394 377 390 379 388 381C387 381 387 382 387 382C387 382 389 381 392 379L335 423L294 457C265 484 240 509 221 533C202 557 187 580 177 601L162 638C160 644 158 651 157 657C156 663 154 669 153 675L149 671L145 667C140 662 136 657 132 651C128 645 124 639 121 634C118 628 115 621 112 615C110 608 109 601 110 595C111 589 112 582 114 576C116 570 117 563 118 556C119 549 119 541 117 533C114 522 110 512 105 504C103 500 99 497 96 494C93 491 89 488 85 485C81 482 75 480 70 478C65 476 59 476 52 476C45 476 39 479 35 482C31 485 28 490 26 495C24 500 23 506 22 513C21 520 21 527 22 534C23 551 27 570 33 591C38 604 44 617 51 630C58 643 66 655 75 667C85 681 97 694 109 706C121 718 134 727 148 737L148 738C151 764 162 782 180 789L198 790C212 788 222 784 229 777C253 785 277 790 302 792C313 793 324 794 335 794C349 794 364 793 378 791C403 788 428 782 452 773C476 764 499 752 521 737C545 721 566 701 584 680C602 659 616 636 627 612C638 588 646 563 651 537C654 520 655 504 655 487C655 477 654 468 653 458C650 432 645 407 635 381C625 355 611 331 594 308C577 285 558 265 536 248C514 231 490 217 465 206C440 195 413 188 386 184C372 182 359 180 345 180M542 313L551 322C554 325 556 328 559 332C581 362 596 394 604 428C608 448 610 468 610 487C610 501 609 516 607 530C604 547 599 563 593 579C587 595 579 610 570 625C561 640 549 654 537 667C525 680 511 691 495 702C464 723 431 738 395 745C375 749 354 752 334 752C319 752 304 750 289 748C279 746 268 744 259 741C250 738 241 735 232 731C231 728 229 725 227 722C225 719 223 716 220 713C210 702 205 688 205 668C205 663 205 656 206 650L219 613C231 574 273 524 347 463L366 447C379 437 390 428 402 419C412 411 424 403 435 394C446 385 457 377 466 370C476 362 486 354 498 345C510 336 525 326 542 313"/>
</svg>