<svg xmlns="http://www.w3.org/2000/svg" viewBox="0 0 204 1204">
  <path d="M79 180C73 180 68 181 64 182C60 183 56 185 53 186L49 188C47 190 44 192 41 195C38 198 34 202 30 207C26 212 24 218 22 226C20 234 20 240 22 248C27 263 32 276 38 286C44 296 50 303 57 309C64 315 70 318 77 320C84 322 91 323 98 323C113 322 129 316 146 305C153 299 157 291 160 283C163 276 165 269 165 260C165 251 163 241 156 230C155 229 153 226 151 222C149 218 146 213 141 208C136 203 131 198 124 193C117 188 109 184 100 182C93 180 85 180 79 180M79 337C73 337 68 338 64 339C60 340 56 342 53 343L49 345C47 347 44 349 41 352C38 355 34 359 30 364C26 369 24 375 22 383C20 391 20 397 22 405C27 420 32 433 38 443C44 453 50 460 57 466C64 472 70 475 77 477C84 479 91 480 98 480C113 479 129 473 146 462C153 456 157 448 160 440C163 433 165 426 165 417C165 408 163 398 156 387C155 386 153 383 151 379C149 375 146 370 141 365C136 360 131 355 124 350C117 345 109 341 100 339C93 337 85 337 79 337M79 494C73 494 68 495 64 496C60 497 56 499 53 500L49 502C47 504 44 506 41 509C38 512 34 516 30 521C26 526 24 532 22 540C20 548 20 554 22 562C27 577 32 590 38 600C44 610 50 617 57 623C64 629 70 632 77 634C84 636 91 637 98 637C113 636 129 630 146 619C153 613 157 605 160 597C163 590 165 583 165 574C165 565 163 555 156 544C155 543 153 540 151 536C149 532 146 527 141 522C136 517 131 512 124 507C117 502 109 498 100 496C93 494 85 494 79 494M79 651C73 651 68 652 64 653C60 654 56 656 53 657L49 659C47 661 44 663 41 666C38 669 34 673 30 678C26 683 24 689 22 697C20 705 20 712 22 720C27 735 32 747 38 757C44 767 50 774 57 780C64 786 70 790 77 792C84 794 91 794 98 794C113 793 129 787 146 776C153 770 157 762 160 754C163 747 165 740 165 731C165 722 163 712 156 701C155 700 153 697 151 693C149 689 146 684 141 679C136 674 131 669 124 664C117 659 109 655 100 653C93 651 85 651 79 651"/>
</svg>