<svg xmlns="http://www.w3.org/2000/svg" viewBox="0 0 436 1204">
  <path d="M307 180L302 180C296 180 290 182 285 184C280 186 275 189 273 192C269 197 264 206 257 220C250 234 243 251 234 272C225 293 217 316 207 342C197 368 187 394 177 422L173 424C171 425 168 427 165 429C158 434 153 440 149 447C145 454 144 462 144 469L144 470C144 472 146 475 147 479C148 483 150 487 152 491C141 522 130 553 120 583C110 613 100 640 91 666C88 676 84 683 80 689C76 695 71 699 67 702C63 705 59 708 55 710C51 712 46 715 42 717C38 719 35 723 32 726C29 729 26 734 24 741C22 749 20 757 20 763C20 770 22 777 25 782C30 790 39 794 52 794L59 794C67 793 73 791 79 788C85 785 91 780 96 776C101 772 105 767 108 762C111 757 114 751 116 746C118 741 121 733 125 724C129 715 132 704 136 692C140 680 145 667 150 654C155 641 159 627 164 614C169 601 172 588 176 576C180 564 184 554 187 545C189 549 193 554 198 560C203 566 208 574 214 582C220 590 226 598 232 607C238 616 245 624 251 632C255 637 261 644 267 651C273 658 280 666 288 675C296 684 303 693 312 702C321 711 330 720 338 729C358 750 378 771 400 794C382 764 366 737 351 711C344 700 338 688 331 677C324 666 318 656 312 646C306 636 301 628 297 620C293 612 289 605 287 601C282 592 275 582 269 571C263 560 257 550 251 540C244 529 238 518 231 506L223 489L223 484L223 480C223 478 224 477 225 476C229 473 231 468 233 464C235 460 235 456 235 452C235 448 235 445 234 443C233 441 233 438 232 437C231 434 230 431 228 429C232 417 235 405 239 393C243 381 246 371 250 361C254 351 257 341 261 333C265 325 270 319 274 314C277 310 281 306 286 304C291 302 296 299 301 297C306 295 312 293 317 290C322 287 326 284 331 280C336 276 340 272 343 266C346 260 349 252 350 243C351 238 351 234 351 229C351 223 350 216 349 211C347 203 343 196 338 191C333 186 327 184 321 182C316 181 312 180 307 180"/>
</svg>