<svg xmlns="http://www.w3.org/2000/svg" viewBox="0 0 466 1204">
  <path d="M212 180C205 181 199 183 194 186C189 189 186 194 183 199C180 204 177 209 176 215C175 221 174 227 174 232C174 240 175 246 176 251C177 256 178 260 179 264C180 268 182 271 184 274C186 277 188 281 190 285C192 289 193 295 195 301C197 307 198 316 199 326C200 332 200 340 200 352C200 364 202 377 202 390L202 430L202 464C168 464 141 463 119 462C97 461 80 459 68 455L67 455C65 454 62 454 60 454C58 454 55 453 53 454L37 460C32 463 28 465 26 469C24 473 22 477 21 481C20 485 21 490 21 495C21 500 22 504 23 509C27 529 38 543 56 550C60 552 64 556 67 562C70 568 71 576 73 583C75 590 75 597 76 604C77 611 78 615 78 617L103 794C109 767 113 742 116 720C119 698 120 680 121 664C121 656 122 649 122 642C122 633 122 623 121 615C121 594 119 575 117 556C115 537 111 519 106 503C118 504 133 504 149 504L165 504L236 504L295 504L312 504L341 504C331 538 327 574 327 615C326 623 326 633 326 642L326 664C327 680 328 698 331 720C334 742 339 767 345 794L370 617C370 615 370 611 371 604C372 597 372 590 374 583C376 576 378 568 381 562C384 556 387 552 392 550C410 543 421 529 425 509C426 504 427 500 427 495C427 490 427 485 426 481C425 477 423 473 421 469C419 465 416 463 411 460L395 454C389 453 383 453 378 455C369 456 354 459 330 461C306 463 278 464 245 464L245 435C245 422 246 408 246 392L246 342L246 294L246 254C246 243 245 236 245 232C245 228 244 222 243 216C242 210 240 204 237 199C234 194 231 190 227 186C223 182 218 180 212 180"/>
</svg>