<svg xmlns="http://www.w3.org/2000/svg" viewBox="0 0 630 1204">
  <path d="M285 180C281 180 277 180 272 182C263 185 257 193 253 206C250 214 249 223 249 232C249 237 250 243 251 248C253 263 259 278 268 294C270 298 271 304 273 313C275 322 276 333 277 346C278 359 279 373 280 389C281 405 281 422 281 439L266 424C194 351 154 304 145 283C136 262 126 244 114 228C102 212 89 199 74 190C63 183 53 180 45 180C42 180 39 180 37 181C23 186 20 197 20 204C20 212 24 224 30 237C38 253 68 285 119 336C147 363 173 391 198 416C223 441 248 465 271 489C220 540 169 590 119 639C53 704 20 750 20 775C20 777 20 780 21 782C27 790 35 794 43 794C49 794 56 792 63 788C79 778 93 761 105 737C117 713 157 667 223 599C235 586 247 573 260 560C273 547 286 533 300 519L341 560C354 573 366 586 378 599C444 667 484 713 496 737C508 761 523 778 539 788C546 792 552 794 558 794C566 794 574 790 580 782C580 780 581 778 581 776C581 751 548 705 482 639C456 614 431 589 406 564L331 489C354 465 378 441 403 416C428 391 455 363 483 336C534 285 563 253 571 237C577 224 580 214 580 205L580 199C578 190 573 184 564 181C562 180 559 180 556 180C548 180 539 183 528 190C513 199 499 213 487 228C475 244 466 262 457 283C448 304 407 351 335 424C333 426 332 428 330 430L324 436L324 373L324 309C324 300 325 291 325 283C325 267 325 254 324 243C323 226 320 214 317 208C311 195 305 187 297 183C293 181 289 180 285 180"/>
</svg>