<svg xmlns="http://www.w3.org/2000/svg" viewBox="0 0 552 1204">
  <path d="M96 180L90 180C83 180 77 181 72 182C67 183 62 185 59 187L55 190C52 192 49 195 45 198C41 201 37 206 32 212C27 218 24 226 22 235C20 244 20 252 22 261C27 279 34 294 41 306C48 318 56 327 64 334C72 341 80 345 88 347C96 349 104 351 112 350C130 349 149 341 169 328C177 320 183 312 187 303C192 291 193 279 193 274C193 264 189 253 182 240C181 239 179 235 176 230C173 225 169 220 164 214C159 208 151 202 143 196C135 190 126 186 115 183C108 181 102 180 96 180M404 180L398 180C391 180 385 181 380 182C375 183 370 185 367 187L363 190C360 192 357 195 353 198C349 201 345 206 340 212C335 218 332 226 330 235C328 244 328 252 330 261C335 279 342 294 349 306C356 318 364 327 372 334C380 341 388 345 396 347C404 349 412 351 420 350C438 349 457 341 477 328C485 320 491 312 495 303C500 291 500 279 500 274C500 264 496 253 489 240C488 239 487 235 484 230C481 225 477 220 471 214C465 208 459 202 451 196C443 190 434 186 423 183C416 181 410 180 404 180M96 624L90 624C83 624 77 624 72 626C67 628 62 629 59 631L55 634C52 636 49 639 45 642C41 645 37 650 32 656C27 662 24 669 22 678C20 687 20 697 22 706C27 724 34 739 41 751C48 763 56 771 64 778C72 785 80 789 88 791C96 793 104 795 112 794C130 793 149 785 169 772C177 764 183 756 187 747C192 735 193 723 193 718C193 708 189 696 182 684C181 683 179 679 176 674C173 669 169 664 164 658C159 652 151 646 143 640C135 634 126 630 115 627C108 625 102 624 96 624M404 624L398 624C391 624 385 624 380 626C375 628 370 629 367 631L363 634C360 636 357 639 353 642C349 645 345 650 340 656C335 662 332 669 330 678C328 687 328 697 330 706C335 724 342 739 349 751C356 763 364 771 372 778C380 785 388 789 396 791C404 793 412 795 420 794C438 793 457 785 477 772C485 764 491 756 495 747C500 735 500 723 500 718C500 708 496 696 489 684C488 683 487 679 484 674C481 669 477 664 471 658C465 652 459 646 451 640C443 634 434 630 423 627C416 625 410 624 404 624"/>
</svg>