<svg xmlns="http://www.w3.org/2000/svg" viewBox="0 0 567 1204">
  <path d="M77 180C71 180 65 180 59 181C47 184 36 192 27 205C23 215 21 223 21 229C21 235 21 240 23 245C25 250 28 255 32 259C36 263 40 268 44 273C48 278 52 285 56 293C60 301 63 310 65 322C67 337 69 356 71 377C73 398 75 421 77 445C79 469 81 493 83 518C85 543 86 567 87 588C88 609 89 628 90 644C91 660 91 671 91 678C91 688 89 699 87 710C85 721 83 731 81 741C79 751 78 760 78 769C78 778 82 785 88 791C89 792 89 791 90 792C92 793 95 794 98 794C108 794 117 793 124 792C131 791 137 789 143 787L231 791C280 793 324 794 364 794C381 794 397 793 414 793C431 793 446 792 460 791C474 790 486 788 495 786C504 784 511 781 513 778C518 771 522 764 524 756C526 748 526 741 525 734C524 727 522 719 517 713C512 707 505 701 497 697C487 692 479 689 471 690C463 691 455 694 448 698C441 702 436 707 431 714C426 721 422 729 419 736C418 740 416 742 410 744C404 746 398 747 389 748C380 749 370 749 359 749C348 749 337 749 326 748C315 747 304 747 293 746C282 745 272 743 263 742C254 741 248 741 243 740C238 739 234 739 234 739L190 733C194 727 198 719 203 710C208 701 214 693 220 683L238 653C244 643 251 632 257 622C271 599 286 576 301 551L346 473C348 470 351 464 357 455C363 446 369 435 376 423C383 411 391 398 400 385C409 372 416 358 424 346C432 334 439 323 445 314C451 305 456 299 459 295C466 293 473 290 481 289C489 288 496 286 503 284C510 282 515 278 519 274C523 270 526 265 526 257C526 249 524 243 519 239C514 235 509 233 503 231C496 229 488 228 480 228C419 233 365 236 316 237L267 237L255 237C235 237 217 236 201 235C185 234 171 232 161 230C151 228 145 225 144 221C142 214 136 206 127 199C118 192 107 185 95 182C89 180 83 180 77 180M115 281C152 285 189 288 225 289C240 290 256 290 273 290L293 290L323 290C339 290 356 288 372 287C388 286 402 284 415 281C410 285 403 294 393 307C383 320 370 337 356 358C342 379 326 404 309 431C292 458 273 487 254 519C235 551 214 585 194 620C174 655 153 691 133 727C134 711 135 692 135 671L135 650L135 604C134 580 133 555 132 530C131 505 129 481 128 457C125 401 121 342 115 281"/>
</svg>