<svg xmlns="http://www.w3.org/2000/svg" viewBox="0 0 796 1204">
  <path d="M135 384L133 384C121 384 107 388 92 397C91 398 87 400 81 404C75 408 69 413 62 419C55 425 48 433 41 443C34 453 29 464 25 477C22 487 21 496 21 505C21 514 22 522 24 528C26 534 28 538 30 542C32 546 34 548 34 548C36 551 39 555 43 560C47 565 52 570 59 575C66 580 76 584 87 587C93 588 98 589 104 589C109 589 114 589 119 588C141 582 158 573 172 565C186 557 196 547 204 538C212 529 217 519 220 509C223 499 224 490 224 481C223 459 214 435 198 412C189 403 179 396 168 391C159 387 148 385 135 384M399 384L396 384C384 384 371 388 357 397C356 398 352 400 346 404C340 408 333 413 326 419C319 425 312 433 305 443C298 453 293 464 290 477C287 487 286 496 286 505C286 514 287 522 289 528C291 534 292 538 294 542L297 548C300 551 303 555 307 560C311 565 317 570 324 575C331 580 339 584 350 587C361 590 372 590 382 588C404 582 422 573 436 565C450 557 460 547 468 538C476 529 481 519 484 509C487 499 488 490 488 481C487 459 478 435 462 412C453 403 443 396 432 391C423 387 412 385 399 384M663 384L661 384C649 384 635 388 620 397C618 398 615 400 609 404C603 408 597 413 590 419C583 425 576 433 569 443C562 453 557 464 553 477C550 487 549 496 550 505C551 514 551 522 553 528C555 534 556 538 558 542C560 546 562 548 562 548C564 551 567 555 571 560C575 565 581 570 588 575C595 580 604 584 615 587C621 588 627 589 633 589C638 589 642 589 647 588C669 582 686 573 700 565C714 557 725 547 733 538C741 529 745 519 748 509C751 499 752 490 752 481C751 459 742 435 726 412C717 403 708 396 697 391C688 387 676 385 663 384"/>
</svg>