<svg xmlns="http://www.w3.org/2000/svg" viewBox="0 0 464 1204">
  <path d="M415 180C404 185 392 190 379 195C366 200 351 206 336 212C321 218 305 224 289 231C273 238 256 245 240 253C226 260 212 267 198 275C184 283 170 292 156 300C142 308 130 314 117 321C104 328 93 333 83 337C74 334 66 331 58 331C50 331 43 332 37 334C31 336 27 339 24 343C21 347 20 352 21 357C22 362 26 368 32 374C38 380 47 386 59 392C76 401 92 409 108 418C124 427 139 434 155 442C171 450 188 458 204 466C220 474 237 480 254 487C237 494 220 500 204 508C188 516 171 523 155 531C139 539 124 548 108 556C92 564 76 572 59 581C47 587 38 594 32 600C26 606 22 611 21 616C20 621 21 626 24 630C27 634 31 637 37 639C43 641 50 642 58 642C66 642 74 640 83 637C93 640 104 645 117 652C130 659 142 666 156 674L198 698C212 706 226 714 240 721C256 729 273 736 289 743C305 750 321 756 336 762C351 768 366 774 379 779C392 784 404 789 415 794C371 759 326 725 281 693C236 661 188 630 138 603C171 585 205 566 238 545C271 524 304 505 338 487C304 469 271 450 238 429C205 408 171 388 138 370C188 343 236 313 281 281C326 249 371 215 415 180"/>
</svg>