<svg xmlns="http://www.w3.org/2000/svg" viewBox="0 0 579 1204">
  <path d="M76 180C71 180 67 181 61 182C55 183 51 185 46 189C37 196 30 203 26 210C22 217 20 224 20 233C20 239 22 244 25 248C28 252 33 255 38 257C43 259 51 261 58 262C65 263 73 263 81 263C98 263 113 260 126 254C139 248 149 241 157 233L159 231C160 230 161 230 163 229C165 228 168 228 171 228C174 228 178 227 184 227L214 227L235 227L248 227C248 233 247 243 248 255C249 267 249 280 250 294C251 308 251 322 252 336C253 350 253 361 253 372L253 398L253 438L253 487C253 504 252 522 252 539L252 590C252 606 251 620 251 633L251 664C251 672 250 676 250 677C249 679 250 683 249 688C248 693 248 698 248 704C248 710 247 717 247 724C247 731 248 738 248 744C247 745 242 745 235 745C228 745 222 746 214 746L184 746C178 746 174 745 171 745C168 745 165 745 163 744C161 743 160 743 159 742L157 740C149 732 139 725 126 719C113 713 98 710 81 710C73 710 65 711 58 712C51 713 43 714 38 716C33 718 28 722 25 726C22 730 20 735 20 741C20 750 22 757 26 764C30 771 37 777 46 784C51 788 57 791 62 792C67 793 71 794 76 794L472 794C476 794 479 793 483 792C486 791 488 791 492 790C496 789 499 786 502 784C511 777 518 771 522 764C526 757 527 750 527 741C527 735 525 730 522 726C519 722 514 718 509 716C504 714 497 713 490 712C483 711 475 710 467 710C450 710 435 713 422 719C409 725 399 732 391 740L389 742C388 743 387 743 385 744C383 745 380 745 377 745C374 745 370 746 364 746L334 746C326 746 319 745 312 745C305 745 301 745 300 744C300 738 301 731 301 724C301 717 300 710 300 704C300 698 300 693 299 688C298 683 298 679 297 677L297 664C297 656 296 646 296 633L296 590L296 540L296 487C296 469 295 453 295 438L295 398C295 387 294 379 294 373C294 362 295 350 296 336C297 322 297 308 298 294C299 280 300 267 300 255L300 227L312 227L334 227L364 227C370 227 374 228 377 228C380 228 383 228 385 229C387 230 388 230 389 231L391 233C399 241 409 248 422 254C435 260 450 263 467 263C475 263 483 263 490 262C497 261 504 259 509 257C514 255 519 252 522 248C525 244 527 239 527 233C527 224 526 217 522 210C518 203 511 196 502 189C497 185 491 182 486 181C481 180 477 180 472 180L364 180L184 180"/>
</svg>