<svg xmlns="http://www.w3.org/2000/svg" viewBox="0 0 587 1204">
  <path d="M20 180C38 185 54 191 68 196C82 201 95 207 105 213C115 219 124 225 132 232C140 239 147 245 153 253C159 261 166 269 171 278C176 287 182 297 188 307C196 322 203 337 210 352C217 367 222 383 227 399C232 415 236 434 239 452C242 470 245 490 246 511C245 545 240 574 231 598C222 622 211 641 198 657C194 662 189 667 184 672C179 677 173 680 168 683C163 687 158 692 152 695C145 698 138 699 132 699C126 699 120 698 114 697C108 696 101 696 94 696C87 696 80 698 72 700C62 704 53 709 46 715C43 718 39 721 36 724C33 727 31 731 29 736C27 741 26 746 25 751C24 756 24 762 25 769C26 776 28 781 32 785C36 789 41 791 46 792C51 793 57 794 64 794C71 794 77 792 84 791C100 788 118 783 138 774C162 762 185 745 206 725C216 716 223 707 230 697C237 687 243 676 248 666C253 656 257 645 261 634C265 623 268 611 272 599C277 583 280 567 282 551C284 535 286 518 286 502C289 537 296 570 308 603C320 636 335 666 354 695C366 714 378 729 391 742C404 755 418 765 433 773C448 781 465 786 484 789C502 792 523 794 546 794L551 794C524 786 502 778 484 769C466 760 452 751 440 741C428 731 417 720 409 708C401 696 393 683 384 667C376 652 368 637 362 622C356 607 350 590 345 574C340 558 336 540 333 522C330 504 327 484 326 463C327 428 333 399 342 375C351 351 362 332 375 316C379 311 383 306 388 302L403 290C408 286 414 283 420 279C427 276 434 275 440 275C446 275 452 275 458 276C464 277 470 278 477 278C484 278 492 276 500 274C510 270 519 265 526 259C532 254 538 247 543 238C546 232 548 224 548 215C548 212 548 208 547 204C546 197 544 193 540 189C536 185 531 182 526 181C521 180 515 180 508 180C501 180 495 181 488 182C472 185 454 190 434 199C410 211 387 229 366 249C356 258 349 267 342 277C335 287 329 297 324 307C319 317 315 329 311 340C307 351 304 363 300 375C295 391 291 407 289 423C287 439 286 455 286 471C283 436 276 402 264 370C252 338 237 307 218 278C206 259 194 244 181 231C168 218 154 208 139 200C124 192 107 187 88 184C70 181 49 180 26 180"/>
</svg>