<svg xmlns="http://www.w3.org/2000/svg" viewBox="0 0 672 1204">
  <path d="M146 180C142 180 137 180 133 182C124 185 119 193 114 206C111 214 110 223 110 232C110 237 110 243 111 248C114 263 120 278 129 294C134 302 137 318 139 343C132 341 124 340 116 338C108 336 99 333 90 331C81 329 70 326 59 323C48 320 34 317 20 313C28 321 37 329 47 336C57 343 70 350 86 356C92 359 100 362 110 365C120 368 129 370 140 373C141 382 142 392 142 402L142 412C142 419 141 426 141 434L141 527C141 558 140 588 139 619C132 618 125 616 117 614C109 612 100 610 91 607C82 604 71 601 59 598C47 595 34 592 20 588C28 596 37 604 47 611C57 618 70 626 86 632C92 635 100 637 109 640C118 643 129 645 139 648L139 665L139 678C139 746 149 785 169 794L175 794C190 794 199 788 203 776C205 771 206 765 206 759C206 749 203 738 198 726C193 714 189 691 187 659C190 660 193 660 196 661C199 662 201 662 203 663C231 669 258 674 284 677C310 680 334 683 357 684C378 685 397 686 415 686C417 686 419 685 421 685C440 685 457 685 472 684C473 749 483 785 503 794L508 794C523 794 533 788 537 776C539 771 540 765 540 759C540 749 537 738 532 726C530 721 527 715 526 707C525 699 523 690 522 680C525 679 529 679 531 679C533 679 535 678 537 678C539 678 541 677 542 677C547 676 552 675 559 673C566 671 572 669 579 666C586 663 592 659 597 656C602 653 607 650 609 648C623 634 629 621 629 607C629 603 628 598 627 594L618 579C606 569 595 564 585 564C579 564 574 566 569 569C556 578 548 591 546 609C545 614 542 618 537 621C532 624 526 626 519 628L519 609C519 603 518 595 518 588L518 502L518 405C522 404 525 404 528 404C531 404 534 404 536 403C538 403 540 403 542 402C547 401 552 400 559 398C566 396 572 393 579 390C586 387 592 384 597 381C602 378 607 374 609 372C623 358 629 345 629 331C629 327 628 322 627 318L618 303C606 293 595 288 585 288C579 288 574 290 569 293C556 303 548 316 546 334C545 339 542 343 537 346C532 349 526 352 519 353L519 331L519 309L519 283C519 267 519 254 518 243C517 226 515 214 512 208C506 195 500 187 492 183C485 179 476 179 467 182C458 185 452 193 448 206C445 214 443 222 443 231C443 237 444 242 445 248C447 263 454 278 463 294C468 304 472 325 474 359C461 360 444 362 424 363C406 364 386 365 364 365L357 365C332 365 305 364 276 362C247 360 216 357 185 352L185 330L185 309C185 302 186 295 186 289C186 246 183 219 178 208C173 195 166 187 158 183C154 181 150 180 146 180M185 383C189 384 191 384 194 385C197 386 201 386 203 387C232 393 259 398 285 401C311 404 336 406 359 408C379 409 397 410 414 410L423 410C443 410 460 410 475 409L475 434C475 501 474 568 473 635C460 636 443 637 423 638C405 639 385 640 363 640L356 640C331 640 305 639 276 637C247 635 216 632 185 627L185 609L185 588C185 558 184 527 184 493C184 459 185 422 185 383"/>
</svg>