<svg xmlns="http://www.w3.org/2000/svg" viewBox="0 0 459 1204">
  <path d="M57 180C53 180 49 180 44 182C35 185 29 193 25 206C23 213 21 220 21 227C21 234 21 241 22 248C24 263 30 278 39 294C48 309 52 351 52 421L52 434C52 473 51 512 51 550C51 588 50 627 49 665L49 676C49 745 60 785 80 794L85 794C100 794 110 788 114 776C116 771 117 765 117 759C117 749 114 738 109 726C104 713 99 688 97 650C100 649 103 646 106 642C110 636 111 630 110 625L110 617L110 609C112 604 115 598 119 593L134 578C136 575 142 570 152 563C162 556 174 548 187 539C200 530 215 520 230 510C245 500 260 491 274 482C288 473 300 464 310 457C320 450 328 445 331 442L347 427C349 425 351 422 353 420C355 418 356 415 358 413C358 417 359 420 359 423L359 434C359 473 358 512 357 550C356 588 357 627 356 665L356 678C356 746 366 785 386 794L392 794C407 794 416 788 420 776C422 771 423 765 423 759C423 749 421 738 415 726C406 706 401 660 401 588L401 505L401 460C401 414 401 363 402 309L402 289C402 246 400 219 395 208C389 195 383 187 375 183C367 179 359 179 350 182C341 185 336 193 331 206C328 214 327 223 327 232C327 237 327 243 328 248C331 263 336 278 345 294C348 299 351 309 353 323C351 324 349 326 347 327C345 328 344 329 343 331C339 337 338 343 339 349L339 357C338 359 338 362 339 364C338 366 337 369 336 372C335 375 333 377 331 380L315 396C313 399 307 403 297 410C287 417 275 426 262 435C249 444 234 454 218 464C202 474 188 484 174 493C160 502 148 510 138 517C128 524 122 528 119 531L102 547C101 548 100 549 99 551C98 553 96 554 95 556L95 481L95 441C95 400 95 356 96 309L96 283C96 267 96 254 95 243C94 226 92 214 89 208C83 195 77 187 69 183C65 181 61 180 57 180"/>
</svg>