<svg xmlns="http://www.w3.org/2000/svg" viewBox="0 0 509 1204">
  <path d="M400 180C394 180 389 180 385 182C381 184 378 187 376 190C374 193 371 196 370 199C369 202 368 206 368 209C368 212 367 216 367 218L367 221C362 221 356 220 347 220C338 220 326 219 314 219C302 219 288 218 274 218C260 218 245 217 230 216C212 215 195 216 178 215C161 214 146 214 132 213C125 212 119 212 114 212C109 212 104 211 100 211L95 211L92 211C90 201 86 194 79 190C72 186 64 185 57 185C48 185 39 186 33 190C24 195 20 204 20 216C20 223 22 231 26 240C30 249 35 258 44 268C47 271 50 279 53 291C56 303 59 319 61 337C63 355 64 376 65 399C66 422 67 447 67 472C67 492 67 512 66 533C65 554 64 575 63 595C62 615 59 636 57 655C55 674 53 693 50 710C49 714 48 718 45 721C42 724 39 727 36 731C33 735 29 739 26 743C23 747 21 751 21 757C21 766 26 775 37 785C43 791 50 794 58 794L59 794C64 794 69 794 75 792C81 790 86 787 92 785C98 783 105 780 111 778C117 776 124 774 131 772C136 771 143 770 154 769C165 768 177 768 191 768C205 768 220 767 237 767C254 767 270 766 287 766L336 766C352 766 367 765 380 765C393 765 405 764 415 763C425 762 432 761 436 760C445 757 452 753 457 746C462 739 464 732 464 724C464 716 462 709 456 702C450 695 441 690 430 688C426 687 422 687 419 687C416 687 413 686 410 686C402 686 396 687 391 689C386 691 382 694 379 698C376 702 374 705 373 709C372 713 372 716 372 719L372 723C360 722 345 722 325 722L284 722C270 722 255 723 240 723C225 723 211 724 196 724C181 724 167 724 154 725C141 726 129 727 119 727L94 727C96 725 98 722 99 718C100 714 101 710 101 705C104 658 107 616 108 578C109 540 111 506 111 476C111 440 109 410 108 384C107 358 105 337 103 320C101 303 98 290 96 280C94 270 92 263 90 258C96 258 105 259 117 259C129 259 143 260 158 260C173 260 190 261 207 261C224 261 241 262 258 262L307 262C322 262 336 263 347 263L364 263C369 263 373 262 376 262C385 261 394 261 404 261C414 261 422 260 431 258C440 256 448 252 454 247C460 242 464 235 464 225C464 224 464 222 463 219C462 213 459 207 455 202C451 197 445 193 439 190C433 187 426 184 419 182C412 180 406 180 400 180"/>
</svg>