<svg xmlns="http://www.w3.org/2000/svg" viewBox="0 0 149 1204">
  <path d="M57 176C53 176 48 176 44 178C35 181 29 190 25 203C22 211 20 220 20 229C20 234 21 239 22 244C25 259 30 274 39 290C47 305 52 348 52 418L52 431C51 508 51 585 50 662C50 667 49 672 49 677C49 744 60 781 80 790C82 790 83 791 85 791C100 791 110 784 114 772C116 767 117 761 117 755C117 745 114 734 109 722C105 712 101 697 99 674C97 651 96 621 95 585L95 502L95 457C95 411 95 360 96 305L96 286C96 243 94 215 89 204C84 192 77 184 69 180C65 178 61 176 57 176"/>
</svg>