<svg xmlns="http://www.w3.org/2000/svg" viewBox="0 0 667 1204">
  <path d="M313 180C309 180 305 180 300 182C291 185 285 193 281 206C278 214 277 223 277 232C277 237 277 243 278 248C280 263 287 278 296 294C304 309 308 348 308 412C282 411 256 409 228 406C200 403 171 398 141 392C134 391 126 389 118 387C110 385 102 383 92 380C82 377 72 375 60 372C48 369 35 365 20 361C28 369 37 377 47 384C57 391 70 398 86 404C93 407 101 410 111 413C121 416 133 419 144 422C155 425 165 427 176 429C187 431 196 433 203 435C222 439 240 442 257 445C274 448 292 450 308 452C308 475 307 499 307 522L307 591C282 590 255 587 227 584C199 581 171 577 141 571C134 570 126 568 118 566C110 564 102 562 92 559C82 556 72 554 60 551C48 548 35 544 20 540C28 548 37 556 47 563C57 570 70 577 86 583C93 586 101 590 111 593C121 596 133 598 144 601C155 604 165 607 176 609C187 611 196 612 203 614C221 618 239 621 256 624C273 627 290 629 306 631L306 648C306 654 305 659 305 665L305 676C305 745 316 785 336 794L341 794C356 794 366 788 370 776C372 771 373 765 373 759C373 749 370 738 365 726C358 711 354 681 352 635C377 637 400 638 420 638L431 638C454 638 475 636 491 635C510 634 527 632 542 629C547 628 552 627 559 625C566 623 572 620 579 617C586 614 592 611 597 608C602 605 607 602 609 600C623 586 629 572 629 558C629 554 628 549 627 545L618 531C606 521 595 515 585 515C579 515 574 517 569 520C556 530 548 543 546 561C545 564 544 567 542 569C540 571 537 573 533 575C529 577 525 578 521 579C517 580 512 581 508 582C495 584 481 586 465 587C451 588 435 590 416 591C401 592 384 592 367 592L352 592C352 591 351 591 351 590L351 588L351 525L351 456C376 458 397 459 418 459L430 459C454 459 473 457 490 456C510 455 527 453 542 450C547 449 552 448 559 446C566 444 572 441 579 438C586 435 592 432 597 429C602 426 607 423 609 421C623 407 629 393 629 379C629 375 628 371 627 367L618 352C606 342 595 336 585 336C579 336 574 338 569 341C556 350 548 364 546 382C545 385 544 388 542 390C540 392 537 394 533 396C529 398 525 399 521 400C517 401 512 402 508 403C495 405 481 407 465 408C451 409 434 411 415 412C400 413 383 413 366 413L351 413C351 397 352 379 352 362L352 309L352 283C352 267 352 254 351 243C350 226 348 214 345 208C339 195 333 187 325 183C321 181 317 180 313 180"/>
</svg>