<svg xmlns="http://www.w3.org/2000/svg" viewBox="0 0 153 1204">
  <path d="M56 180C52 180 47 180 43 182C34 185 28 193 24 206C21 214 20 222 20 231C20 236 21 242 22 247C24 261 30 275 39 291C47 306 51 350 51 422L51 429L51 457L51 469C51 471 50 473 50 474L50 479C50 481 49 485 49 491L49 519L49 532C49 598 58 636 78 645L84 645C98 645 108 639 112 627C114 622 114 617 114 611C114 601 112 590 107 578C98 559 94 514 94 444C94 431 93 421 93 414L93 398L93 386L93 372C93 366 94 358 94 348L94 306C94 299 95 292 95 286C95 244 92 218 87 207C82 195 76 187 68 183C64 181 60 180 56 180M60 719C57 719 54 720 52 721C47 723 45 724 45 724C44 725 42 727 40 728C38 729 37 731 35 734C33 736 31 739 30 743C29 747 30 751 31 755C33 763 36 770 39 775C42 780 45 784 49 787C53 790 56 792 60 793C64 794 67 794 70 794C78 793 86 790 95 784C99 781 101 777 103 773C104 769 105 766 105 761C105 756 103 751 100 746C100 745 99 744 98 742C97 740 94 737 92 734C90 731 87 728 83 726C79 724 76 722 71 721C67 720 63 719 60 719"/>
</svg>