<svg xmlns="http://www.w3.org/2000/svg" viewBox="0 0 415 1204">
  <path d="M350 180C344 180 337 181 330 185C324 188 317 193 311 199C305 205 299 211 295 217C284 218 273 218 262 219C253 220 243 220 232 221C221 222 212 222 204 223C200 224 194 224 187 224C180 224 171 225 162 226C153 227 143 226 132 227C121 228 110 228 100 229C75 230 48 231 20 233C46 239 71 245 94 250L124 256C134 258 144 260 153 262C162 264 171 266 179 267C187 268 194 269 199 269C210 270 220 271 228 272C236 273 244 273 250 274C257 275 263 275 268 275C261 285 252 297 239 312C226 327 210 343 191 362C182 371 175 377 171 381L162 390C160 392 159 393 158 393C157 393 157 394 155 396L146 405C142 409 135 415 126 424C113 437 100 452 89 468C78 484 68 501 60 517C52 533 45 549 40 563C35 577 32 589 31 598C31 609 31 619 32 629C33 638 34 647 35 657C36 667 38 675 41 682C47 698 56 714 66 728C76 742 88 753 102 763C116 773 132 781 150 786C168 791 187 794 208 794L207 794C206 794 206 794 204 793C210 794 217 795 224 794C231 793 238 791 244 790L265 784C288 775 306 763 323 747C340 731 353 713 362 693C371 673 377 651 378 628L378 621C378 601 374 580 366 560C358 539 347 521 333 505C319 489 302 477 284 467C266 457 246 452 225 449C218 448 211 447 204 447C190 447 176 450 162 453C168 446 175 437 183 429L210 402L231 381L242 370L251 361L261 351C265 347 271 342 278 335C285 328 295 318 308 306C346 269 368 244 373 231C376 223 378 215 378 209C378 206 377 203 376 200C374 192 369 186 360 182C357 181 354 180 350 180M208 794M194 489L209 489C229 491 247 496 263 504C279 512 293 522 305 535C317 548 325 562 331 577C335 589 338 601 338 613L338 624C336 639 332 653 326 666C320 679 311 691 302 701C293 711 283 718 273 723C267 725 261 726 257 726C253 726 249 726 246 725C243 724 239 724 236 723C233 722 231 723 227 723C220 724 212 725 205 728C198 731 191 736 185 741C183 744 182 747 181 749C180 751 179 754 178 756C177 758 178 761 178 764C178 767 179 771 180 776C182 780 184 784 187 786C190 788 193 790 197 791C192 790 187 788 179 786C171 784 163 781 155 777C147 773 139 770 132 765C125 760 119 755 114 749C109 743 103 736 99 730C95 724 91 717 87 710C83 703 80 695 77 686C74 677 70 668 67 657C64 647 63 637 63 626C63 621 63 615 64 610C66 594 71 578 78 563C85 548 95 535 107 523C119 511 132 503 147 497C163 492 179 489 194 489"/>
</svg>