<svg xmlns="http://www.w3.org/2000/svg" viewBox="0 0 331 1204">
  <path d="M156 180C142 180 129 183 115 188C97 194 81 203 67 216C53 229 42 243 34 259C26 275 22 292 21 310C21 313 20 316 20 319C20 334 23 350 28 365C33 378 40 392 49 403C58 414 68 424 80 432C92 440 105 447 119 452C132 456 146 458 160 458L162 458L159 458L164 458C168 458 172 459 176 458C185 457 195 455 206 451C224 445 240 436 254 423C268 410 278 396 286 380C294 364 299 347 300 328L300 318C300 303 297 288 292 273C286 255 277 240 264 226C251 212 237 202 221 194C205 186 187 181 169 180M157 224L166 224C179 225 191 228 202 233C213 238 222 247 231 256C240 265 246 276 250 288C254 299 256 311 256 322C256 339 253 351 250 358C246 368 241 377 234 384C227 391 220 397 212 401C207 402 202 403 199 403L191 403C189 403 186 401 184 401L177 401C171 402 165 403 159 405C153 407 148 412 143 416C140 419 138 422 137 426C136 430 136 435 138 443C139 447 141 450 144 452C147 454 150 455 153 456C147 454 140 452 134 450C126 447 118 443 109 437C100 431 91 424 83 415C79 410 75 406 72 401C69 396 66 391 64 386C62 381 59 374 57 368C55 362 52 354 50 345C49 339 48 334 48 328C48 322 48 316 50 310C53 298 59 286 66 276C73 266 83 256 94 248C105 240 117 233 129 229C138 226 148 224 157 224M156 515C142 515 129 518 115 523C97 529 81 538 67 551C53 564 42 578 34 594C26 610 22 627 21 646C21 649 20 652 20 655C20 670 23 686 28 701C33 714 40 727 49 738C58 749 68 760 80 768C92 776 105 782 119 787C132 791 146 794 160 794L162 794C161 794 160 793 159 793C161 793 162 794 164 794C168 794 172 794 176 793C185 792 195 790 206 787C224 781 240 771 254 759C268 747 278 732 286 716C294 700 299 683 300 664L300 654C300 639 297 624 292 609C286 591 277 575 264 561C251 547 237 537 221 529C205 521 187 516 169 515M157 559C160 559 163 560 166 560C179 561 191 564 202 569C213 574 222 582 231 591C240 600 246 611 250 623C254 634 256 646 256 657C256 674 253 686 250 693C246 703 241 712 234 720C227 728 220 733 212 736C207 737 202 738 199 738L191 738C189 738 186 737 184 737L177 737C171 737 165 739 159 741C153 743 148 747 143 751C140 755 138 758 137 762C136 766 136 771 138 779C139 783 141 785 144 787C147 789 150 791 153 792C147 790 140 789 134 786C126 783 118 779 109 773C100 767 91 759 83 750C79 745 75 741 72 736C69 731 66 726 64 721C62 716 59 709 57 703C55 697 52 690 50 681C49 675 48 669 48 663C48 657 48 651 50 645C53 633 59 621 66 611C73 601 83 592 94 584C105 576 117 569 129 565C138 562 148 559 157 559"/>
</svg>