<svg xmlns="http://www.w3.org/2000/svg" viewBox="0 0 669 1204">
  <path d="M328 180L318 180C309 180 299 180 290 181C265 183 240 190 215 199C190 208 166 222 144 238C122 255 102 274 86 295C70 316 56 340 46 364C36 388 28 414 24 440C21 457 20 474 20 491C20 501 21 509 22 519C24 546 30 572 39 598C48 624 60 649 76 672C89 690 105 707 124 723C143 739 164 753 187 764C210 775 233 783 258 788C275 792 292 794 309 794C317 794 325 794 333 793C305 785 277 774 250 761C238 755 227 749 214 742C201 735 189 725 177 716C165 707 152 697 141 685C130 673 120 660 110 646C89 616 75 584 68 550C64 530 62 510 62 490C62 476 63 461 65 447C70 413 82 381 99 351C116 321 140 295 169 273C198 251 229 236 262 229C281 225 299 223 318 223C332 223 346 224 360 226C392 231 423 244 452 262C481 280 505 304 526 334C547 364 561 397 568 431C572 451 575 470 575 490C575 505 573 519 571 534C568 551 564 566 558 580C552 594 546 608 539 619C532 630 523 641 515 650C507 659 499 667 492 674C487 679 482 682 476 686C470 690 465 693 460 696C454 699 449 702 443 705C436 707 429 708 423 707C417 706 410 706 404 704C398 702 392 701 385 700C378 699 371 699 363 701C353 704 343 708 335 713C331 715 328 718 325 721C322 724 319 728 316 732C313 736 312 741 310 746C308 751 308 757 308 764C308 771 310 776 313 780C316 784 321 787 326 789C331 791 337 793 344 793C351 793 357 794 364 793C380 792 398 788 419 782C444 773 468 760 492 742C513 726 532 708 548 688C564 668 577 647 587 624C598 599 606 573 611 546C614 527 616 509 616 490C616 482 616 473 615 465C613 438 607 412 598 385C589 358 576 333 560 309C544 286 525 266 505 249C485 232 462 218 439 207C416 196 391 188 366 184C353 182 341 180 328 180"/>
</svg>