<svg xmlns="http://www.w3.org/2000/svg" viewBox="0 0 778 1204">
  <path d="M345 180L334 180C324 180 314 180 304 181C277 183 249 190 222 199C195 208 171 221 147 237C128 250 110 267 94 287C78 307 64 328 52 351C40 374 31 399 26 425C22 443 20 460 20 478C20 486 21 494 22 502C30 473 40 445 54 417C60 405 66 393 74 380C82 367 90 354 100 341C110 328 121 316 133 304C145 292 158 282 173 272C204 251 238 235 273 228C293 224 314 222 334 222C349 222 364 223 379 225C414 230 447 243 478 261C509 279 536 303 558 333C580 363 595 395 603 429C608 449 610 468 610 487C610 501 608 516 606 530C602 555 594 580 582 603C570 626 556 647 537 667C532 660 526 652 522 644C518 636 514 627 511 618L511 616L505 598C505 593 506 591 507 589C508 587 509 586 511 585C515 583 519 580 522 576C525 572 526 568 527 564C528 560 529 558 529 555L529 548C529 545 529 541 528 538C527 533 525 530 522 527C519 524 516 522 513 520C510 518 506 517 503 516C500 515 496 513 492 512L484 510L478 510C476 510 473 511 469 512C462 514 454 518 449 524C444 530 440 537 438 545L437 546C436 553 435 561 435 569C435 581 437 594 441 607L441 609L450 630L450 632C455 642 462 652 470 663C478 674 489 685 501 697L498 700C497 701 496 701 495 702C464 723 430 738 395 745C375 749 354 751 334 751C319 751 304 750 289 748C272 745 256 741 241 735C226 729 213 723 201 715C189 707 178 699 169 691C160 683 151 675 144 667C139 662 135 657 131 651C127 645 124 639 121 634C118 628 115 621 112 615C110 608 109 601 110 595C111 589 113 582 114 576C115 570 116 563 117 556C118 549 118 543 116 534C113 523 109 513 104 504C99 497 93 491 84 485C76 479 66 476 53 476L51 476C44 476 39 479 35 482C31 485 27 490 25 495C23 500 22 506 21 513C20 520 20 527 21 534C22 551 26 570 32 591C37 604 43 617 50 630C57 643 65 655 74 667C90 689 109 708 129 724C149 740 172 753 196 764C222 776 248 784 276 789C296 792 315 794 335 794C343 794 352 794 360 793C388 791 416 785 443 776C470 767 497 753 521 736L533 728L561 753L563 754L599 780C603 782 608 784 614 786C620 788 627 789 634 790C641 791 648 791 656 792C664 793 672 794 680 794L698 794C710 794 724 794 737 793C717 787 697 780 677 771C660 763 641 754 621 742C601 730 583 715 566 699C592 673 612 644 627 611C642 578 650 545 653 510C654 502 654 495 654 487C654 460 650 433 643 406C633 371 617 339 594 308C577 285 557 265 535 248C513 231 489 217 464 206C439 195 413 188 386 184C372 182 359 180 345 180"/>
</svg>