<svg xmlns="http://www.w3.org/2000/svg" viewBox="0 0 466 1204">
  <path d="M103 180L78 357C77 359 77 364 76 370C75 376 75 384 73 391C71 398 70 405 67 411C64 417 61 422 56 424C38 432 27 444 23 464C21 474 20 483 21 492C22 501 28 509 37 514L52 519C58 520 63 519 69 518C73 517 80 517 88 516C96 515 105 514 117 513C129 512 142 512 156 511C170 510 186 509 202 509L202 538L202 582C202 598 201 614 201 631L201 680C201 695 202 708 202 719L202 742C202 747 203 752 204 758C205 764 207 769 210 774C213 779 216 784 220 788C224 792 229 794 235 794C242 794 248 792 253 788C258 784 262 780 265 775C268 770 270 764 271 758C272 752 273 747 273 742C273 734 273 727 272 722C271 717 269 713 268 709C267 705 265 702 263 699C261 696 260 692 258 688C256 684 254 678 252 672C250 666 249 657 248 647C247 641 247 633 247 621C247 609 246 596 246 583C246 570 245 556 245 543L245 509C279 509 306 510 328 511C350 512 367 514 379 518L379 519L380 519C385 520 390 520 395 519L410 514C415 511 419 508 421 504C423 500 425 496 426 492C427 488 427 484 427 479C427 474 425 469 424 464C420 444 409 432 391 424C386 422 383 417 380 411C377 405 375 398 374 391C373 384 372 376 371 370C370 364 370 359 370 357L345 180C339 208 334 232 331 254C328 276 327 294 326 310C326 318 325 326 325 333C325 342 325 350 326 358C326 379 327 399 330 417C333 435 336 453 341 470C327 470 312 469 295 469L282 469C259 469 235 470 211 470C189 470 171 469 153 469L142 469C128 469 117 470 106 470C111 453 114 435 117 417C120 399 121 379 121 358C122 350 122 341 122 332C122 325 121 318 121 310C120 294 119 276 116 254C113 232 109 208 103 180"/>
</svg>