<svg xmlns="http://www.w3.org/2000/svg" viewBox="0 0 231 1204">
  <path d="M96 180L91 180C84 180 77 181 72 182C67 183 62 185 59 187C56 189 55 190 55 190C52 192 49 195 45 198C41 201 36 206 32 212C27 218 24 225 22 234C20 243 20 252 22 261C27 279 34 294 41 306C48 318 56 327 64 334C72 341 80 345 88 347C96 349 104 351 112 350C130 349 149 341 169 328C177 320 183 312 187 303C192 291 193 279 193 274C193 264 189 253 182 240C181 239 179 235 176 230C173 225 169 220 164 214C159 208 151 202 143 196C135 190 126 186 115 183C108 181 102 180 96 180M96 401L91 401C84 401 77 402 72 404C67 406 62 407 59 409L55 411C52 413 49 417 45 420C41 423 36 428 32 434C27 440 24 448 22 457C20 466 20 475 22 484C27 502 34 516 41 528C48 540 56 549 64 556C72 563 80 567 88 569C96 571 104 573 112 572C130 571 149 563 169 550C177 542 183 534 187 525C192 513 193 501 193 496C193 486 189 475 182 462C181 461 179 457 176 452C173 447 169 441 164 435C159 429 151 424 143 418C135 412 126 407 115 404C108 402 102 401 96 401M96 624L91 624C84 624 77 624 72 626C67 628 62 629 59 631L55 634C52 636 49 639 45 642C41 645 36 650 32 656C27 662 24 669 22 678C20 687 20 696 22 705C27 723 34 738 41 750C48 762 56 771 64 778C72 785 80 789 88 791C96 793 104 795 112 794C130 793 149 785 169 772C177 764 183 756 187 747C192 735 193 723 193 718C193 708 189 697 182 684C181 683 179 679 176 674C173 669 169 664 164 658C159 652 151 646 143 640C135 634 126 630 115 627C108 625 102 624 96 624"/>
</svg>