<svg xmlns="http://www.w3.org/2000/svg" viewBox="0 0 542 1204">
  <path d="M398 180C391 180 384 180 379 182C374 184 370 185 367 187L362 189C360 191 357 195 353 198C349 201 344 206 340 212C335 218 332 226 330 235C328 244 328 253 330 262C335 280 342 294 349 306C356 318 363 327 371 334C379 341 388 345 396 347C404 349 412 351 420 350C438 349 457 341 477 328C485 320 490 312 494 303C499 292 500 279 500 274C500 263 496 252 489 240C488 239 487 235 484 230C481 225 477 220 471 214C465 208 459 202 451 196C443 190 434 186 423 183C414 181 405 180 398 180M96 180L90 180C83 180 77 182 72 183C67 184 62 185 59 187C56 189 55 190 55 190C53 192 49 195 45 198C41 201 36 206 32 212C27 218 24 226 22 235C20 244 20 253 22 262C27 280 34 294 41 306C48 318 55 327 63 334C71 341 80 345 88 347C96 349 104 351 112 350C130 349 149 341 169 328C177 320 183 312 187 303C192 291 193 279 193 274C193 264 189 253 182 240C181 239 179 235 176 230C173 225 169 220 163 214C157 208 151 202 143 196C135 190 126 186 115 183C108 181 102 180 96 180M250 401C248 401 246 402 244 402C237 402 231 402 226 404C221 406 216 407 213 409L209 412C206 414 203 417 199 420C195 423 191 428 186 434C181 440 178 448 176 457C174 466 174 475 176 484C181 502 188 517 195 529C202 541 210 549 218 556C226 563 234 567 242 569C250 571 258 573 266 572C284 571 303 563 323 550C331 542 337 534 341 525C346 513 346 501 346 496C346 486 342 474 335 462C334 461 333 457 330 452C327 447 322 442 317 436C312 430 305 424 297 418C289 412 280 408 269 405C262 403 256 401 250 401M96 624L90 624C83 624 77 624 72 626C67 628 62 629 59 631L55 634C53 636 49 639 45 642C41 645 36 650 32 656C27 662 24 670 22 679C20 688 20 696 22 705C27 723 34 738 41 750C48 762 55 771 63 778C71 785 80 789 88 791C96 793 104 795 112 794C130 793 149 785 169 772C177 764 183 756 187 747C192 735 193 723 193 718C193 708 189 697 182 684C181 683 179 679 176 674C173 669 169 664 163 658C157 652 151 646 143 640C135 634 126 630 115 627C108 625 102 624 96 624M404 624L398 624C391 624 384 624 379 626C374 628 370 629 367 631L362 634C360 636 357 639 353 642C349 645 344 650 340 656C335 662 332 670 330 679C328 688 328 696 330 705C335 723 342 738 349 750C356 762 363 771 371 778C379 785 388 789 396 791C404 793 412 795 420 794C438 793 457 785 477 772C485 764 490 756 494 747C499 736 500 723 500 718C500 707 496 696 489 684C488 683 487 679 484 674C481 669 477 664 471 658C465 652 459 646 451 640C443 634 434 630 423 627C416 625 410 624 404 624"/>
</svg>