<svg xmlns="http://www.w3.org/2000/svg" viewBox="0 0 659 1204">
  <path d="M328 180L318 180C309 180 299 180 290 181C265 183 240 190 215 199C190 208 167 221 145 238C123 255 104 274 87 295C70 316 56 340 46 364C36 388 28 414 24 440C21 457 20 474 20 491C20 501 21 509 22 519C24 546 30 572 39 598C48 624 60 648 76 671C89 689 105 707 124 723C143 739 164 753 187 764C210 775 233 783 258 788C275 792 293 794 310 794C318 794 325 794 333 793C305 785 277 775 250 762C238 756 226 749 214 742C202 735 189 725 177 716C165 707 153 697 141 685C129 673 119 660 110 646C89 616 75 583 68 549C64 529 62 510 62 491C62 476 63 462 65 447C70 413 82 381 99 351C116 321 140 295 169 273C198 251 228 236 261 229C280 225 299 223 318 223C332 223 346 224 360 226C393 232 423 244 452 262C481 280 505 304 526 334C547 364 561 397 568 431C572 451 574 471 574 490C574 505 573 519 571 534C568 551 564 566 558 580C552 594 546 607 539 619C532 631 523 641 515 650C507 659 499 667 492 674C487 679 482 682 476 686C470 690 465 693 460 696L442 705C435 707 428 708 422 707C416 706 410 704 404 703C398 702 392 701 385 700C378 699 371 699 363 701C352 703 343 707 335 712C331 714 328 718 325 721C322 724 319 728 316 732C313 736 310 741 309 746C308 751 308 757 308 764C308 771 310 776 313 780C316 784 321 787 326 789C331 791 336 792 343 793C350 794 357 794 364 793C380 792 398 788 419 782C445 772 469 759 492 742C513 726 532 708 548 688C564 668 576 647 587 624C598 599 606 573 611 546C614 528 615 510 615 491C615 482 615 474 614 465C612 438 607 411 598 385C589 359 576 333 560 309C544 286 526 266 505 249C484 232 462 218 439 207C416 196 391 188 366 184C353 182 341 180 328 180M318 423C309 423 301 425 293 428C285 431 279 436 273 442C267 448 262 454 259 462C256 470 254 478 254 487C254 496 256 503 259 511C262 519 267 526 273 532C279 538 285 543 293 546C301 549 309 551 318 551C327 551 335 549 343 546C351 543 357 538 363 532C369 526 374 519 377 511C380 503 382 496 382 487C382 478 380 470 377 462C374 454 369 448 363 442C357 436 351 431 343 428C335 425 327 423 318 423"/>
</svg>