<svg xmlns="http://www.w3.org/2000/svg" viewBox="0 0 698 1204">
  <path d="M664 180C659 198 652 216 644 235C637 251 628 268 617 287C606 306 594 324 579 341C573 330 567 319 560 309C544 286 526 266 505 249C484 232 462 218 439 207C416 196 391 188 366 184C350 181 334 180 318 180C309 180 299 180 290 181C265 183 240 190 215 199C190 208 167 221 145 238C123 255 102 274 86 295C70 316 56 340 46 364C36 388 29 414 25 440C22 457 20 474 20 491C20 500 21 511 22 520C24 546 30 572 39 598C48 624 60 648 76 671C89 690 105 707 124 723C143 739 164 753 187 764C210 775 233 783 258 788C275 792 293 794 310 794C318 794 325 794 333 793C305 785 277 775 250 762C238 756 227 750 214 742C201 734 189 726 177 717C165 708 153 697 142 685C131 673 120 660 110 646C100 631 91 615 84 599C77 583 72 567 68 550C64 533 62 515 62 498L62 492C62 477 63 462 65 447C70 413 82 381 99 351C116 321 139 295 168 273C197 251 228 236 261 229C280 225 298 223 317 223C331 223 346 224 360 226C393 231 423 244 452 262C481 280 506 304 527 334C531 340 535 347 538 353C541 359 545 366 548 372C539 379 530 385 520 391C510 397 501 402 490 405L489 405L488 406L469 412C464 412 461 411 460 410C459 409 457 408 456 406C454 402 451 398 447 395C443 392 439 390 435 389C431 388 429 388 426 388C423 388 421 387 419 387C416 387 413 388 410 389C405 390 401 392 398 395C395 398 393 401 391 404C389 407 388 410 387 413C386 416 384 421 383 425L381 433L381 439L381 443C381 444 382 447 383 448C385 456 389 462 395 467C401 472 407 477 415 479L417 479C425 481 432 481 440 481C452 481 465 480 478 476L481 475L502 466C521 457 542 441 565 419C571 443 575 466 575 490C575 504 573 519 571 534C568 551 564 566 558 580C552 594 546 608 539 619C532 630 524 641 516 650C508 659 499 667 492 674C487 679 483 682 477 686C471 690 465 693 460 696L442 705C435 707 429 708 423 707L405 704C399 703 393 701 386 700C379 699 371 699 363 701C353 703 343 708 335 713C328 718 322 724 316 732C311 740 308 749 308 761C308 767 308 774 313 780C316 784 321 787 326 789C331 791 336 792 343 793C350 794 357 794 364 793C380 792 399 788 419 782C445 772 470 759 493 742C514 726 533 708 548 688C563 668 577 647 587 624C604 587 613 547 615 506C615 500 616 495 616 489C616 454 610 419 598 385L624 355L625 354L651 318C653 314 655 308 657 302C659 296 660 289 661 282C662 275 662 268 663 260C664 252 665 244 665 236L665 215C665 204 664 192 664 180"/>
</svg>