<svg xmlns="http://www.w3.org/2000/svg" viewBox="0 0 561 1204">
  <path d="M323 180L314 180C305 180 295 180 286 181C262 184 239 189 216 197C193 205 171 216 150 230C129 244 111 261 94 279C77 297 64 318 52 341C40 364 33 387 27 413L26 413C25 415 25 418 25 420C25 422 24 425 24 427L23 427C22 436 21 446 21 456C21 466 20 477 20 487C20 497 21 508 21 518C21 528 22 537 23 546L24 547C24 550 25 552 25 554C25 556 25 559 26 561L27 561C33 587 40 611 52 633C64 655 77 676 94 695C111 714 129 729 150 743C171 757 193 769 216 777C239 785 262 791 286 793C295 794 305 794 314 794C329 794 345 793 361 790C375 788 389 785 402 781C415 777 428 772 440 766C447 763 453 760 460 756C466 753 472 748 478 744C484 740 490 735 495 730L496 729C502 723 508 715 511 706C514 697 516 689 515 679C514 670 513 661 509 653C505 645 500 639 494 633C488 627 480 623 472 620C464 617 455 616 446 616C437 617 427 618 418 622C409 626 401 631 393 637C385 643 380 651 375 659C370 667 368 676 369 685C369 691 370 696 372 701C373 706 375 710 378 715C381 720 386 724 392 728C397 731 400 732 404 732C408 732 411 732 414 730C417 728 419 726 421 723C423 720 425 718 426 715C427 712 428 708 428 704C428 700 428 697 427 694C426 691 424 688 422 684C420 680 418 677 419 672C420 668 421 665 424 662C427 659 430 657 433 655C436 653 440 652 443 651C446 650 448 650 450 651C457 652 463 655 468 660C473 665 475 670 475 676C475 681 474 687 471 691C468 695 466 698 463 701C459 704 455 708 450 711C442 717 433 723 420 728C407 733 394 738 378 741C362 744 345 747 327 748L312 748C299 748 286 748 273 746C255 744 236 739 218 733C200 727 182 717 166 705C140 686 118 663 100 635C82 607 70 576 64 542C63 531 62 521 61 512C60 503 60 495 60 487C60 479 60 471 61 462C62 453 63 443 64 432C70 398 82 367 100 339C118 311 140 287 166 268C182 256 200 247 218 241C236 235 255 231 273 228C286 226 298 225 311 225C316 225 322 226 327 226C345 227 362 229 378 232C390 235 402 239 412 243C410 242 407 242 404 242C400 242 397 243 392 246C386 250 381 254 378 259C375 264 373 268 372 273C370 278 369 283 369 289C368 298 370 307 375 315C380 323 385 331 393 337C401 343 409 348 418 352C427 356 437 358 446 358C455 359 464 357 472 354C480 351 488 347 494 341C500 335 505 328 509 320C513 312 514 304 515 295C516 285 514 276 511 267C508 258 502 251 496 245L495 244C490 239 484 233 478 229C472 225 466 221 460 218C453 214 447 211 440 208C428 202 415 197 402 193C389 189 375 186 361 184C348 182 335 180 323 180M412 243C415 244 418 245 420 246C433 251 442 256 450 262C455 265 459 269 463 272C466 275 468 279 471 283C474 287 475 292 475 297C475 303 473 309 468 314C463 319 457 321 450 322C448 323 446 323 443 322C440 321 436 321 433 319C430 317 427 315 424 312C421 309 420 306 419 302C418 297 420 293 422 289C424 285 426 282 427 279C428 277 428 273 428 269C428 265 427 262 426 259C425 256 423 253 421 250C419 247 417 246 414 244C413 244 413 243 412 243"/>
</svg>