<svg xmlns="http://www.w3.org/2000/svg" viewBox="0 0 444 1204">
  <path d="M202 180C199 180 196 181 193 182C184 185 177 193 173 206C171 212 170 219 170 226C170 233 170 241 171 248C172 255 174 262 177 270C180 278 183 286 188 294C197 310 201 354 201 427L201 434L201 448L201 461C186 461 170 460 154 460C138 460 121 460 103 459L91 459C63 459 46 461 39 466C31 471 26 479 23 487C21 495 20 503 22 511C24 520 28 526 37 531C46 535 55 536 64 533C73 531 84 525 94 516C104 507 132 503 179 503L183 503L192 503C195 503 197 504 200 504C199 531 199 557 199 584C199 611 199 638 198 665L198 680C198 747 208 785 229 794L235 794C249 794 258 788 263 776C265 771 265 765 265 759C265 749 263 738 258 725C250 706 245 660 244 588L244 548L244 504C259 504 273 505 288 505C303 505 317 505 332 506L340 506C407 506 415 481 415 471C415 456 411 445 403 441C400 439 396 439 392 439C386 439 379 442 371 447C359 455 329 459 283 460L264 460C258 460 251 461 244 461L244 388C244 363 245 336 245 309L245 285C245 245 243 219 238 208C232 196 226 187 218 183C213 180 207 180 202 180"/>
</svg>