<svg xmlns="http://www.w3.org/2000/svg" viewBox="0 0 589 1204">
  <path d="M507 180L503 180C498 181 492 183 484 188C480 190 476 192 473 196C470 200 468 204 465 209C462 214 460 218 458 223C456 228 456 232 456 237C456 242 455 246 455 249C455 252 454 256 453 259C452 262 451 267 450 270C449 273 446 277 444 282C441 287 436 294 428 303C420 312 410 322 399 335C388 348 375 362 360 377C345 392 329 409 312 427C308 431 305 435 301 439L289 451C275 437 262 423 250 410L214 371C152 304 115 258 105 234C95 210 83 193 67 184C61 181 55 180 49 180C39 180 30 185 22 195C21 198 20 201 20 205C20 232 50 276 109 337C133 362 158 387 182 412C206 437 231 462 255 487C231 512 206 537 182 562C158 587 133 612 109 637C50 698 20 741 20 768C20 772 21 776 22 779C30 789 39 794 49 794C55 794 61 792 67 789C83 780 95 763 105 739C110 727 122 710 140 687C158 664 183 637 214 603C238 577 262 550 289 522L312 547C329 565 345 582 360 597C375 612 388 625 399 638C410 651 420 662 428 671C436 680 441 687 444 692C446 697 449 701 450 704C451 707 452 711 453 714C454 717 455 721 455 725C455 729 456 733 456 737C456 742 456 746 458 751C460 756 462 760 465 765C468 770 470 773 473 777C476 781 480 784 484 786C492 790 498 793 503 794C508 795 513 794 518 792C520 791 523 789 526 787C529 785 532 783 534 780C536 777 539 775 541 772C543 769 544 766 545 764C546 761 546 757 546 753C546 745 544 736 540 725C534 709 506 677 458 627C434 602 410 577 388 554C366 531 344 509 323 487C344 465 366 442 388 419C410 396 434 372 458 347C506 297 534 265 540 249C544 238 546 228 546 220C546 216 546 213 545 210C544 208 543 205 541 202C539 199 536 197 534 194C532 191 529 189 526 187C523 185 520 183 518 182C514 180 511 180 507 180"/>
</svg>