<svg xmlns="http://www.w3.org/2000/svg" viewBox="0 0 567 1204">
  <path d="M331 180L321 180C312 180 303 180 294 181C270 184 247 189 224 197C201 205 179 216 158 230C137 244 119 261 102 279C85 297 72 318 60 341C48 364 40 387 34 413C33 415 32 418 32 420C32 422 32 425 31 427C30 434 29 443 29 451C29 459 28 467 28 476C25 479 23 484 22 488C20 494 20 501 21 510C22 516 25 521 29 524C29 528 30 532 30 536C30 540 30 543 31 546L31 547C32 550 32 552 32 554C32 556 33 559 34 561C40 587 48 611 60 633C72 655 85 676 102 695C119 714 137 729 158 743C179 757 201 769 224 777C247 785 270 791 294 793C303 794 313 794 322 794C337 794 353 793 369 790C383 788 396 785 409 781C422 777 435 772 447 766C454 763 460 760 467 756C473 753 479 748 485 744C491 740 497 735 502 730L504 729C510 723 514 715 518 706C522 697 524 689 523 679C522 670 521 661 517 653C513 645 507 639 501 633C495 627 488 623 480 620C472 617 463 616 454 616C445 617 435 618 426 622C417 626 409 631 401 637C393 643 388 651 383 659C378 667 376 676 377 685C377 691 377 696 379 701C380 706 383 710 386 715C389 720 393 724 399 728C404 731 408 732 412 732C416 732 419 732 422 730C425 728 427 726 429 723C431 720 432 718 433 715C434 712 436 708 436 704C436 700 435 697 434 694C433 691 431 688 429 684C427 680 426 677 427 672C428 668 429 665 432 662C435 659 438 657 441 655C444 653 447 652 450 651C453 650 456 650 458 651C466 652 471 655 476 660C481 665 483 670 483 676C483 681 482 687 479 691C476 695 473 698 470 701C467 704 463 708 458 711C450 717 441 723 428 728C415 733 401 738 385 741C369 744 353 747 335 748L320 748C307 748 293 748 280 746C262 744 244 739 226 733C208 727 190 717 174 705C148 686 126 663 108 635C90 607 78 576 72 542C71 534 70 527 69 520C70 519 72 518 73 517L76 514C83 506 103 503 137 503L144 503L151 503L158 503C157 515 156 528 156 542L156 548C156 562 158 570 162 574C166 578 172 581 178 582C185 583 191 584 197 583C199 583 201 581 203 580C205 579 207 578 209 576C211 574 212 572 213 570C214 568 215 565 215 562C215 557 214 551 213 546C212 541 208 537 201 533C197 531 195 527 193 523C191 519 191 513 191 504L223 504C234 504 245 504 256 505C258 505 259 506 261 506C311 506 318 485 318 474C318 461 315 452 309 448C303 443 294 445 285 453C275 461 253 465 219 465L205 465L190 465L190 449C190 443 191 438 191 432L191 424C191 411 189 402 185 399C180 395 175 392 169 391C162 390 156 390 150 391C147 392 143 394 139 398C135 402 133 406 133 412L133 420C133 423 134 425 135 427C136 429 136 432 138 434C140 436 143 439 146 441C149 443 152 446 154 449C156 452 156 458 156 465C133 465 109 465 83 464L69 464C70 459 70 454 70 449C70 444 71 438 72 432C78 398 90 367 108 339C126 311 148 287 174 268C190 256 208 247 226 241C244 235 262 231 280 228C293 226 306 225 319 225C324 225 330 226 335 226C353 227 369 229 385 232C401 235 415 241 428 246C441 251 450 256 458 262C463 265 467 269 470 272C473 275 476 279 479 283C482 287 483 292 483 297C483 303 481 309 476 314C471 319 466 321 458 322C456 323 453 323 450 322C447 321 444 321 441 319C438 317 435 315 432 312C429 309 428 306 427 302C426 297 427 293 429 289C431 285 433 282 434 279C435 277 436 273 436 269C436 265 434 262 433 259C432 256 431 253 429 250C427 247 425 246 422 244C419 242 416 242 412 242C408 242 404 243 399 246C393 250 389 254 386 259C383 264 380 268 379 273C377 278 377 283 377 289C376 298 378 307 383 315C388 323 393 331 401 337C409 343 417 348 426 352C435 356 445 358 454 358C463 359 472 357 480 354C488 351 495 347 501 341C507 335 513 328 517 320C521 312 522 304 523 295C524 285 522 276 518 267C514 258 510 251 504 245L502 244C497 239 491 233 485 229C479 225 473 221 467 218C460 214 454 211 447 208C435 202 422 197 409 193C396 189 383 186 369 184C356 182 343 180 331 180"/>
</svg>