<svg xmlns="http://www.w3.org/2000/svg" viewBox="0 0 503 1204">
  <path d="M400 180C394 180 389 180 385 182C381 184 377 187 375 190C373 193 371 197 370 200C369 203 368 206 368 209C368 212 367 216 367 218L367 221C362 221 356 220 347 220C338 220 326 219 314 219C302 219 289 218 274 218C259 218 245 217 230 216C212 215 195 215 178 214C161 213 145 214 132 213C125 213 120 212 114 212C108 212 104 211 100 211L96 211L92 211C91 206 89 201 87 198C85 195 82 192 79 190C76 188 72 187 68 186C64 185 60 185 57 185C52 185 48 185 44 186C40 187 37 189 34 190C30 192 26 195 24 200C22 205 20 210 20 216C20 223 22 231 26 240C30 249 35 258 44 268C47 271 50 279 53 291C56 303 59 319 61 337C63 355 64 376 65 398C66 420 67 444 67 469C66 470 66 470 65 470C64 470 65 470 64 471C58 476 54 482 52 489C50 495 50 502 51 510C53 518 57 524 63 528C64 529 64 528 66 529C65 561 64 592 61 623C58 654 54 683 50 709C49 713 48 718 45 721C42 724 39 728 36 731C33 734 29 739 26 743C23 747 21 752 21 758C21 766 27 776 37 786C40 789 44 791 47 792C50 793 54 794 58 794C63 794 68 793 74 791L92 785C98 783 104 780 111 778C118 776 124 774 131 772C136 771 144 770 154 769C164 768 177 768 191 768C205 768 220 767 237 767C254 767 270 766 287 766L336 766C352 766 368 765 381 765C394 765 405 764 415 763C425 762 432 761 436 760C445 757 452 753 457 746C462 739 464 732 464 724C464 716 461 709 455 702C449 695 441 690 430 688C426 687 422 687 419 687C416 687 413 686 410 686C402 686 396 687 391 689C386 691 382 695 379 698C376 702 374 705 373 709C372 713 372 716 372 719L372 723C366 722 359 722 351 722L325 722C306 722 285 722 262 723C239 724 218 723 196 724C174 725 154 725 136 726C118 727 104 727 94 727C96 724 98 722 99 718C100 714 101 710 102 705C105 667 106 632 107 600C108 568 109 538 110 511C115 508 124 506 134 505C143 504 153 503 165 503C167 503 170 504 173 504L187 504C187 510 186 516 186 522L186 546C186 562 188 571 192 575C197 579 201 582 207 583C214 584 221 584 227 583C229 583 230 582 232 581C234 580 236 579 238 577C240 575 241 572 242 570C243 568 244 565 244 562C244 557 243 552 242 547C241 542 238 537 231 533C227 531 225 528 223 524C221 520 221 513 221 504C232 504 242 505 253 505C264 505 274 505 285 506L291 506C341 506 348 485 348 474C348 461 345 453 339 449C332 445 324 446 315 454C305 462 282 465 248 465L234 465C229 465 224 466 219 466C219 461 220 455 220 449L220 432L220 425C220 412 219 403 215 400C210 396 205 393 199 392C192 391 185 390 179 391C176 392 172 394 168 398C164 402 162 406 162 412L162 420C162 423 163 426 164 428C165 430 166 433 168 435C170 437 173 439 176 441C179 443 181 446 183 449C185 452 186 459 186 466C163 466 138 465 112 464L110 464C110 430 109 402 108 378C107 354 104 334 102 318C100 302 98 288 96 279C94 270 91 263 89 258C95 258 105 259 117 259C129 259 143 260 158 260C173 260 190 261 207 261C224 261 241 262 258 262C275 262 292 263 307 263L347 263L364 263C369 263 372 262 375 262C384 261 393 261 403 261C413 261 422 260 431 258C440 256 447 252 454 247C461 242 464 235 464 225L464 222C464 221 463 219 463 218C462 212 459 207 455 202C451 197 445 193 439 190C433 187 426 185 419 183C412 181 406 180 400 180"/>
</svg>