<svg xmlns="http://www.w3.org/2000/svg" viewBox="0 0 634 1204">
  <path d="M310 180L304 180C296 179 290 180 283 183C276 186 271 188 268 192C263 197 257 209 249 227C241 245 232 267 222 293C212 319 201 348 189 380C177 412 167 445 155 478C143 511 132 545 121 577C110 609 99 639 90 666C87 676 83 683 79 689C75 695 71 700 67 703C63 706 58 709 54 711L42 717C38 719 35 723 32 726C29 729 26 735 24 741C22 749 20 757 20 763C20 771 22 777 25 782C30 790 39 794 51 794L58 794C67 794 77 791 88 786C99 781 111 774 123 765C132 758 150 753 178 749C206 745 245 742 295 741L304 741C311 741 318 742 327 742C340 743 356 744 373 745C390 746 408 748 428 750C448 752 468 756 488 759C495 761 501 764 507 767C513 770 519 774 524 777C529 780 534 783 540 786C546 789 551 790 558 790L565 790C578 790 587 786 592 778C595 773 596 766 596 759C596 752 595 745 593 737C591 731 588 725 585 722C582 719 578 715 574 713L562 707C558 705 553 702 549 699C545 696 540 692 536 686C532 680 528 673 525 663C518 643 510 620 502 597C494 574 485 550 476 525C467 500 458 476 449 451C440 426 431 401 422 378C413 355 404 333 396 312C388 291 380 273 373 256C366 239 360 225 354 214C348 203 344 196 341 192C338 188 333 185 326 183C321 181 316 180 310 180M305 293C312 296 319 299 325 302C331 305 336 308 340 313C345 318 349 326 354 335C359 344 363 354 367 366C371 378 376 390 380 403C384 416 387 430 391 443L419 517C428 542 437 566 445 590C448 600 452 610 456 621C460 632 463 643 467 654C471 665 474 675 478 685C482 695 486 704 489 712C468 711 449 710 432 709C425 708 418 707 411 707C404 707 397 706 391 706C385 706 380 705 376 705C372 705 369 704 368 704C350 703 332 703 314 703L294 703C270 704 246 705 225 706C204 707 185 709 168 711C151 713 137 715 127 717C130 709 133 700 136 690C139 680 143 669 147 658L159 625C163 614 166 603 169 593C177 569 186 543 194 518L221 444C224 431 228 418 232 405C236 392 240 379 244 367C248 355 252 345 256 336C260 327 265 319 270 313C274 308 280 305 286 302C292 299 298 296 305 293"/>
</svg>