<svg xmlns="http://www.w3.org/2000/svg" viewBox="0 0 524 1204">
  <path d="M63 180L60 180C54 181 48 185 43 189C38 193 34 198 31 204C28 210 25 217 23 224C21 231 20 238 20 244C20 250 21 254 23 259C25 263 28 267 31 269C34 271 37 273 40 274C43 275 48 276 51 276C54 276 57 277 59 277L62 277C62 280 61 289 61 302L61 351C61 370 60 391 60 414C60 437 59 459 59 481C59 503 58 522 58 540C58 558 57 573 57 583C56 601 57 618 56 635C55 652 55 667 54 681C53 688 53 695 53 700C53 705 52 710 52 714L52 719L52 722C47 723 42 724 39 727C36 730 33 733 31 736C29 739 28 742 27 746C26 750 26 754 26 757C26 762 26 766 27 770C28 774 30 778 31 781C33 785 36 789 41 791C46 793 52 794 58 794C65 794 72 793 81 789C90 785 99 779 109 770C116 763 131 758 153 754C175 750 207 747 247 746C253 746 262 746 273 747C284 748 295 749 309 750C323 751 337 753 353 755C369 757 385 761 401 764C407 766 411 769 415 772C419 775 422 778 425 781C428 784 431 787 435 789C439 791 443 793 449 793C458 793 468 787 478 777C484 771 486 764 486 756C486 751 485 746 483 740L477 722C475 716 473 710 470 703C467 696 466 690 464 683C463 678 462 670 461 659C460 648 460 636 460 622C460 608 459 593 459 576C459 559 458 543 458 526L458 480L458 417C458 394 457 371 457 347C457 323 456 302 456 282C456 262 455 246 454 232C453 218 453 210 452 207C449 198 445 192 438 187C431 182 424 180 416 180C408 180 400 182 393 188C386 194 382 202 380 213C379 217 378 221 378 224L378 234C378 248 381 259 389 265C392 268 396 270 400 271C404 272 408 272 411 272L414 272C413 278 413 285 413 293L413 320C413 329 414 342 414 357L414 409C414 428 415 448 415 469C415 490 416 512 416 534C416 556 417 576 417 596C417 616 418 635 418 652L418 695C418 707 419 715 419 720C414 719 408 718 401 717C394 716 387 715 379 714C371 713 363 713 355 712C347 711 339 711 332 711C325 711 319 710 314 710C309 710 306 709 304 709C287 708 271 708 255 708L235 708C212 709 192 710 173 712C154 714 139 715 126 718C113 721 105 723 100 725L100 698C100 685 101 670 101 652C101 634 102 613 102 591L102 523C102 500 103 476 103 453C103 430 104 408 104 388L104 334L104 297L104 280L104 268C103 259 103 250 103 240C103 230 101 221 99 212C97 203 94 196 89 189C84 182 76 180 66 180"/>
</svg>