<svg xmlns="http://www.w3.org/2000/svg" viewBox="0 0 436 1204">
  <path d="M398 180L397 181C374 200 348 218 320 234C308 241 295 247 281 254C267 261 253 266 237 272C221 278 205 282 188 286C171 290 154 292 136 293L130 293C126 293 122 294 116 295C110 296 104 297 97 298C90 299 84 301 77 304C70 307 65 310 59 314C53 318 48 322 45 327L44 329C42 331 41 334 40 336C39 338 37 340 36 343C35 346 35 349 34 352C34 353 33 354 33 357L33 363L33 369C33 374 33 378 35 382C37 386 39 390 42 393C45 396 49 399 53 401C57 403 61 403 66 403L72 403L76 403L80 403C83 402 87 400 91 396C96 392 99 387 99 379C99 378 100 377 100 375C100 373 101 372 102 370C103 368 104 366 105 365L109 361C111 360 113 360 115 360C117 360 120 360 122 361C124 362 127 363 130 364L273 485C255 526 238 563 220 597C212 611 203 625 195 639C187 653 179 667 170 679C161 691 152 701 144 709C136 717 128 723 120 726C115 722 108 720 98 720C97 720 96 719 95 719C86 719 76 721 65 725C58 727 51 730 45 733C39 736 35 740 31 744C27 748 24 751 22 755C20 759 20 763 21 766L21 767L22 768L22 769L23 770L24 771C29 778 37 783 46 787C55 791 64 793 74 794C84 795 93 793 103 791C113 789 122 785 130 780C140 773 152 763 163 751C174 739 185 724 197 709C209 694 220 678 231 661C242 644 254 627 264 610C288 571 312 530 335 485C340 478 342 471 341 466C340 462 339 458 334 454C329 450 323 447 317 447C313 447 308 446 304 445C300 444 294 442 287 436L279 428C269 418 258 407 247 397C236 387 227 377 218 369C209 361 202 353 196 348C190 343 187 340 186 340C192 338 199 335 206 332C213 329 220 327 228 324L265 307L267 307L302 286C309 282 316 277 323 271C330 265 338 258 345 251C352 244 360 237 366 229C372 221 378 214 383 208C388 202 392 197 395 192C398 187 399 184 399 182"/>
</svg>