<svg xmlns="http://www.w3.org/2000/svg" viewBox="0 0 595 1204">
  <path d="M47 180C41 180 36 182 33 185C30 188 27 192 25 197C23 202 22 207 21 213C20 219 21 225 21 231C22 246 24 262 29 280C37 303 48 325 63 345C77 364 92 380 109 394C126 408 144 418 164 427C180 434 195 440 212 444C229 448 246 450 263 451C263 464 262 476 262 488L262 525C240 528 219 535 198 543C177 551 157 562 138 576C119 589 103 604 89 620C75 636 63 654 53 673C43 692 35 711 30 731C25 751 22 771 21 791C32 766 44 741 59 718C65 708 72 698 79 688C86 678 95 667 103 657C111 647 120 638 130 629C140 620 149 612 159 605C175 594 192 585 209 578C226 571 244 566 262 563C262 580 261 597 261 614L261 665C261 670 260 676 260 681C260 748 271 785 291 794L297 794C311 794 320 788 325 776C327 771 327 765 327 759C327 749 325 738 320 726C311 707 306 661 306 589L306 575L306 560L320 560C325 560 329 561 334 562C349 564 363 567 375 572C387 577 398 583 408 589C418 595 427 603 435 610C443 617 449 624 455 630C459 634 463 639 466 644C469 649 472 653 474 658C477 663 480 668 482 674C484 680 484 686 483 692C482 698 481 703 480 708C479 713 477 719 476 725C475 731 476 738 477 745C479 754 482 763 487 770C491 776 496 782 503 787C510 792 519 795 531 794C537 794 541 792 545 789C549 786 551 782 553 777C555 772 556 767 557 761C558 755 558 749 558 743C557 728 554 712 549 694C541 671 530 648 515 628C502 609 486 594 469 580C452 566 434 555 414 546C397 538 379 533 361 529C343 525 325 523 306 523C306 511 305 499 305 487C305 475 306 462 306 449C329 446 352 440 375 432C398 424 419 413 440 398C459 385 475 369 489 353C503 337 515 320 525 301C535 282 543 263 548 243C553 223 557 202 558 182C546 207 533 232 519 255C513 265 506 276 499 286C492 296 483 306 475 316C467 326 457 336 448 345C439 354 429 361 419 368C402 381 383 391 364 398C345 405 326 410 306 412L306 363C306 346 307 329 307 311L307 292C307 249 305 222 300 211C294 198 288 190 280 186C272 182 264 182 255 185C246 188 240 196 236 209C234 216 232 222 232 229C232 236 232 243 233 250C234 257 236 265 239 273C242 281 246 288 251 296C259 310 262 350 263 414C260 414 256 413 253 413C250 413 246 413 243 412C228 410 215 406 203 401C191 396 180 390 170 384C160 378 151 371 143 364C135 357 128 349 122 343C118 339 115 335 112 330C109 325 106 320 104 315C101 310 98 304 96 299C94 293 94 287 95 282C96 277 97 271 98 265C99 259 101 254 102 248C103 242 102 235 101 228C99 219 97 210 92 203C88 197 82 191 75 186C68 181 59 179 47 180"/>
</svg>