<svg xmlns="http://www.w3.org/2000/svg" viewBox="0 0 290 1204">
  <path d="M80 180C73 181 68 181 64 183C59 186 54 191 51 197C50 198 50 198 50 199C50 200 49 200 48 201L48 203C47 204 47 204 47 205C47 206 46 206 46 207L45 208L45 211C45 212 44 213 44 214C42 223 40 232 40 242C39 256 39 272 39 293L39 309C40 363 40 414 40 460L40 505L40 589C39 661 36 706 28 725C23 737 20 749 20 759C20 765 21 770 23 775C27 787 35 794 48 794L54 794C73 785 81 746 81 677L81 665C80 589 80 512 79 434L79 403L79 376C84 387 91 396 97 404L121 434L122 435L148 462C153 467 159 473 167 478C175 483 183 487 191 492C199 497 209 501 217 505C225 509 233 513 240 516C247 519 253 521 257 522C261 523 263 525 264 524C236 497 211 469 188 440C178 428 168 415 158 401C148 387 139 373 131 359C123 345 117 330 111 316C105 302 102 287 100 274C100 273 99 271 99 269C98 266 98 262 99 257C99 255 99 253 100 252C101 251 101 250 102 249C103 248 103 247 104 247C108 246 112 244 115 241C118 238 120 235 121 232C122 229 123 227 124 225C125 223 125 220 125 219C125 219 126 216 125 211C124 206 121 200 116 194C112 190 108 187 104 185C100 183 96 182 92 181C89 180 85 180 82 180"/>
</svg>