<svg xmlns="http://www.w3.org/2000/svg" viewBox="0 0 581 1204">
  <path d="M271 180C267 180 262 180 258 182C249 185 243 192 239 205C236 213 235 221 235 230C235 235 236 241 237 246C239 260 245 275 254 291C259 300 262 321 264 353C257 354 251 354 244 354C237 354 229 353 223 352C211 350 200 349 191 347C182 345 174 341 168 339C162 337 157 335 155 334C151 332 146 330 140 327C134 324 128 320 122 317C115 313 109 308 102 304C93 297 86 292 82 287C78 282 76 277 76 274C76 271 77 268 79 265C81 262 83 259 86 256C89 253 92 248 94 244C96 240 97 235 97 228C98 218 96 209 94 202C92 196 88 190 82 185C76 180 68 179 57 180C50 181 45 183 40 186C35 189 32 193 29 197C26 201 24 206 23 211C21 221 20 228 20 231C20 242 22 255 26 268C27 275 31 283 37 292C43 301 52 309 62 318C72 327 85 335 99 343C113 351 129 358 146 364C163 370 182 375 202 378C216 380 230 381 245 381C252 381 259 380 266 380L266 402L266 427L266 440L266 453C230 453 191 453 149 452L134 452C102 452 81 454 73 459C64 464 57 470 54 478C51 486 52 494 54 503C56 512 62 518 72 522C82 526 92 526 103 524C114 522 125 516 137 507C149 499 182 495 237 495L243 495L254 495L265 495L265 547C265 564 265 581 264 598C244 602 222 607 201 615C180 623 158 634 136 648C115 661 96 675 79 690C72 697 65 703 58 711C51 719 46 726 40 735C34 744 29 753 26 762C23 771 21 781 21 791C31 778 42 765 55 752C66 740 79 729 95 715C111 701 130 687 150 674C171 661 191 651 210 643C229 635 248 630 264 626L264 652C264 657 263 662 263 667C263 732 273 769 293 778L299 778C313 778 322 772 326 760C328 755 329 750 329 744C329 734 326 723 321 711C315 696 311 666 309 620L319 620C329 620 338 621 346 622C357 624 368 626 376 628C384 630 391 633 397 635C403 637 407 639 409 640C413 642 418 644 424 647C430 650 436 654 442 657C449 661 455 665 462 669C471 676 478 682 482 687C486 692 488 696 488 699C488 702 487 706 485 709C483 712 481 715 478 718C475 721 472 726 470 730C468 734 467 739 467 746C466 756 468 765 470 772C472 778 476 784 482 789C488 794 496 795 507 794C514 793 519 791 524 788C529 785 532 781 535 777C538 773 540 768 541 763C543 753 543 745 543 742C543 731 542 719 538 706C537 699 533 692 527 683C521 674 514 666 504 657C494 648 482 640 468 632C454 624 440 617 423 611C406 605 388 600 369 597C354 594 338 593 321 593L308 593L308 577L308 538L308 496L362 496C380 496 397 496 415 497L426 497C477 497 505 488 512 468L512 462C512 448 507 439 498 435C494 433 490 432 486 432C479 432 470 435 461 440C446 449 412 453 358 453L333 453L308 453L308 415L308 374C327 370 347 365 367 357C387 349 408 339 429 326C450 313 468 299 485 284C492 277 499 271 506 263C513 255 519 248 524 239C529 230 535 221 538 212C541 203 543 193 544 183C534 196 522 208 509 221C498 233 485 245 469 259C453 273 435 286 415 299C395 311 376 322 358 329C340 336 325 342 309 346L309 326L309 306L309 286C309 244 307 218 302 207C296 195 290 187 283 183C279 181 275 180 271 180"/>
</svg>