<svg xmlns="http://www.w3.org/2000/svg" viewBox="0 0 667 1204">
  <path d="M628 180C611 188 591 196 569 205C547 214 525 222 500 232C475 242 450 252 423 263C396 274 370 286 343 299C320 310 297 322 274 336C251 350 227 363 205 376C183 389 162 400 142 411C122 422 103 431 86 436C78 433 71 432 65 432C59 432 55 433 50 435C40 439 33 447 28 456C23 465 20 475 20 487C20 499 23 509 28 518C33 527 40 535 50 539C55 541 59 542 65 542C71 542 78 541 86 538C103 543 122 551 142 562C162 573 183 585 205 598C227 611 251 624 274 638C297 652 320 664 343 675C370 688 396 700 423 711C450 722 475 732 500 742C525 752 547 760 569 769C591 778 611 786 628 794C557 737 485 683 412 631C339 579 263 531 184 488C263 444 339 395 412 343C485 291 557 237 628 180"/>
</svg>