<svg xmlns="http://www.w3.org/2000/svg" viewBox="0 0 447 1204">
  <path d="M192 446C187 446 182 446 177 447C172 448 167 452 163 459C161 463 158 465 154 467C150 469 134 469 134 469C134 469 108 470 95 470L79 470L62 470C59 470 57 469 55 469C42 469 33 471 30 475C26 480 23 485 22 491C21 494 20 498 20 501C20 504 20 507 21 510C22 513 24 518 28 522C32 526 36 528 42 528C45 528 47 527 50 527C53 527 55 527 57 526C59 525 62 524 64 522C66 520 69 517 71 514C73 511 76 509 79 507C82 505 95 504 95 504L135 504L172 504L178 504C192 504 201 502 205 498C209 494 211 489 212 483C213 476 214 469 213 463C213 461 212 460 211 458C210 456 208 454 206 452C204 450 202 448 200 447C198 446 195 446 192 446M407 447C402 447 397 447 392 448C387 449 383 453 379 460C377 464 373 466 369 468C365 470 350 470 350 470C350 470 324 471 311 471L295 471C289 471 283 470 277 470L270 470C257 470 248 472 245 476C241 481 238 486 237 492C236 495 236 499 236 502C236 505 236 508 237 511C238 514 239 518 243 522C247 526 252 529 258 529C261 529 263 528 266 528C269 528 271 527 273 526C275 525 278 525 280 523C282 521 284 518 286 515C288 512 292 510 295 508C298 506 311 505 311 505L350 504C350 504 374 505 388 505L394 505C408 505 416 503 420 499C424 495 427 489 428 483C429 476 429 470 428 464C428 462 427 460 426 458C425 456 424 454 422 452C420 450 417 449 415 448C413 447 410 447 407 447"/>
</svg>