<svg xmlns="http://www.w3.org/2000/svg" viewBox="0 0 274 1204">
  <path d="M184 180C178 180 171 181 166 185C161 189 158 195 156 203C153 216 153 225 156 231C159 237 162 241 167 243C173 245 179 246 187 244C186 253 186 261 186 269L186 278C186 289 187 299 188 308C189 318 190 328 192 337C190 335 189 334 186 333C184 332 181 331 178 330C175 329 171 327 166 326C159 324 150 324 141 325C132 326 123 328 114 330C104 332 93 334 82 337C83 325 84 314 85 303C86 293 87 283 87 273C87 263 88 254 87 247C86 239 85 231 85 223C85 215 84 207 82 200C80 193 77 188 72 184C67 180 60 179 51 180C46 181 42 183 37 188C32 193 29 198 26 204C23 210 22 216 21 222C20 228 21 233 23 237C25 241 28 243 32 245C36 247 39 247 43 248C48 249 53 249 58 248C56 264 55 279 54 291C53 296 53 301 52 306C51 311 50 316 50 320C50 324 49 327 49 329C49 331 48 333 48 333C41 334 36 336 33 339C30 342 27 347 26 351C25 355 25 359 26 364C27 369 28 372 30 375C32 378 35 379 39 381C43 383 48 384 54 384C60 384 67 383 74 380C81 377 87 372 93 365C95 363 98 361 105 358C112 355 120 353 129 352C138 351 145 350 153 351C161 352 167 354 171 359C175 364 180 368 187 372C194 376 199 378 206 380C213 382 219 382 225 381C231 380 234 376 236 371C238 366 239 360 239 355C239 350 238 346 236 340C234 334 232 328 230 321C228 314 225 307 223 299C221 291 220 282 219 273C218 264 217 255 217 246C217 237 217 228 216 220C215 212 214 205 212 199C210 193 206 188 201 185C196 182 190 180 184 180"/>
</svg>