<svg xmlns="http://www.w3.org/2000/svg" viewBox="0 0 582 1204">
  <path d="M489 323C484 323 480 325 475 328C469 331 465 335 461 339C457 343 454 348 452 352C450 356 449 361 448 365C447 369 447 374 447 378C447 388 448 399 452 409C455 417 460 423 464 428C468 433 472 438 477 442C482 446 486 450 490 455C494 460 498 465 500 472C501 478 502 485 502 492L502 512C502 519 501 526 500 532C496 552 489 573 476 595C463 617 444 640 419 663C402 675 386 687 370 696C354 705 338 713 322 720C306 727 290 733 274 738C258 743 242 747 225 750C213 752 202 754 192 755C182 756 172 758 162 758C152 758 142 757 132 755C122 753 111 750 100 746C89 742 77 736 64 729C51 722 36 714 20 703C36 723 52 739 67 752C82 765 97 774 113 781C129 788 145 792 163 793C169 794 176 794 183 794C195 794 209 794 223 792C250 789 277 782 304 774C331 766 357 755 381 741C405 727 427 710 448 691C469 672 487 651 503 627C510 616 517 605 523 595C529 585 534 574 539 564C544 554 549 544 552 532C555 520 557 508 558 495L558 474C558 467 557 459 557 452C556 438 554 425 551 411C545 390 538 373 530 359C527 353 523 347 519 342C515 337 511 332 506 329C501 326 496 324 491 323"/>
</svg>