<svg xmlns="http://www.w3.org/2000/svg" viewBox="0 0 212 1204">
  <path d="M128 26C110 26 97 32 87 39C77 46 72 55 69 61C66 68 62 80 60 88C45 88 35 91 28 98C21 106 18 124 24 134C26 138 34 144 34 144C34 144 30 137 30 133C29 126 35 119 42 116C49 113 59 113 69 113L155 113C157 118 162 123 170 123C180 123 187 116 191 106C195 96 196 84 193 72C188 48 173 36 159 31C145 26 131 26 128 26M128 50C140 50 149 53 156 58C163 63 167 69 168 73C169 76 169 79 169 81C169 83 168 85 166 88L77 88C80 81 83 75 86 70C95 56 113 50 128 50M165 89L165 90M104 180C89 180 80 186 75 198C70 212 71 229 80 248C85 258 88 274 90 297C92 320 94 349 95 385C96 424 95 467 95 513L95 565C94 628 91 666 82 680C72 696 66 711 63 726C60 741 61 754 66 767C70 780 77 789 87 792C96 795 105 795 113 791C121 787 128 777 137 776C148 775 155 783 168 788C183 793 200 794 200 794L220 794L220 743L200 743C184 743 173 738 164 728C148 712 143 688 143 665C142 611 141 514 141 513L141 487C142 427 142 368 143 309C145 233 134 190 111 180"/>
</svg>