<svg xmlns="http://www.w3.org/2000/svg" viewBox="0 0 769 1204">
  <path d="M265 282C265 282 22 318 20 564C18 791 214 794 223 794L248 794L575 794L658 794C658 794 684 795 707 763C730 795 768 794 768 794L788 794L788 743L768 743C750 743 722 729 729 703C742 659 731 613 712 575C704 561 693 542 677 540C665 539 648 553 641 569C632 591 637 616 641 627C653 660 676 662 685 691C688 714 691 740 660 743L575 743L248 743L223 743C223 743 67 743 71 564C76 325 265 282 265 282M368 845C365 845 361 846 357 847C352 848 349 850 345 853C341 856 338 858 335 861C332 864 331 866 330 868C329 870 327 871 327 872C324 878 323 883 323 888C323 893 324 897 325 901C327 905 329 909 333 912C342 918 350 921 358 922L361 922C364 922 366 922 369 921C373 920 376 918 380 915C384 912 387 907 390 902C393 897 395 890 398 882C399 878 400 874 399 870C398 866 396 863 394 860C392 857 390 855 388 854C386 853 385 851 384 850C384 850 382 849 377 847C375 846 371 845 368 845M455 845C452 845 448 846 444 847C439 848 436 850 432 853C428 856 425 858 422 861C419 864 418 866 417 868C416 870 414 871 414 872C411 878 410 883 410 888C410 893 411 897 412 901C414 905 416 909 420 912C429 918 437 921 445 922L448 922C451 922 453 922 456 921C460 920 463 918 467 915C471 912 474 907 477 902C480 897 483 890 486 882C487 878 487 874 486 870C485 866 483 863 481 860C479 857 477 855 475 854C473 853 472 851 471 850C471 850 469 849 464 847C462 846 458 845 455 845M404 922C401 922 397 922 393 923C388 924 384 926 380 929C376 932 374 934 371 937C368 940 367 943 366 945C365 947 363 948 363 949C360 955 358 960 358 965C358 970 360 974 361 978C363 982 365 986 369 989C378 995 386 998 394 999L396 999C399 999 402 999 405 998C409 997 412 995 416 992C420 989 423 984 426 979C429 974 431 967 434 959C435 955 436 951 435 947C434 943 432 940 430 937C428 934 426 932 424 931C422 930 421 928 420 927C420 927 417 925 412 923C410 922 407 922 404 922"/>
</svg>