<svg xmlns="http://www.w3.org/2000/svg" viewBox="0 0 204 1204">
  <path d="M96 487C92 487 87 489 83 492C78 495 73 499 70 503C67 507 64 511 62 516C60 521 59 526 58 530C57 534 57 539 57 543C57 553 59 562 62 573C65 581 68 588 72 593C76 598 81 603 85 607C89 611 93 615 97 620C101 625 104 631 106 638C108 651 108 663 108 677C108 743 81 743 81 743L-5 743L-5 794L79 794C79 794 159 794 159 660C159 611 156 568 134 523C131 517 127 511 123 506C119 501 115 496 111 493C107 490 103 488 98 487M61 845C58 845 54 846 50 847C45 848 41 850 37 853C33 856 31 858 28 861C25 864 24 866 23 868C22 870 20 871 20 872C17 878 15 883 15 888C15 893 17 897 18 901C20 905 22 909 26 912C35 918 43 921 51 922L53 922C56 922 59 922 62 921C66 920 69 918 73 915C77 912 80 907 83 902C86 897 88 890 91 882C92 878 92 874 91 870C90 866 89 863 87 860C85 857 83 855 81 854C79 853 78 851 77 850C77 850 74 849 69 847C67 846 64 845 61 845M148 845C145 845 141 846 137 847C132 848 128 850 124 853C120 856 118 858 115 861C112 864 111 866 110 868C109 870 107 871 107 872C104 878 102 883 102 888C102 893 104 897 105 901C107 905 109 909 113 912C122 918 130 921 138 922L140 922C143 922 146 922 149 921C153 920 156 918 160 915C164 912 167 907 170 902C173 897 175 890 178 882C179 878 180 874 179 870C178 866 176 863 174 860C172 857 170 855 168 854C166 853 165 851 164 850C164 850 161 849 156 847C154 846 151 845 148 845M97 922C94 922 90 922 86 923C81 924 77 926 73 929C69 932 67 934 64 937C61 940 59 943 58 945C57 947 56 948 56 949C53 955 51 960 51 965C51 970 53 974 54 978C56 982 58 986 62 989C71 995 79 998 87 999L89 999C92 999 94 999 97 998C101 997 105 995 109 992C113 989 116 984 119 979C122 974 124 967 127 959C128 955 128 951 127 947C126 943 125 940 123 937C121 934 119 932 117 931C115 930 114 928 113 927C113 927 110 925 105 923C103 922 100 922 97 922"/>
</svg>