<svg xmlns="http://www.w3.org/2000/svg" viewBox="0 0 217 1204">
  <path d="M111 640C94 641 87 660 85 674C82 696 80 721 64 738C56 745 45 742 36 743L-6 743L-6 794C15 794 37 795 58 794C80 792 100 778 112 760C126 781 150 796 176 794L229 794L229 743L165 743C149 738 144 719 140 705C134 686 139 664 126 648C122 643 117 640 111 640M70 845C67 845 63 846 59 847C54 848 51 850 47 853C43 856 40 858 37 861C34 864 33 866 32 868C31 870 29 871 29 872C26 878 25 883 25 888C25 893 26 897 27 901C29 905 31 909 35 912C44 918 52 921 60 922L63 922C66 922 68 922 71 921C75 920 78 918 82 915C86 912 89 907 92 902C95 897 97 890 100 882C101 878 102 874 101 870C100 866 98 863 96 860C94 857 92 855 90 854C88 853 87 851 86 850C86 850 84 849 79 847C77 846 73 845 70 845M157 845C154 845 150 846 146 847C141 848 138 850 134 853C130 856 127 858 124 861C121 864 120 866 119 868C118 870 116 871 116 872C113 878 112 883 112 888C112 893 113 897 114 901C116 905 118 909 122 912C131 918 139 921 147 922L150 922C153 922 155 922 158 921C162 920 165 918 169 915C173 912 176 907 179 902C182 897 185 890 188 882C189 878 189 874 188 870C187 866 185 863 183 860C181 857 179 855 177 854C175 853 174 851 173 850C173 850 171 849 166 847C164 846 160 845 157 845M106 922C103 922 99 922 95 923C90 924 86 926 82 929C78 932 76 934 73 937C70 940 69 943 68 945C67 947 65 948 65 949C62 955 60 960 60 965C60 970 62 974 63 978C65 982 67 986 71 989C80 995 88 998 96 999L99 999C102 999 104 999 107 998C111 997 114 995 118 992C122 989 125 984 128 979C131 974 133 967 136 959C137 955 138 951 137 947C136 943 134 940 132 937C130 934 128 932 126 931C124 930 123 928 122 927C122 927 119 925 114 923C112 922 109 922 106 922"/>
</svg>