<svg xmlns="http://www.w3.org/2000/svg" viewBox="0 0 775 1204">
  <path d="M265 282C265 282 22 318 20 564C18 791 214 794 223 794L248 794L575 794L658 794C658 794 684 795 707 763C730 795 768 794 768 794L788 794L788 743L768 743C750 743 722 729 729 703C742 659 731 613 712 575C704 561 693 542 677 540C665 539 648 553 641 569C632 591 637 616 641 627C653 660 676 662 685 691C688 714 691 740 660 743L575 743L248 743L223 743C223 743 67 743 71 564C76 325 265 282 265 282M443 282C437 282 430 287 428 293C427 304 441 310 440 321C425 370 402 417 369 457L350 457C310 457 307 440 307 438C307 440 308 476 350 476L369 476L392 476L479 476C480 481 483 487 491 487C498 487 504 481 507 476C510 470 512 464 512 457C512 450 512 444 511 437C501 390 456 388 450 388C441 388 434 390 427 393C442 368 457 340 460 311C460 302 459 290 451 285C449 283 446 282 443 282M450 407C474 407 490 426 492 437C494 443 495 450 489 457L385 457C405 434 418 411 450 407"/>
</svg>