<svg xmlns="http://www.w3.org/2000/svg" viewBox="0 0 245 1204">
  <path d="M130 180C124 180 118 184 116 190C115 201 128 207 127 218C112 267 90 314 57 354L37 354C-3 354-5 337-5 335C-5 337-5 374 37 374L57 374L80 374L166 374C167 379 171 384 179 384C186 384 191 379 194 374C197 368 200 361 200 354C200 347 199 342 198 335C188 288 144 286 138 286C129 286 122 287 115 290C130 265 145 237 148 208C148 199 146 187 138 182C136 180 133 180 130 180M138 304C162 304 178 324 180 335C182 341 183 347 177 354L72 354C92 331 106 308 138 304M96 487C92 487 87 489 83 492C78 495 73 499 70 503C67 507 64 511 62 516C60 521 59 526 58 530C57 534 57 539 57 543C57 553 59 562 62 573C65 581 68 588 72 593C76 598 81 603 85 607C89 611 93 615 97 620C101 625 104 631 106 638C108 651 108 663 108 677C108 743 81 743 81 743L-5 743L-5 794L79 794C79 794 159 794 159 660C159 611 156 568 134 523C131 517 127 511 123 506C119 501 115 496 111 493C107 490 103 488 98 487"/>
</svg>