<svg xmlns="http://www.w3.org/2000/svg" viewBox="0 0 227 1204">
  <path d="M152 384C146 384 139 389 137 395C136 406 150 412 149 423C134 472 111 519 78 559L59 559C19 559 16 542 16 540C16 542 17 579 59 579L78 579L102 579L188 579C189 584 193 589 201 589C208 589 213 584 216 579C219 573 221 566 221 559C221 552 221 547 220 540C210 493 166 491 160 491C151 491 144 492 137 495C152 470 166 442 169 413C169 404 168 392 160 387C158 385 155 384 152 384M160 509C184 509 199 529 201 540C203 546 204 552 198 559L94 559C114 536 128 513 160 509M113 640C96 641 89 660 87 674C84 696 82 721 66 738C58 745 47 742 38 743L-4 743L-4 794C17 794 39 795 60 794C82 792 102 778 114 760C128 781 152 796 178 794L231 794L231 743L167 743C151 738 146 719 142 705C136 686 141 664 128 648C124 643 119 640 113 640"/>
</svg>