<svg xmlns="http://www.w3.org/2000/svg" viewBox="0 0 601 1204">
  <path d="M500 436C497 436 494 436 491 437C487 438 484 440 480 443C476 446 473 450 470 455C467 460 465 467 462 475C461 479 460 483 461 487C462 491 464 494 466 497C468 500 470 503 472 504C474 505 475 507 476 508C476 508 479 509 484 511C486 512 489 512 492 512C495 512 499 512 503 511C508 510 512 508 516 505C520 502 522 500 525 497C528 494 529 491 530 489C531 487 533 486 533 485C536 479 538 475 538 470C538 465 536 461 535 457C533 453 531 448 527 445C518 439 510 437 502 436M448 512C445 512 443 513 440 514C436 515 433 516 429 519C425 522 422 527 419 532C416 537 413 544 410 552C409 556 409 560 410 564C411 568 413 571 415 574C417 577 419 580 421 581C423 582 424 583 425 584C425 584 427 586 432 588C434 589 438 589 441 589C444 589 448 589 452 588C457 587 460 585 464 582C468 579 471 577 474 574C477 571 478 568 479 566C480 564 482 563 482 562C485 556 486 551 486 546C486 541 485 538 484 534C482 530 480 525 476 522C467 516 459 513 451 512M535 512C532 512 530 513 527 514C523 515 520 516 516 519C512 522 509 527 506 532C503 537 501 544 498 552C497 556 496 560 497 564C498 568 500 571 502 574C504 577 506 580 508 581C510 582 511 583 512 584C512 584 514 586 519 588C521 589 525 589 528 589C531 589 535 589 539 588C544 587 547 585 551 582C555 579 558 577 561 574C564 571 565 568 566 566C567 564 569 563 569 562C572 556 573 551 573 546C573 541 572 538 571 534C569 530 567 525 563 522C554 516 546 513 538 512M87 568C49 571-116 794 280 794L614 794L614 743L546 742C546 742 562 722 557 692C553 670 537 640 485 640C452 640 428 661 419 692C410 722 424 743 424 743L280 743C-96 743 95 567 87 568M488 692C522 692 519 743 486 743C451 743 449 692 488 692"/>
</svg>