<svg xmlns="http://www.w3.org/2000/svg" viewBox="0 0 292 1204">
  <path d="M157 282C154 282 152 282 149 283C145 284 142 286 138 289C134 292 131 297 128 302C125 307 123 314 120 322C119 326 118 330 119 334C120 338 122 341 124 344C126 347 128 349 130 350C132 351 133 353 134 354C134 354 137 355 142 357C144 358 147 359 150 359C153 359 157 358 161 357C166 356 170 354 174 351C178 348 180 346 183 343C186 340 187 338 188 336C189 334 191 333 191 332C194 326 196 321 196 316C196 311 194 307 193 303C191 299 189 295 185 292C176 286 168 283 160 282M106 359C103 359 101 359 98 360C94 361 91 363 87 366C83 369 80 373 77 378C74 383 71 391 68 399C67 403 67 407 68 411C69 415 71 418 73 421C75 424 77 426 79 427C81 428 82 430 83 431C83 431 85 432 90 434C92 435 96 436 99 436C102 436 106 435 110 434C115 433 118 431 122 428C126 425 129 423 132 420C135 417 136 415 137 413C138 411 140 409 140 408C143 402 144 398 144 393C144 388 143 384 142 380C140 376 138 372 134 369C125 363 117 360 109 359M193 359C190 359 188 359 185 360C181 361 178 363 174 366C170 369 167 373 164 378C161 383 159 391 156 399C155 403 154 407 155 411C156 415 158 418 160 421C162 424 164 426 166 427C168 428 169 430 170 431C170 431 172 432 177 434C179 435 183 436 186 436C189 436 193 435 197 434C202 433 205 431 209 428C213 425 216 423 219 420C222 417 223 415 224 413C225 411 227 409 227 408C230 402 231 398 231 393C231 388 230 384 229 380C227 376 225 372 221 369C212 363 204 360 196 359M157 487C135 487 115 496 104 506C84 523 78 544 78 564C78 598 92 615 111 627C135 642 189 640 189 640C189 640 224 743 34 743L-14 743L-14 794L33 794C228 794 234 685 234 640C234 551 214 487 157 487M153 541L156 541C178 546 183 566 186 603C155 604 132 602 125 581C116 553 140 540 153 541"/>
</svg>