<svg xmlns="http://www.w3.org/2000/svg" viewBox="0 0 245 1204">
  <path d="M139 436C136 436 134 436 131 437C127 438 124 440 120 443C116 446 113 450 110 455C107 460 104 467 101 475C100 479 100 483 101 487C102 491 103 494 105 497C107 500 109 503 111 504C113 505 115 507 116 508C116 508 118 509 123 511C125 512 129 512 132 512C135 512 138 512 142 511C147 510 151 508 155 505C159 502 161 500 164 497C167 494 169 491 170 489C171 487 172 486 172 485C175 479 177 475 177 470C177 465 176 461 175 457C173 453 171 448 167 445C158 439 150 437 142 436M88 512C85 512 83 513 80 514C76 515 73 516 69 519C65 522 61 527 58 532C55 537 53 544 50 552C49 556 49 560 50 564C51 568 52 571 54 574C56 577 58 580 60 581C62 582 63 583 64 584C64 584 67 586 72 588C74 589 77 589 80 589C83 589 87 589 91 588C96 587 100 585 104 582C108 579 110 577 113 574C116 571 118 568 119 566C120 564 121 563 121 562C124 556 126 551 126 546C126 541 125 538 124 534C122 530 120 525 116 522C107 516 98 513 90 512M175 512C172 512 170 513 167 514C163 515 160 516 156 519C152 522 148 527 145 532C142 537 140 544 137 552C136 556 136 560 137 564C138 568 139 571 141 574C143 577 145 580 147 581C149 582 150 583 151 584C151 584 154 586 159 588C161 589 164 589 167 589C170 589 174 589 178 588C183 587 187 585 191 582C195 579 197 577 200 574C203 571 205 568 206 566C207 564 208 563 208 562C211 556 213 551 213 546C213 541 212 538 211 534C209 530 207 525 203 522C194 516 185 513 177 512M135 640C102 640 78 661 69 692C60 722 74 743 74 743L-12 743L-12 794L254 794L254 743L196 742C196 742 211 722 206 692C202 670 187 640 135 640M138 692C172 692 169 743 136 743C101 743 99 692 138 692"/>
</svg>