<svg xmlns="http://www.w3.org/2000/svg" viewBox="0 0 403 1204">
  <path d="M180 640C150 640 122 647 95 662C88 666 82 674 81 683C80 690 84 698 88 704C91 709 94 715 100 717C108 720 118 718 126 714C135 709 142 700 145 691C145 691 170 676 184 675C209 673 229 685 257 692C225 692 185 710 161 721C78 753 24 811 20 906C24 1135 274 1107 430 1091C304 1074 75 1088 70 906C70 821 112 792 176 755C177 754 179 754 180 753C197 768 233 794 284 794L410 794L410 743L282 743C263 743 246 744 225 734C257 724 291 717 316 712C324 710 352 730 362 708C368 694 361 686 353 680C348 676 342 676 335 674C320 669 300 670 278 664C242 649 210 640 180 640M169 845C166 845 162 846 158 847C153 848 149 850 145 853C141 856 139 858 136 861C133 864 131 866 130 868C129 870 128 871 128 872C125 878 123 883 123 888C123 893 124 897 125 901C127 905 129 909 133 912C142 918 150 921 158 922L161 922C164 922 166 922 169 921C173 920 176 918 180 915C184 912 187 907 190 902C193 897 196 890 199 882C200 878 200 874 199 870C198 866 197 863 195 860C193 857 191 855 189 854C187 853 185 851 184 850C184 850 182 849 177 847C175 846 172 845 169 845M256 845C253 845 249 846 245 847C240 848 236 850 232 853C228 856 226 858 223 861C220 864 218 866 217 868C216 870 215 871 215 872C212 878 210 883 210 888C210 893 211 897 212 901C214 905 216 909 220 912C229 918 237 921 245 922L248 922C251 922 253 922 256 921C260 920 263 918 267 915C271 912 274 907 277 902C280 897 283 890 286 882C287 878 287 874 286 870C285 866 284 863 282 860C280 857 278 855 276 854C274 853 273 851 272 850C272 850 269 849 264 847C262 846 259 845 256 845M204 922C201 922 197 922 193 923C188 924 185 926 181 929C177 932 175 934 172 937C169 940 167 943 166 945C165 947 164 948 164 949C161 955 159 960 159 965C159 970 160 974 161 978C163 982 165 986 169 989C178 995 186 998 194 999L197 999C200 999 202 999 205 998C209 997 212 995 216 992C220 989 223 984 226 979C229 974 232 967 235 959C236 955 236 951 235 947C234 943 232 940 230 937C228 934 227 932 225 931C223 930 221 928 220 927C220 927 218 925 213 923C211 922 207 922 204 922"/>
</svg>