<svg xmlns="http://www.w3.org/2000/svg" viewBox="0 0 391 1204">
  <path d="M136 640C106 640 77 647 50 662C43 666 36 674 35 683C34 690 38 698 42 704C45 709 49 715 55 717C63 720 72 718 80 714C89 709 97 700 100 691C100 691 126 676 139 679C168 686 173 736 201 743L24 743L-5 743L-5 794L22 794L236 794L271 794C300 794 312 824 333 794C345 777 333 759 322 751C315 746 307 745 297 742C277 736 255 733 237 723C199 702 201 640 136 640M102 845C99 845 95 846 91 847C86 848 82 850 78 853C74 856 72 858 69 861C66 864 64 866 63 868C62 870 61 871 61 872C58 878 56 883 56 888C56 893 58 897 59 901C61 905 63 909 67 912C76 918 84 921 92 922L94 922C97 922 100 922 103 921C107 920 110 918 114 915C118 912 121 907 124 902C127 897 129 890 132 882C133 878 133 874 132 870C131 866 130 863 128 860C126 857 124 855 122 854C120 853 119 851 118 850C118 850 115 849 110 847C108 846 105 845 102 845M189 845C186 845 182 846 178 847C173 848 169 850 165 853C161 856 159 858 156 861C153 864 152 866 151 868C150 870 148 871 148 872C145 878 143 883 143 888C143 893 145 897 146 901C148 905 150 909 154 912C163 918 171 921 179 922L181 922C184 922 187 922 190 921C194 920 197 918 201 915C205 912 208 907 211 902C214 897 216 890 219 882C220 878 220 874 219 870C218 866 217 863 215 860C213 857 211 855 209 854C207 853 206 851 205 850C205 850 202 849 197 847C195 846 192 845 189 845M138 922C135 922 131 922 127 923C122 924 118 926 114 929C110 932 108 934 105 937C102 940 100 943 99 945C98 947 97 948 97 949C94 955 92 960 92 965C92 970 93 974 94 978C96 982 98 986 102 989C111 995 120 998 128 999L130 999C133 999 135 999 138 998C142 997 146 995 150 992C154 989 157 984 160 979C163 974 165 967 168 959C169 955 169 951 168 947C167 943 166 940 164 937C162 934 160 932 158 931C156 930 155 928 154 927C154 927 151 925 146 923C144 922 141 922 138 922"/>
</svg>