<svg xmlns="http://www.w3.org/2000/svg" viewBox="0 0 342 1204">
  <path d="M141 640C111 640 83 647 56 662C49 666 43 674 42 683C41 690 45 698 49 704C52 709 56 715 62 717C70 720 79 718 87 714C96 709 103 700 106 691C106 691 131 676 145 675C170 673 190 685 218 692C186 692 152 706 122 721C79 743 31 743 31 743L-8 743L-8 794L29 794C82 794 105 775 141 753C158 768 194 794 245 794L350 794L350 743L243 743C224 743 207 744 186 734C218 724 252 717 277 712C285 710 313 730 323 708C329 694 322 686 314 680C309 676 303 676 296 674C281 669 261 670 239 664C203 649 171 640 141 640M99 845C96 845 92 846 88 847C83 848 79 850 75 853C71 856 69 858 66 861C63 864 61 866 60 868C59 870 58 871 58 872C55 878 53 883 53 888C53 893 55 897 56 901C58 905 60 909 64 912C73 918 81 921 89 922L91 922C94 922 97 922 100 921C104 920 107 918 111 915C115 912 118 907 121 902C124 897 126 890 129 882C130 878 130 874 129 870C128 866 127 863 125 860C123 857 121 855 119 854C117 853 116 851 115 850C115 850 112 849 107 847C105 846 102 845 99 845M186 845C183 845 179 846 175 847C170 848 166 850 162 853C158 856 156 858 153 861C150 864 148 866 147 868C146 870 145 871 145 872C142 878 140 883 140 888C140 893 142 897 143 901C145 905 147 909 151 912C160 918 168 921 176 922L178 922C181 922 184 922 187 921C191 920 194 918 198 915C202 912 205 907 208 902C211 897 213 890 216 882C217 878 217 874 216 870C215 866 214 863 212 860C210 857 208 855 206 854C204 853 203 851 202 850C202 850 199 849 194 847C192 846 189 845 186 845M135 922C132 922 128 922 124 923C119 924 115 926 111 929C107 932 105 934 102 937C99 940 97 943 96 945C95 947 94 948 94 949C91 955 89 960 89 965C89 970 90 974 91 978C93 982 95 986 99 989C108 995 117 998 125 999L127 999C130 999 132 999 135 998C139 997 142 995 146 992C150 989 154 984 157 979C160 974 162 967 165 959C166 955 166 951 165 947C164 943 163 940 161 937C159 934 157 932 155 931C153 930 152 928 151 927C151 927 148 925 143 923C141 922 138 922 135 922"/>
</svg>