<svg xmlns="http://www.w3.org/2000/svg" viewBox="0 0 356 1204">
  <path d="M156 282C150 282 143 287 141 293C140 304 154 310 153 321C138 370 115 417 82 457L63 457C23 457 20 440 20 438C20 440 21 476 63 476L82 476L106 476L192 476C193 481 197 487 205 487C212 487 217 481 220 476C223 470 225 464 225 457C225 450 225 444 224 437C214 390 170 388 164 388C155 388 148 390 141 393C156 368 170 340 173 311C173 302 172 290 164 285C162 283 159 282 156 282M164 407C188 407 204 426 206 437C208 443 208 450 202 457L98 457C118 434 132 411 164 407M124 564C116 564 108 565 102 570C90 579 79 591 78 609C76 624 88 635 98 643C119 658 140 672 161 687C180 702 226 743 226 743C226 743 181 736 130 756C58 784 20 850 20 850C20 850 99 808 142 799C202 783 261 794 322 794L369 794L369 743L342 743C304 743 277 723 243 692C226 677 203 658 186 643C173 633 167 624 166 611C165 595 156 582 145 572C139 567 132 564 124 564"/>
</svg>