<svg xmlns="http://www.w3.org/2000/svg" viewBox="0 0 231 1204">
  <path d="M141 487C138 487 136 487 133 488C129 489 126 491 122 494C118 497 115 501 112 506C109 511 106 519 103 527C102 531 102 535 103 539C104 543 106 546 108 549C110 552 111 554 113 555C115 556 117 558 118 559C118 559 120 560 125 562C127 563 131 564 134 564C137 564 141 563 145 562C150 561 153 559 157 556C161 553 163 551 166 548C169 545 171 543 172 541C173 539 174 537 174 536C177 530 179 526 179 521C179 516 178 512 177 508C175 504 173 500 169 497C160 491 152 488 144 487M90 564C87 564 85 564 82 565C78 566 75 568 71 571C67 574 64 578 61 583C58 588 55 595 52 603C51 607 51 611 52 615C53 619 54 622 56 625C58 628 60 631 62 632C64 633 65 635 66 636C66 636 69 637 74 639C76 640 79 640 82 640C85 640 89 640 93 639C98 638 102 636 106 633C110 630 112 628 115 625C118 622 120 619 121 617C122 615 123 614 123 613C126 607 128 603 128 598C128 593 127 589 126 585C124 581 122 576 118 573C109 567 100 565 92 564M177 564C174 564 172 564 169 565C165 566 162 568 158 571C154 574 151 578 148 583C145 588 142 595 139 603C138 607 138 611 139 615C140 619 141 622 143 625C145 628 147 631 149 632C151 633 152 635 153 636C153 636 156 637 161 639C163 640 166 640 169 640C172 640 176 640 180 639C185 638 189 636 193 633C197 630 199 628 202 625C205 622 207 619 208 617C209 615 210 614 210 613C213 607 215 603 215 598C215 593 214 589 213 585C211 581 209 576 205 573C196 567 188 565 180 564M144 692C111 692 97 727 110 743C124 761 125 763 132 773C136 779 139 784 141 790C143 796 143 803 143 810C143 816 144 822 144 829C144 836 143 843 142 849C138 869 131 891 118 913C105 935 86 957 61 980C44 992 27 1004 11 1013C-5 1022-21 1031-37 1038C-53 1045-68 1050-84 1055C-100 1060-116 1064-133 1067C-145 1069-156 1072-166 1073C-176 1074-186 1075-196 1075C-206 1075-216 1074-226 1072C-236 1070-247 1068-258 1064C-269 1060-282 1054-295 1047C-308 1040-322 1031-338 1020C-322 1040-306 1056-291 1069C-276 1082-261 1091-245 1098C-229 1105-213 1110-195 1111C-177 1112-158 1112-136 1109C-109 1106-81 1099-54 1091C-27 1083-2 1072 22 1058C46 1044 69 1028 90 1009C111 990 129 968 145 944C152 933 158 923 164 913C170 903 176 892 181 882C186 872 190 861 193 849C196 837 198 825 199 812C199 806 200 800 200 794L236 794L236 743L196 743C190 706 165 692 144 692"/>
</svg>