<svg xmlns="http://www.w3.org/2000/svg" viewBox="0 0 258 1204">
  <path d="M166 436C160 436 154 440 152 446C151 457 164 463 163 474C148 523 125 570 92 610L73 610C33 610 31 593 31 591C31 593 31 630 73 630L92 630L116 630L202 630C203 635 207 640 215 640C222 640 227 635 230 630C233 624 236 617 236 610C236 603 235 598 234 591C224 544 180 542 174 542C165 542 158 543 151 546C166 521 181 493 184 464C184 455 182 443 174 438C172 436 169 436 166 436M174 560C198 560 214 580 216 591C218 597 219 603 213 610L108 610C128 587 142 564 174 560M175 692C142 692 127 727 140 743C154 761 156 763 163 773C167 779 170 784 172 790C174 796 174 803 174 810C174 816 175 822 175 829C175 836 174 843 173 849C169 869 162 891 149 913C136 935 116 957 91 980C74 992 58 1004 42 1013C26 1022 10 1031-6 1038C-22 1045-37 1050-53 1055C-69 1060-85 1064-102 1067C-114 1069-125 1072-135 1073C-145 1074-156 1075-166 1075C-176 1075-186 1074-196 1072C-206 1070-217 1068-228 1064C-239 1060-251 1054-264 1047C-277 1040-291 1031-307 1020C-291 1040-276 1056-261 1069C-246 1082-231 1091-215 1098C-199 1105-182 1110-164 1111C-146 1112-127 1112-105 1109C-78 1106-51 1099-24 1091C3 1083 29 1072 53 1058C77 1044 99 1028 120 1009C141 990 160 968 176 944C183 933 189 923 195 913C201 903 207 892 212 882C217 872 221 861 224 849C227 837 229 825 230 812C230 806 231 800 231 794L266 794L266 743L227 743C221 706 196 692 175 692"/>
</svg>