<svg xmlns="http://www.w3.org/2000/svg" viewBox="0 0 830 1204">
  <path d="M589 319C581 319 575 321 569 326C564 331 559 338 552 341C432 388 339 472 279 539C166 666 230 692 338 692L650 692C699 692 722 704 731 743L184 743C-21 743 82 589 82 589C82 589-110 794 184 794L737 794C737 794 743 803 747 805C753 808 759 809 766 809C772 809 779 808 784 805C789 802 797 794 797 794L840 794L840 743L794 743C785 675 749 640 649 640L331 640C266 640 263 621 303 571C366 494 488 398 586 373C597 370 622 374 628 359C632 348 627 342 605 323C601 319 593 319 589 319"/>
</svg>