<svg xmlns="http://www.w3.org/2000/svg" viewBox="0 0 707 1204">
  <path d="M473 319C465 319 460 321 454 326C449 331 443 338 436 341C316 388 223 472 163 539C50 666 114 692 222 692L534 692C583 692 607 704 616 743L-34 743L-34 794L621 794C621 794 627 803 631 805C637 808 644 809 651 809C657 809 663 808 668 805C673 802 681 794 681 794L724 794L724 743L678 743C669 675 634 640 534 640L215 640C150 640 148 621 188 571C251 494 372 398 470 373C481 370 506 374 512 359C516 348 511 342 489 323C485 319 477 319 473 319"/>
</svg>