<svg xmlns="http://www.w3.org/2000/svg" viewBox="0 0 691 1204">
  <path d="M468 260C461 260 456 261 449 267C442 273 438 279 431 282C316 326 218 414 158 481C45 608 142 562 182 512C245 435 374 333 465 314C469 316 542 312 487 266C481 261 475 260 468 260M490 319C483 319 478 320 471 326C464 332 460 338 453 341C338 385 241 472 181 539C68 666 132 692 240 692L557 692C577 692 596 697 596 718C596 740 578 743 557 743L-16 743L-16 794L557 794C557 794 649 800 649 717C649 651 591 640 557 640L232 640C167 640 163 620 205 571C353 401 488 373 488 373C488 373 566 374 510 325C504 320 497 319 490 319"/>
</svg>