<svg xmlns="http://www.w3.org/2000/svg" viewBox="0 0 722 1204">
  <path d="M457 260C450 260 445 261 438 267C431 273 427 279 420 282C305 326 208 414 148 481C35 608 132 562 172 512C235 435 364 333 455 314C459 316 532 312 477 266C471 261 464 260 457 260M482 319C474 319 469 321 463 326C458 331 452 338 445 341C325 388 232 472 172 539C59 666 123 692 231 692L543 692C592 692 616 704 625 743L-25 743L-25 794L630 794C630 794 636 803 640 805C646 808 653 809 660 809C666 809 672 808 677 805C682 802 690 794 690 794L733 794L733 743L687 743C678 675 643 640 543 640L224 640C159 640 157 621 197 571C260 494 381 398 479 373C490 370 515 374 521 359C525 348 520 342 498 323C494 319 486 319 482 319"/>
</svg>