<svg xmlns="http://www.w3.org/2000/svg" viewBox="0 0 769 1204">
  <path d="M667 692C634 692 619 727 632 743C646 761 647 763 654 773C658 779 662 784 664 790C666 796 666 803 666 810L666 829C666 836 665 843 664 849C660 869 653 890 640 912C627 934 608 957 583 980C566 992 549 1004 533 1013C517 1022 501 1030 485 1037C477 1040 415 1064 355 1063C293 1062 232 1037 224 1032C208 1023 192 1013 178 1003C164 993 151 982 139 971C127 960 116 947 105 934C97 925 89 917 83 909C77 901 71 893 66 884C61 875 57 866 53 856C49 846 47 836 45 824C43 812 41 799 41 784C41 769 42 753 43 734C34 758 27 779 24 798C21 817 20 836 22 853C24 870 28 887 36 903C44 919 54 935 67 953C84 975 102 996 123 1015C144 1034 166 1050 190 1064C214 1078 239 1089 266 1098C291 1106 328 1112 355 1111C448 1111 537 1062 544 1058C568 1044 591 1028 612 1009C633 990 651 968 667 944C674 933 680 923 686 913C692 903 698 892 703 882C708 872 712 861 715 849C718 837 720 825 721 812C721 806 722 800 722 794L778 794L778 743L718 743C712 706 688 692 667 692"/>
</svg>