<svg xmlns="http://www.w3.org/2000/svg" viewBox="0 0 257 1204">
  <path d="M144 487C129 487 119 498 116 505C111 519 113 536 122 555C124 559 125 563 126 568C106 599 76 626 48 648C22 669 15 703 26 728C38 754 70 767 101 764C123 762 140 755 155 750C164 763 192 794 243 794L261 794L261 743L244 743C228 743 211 738 199 720C210 707 220 690 232 670C219 679 205 689 189 697C186 687 184 676 184 665C180 614 197 554 174 508C164 493 156 487 144 487M134 631C135 648 135 665 136 680C137 692 138 705 141 717C112 726 76 732 66 710C54 683 113 660 134 631"/>
</svg>