<svg xmlns="http://www.w3.org/2000/svg" viewBox="0 0 419 1204">
  <path d="M161 487C141 487 120 492 103 509C82 530 88 576 118 574C147 572 144 559 149 545C154 533 174 521 189 524C228 533 275 568 293 602C313 639 322 710 303 738C284 766 245 798 183 784C165 780 156 767 149 763C151 762 157 757 159 756C178 743 206 723 207 694C208 673 197 656 184 643C171 630 154 620 133 621C112 622 96 634 84 648C72 662 65 677 65 697C65 712 68 726 74 739C63 741 49 743 36 743C15 744-10 743-10 743L-10 794C-10 794 15 795 38 794C60 793 86 791 108 784C126 800 147 813 170 819C229 834 300 813 335 761C371 707 355 636 328 587C301 537 249 503 196 491C185 489 173 487 161 487M136 673C150 672 156 697 138 714C134 717 125 722 120 725C115 716 115 706 116 697C117 691 118 687 123 681C127 676 132 673 136 673"/>
</svg>