<svg xmlns="http://www.w3.org/2000/svg" viewBox="0 0 421 1204">
  <path d="M153 487C133 487 112 493 95 510C74 531 80 576 110 574C139 572 136 559 141 545C146 533 166 521 181 524C220 533 267 568 285 602C305 639 313 710 294 738C275 766 237 799 175 785C157 781 148 768 141 764C143 763 148 758 150 757C169 744 198 723 199 694C200 673 189 656 176 643C163 630 146 621 125 622C104 623 88 634 76 648C64 662 56 678 56 698C56 713 60 727 66 740C55 742 28 743 28 743L-18 743L-18 794L28 794C28 794 78 793 100 785C118 801 138 814 161 820C213 834 276 818 314 777C336 794 391 794 391 794L432 794L432 743L391 743C391 743 364 743 341 731C356 683 341 628 319 588C292 538 241 503 188 491C177 489 165 487 153 487M129 674C142 675 148 699 130 715C126 719 116 723 111 726C106 717 107 707 108 698C109 692 110 687 115 681C119 676 124 674 128 674"/>
</svg>