<svg xmlns="http://www.w3.org/2000/svg" viewBox="0 0 0 1204">
  <path d="M66 282C63 282 59 282 55 283C50 284 47 286 43 289C39 292 36 294 33 297C30 300 29 303 28 305C27 307 25 308 25 309C22 315 20 320 20 325C20 330 22 334 23 338C25 342 27 346 31 349C40 355 48 358 56 359L59 359C62 359 64 359 67 358C71 357 74 355 78 352C82 349 85 344 88 339C91 334 93 327 96 319C97 315 98 311 97 307C96 303 94 300 92 297C90 294 88 292 86 291C84 290 83 288 82 287C82 287 80 285 75 283C73 282 69 282 66 282M153 282C150 282 146 282 142 283C137 284 134 286 130 289C126 292 123 294 120 297C117 300 116 303 115 305C114 307 112 308 112 309C109 315 108 320 108 325C108 330 109 334 110 338C112 342 114 346 118 349C127 355 135 358 143 359L146 359C149 359 151 359 154 358C158 357 161 355 165 352C169 349 172 344 175 339C178 334 180 327 183 319C184 315 185 311 184 307C183 303 181 300 179 297C177 294 175 292 173 291C171 290 170 288 169 287C169 287 167 285 162 283C160 282 156 282 153 282"/>
</svg>