<svg xmlns="http://www.w3.org/2000/svg" viewBox="0 0 0 1204">
  <path d="M110 282C107 282 105 282 102 283C98 284 95 286 91 289C87 292 84 297 81 302C78 307 76 314 73 322C72 326 71 330 72 334C73 338 75 341 77 344C79 347 81 349 83 350C85 351 86 353 87 354C87 354 89 355 94 357C96 358 100 359 103 359C106 359 110 358 114 357C119 356 122 354 126 351C130 348 133 346 136 343C139 340 140 338 141 336C142 334 144 333 144 332C147 326 148 321 148 316C148 311 147 307 146 303C144 299 142 295 138 292C129 286 121 283 113 282M59 359C56 359 54 359 51 360C47 361 44 363 40 366C36 369 33 373 30 378C27 383 24 391 21 399C20 403 20 407 21 411C22 415 24 418 26 421C28 424 29 426 31 427C33 428 35 430 36 431C36 431 38 432 43 434C45 435 49 436 52 436C55 436 59 435 63 434C68 433 71 431 75 428C79 425 81 423 84 420C87 417 89 415 90 413C91 411 92 409 92 408C95 402 97 398 97 393C97 388 96 384 95 380C93 376 91 372 87 369C78 363 70 360 62 359M146 359C143 359 141 359 138 360C134 361 131 363 127 366C123 369 120 373 117 378C114 383 111 391 108 399C107 403 107 407 108 411C109 415 111 418 113 421C115 424 117 426 119 427C121 428 122 430 123 431C123 431 125 432 130 434C132 435 136 436 139 436C142 436 146 435 150 434C155 433 158 431 162 428C166 425 168 423 171 420C174 417 176 415 177 413C178 411 179 409 179 408C182 402 184 398 184 393C184 388 183 384 182 380C180 376 178 372 174 369C165 363 157 360 149 359"/>
</svg>