<svg xmlns="http://www.w3.org/2000/svg" viewBox="0 0 0 1204">
  <path d="M110 794C107 794 105 794 102 795C98 796 95 798 91 801C87 804 84 809 81 814C78 819 76 826 73 834C72 838 71 842 72 846C73 850 75 853 77 856C79 859 81 861 83 862C85 863 86 865 87 866C87 866 89 867 94 869C96 870 100 871 103 871C106 871 110 870 114 869C119 868 122 866 126 863C130 860 133 858 136 855C139 852 140 850 141 848C142 846 144 845 144 844C147 838 148 833 148 828C148 823 147 819 146 815C144 811 142 807 138 804C129 798 121 795 113 794M59 871C56 871 54 871 51 872C47 873 44 875 40 878C36 881 33 885 30 890C27 895 24 903 21 911C20 915 20 919 21 923C22 927 24 930 26 933C28 936 29 938 31 939C33 940 35 942 36 943C36 943 38 944 43 946C45 947 49 948 52 948C55 948 59 947 63 946C68 945 71 943 75 940C79 937 81 935 84 932C87 929 89 927 90 925C91 923 92 921 92 920C95 914 97 910 97 905C97 900 96 896 95 892C93 888 91 884 87 881C78 875 70 872 62 871M146 871C143 871 141 871 138 872C134 873 131 875 127 878C123 881 120 885 117 890C114 895 111 903 108 911C107 915 107 919 108 923C109 927 111 930 113 933C115 936 117 938 119 939C121 940 122 942 123 943C123 943 125 944 130 946C132 947 136 948 139 948C142 948 146 947 150 946C155 945 158 943 162 940C166 937 168 935 171 932C174 929 176 927 177 925C178 923 179 921 179 920C182 914 184 910 184 905C184 900 183 896 182 892C180 888 178 884 174 881C165 875 157 872 149 871"/>
</svg>