<svg xmlns="http://www.w3.org/2000/svg" viewBox="0 0 0 1204">
  <path d="M66 794C63 794 59 794 55 795C50 796 47 798 43 801C39 804 36 806 33 809C30 812 29 815 28 817C27 819 25 820 25 821C22 827 20 832 20 837C20 842 22 846 23 850C25 854 27 858 31 861C40 867 48 870 56 871L59 871C62 871 64 871 67 870C71 869 74 867 78 864C82 861 85 856 88 851C91 846 93 839 96 831C97 827 98 823 97 819C96 815 94 812 92 809C90 806 88 804 86 803C84 802 83 800 82 799C82 799 80 797 75 795C73 794 69 794 66 794M153 794C150 794 146 794 142 795C137 796 134 798 130 801C126 804 123 806 120 809C117 812 116 815 115 817C114 819 112 820 112 821C109 827 108 832 108 837C108 842 109 846 110 850C112 854 114 858 118 861C127 867 135 870 143 871L146 871C149 871 151 871 154 870C158 869 161 867 165 864C169 861 172 856 175 851C178 846 180 839 183 831C184 827 185 823 184 819C183 815 181 812 179 809C177 806 175 804 173 803C171 802 170 800 169 799C169 799 167 797 162 795C160 794 156 794 153 794M102 871C99 871 95 871 91 872C86 873 82 875 78 878C74 881 72 883 69 886C66 889 64 892 63 894C62 896 61 897 61 898C58 904 56 909 56 914C56 919 58 922 59 926C61 930 63 935 67 938C76 944 84 947 92 948L94 948C97 948 100 947 103 946C107 945 110 944 114 941C118 938 121 933 124 928C127 923 129 916 132 908C133 904 133 900 132 896C131 892 130 889 128 886C126 883 124 880 122 879C120 878 119 877 118 876C118 876 115 874 110 872C108 871 105 871 102 871"/>
</svg>