<svg xmlns="http://www.w3.org/2000/svg" viewBox="0 0 0 1204">
  <path d="M66 282C64 282 62 282 60 283C52 286 45 288 40 291C35 294 31 297 28 301C25 305 23 309 22 313C21 316 20 318 20 321C20 322 21 322 21 323C22 331 24 339 30 348C33 352 38 354 42 356C46 357 49 359 54 359C59 359 64 357 70 354C71 354 72 353 74 352C76 351 79 349 82 346C85 343 87 341 90 337C93 333 95 329 96 324C97 320 97 316 97 313C97 310 97 307 96 305C94 300 92 297 92 297C91 296 90 295 89 293C88 291 85 289 82 287C79 285 76 284 72 283C70 283 68 282 66 282M66 369C64 369 62 369 60 370C52 373 45 375 40 378C35 381 31 384 28 388C25 392 23 396 22 400C21 403 20 405 20 408C20 409 21 409 21 410C22 418 24 427 30 436C33 440 38 442 42 444C46 445 49 446 54 446C59 446 64 444 70 441C71 441 72 440 74 439C76 438 79 436 82 433C85 430 87 428 90 424C93 420 95 416 96 411C97 407 97 403 97 400C97 397 97 394 96 392C94 387 92 384 92 384C91 383 90 382 89 380C88 378 85 376 82 374C79 372 76 371 72 370C70 370 68 369 66 369"/>
</svg>