<svg xmlns="http://www.w3.org/2000/svg" viewBox="0 0 0 1204">
  <path d="M63 794C58 794 54 796 48 799C47 799 46 800 44 801C42 802 39 804 36 807C33 810 31 812 28 816C25 820 23 824 22 829C21 833 20 837 20 840C20 843 21 846 22 848C24 853 25 856 25 856C26 857 28 858 29 860C30 862 32 864 35 866C38 868 41 869 45 870C49 871 53 871 57 870C65 867 73 864 78 861C83 858 87 855 90 851C93 847 95 844 96 840C97 837 97 835 97 832L97 830C96 822 93 813 87 804C84 800 80 798 76 796C72 795 68 794 63 794M63 881C58 881 54 883 48 886C47 886 46 887 44 888C42 889 39 891 36 894C33 897 31 899 28 903C25 907 23 911 22 916C21 920 20 924 20 927C20 930 21 933 22 935C24 940 25 943 25 943C26 944 28 945 29 947C30 949 32 951 35 953C38 955 41 956 45 957C49 958 53 958 57 957C65 954 73 952 78 949C83 946 87 942 90 938C93 934 95 931 96 927C97 924 97 922 97 919L97 917C96 909 93 900 87 891C84 887 80 885 76 883C72 882 68 881 63 881"/>
</svg>