<svg xmlns="http://www.w3.org/2000/svg" viewBox="0 0 243 1204">
  <path d="M202 436C199 436 197 435 195 436C187 438 186 445 179 449C158 459 135 463 113 468C82 475 20 487 20 487C20 487 92 486 149 481C185 478 214 470 218 467C227 460 226 452 223 445C220 438 210 436 202 436M202 487C199 487 197 486 195 487C187 489 186 496 179 500C158 510 135 514 113 519C82 526 20 538 20 538C20 538 92 538 149 533C185 530 214 521 218 518C227 511 226 504 223 497C220 490 210 487 202 487M0 743L0 794L256 794L256 743"/>
</svg>