<svg xmlns="http://www.w3.org/2000/svg" viewBox="0 0 0 1204">
  <path d="M82 16L80 16C79 16 78 16 77 17L74 20C73 22 72 24 72 25C72 26 73 29 74 30C75 32 77 33 79 34L85 37L88 37L91 37L94 37C95 37 97 38 99 39C102 41 104 43 106 46C108 49 109 52 110 56C110 58 111 63 111 66C111 71 109 77 108 80C106 84 104 88 101 92C98 95 95 99 92 101C91 101 91 100 90 100C88 99 87 98 85 96C82 93 78 90 76 87C74 84 72 81 71 78C70 75 69 71 68 68C68 73 68 78 70 83C72 88 75 93 78 97C80 100 82 103 85 105C82 106 80 107 77 107C70 108 62 106 55 105C53 105 50 104 48 103C46 102 45 101 43 100C41 99 39 98 37 96C34 93 31 90 29 87C27 84 25 81 24 78C23 75 21 71 20 68C20 73 21 78 23 83C25 88 28 93 31 97C34 101 38 105 42 108C46 111 51 113 56 115C63 117 70 119 77 118C84 117 91 116 97 113C99 114 102 114 104 115C111 117 118 119 125 118C132 117 138 116 144 113C150 110 156 107 161 102C166 97 169 91 171 85C173 79 174 72 174 66C174 61 173 56 172 51C170 45 167 39 163 34C159 29 153 24 147 21C143 19 139 18 136 17C135 17 133 16 132 16L130 16L128 16C127 16 125 16 124 17L121 20C120 22 119 24 119 25C119 26 120 29 121 30C122 32 125 33 127 34L133 37L136 37L138 37L141 37C142 37 144 38 146 39C149 41 151 43 153 46C155 49 156 52 157 56C157 58 158 63 158 66C158 71 156 77 155 80C153 84 151 88 148 92C145 96 142 100 138 102C134 104 129 106 124 107C119 108 113 107 108 106C110 105 111 104 113 102C118 97 122 91 124 85C126 79 127 72 127 66C127 61 126 56 125 51C123 45 120 39 116 34C112 29 106 24 100 21C96 19 92 18 89 17C88 17 85 16 84 16"/>
</svg>