<svg xmlns="http://www.w3.org/2000/svg" viewBox="0 0 0 1204">
  <path d="M45 605C42 605 39 606 37 608C35 610 32 613 30 616C28 619 27 623 26 627L23 639C21 649 20 659 20 670C21 689 24 707 31 723C38 739 47 753 58 764C69 775 82 783 97 788C112 793 130 794 130 794L148 794L148 743L131 743C115 743 98 741 84 733C76 728 71 720 67 712C63 704 62 695 61 686C61 681 61 677 62 674C63 671 64 667 65 665C66 663 66 661 67 659C68 657 69 655 70 652C71 647 71 640 71 634C71 628 69 622 67 616C65 612 62 609 59 607C56 605 52 605 45 605"/>
</svg>