<svg xmlns="http://www.w3.org/2000/svg" viewBox="0 0 0 1204">
  <path d="M80 16L78 16C77 16 75 16 74 17C73 18 73 19 72 20C71 22 70 24 70 25C70 26 71 29 72 30C73 32 75 33 77 34L83 37L86 37L88 37L91 37C92 37 94 38 96 39C99 41 101 43 103 46C105 49 106 52 107 56L107 66C107 71 106 77 105 80C103 84 101 88 98 92C95 96 92 100 88 102C84 104 80 106 75 107C68 108 61 106 54 105C52 105 49 104 47 103C45 102 44 101 42 100C40 99 39 98 37 96C34 93 31 90 29 87C27 84 25 81 24 78C23 75 21 71 20 68C20 73 21 78 23 83C25 88 27 93 30 97C33 101 37 105 41 108C45 111 50 113 55 115C62 117 68 119 75 118C82 117 88 116 94 113C100 110 105 107 110 102C115 97 118 91 120 85C122 79 123 72 123 66C123 61 122 56 121 51C119 45 116 39 112 34C108 29 103 24 97 21C93 19 89 18 86 17C85 17 83 16 82 16"/>
</svg>