<svg xmlns="http://www.w3.org/2000/svg" viewBox="0 0 145 1204">
  <path d="M80 436L78 436C77 436 75 436 74 437L72 439C71 441 70 444 70 445C70 446 71 448 72 449C73 451 75 453 77 454C79 455 81 455 83 456C84 456 85 457 86 457L88 457L91 457C92 457 94 458 96 459C99 461 101 463 103 466C105 469 106 472 107 476L107 486C107 491 106 497 105 500C103 504 101 508 98 512C95 516 92 520 88 522C84 524 80 525 75 526C68 527 61 526 54 525C52 525 49 524 47 523C45 522 44 521 42 520C40 519 39 518 37 516C34 513 31 510 29 507C27 504 25 501 24 498C23 495 21 491 20 488C20 493 21 498 23 503C25 508 27 513 30 517C33 521 37 525 41 528C45 531 50 533 55 535C62 537 68 539 75 538C82 537 88 536 94 533C100 530 105 527 110 522C115 517 118 511 120 505C122 499 123 492 123 486C123 481 122 475 121 470C119 464 116 459 112 454C108 449 103 444 97 441C93 439 89 438 86 437C85 437 83 436 82 436M0 743L0 794L180 794L180 743"/>
</svg>