<svg xmlns="http://www.w3.org/2000/svg" viewBox="0 0 0 1204">
  <path d="M76 110C73 112 69 114 66 115C62 116 59 115 56 115C53 115 50 114 47 112C44 110 43 108 41 106C39 104 38 102 37 99C36 95 34 92 34 87C33 77 36 66 37 63C40 58 44 54 45 49C46 44 45 39 44 35C43 31 40 28 37 27C34 26 32 26 29 27C26 28 25 31 23 35C21 39 20 49 20 63C20 65 21 67 21 69C21 75 20 82 21 88C21 91 22 94 23 97C25 103 27 108 30 113C33 118 38 121 42 124C46 127 52 128 57 128L61 128C65 128 68 128 72 126C80 122 86 116 93 110C94 111 94 112 95 113C98 118 103 121 107 124C111 127 117 128 122 128C127 128 132 128 137 126C141 124 144 122 147 120C150 118 153 116 156 112C158 110 159 108 160 105C161 102 162 98 162 94C163 85 163 74 164 68C166 60 173 57 174 49C175 44 174 39 173 35C172 31 169 28 166 27C163 26 161 26 158 27C155 28 154 31 152 35C150 39 150 49 150 63L150 69L150 92C150 95 150 98 149 101C147 105 146 107 141 110C138 112 134 114 131 115C127 116 124 115 121 115C118 115 115 114 112 112C109 110 108 108 106 106C104 104 103 102 102 99C101 95 99 92 99 87C98 77 100 66 101 63C104 58 109 54 110 49C111 44 110 39 109 35C108 31 105 28 102 27C99 26 97 26 94 27C91 28 90 31 88 35C86 39 85 49 85 63L85 69C85 75 85 82 86 88C86 91 87 94 88 97L88 99C88 99 82 106 76 110"/>
</svg>