<svg xmlns="http://www.w3.org/2000/svg" viewBox="0 0 187 1204">
  <path d="M33 436C32 436 30 436 29 437C26 438 25 441 23 445C21 449 20 458 20 472C20 474 21 477 21 479C21 485 20 492 21 498C21 501 22 503 23 506C25 512 27 517 30 522C33 527 38 530 42 533C46 536 52 538 57 538L60 538C64 538 68 537 72 535C80 531 86 526 93 520L95 522C98 527 103 530 107 533C111 536 117 538 122 538C127 538 132 537 137 535C141 533 144 532 147 530C150 528 153 526 156 522C158 520 159 517 160 514C161 511 162 507 162 503C163 494 163 483 164 477C166 469 173 466 174 458C175 453 174 448 173 444C172 440 169 437 166 436C163 435 161 436 158 437C155 438 154 441 152 445C150 449 150 458 150 472L150 479L150 501C150 504 150 508 149 511C147 515 146 516 141 519C138 521 134 523 131 524C127 525 124 525 121 525C118 525 115 524 112 522C109 520 108 518 106 516C104 514 103 511 102 508C101 504 99 502 99 497C98 487 100 475 101 472C104 467 109 463 110 458C111 453 110 448 109 444C108 440 105 437 102 436C99 435 97 436 94 437C91 438 90 441 88 445C86 449 85 458 85 472L85 479C85 485 85 492 86 498C86 501 87 503 88 506L88 508C88 508 82 515 76 519C73 521 69 523 66 524C62 525 59 525 56 525C53 525 50 524 47 522C44 520 43 518 41 516C39 514 38 511 37 508C36 504 34 502 34 497C33 487 36 475 37 472C40 467 44 463 45 458C46 453 45 448 44 444C43 440 40 437 37 436C36 435 34 436 33 436M0 743L0 794L209 794L209 743"/>
</svg>