<svg xmlns="http://www.w3.org/2000/svg" viewBox="0 0 0 1204">
  <path d="M21 74C21 81 21 87 23 94C25 101 29 107 34 112C39 117 43 120 49 123C55 126 61 127 68 128C75 129 82 128 89 126C94 124 98 121 102 118C106 115 110 110 113 106C116 102 118 97 120 92C122 87 123 81 123 76C122 79 121 84 120 87C119 90 117 93 115 96C113 99 110 103 107 106C105 108 103 109 101 110C99 111 98 112 96 113C94 114 92 114 90 115C88 116 84 116 81 117C77 118 72 118 68 117C64 116 60 115 56 112C52 109 49 106 46 102C43 98 41 94 39 89C37 84 37 80 37 75C37 70 38 66 40 62C42 58 45 54 48 51C51 48 55 46 60 44C65 42 70 42 74 42C78 42 82 43 86 44C90 45 92 48 95 50C98 52 100 55 101 58C102 60 102 62 102 63L102 66L102 68L102 71C102 73 102 75 103 77C104 79 106 81 107 83C108 84 110 86 111 86C112 86 114 86 117 85C118 85 119 84 120 83C121 82 122 81 122 80C122 79 123 77 123 76C123 75 122 72 122 71C122 68 121 64 120 60C118 53 115 48 110 43C105 38 100 34 94 31C88 28 82 26 75 26C68 26 62 27 55 29C48 31 43 34 38 39C33 44 29 49 26 55C23 61 21 67 21 74"/>
</svg>