<svg xmlns="http://www.w3.org/2000/svg" viewBox="0 0 141 1204">
  <path d="M70 436C65 436 60 436 55 438C48 440 43 444 38 449C33 454 29 458 26 464C23 470 21 476 21 483C21 490 21 497 23 504C25 511 29 516 34 521C39 526 43 530 49 533C55 536 61 537 68 538C75 539 82 537 89 535C94 533 98 531 102 528C106 525 110 520 113 516C116 512 118 507 120 502C122 497 123 491 123 486C123 487 122 487 122 488C122 487 123 486 123 485C123 484 122 482 122 481C122 478 121 474 120 470C118 463 115 457 110 452C105 447 100 444 94 441C88 438 82 436 75 436M74 452C78 452 82 453 86 454C90 455 92 458 95 460C98 462 100 465 101 468C102 470 102 471 102 472L102 475L102 478L102 481C102 483 102 485 103 487C104 489 106 491 107 493C108 494 110 495 111 495C112 495 114 496 117 495C118 495 119 494 120 493C121 492 122 491 122 490C121 492 121 494 120 496C119 499 117 503 115 506C113 509 110 512 107 515C105 517 103 518 101 519C99 520 98 521 96 522L90 525C88 526 84 526 81 527C77 528 72 528 68 527C64 526 60 524 56 521C52 518 49 515 46 511C43 507 41 503 39 498C37 493 37 489 37 484C37 479 38 476 40 472C42 468 45 464 48 461C51 458 55 456 60 454C65 452 70 452 74 452M0 743L0 794L167 794L167 743"/>
</svg>