<svg xmlns="http://www.w3.org/2000/svg" viewBox="0 0 306 1204">
  <path d="M152 487C148 487 144 487 140 488C136 489 133 490 129 492C120 495 110 500 100 506C83 517 70 530 60 546C50 562 43 578 40 596C38 604 37 612 37 619C37 648 49 671 70 686C86 697 102 704 128 704L130 704C116 713 75 730 66 734C42 744 35 748 26 762C22 768 18 776 22 782C28 791 41 794 53 794C57 794 61 793 64 793C82 791 98 784 110 767C114 763 130 754 130 754L184 729C184 729 216 714 235 706C259 696 272 687 275 679C276 676 276 674 276 671C276 662 271 651 263 646C257 641 250 639 243 639C238 639 233 640 230 642C221 647 215 655 208 663C195 665 179 666 163 666C138 666 114 662 99 652C85 644 79 633 79 619C79 606 84 592 90 579C95 570 101 562 108 557C113 554 117 552 120 551C123 550 125 549 128 549L135 549C137 549 140 548 143 547C148 545 154 542 159 538C164 534 169 529 172 524C175 520 176 516 176 512C176 508 174 503 170 496C168 493 165 490 162 489C159 488 156 487 152 487"/>
</svg>