<svg xmlns="http://www.w3.org/2000/svg" viewBox="0 0 229 1204">
  <path d="M173 52C164 52 154 59 146 60C133 62 126 63 115 63L91 63L64 63L57 63C44 63 39 64 30 68C27 70 23 73 22 76C20 81 20 87 23 92C25 94 27 96 30 97C31 98 32 99 32 100C34 106 35 112 35 119C34 132 22 154 22 154C22 154 50 140 56 127C60 119 61 108 60 98C65 96 68 92 74 91C80 90 85 89 90 89C95 89 110 88 116 88L156 88L163 88C176 88 181 87 190 83C193 81 197 78 198 75C200 70 201 63 197 59C195 57 192 55 189 54C184 52 178 52 173 52M94 180C79 180 69 186 64 198C62 203 61 209 61 215C61 225 64 236 70 248C75 258 78 274 80 297C82 320 83 349 84 385C84 411 85 439 85 468L85 513C85 559 84 610 83 665L83 684C83 727 86 755 91 766C96 778 104 787 113 791C121 795 130 795 139 792C149 789 155 780 159 767C162 759 164 751 164 742C164 737 163 731 162 726C159 711 154 696 144 680C135 665 130 623 130 553L130 540L133 309L133 293C133 226 122 189 100 180"/>
</svg>