<svg xmlns="http://www.w3.org/2000/svg" viewBox="0 0 215 1204">
  <path d="M173 52C164 52 154 59 146 60C133 62 126 63 115 63L91 63L64 63L57 63C44 63 39 64 30 68C27 70 23 73 22 76C20 81 20 87 23 92C25 94 27 96 30 97C31 98 32 99 32 100C34 106 35 112 35 119C34 132 22 154 22 154C22 154 50 140 56 127C60 119 61 108 60 98C65 96 68 92 74 91C80 90 85 89 90 89C95 89 110 88 116 88L156 88L163 88C176 88 181 87 190 83C193 81 197 78 198 75C200 70 201 63 197 59C195 57 192 55 189 54C184 52 178 52 173 52M104 180C89 180 80 186 75 198C73 203 72 209 72 215C72 225 74 236 80 248C85 258 88 274 90 297C92 320 94 349 95 385L95 468L95 513L95 519L95 565C94 628 91 666 82 680C72 696 66 711 63 726C62 731 61 737 61 742C61 751 63 759 66 767C70 780 77 789 87 792C96 795 105 795 113 791C121 787 128 777 137 776L139 776C149 776 156 784 168 788C183 793 200 794 200 794L220 794L220 743L200 743C184 743 173 738 164 728C148 712 143 688 143 665C142 611 141 514 141 513L141 487C142 427 142 368 143 309L143 293C143 226 133 189 111 180"/>
</svg>