<svg xmlns="http://www.w3.org/2000/svg" viewBox="0 0 204 1204">
  <path d="M92 1C90 1 87 2 85 3C80 5 74 7 66 11C58 15 50 22 44 30C38 38 33 46 31 55C30 59 30 63 30 67C30 82 37 94 50 102C56 106 63 109 71 110C69 111 68 111 66 112C59 115 51 117 49 118C42 120 37 122 33 124C29 126 27 130 24 133L21 139C20 141 20 144 22 147C25 151 30 152 35 153C40 154 45 154 49 154C60 153 70 149 78 140L84 137C86 136 88 134 88 134C108 126 128 119 141 114C154 109 161 107 165 105C169 103 172 100 173 97C176 89 172 81 165 77C158 73 148 72 142 75C136 78 134 81 130 84C121 85 109 85 98 85C87 85 77 83 70 80C63 77 61 72 61 67C61 62 64 56 67 50C69 46 73 43 76 41C78 40 81 38 82 38C84 38 85 37 86 37L90 37C92 37 93 37 95 36C98 35 102 34 105 32C108 30 112 27 114 24C116 22 117 19 117 16C117 12 115 10 113 7C111 4 108 3 106 2C104 1 101 0 99 0C97 0 94 1 92 1M104 180C89 180 80 186 75 198C73 203 72 209 72 215C72 225 74 236 80 248C85 258 88 274 90 297C92 320 94 349 95 385L95 468L95 513L95 519L95 565C94 628 91 666 82 680C72 696 66 711 63 726C62 731 61 737 61 742C61 751 63 759 66 767C70 780 77 789 87 792C96 795 105 795 113 791C121 787 128 777 137 776L139 776C149 776 156 784 168 788C183 793 200 794 200 794L220 794L220 743L200 743C184 743 173 738 164 728C148 712 143 688 143 665C142 611 141 514 141 513L141 487C142 427 142 368 143 309L143 293C143 226 133 189 111 180"/>
</svg>