<svg xmlns="http://www.w3.org/2000/svg" viewBox="0 0 237 1204">
  <path d="M116 487L108 487C106 487 103 488 101 489C96 491 90 493 84 496C74 501 66 508 60 516C54 524 50 533 48 542C47 546 47 549 47 553C47 568 54 580 67 588C73 592 80 595 88 596L82 599C75 602 67 604 65 605C58 607 54 609 50 611C46 613 44 616 41 619C40 621 38 623 37 625C36 627 37 630 39 633C42 637 46 639 51 640C56 641 62 640 66 640C77 639 86 636 94 627C94 627 98 624 100 623C102 622 105 621 105 621L135 609C135 609 153 602 164 598C171 596 177 593 181 591C185 589 188 586 189 583C192 575 188 567 181 563C174 559 165 558 159 561C153 564 150 568 146 571C137 572 126 572 115 572C104 572 93 569 87 566C80 563 78 559 78 554C78 549 80 542 83 536C85 532 89 529 92 527C94 526 97 525 98 525C100 525 101 524 102 524L106 524C108 524 110 524 112 523C115 522 119 520 122 518C125 516 128 514 130 511C132 509 133 506 133 503C133 499 132 496 129 493C127 491 125 489 123 488C121 487 118 487 116 487M133 640C111 640 91 649 80 659C60 676 54 698 54 718C54 731 56 744 62 755C68 765 77 774 87 780C96 786 107 790 118 792C127 794 145 794 145 794L163 794C162 803 158 831 152 849C145 871 136 891 123 913C110 935 91 957 66 980C49 992 33 1004 17 1013C1 1022-15 1031-31 1038C-47 1045-62 1050-78 1055C-94 1060-110 1064-127 1067C-139 1069-150 1072-160 1073C-170 1074-180 1075-190 1075C-200 1075-210 1074-220 1072C-230 1070-241 1068-252 1064C-263 1060-276 1054-289 1047C-302 1040-316 1031-332 1020C-316 1040-300 1056-285 1069C-270 1082-255 1091-239 1098C-223 1105-207 1110-189 1111C-183 1112-176 1111-169 1111C-157 1111-144 1111-130 1109C-103 1106-76 1099-49 1091C-22 1083 4 1072 28 1058C52 1044 74 1028 95 1009C116 990 134 968 150 944C157 933 164 923 170 913C176 903 181 892 186 882C191 872 196 861 199 849C202 837 205 824 207 812C209 797 211 782 211 767L211 759L211 749C211 726 210 701 198 682C185 661 161 640 133 640M131 702L132 702C149 702 162 720 164 734C164 737 165 740 165 743L149 743L144 743C137 743 123 742 117 737C113 733 111 728 111 723C111 713 119 703 131 702"/>
</svg>