<svg xmlns="http://www.w3.org/2000/svg" viewBox="0 0 253 1204">
  <path d="M128 487L121 487C119 487 115 488 113 489C108 491 103 493 97 496C87 501 78 508 72 516C66 524 62 533 60 542C59 546 59 549 59 553C59 568 66 580 79 588C85 592 92 595 100 596C98 597 97 598 95 599C88 602 80 604 78 605C71 607 66 609 62 611C58 613 56 616 53 619L50 625C49 627 49 630 51 633C54 637 59 639 64 640C69 641 74 640 78 640C89 639 99 636 107 627C107 627 110 624 112 623C114 622 117 621 117 621L147 609C147 609 166 602 177 598C184 596 189 593 193 591C197 589 201 586 202 583C205 575 200 567 193 563C186 559 177 558 171 561C165 564 162 568 158 571C149 572 138 572 127 572C116 572 105 569 99 566C92 563 90 559 90 554C90 549 93 542 96 536C98 532 101 529 104 527C106 526 109 525 110 525C112 525 114 524 115 524L119 524C121 524 122 524 124 523C127 522 131 520 134 518C137 516 140 514 142 511C144 509 145 506 145 503C145 499 144 496 141 493C139 491 137 489 135 488C133 487 130 487 128 487M147 640C124 640 105 649 94 659C74 676 68 698 68 718C68 731 70 744 76 755C82 765 91 774 101 780C110 786 121 790 132 792C141 794 159 794 159 794L177 794C176 803 171 831 165 849C158 871 150 891 137 913C124 935 105 957 80 980C63 992 46 1004 30 1013C14 1022-2 1031-18 1038C-34 1045-49 1050-65 1055C-81 1060-97 1064-114 1067C-126 1069-137 1072-147 1073C-157 1074-168 1075-178 1075C-188 1075-198 1074-208 1072C-218 1070-229 1068-240 1064C-251 1060-263 1054-276 1047C-289 1040-303 1031-319 1020C-303 1040-288 1056-273 1069C-258 1082-243 1091-227 1098C-211 1105-194 1110-176 1111C-170 1112-163 1111-156 1111C-144 1111-131 1111-117 1109C-90 1106-62 1099-35 1091C-8 1083 17 1072 41 1058C65 1044 88 1028 109 1009C130 990 148 968 164 944C171 933 178 923 184 913C190 903 195 892 200 882C205 872 210 861 213 849C216 837 219 824 221 812C222 806 222 800 223 794L274 794L274 743L225 743C225 722 223 699 212 682C199 661 175 640 147 640M144 702L146 702C163 702 176 720 178 734C178 737 179 740 179 743L162 743L157 743C150 743 136 742 130 737C126 733 125 728 125 723C125 713 132 703 144 702"/>
</svg>