<svg xmlns="http://www.w3.org/2000/svg" viewBox="0 0 194 1204">
  <path d="M73 180C58 180 49 186 44 198C42 203 41 209 41 215C41 225 43 236 49 248C54 258 58 274 60 297C62 320 63 349 64 385L64 468L64 513C64 559 64 610 63 665L63 684C63 727 66 755 71 766C76 778 83 787 92 791C100 795 109 795 118 792C128 789 135 780 139 767C142 759 143 751 143 742C143 737 143 731 142 726C139 711 133 696 123 680C114 665 110 623 110 553L110 540C111 463 111 386 112 309C112 304 113 298 113 293C113 226 102 189 80 180M99 820L92 820C90 820 87 821 85 822C80 824 74 826 68 829C58 834 50 841 44 849C38 857 33 866 31 875C30 879 30 882 30 886C30 901 37 913 50 921C56 925 63 928 71 929C69 930 68 930 66 931C59 934 51 937 49 938C42 940 37 942 33 944C29 946 27 949 24 952L21 958C20 960 20 963 22 966C25 970 30 972 35 973C40 974 45 973 49 973C60 972 70 968 78 959L84 956L88 954L119 942C119 942 137 935 148 931C155 929 161 926 165 924C169 922 172 919 173 916C176 908 172 900 165 896C158 892 148 891 142 894C136 897 134 901 130 904C121 905 109 905 98 905C87 905 77 902 71 899L70 899C63 896 61 892 61 887C61 882 64 875 67 869C69 865 73 862 76 860C78 859 81 857 82 857L86 857C87 857 89 856 90 856C92 856 93 856 95 855C98 854 102 853 105 851C108 849 112 847 114 844L114 843C116 841 117 838 117 835C117 831 115 828 112 825C110 823 108 822 106 821C104 820 101 820 99 820"/>
</svg>