<svg xmlns="http://www.w3.org/2000/svg" viewBox="0 0 190 1204">
  <path d="M83 180C68 180 59 186 54 198C52 203 51 209 51 215C51 225 54 236 60 248C65 258 68 274 70 297C72 320 73 349 74 385C74 411 75 439 75 468C75 483 74 498 74 513L74 519C74 537 75 565 75 565C74 628 70 666 61 680C51 696 45 711 42 726C41 731 41 737 41 742C41 751 42 759 45 767C49 780 56 789 66 792C75 795 85 795 93 791C101 787 107 777 116 776L118 776C128 776 136 784 148 788C163 793 179 794 179 794L200 794L200 743L179 743C163 743 153 738 144 728C128 712 122 688 122 665C121 611 120 514 120 513C120 504 121 496 121 487C122 427 122 368 123 309L123 293C123 226 112 189 90 180M92 820C84 821 80 823 69 829C58 835 50 841 44 849C38 857 33 866 31 875C30 879 30 882 30 886C30 901 37 913 50 921C56 925 63 928 71 929C69 930 68 930 66 931C59 934 51 937 49 938C42 940 37 942 33 944C29 946 27 949 24 952L21 958C20 960 20 963 22 966C25 970 30 972 35 973C40 974 45 973 49 973C60 972 70 968 78 959L84 956C108 944 138 938 165 924C169 922 172 919 173 916C176 908 172 900 165 896C158 892 148 891 142 894C136 897 134 901 130 904C121 905 109 905 98 905C87 905 77 902 70 899C63 896 61 892 61 887C61 882 64 875 67 869C69 865 73 862 76 860C78 859 81 857 82 857L86 857C87 857 89 856 90 856C92 856 93 856 96 855C99 854 102 853 105 851C108 849 111 847 113 844C115 841 117 838 117 835C117 830 112 823 106 821C104 820 97 819 92 820"/>
</svg>