<svg xmlns="http://www.w3.org/2000/svg" viewBox="0 0 817 1204">
  <path d="M738 664C719 647 698 640 666 640C622 640 597 672 597 692C597 698 597 705 599 713C604 734 616 752 627 771C638 792 649 813 651 836L651 848C651 856 650 863 649 871C643 901 627 932 602 959C545 1021 447 1063 355 1063L353 1063C194 1061 37 956 39 772C39 760 39 747 41 734C27 768 20 800 20 831C20 990 188 1107 352 1111L362 1111C531 1111 681 994 699 862C700 853 700 845 700 836C700 820 699 807 694 794C687 775 679 766 667 744C662 735 659 722 659 712C659 701 663 692 677 692C744 692 660 794 797 794L800 794L840 794L840 743L816 743L799 743C747 743 769 691 738 664M314 640C312 640 309 641 307 641C305 641 302 642 300 643C295 645 289 647 283 650C273 655 265 662 259 670C253 678 248 686 246 695C245 699 245 703 245 707C245 722 252 734 265 742C271 746 278 749 286 750C284 751 283 751 281 752C274 755 266 757 264 758C257 760 252 762 248 764C244 766 242 770 239 773L236 779C235 781 235 784 237 787C240 791 245 792 250 793C255 794 260 794 264 794C275 793 285 789 293 780L299 777C301 776 303 774 303 774L334 763C334 763 352 756 363 752C370 750 376 747 380 745C384 743 387 740 388 737C391 729 387 721 380 717C373 713 363 712 357 715C351 718 349 721 345 724C336 725 324 725 313 725C302 725 292 723 286 720L286 719C279 716 276 712 276 707C276 702 279 696 282 690C284 686 288 683 291 681C293 680 296 678 297 678C299 678 300 677 301 677L305 677C307 677 308 677 310 676L311 676C314 675 317 674 320 672C323 670 327 667 329 664C331 662 332 659 332 656C332 652 330 649 327 646C325 644 323 643 321 642C319 641 316 640 314 640"/>
</svg>