<svg xmlns="http://www.w3.org/2000/svg" viewBox="0 0 212 1204">
  <path d="M99 282C97 282 94 283 92 283C90 283 87 283 85 284C80 286 74 288 68 291C58 296 50 304 44 312C38 320 33 328 31 337C30 341 30 344 30 348C30 363 37 376 50 384C56 388 63 391 71 392C69 393 68 393 66 394C59 397 51 399 49 400C42 402 37 404 33 406C29 408 27 411 24 414L21 420C20 422 20 426 22 429C25 433 30 434 35 435C40 436 45 435 49 435C60 434 70 431 78 422C78 422 82 419 84 418L88 416L119 404C119 404 137 398 148 394L148 393C155 391 161 388 165 386C169 384 172 381 173 378C176 370 172 362 165 358C158 354 148 353 142 356C136 359 134 363 130 366C121 367 109 367 98 367C87 367 77 364 71 361L70 361C63 358 61 354 61 349C61 344 64 337 67 331C69 327 73 324 76 322C78 321 81 320 82 320C84 320 85 319 86 319L90 319C92 319 93 319 95 318C98 317 102 315 105 313C108 311 112 309 114 306C116 304 117 301 117 298C117 294 115 291 112 288C110 286 108 284 106 283C104 282 101 282 99 282M122 487C118 487 112 489 108 492C103 495 98 499 95 503C92 507 89 511 87 516C85 521 84 526 83 530C82 534 82 539 82 543C82 553 84 562 87 573C90 581 94 588 98 593C102 598 106 603 110 607C114 611 118 615 122 620C126 625 129 631 131 638C133 650 133 662 133 675C133 742 108 743 106 743L0 743L0 794L104 794C104 794 184 794 184 660C184 608 181 567 159 523C156 517 153 511 149 506C145 501 141 496 137 493C133 490 128 488 123 487"/>
</svg>