<svg xmlns="http://www.w3.org/2000/svg" viewBox="0 0 222 1204">
  <path d="M127 487C111 489 94 497 82 508C70 519 61 536 61 553C61 561 63 568 67 575C75 587 88 593 102 596C87 604 68 605 56 618C54 620 52 623 52 625C52 633 64 641 78 641C88 641 100 637 111 625C128 615 194 603 205 580C206 567 194 559 182 559C176 559 170 562 166 566C162 571 150 573 137 573C120 573 101 569 94 561C93 558 92 555 92 552C92 542 99 531 108 526C122 522 140 522 147 507C148 505 147 503 147 502C147 493 139 487 130 487M127 640C109 641 104 661 102 676C99 697 96 720 81 737C73 746 61 742 51 743L0 743L0 794L12 794L45 794L74 794C96 792 116 778 128 760C141 780 164 794 188 794L193 794L246 794L246 743L236 743L207 743L182 743C165 738 160 718 156 703C151 684 156 660 139 645C136 642 131 640 127 640"/>
</svg>