<svg xmlns="http://www.w3.org/2000/svg" viewBox="0 0 167 1204">
  <path d="M63 180C48 180 39 186 34 198C32 203 31 209 31 215C31 225 33 236 39 248C44 258 47 274 49 297C51 320 53 349 54 385L54 468L54 513L54 519L54 565C53 628 50 666 41 680C31 696 25 711 22 726C21 731 20 737 20 742C20 751 22 759 25 767C29 780 36 789 46 792C55 795 64 795 72 791C80 787 87 777 96 776L98 776C108 776 115 784 127 788C142 793 161 794 161 794L179 794L179 743L162 743C146 743 132 738 123 728C107 712 102 688 102 665C101 611 100 514 100 513L100 487C101 427 101 368 102 309L102 293C102 226 92 189 70 180"/>
</svg>