<svg xmlns="http://www.w3.org/2000/svg" viewBox="0 0 763 1204">
  <path d="M265 282C22 318 20 563 20 567C20 791 214 794 223 794L248 794L575 794L658 794C658 794 737 794 737 660C737 608 733 567 712 523C709 517 706 511 702 506C698 501 695 496 691 493C687 490 682 488 677 487L675 487C671 487 666 489 662 492C657 495 652 499 649 503C646 507 643 511 641 516C639 521 638 526 637 530C636 534 636 539 636 543C636 553 638 562 641 573C644 581 648 588 652 593C656 598 660 603 664 607C668 611 672 615 676 620C680 625 683 631 685 638C687 651 687 662 687 675C687 742 662 743 660 743L575 743L248 743L223 743C223 743 71 742 71 570L71 564C76 325 265 282 265 282M402 845C399 845 397 845 394 846C390 847 387 849 383 852C379 855 376 860 373 865C370 870 367 877 364 885C363 889 363 893 364 897C365 901 367 904 369 907C371 910 373 912 375 913C377 914 378 916 379 917C379 917 381 919 386 921C391 923 398 923 406 921C411 920 414 918 418 915C422 912 424 910 427 907C430 904 432 901 433 899C434 897 435 896 435 895C438 889 440 884 440 879C440 874 439 870 438 866C436 862 434 858 430 855C421 849 413 846 405 845"/>
</svg>