<svg xmlns="http://www.w3.org/2000/svg" viewBox="0 0 776 1204">
  <path d="M265 282C22 318 20 563 20 567C20 791 214 794 223 794L248 794L575 794L658 794C658 794 684 795 707 763C730 795 768 794 768 794L788 794L788 743L768 743C752 743 728 732 728 712C728 709 728 706 729 703C733 690 735 676 735 663C735 632 726 602 712 575C704 561 693 542 677 540L675 540C663 540 648 553 641 569C637 578 636 587 636 596C636 609 639 620 641 627C653 660 676 662 685 691C686 698 687 705 687 712C687 728 681 741 660 743L575 743L248 743L223 743C223 743 71 742 71 570L71 564C76 325 265 282 265 282M402 845C399 845 397 845 394 846C390 847 387 849 383 852C379 855 376 860 373 865C370 870 367 877 364 885C363 889 363 893 364 897C365 901 367 904 369 907C371 910 373 912 375 913C377 914 378 916 379 917C379 917 381 919 386 921C391 923 398 923 406 921C411 920 414 918 418 915C422 912 424 910 427 907C430 904 432 901 433 899C434 897 435 896 435 895C438 889 440 884 440 879C440 874 439 870 438 866C436 862 434 858 430 855C421 849 413 846 405 845"/>
</svg>