<svg xmlns="http://www.w3.org/2000/svg" viewBox="0 0 188 1204">
  <path d="M101 487C97 487 92 489 88 492C83 495 78 499 75 503C72 507 69 511 67 516C65 521 64 526 63 530C62 534 62 539 62 543C62 553 64 562 67 573C70 581 73 588 77 593C81 598 86 603 90 607C94 611 98 615 102 620C106 625 109 631 111 638C113 650 113 662 113 675C113 742 88 743 86 743L0 743L0 794L84 794C84 794 164 794 164 660C164 608 161 567 139 523C136 517 132 511 128 506C124 501 121 496 117 493C113 490 108 488 103 487M126 845C123 845 121 845 118 846C114 847 110 849 106 852C102 855 99 860 96 865C93 870 91 877 88 885C87 889 87 893 88 897C89 901 90 904 92 907C94 910 96 912 98 913C100 914 101 916 102 917C102 917 105 919 110 921C115 923 121 923 129 921C134 920 138 918 142 915C146 912 148 910 151 907C154 904 156 901 157 899C158 897 159 896 159 895C162 889 164 884 164 879C164 874 163 870 162 866C160 862 158 858 154 855C145 849 136 846 128 845"/>
</svg>