<svg xmlns="http://www.w3.org/2000/svg" viewBox="0 0 203 1204">
  <path d="M117 640C100 641 94 660 92 674C89 696 86 721 70 738C62 745 51 742 42 743L0 743L0 794L10 794L38 794L64 794C86 792 106 778 118 760C131 780 153 794 177 794L182 794L236 794L236 743L225 743L197 743L172 743C156 738 150 719 146 705C140 686 146 664 133 648C129 643 123 640 117 640M140 863C131 845 105 845 105 845C86 845 74 865 69 881C67 884 67 887 67 891C67 901 72 909 80 915C85 920 92 922 99 922C111 922 123 916 131 907C138 899 143 888 143 877C143 872 143 867 140 863"/>
</svg>