<svg xmlns="http://www.w3.org/2000/svg" viewBox="0 0 353 1204">
  <path d="M276 508C266 493 258 487 246 487C231 487 222 498 219 505C217 510 216 516 216 522C216 532 218 543 224 555C226 559 228 563 229 568C209 599 178 626 150 648C132 662 123 683 123 703C123 712 125 720 128 728C139 751 167 764 195 764L204 764C226 762 242 755 257 750C266 763 294 794 345 794L364 794L364 743L346 743C330 743 314 738 302 720C313 707 323 690 335 670C322 679 307 689 291 697C288 687 286 676 286 665L286 647C286 623 289 597 289 572C289 549 286 527 276 508M59 487C56 487 54 487 51 488C47 489 44 491 40 494C36 497 33 501 30 506C27 511 24 519 21 527C20 531 20 535 21 539C22 543 24 546 26 549C28 552 29 554 31 555C33 556 35 558 36 559C36 559 38 560 43 562C48 564 55 564 63 562C68 561 71 559 75 556C79 553 81 551 84 548C87 545 89 543 90 541C91 539 92 537 92 536C95 530 97 526 97 521C97 516 96 512 95 508C93 504 91 500 87 497C78 491 70 488 62 487M146 487C143 487 141 487 138 488C134 489 131 491 127 494C123 497 120 501 117 506C114 511 111 519 108 527C107 531 107 535 108 539C109 543 111 546 113 549C115 552 117 554 119 555C121 556 122 558 123 559C123 559 125 560 130 562C135 564 142 564 150 562C155 561 158 559 162 556C166 553 168 551 171 548C174 545 176 543 177 541C178 539 179 537 179 536C182 530 184 526 184 521C184 516 183 512 182 508C180 504 178 500 174 497C165 491 157 488 149 487M236 631C237 648 237 665 238 680C239 692 240 705 243 717C229 722 213 726 199 726C185 726 173 721 168 710C167 708 167 705 167 703C167 679 217 657 236 631"/>
</svg>