<svg xmlns="http://www.w3.org/2000/svg" viewBox="0 0 209 1204">
  <path d="M59 487C38 487 27 508 22 525C21 528 20 530 20 533C20 549 36 564 52 564C54 564 57 564 59 563C84 558 96 532 96 520C96 507 88 494 75 490C70 488 65 487 59 487M145 487C124 487 113 508 108 525C107 528 107 530 107 533C107 549 123 564 139 564C141 564 143 564 145 563C170 558 183 532 183 520C183 507 174 494 161 490C156 488 151 487 145 487M117 640C100 641 94 660 92 674C89 696 86 721 70 738C62 745 51 742 41 743L0 743L0 794L10 794L38 794L64 794C86 792 106 778 118 760C131 780 153 794 177 794L183 794L236 794L236 743L225 743L197 743L172 743C155 738 150 718 146 703C141 684 146 660 129 645C126 642 121 640 117 640"/>
</svg>