<svg xmlns="http://www.w3.org/2000/svg" viewBox="0 0 768 1204">
  <path d="M428 256C425 256 423 257 420 258C416 259 413 260 409 263C405 266 401 271 398 276C395 281 393 288 390 296C389 300 389 304 390 308C391 312 392 315 394 318C396 321 398 324 400 325C402 326 403 327 404 328C404 328 407 330 412 332C417 334 423 334 431 332C436 331 440 329 444 326C448 323 450 321 453 318C456 315 458 312 459 310C460 308 461 307 461 306C464 300 466 295 466 290C466 285 465 282 464 278C462 274 460 269 456 266C447 260 438 257 430 256M265 282C22 318 20 563 20 567C20 791 214 794 223 794L248 794L575 794L658 794C658 794 684 795 707 763C730 795 759 794 759 794L778 794L778 743L757 743C743 743 727 733 727 714C727 711 728 707 729 703C733 690 735 676 735 663C735 632 726 602 712 575C704 561 693 542 677 540L675 540C663 540 648 553 641 569C637 578 636 587 636 596C636 609 639 620 641 627C653 660 676 662 685 691C686 698 687 705 687 712C687 728 681 741 660 743L575 743L248 743L223 743C223 743 71 742 71 570L71 564C76 325 265 282 265 282M377 333C374 333 371 333 368 334C364 335 361 337 357 340C353 343 350 348 347 353C344 358 342 365 339 373C338 377 338 381 339 385C340 389 341 392 343 395C345 398 347 400 349 401C351 402 352 404 353 405C353 405 356 407 361 409C366 411 372 411 380 409C385 408 389 406 393 403C397 400 399 398 402 395C405 392 407 389 408 387C409 385 410 384 410 383C413 377 415 372 415 367C415 362 413 358 412 354C410 350 408 346 404 343C395 337 387 334 379 333M464 333C461 333 459 333 456 334C452 335 448 337 444 340C440 343 437 348 434 353C431 358 429 365 426 373C425 377 425 381 426 385C427 389 428 392 430 395C432 398 434 400 436 401C438 402 439 404 440 405C440 405 443 407 448 409C453 411 459 411 467 409C472 408 476 406 480 403C484 400 486 398 489 395C492 392 494 389 495 387C496 385 497 384 497 383C500 377 502 372 502 367C502 362 500 358 499 354C497 350 495 346 491 343C482 337 474 334 466 333"/>
</svg>