<svg xmlns="http://www.w3.org/2000/svg" viewBox="0 0 206 1204">
  <path d="M110 256C107 256 105 257 102 258C98 259 95 260 91 263C87 266 84 271 81 276C78 281 76 288 73 296C72 300 71 304 72 308C73 312 75 315 77 318C79 321 81 324 83 325C85 326 86 327 87 328C87 328 89 330 94 332C99 334 106 334 114 332C119 331 122 329 126 326C130 323 133 321 136 318C139 315 140 312 141 310C142 308 144 307 144 306C147 300 148 295 148 290C148 285 147 282 146 278C144 274 142 269 138 266C129 260 121 257 113 256M59 333C56 333 54 333 51 334C47 335 44 337 40 340C36 343 33 348 30 353C27 358 24 365 21 373C20 377 20 381 21 385C22 389 24 392 26 395C28 398 29 400 31 401C33 402 35 404 36 405C36 405 38 407 43 409C48 411 55 411 63 409C68 408 71 406 75 403C79 400 81 398 84 395C87 392 89 389 90 387C91 385 92 384 92 383C95 377 97 372 97 367C97 362 96 358 95 354C93 350 91 346 87 343C78 337 70 334 62 333M146 333C143 333 141 333 138 334C134 335 131 337 127 340C123 343 120 348 117 353C114 358 111 365 108 373C107 377 107 381 108 385C109 389 111 392 113 395C115 398 117 400 119 401C121 402 122 404 123 405C123 405 125 407 130 409C135 411 142 411 150 409C155 408 158 406 162 403C166 400 168 398 171 395C174 392 176 389 177 387C178 385 179 384 179 383C182 377 184 372 184 367C184 362 183 358 182 354C180 350 178 346 174 343C165 337 157 334 149 333M122 487C118 487 112 489 108 492C103 495 98 499 95 503C92 507 89 511 87 516C85 521 84 526 83 530C82 534 82 539 82 543C82 553 84 562 87 573C90 581 94 588 98 593C102 598 106 603 110 607C114 611 118 615 122 620C126 625 129 631 131 638C133 650 133 662 133 675C133 742 108 743 106 743L0 743L0 794L104 794C104 794 184 794 184 660C184 608 181 567 159 523C156 517 153 511 149 506C145 501 141 496 137 493C133 490 128 488 123 487"/>
</svg>