<svg xmlns="http://www.w3.org/2000/svg" viewBox="0 0 221 1204">
  <path d="M109 410C80 410 71 450 71 456C71 473 88 487 104 487C107 487 110 486 113 485C135 478 147 456 147 442C147 422 127 410 109 410M59 487C30 487 20 527 20 533C20 550 37 564 53 564C56 564 59 563 62 562C84 555 96 533 96 519C96 499 77 487 59 487M145 487C116 487 107 527 107 533C107 550 123 564 139 564C142 564 145 563 148 562C170 555 183 533 183 519C183 499 163 487 145 487M117 640C96 642 91 668 90 685C87 705 84 728 67 741C58 745 47 742 37 743L0 743L0 794L10 794L39 794C48 794 57 793 66 793C87 790 106 777 118 760C131 780 154 794 178 794L184 794L256 794L256 743L243 743L205 743L172 743C154 737 149 715 145 698C141 679 145 655 127 643C124 641 120 640 117 640"/>
</svg>