<svg xmlns="http://www.w3.org/2000/svg" viewBox="0 0 392 1204">
  <path d="M180 640L177 640C148 640 121 648 95 662C88 666 82 674 81 683C80 690 84 698 88 704C91 709 94 715 100 717C108 720 118 718 126 714C135 709 142 700 145 691C145 691 170 676 184 675L190 675C213 675 231 686 257 692C225 692 185 710 161 721C78 753 24 811 20 906C23 1068 149 1101 278 1101C331 1101 385 1096 430 1091C304 1074 75 1088 70 906C70 821 112 792 176 755C177 754 179 754 180 753C197 768 233 794 284 794L410 794L410 743L282 743L271 743C256 743 242 742 225 734C257 724 291 717 316 712L317 712C323 712 335 719 346 719C353 719 358 716 362 708C364 704 364 701 364 698C364 690 359 684 353 680C348 676 342 676 335 674C320 669 300 670 278 664C242 649 210 640 180 640M223 845C220 845 218 845 215 846C211 847 208 849 204 852C200 855 197 860 194 865C191 870 188 877 185 885C184 889 184 893 185 897C186 901 187 904 189 907C191 910 193 912 195 913C197 914 199 916 200 917C200 917 202 919 207 921C212 923 218 923 226 921C231 920 235 918 239 915C243 912 245 910 248 907C251 904 253 901 254 899C255 897 256 896 256 895C259 889 261 884 261 879C261 874 260 870 259 866C257 862 255 858 251 855C242 849 234 846 226 845"/>
</svg>