<svg xmlns="http://www.w3.org/2000/svg" viewBox="0 0 349 1204">
  <path d="M131 640C103 640 72 647 44 662C37 666 31 674 30 683C29 690 33 698 37 704C40 709 44 715 50 717C58 720 67 718 75 714C84 709 91 700 94 691C94 691 115 679 129 679L134 679C163 686 167 736 195 743L19 743L0 743L0 794L17 794L231 794L260 794L266 794C285 794 297 808 309 808C315 808 321 804 328 794C331 789 333 784 333 779C333 767 324 757 316 751C309 746 302 745 292 742C272 736 250 733 232 723C194 702 196 640 131 640M121 845C118 845 116 845 113 846C109 847 105 849 101 852C97 855 94 860 91 865C88 870 86 877 83 885C82 889 82 893 83 897C84 901 85 904 87 907C89 910 91 912 93 913C95 914 96 916 97 917C97 917 100 919 105 921C110 923 116 923 124 921C129 920 133 918 137 915C141 912 143 910 146 907C149 904 151 901 152 899C153 897 154 896 154 895C157 889 159 884 159 879C159 874 158 870 157 866C155 862 153 858 149 855C140 849 131 846 123 845"/>
</svg>