<svg xmlns="http://www.w3.org/2000/svg" viewBox="0 0 346 1204">
  <path d="M149 640L147 640C118 640 91 648 65 662C58 666 51 674 50 683C49 690 53 698 57 704C60 709 64 715 70 717C78 720 87 718 95 714C104 709 111 700 114 691C114 691 140 676 154 675L159 675C182 675 201 686 227 692C195 692 161 706 131 721C88 743 39 743 39 743L0 743L0 794L37 794C90 794 113 775 149 753C166 768 202 794 253 794L358 794L358 743L251 743L240 743C225 743 211 742 194 734C226 724 260 717 285 712L286 712C292 712 304 719 315 719C322 719 327 716 331 708C333 704 333 701 333 698C333 690 328 684 322 680C317 676 311 676 304 674C289 669 269 670 247 664C211 649 179 640 149 640M141 845C138 845 136 845 133 846C129 847 126 849 122 852C118 855 115 860 112 865C109 870 106 877 103 885C102 889 102 893 103 897C104 901 106 904 108 907C110 910 111 912 113 913C115 914 117 916 118 917C118 917 120 919 125 921C130 923 137 923 145 921C150 920 153 918 157 915C161 912 163 910 166 907C169 904 171 901 172 899C173 897 174 896 174 895C177 889 179 884 179 879C179 874 178 870 177 866C175 862 173 858 169 855C160 849 152 846 144 845"/>
</svg>