<svg xmlns="http://www.w3.org/2000/svg" viewBox="0 0 389 1204">
  <path d="M172 538C169 538 167 538 164 539C160 540 157 542 153 545C149 548 145 553 142 558C139 563 137 570 134 578C133 582 133 586 134 590C135 594 136 597 138 600C140 603 142 605 144 606C146 607 147 609 148 610C148 610 151 611 156 613C161 615 167 615 175 613C180 612 184 610 188 607C192 604 194 602 197 599C200 596 202 594 203 592C204 590 205 589 205 588C208 582 210 577 210 572C210 567 209 563 208 559C206 555 204 551 200 548C191 542 182 539 174 538M180 640L177 640C148 640 121 648 95 662C88 666 82 674 81 683C80 690 84 698 88 704C91 709 94 715 100 717C108 720 118 718 126 714C135 709 142 700 145 691C145 691 170 676 184 675L190 675C213 675 231 686 257 692C225 692 185 710 161 721C78 753 24 811 20 906C23 1068 149 1101 278 1101C331 1101 385 1096 430 1091C304 1074 75 1088 70 906C70 821 112 792 176 755C177 754 179 754 180 753C197 768 233 794 284 794L410 794L410 743L282 743L271 743C256 743 242 742 225 734C257 724 291 717 316 712L317 712C323 712 335 719 346 719C353 719 358 716 362 708C364 704 364 701 364 698C364 690 359 684 353 680C348 676 342 676 335 674C320 669 300 670 278 664C242 649 210 640 180 640"/>
</svg>