<svg xmlns="http://www.w3.org/2000/svg" viewBox="0 0 365 1204">
  <path d="M131 538C128 538 126 538 123 539C119 540 116 542 112 545C108 548 105 553 102 558C99 563 97 570 94 578C93 582 92 586 93 590C94 594 96 597 98 600C100 603 102 605 104 606C106 607 107 609 108 610C108 610 110 611 115 613C120 615 127 615 135 613C140 612 144 610 148 607C152 604 154 602 157 599C160 596 162 594 163 592C164 590 165 589 165 588C168 582 170 577 170 572C170 567 168 563 167 559C165 555 163 551 159 548C150 542 142 539 134 538M55 662C48 666 41 674 40 683C39 690 43 698 47 704C50 709 54 715 60 717C68 720 77 718 85 714C94 709 102 700 105 691C105 691 126 679 140 679L144 679C173 686 178 736 206 743L29 743L0 743L0 794L27 794L241 794L270 794L276 794C295 794 307 808 319 808C325 808 331 804 338 794C341 789 343 784 343 779C343 767 335 757 327 751C320 746 312 745 302 742C282 736 260 733 242 723C204 702 206 640 141 640C113 640 83 647 55 662"/>
</svg>