<svg xmlns="http://www.w3.org/2000/svg" viewBox="0 0 350 1204">
  <path d="M124 564C116 564 108 565 102 570C94 576 78 589 78 612C78 625 88 635 98 643C119 658 140 672 161 687C180 702 218 731 218 731C218 731 181 736 130 756C58 784 20 850 20 850C20 850 99 808 142 799C182 790 205 789 232 789C240 789 252 789 255 796C260 807 275 813 289 813C293 813 297 812 301 811C319 804 326 791 328 777C328 775 329 773 329 771C329 756 321 739 311 731C309 729 308 727 306 726C281 706 253 689 227 670C212 659 183 636 183 636C183 636 166 626 166 613L166 608C166 593 155 581 145 572C139 567 132 564 124 564"/>
</svg>