<svg xmlns="http://www.w3.org/2000/svg" viewBox="0 0 350 1204">
  <path d="M59 487C56 487 54 487 51 488C47 489 44 491 40 494C36 497 33 501 30 506C27 511 24 519 21 527C20 531 20 535 21 539C22 543 24 546 26 549C28 552 29 554 31 555C33 556 35 558 36 559C36 559 38 560 43 562C48 564 55 564 63 562C68 561 71 559 75 556C79 553 81 551 84 548C87 545 89 543 90 541C91 539 92 537 92 536C95 530 97 526 97 521C97 516 96 512 95 508C93 504 91 500 87 497C78 491 70 488 62 487M124 564C116 564 108 565 102 570C94 576 78 589 78 612C78 625 88 635 98 643C119 658 140 672 161 687C180 702 226 743 226 743C226 743 218 742 206 742C188 742 160 744 130 756C58 784 20 850 20 850C20 850 99 808 142 799C167 792 191 791 216 791C250 791 284 794 319 794L322 794L369 794L369 743L342 743C304 743 277 723 243 692C226 677 203 658 186 643C173 633 167 624 166 611C165 595 156 582 145 572C139 567 132 564 124 564"/>
</svg>