<svg xmlns="http://www.w3.org/2000/svg" viewBox="0 0 191 1204">
  <path d="M91 640C86 640 82 642 77 645C71 648 67 652 63 656C59 660 56 665 54 669C52 673 50 679 49 683C48 687 48 692 48 696C48 706 50 716 54 726C57 734 61 740 65 745C69 750 74 755 79 759C84 763 88 768 92 773C96 778 99 783 101 790C102 796 104 803 104 810L104 829C104 836 103 843 102 849C98 869 91 891 78 913C65 935 46 958 21 981C4 993-13 1004-29 1013C-45 1022-61 1031-77 1038C-93 1045-108 1050-124 1055C-140 1060-156 1064-173 1067C-185 1069-196 1072-206 1073C-216 1074-226 1075-236 1075C-246 1075-256 1075-266 1073C-276 1071-287 1068-298 1064C-309 1060-322 1054-335 1047C-348 1040-362 1032-378 1021C-362 1041-346 1056-331 1069C-316 1082-301 1091-285 1098C-269 1105-253 1110-235 1111C-229 1112-222 1112-215 1112C-203 1112-189 1111-175 1109C-148 1106-121 1099-94 1091C-67 1083-42 1072-18 1058C6 1044 29 1028 50 1009C71 990 89 968 105 944C112 933 118 923 124 913C130 903 136 892 141 882C146 872 150 861 153 849C156 837 158 825 159 812C159 805 160 798 160 791C160 784 159 777 159 770C158 756 156 742 153 728C147 707 140 690 132 676C129 670 125 664 121 659C117 654 113 649 108 646C103 643 98 642 93 641C92 641 92 640 91 640"/>
</svg>