<svg xmlns="http://www.w3.org/2000/svg" viewBox="0 0 153 1204">
  <path d="M68 773C72 779 76 784 78 790C80 796 80 803 80 810L80 829C80 836 80 843 79 849C75 869 67 891 54 913C41 935 22 957-3 980C-20 992-36 1004-52 1013C-68 1022-84 1031-100 1038C-116 1045-132 1050-148 1055C-164 1060-180 1064-197 1067C-209 1069-220 1072-230 1073C-240 1074-250 1075-260 1075C-270 1075-280 1074-290 1072C-300 1070-311 1068-322 1064C-333 1060-345 1054-358 1047C-371 1040-385 1031-401 1020C-385 1040-370 1056-355 1069C-340 1082-325 1091-309 1098C-293 1105-276 1110-258 1111C-252 1112-245 1111-238 1111C-226 1111-213 1111-199 1109C-172 1106-145 1099-118 1091C-91 1083-65 1072-41 1058C-17 1044 5 1028 26 1009C47 990 65 968 81 944C88 933 95 923 101 913C107 903 112 892 117 882C122 872 127 861 130 849C133 837 135 825 136 812L136 794L172 794L172 743L132 743C126 706 102 692 81 692C56 692 42 711 42 728C42 733 43 739 46 743C60 761 61 763 68 773"/>
</svg>