<svg xmlns="http://www.w3.org/2000/svg" viewBox="0 0 221 1204">
  <path d="M108 487C105 487 103 487 100 488C96 489 93 491 89 494C85 497 82 501 79 506C76 511 73 518 71 526C70 530 70 533 71 537C72 541 73 545 75 547C77 550 79 552 81 553C83 554 84 556 85 557C85 557 87 558 92 560C97 562 103 562 111 560C116 559 120 556 124 554C128 552 131 550 133 547C135 544 137 541 138 539C139 537 141 536 141 535C144 530 145 525 145 520C145 515 144 511 143 507C141 503 139 499 135 496C126 490 119 488 111 487M108 640C103 640 99 642 94 645C88 648 84 652 80 656C76 660 73 665 71 669C69 673 68 679 67 683C66 687 66 692 66 696C66 706 67 716 71 726C74 734 79 740 83 745C87 750 91 755 96 759C101 763 105 768 109 773C113 778 117 783 119 790C120 796 121 803 121 810L121 829C121 836 121 843 120 849C116 869 108 891 95 913C82 935 63 958 38 981C21 993 5 1004-11 1013C-27 1022-43 1031-59 1038C-75 1045-91 1050-107 1055C-123 1060-139 1064-156 1067C-168 1069-179 1072-189 1073C-199 1074-209 1075-219 1075C-229 1075-239 1075-249 1073C-259 1071-270 1068-281 1064C-292 1060-304 1054-317 1047C-330 1040-344 1032-360 1021C-344 1041-329 1056-314 1069C-299 1082-284 1091-268 1098C-252 1105-235 1110-217 1111C-211 1112-204 1112-197 1112C-185 1112-172 1111-158 1109C-131 1106-104 1099-77 1091C-50 1083-24 1072 0 1058C24 1044 46 1028 67 1009C88 990 106 968 122 944C129 933 136 923 142 913C148 903 153 892 158 882C163 872 168 861 171 849C174 837 176 825 177 812L177 791L177 770C176 756 173 742 170 728C164 707 157 690 149 676C146 670 142 664 138 659C134 654 130 649 125 646C120 643 115 642 110 641C109 641 109 640 108 640"/>
</svg>