<svg xmlns="http://www.w3.org/2000/svg" viewBox="0 0 189 1204">
  <path d="M88 564C85 564 83 564 80 565C76 566 73 568 69 571C65 574 61 578 58 583C55 588 53 595 50 603C49 607 49 611 50 615C51 619 52 622 54 625C56 628 58 631 60 632C62 633 63 635 64 636C64 636 67 637 72 639C77 641 83 641 91 639C96 638 100 636 104 633C108 630 110 628 113 625C116 622 118 619 119 617C120 615 121 614 121 613C124 607 126 603 126 598C126 593 125 589 124 585C122 581 120 576 116 573C107 567 98 565 90 564M101 692C76 692 62 711 62 728C62 733 64 739 67 743C81 761 82 763 89 773C93 779 96 784 98 790C100 796 100 803 100 810C100 816 101 822 101 829C101 836 100 843 99 849C95 869 88 891 75 913C62 935 43 957 18 980C1 992-16 1004-32 1013C-48 1022-64 1031-80 1038C-96 1045-111 1050-127 1055C-143 1060-159 1064-176 1067C-188 1069-199 1072-209 1073C-219 1074-229 1075-239 1075C-249 1075-259 1074-269 1072C-279 1070-290 1068-301 1064C-312 1060-325 1054-338 1047C-351 1040-365 1031-381 1020C-365 1040-349 1056-334 1069C-319 1082-304 1091-288 1098C-272 1105-256 1110-238 1111C-232 1112-225 1111-218 1111C-206 1111-193 1111-179 1109C-152 1106-124 1099-97 1091C-70 1083-45 1072-21 1058C3 1044 26 1028 47 1009C68 990 86 968 102 944C109 933 115 923 121 913C127 903 133 892 138 882C143 872 147 861 150 849C153 837 155 825 156 812C156 806 157 800 157 794L213 794L213 743L153 743C147 706 122 692 101 692"/>
</svg>