<svg xmlns="http://www.w3.org/2000/svg" viewBox="0 0 385 1204">
  <path d="M224 487C221 487 218 487 215 488C211 489 208 491 204 494C200 497 197 501 194 506C191 511 189 519 186 527C185 531 184 535 185 539C186 543 188 546 190 549C192 552 194 554 196 555C198 556 199 558 200 559C200 559 203 560 208 562C213 564 219 564 227 562C232 561 236 559 240 556C244 553 246 551 249 548C252 545 254 543 255 541C256 539 257 537 257 536C260 530 262 526 262 521C262 516 260 512 259 508C257 504 255 500 251 497C242 491 234 488 226 487M172 564C169 564 167 564 164 565C160 566 157 568 153 571C149 574 146 578 143 583C140 588 137 595 134 603C133 607 133 611 134 615C135 619 137 622 139 625C141 628 142 631 144 632C146 633 148 635 149 636C149 636 151 637 156 639C161 641 168 641 176 639C181 638 184 636 188 633C192 630 195 628 198 625C201 622 202 619 203 617C204 615 206 614 206 613C209 607 210 603 210 598C210 593 209 589 208 585C206 581 204 576 200 573C191 567 183 565 175 564M259 564C256 564 254 564 251 565C247 566 244 568 240 571C236 574 233 578 230 583C227 588 225 595 222 603C221 607 220 611 221 615C222 619 224 622 226 625C228 628 230 631 232 632C234 633 235 635 236 636C236 636 238 637 243 639C248 641 255 641 263 639C268 638 271 636 275 633C279 630 282 628 285 625C288 622 289 619 290 617C291 615 293 614 293 613C296 607 298 603 298 598C298 593 296 589 295 585C293 581 291 576 287 573C278 567 270 565 262 564M314 640C291 640 280 658 280 674C280 681 281 687 285 692C299 710 301 709 308 719C312 724 314 729 314 733C314 746 297 756 286 758L283 758C253 758 244 692 214 692C193 692 195 755 168 756L167 756C136 756 132 692 101 692C80 692 87 743 51 743L0 743L0 794L51 794C99 794 111 767 111 767C111 767 132 794 168 794C204 794 226 767 226 767C226 767 245 794 286 794C328 794 369 766 369 714C369 672 338 640 314 640"/>
</svg>