<svg xmlns="http://www.w3.org/2000/svg" viewBox="0 0 432 1204">
  <path d="M238 487C235 487 233 487 230 488C226 489 223 491 219 494C215 497 212 501 209 506C206 511 204 519 201 527C200 531 199 535 200 539C201 543 203 546 205 549C207 552 209 554 211 555C213 556 214 558 215 559C215 559 217 560 222 562C227 564 234 564 242 562C247 561 250 559 254 556C258 553 261 551 264 548C267 545 268 543 269 541C270 539 272 537 272 536C275 530 276 526 276 521C276 516 275 512 274 508C272 504 270 500 266 497C257 491 249 488 241 487M187 564C184 564 182 564 179 565C175 566 172 568 168 571C164 574 161 578 158 583C155 588 152 595 149 603C148 607 148 611 149 615C150 619 152 622 154 625C156 628 157 631 159 632C161 633 163 635 164 636C164 636 166 637 171 639C176 641 183 641 191 639C196 638 199 636 203 633C207 630 209 628 212 625C215 622 217 619 218 617C219 615 220 614 220 613C223 607 225 603 225 598C225 593 224 589 223 585C221 581 219 576 215 573C206 567 198 565 190 564M274 564C271 564 269 564 266 565C262 566 259 568 255 571C251 574 248 578 245 583C242 588 239 595 236 603C235 607 235 611 236 615C237 619 239 622 241 625C243 628 245 631 247 632C249 633 250 635 251 636C251 636 253 637 258 639C263 641 270 641 278 639C283 638 286 636 290 633C294 630 296 628 299 625C302 622 304 619 305 617C306 615 307 614 307 613C310 607 312 603 312 598C312 593 311 589 310 585C308 581 306 576 302 573C293 567 285 565 277 564M101 692C80 692 87 743 51 743L0 743L0 794L51 794C99 794 110 767 110 767C110 767 131 794 167 794C203 794 225 767 225 767C225 767 243 793 282 794L284 794C322 794 344 768 344 768C344 768 362 794 410 794L451 794L451 743L410 743C375 743 364 693 333 693C312 693 311 753 284 754L283 754C253 754 242 692 214 692C193 692 194 755 167 756C136 756 132 692 101 692"/>
</svg>