<svg xmlns="http://www.w3.org/2000/svg" viewBox="0 0 1085 1204">
  <path d="M735 486C732 486 730 486 727 487C723 488 720 490 716 493C712 496 709 500 706 505C703 510 700 517 697 525C696 529 696 533 697 537C698 541 699 544 701 547C703 550 705 553 707 554C709 555 711 556 712 557C712 557 714 559 719 561C724 563 730 563 738 561C743 560 747 558 751 555C755 552 757 550 760 547C763 544 765 541 766 539C767 537 768 536 768 535C771 529 773 524 773 519C773 514 772 511 771 507C769 503 767 498 763 495C754 489 746 487 738 486M1061 692C1036 570 922 562 901 562C811 562 765 632 753 661C745 682 735 718 730 739C707 727 693 692 674 692C655 692 648 707 648 725C648 750 658 781 663 794C665 802 667 812 667 821C667 836 664 848 664 849C660 869 653 890 640 912C627 934 608 957 583 980C566 992 549 1004 533 1013C517 1022 501 1030 485 1037C477 1040 418 1063 359 1063L355 1063C293 1062 232 1037 224 1032C208 1023 192 1013 178 1003C164 993 151 982 139 971C127 960 116 947 105 934C97 925 89 917 83 909C77 901 71 893 66 884C61 875 57 866 53 856C49 846 47 836 45 824C43 812 41 799 41 784L41 772C41 760 42 748 43 734C34 758 27 779 24 798C22 810 20 823 20 834C20 840 21 847 22 853C24 870 28 887 36 903C44 919 54 935 67 953C84 975 102 996 123 1015C144 1034 166 1050 190 1064C214 1078 239 1089 266 1098C289 1105 322 1111 348 1111L355 1111L356 1111C449 1111 537 1062 544 1058C568 1044 591 1028 612 1009C633 990 651 968 667 944C709 878 712 868 713 794L713 786C713 787 714 794 748 794L976 794C978 808 990 822 1010 822C1027 822 1042 811 1051 794L1106 794L1106 743L1065 743L1065 730C1065 717 1064 705 1061 692M901 611L902 611C966 611 1006 663 1012 691C1014 699 1016 706 1016 713C1016 722 1013 732 1004 743L818 743L757 743C764 721 774 694 783 678C807 636 860 611 901 611"/>
</svg>