<svg xmlns="http://www.w3.org/2000/svg" viewBox="0 0 419 1204">
  <path d="M69 486C66 486 64 486 61 487C57 488 54 490 50 493C46 496 43 500 40 505C37 510 35 517 32 525C31 529 30 533 31 537C32 541 34 544 36 547C38 550 40 553 42 554C44 555 45 556 46 557C46 557 48 559 53 561C58 563 65 563 73 561C78 560 81 558 85 555C89 552 92 550 95 547C98 544 99 541 100 539C101 537 103 536 103 535C106 529 108 524 108 519C108 514 106 511 105 507C103 503 101 498 97 495C88 489 80 487 72 486M395 692C370 570 256 562 235 562C145 562 100 632 88 661C80 682 70 722 65 743L40 743L0 743L0 794L82 794L311 794C313 808 324 822 344 822C361 822 376 811 385 794L440 794L440 743L399 743L399 730C399 717 398 705 395 692M236 611C300 611 341 663 347 691C349 699 350 706 350 713C350 722 347 732 338 743L177 743L92 743C99 721 108 694 117 678C141 636 195 611 236 611"/>
</svg>