<svg xmlns="http://www.w3.org/2000/svg" viewBox="0 0 581 1204">
  <path d="M401 289C393 283 385 282 379 282C362 282 345 293 341 310L341 312C341 340 374 355 372 384C333 514 270 638 184 743L133 743C28 743 20 698 20 692C20 696 23 794 133 794L184 794L247 794L475 794C477 808 489 822 509 822C526 822 541 811 550 794L594 794L594 743L564 743L564 730C564 717 563 704 560 691C534 567 417 562 400 562C377 562 356 567 339 574C378 507 417 434 426 358L426 356C426 332 423 303 401 289M400 611L401 611C465 611 505 663 511 691C513 699 515 706 515 713C515 722 512 732 503 743C438 743 414 742 402 742C379 742 403 743 236 743L226 743C278 682 316 622 400 611"/>
</svg>