<svg xmlns="http://www.w3.org/2000/svg" viewBox="0 0 450 1204">
  <path d="M257 289C249 283 241 282 235 282C218 282 201 293 197 310L197 312C197 340 229 355 227 384C188 514 126 638 40 743L0 743L0 794L102 794L331 794C333 808 345 822 365 822C382 822 396 808 405 794C414 779 417 761 419 743C419 738 420 734 420 729C420 717 419 704 416 691C390 567 273 562 256 562L255 562C232 562 212 567 195 574C234 507 273 434 282 358L282 356C282 332 279 303 257 289M256 611C320 611 361 663 367 691C369 699 371 706 371 713C371 722 367 732 358 743C293 743 270 742 258 742C235 742 258 743 91 743L82 743C134 682 172 622 256 611"/>
</svg>