<svg xmlns="http://www.w3.org/2000/svg" viewBox="0 0 441 1204">
  <path d="M257 289C249 283 241 282 235 282C218 282 201 293 197 310L197 312C197 340 230 355 228 384C189 514 126 638 40 743L0 743L0 790L0 794L102 794L331 794C333 808 345 822 365 822C382 822 397 811 406 794L461 794L461 743L419 743C419 739 420 734 420 730C420 717 419 704 416 691C390 567 273 562 256 562C233 562 212 567 195 574C234 507 273 434 282 358L282 356C282 332 279 303 257 289M356 410C353 410 351 410 348 411C344 412 341 414 337 417C333 420 330 425 327 430C324 435 321 442 318 450C317 454 317 458 318 462C319 466 321 469 323 472C325 475 326 477 328 478C330 479 332 481 333 482C333 482 335 483 340 485C345 487 352 487 360 485C365 484 368 482 372 479C376 476 378 474 381 471C384 468 386 466 387 464C388 462 389 461 389 460C392 454 394 449 394 444C394 439 393 435 392 431C390 427 388 423 384 420C375 414 367 411 359 410M256 611L257 611C321 611 361 663 367 691C369 699 371 706 371 713C371 722 367 732 358 743C293 743 270 742 258 742C235 742 259 743 92 743L82 743C134 682 172 622 256 611"/>
</svg>