<svg xmlns="http://www.w3.org/2000/svg" viewBox="0 0 391 1204">
  <path d="M211 520C163 522 98 538 78 570C73 578 71 585 71 592C71 610 84 627 101 640C130 662 166 692 166 692C153 703 124 725 104 743C46 795 20 859 20 922C20 1064 152 1203 348 1203C365 1203 381 1202 399 1200C263 1198 83 1068 83 923C83 863 114 800 194 743C210 731 214 729 214 729C250 756 301 794 352 794L387 794L410 794L410 743L372 743L352 743C308 743 253 694 253 694C253 694 305 664 321 648C324 645 343 643 352 637C362 630 376 623 376 607C376 573 334 573 325 563C303 539 267 519 217 519C215 519 213 520 211 520M212 575C260 576 278 609 278 609C249 636 243 640 211 662C179 640 167 630 143 610C137 605 135 601 135 597C135 582 172 575 208 575"/>
</svg>