<svg xmlns="http://www.w3.org/2000/svg" viewBox="0 0 336 1204">
  <path d="M192 487L190 487C162 487 131 496 105 515C65 543 40 591 40 640C40 651 41 662 44 673C50 700 61 724 77 743L0 743L0 794L169 794L190 794L222 794C249 794 251 793 261 784C268 778 273 768 272 759C271 750 263 740 255 737C253 736 251 736 249 736C239 736 226 743 222 743L182 743L178 743C169 743 149 742 138 737C109 723 92 684 90 652C90 650 89 647 89 645C89 614 103 579 127 561C144 547 168 542 192 542C205 542 218 543 230 546C256 552 265 603 292 603C296 603 300 601 305 599C316 594 321 579 321 566C321 562 320 559 319 555C313 532 290 520 268 507C246 494 221 487 192 487"/>
</svg>