<svg xmlns="http://www.w3.org/2000/svg" viewBox="0 0 373 1204">
  <path d="M187 571C139 573 74 589 54 621C49 629 47 636 47 643C47 661 60 678 77 691C106 713 142 743 142 743L0 743L0 794L133 794C158 794 186 776 186 776C186 776 213 794 246 794L389 794L389 743L363 743L278 743L238 743C255 729 281 715 297 699C300 696 319 694 328 688C338 681 352 674 352 658C352 624 309 625 300 615C278 591 243 571 193 571M188 626C236 627 254 660 254 660C225 687 219 691 187 713C155 691 143 681 119 661C113 656 111 652 111 648C111 633 148 626 184 626"/>
</svg>