<svg xmlns="http://www.w3.org/2000/svg" viewBox="0 0 382 1204">
  <path d="M223 333C220 333 218 333 215 334C211 335 208 337 204 340C200 343 197 348 194 353C191 358 188 365 185 373C184 377 184 381 185 385C186 389 187 392 189 395C191 398 193 400 195 401C197 402 199 404 200 405C200 405 202 407 207 409C212 411 218 411 226 409C231 408 235 406 239 403C243 400 245 398 248 395C251 392 253 389 254 387C255 385 256 384 256 383C259 377 261 372 261 367C261 362 260 358 259 354C257 350 255 346 251 343C242 337 234 334 226 333M233 487L231 487C203 487 172 496 146 515C106 543 81 591 81 640C81 651 82 662 85 673C95 714 113 746 149 769C66 805 20 886 20 968C20 1084 112 1204 318 1204C340 1204 364 1202 389 1199C186 1196 71 1081 71 970C71 901 115 833 210 794L237 794L263 794C290 794 292 793 302 784C309 778 313 768 312 759C311 750 304 740 296 737C294 736 292 736 290 736C280 736 267 743 263 743L223 743L219 743C210 743 190 742 179 737C150 723 133 684 131 652C131 650 130 647 130 645C130 614 144 579 168 561C185 547 209 542 233 542C246 542 259 543 271 546C297 552 306 603 333 603C337 603 341 601 346 599C357 594 362 579 362 566C362 562 361 559 360 555C354 532 331 520 309 507C287 494 262 487 233 487"/>
</svg>