<svg xmlns="http://www.w3.org/2000/svg" viewBox="0 0 345 1204">
  <path d="M174 334C170 335 167 337 163 340C159 343 156 348 153 353C150 358 147 365 144 373C143 377 143 381 144 385C145 389 146 392 148 395C150 398 152 400 154 401C156 402 158 404 159 405C159 405 161 406 166 408C171 410 177 410 185 408C190 407 194 406 198 403C202 400 204 398 207 395C210 392 212 389 213 387C214 385 215 384 215 383C218 377 220 372 220 367C220 362 219 358 218 354C216 350 214 346 210 343C201 337 193 334 186 334C179 334 177 333 174 334M105 515C65 543 40 591 40 640C40 651 41 662 44 673C50 700 61 724 77 743L0 743L0 794L169 794L190 794L222 794C249 794 251 793 261 784C268 778 273 768 272 759C271 750 263 740 255 737C253 736 251 736 249 736C239 736 226 743 222 743L182 743L178 743C169 743 149 742 138 737C109 723 92 684 90 652C90 650 89 647 89 645C89 614 103 579 127 561C144 547 168 541 192 541C205 541 218 543 230 546C256 552 265 603 292 603C296 603 300 601 305 599C316 594 321 579 321 566C321 562 320 557 319 554C313 531 290 520 268 507C246 494 221 487 192 487L190 487C162 487 131 496 105 515"/>
</svg>