<svg xmlns="http://www.w3.org/2000/svg" viewBox="0 0 371 1204">
  <path d="M192 384C189 384 187 385 184 386C180 387 177 388 173 391C169 394 166 399 163 404C160 409 157 416 154 424C153 428 153 432 154 436C155 440 157 443 159 446C161 449 163 452 165 453C167 454 168 455 169 456C169 456 171 458 176 460C181 462 188 462 196 460C201 459 204 457 208 454C212 451 215 449 218 446C221 443 222 440 223 438C224 436 226 435 226 434C229 428 230 423 230 418C230 413 229 410 228 406C226 402 224 397 220 394C211 388 203 385 195 384M187 571C139 573 74 589 54 621C49 629 47 636 47 643C47 661 60 678 77 691C106 713 142 743 142 743L0 743L0 794L133 794C158 794 186 776 186 776C186 776 213 794 246 794L389 794L389 743L363 743L278 743L238 743C255 729 281 715 297 699C300 696 319 694 328 688C338 681 352 674 352 658C352 624 309 625 300 615C278 591 243 571 193 571M188 626C236 627 254 660 254 660C225 687 219 691 187 713C155 691 143 681 119 661C113 656 111 652 111 648C111 633 148 626 184 626"/>
</svg>