<svg xmlns="http://www.w3.org/2000/svg" viewBox="0 0 588 1204">
  <path d="M479 487C476 487 474 487 471 488C467 489 464 491 460 494C456 497 453 501 450 506C447 511 444 519 441 527C440 531 440 535 441 539C442 543 443 546 445 549C447 552 449 554 451 555C453 556 455 558 456 559C456 559 458 560 463 562C468 564 474 564 482 562C487 561 491 559 495 556C499 553 501 551 504 548C507 545 509 543 510 541C511 539 512 537 512 536C515 530 517 526 517 521C517 516 516 512 515 508C513 504 511 500 507 497C498 491 490 488 482 487M87 568C71 568 20 620 20 676C20 734 75 794 280 794L614 794L614 743L546 742C546 742 558 727 558 703C558 699 558 696 557 692C553 670 537 640 485 640C452 640 428 661 419 692C417 699 416 706 416 712C416 731 424 743 424 743L280 743C91 743 45 699 45 655C45 611 91 568 87 568M488 692C505 692 512 704 512 716C512 729 503 743 486 743C469 743 459 730 459 717C459 704 469 692 488 692"/>
</svg>