<svg xmlns="http://www.w3.org/2000/svg" viewBox="0 0 277 1204">
  <path d="M162 333C159 333 157 333 154 334C150 335 147 337 143 340C139 343 136 348 133 353C130 358 127 365 124 373C123 377 123 381 124 385C125 389 127 392 129 395C131 398 132 400 134 401C136 402 138 404 139 405C139 405 141 407 146 409C151 411 158 411 166 409C171 408 174 406 178 403C182 400 184 398 187 395C190 392 192 389 193 387C194 385 195 384 195 383C198 377 200 372 200 367C200 362 199 358 198 354C196 350 194 346 190 343C181 337 173 334 165 333M171 487C149 487 129 496 118 506C98 523 92 545 92 565C92 599 107 615 126 627C145 640 184 640 198 640L203 640C203 640 206 648 206 659C206 689 187 743 49 743L0 743L0 794L47 794C240 794 248 689 248 642C248 541 223 487 171 487M201 603L189 603C164 603 145 600 139 581C138 577 137 573 137 569C137 550 156 541 167 541L170 541C192 546 198 566 201 603"/>
</svg>