<svg xmlns="http://www.w3.org/2000/svg" viewBox="0 0 240 1204">
  <path d="M141 487C138 487 136 487 133 488C129 489 126 491 122 494C118 497 115 501 112 506C109 511 106 519 103 527C102 531 102 535 103 539C104 543 106 546 108 549C110 552 111 554 113 555C115 556 117 558 118 559C118 559 120 560 125 562C130 564 137 564 145 562C150 561 153 559 157 556C161 553 163 551 166 548C169 545 171 543 172 541C173 539 174 537 174 536C177 530 179 526 179 521C179 516 178 512 177 508C175 504 173 500 169 497C160 491 152 488 144 487M0 794L266 794L266 743L208 742C208 742 220 727 220 703C220 699 220 696 219 692C215 670 199 640 147 640C114 640 90 661 81 692C79 699 78 706 78 712C78 731 86 743 86 743L0 743M150 692C167 692 174 704 174 716C174 729 165 743 148 743C131 743 122 730 122 717C122 704 131 692 150 692"/>
</svg>