<svg xmlns="http://www.w3.org/2000/svg" viewBox="0 0 572 1204">
  <path d="M377 487C374 487 371 487 368 488C364 489 361 491 357 494C353 497 350 501 347 506C344 511 342 519 339 527C338 531 338 535 339 539C340 543 341 546 343 549C345 552 347 554 349 555C351 556 352 558 353 559C353 559 356 560 361 562C366 564 372 564 380 562C385 561 389 559 393 556C397 553 399 551 402 548C405 545 407 543 408 541C409 539 410 537 410 536C413 530 415 526 415 521C415 516 413 512 412 508C410 504 408 500 404 497C395 491 387 488 379 487M464 487C461 487 458 487 455 488C451 489 448 491 444 494C440 497 437 501 434 506C431 511 429 519 426 527C425 531 425 535 426 539C427 543 428 546 430 549C432 552 434 554 436 555C438 556 439 558 440 559C440 559 443 560 448 562C453 564 459 564 467 562C472 561 476 559 480 556C484 553 486 551 489 548C492 545 494 543 495 541C496 539 497 537 497 536C500 530 502 526 502 521C502 516 500 512 499 508C497 504 495 500 491 497C482 491 474 488 466 487M70 568C55 568 20 634 20 713C20 812 75 926 290 927L294 927C483 927 551 825 551 734C551 660 505 592 444 592C435 592 425 594 415 597C367 613 347 649 347 684C347 709 358 733 378 749C392 760 413 764 434 764C469 764 503 754 503 754C503 754 504 758 504 763C504 791 487 876 290 876C89 876 46 781 46 696C46 629 74 568 70 568M428 643C434 641 440 641 444 641C489 641 494 707 494 707C494 707 464 723 436 723C427 723 417 721 410 716C401 710 395 698 395 684C395 668 404 650 428 643"/>
</svg>