<svg xmlns="http://www.w3.org/2000/svg" viewBox="0 0 575 1204">
  <path d="M428 487C425 487 423 487 420 488C416 489 413 491 409 494C405 497 401 501 398 506C395 511 393 519 390 527C389 531 389 535 390 539C391 543 392 546 394 549C396 552 398 554 400 555C402 556 403 558 404 559C404 559 407 560 412 562C417 564 423 564 431 562C436 561 440 559 444 556C448 553 450 551 453 548C456 545 458 543 459 541C460 539 461 537 461 536C464 530 466 526 466 521C466 516 465 512 464 508C462 504 460 500 456 497C447 491 438 488 430 487M515 487C512 487 510 487 507 488C503 489 500 491 496 494C492 497 488 501 485 506C482 511 480 519 477 527C476 531 476 535 477 539C478 543 479 546 481 549C483 552 485 554 487 555C489 556 490 558 491 559C491 559 494 560 499 562C504 564 510 564 518 562C523 561 527 559 531 556C535 553 537 551 540 548C543 545 545 543 546 541C547 539 548 537 548 536C551 530 553 526 553 521C553 516 552 512 551 508C549 504 547 500 543 497C534 491 525 488 517 487M70 568C55 568 20 634 20 713C20 812 75 926 290 927L294 927C442 927 516 865 541 794L594 794L594 743L551 743C551 743 554 725 554 709C554 703 554 697 553 692C546 665 537 640 485 640C445 640 415 674 415 715C415 724 417 733 420 743C437 794 497 794 497 794C482 829 435 876 290 876C89 876 46 781 46 696C46 629 74 568 70 568M488 692C503 692 510 700 511 714C512 728 510 742 510 742C510 742 506 743 501 743C478 743 462 734 462 716C462 706 469 692 488 692"/>
</svg>