<svg xmlns="http://www.w3.org/2000/svg" viewBox="0 0 274 1204">
  <path d="M90 333C87 333 85 333 82 334C78 335 75 337 71 340C67 343 64 348 61 353C58 358 56 365 53 373C52 377 51 381 52 385C53 389 55 392 57 395C59 398 61 400 63 401C65 402 66 404 67 405C67 405 69 407 74 409C79 411 86 411 94 409C99 408 102 406 106 403C110 400 113 398 116 395C119 392 120 389 121 387C122 385 124 384 124 383C127 377 128 372 128 367C128 362 127 358 126 354C124 350 122 346 118 343C109 337 101 334 93 333M177 333C174 333 172 333 169 334C165 335 162 337 158 340C154 343 151 348 148 353C145 358 143 365 140 373C139 377 138 381 139 385C140 389 142 392 144 395C146 398 148 400 150 401C152 402 153 404 154 405C154 405 156 407 161 409C166 411 173 411 181 409C186 408 189 406 193 403C197 400 200 398 203 395C206 392 207 389 208 387C209 385 211 384 211 383C214 377 215 372 215 367C215 362 214 358 213 354C211 350 209 346 205 343C196 337 188 334 180 333M171 487C149 487 129 496 118 506C98 523 92 545 92 565C92 599 106 615 125 627C144 640 184 640 198 640L203 640C203 640 206 648 206 659C206 689 187 743 49 743L0 743L0 794L47 794C240 794 248 689 248 642C248 541 223 487 171 487M168 541L170 541C192 546 198 566 201 603L189 603C164 603 145 600 139 581C138 577 137 573 137 569C137 550 156 541 167 541"/>
</svg>