<svg xmlns="http://www.w3.org/2000/svg" viewBox="0 0 251 1204">
  <path d="M90 487C87 487 85 487 82 488C78 489 75 491 71 494C67 497 64 501 61 506C58 511 55 519 52 527C51 531 51 535 52 539C53 543 54 546 56 549C58 552 60 554 62 555C64 556 65 558 66 559C66 559 69 560 74 562C79 564 85 564 93 562C98 561 102 559 106 556C110 553 112 551 115 548C118 545 120 543 121 541C122 539 123 537 123 536C126 530 128 526 128 521C128 516 127 512 126 508C124 504 122 500 118 497C109 491 100 488 92 487M177 487C174 487 172 487 169 488C165 489 162 491 158 494C154 497 151 501 148 506C145 511 142 519 139 527C138 531 138 535 139 539C140 543 141 546 143 549C145 552 147 554 149 555C151 556 152 558 153 559C153 559 156 560 161 562C166 564 172 564 180 562C185 561 189 559 193 556C197 553 199 551 202 548C205 545 207 543 208 541C209 539 210 537 210 536C213 530 215 526 215 521C215 516 214 512 213 508C211 504 209 500 205 497C196 491 188 488 180 487M147 640C114 640 90 661 81 692C79 699 78 706 78 712C78 731 86 743 86 743L0 743L0 794L276 794L276 743L208 742C208 742 220 727 220 703C220 699 220 696 219 692C215 670 199 640 147 640M150 692C167 692 174 704 174 716C174 729 165 743 148 743C131 743 122 730 122 717C122 704 131 692 150 692"/>
</svg>