<svg xmlns="http://www.w3.org/2000/svg" viewBox="0 0 735 1204">
  <path d="M507 319C499 319 494 321 488 326C483 331 477 338 470 341C350 388 257 472 197 539C155 586 137 620 137 643C137 682 188 692 256 692L568 692C617 692 640 704 649 743L0 743L0 794L655 794C655 794 661 803 665 805C671 808 677 809 684 809C690 809 697 808 702 805C707 802 715 794 715 794L758 794L758 743L712 743C703 675 667 640 567 640L249 640C212 640 195 634 195 619C195 608 204 592 221 571C284 494 406 398 504 373C515 370 540 374 546 359C547 357 547 354 547 352C547 344 540 338 523 323C519 319 511 319 507 319"/>
</svg>