<svg xmlns="http://www.w3.org/2000/svg" viewBox="0 0 542 1204">
  <path d="M432 180C417 180 408 186 403 198C401 203 400 209 400 215C400 225 402 236 408 248C413 258 416 281 418 297C420 313 421 328 421 344C421 354 420 365 420 375L420 385C420 414 421 442 421 471L421 513C417 788 433 1054 264 1062L255 1062C149 1062 45 971 45 825C45 797 48 766 57 734C31 784 20 832 20 875C20 1021 147 1118 264 1118C403 1118 461 1022 468 781C491 794 519 794 519 794L573 794L573 743L519 743C519 743 492 743 469 729C469 701 468 671 467 639L469 540C469 540 470 386 471 309L471 293C471 226 461 189 439 180"/>
</svg>