<svg xmlns="http://www.w3.org/2000/svg" viewBox="0 0 350 1204">
  <path d="M205 628C176 628 156 648 134 663C109 680 86 675 66 721C59 738 55 755 55 772C55 781 56 790 58 799C69 854 85 915 85 975C85 993 84 1011 80 1028C69 1079 63 1098-8 1161C-21 1172-27 1179-27 1183C-27 1185-25 1186-23 1186C-18 1186-10 1183 1 1176C63 1143 108 1102 126 1043C134 1018 136 992 136 966C136 901 117 837 108 789C106 781 104 771 104 762C104 758 105 755 106 751C108 745 109 734 116 734C122 734 123 745 125 750C138 784 167 808 205 808C229 808 250 798 266 783C269 780 273 779 276 779C280 779 283 781 288 783C310 794 314 794 335 794L395 794L395 743L335 743C319 743 300 733 295 718C282 683 254 628 205 628M207 675C229 675 247 696 247 718C247 740 227 764 205 764C183 764 161 740 161 718C161 696 185 675 207 675"/>
</svg>