<svg xmlns="http://www.w3.org/2000/svg" viewBox="0 0 753 1204">
  <path d="M377 564C374 564 371 564 368 565C364 566 361 568 357 571C353 574 350 578 347 583C344 588 342 595 339 603C338 607 338 611 339 615C340 619 341 622 343 625C345 628 347 631 349 632C351 633 352 635 353 636C353 636 356 637 361 639C366 641 372 641 380 639C385 638 389 636 393 633C397 630 399 628 402 625C405 622 407 619 408 617C409 615 410 614 410 613C413 607 415 603 415 598C415 593 413 589 412 585C410 581 408 576 404 573C395 567 387 565 379 564M667 692C642 692 627 711 627 728C627 733 629 739 632 743C646 761 647 763 654 773C658 779 662 784 664 790C666 796 666 803 666 810L666 829C666 836 665 843 664 849C660 869 653 890 640 912C627 934 608 957 583 980C566 992 549 1004 533 1013C517 1022 501 1030 485 1037C477 1040 418 1063 359 1063L355 1063C293 1062 232 1037 224 1032C208 1023 192 1013 178 1003C164 993 151 982 139 971C127 960 116 947 105 934C97 925 89 917 83 909C77 901 71 893 66 884C61 875 57 866 53 856C49 846 47 836 45 824C43 812 41 799 41 784L41 772C41 760 42 748 43 734C34 758 27 779 24 798C22 810 20 823 20 834C20 840 21 847 22 853C24 870 28 887 36 903C44 919 54 935 67 953C84 975 102 996 123 1015C144 1034 166 1050 190 1064C214 1078 239 1089 266 1098C289 1105 322 1111 348 1111L355 1111L356 1111C449 1111 537 1062 544 1058C568 1044 591 1028 612 1009C633 990 651 968 667 944C674 933 680 923 686 913C692 903 698 892 703 882C708 872 712 861 715 849C718 837 720 825 721 812C721 806 722 800 722 794L778 794L778 743L718 743C712 706 688 692 667 692"/>
</svg>