<svg xmlns="http://www.w3.org/2000/svg" viewBox="0 0 220 1204">
  <path d="M69 333C66 333 64 333 61 334C57 335 54 337 50 340C46 343 43 348 40 353C37 358 35 365 32 373C31 377 30 381 31 385C32 389 34 392 36 395C38 398 40 400 42 401C44 402 45 404 46 405C46 405 48 407 53 409C58 411 65 411 73 409C78 408 81 406 85 403C89 400 92 398 95 395C98 392 99 389 100 387C101 385 103 384 103 383C106 377 108 372 108 367C108 362 106 358 105 354C103 350 101 346 97 343C88 337 80 334 72 333M132 487C128 487 123 489 119 492C114 495 109 499 106 503C103 507 99 511 97 516C95 521 94 526 93 530C92 534 92 539 92 543C92 553 94 562 97 573C100 581 104 588 108 593C112 598 117 603 121 607C125 611 129 615 133 620C137 625 139 631 141 638C143 650 144 662 144 675C144 742 119 743 117 743L0 743L0 794L114 794C114 794 195 794 195 660C195 608 191 567 169 523C166 517 163 511 159 506C155 501 151 496 147 493C143 490 139 488 134 487"/>
</svg>