<svg xmlns="http://www.w3.org/2000/svg" viewBox="0 0 234 1204">
  <path d="M126 487C104 487 93 509 88 527C87 529 87 531 87 533C87 549 103 564 119 564C121 564 124 564 126 563C150 558 164 533 164 519C164 505 154 494 141 490C136 488 131 487 126 487M137 640C119 641 114 661 112 676C109 698 106 723 89 739C81 745 71 742 61 743L0 743L0 794L13 794L51 794L85 794C107 792 126 778 138 760C151 780 174 794 198 794L204 794L276 794L276 743L263 743L225 743L192 743C175 737 170 717 166 701C161 682 165 659 149 645C146 642 141 640 137 640"/>
</svg>