<svg xmlns="http://www.w3.org/2000/svg" viewBox="0 0 252 1204">
  <path d="M177 487C158 487 150 496 147 505C145 510 144 516 144 522C144 532 147 543 153 555C158 565 161 588 163 604C165 620 165 653 165 653C142 635 124 623 99 623C91 623 82 624 72 627C34 640 20 673 20 704C20 723 26 741 34 752C54 779 84 792 114 794L118 794C144 794 174 780 190 765C207 750 216 727 216 691C216 665 217 641 217 616L217 601C217 551 210 487 177 487M112 663C133 664 149 680 167 691L167 699C167 710 165 721 158 731C149 744 132 751 116 751C100 751 84 744 75 730C70 722 67 714 67 705C67 701 68 696 69 692C74 676 87 663 108 663"/>
</svg>