<svg xmlns="http://www.w3.org/2000/svg" viewBox="0 0 251 1204">
  <path d="M144 487C129 487 119 498 116 505C114 510 113 516 113 522C113 532 116 543 122 555C124 559 125 563 126 568C106 599 76 626 48 648C30 662 20 683 20 703C20 712 23 720 26 728C37 751 65 764 93 764L101 764C123 762 140 755 155 750C164 763 192 794 243 794L261 794L261 743L244 743C228 743 211 738 199 720C210 707 220 690 232 670C219 679 205 689 189 697C186 687 184 676 184 665C184 659 183 653 183 647C183 623 186 597 186 572C186 549 184 527 174 508C164 493 156 487 144 487M134 631C135 648 135 665 136 680C137 692 138 705 141 717C127 722 110 726 96 726C82 726 71 721 66 710C65 708 64 705 64 703C64 679 115 657 134 631"/>
</svg>