<svg xmlns="http://www.w3.org/2000/svg" viewBox="0 0 403 1204">
  <path d="M172 487C152 487 130 492 113 509C105 517 101 529 101 541C101 558 110 574 127 574L128 574C157 572 154 559 159 545C163 534 180 523 194 523C196 523 198 524 200 524C239 533 285 568 303 602C315 625 323 660 323 690C323 709 320 727 313 738C297 761 268 787 222 787C213 787 204 786 194 784C176 780 167 767 160 763C162 762 167 757 169 756C193 739 217 720 217 691C217 671 207 655 194 643C182 631 166 621 146 621L143 621C122 622 107 634 95 648C83 662 75 678 75 697C75 709 77 723 84 739C73 741 59 743 46 743L18 743L0 743L0 794L18 794L48 794C70 793 96 791 118 784C136 800 157 813 180 819C193 822 206 824 219 824C267 824 317 802 345 761C360 739 366 714 366 689C366 653 354 616 338 587C311 537 260 503 207 491C197 489 185 487 174 487M148 714C144 717 135 722 130 725C125 716 125 706 126 697C127 691 129 687 134 681C139 675 143 673 147 673C154 673 159 680 159 690C159 698 156 707 148 714"/>
</svg>