<svg xmlns="http://www.w3.org/2000/svg" viewBox="0 0 428 1204">
  <path d="M172 487C152 487 130 493 113 510C105 518 101 530 101 542C101 559 110 574 127 574L128 574C157 572 154 559 159 545C163 534 180 524 194 524L200 524C239 533 285 568 303 602C315 625 323 661 323 691C323 710 320 727 313 738C297 761 268 788 222 788C213 788 204 787 194 785C176 781 167 768 160 764C162 763 167 758 169 757C193 740 217 721 217 692C217 672 207 655 194 643C182 631 166 622 146 622L143 622C122 623 107 634 95 648C83 662 75 679 75 698C75 710 77 724 84 740C73 742 46 743 46 743L0 743L0 794L46 794C46 794 96 793 118 785C136 801 157 814 180 820C193 823 206 825 219 825C261 825 304 808 333 777C353 793 399 794 408 794L410 794L451 794L451 743L410 743L409 743C404 743 380 742 360 731C364 717 366 703 366 689C366 653 354 617 338 588C311 538 260 503 207 491C197 489 185 487 174 487M146 674L147 674C154 674 159 681 159 691C159 699 156 708 148 715C144 719 135 723 130 726C125 717 125 707 126 698C127 692 129 687 134 681C138 676 142 674 146 674"/>
</svg>