<svg xmlns="http://www.w3.org/2000/svg" viewBox="0 0 269 1204">
  <path d="M92 659C70 678 66 701 66 718C66 731 69 744 75 755C81 765 90 774 100 780C109 786 120 790 131 792C140 794 157 794 157 794L175 794C174 803 170 831 164 849C157 871 149 891 136 913C123 935 104 957 79 980C62 992 45 1004 29 1013C13 1022-3 1031-19 1038C-35 1045-50 1050-66 1055C-82 1060-98 1064-115 1067C-127 1069-138 1072-148 1073C-158 1074-168 1075-178 1075C-188 1075-198 1074-208 1072C-218 1070-229 1068-240 1064C-251 1060-263 1054-276 1047C-289 1040-303 1031-319 1020C-303 1040-288 1056-273 1069C-258 1082-243 1091-227 1098C-211 1105-195 1110-177 1111C-171 1112-164 1111-157 1111C-145 1111-131 1111-117 1109C-90 1106-63 1099-36 1091C-9 1083 16 1072 40 1058C64 1044 86 1028 107 1009C128 990 147 968 163 944C170 933 176 923 182 913C188 903 194 892 199 882C204 872 208 861 211 849C214 837 217 824 219 812C221 797 223 782 223 767L223 759L223 749C223 726 222 701 210 682C197 661 174 640 146 640C124 640 103 649 92 659M176 734C176 737 177 740 177 743L161 743L156 743C149 743 135 742 129 737C125 733 123 728 123 723C123 713 131 703 143 702L144 702C161 702 174 720 176 734"/>
</svg>