<svg xmlns="http://www.w3.org/2000/svg" viewBox="0 0 235 1204">
  <path d="M129 640C106 640 86 649 75 659C53 678 49 701 49 718C49 731 51 744 57 755C63 765 73 774 83 780C92 786 103 790 114 792C123 794 141 794 141 794L158 794C157 803 153 831 147 849C140 871 132 891 119 913C106 935 86 957 61 980C44 992 28 1004 12 1013C-4 1022-20 1031-36 1038C-52 1045-68 1050-84 1055C-100 1060-116 1064-133 1067C-145 1069-156 1072-166 1073C-176 1074-186 1075-196 1075C-206 1075-216 1074-226 1072C-236 1070-247 1068-258 1064C-269 1060-282 1054-295 1047C-308 1040-322 1031-338 1020C-322 1040-306 1056-291 1069C-276 1082-261 1091-245 1098C-229 1105-213 1110-195 1111C-189 1112-182 1111-175 1111C-163 1111-149 1111-135 1109C-108 1106-81 1099-54 1091C-27 1083-1 1072 23 1058C47 1044 69 1028 90 1009C111 990 130 968 146 944C153 933 159 923 165 913C171 903 177 892 182 882C187 872 191 861 194 849C197 837 200 824 202 812L205 794L256 794L256 743L206 743C206 722 205 699 194 682C181 661 157 640 129 640M126 702L127 702C144 702 157 720 159 734C159 737 160 740 160 743L144 743L139 743C132 743 118 742 112 737C108 733 106 728 106 723C106 713 114 703 126 702"/>
</svg>