<svg xmlns="http://www.w3.org/2000/svg" viewBox="0 0 815 1204">
  <path d="M738 664C719 647 698 640 666 640C622 640 597 672 597 692C597 698 597 705 599 713C604 734 616 752 627 771C638 792 649 813 651 836L651 848C651 856 650 863 649 871C643 901 627 932 602 959C545 1021 447 1063 355 1063L353 1063C194 1061 37 956 39 772C39 760 39 747 41 734C27 768 20 800 20 831C20 990 188 1107 352 1111L362 1111C531 1111 681 994 699 862C700 853 700 845 700 836C700 812 696 800 694 794C687 775 679 766 667 744C662 735 659 722 659 712C659 701 663 692 677 692C744 692 660 794 797 794L800 794L829 794L829 743L799 743C747 743 769 691 738 664"/>
</svg>