<svg xmlns="http://www.w3.org/2000/svg" viewBox="0 0 811 1204">
  <path d="M738 664C719 647 698 640 666 640C622 640 597 672 597 692C597 698 597 705 599 713C604 734 616 752 627 771C638 792 649 813 651 836L651 848C651 856 650 863 649 871C643 901 627 932 602 959C545 1021 447 1063 355 1063L353 1063C194 1061 37 956 39 772C39 760 39 747 41 734C27 768 20 800 20 831C20 990 188 1107 352 1111L362 1111C531 1111 681 994 699 862C700 853 700 845 700 836C700 812 696 800 694 794C687 775 679 766 667 744C662 735 659 722 659 712C659 701 663 692 677 692C744 692 660 794 797 794L800 794L829 794L829 743L799 743C747 743 769 691 738 664M310 1111C307 1111 305 1112 302 1113C298 1114 295 1116 291 1119C287 1122 284 1126 281 1131C278 1136 275 1143 272 1151C271 1155 271 1159 272 1163C273 1167 274 1170 276 1173C278 1176 280 1179 282 1180C284 1181 286 1182 287 1183C287 1183 289 1185 294 1187C299 1189 305 1189 313 1187C318 1186 322 1184 326 1181C330 1178 332 1176 335 1173C338 1170 340 1167 341 1165C342 1163 343 1162 343 1161C346 1155 348 1150 348 1145C348 1140 347 1137 346 1133C344 1129 342 1124 338 1121C329 1115 321 1113 313 1112C312 1112 311 1111 310 1111M387 1111C384 1111 382 1112 379 1113C375 1114 372 1116 368 1119C364 1122 360 1126 357 1131C354 1136 352 1143 349 1151C348 1155 348 1159 349 1163C350 1167 351 1170 353 1173C355 1176 357 1179 359 1180C361 1181 362 1182 363 1183C363 1183 366 1185 371 1187C376 1189 382 1189 390 1187C395 1186 399 1184 403 1181C407 1178 409 1176 412 1173C415 1170 417 1167 418 1165C419 1163 420 1162 420 1161C423 1155 425 1150 425 1145C425 1140 424 1137 423 1133C421 1129 419 1124 415 1121C406 1115 397 1113 389 1112C388 1112 388 1111 387 1111"/>
</svg>