<svg xmlns="http://www.w3.org/2000/svg" viewBox="0 0 237 1204">
  <path d="M142 487C138 487 133 489 129 492C124 495 119 499 116 503C113 507 110 511 108 516C106 521 105 526 104 530C103 534 103 539 103 543C103 553 105 562 108 573C111 581 114 588 118 593C122 598 127 603 131 607C135 611 139 615 143 620C147 625 150 631 152 638C154 650 154 662 154 675C154 742 129 743 127 743L0 743L0 794L125 794C125 794 205 794 205 660C205 608 202 567 180 523C177 517 173 511 169 506C165 501 162 496 158 493C154 490 149 488 144 487M80 845C77 845 75 845 72 846C68 847 64 849 60 852C56 855 53 860 50 865C47 870 45 877 42 885C41 889 41 893 42 897C43 901 44 904 46 907C48 910 50 912 52 913C54 914 55 916 56 917C56 917 59 919 64 921C69 923 75 923 83 921C88 920 92 918 96 915C100 912 102 910 105 907C108 904 110 901 111 899C112 897 113 896 113 895C116 889 118 884 118 879C118 874 116 870 115 866C113 862 111 858 107 855C98 849 90 846 82 845M167 845C164 845 162 845 159 846C155 847 151 849 147 852C143 855 140 860 137 865C134 870 132 877 129 885C128 889 128 893 129 897C130 901 131 904 133 907C135 910 137 912 139 913C141 914 142 916 143 917C143 917 146 919 151 921C156 923 162 923 170 921C175 920 179 918 183 915C187 912 189 910 192 907C195 904 197 901 198 899C199 897 200 896 200 895C203 889 205 884 205 879C205 874 203 870 202 866C200 862 198 858 194 855C185 849 177 846 169 845"/>
</svg>