<svg xmlns="http://www.w3.org/2000/svg" viewBox="0 0 223 1204">
  <path d="M127 640C110 641 104 660 102 674C99 696 96 721 80 738C72 745 62 742 52 743L0 743L0 794L12 794L45 794L74 794C96 792 116 778 128 760C141 780 164 794 188 794L193 794L246 794L246 743L236 743L207 743L182 743C165 738 160 718 156 703C151 684 156 661 141 646C137 642 132 640 127 640M66 846C41 854 36 890 36 891C36 908 52 922 69 922C72 922 75 922 78 921C101 914 113 890 113 879C113 866 105 854 93 850C85 846 75 844 66 846M153 846C128 854 123 890 123 891C123 908 139 922 156 922C159 922 162 922 165 921C188 914 200 890 200 879C200 866 192 854 180 850C172 846 162 844 153 846"/>
</svg>