<svg xmlns="http://www.w3.org/2000/svg" viewBox="0 0 566 1204">
  <path d="M173 52C164 52 154 59 146 60C133 62 126 63 115 63L91 63L64 63L57 63C44 63 39 64 30 68C27 70 23 73 22 76C20 81 20 87 23 92C25 94 27 96 30 97C31 98 32 99 32 100C34 106 35 112 35 119C34 132 22 154 22 154C22 154 50 140 56 127C60 119 61 108 60 98C65 96 68 92 74 91C80 90 85 89 90 89C95 89 110 88 116 88L156 88L163 88C176 88 181 87 190 83C193 81 197 78 198 75C200 70 201 63 197 59C195 57 192 55 189 54C184 52 178 52 173 52M493 180L492 180C473 180 451 201 450 220L450 228C450 266 475 268 479 282C482 292 483 302 483 312C483 370 443 430 417 485C411 497 406 509 400 522C391 505 382 491 375 478C356 444 338 409 321 379C298 338 280 309 262 284L261 283C247 264 223 233 193 211C181 202 166 194 151 188C137 183 123 180 107 180L105 180C43 181 20 223 20 265C20 284 25 304 33 318C37 326 49 330 60 330C70 330 80 326 84 319C89 310 91 302 91 295C91 278 79 268 79 255C79 253 80 250 81 247C85 237 94 226 104 225L107 225C154 225 195 277 222 314C238 335 253 363 276 403C293 433 312 466 332 500C343 518 356 541 370 565L373 574C341 635 303 694 258 728C239 743 221 750 206 754C197 756 183 758 167 758C139 758 103 754 73 743C73 743 76 749 87 758C97 767 116 780 142 788C153 791 165 794 179 794C184 794 190 794 196 793C201 792 206 791 212 790C231 786 252 777 275 761C288 752 300 742 312 730C318 743 331 764 335 768C339 773 343 777 349 781C359 788 371 792 384 793L391 793C400 793 410 792 419 789C430 785 440 779 448 770C456 761 462 750 465 738C468 728 469 718 469 708L469 701C468 688 466 675 463 662C460 649 454 635 449 622C442 604 434 586 425 569C436 549 447 529 455 513C497 435 527 373 532 282L532 263C532 226 527 190 499 181C497 180 495 180 493 180M397 618C412 645 426 673 426 702C426 708 425 713 424 719C419 740 408 751 394 751C385 751 374 746 364 735C357 726 349 708 344 695C363 671 381 645 397 618"/>
</svg>