<svg xmlns="http://www.w3.org/2000/svg" viewBox="0 0 573 1204">
  <path d="M493 180L492 180C473 180 451 201 450 220L450 228C450 266 475 268 479 282C482 292 483 302 483 312C483 370 443 430 417 485C411 497 406 509 400 522C391 505 382 491 375 478C356 444 338 409 321 379C298 338 280 309 262 284L261 283C247 264 223 233 193 211C181 202 166 194 151 188C137 183 123 180 107 180L105 180C43 181 20 223 20 265C20 284 25 304 33 318C37 326 49 330 60 330C70 330 80 326 84 319C89 310 91 302 91 295C91 278 79 268 79 255C79 253 80 250 81 247C85 237 94 226 104 225L107 225C154 225 195 277 222 314C238 335 253 363 276 403C293 433 312 466 332 500C343 518 356 541 370 565L373 574C341 635 303 694 258 728C239 743 221 750 206 754C197 756 183 758 167 758C139 758 103 754 73 743C73 743 76 749 87 758C97 767 116 780 142 788C153 791 165 794 179 794C184 794 190 794 196 793C201 792 206 791 212 790C231 786 252 777 275 761C288 752 300 742 312 730C318 743 331 764 335 768C339 773 343 777 349 781C359 788 371 792 384 793L391 793C400 793 410 792 419 789C430 785 440 779 448 770C456 761 462 750 465 738C468 728 469 718 469 708L469 701C468 688 466 675 463 662C460 649 454 635 449 622C442 604 434 586 425 569C436 549 447 529 455 513C497 435 527 373 532 282L532 263C532 226 527 190 499 181C497 180 495 180 493 180M397 618C412 645 426 673 426 702C426 708 425 713 424 719C419 740 408 751 394 751C385 751 374 746 364 735C357 726 349 708 344 695C363 671 381 645 397 618M99 820L92 820C90 820 87 821 85 822C80 824 74 826 68 829C58 834 50 841 44 849C38 857 33 866 31 875C30 879 30 882 30 886C30 901 37 913 50 921C56 925 63 928 71 929C69 930 68 930 66 931C59 934 51 937 49 938C42 940 37 942 33 944C29 946 27 949 24 952L21 958C20 960 20 963 22 966C25 970 30 972 35 973C40 974 45 973 49 973C60 972 70 968 78 959L84 956L88 954L119 942C119 942 137 935 148 931C155 929 161 926 165 924C169 922 172 919 173 916C176 908 172 900 165 896C158 892 148 891 142 894C136 897 134 901 130 904C121 905 109 905 98 905C87 905 77 902 71 899L70 899C63 896 61 892 61 887C61 882 64 875 67 869C69 865 73 862 76 860C78 859 81 857 82 857L86 857C87 857 89 856 90 856C92 856 93 856 95 855C98 854 102 853 105 851C108 849 112 847 114 844L114 843C116 841 117 838 117 835C117 831 115 828 112 825C112 825 110 822 106 821C104 820 99 820 99 820"/>
</svg>